<svg xmlns="http://www.w3.org/2000/svg" xml:space="preserve" fill="#c8102e" fill-rule="evenodd" clip-rule="evenodd" style="shape-rendering:geometricPrecision;text-rendering:geometricPrecision;image-rendering:optimizeQuality" viewBox="-11.5 -3.3 252 292.6"><defs><style>.fil0{fill:#c8102e}</style></defs><path d="M114 38c32 0 58 26 58 58s-26 58-58 58c-31 0-57-26-57-58s26-58 57-58m0 5c29 0 53 24 53 53s-24 52-53 52-52-23-52-52 23-53 52-53" class="fil0"/><path d="M114 10c42-14 32-18 55 19 42 16 38 6 31 49 21 39 24 28-10 56-9 44-1 37-45 37-36 27-25 28-60 1-44-1-37 7-45-36-34-29-33-18-11-56-7-44-12-35 29-50C82-7 71-4 114 10m0 19c33-10 25-14 43 15 33 12 29 4 24 38 17 30 18 22-8 44-7 34-1 28-35 29-28 21-19 21-46 0-35-1-29 5-36-28-26-23-25-14-8-44-5-34-10-27 23-38 18-30 10-27 43-16" class="fil0"/><path d="M114 46c28 0 50 22 50 50s-22 50-50 50c-27 0-49-22-49-50s22-50 49-50m12 38c3 0 20 1 21 4 1 4-12 14-14 17 0 4 5 20 2 22s-17-7-21-9c-3 2-17 11-20 9s2-18 2-22c-3-3-16-13-14-17 1-3 17-4 21-4 2-4 8-19 11-19 4 0 10 15 12 19M102 189l-48 87-14-39-40 9 44-79c4 10 12 7 40 8 8 6 13 11 18 14M127 189l48 87 14-39 40 9-44-79c-4 9-11 7-39 7-8 7-14 12-19 15" class="fil0"/></svg>