<svg xmlns="http://www.w3.org/2000/svg" xml:space="preserve" fill="#c8102e" viewBox="-6.4 -4.2 140.8 136.4"><path d="M63 90.8c-2.3 0-4.5.4-6.7 1.1-1.7.6-3.4.9-5 .9-4.1 0-7.6-2-10.4-5.8l-1.2-1.5c-3.5 7.9-7.8 18-10.3 23.7-.8 1.8-1.6 3.6-2.3 5.4-.6 1.4 0 2.1 1.5 1.8.6-.1 1.2-.3 1.8-.5 3.9-1.1 7.9-2.2 11.9-3.3 1.9 3.7 3.8 7.3 5.6 10.9.3.5.5 1.1.9 1.6.8 1.3 1.7 1.3 2.3-.1.9-1.8 1.6-3.6 2.4-5.4 3.1-7.1 9.1-20.6 12.6-28.7-1 0-2.1-.1-3.1-.1M96.6 109.2c-2.5-5.7-6.9-15.7-10.3-23.7-.5.6-1.1 1.3-1.6 2-.9 1.2-3.7 5-8.5 5.2h-.7c-1.8 0-3.6-.2-5.2-.7l-4.9 11.5c2.7 6 5.3 12.2 7.1 16.2.8 1.8 1.5 3.6 2.4 5.4.7 1.4 1.5 1.4 2.3.1.3-.5.6-1.1.9-1.6 1.9-3.6 3.7-7.3 5.6-10.9 4 1.1 7.9 2.2 11.9 3.3.6.2 1.2.4 1.8.5 1.5.3 2.1-.4 1.5-1.8-.7-2-1.5-3.7-2.3-5.5M63 20.3c-13.6 0-24.7 11.1-24.7 24.7S49.4 69.7 63 69.7s24.7-11 24.7-24.7c0-13.6-11.1-24.7-24.7-24.7m15.9 25.2c-7.5 2.1-13.3 7.9-15.4 15.4-.1.4-.8.4-.9 0-2.1-7.5-7.9-13.3-15.4-15.4-.2-.1-.3-.2-.3-.4s.1-.4.3-.4c7.5-2.1 13.3-8 15.4-15.4.1-.4.8-.4.9 0 1.1 3.7 3 7.1 5.7 9.7 2.6 2.6 6 4.6 9.7 5.7.4 0 .4.6 0 .8"/><path d="M105.5 38.8c-3.1-4.1-4.6-8.7-4.5-13.5.2-5.6-2.2-8.7-7.9-10.4q-6.15-1.8-10.5-7.5c-1.1-1.4-2.3-2.7-3.3-3.6C78.1 2.6 76.8 2 75.2 2c-.5 0-1 .1-1.5.1h-.2c-1.4.3-2.6.5-3.8.9-4.4 1.3-8.9 1.3-13.2 0-1.3-.4-2.7-.6-4.1-.9-.5-.1-1.1-.2-1.6-.3-1.6.1-2.8.7-3.9 1.8C45.5 5 44.2 6.5 43 7.9c-2.4 3-5.5 5.3-9.2 6.7-1.7.7-3.4 1.4-4.9 2.2-2 1-3.1 2.5-3.4 4.7 0 .3-.1.5-.1.8-.2 1.1-.3 2.2-.3 3.2 0 6.2-2.9 11.1-5.4 14.7-2.3 3.3-2.3 6.3-.1 9.6.2.3.3.5.4.7.1.1.2.3.2.4 3.2 4.2 4.8 9.3 4.8 15 0 4.6 1.9 7.3 6.2 8.7 5.5 1.8 10 5 13.3 9.7 1.9 2.6 4 3.9 6.6 3.9 1.1 0 2.3-.2 3.5-.6 2.7-.9 5.4-1.3 8.2-1.3 2.7 0 5.5.4 8.2 1.3 1.5.4 3.1.7 4.7.6 1.8-.1 3.3-1.1 5-3.3 3.8-5.1 8.4-8.5 14-10.3 4.1-1.3 6-4 6-8.6 0-5.8 1.5-10.6 4.6-14.7 3.4-4.4 3.4-8.2.2-12.5M63 76.9c-17.6 0-31.9-14.3-31.9-31.9S45.4 13.1 63 13.1 94.9 27.4 94.9 45 80.6 76.9 63 76.9"/></svg>