<svg xmlns="http://www.w3.org/2000/svg" xmlns:xlink="http://www.w3.org/1999/xlink" xml:space="preserve" version="1.1" style="shape-rendering:geometricPrecision;text-rendering:geometricPrecision;image-rendering:optimizeQuality;" viewBox="0 0 229 345" x="0px" y="0px" fill-rule="evenodd" clip-rule="evenodd" fill="#C8102E"><defs><style type="text/css">
   
    .fil0 {fill:#C8102E}
   
  </style></defs><g><path class="fil0" d="M114 38c32,0 58,26 58,58 0,32 -26,58 -58,58 -31,0 -57,-26 -57,-58 0,-32 26,-58 57,-58zm0 5c29,0 53,24 53,53 0,29 -24,52 -53,52 -29,0 -52,-23 -52,-52 0,-29 23,-53 52,-53z"/><path class="fil0" d="M114 10c42,-14 32,-18 55,19 42,16 38,6 31,49 21,39 24,28 -10,56 -9,44 -1,37 -45,37 -36,27 -25,28 -60,1 -44,-1 -37,7 -45,-36 -34,-29 -33,-18 -11,-56 -7,-44 -12,-35 29,-50 24,-37 13,-34 56,-20zm0 19c33,-10 25,-14 43,15 33,12 29,4 24,38 17,30 18,22 -8,44 -7,34 -1,28 -35,29 -28,21 -19,21 -46,0 -35,-1 -29,5 -36,-28 -26,-23 -25,-14 -8,-44 -5,-34 -10,-27 23,-38 18,-30 10,-27 43,-16z"/><path class="fil0" d="M114 46c28,0 50,22 50,50 0,28 -22,50 -50,50 -27,0 -49,-22 -49,-50 0,-28 22,-50 49,-50zm12 38c3,0 20,1 21,4 1,4 -12,14 -14,17 0,4 5,20 2,22 -3,2 -17,-7 -21,-9 -3,2 -17,11 -20,9 -3,-2 2,-18 2,-22 -3,-3 -16,-13 -14,-17 1,-3 17,-4 21,-4 2,-4 8,-19 11,-19 4,0 10,15 12,19z"/><path class="fil0" d="M102 189l-48 87 -14 -39 -40 9 44 -79c4,10 12,7 40,8 8,6 13,11 18,14z"/><path class="fil0" d="M127 189l48 87 14 -39 40 9 -44 -79c-4,9 -11,7 -39,7 -8,7 -14,12 -19,15z"/></g></svg>