<svg xmlns="http://www.w3.org/2000/svg" xmlns:xlink="http://www.w3.org/1999/xlink" version="1.1" x="0px" y="0px" viewBox="0 0 1000 1250" enable-background="new 0 0 1000 1000" xml:space="preserve"><path d="M757.852,458.115l-21.38-37.953l21.384-37.961c3.87-6.415,5.052-14.094,3.326-21.643c-1.632-7.135-5.86-13.58-11.604-17.69  c-0.073-0.053-0.148-0.105-0.229-0.162l-36.218-25.066l2.77-43.273c0.667-7.267-1.601-14.799-6.232-20.685  c-4.71-5.986-11.605-9.944-18.938-10.878l-43.402-6.904l-15.718-41.051c-2.148-6.065-6.192-11.099-11.701-14.566  c-4.879-3.068-10.595-4.69-16.529-4.69c-2.347,0-4.697,0.259-7,0.771c-0.354,0.08-0.707,0.171-1.077,0.279l-42.1,12.423  l-32.552-29.762c-0.13-0.12-0.264-0.238-0.4-0.355c-5.455-4.689-12.48-7.272-19.781-7.272c-7.555,0-14.567,2.743-19.766,7.728  l-33.135,29.669l-41.949-12.366c-2.852-0.913-5.819-1.375-8.82-1.375c-6.06,0-11.901,1.848-16.892,5.346  c-4.984,3.494-8.686,8.337-10.714,14.016l-16.472,40.466l-43.497,6.898c-7.31,0.964-14.188,4.941-18.886,10.925  c-4.636,5.905-6.891,13.444-6.197,20.708l2.724,43.198l-35.975,24.919c-6.474,4.202-10.888,10.75-12.433,18.455  c-1.471,7.324-0.16,14.854,3.689,21.218l21.416,37.961l-21.417,37.942c-3.873,6.416-5.056,14.098-3.33,21.649  c1.635,7.151,5.878,13.609,11.6,17.689l36.45,25.252l-2.723,43.216c-0.703,7.327,1.594,14.917,6.313,20.848  c4.698,5.908,11.541,9.827,18.789,10.769l43.477,6.895l9.117,22.397l-52.294,161.407c-2.26,6.818-1.038,14.469,3.271,20.465  c4.311,6.001,11.138,9.583,18.262,9.583c2.16,0,4.303-0.325,6.37-0.965l42.219-12.442l27.579,35.124l0.071,0.089  c4.33,5.379,10.832,8.464,17.838,8.464c10.16,0,18.944-6.476,21.883-16.123l43.439-134.649c1.257-3.899,6.243-9.864,9.809-9.864  c3.881,0,8.619,6.318,9.998,10.595L553.774,832.6l0.06,0.179c1.628,4.834,4.942,9.034,9.334,11.828  c3.822,2.433,8.238,3.718,12.768,3.718c6.87,0,13.207-2.989,17.415-8.209l27.729-35.226l42.335,12.438l0.159,0.047  c2.151,0.616,4.357,0.929,6.557,0.929c7.656,0,14.701-3.755,18.843-10.043c3.932-5.968,4.71-13.6,2.098-20.466l-52.545-162.6  l8.749-21.495l43.47-6.893c7.332-0.947,14.228-4.922,18.935-10.917c4.627-5.891,6.891-13.42,6.221-20.677l-2.767-42.533  l35.969-24.894c6.478-4.202,10.892-10.752,12.438-18.457C763.01,472.007,761.7,464.479,757.852,458.115z M421.268,803.283  l-19.557-24.908c-4.161-5.705-10.917-9.105-18.111-9.105c-2.246,0-4.457,0.332-6.572,0.988l-29.788,8.778l28.604-88.331  c6.86,2.719,14.004,4.096,21.268,4.096c5.806,0,11.175-0.916,17.401-2.969l25.658-8.013l15.237,13.636L421.268,803.283z   M653.556,779.774l-29.75-8.74c-2.146-0.684-4.392-1.03-6.68-1.03c-7.211,0-13.965,3.421-18.113,9.161l-19.531,24.813  l-34.164-105.91l15.416-14.201l25.123,7.847c5.357,2.021,11.5,3.088,17.784,3.088c7.254,0,14.387-1.373,21.235-4.083  L653.556,779.774z M706.188,434.108c0.123,0.245,0.25,0.485,0.396,0.745l21.045,37.358l-34.88,24.141  c-0.339,0.234-0.669,0.482-0.997,0.747c-7.496,6.062-11.972,15.232-11.972,24.529c0,0.357,0.011,0.715,0.034,1.078l2.715,41.738  l-42.35,6.716l-0.156,0.026c-10.509,1.77-19.487,9.005-22.927,18.459l-16.187,39.769l-40.884-12.045  c-2.734-0.872-5.568-1.314-8.424-1.314c-6.725,0-13.354,2.438-19.189,7.063c-0.301,0.24-0.594,0.49-0.881,0.752l-31.526,28.861  l-31.334-28.677c-5.266-5.085-12.597-7.999-20.135-7.999c-2.929,0-5.798,0.443-8.529,1.319l-40.915,12.041l-16.167-39.717  c-3.396-9.496-12.39-16.753-22.995-18.521l-42.42-6.728l2.678-42.504c0.022-0.35,0.033-0.7,0.033-1.05  c0-9.404-4.523-18.604-12.108-24.615c-0.275-0.218-0.56-0.429-0.851-0.63l-34.889-24.168l21.083-37.352  c0.137-0.244,0.268-0.49,0.405-0.764c4.479-9.002,4.473-18.904-0.014-27.879c-0.127-0.254-0.261-0.506-0.391-0.735l-21.083-37.374  l34.882-24.163c0.294-0.203,0.582-0.417,0.868-0.643c7.575-6.005,12.098-15.205,12.098-24.608c0-0.35-0.011-0.7-0.033-1.046  l-2.68-42.507l42.346-6.715l0.162-0.027c10.554-1.782,19.518-9.029,22.908-18.505l16.167-39.715l40.933,12.067  c2.721,0.865,5.54,1.304,8.382,1.304c6.755-0.001,13.399-2.457,19.205-7.093c0.251-0.2,0.497-0.409,0.723-0.612l32.377-28.989  l31.359,28.672c5.263,5.1,12.602,8.022,20.161,8.022c2.917,0,5.775-0.438,8.498-1.304l40.869-12.06l15.429,40.296  c3.395,9.557,12.407,16.873,23.045,18.664l42.459,6.755l-2.717,42.454c-0.023,0.357-0.034,0.714-0.034,1.072  c0,9.251,4.458,18.407,11.909,24.477c0.336,0.275,0.686,0.539,1.055,0.795l34.885,24.144l-21.055,37.375  c-0.13,0.232-0.255,0.467-0.375,0.708C701.706,415.178,701.7,425.087,706.188,434.108z"/></svg>