<svg xmlns="http://www.w3.org/2000/svg" fill="#c8102e" viewBox="-5 -2 110 99"><path d="M44.371 957.363c-.48-.007-1.06.07-1.798.267-3.936 1.055-2.229 2.841-5.758 4.879s-4.222-.334-7.103 2.547c-2.882 2.882-.51 3.574-2.548 7.104-2.037 3.529-3.824 1.822-4.879 5.758s1.347 3.35 1.347 7.426c0 4.075-2.401 3.49-1.347 7.426 1.055 3.937 2.842 2.23 4.88 5.759s-.335 4.221 2.547 7.103c2.881 2.882 3.574.51 7.103 2.547s1.822 3.824 5.758 4.88c3.937 1.054 3.351-1.347 7.426-1.347s3.49 2.401 7.427 1.346 2.229-2.84 5.758-4.879c3.53-2.037 4.222.335 7.103-2.547 2.882-2.882.51-3.574 2.548-7.103 2.037-3.53 3.824-1.822 4.879-5.759 1.054-3.936-1.347-3.35-1.347-7.426 0-4.075 2.401-3.49 1.347-7.426-1.055-3.936-2.842-2.23-4.88-5.758-2.037-3.53.335-4.222-2.547-7.104-2.881-2.881-3.574-.51-7.103-2.547s-1.822-3.824-5.758-4.879-3.351 1.346-7.427 1.346c-3.31 0-3.545-1.585-5.628-1.613m5.628 5.703c12.294 0 22.279 9.985 22.279 22.278s-9.985 22.279-22.279 22.279c-12.293 0-22.278-9.986-22.278-22.279s9.985-22.278 22.278-22.278m0 3.1c-10.6 0-19.176 8.577-19.176 19.178s8.575 19.178 19.176 19.178c10.602 0 19.179-8.577 19.179-19.178s-8.577-19.178-19.179-19.178m0 4.164c2.298 0 3.48 6.595 5.338 7.945s8.496.436 9.206 2.621-5.196 5.348-5.906 7.533 2.21 8.214.351 9.565-6.691-3.29-8.989-3.29c-2.297 0-7.13 4.64-8.988 3.29-1.859-1.35 1.06-7.38.35-9.565-.709-2.185-6.615-5.348-5.905-7.533s7.347-1.27 9.206-2.62 3.04-7.946 5.337-7.946m-20.723 38.981c-5.013 10.906-8.675 22.443-10.76 34.322h.001c-.117.665.6 1.082 1.071.645a121 121 0 0 1 8.095-6.858c1.778-1.291 2.184-1.116 3.207.833.001 0 .007 0 .004.01a111 111 0 0 0 4.844 8.777c.315.509 1.116.372 1.214-.19 1.84-10.627 5.194-21.006 9.825-30.808-1.263.405-3.137.658-5.042.147-2.524-.676-4.334-2.483-4.964-3.52-.75-1.15-1.724-2.204-3.543-2.204l.017-.01h-.297c-.834-.019-2.261-.351-3.673-1.15zm41.449 0c-1.412.8-2.84 1.132-3.673 1.151h-.297l.017.01c-1.82 0-2.793 1.054-3.543 2.204-.63 1.036-2.44 2.843-4.964 3.52-1.905.51-3.78.257-5.042-.147 4.631 9.802 7.985 20.18 9.825 30.807.098.563.9.7 1.214.19a111 111 0 0 0 4.844-8.776c-.003-.011.003-.01.004-.01 1.023-1.95 1.43-2.125 3.207-.834a121 121 0 0 1 8.095 6.858c.472.437 1.188.02 1.07-.644h.002c-2.085-11.88-5.746-23.416-10.76-34.323z" style="color:#c8102e;font-style:normal;font-variant:normal;font-weight:400;font-stretch:normal;font-size:medium;line-height:normal;font-family:sans-serif;text-indent:0;text-align:start;text-decoration:none;text-decoration-line:none;text-decoration-style:solid;text-decoration-color:#c8102e;letter-spacing:normal;word-spacing:normal;text-transform:none;direction:ltr;block-progression:tb;writing-mode:lr-tb;baseline-shift:baseline;text-anchor:start;white-space:normal;clip-rule:nonzero;display:inline;overflow:visible;visibility:visible;opacity:1;isolation:auto;mix-blend-mode:normal;color-interpolation:sRGB;color-interpolation-filters:linearRGB;solid-color:#c8102e;solid-opacity:1;fill:#c8102e;fill-opacity:1;fill-rule:nonzero;stroke:none;stroke-width:2;stroke-linecap:round;stroke-linejoin:round;stroke-miterlimit:4;stroke-dasharray:none;stroke-dashoffset:288.50640869;stroke-opacity:1;color-rendering:auto;image-rendering:auto;shape-rendering:auto;text-rendering:auto" transform="translate(0 -952.362)"/></svg>