<svg xmlns="http://www.w3.org/2000/svg" version="1.1" viewBox="-5.0 -10.0 110.0 135.0" fill="#C8102E">
 <path d="m69.207 87.941h-38.414c-2.4648 0-4.4648 1.9961-4.4688 4.4648v4.4688h47.348v-4.4688c-0.003906-2.4648-2-4.4648-4.4648-4.4648z"/>
 <path d="m33.215 84.219v2.0352h33.57v-2.0352c0-1.125-0.91016-2.0352-2.0352-2.0391h-29.5c-1.125 0.003906-2.0352 0.91406-2.0352 2.0391z"/>
 <path d="m47.961 72.035h4.0742v8.4609h-4.0742z"/>
 <path d="m56.035 67.969v-1.7188l-0.60938 0.011719-0.28125 0.007812h-10.297l-0.14453-0.003906-0.13672-0.003906-0.60547-0.007813v1.7188-0.003906c-0.003907 1.3125 1.0586 2.3789 2.3711 2.3828h7.3281c1.3125-0.003906 2.375-1.0703 2.375-2.3828z"/>
 <path d="m71.133 50.293c0 3.9297-1.457 7.7266-4.0859 10.648l-0.15234 0.17188v7.3477l5.0938-3.8086c0.30078-0.22266 0.71094-0.22266 1.0117-0.003906l5.0859 3.8125v-59.578h-6.9531z"/>
 <path d="m85.074 17.527h-5.3047v4.0742h4.9219c0.46484 0 0.84375 0.37891 0.84375 0.84375v11.883-0.003906c-0.019531 4.3555-2.0625 8.4492-5.5273 11.078l-0.23828 0.17969v4.7969l0.89844-0.52344c5.5234-3.2227 8.9258-9.1328 8.9414-15.531v-12.27 0.003906c-0.003906-2.5039-2.0352-4.5312-4.5352-4.5312z"/>
 <path d="m10.391 22.059v12.27-0.003906c0.015625 6.3945 3.4141 12.305 8.9336 15.531l0.89844 0.52344v-4.7969l-0.23438-0.17969c-3.4648-2.6328-5.5039-6.7266-5.5234-11.078v-11.883 0.003906c0-0.46484 0.37891-0.84375 0.84375-0.84375h4.9141v-4.0742h-5.3047 0.003906c-2.5 0.003906-4.5273 2.0273-4.5312 4.5312z"/>
 <path d="m28.012 64.648 5.0859 3.8086v-7.3477l-0.15234-0.17188c-2.625-2.9258-4.0781-6.7148-4.0781-10.645v-41.41h-6.957v59.578l5.0938-3.8086h-0.003906c0.30078-0.22656 0.71094-0.22656 1.0117-0.003906z"/>
 <path d="m34.496 60.133c0.035156 0.035157 0.070312 0.070313 0.10156 0.10938l0.035156 0.039062v-0.003906c2.6797 2.7617 6.3672 4.3203 10.215 4.3086h10.297c3.8398 0.011718 7.5234-1.5391 10.203-4.2891l0.046875-0.050781h-0.003906c0.035156-0.046875 0.074219-0.085938 0.11719-0.125l0.046876-0.042969c2.5-2.6445 3.8945-6.1445 3.8906-9.7852v-38.531h-38.895v38.531c0 3.6523 1.4023 7.168 3.9219 9.8164zm21.715-14.223-6.2148-4.5273-6.2227 4.5352 0.003906 0.003906c-0.25781 0.19141-0.57031 0.29297-0.88672 0.29297-0.49219-0.003906-0.95312-0.23828-1.2383-0.64062-0.28516-0.39844-0.35938-0.91016-0.19922-1.375l2.3828-7.2969-6.2344-4.5078v-0.003906c-0.53516-0.38672-0.75781-1.0742-0.55469-1.6992 0.20312-0.62891 0.78516-1.0508 1.4414-1.0508l7.6992 0.015625 2.3633-7.3203c0.20312-0.62891 0.78906-1.0547 1.4492-1.0547s1.2461 0.42969 1.4453 1.0586l2.3594 7.3164 7.6953-0.015625c0.66406-0.003906 1.25 0.42188 1.4531 1.0547 0.20312 0.62891-0.027344 1.3203-0.56641 1.7031l-6.2266 4.5039 2.3945 7.3125v-0.003906c0.20703 0.625-0.011719 1.3125-0.53906 1.7031l-0.039063 0.027344c-0.53125 0.37109-1.2422 0.35938-1.7617-0.03125z"/>
 <path d="m54.672 35.898 6.3203-4.5703-7.8008 0.015625c-0.36719 0-0.6875-0.23828-0.80078-0.58594l-2.3945-7.4141-2.3945 7.4141c-0.10937 0.35156-0.43359 0.58594-0.80078 0.58594l-7.7969-0.015625 6.3164 4.5703c0.29688 0.21484 0.42188 0.59375 0.30859 0.94141l-2.4219 7.4062 6.293-4.5859c0.29688-0.21484 0.69531-0.21484 0.99219 0l6.3008 4.5898-2.4258-7.4062c-0.11328-0.34766 0.007812-0.73047 0.30469-0.94531z"/>
 <path d="m30.551 3.125h38.895v6.9531h-38.895z"/>
</svg>