<svg xmlns="http://www.w3.org/2000/svg" xml:space="preserve" fill="#c8102e" viewBox="137 135.5 726 759"><path d="m757.852 458.115-21.38-37.953 21.384-37.961c3.87-6.415 5.052-14.094 3.326-21.643-1.632-7.135-5.86-13.58-11.604-17.69q-.109-.078-.229-.162l-36.218-25.066 2.77-43.273c.667-7.267-1.601-14.799-6.232-20.685-4.71-5.986-11.605-9.944-18.938-10.878l-43.402-6.904-15.718-41.051c-2.148-6.065-6.192-11.099-11.701-14.566-4.879-3.068-10.595-4.69-16.529-4.69-2.347 0-4.697.259-7 .771-.354.08-.707.171-1.077.279l-42.1 12.423-32.552-29.762q-.196-.18-.4-.355c-5.455-4.689-12.48-7.272-19.781-7.272-7.555 0-14.567 2.743-19.766 7.728l-33.135 29.669-41.949-12.366a28.9 28.9 0 0 0-8.82-1.375c-6.06 0-11.901 1.848-16.892 5.346-4.984 3.494-8.686 8.337-10.714 14.016l-16.472 40.466-43.497 6.898c-7.31.964-14.188 4.941-18.886 10.925-4.636 5.905-6.891 13.444-6.197 20.708l2.724 43.198-35.975 24.919c-6.474 4.202-10.888 10.75-12.433 18.455-1.471 7.324-.16 14.854 3.689 21.218l21.416 37.961-21.417 37.942c-3.873 6.416-5.056 14.098-3.33 21.649 1.635 7.151 5.878 13.609 11.6 17.689l36.45 25.252-2.723 43.216c-.703 7.327 1.594 14.917 6.313 20.848 4.698 5.908 11.541 9.827 18.789 10.769l43.477 6.895 9.117 22.397-52.294 161.407c-2.26 6.818-1.038 14.469 3.271 20.465 4.311 6.001 11.138 9.583 18.262 9.583 2.16 0 4.303-.325 6.37-.965l42.219-12.442 27.579 35.124.071.089c4.33 5.379 10.832 8.464 17.838 8.464 10.16 0 18.944-6.476 21.883-16.123l43.439-134.649c1.257-3.899 6.243-9.864 9.809-9.864 3.881 0 8.619 6.318 9.998 10.595L553.774 832.6l.06.179c1.628 4.834 4.942 9.034 9.334 11.828a23.74 23.74 0 0 0 12.768 3.718c6.87 0 13.207-2.989 17.415-8.209l27.729-35.226 42.335 12.438.159.047c2.151.616 4.357.929 6.557.929 7.656 0 14.701-3.755 18.843-10.043 3.932-5.968 4.71-13.6 2.098-20.466l-52.545-162.6 8.749-21.495 43.47-6.893c7.332-.947 14.228-4.922 18.935-10.917 4.627-5.891 6.891-13.42 6.221-20.677l-2.767-42.533 35.969-24.894c6.478-4.202 10.892-10.752 12.438-18.457 1.468-7.322.158-14.85-3.69-21.214M421.268 803.283l-19.557-24.908c-4.161-5.705-10.917-9.105-18.111-9.105-2.246 0-4.457.332-6.572.988l-29.788 8.778 28.604-88.331c6.86 2.719 14.004 4.096 21.268 4.096 5.806 0 11.175-.916 17.401-2.969l25.658-8.013 15.237 13.636zm232.288-23.509-29.75-8.74a22 22 0 0 0-6.68-1.03c-7.211 0-13.965 3.421-18.113 9.161l-19.531 24.813-34.164-105.91 15.416-14.201 25.123 7.847c5.357 2.021 11.5 3.088 17.784 3.088 7.254 0 14.387-1.373 21.235-4.083zm52.632-345.666c.123.245.25.485.396.745l21.045 37.358-34.88 24.141q-.507.35-.997.747c-7.496 6.062-11.972 15.232-11.972 24.529q0 .534.034 1.078l2.715 41.738-42.35 6.716-.156.026c-10.509 1.77-19.487 9.005-22.927 18.459l-16.187 39.769-40.884-12.045a27.7 27.7 0 0 0-8.424-1.314c-6.725 0-13.354 2.438-19.189 7.063q-.451.36-.881.752l-31.526 28.861-31.334-28.677c-5.266-5.085-12.597-7.999-20.135-7.999-2.929 0-5.798.443-8.529 1.319l-40.915 12.041-16.167-39.717c-3.396-9.496-12.39-16.753-22.995-18.521l-42.42-6.728 2.678-42.504q.033-.525.033-1.05c0-9.404-4.523-18.604-12.108-24.615q-.413-.328-.851-.63l-34.889-24.168 21.083-37.352c.137-.244.268-.49.405-.764 4.479-9.002 4.473-18.904-.014-27.879a16 16 0 0 0-.391-.735l-21.083-37.374 34.882-24.163q.44-.304.868-.643c7.575-6.005 12.098-15.205 12.098-24.608q0-.526-.033-1.046l-2.68-42.507 42.346-6.715.162-.027c10.554-1.782 19.518-9.029 22.908-18.505l16.167-39.715 40.933 12.067a27.6 27.6 0 0 0 8.382 1.304c6.755-.001 13.399-2.457 19.205-7.093.251-.2.497-.409.723-.612l32.377-28.989 31.359 28.672c5.263 5.1 12.602 8.022 20.161 8.022 2.917 0 5.775-.438 8.498-1.304l40.869-12.06 15.429 40.296c3.395 9.557 12.407 16.873 23.045 18.664l42.459 6.755-2.717 42.454q-.034.535-.034 1.072c0 9.251 4.458 18.407 11.909 24.477q.503.412 1.055.795l34.885 24.144-21.055 37.375q-.195.347-.375.708c-4.493 8.982-4.499 18.891-.011 27.912"/></svg>