<svg xmlns="http://www.w3.org/2000/svg" fill="#c8102e" viewBox="-10.5 -1.7 121 103.4"><path d="M69.207 87.941H30.793a4.47 4.47 0 0 0-4.469 4.465v4.469h47.348v-4.47a4.47 4.47 0 0 0-4.465-4.464zM33.215 84.219v2.035h33.57V84.22a2.04 2.04 0 0 0-2.035-2.04h-29.5a2.04 2.04 0 0 0-2.035 2.04zM47.961 72.035h4.074v8.46h-4.074zM56.035 67.969V66.25l-.61.012-.28.008H44.846l-.144-.004-.137-.004-.605-.008v1.719-.004a2.377 2.377 0 0 0 2.37 2.383h7.329a2.383 2.383 0 0 0 2.375-2.383zM71.133 50.293c0 3.93-1.457 7.727-4.086 10.648l-.152.172v7.348l5.094-3.809A.86.86 0 0 1 73 64.648l5.086 3.813V8.883h-6.953zM85.074 17.527h-5.305v4.074h4.922c.465 0 .844.38.844.844v11.883-.004a13.98 13.98 0 0 1-5.527 11.078l-.239.18v4.797l.899-.524a18.03 18.03 0 0 0 8.941-15.53v-12.27.003a4.54 4.54 0 0 0-4.535-4.531M10.391 22.059v12.27-.004a18.04 18.04 0 0 0 8.934 15.531l.898.524v-4.797l-.234-.18a13.99 13.99 0 0 1-5.524-11.078V22.442v.004c0-.465.38-.844.844-.844h4.914v-4.074h-5.305.004a4.537 4.537 0 0 0-4.53 4.531zM28.012 64.648l5.086 3.809v-7.348l-.152-.172a15.94 15.94 0 0 1-4.079-10.645V8.882H21.91V68.46l5.094-3.809H27a.844.844 0 0 1 1.012-.003z"/><path d="M34.496 60.133q.053.051.102.11l.035.038v-.003a14.18 14.18 0 0 0 10.215 4.308h10.297c3.84.012 7.523-1.539 10.203-4.289l.047-.05h-.004a1 1 0 0 1 .117-.126l.047-.043a14.22 14.22 0 0 0 3.89-9.785v-38.53H30.55v38.53c0 3.652 1.403 7.168 3.922 9.816zM56.211 45.91l-6.215-4.527-6.222 4.535.003.004a1.5 1.5 0 0 1-.886.293 1.53 1.53 0 0 1-1.239-.64 1.51 1.51 0 0 1-.199-1.376l2.383-7.297-6.234-4.508v-.003a1.518 1.518 0 0 1 .886-2.75l7.7.015 2.363-7.32a1.518 1.518 0 0 1 2.895.004l2.359 7.316 7.695-.015a1.52 1.52 0 0 1 .887 2.758l-6.227 4.503 2.395 7.313v-.004a1.52 1.52 0 0 1-.54 1.703l-.039.027a1.5 1.5 0 0 1-1.761-.031z"/><path d="m54.672 35.898 6.32-4.57-7.8.015a.84.84 0 0 1-.801-.586l-2.395-7.414-2.394 7.414a.835.835 0 0 1-.801.586l-7.797-.015 6.316 4.57a.84.84 0 0 1 .309.941l-2.422 7.407L49.5 39.66a.84.84 0 0 1 .992 0l6.301 4.59-2.426-7.407a.84.84 0 0 1 .305-.945M30.551 3.125h38.895v6.953H30.551z"/></svg>