<svg xmlns="http://www.w3.org/2000/svg" version="1.1" viewBox="-5.0 -10.0 110.0 135.0" fill="#C8102E">
 <path d="m47.938 53.5c1.4375 0.15625 2.6797 0.15625 4.1172 0 10.055-1.0391 17.633-9.4531 17.633-19.57 0-10.852-8.8359-19.688-19.695-19.688-10.852 0-19.688 8.8281-19.688 19.688 0.007812 10.125 7.5781 18.539 17.633 19.57zm2.0625-36.539c9.3594 0 16.969 7.6094 16.969 16.969 0 9.3594-7.6172 16.969-16.969 16.969-9.3594 0-16.969-7.6094-16.969-16.969 0-9.3594 7.6094-16.969 16.969-16.969z"/>
 <path d="m50 42.391-6.1406 4.4609c-0.40625 0.29688-0.86719 0.46875-1.3359 0.53125 2.2188 1.2344 4.7656 1.9531 7.4844 1.9531s5.2734-0.71875 7.5-1.9609c-0.48437-0.054688-0.95312-0.22656-1.3594-0.52344z"/>
 <path d="m39.359 43.586 2.3438-7.2188-6.1406-4.4609c-0.28906-0.21094-0.52344-0.46094-0.71094-0.74219-0.16406 0.89844-0.26562 1.8203-0.26562 2.7656 0 4.3125 1.7891 8.2188 4.6562 11.016-0.0625-0.44531-0.03125-0.90625 0.11719-1.3594z"/>
 <path d="m49.992 55.172c-0.44531 0-0.89844-0.023437-1.3594-0.054687v1.2578c0 4.0078-3.0625 7.3203-6.9688 7.7109v2.8984h16.656v-2.8984c-3.9062-0.39063-6.9688-3.7031-6.9688-7.7109v-1.2578c-0.45312 0.039062-0.90625 0.054687-1.3594 0.054687z"/>
 <path d="m44.875 26.617 2.3438-7.2188c0.078125-0.24219 0.1875-0.45313 0.32031-0.66406-4.8516 0.78125-8.9531 3.8281-11.172 8.0234 0.28906-0.09375 0.59375-0.14062 0.90625-0.14062z"/>
 <path d="m43.086 35.438c0.27344 0.19531 0.39062 0.55469 0.28125 0.875l-2.5234 7.7578c-0.17969 0.5625 0.015625 1.1719 0.49219 1.5234 0.47656 0.35156 1.1172 0.35156 1.5938 0l6.6016-4.7969c0.27344-0.19531 0.64844-0.19531 0.92188 0l6.6016 4.7969c0.46875 0.34375 1.1328 0.33594 1.5938 0 0.47656-0.35156 0.67969-0.96094 0.49219-1.5234l-2.5234-7.7578c-0.10156-0.32031 0.007812-0.67188 0.28125-0.875l6.6016-4.7969c0.47656-0.34375 0.67969-0.96094 0.49219-1.5234-0.17969-0.5625-0.70313-0.9375-1.2969-0.9375h-8.1406c-0.33594 0-0.64063-0.21875-0.74219-0.53906l-2.5234-7.7578c-0.17969-0.5625-0.70312-0.9375-1.2891-0.9375-0.59375 0-1.1094 0.375-1.2891 0.9375l-2.5234 7.7578c-0.10156 0.32031-0.40625 0.53906-0.74219 0.53906h-8.1641c-0.59375 0-1.1094 0.375-1.2891 0.9375-0.17969 0.5625 0.015624 1.1719 0.49219 1.5234z"/>
 <path d="m40.875 68.555h-1.1641v2.8594h20.578v-2.8594h-1.1719-0.007813-18.227-0.007812z"/>
 <path d="m60.641 43.586c0.14844 0.45312 0.17969 0.91406 0.10938 1.3594 2.8672-2.7969 4.6562-6.7031 4.6562-11.016 0-0.94531-0.10156-1.8672-0.26562-2.7656-0.1875 0.28125-0.42188 0.53906-0.71094 0.74219l-6.1406 4.4609z"/>
 <path d="m38.93 72.969h-3.9141v12.789h29.961v-12.789zm20.461 9.2891c0 0.42969-0.35156 0.78125-0.78125 0.78125h-17.219c-0.42969 0-0.78125-0.35156-0.78125-0.78125v-5.7812c0-0.42969 0.35156-0.78125 0.78125-0.78125h17.219c0.42969 0 0.78125 0.35156 0.78125 0.78125z"/>
 <path d="m55.125 26.617h7.5938c0.3125 0 0.625 0.046874 0.90625 0.14062-2.2188-4.1953-6.3125-7.2422-11.172-8.0234 0.13281 0.20312 0.24219 0.42188 0.32031 0.66406z"/>
 <path d="m42.172 77.25h15.656v4.2188h-15.656z"/>
</svg>