<svg id="Layer_1" data-name="Layer 1" xmlns="http://www.w3.org/2000/svg" viewBox="0 0 506.55 1345.07"><title>4</title><path d="M767.9,174.83c-5.36.26-11.21-1.13-12.5,7.23-0.52,3.34-4.37,2.2-5.09-.56-3.14-12-15.21-15-22.35-22.87-1.07-1.18-2.35-2.08-3.79-1.18-2.18,1.36-.57,3.11.11,4.45,3,5.87,9.89,9.12,11.52,17.91-6.22-5.69-11.56-10.26-16.52-15.22-3.23-3.23-6.43-4.25-10.32-1.66-2.32,1.55-4.65,2.52-7.51,1.92-0.89-.19-2.59-0.14-2.74.25-2.47,6.53-10.46,8.14-13,14.29-3,7.34-9.36,7.41-15.53,8.08-1.15.12-3.17-2-3.34,0.37-0.44,6.23-5.07,8.4-9.46,11a2.36,2.36,0,0,0-1.07,1c-5.12,14.44-21.24,20.38-26.71,34.55-0.43,1.12-1.8,2.13-1.75,3.15,0.81,17.67-11.7,35.59,3,53.28,6.16,7.41,11,15.74,19.23,21.3,3.23,2.18,6.2,3.43,10.13,1.77a18.58,18.58,0,0,1,13.51-.89c3.88,1.28,7-1.47,10.21-3,6.55-3,12.55-4.26,16.87,3.49a5.78,5.78,0,0,0,6.23,2.94c6.84-1.06,7.55,2.3,5.57,7.59-3,8.12-.27,14.23,4.47,21.36,7.2,10.85,11.86,23.17,5.81,36.78-3.89,8.75-3.35,17.53,1.47,25.92A39.82,39.82,0,0,1,730,426.66c0.12,3.05.76,6.77,2.62,8.94,6.1,7.11,4,18.12,12.08,24.17,1.71,1.29.21,3.23-.2,4.77-6.82,25.58-9.41,51.64-8.85,78,0.1,4.63-1.06,6.71-6,6.41a116.5,116.5,0,0,0-16.06.09c-6.26.49-7.55-2.17-7.34-8,0.82-23.16-.26-46.23-5.68-68.89-8.12-33.91-22.6-64.59-46.61-90.29-2.66-2.85-5.62-7.65-10.15-5-3.8,2.19-2,7.29-1.34,10.83,4.28,21.68,9.17,43.24,13.44,64.91,5.3,26.91,7.3,53.94,2.4,81.22-1.06,5.88-2.46,9.11-9.11,6.17-3.31-1.47-6.92-2.25-10.4-3.3-8-2.42-14.72-5.91-20.09-13.15-7.45-10.06-18.37-15-31.26-14a13.68,13.68,0,0,1-9.5-2.65c-60.42-42.26-98.46-99.28-109.2-172.39-12.23-83.21,15.12-154,74-212.7C584.16,80.5,634.94,56.5,692.84,51.19c80.8-7.41,151.45,17.06,208.4,76,34.33,35.55,58.27,77.33,66.8,126.52,16,92.39-12.5,169.69-81,232.81-5.54,5.1-11.63,9.6-17.54,14.29-6.66,5.29-13.21,9.24-22.79,9.07-12.05-.21-21,7.61-28.44,17-7.74,9.74-19.93,10.16-30.65,13.39-3.49,1.05-3.17-3.06-3.48-5.12a210.57,210.57,0,0,1-1.39-56c1.7-14.73,4.22-29.35,7.31-43.86,0.35-1.66.46-3.8,1.54-4.8,6.62-6.15,10.46-12.94,8.82-22.57-0.4-2.33,4.38-4.09,6.94-5.91,14-10,17.78-20.87,12.7-37.12A20,20,0,0,1,822,348c4.87-7.77,9.63-15.77,16.91-21.81,12-9.94,15.45-24.42,19.17-38.44,1.8-6.8-1.26-8.74-7.95-6.51C845,283,839.86,285.36,834,285.11c1.21-3.21,4.1-3.89,6.45-4.68,10.62-3.57,18.8-11.06,27.64-17.32,6.84-4.84,7.67-13.3,7.72-21,0-5.53-6.9-6.05-10.57-10.93A59,59,0,0,0,885.71,233a4.28,4.28,0,0,1,3.28,1.17c5.79,7.7,14.83,12.64,17.82,22.84,3.2,10.93,7.59,21.52,11.59,32.2,1.1,2.95,2.34,6.11,6.68,5.12,3.24-.74,1.78,2,2.09,3.2,0.49,1.87,1.3,3.17,3.35,3.15s3.08-1.58,3.46-3.23c0.69-3.09,1.18-6.34-.44-9.28-5.73-10.38-4.64-20.66-.2-31.16,2.32-5.48,3.88-11.28,5.89-17.27,5.64,4.47,4.68,12,10.09,18.19-0.85-8.94-3.09-15.49-7-21.33-2.6-3.92-6.12-2.83-6.68,1.24-1.77,12.85-12.07,23.51-9.07,37.7,0.85,4-.37,9-3.71,13.94-5-14.25-11.61-26.94-14.79-40.92-0.74-3.25-.44-6.76-5.81-5.46-2.25.55-3.17-2.62-4.35-4.39-4.44-6.64-9.65-11.25-18.61-9.63-4.77.86-9.78,0.45-13.71-3.3a2.35,2.35,0,0,0-1.13-.86C854.1,227.54,849,220.14,843,214a5,5,0,0,0-7.29-.23c-1.87,2,.42,4,1.53,5.79,1.92,3.09,3.84,6.2,5.87,9.22,6.48,9.67,9.5,10.18,18.76,3,0.93,1.37,1.54,3.38,2.81,4,10.72,5,6.52,12.65,3.79,20.05a6.47,6.47,0,0,1-1.86,3.06c-10.21,7.09-19.79,15.21-31.83,19.36-4.19,1.44-5.58-1-6.07-4-3.1-18.88-16.12-32.51-25.22-48.21-2.94-5.07-6.67-8.8-14.19-7.47,3.49,8.65,7.06,17.23,12.19,25.12,0.79,1.22,2.35,2.17,2.64,3.44,3.06,13.76,12.13,23.44,22,32.51,3.13,2.88,1.1,9.16,6,10.13,5.78,1.15,11.36-1.75,17-2.84a22.78,22.78,0,0,0,4.06-1.61c1.47,2.22.77,4.35,0,6.36-4.67,12.73-9.39,24.86-19.94,34.86-12.22,11.59-21,25.3-16.12,44.75C821,386.56,815,394,798.13,402.39c1.14-6.9,2.37-13.53,3.25-20.2,0.26-2,1-4.66-1.65-5.82S795,376.44,793,378c-4.85,3.77-8.68,8.52-12.41,13.33a198.62,198.62,0,0,0-31.54,58c-0.68,2-.87,5.26-3.06,5.18-2.79-.11-3-3.29-3.05-5.73a15.74,15.74,0,0,0-3.34-8.73,31.18,31.18,0,0,1-5.66-16.31,38.3,38.3,0,0,0-5.6-17.15c-5.37-8.91-4.2-17.38-.48-27,4.7-12.2.56-24.72-6.34-34.94-4.75-7-7.2-12.85-5.1-21.28,2.39-9.56.42-11.51-9.25-12.13a6.65,6.65,0,0,1-4.44-2c-7.64-7.23-10.52-8.06-19.68-3-8.77,4.8-18.35,1.46-27.51,3.66-5,1.2-12.37-5.72-15.06-11.11-3.82-7.63-10.33-13.59-12.71-21.93-0.4-1.4-1.53-3-1.21-4.14,5.31-19.94.8-44,23.62-56.68,1.43-.79,3.39-2.06,3.61-3.37,1.57-9.11,10.62-11.94,15.08-18.55,1.25-1.86,2.61-1.43,4.4-.83a16.62,16.62,0,0,0,14-1.67c9.26-5.33,19.39-3.49,29.29-3.52,4.24,0,3.95,3.07,3.09,5.66-2,6.05.71,9,6.32,9.45,6.53,0.48,8.83,7.39,14.68,8.8,4.52,1.09,9.35,4.75,10.63-3.81,0.56-3.75,3.8-2.71,6.48-1.79,9.67,3.34,19.33,5.84,29.83,3.52,5.62-1.24,8.65-5.45,8.41-13.55-0.18-6-3.09-7.62-8.47-6.46-4.53,1-9-.12-13.44-0.63-5.39-.62-7.28-5.05-9.49-9.15-1.95-3.62,2-3.66,3.1-5.43,1,0.12,2,.59,2.86.3,9.43-3.37,18.82-4,28.31-.21,1.05,0.42,2.41.16,3.62,0.11,2.51-.09,5.06-0.51,6-3.21,1-2.94-1.27-4.46-3.36-5.73-3.11-1.89-6.39-3.49-9.46-5.42-1.44-.9-4-1.77-1.79-4.28,1.22-1.36,2.43-2.68.55-4.24a4.39,4.39,0,0,0-4.87-.23c-4.07,2.15-7.65,5.33-12.62,1.31-1.67-1.35-4.27.26-5.22,2.6C769.21,161.77,765.6,167.73,767.9,174.83ZM496,247.63c-0.09,1.16.2,2.55-1.15,3.14-1.9.82-3.64,1.85-3,4.18,0.6,2.09,2.66,2.68,4.59,2.89,3.65,0.4,8.15.84,9.24-3.38s-3.65-4.93-6.45-6.44c-0.93-.5-2.35-0.1-3.54-0.11-0.53-2.1-.67-4.41-1.66-6.26-1.7-3.16-3.7-7-7.62-7-3.35,0-8.88,1.68-9.11,4.26-0.58,6.51-4.43,12.07-4.8,20.51a62.9,62.9,0,0,0,7.33-14.94c0.83-2.32.6-6.25,3.66-6.11a6.74,6.74,0,0,1,6.52,5.85C490.53,248.31,492.75,248.75,496,247.63ZM583.95,99.2L583.73,99c2.71,10.65,4.36,11.34,13.08,5.37,2-1.36,3.79-3,5.79-4.33,3.73-2.5,7-6.14,12.07-5.77,0,2.47-2.39,3.59-3.23,5.55-1.79,4.2-4.53,8.84.09,12.62s7.32-1,10.47-3.35c4.81-3.57,8.85-7.84,14.38-10.85,14-7.61,31-7.56,43.45-20.58,6.61-6.9,12.68-15.67,23.08-20-4.64-2.78-8-5.28-11.89-2.56,0,2.37,5.54,2.23,2.43,4.59C688,63.79,686.17,71.91,678,73.14c-2.17.33-4.54,3-5.75,5.19-3.37,6.1-9.08,7.35-15.08,8-1.39.16-3-.36-4.16,0.57-10.24,8.07-25.15,8.15-33.47,19.62-1,1.42-3,4.13-5.19,2.56-2.61-1.86-1.43-4.64-.16-7.21,3.37-6.82,8.66-11.63,15.14-15.33,5.21-3,8.79-7.62,12.2-12.36,1.27-1.77.84-3.71-.69-5.31a3,3,0,0,0-3.28-.92c-1,.35-1.83,1.11-1.24,2.13,2.74,4.73-1.81,6.35-3.83,8.9-5,6.31-12.64,9.57-18,15.46-1.12-2.62.35-4.57,1.52-6.73,1.37-2.53,2.33-5.27,3.52-7.9a2.88,2.88,0,0,0-.87-3.85,3,3,0,0,0-3.41-.29c-1.68,1-2.21,2-1.2,4.12,1.22,2.53.32,5.27-1.09,7.59s-3.06,5-6.35,5.39c-0.19-6.49-3.38.53-4.87-1.32,1.12-2.46,2-5.73-.85-7.34-2.56-1.44-5,1-7,2.68a83.31,83.31,0,0,1-9.64,6.37c-3.82,2.31-8.33,4-11.39,8.5C577.28,102,580.52,100.18,583.95,99.2Zm99.34,45.59c-5.77,2.44-6.94,5.33-1.13,9a4.32,4.32,0,0,1,1.83,5.72c-1,2.06-3,2.18-5,2.06-2.91-.17-5.83-0.3-8.75-0.36-3.68-.07-7.53.94-8,4.81-0.82,6.78-6.59,12.93-2.87,20.22a3.21,3.21,0,0,0,5,1.22c2.51-2-.44-2.69-1.44-3.55-1.87-1.61-1.54-3.33-.83-5.27,1.08-2.95,2.66-5.88,3-8.92,0.45-4.78,3.21-5.56,7-5.2,2.41,0.23,4.77.9,7.18,1.16,5.78,0.64,10.65-4.59,9-10-0.71-2.36-2.55-4.37-4-6.7,7.21-2.15,12.71-6.47,18.56-10.35,9.23-6.11,20.11-5.89,30.7-6.7,5.29-.4,11.67.51,12.92-7.42a2.66,2.66,0,0,1,3.18-2.32c5.47,0.82,4.91-7.38,10.4-7.06,0.73,0-.23-2.52-1.75-2.95-2.45-.69-4.82.08-7.14,0.84-2.83.92-4.74-.39-6.13-2.62s-0.75-4.21.75-6.05c0.76-.94,1.65-1.78,2.45-2.68,1.22-1.36,2.1-2.77.28-4.33-1.58-1.35-3.36-2.13-5.36-1.13-4.27,2.13-9.59,12.36-8.47,17.33,0.71,3.16-1.35,4.45-2.73,6.23-1.68,2.16-4.89,2.9-5.13,6.95l-1.35-2.2c-2.52-4.08-1.31-13.4-10.84-7.64-1,.59-2.15-0.5-2.21-1.3-0.33-4.14-2.47-9.09,3.55-11.06s9.87-6.32,13.19-11.05c3.2-4.57,7.41-6.77,12.49-7.93,11.73-2.69,20.84,5.27,33,6.76-4.84,4.4-9.36.35-12.8,2.79,5.44,8.44,11.41,10.54,15.48,5.17s9.59-7.3,15.17-9.83c5.86-2.66,12.19-1.43,19.1-2.22l-7.39-9.07c7.08,3.36,11.73,6.53,15,11.58,1.12,1.76,2.74,4.64,4.92,2.77,2.46-2.11.12-4.25-1.83-5.91-4.49-3.84-10-6.85-9.59-14.26a3.86,3.86,0,0,0-4.76-3.6c-1.87,2.28,2.49,5.9-1,6.23-8.07.74-6.06,4.48-2.09,9.69a21.11,21.11,0,0,0-12.6.63c-9.24,2.88-18.68,5.09-28.29,0a49.17,49.17,0,0,0-14.55-4.49c-9.31-1.58-17.38,1.45-23,9.07-3.56,4.78-7.13,8.85-12.92,11.21-6.47,2.63-8.34,13.68-2.77,17,5.2,3.07,4.36,8.48,2.62,10.12-3.19,3-8.44,3.85-12.86,5.52a1.66,1.66,0,0,1-.92-1c-1-3.76-4.61-6.62-4.24-10.65s0.84-7.79-4.69-7.47c-4.68.26-9.61,0.92-9.05,7.71,0.15,1.81.8,3.35-2.71,3.21-6.13-.25-10.14,4.54-10.44,10.57-0.14,2.69.64,4.63,3.5,4C676.21,140.26,679.48,142.57,683.29,144.79ZM528.68,458.13c1.24-1.65.46-2.68-.08-3.74-9.43-18.72-16.29-38.41-22-58.54-1.56-5.56-4.95-9.79-8.7-14.07C487,369.35,482.4,354,480.13,338.11c-0.73-5.15-3.54-10.63-1.31-15.76,3.71-8.54,3.82-17.39,4.36-26.39,0.32-5.22,1-11.39,8.34-13.53-0.09,3.5-3,6.22-.39,9.22,3-2.19,2.21-6.32,4.83-9.11,2.32,2.37,3.35,6.11,6.64,5.78,5.46-.55,6.91,3,8.8,6.86,3.06,6.27,6.14,12.07,14.21,14.2,6.45,1.7,8.41,11.86,4.71,17.85-1.9,3.08-4.64,6.86-1.68,9.79,2.69,2.66,6.88,1.62,9.89-1.18S544,333.11,546,337c0.49,1,1.74,2.21,2.65,2.21,8.34,0.05,14.24,4.77,20.56,9.43,5.8,4.28,8.74,9.83,4.72,15.62a35.49,35.49,0,0,0-6.23,26.87c0.54,3.55,0,7.29-.26,10.93-0.3,4.6-1.55,8.18-6.84,9.85-4,1.28-9,4.21-7,9.41,2.14,5.71,0,11.07.64,16.56,0.41,3.58-.64,6.51-5.44,4.71-1.34-.5-3-0.81-3.85.84-0.77,1.5.15,3,1,4,1.4,1.66,3.21,3,4.74,4.51,2.16,2.21,3.28,4.89-.3,6.43-4.33,1.87-2.89,5.42-2.26,7.86,2.92,11.23,9.78,20,18.75,27.28-1.56-3.67-3-7.73-5.75-10.37-7-6.72-11.24-13.61-5.79-23.31a6.68,6.68,0,0,0,0-6.38c-1.4-2.49-.39-4.15.48-6.58,2.47-6.84,4.18-14.39,2.42-21.36-1.68-6.67.62-9.18,6.17-10.42,3.77-.84,5.28-3.4,5.71-6.66,0.72-5.54,2.14-11.3,1.27-16.65-1.54-9.52.15-17.49,5.8-25.36,4.15-5.78,2.33-15.52-1.94-18.82-9.92-7.65-21.89-11.54-32.54-17.88-3.48-2.07-5.36-3.82-6-8-1.11-6.94-2.63-14.47-10.75-16.72-4.8-1.33-7.16-4.28-9.47-8.21-3.29-5.59-3.85-14.24-13.7-13.34-0.76.07-1.72-1.53-2.52-2.41-4.7-5.15-10.26-4.7-14.61,1-1.25,1.63-1.49,5.32-5,3.8-2.89-1.27-3.16-4.41-3-6.95,0.28-4.09,1.55-8.11,2-12.2,0.54-4.77-1.16-7.7-8.42-7.15,6.13,4.67,5.83,9.3,3.43,14.33-1.88-1.8-1.38-5.32-5.65-6.58,2.76,8.86.35,18.72,6.07,25.38,6.48,7.55,4.8,14.6,2.63,22.31-1,3.51-2.47,6.92-2.24,10.63,1.44,22.43,6.44,43.58,22.11,60.85a28,28,0,0,1,5.81,10.82c3.24,10.44,6.17,21,10,31.19S521.14,449.42,528.68,458.13Zm37.78-312.42c0.5,2.43-3.42,4.66.19,7.07,5.69,3.79,14.31.79,13.71-5.84-0.82-9,8.56-14.51,6.14-23.86-1-3.94,8.08-10.17-2.86-12.14a2.48,2.48,0,0,1-.56-1.3c-2.24-7-6-5.64-10.3-2a54,54,0,0,0-8.09,8.38,26.77,26.77,0,0,1-12.32,9.08c-2.31-2.84,1.32-5.3-.52-8.25-5.87,6.08-4.68,14.89-10.23,20.81,2.22,0.79,3.1.58,3.78-.25,7.85-9.63,19.13-15.79,26.38-26,1.18-1.67,2.88-3.92,5.23-1.27,1.56,1.76,3.5,3.61,1.14,6.28-0.82.93-2.54,1.91-1,3.57,2.51,1.12,3.86-2.65,6.63-1.49-0.87,4.19-4.36,7.81-1.67,12.45,0.85,1.47-1.15,3.07-2.52,4-4.36,3.11-8.68,5.84-14.59,5.52-6.66-.37-12.45,2.28-17.13,7.35,1.48,1.16,2.63.69,3.74,0.22,1.75-.75,3.84-2.23,5.2-0.21,1.07,1.58-.76,3.06-2,4.24-3.47,3.3,1.7,3.19,2.42,6.42-17.08-.21-29,10.69-38.08,22.09S496.73,201,493.55,216.72c-0.4-2.33-.09-4.65-0.77-6.63a4,4,0,0,0-5.3-2.47c-1.89.69-3.52,3.92-2.15,4.48,6.63,2.7,2.5,7.76,3.15,11.68,0.37,2.22-1.49,5.63,1.53,6.31,2.6,0.59,3.57-2.72,4.49-4.9a29.82,29.82,0,0,0,1.49-4.86c1.27-5.49,2.71-11,6.64-15.18,11.14-11.82,20.61-25.17,32.89-35.95a7.87,7.87,0,0,1,5.24-1.93c7.44-.36,13.74-4,19.73-8,2.46-1.65,2.69-3.73,1-6.84C559.2,148.13,560.61,145,566.46,145.71ZM959.13,296.85c-2.65-2.11-3-6.61-6.22-5.28-3.89,1.62-.95,5-0.45,7.65,1.27,6.67,2.37,13.4,4.06,20,1.49,5.82,2.18,12,6,17,0.81,1.05,2.3,3.09,4.11,1.18,1-1.07,1.45-3.17,0-3.89-4.14-2-2.47-4.45-.9-6.94a8.14,8.14,0,0,0,.93-6.28c-2.61-13.29-2.82-27-6.58-40.1-0.54-1.88-1.51-4.18,1.15-5.51,2.41,1.87,1.78,5.76,5.31,7.07,2.73-4.21,1.37-8.46.82-12.68-0.87,1.08-1.05,3-1.72,3.15-2.66.76-2-2-2.71-3.23-1.61-2.73-2.2-7.9-6-.74-1-5.2-.19-10.13-5-13.42C951.87,268.89,957.64,282.14,959.13,296.85ZM852.21,384.92c-1.29-3.61.91-9.2-4.44-10.45-4.48-1-5.63,3.81-7.37,6.8s-3.6,5.66-7,7.09c-2.75,1.16-5.45,3.29-6.05,6-1.65,7.52-4.4,14.7-6.21,22.12-0.93,3.82-.34,8.85,4.53,10.42s8.69-1.31,11-5.21a120.82,120.82,0,0,0,8.32-17C847.55,398.24,851.42,392.19,852.21,384.92Zm-13.3-194c2.69-.36,6.9-0.18,4.86-4-2.85-5.37-2.3-12.68-9.93-15.72-4.26-1.7-5.9-7.14-4-11.9,0.79-2,2-3.2-.09-4.74-1.81-1.3-3.7-2.17-6.07-1.23-5.88,2.32-7.27,7.17-3.38,12.56,4.26,5.9,10.12,10.63,10,19.2C830.23,189.54,835.08,190.44,838.91,190.9ZM673.45,91.49c-4.87.38-9.84-.63-12.7,4.34a4,4,0,0,0,.91,5.31c4.17,3.52,8.8,2.14,13,.17,3.3-1.53,8.44-2.68,7.28-7.52C680.89,89.29,676.14,92.16,673.45,91.49Zm118.7-7c-5.68-4.34-9.22-8.17-4.16-14.28,1.7-2.05-.1-3.5-2.71-2.69-5.31,1.65-7.51,5.33-6,10.63C780.88,84,785.25,85.33,792.15,84.46Zm167.69,149c-1.8,8-.1,14.5,5.61,21.06C963.05,246.78,960.65,240.34,959.84,233.48Z" transform="translate(-465.83 -49.9)"/><path d="M719.59,1146.08c35.77-20.46,57.41-52.53,73.45-89.88,3.16,2.6,2.86,6,3.5,8.73,7.82,33.23,21.44,63.48,44.66,89,5.61,6.16,5.15,8-2.79,11.27-20.5,8.33-42.23,11.12-64,13.44a521.45,521.45,0,0,1-110.8,0c-21-2.23-42-5.11-62-12.61-10.77-4-10.92-4.94-4.09-13.68,11.75-15.06,20.76-31.72,28.7-49,24.35-53,48.07-106.23,67.49-161.31,23.51-66.67,36.39-135.11,35.8-205.86-0.32-38.83,2.84-77.16,10.68-115.28,4.77-23.21,2.8-47.09,2.44-70.68-0.54-35.51,2.1-70.5,14.82-104.07a208.29,208.29,0,0,1,32.3-56.84c2.45-3.05,2.49-3,7.69-5.36-3.55,13-7.09,25.3-10.24,37.7-7.63,30-13.93,60.23-12.12,91.48,1.28,22,5.8,43.34,14.76,63.57,1.83,4.14,3.69,9,9.45,8.86,6.1-.16,9.52-4.41,12-9.35s2.58-10.58,1.32-15.74c-4.37-17.94,18.05-44.85,37.81-45,14.91-.08,26.37,13,24.91,28.89-1.59,17.35-8.16,31.4-25.34,38.61-4.82,2-8.84,5.27-10.3,10.65-0.55,2-1.29,4.53.92,6,1.89,1.3,3.7-.1,5.36-1.1a197.21,197.21,0,0,0,28-21c40-35,62.66-79.9,74.84-130.78,4-16.53,7.42-33.17,11.39-49.7,1-4.31,1.93-11.37,6.39-11,4.79,0.43,3.8,7.59,4,11.85,3.73,66-9.47,127.21-50.64,180.63-10.1,13.11-19.8,26.53-29.73,39.77-11.4,15.22-21.88,31-29.52,48.5-5.29,12.14-13.31,22.58-21.22,33.1-5,6.6-9.76,13.37-14.19,20.35-10.1,15.92-12,33-7,51.13,3.58,13.11,8.72,25.79,10.79,39.33,3,19.43-1.77,37.66-8.29,55.66-7,19.41-14.82,38.59-17.21,59.37-1.34,11.63-2.4,23.33-1.77,35,3.26,60.64-20,111.5-57.44,157.16C736.53,1127.68,727.89,1136.74,719.59,1146.08Zm64.59-188.51c-25.41,72-66,134.33-121.27,189.34C716.46,1120.26,772.73,1031.93,784.18,957.56ZM638,1115.32c45.74-42.73,102.11-159.28,98.21-202.66C713,985.37,679,1052,638,1115.32Z" transform="translate(-465.83 -49.9)"/><path d="M645,1037a173.36,173.36,0,0,1-8.74-41.85,205.16,205.16,0,0,1-.36-35.75c2.65-30.06-4.56-58.35-15.07-86.15-6.55-17.32-11.92-34.91-11.18-53.87,0.5-12.88,4.55-24.79,8.32-36.84,3.93-12.56,7.53-25.09,5.37-38.6-1.86-11.66-7-21.86-13.91-30.94A404.56,404.56,0,0,1,570,649.29c-9.75-19.37-24.54-35.6-37.44-53-18.12-24.41-36.76-48.56-47.34-77.53-14.46-39.59-20.64-80.41-16.93-122.53,0.33-3.76.09-9.81,3.61-10.24,4.94-.6,5.19,5.74,6.08,9.36,5.94,24,10.29,48.43,17.87,72.09,16.86,52.67,46,96.27,92.47,127.33a37.39,37.39,0,0,0,4.33,2.71c2.29,1.11,4.67,3.94,7.2,1.78,2.8-2.39.65-5.56-.49-8.07-2.63-5.77-8.48-7.71-13.52-10.56a42.66,42.66,0,0,1-21-41.72c2.34-18.92,21.09-29.22,38-19.88,15.58,8.61,25.46,21.62,24.72,40.68-0.24,6-1.22,12.25,2.27,17.8,2.8,4.45,6.24,8.56,11.94,8.44,5.12-.11,7.1-4.68,9-8.58A166.52,166.52,0,0,0,667,520.2c4.3-41.08-6.06-80.1-16.76-119.08-1.46-5.31-3.9-10.46-3.58-16.29,3.58-.51,4.81,2.26,6.34,4.18C678,420.4,692.4,456.3,697.61,496c2.7,20.61,2.48,41.39,1.08,62a330.72,330.72,0,0,0,8.12,98.5c2.34,10,2.67,20.25,3.15,30.45,1.29,27.22,3.36,54.45,3.4,81.68C713.44,834,698.72,896.82,678,958.44c-8.38,24.89-18.31,49.17-28.92,73.18C648.22,1033.49,648,1036,645,1037Z" transform="translate(-465.83 -49.9)"/><path d="M717.82,1326.77c-45.77-.17-91.46-1.68-136.73-9.26-13.18-2.21-26.27-5-38.17-11.46-8.32-4.54-8.94-6.43-5.61-15.07,14.85-38.52,29.82-77,44.48-115.58,2.3-6,4.08-7.79,10.71-4.32,17.45,9.15,36.82,12.21,56.08,14.79,49.48,6.62,99,6.5,148.35-1.3,17.53-2.77,35-6.15,50.94-14.38,6.39-3.29,6.33,2.34,7.5,5.31,10.86,27.56,21.53,55.2,32.2,82.84,4.46,11.55,8.49,23.28,13.29,34.68,2.57,6.1.7,9.6-4.55,12.47-12.59,6.88-26.4,9.71-40.3,12C810.25,1325.07,764.08,1326.7,717.82,1326.77ZM583.67,1220.3c61.73,26,216.57,25.17,272.33-.76-45.91,8.86-91.16,11.87-136.7,11.83S628.5,1228.38,583.67,1220.3Zm258.59,26.59a628,628,0,0,1-82.19,7.64c-27.22.61-54.48,0.63-81.7-.1-26.64-.71-53.2-3.29-79.67-6.7C650,1268.55,801.74,1268.26,842.27,1246.89Z" transform="translate(-465.83 -49.9)"/><path d="M716.72,1395c-49.41-.66-104.3-2.92-158.52-13.19-14.8-2.8-29.34-6.65-43.1-13.07-7.34-3.43-11.48-8.33-10.61-17.08,0.6-6,.54-12.12,1.54-18.15,1.92-11.61,9.46-18.15,19.61-22.51,1.94-.84,3.69-0.91,5.45.46,15.89,12.36,35.1,15,54.05,17.73,72.83,10.36,146,10.25,219.22,5.56,27.14-1.74,54.25-4.73,80.51-12.6,7.49-2.25,14.76-4.91,20.93-9.9,2-1.62,4.15-2.76,6.68-1.53,9.27,4.49,17,10.33,19.17,21.32,1.49,7.73,1.09,15.51,1,23.3,0,6.45-3.9,10.24-9.21,12.88-16.05,8-33.33,12-50.8,15.15C823,1392.33,772.72,1394.59,716.72,1395Zm160.12-49.85c-106.79,11.34-213.55,11.44-320.28-1.19C663.2,1367.36,769.95,1368.68,876.84,1345.12Z" transform="translate(-465.83 -49.9)"/><path d="M758.17,194.43c2.47,4,6.62,5,9.84,2.59,5.51-4.2,10.55-4.83,16.3-1.2a4.67,4.67,0,0,0,2,.58c1.94,0.17,5.44-4.09,5.28,1.86-0.11,4-.43,7.36-6,8.05a45.65,45.65,0,0,1-24.16-3c-5.75-2.44-11.61-5-14.51,4.08-1,3.13-3.76,1.08-5.45.17-2.75-1.49-5-4-7.9-5.06-6-2.26-11.74-3.52-9.56-12.6,1.2-5-3-7.55-8.44-6.58,1.22-4.86,3.88-9.07.23-14.94,4.67,3.16,7.87,5.25,11,7.46,1.94,1.37,4.64,2.57,4.29,5.38-0.44,3.6-4.15,1.36-5.95,2.75,4.49,6.7,6,6.76,10.71.74,2.13-2.75,4.59-5.23,7.29-8.26,5,6.19,6.38,15.33,15.07,18Z" transform="translate(-465.83 -49.9)"/><path d="M687.71,185.74c5.62-10.46,14.5-16.66,27-19.92-3.43,4.59-3,9.19-2.78,13.53,0.16,3.33,0,4.86-3.81,4.41C701.37,183,694.76,184.23,687.71,185.74Z" transform="translate(-465.83 -49.9)"/><path d="M810.45,247.54c4.6,7.4,11.84,13.34,12.57,22.87-6.5-6.22-11.63-13.22-13.16-22.35Z" transform="translate(-465.83 -49.9)"/><path d="M758.22,194.46c-1.83-4-.42-8.36,2.71-9.37,3.55-1.14,4.05,4.26,6.73,6.24-3,2.76-7.19,0-9.51,3.1Z" transform="translate(-465.83 -49.9)"/><path d="M809.85,248.06c-4.3-6.23-8.91-12.29-10.63-19.92,4.27,6.16,10.88,11,11.22,19.4Z" transform="translate(-465.83 -49.9)"/><path d="M690.39,119.59c-0.4,5.64,2.13,10.27,4.61,14.94,0.87,1.64,2.11,3.36-.19,5.09-3.28,2.46-6.69,1.22-9.57-.14s0.24-3.51.83-4.72c1.61-3.27,3-5.88.53-9.57C684.57,122.19,686.7,120.31,690.39,119.59Z" transform="translate(-465.83 -49.9)"/><path d="M738.69,106.7c6.3,6.21,5.14,12.86.92,19.14-2,2.93-5.65,2-9.44,1.66,3.09-3.56,5.6-7,8.7-9.87C743.12,113.74,734.48,110.45,738.69,106.7Z" transform="translate(-465.83 -49.9)"/><path d="M672,136.65c1.27-3.57,1.94-7.35,6.45-7.46,2.11,0,2.41,2.07,2,3.85C679.24,137.55,675.83,137.07,672,136.65Z" transform="translate(-465.83 -49.9)"/><path d="M576.66,141.37c-0.61,3.81,1.24,7.09-2.68,8.37-1.38.45-3.31,0-3.6-1.48C569.61,144.24,572.91,143.38,576.66,141.37Z" transform="translate(-465.83 -49.9)"/><path d="M846.36,379.21c2.19,3.24,2.34,6.24,1.35,8.82-4,10.43-8,20.88-13.5,30.65-1.43,2.55-3.28,5.76-6.65,4.34-3.89-1.64-3.75-6-2.23-8.86a45.71,45.71,0,0,0,4.79-15.87,5.55,5.55,0,0,1,2.41-4.35C838.56,390.52,843.58,386.17,846.36,379.21Z" transform="translate(-465.83 -49.9)"/><path d="M804.47,169.31c-4.3,1.74-7,1-9.8.11-5.65-1.83-11.31-2.79-17-.08-2.37,1.13-5.44,1.75-6.2-1.17-0.93-3.55,1.16-7,3.41-9.83,1.79-2.21,3.64-.16,4.88,1.11,2.63,2.7,5.13,2.73,9,2.31C794.29,161.15,798.48,166.07,804.47,169.31Z" transform="translate(-465.83 -49.9)"/><path d="M583.95,99.2c1.2-7.31,8.57-5.22,12.72-8.08,2.11-1.45,1.84,2.45,2.67,3.62,2.93,4.1-1.92,4.8-4,6.46-1.53,1.21-3.06,3.05-3.91-1.43-0.88-4.67-5-1.27-7.69-.81Z" transform="translate(-465.83 -49.9)"/><path d="M676.74,95.34c-2.62,4.59-6.35,5.4-10.58,4.23-0.61-.17-1.84-1.3-0.87-2.28C668.63,93.91,673,96.29,676.74,95.34Z" transform="translate(-465.83 -49.9)"/></svg>