<svg id="Layer_1" data-name="Layer 1" xmlns="http://www.w3.org/2000/svg" viewBox="0 0 542.51 1371.12"><title>1</title><path d="M969.81,394.32c16,2.92,23.19,10.85,22.75,24.82-0.23,7.35-3.13,13.21-9.66,16.77a11.13,11.13,0,0,0-6.23,8.61c-3.64,19.81-11.24,38-23.6,54a18.57,18.57,0,0,0-3.18,5.94c-7.9,27.2-17.9,53.89-20.38,82.43-0.13,1.5-.71,3.1-0.38,4.48,4.17,17.48-3,32.45-10,47.62-24,51.71-47.11,103.75-63.6,158.48-7.61,25.26-9.33,51.33-11.28,77.36-2,27.33-1.28,54.82-4.57,82.08-1.84,15.27-3.68,31-12.59,43.78-14.52,20.86-14.35,42.8-9.61,66.33,6.34,31.46,20.39,59.72,34,88.25,3.89,8.12,7,16.48,14.74,22.24,4.25,3.18,5.94,8.62,8.14,13.41,19.62,42.65,39.87,85,58.46,128.13,6.25,14.49,13.72,29.19,11.58,46.56-1.22,10-4.94,16.55-13.49,20.8-13.65,6.79-28.4,10-43.27,12.47-65.75,11.08-132.06,12.32-198.51,11-45-.89-89.92-3.49-134.39-11.05-14.35-2.44-28.57-5.58-41.89-11.85-9.76-4.59-15.1-11.38-15.09-22.87,0-10.49,2.85-19.59,6.19-29.51,11.59-34.41,30-65.66,43.53-99.09,6.32-15.57,13.84-30.65,20.82-46,3.06-6.71,6.68-13,13.22-17a9.24,9.24,0,0,0,4.29-5.95,111.4,111.4,0,0,1,13.93-32.41c16.27-26.19,20.91-55.66,25.35-85.26,2.81-18.7,2.79-37.55,3.25-56.42a96.79,96.79,0,0,0-9.89-45.1C591.37,890.91,576,831,571,768.74c-3.36-41.33-11.79-81.35-24.24-120.67-5.47-17.26-13.51-33.51-21-49.93-12.14-26.55-22.32-53.75-28.7-82.29a53.08,53.08,0,0,0-8.95-19.73,123,123,0,0,1-21.12-48.66c-1.08-5.46-3.14-9.41-8.18-12.5-8-4.92-9.82-13-8.05-21.83,2-9.85,7.69-16,16.79-16.83,6.35-.58,5.11-3,3.64-7.13-23.63-66.18-22.39-132.27,6.68-196,37.47-82.09,103-131.41,191.05-148.33,80.15-15.4,155,.53,219.93,51,57.27,44.48,89.53,104.23,97.36,176.55,4.45,41.12-.24,81.24-16,119.79A10.16,10.16,0,0,0,969.81,394.32ZM817.9,754.71c0.77-4.29-6.08-17.67-9.89-19.57a1.8,1.8,0,0,0-2.57.51c-0.78,1.16-2.62,2.68-1.3,3.88,5.08,4.62,6.85,12.31,14,15,0.34,1.67.15,4.31,1.12,4.86,5.58,3.13,3.95,7.05,2.48,11.74-1.84,5.89.34,10.31,6.91,11.64,5.89,1.19,12.51-3.41,13.66-10.06,1-5.54.18-11.28-6.52-12.27C829.39,759.47,823.19,758.72,817.9,754.71ZM745.77,168.47c-0.67,10.14,4,15,14.2,15,4.81,0,10.27-.88,14.2,1.09,2.66,1.33.8,7,.06,10.59-0.56,2.76-2.15,4.43-5.63,5-10.85,1.67-20.86-1.11-30.78-4.69-4.07-1.47-7.66-1.95-8.7,3.37-1,5-3.84,4.38-7,2.68-6.14-3.29-11.84-7.3-18.81-9-3.15-.79-4.24-3.27-2.85-7.1,1.17-3.22.93-8.05-4.25-7.54-8.47.83-17.21-.33-25.38,2.54-6.15,2.16-12,5.47-18.75,2.53a1.9,1.9,0,0,0-2.59.81c-4,6.77-13.84,8.93-14.34,18.55-0.07,1.42-1.74,3.27-3.15,4C621.71,211.66,617.59,222,611.82,231c-2.39,3.74-3.55,7.14-2,11.9,1.58,5,.7,10.46-1.49,15.48-3.39,7.79-1.56,14.67,4,20.66,2.08,2.23,4.58,4.36,5.14,7.31,1.75,9.23,10.32,12.51,15.62,18.6,1,1.17,2.77,2.06,4.08,1.32,9-5,19.83-.2,28.89-6.16,5.18-3.41,11.63-3.79,15.42,3.51,1.21,2.32,3.49,2.36,5.88,2.37,8.52,0.05,11,1.87,8.58,9.4-3.06,9.64.52,16,5.46,23.8,7.2,11.42,11.46,24.34,4.64,38.13-4,8.08-2.84,16,1.41,23.79,3.12,5.7,6.59,11.34,5.64,18.36-0.31,2.27,1.21,3.72,3.08,4.74,10.51,5.71,14.75,14.58,13.42,26.34-0.22,1.91-.57,4.83,2.57,4.08,10.49-2.5,22.42-1.64,29.59-12.28,3.86-5.72,10.17-10,10.23-17.92,0-1.94,1.95-3.06,3.5-3.64,5.91-2.22,6.42-7.13,5-11.79-2.14-7,1.27-10.79,6.27-14.42,14.87-10.81,16.12-15.16,12-33-1.71-7.35-3.84-15.21,1.52-22.28,4.85-6.4,8.91-13.5,15-18.83,8.42-7.34,13.57-16.72,17.48-26.89,1.85-4.83,5.75-10.75,2.45-14.82-3.11-3.84-8.53,1.65-13.13,1.74a2.67,2.67,0,0,0-.72.21c-5.95,1.94-11.87,4.36-12.94-5.64-0.22-2.08-2.69-4.26-4.62-5.76-4.26-3.33-6.38-8-9.25-12.3-4.36-6.59-5.7-14.46-10-20.64-4.63-6.74-6.26-14.72-10.76-21.34-0.8-1.18-.91-2.32.48-3.17a2.29,2.29,0,0,1,3.28.71,44.83,44.83,0,0,1,3.3,5c4.68,8.45,10.27,16.31,14.73,25s11.22,15.95,12.76,26.09c0.77,5.13,3.81,6,8.75,4.09a128.41,128.41,0,0,0,27-14.51,28.77,28.77,0,0,0,12-18.41c1.3-6.59-6.26-7.64-9.27-11.64-2.19-2.91-4-3-6.71-.58-2.49,2.26-7.35,4.3-8.55,1.31-2.54-6.33-9.43-8.51-11.78-14.56-0.84-2.15-4.05-4.37-1.42-6.44s5.14,0.5,6.78,2.76c4.38,6.08,8.81,11.9,17.69,10.07a2.86,2.86,0,0,1,2.07.69c6.79,5.73,14.81,5.25,22.88,4.65,4.07-.31,15.91,7,16.39,10.51,1,7.44,4.36,7.6,9.8,3,0.65,17.66,9.38,32.22,14.41,47.92,0.61,1.92.71,5.07,3.83,4.61,2.45-.37,3.94-3,3.92-5.06-0.15-16.08,5-30.5,13.1-44.1a1.56,1.56,0,0,0,.13-0.74c0.1-5.47,5.24-5,8.24-6.14S941,239,941.94,241c2.5,5.13,6.52,9.67,6.41,15.86,0,1,.33,2.57,1.4,2.21,8.4-2.77,6.5,4.93,7.33,8.07,2.94,11.09,4.88,22.45,7.14,33.72,1,4.83,1.77,9.71,6.27,14.09,1.5-9.79-1.5-17.55-5.32-25.13-2.94-5.82-2.49-11.73-1-18.62,4.68,5.4,7.39,10.86,10.15,16.76,7.38-9.82,4.92-19.34.69-28.34-3.6-7.68-9.43-14.55-3.53-23.6,0.58-.9-0.34-2.91-0.79-4.33-20.58-65.53-58.73-117.18-119.41-151-5.52-3.08-11.66-4.4-17.29-6.56-5.84-2.24-11.55-4.81-17.57-4.61s-5.91,9-11.64,10.86c-0.93.3,0,1.83,0.81,2.43,2,1.53,4,2.94,6,4.41,3.5,2.57,3.5,2.69.2,6.73-2.94-7.51-8.53-11.94-15.92-15.14-1.2,5.79,3.6,7.25,6.36,11.63-10.07-4.56-18.65-3.15-26.81.26-4,1.67-6.63,2.17-8.92-3.09,1.16,8.56-5.87,9.44-10.1,11.7-2.51,1.34-5.61-2.44-7-6.23,4.08,0.88,7.94,2.79,11.84-1.5-8.93-4.46-18-6.8-26.82-8.84a22.43,22.43,0,0,0-20.5,5.15c-6.08,5.57-11.53,11.64-19.74,14.6-5,1.79-3.11,7-2.16,10.64,0.9,3.41,4,3.24,6.78,1.6,3.57-2.11,4.79.38,6.24,2.94,3.14,5.52,7.62,5.9,10.27.21,1.62-3.47,9.3-6.53,2.39-12.06-0.92-.74.62-2.24,1.51-3.07,1.82-1.71,3.89-3.19,5.54-5,1.92-2.15,4.37-3.62,6.36-1.34s-1.45,3.06-2.68,4.21c-2.53,2.39-3.37,4.92-1.62,8s4.57,2.39,7.3,1.67,5.53-1.27,9,.15c-1.24,1-1.77,1.76-2.31,1.77-7.89.06-13.4,3.51-16,11.1a2.31,2.31,0,0,1-2.35,1.48c-5,.44-10,0.89-14.95,1.18-2.69.16-5.11-.35-5.18-3.88,0-2-.76-3.63-3-3.36-2.07.24-2.85,2.05-2.89,3.85,0,2.45-.37,4.42-3.13,5.26-10.9,3.33-18.76,13.47-32.33,12.77,4.61,4.47,6.63,8.56,4.62,13-2.22,4.95-7.13,2.69-10.76,2.42-6-.46-9.57,1.07-10.23,7.57-0.28,2.7-1.53,5.29-2.25,8a5.05,5.05,0,0,0,1,5c6,6.62,21.26,4.17,25-4.3,3-6.74,9.55-10.6,14.76-13.45,6.71-3.67,16.56-5.25,21.92,4.92a6.24,6.24,0,0,0,1.21.88c2.21,2.21,6.32,2.37,6.85,6.37,0.59,4.46-5,3.27-6.23,6.26,5.14,2.72,5.14,2.72,8.65-2.2,5.95-8.35,6-8.41-2.36-13.83-2.36-1.53-4.62-3.1-6-5.57-0.54-1-1.1-2.82-.63-3.31,1.31-1.39,2.44-.27,3.68.84,6.38,5.75,14.5,9.79,17.13,19.07,0.71,2.49,3.17,4.47,4.76,6.74,1.3,1.85,2.73,2.87,5,1.47,1.91-1.18,3-2.71,2.27-5-0.55-1.64-1.38-3.19-2.31-5.3C740.12,169.77,742.53,167.5,745.77,168.47ZM508.41,437.7c7.47-9.81,16.68-15.73,28.92-15.87,1.68,0,3.08-.69,3-2.58-0.16-5.57,3.93-7.42,8-8.52,3.78-1,5.49-3.11,6-6.66,0.64-4.72,2.32-9.63,1.6-14.15-1.77-11.18,1.93-20.48,7.32-29.8,2.88-5,3.58-11.84-1-15.4-6.52-5.12-12.78-11.42-21.61-12.94-1.65-.28-3.16,0-4.56-1.82-3.68-4.65-7.84-7.61-12.43-.7a2.15,2.15,0,0,1-3.33.1c-0.9-.83.09-1.6,0.66-2.42,5.76-8.35,2.17-22.64-7.38-26.23-5.64-2.12-9-5.6-12.28-10.21-3.62-5.12-4.87-13.81-14.59-11.36-0.47.12-1.21-.8-1.8-1.26-7.95-6.16-11.72-5.19-15.3,4.48-1.59,4.3-3.87,5.57-8.46,3.3,5.8,5.66,7.47,12.58,5.18,19-3.61,10.06-2.43,19.93-1,29.79,2.05,14.25,5.39,29.13,14.53,39.85,8.51,10,12.61,20.58,15.71,32.54C498.39,417.45,501.72,428,508.41,437.7Zm426.83,917.13c-11.7,6.8-23.88,9.78-36.12,12.48-47.16,10.38-95.19,11.9-143.16,13.27-51.06,1.45-102.14.33-153-4.63-31.63-3.08-63.69-5.27-92.94-19.94-1.53-.77-3.06-1.89-3.94,1.07-2.28,7.63,1.56,17.43,8.77,21.34,7.56,4.1,15.74,6.59,24.08,8.45,46.34,10.35,93.54,13,140.76,14.61,57.1,2,114.18.53,171-5.79,23.92-2.66,47.94-5.62,70.64-14.43C935.5,1375.76,937.67,1371.55,935.24,1354.83ZM622.09,1121c7.93-9.56,14.55-17.73,20.15-26.69,18.49-29.62,36-59.81,51.84-90.92,34.46-67.6,63-137.33,73.61-213.1,3-21.3,5.77-42.91-1.79-64.12a20.89,20.89,0,0,1-.23-12c1.91-7.73,9.71-12.79,17.14-11.17,6.09,1.33,10.68,7.51,9.59,13.4s-4,9.78-10.64,9.43a7.1,7.1,0,0,1-6.79-5.1c-0.79-2.38-1.09-5,1-7.06,1.13-1.13,2.53-1.84,4.06-1,0.76,0.42,1.77,1.49.59,2.32-2.37,1.66-4.11,3.28-1.19,5.85,1.59,1.41,3.4,2.06,5.52.86a6.74,6.74,0,0,0,3.58-6.92c-0.33-4.37-2.84-7.06-7.07-7.52-5.43-.6-9.43,2-11,7.17-2,6.44-.09,12,5.7,15.74,6.07,3.94,12.09,3.2,17.26-1.53,5.61-5.13,7.72-11.66,5.53-19.16-2.35-8.05-7.9-12.7-16.12-13.89-8.43-1.22-15.38,1.52-20.26,8.71-4.67,6.88-5.48,14.64-3.82,22.45,2.69,12.68,3.1,25.44,2.59,38.28-1.56,39-11.3,76.43-23.82,113.1-28,81.89-68.11,158-111.23,232.7C624.8,1113.37,622.51,1115.51,622.09,1121ZM721.44,1375c48.49-.89,95.22-2.11,141.66-8,20.14-2.55,40.3-5.56,59.27-13.42a55.68,55.68,0,0,0,9.78-5.49c2.68-1.82,1.88-4.35.36-6.62-1.73-2.59-3.4-.94-5.05.16-7,4.66-14.89,7.14-23,9.11-28.63,7-57.77,10.3-87.12,12.19-83.69,5.37-167.26,5.3-250.49-6.45-17.58-2.48-35.31-5.13-51.19-14.13-2-1.12-4-4-6.17-.34-1.71,2.92-.58,5.25,2,7.1a49.42,49.42,0,0,0,12.08,6c12.33,4.42,25.09,7.08,38,9.09C615.16,1372.65,669.17,1373.85,721.44,1375ZM708.69,567.37c-5.79,3.9-11.35,8.2-17.4,11.63-27,15.34-56,16.45-85.45,9.84-27.82-6.25-52.74-17.15-67.46-44.38-5.75-10.63-17.67-15.86-27.36-22.92,2.77,9,7.69,16.54,13.11,23.74,25.36,33.6,58.61,57.44,95.19,77.29,6.64,3.6,10.13,3.32,12.53-4.29,1.1-3.49,3.74-6.49,5.63-9.74,0.72-1.23,2.2-2.57.76-4a4.06,4.06,0,0,0-4.94-.46,11.17,11.17,0,0,0-3.81,3.5c-5.42,8.81-5.27,9.1-16,2.95-8.7-5-17.24-10.27-25.71-15.65-2.14-1.36-5-2.26-5.85-5.28a3.3,3.3,0,0,1,1.42-.62c3.12,0.91,6.23,1.87,9.31,2.91,38.16,12.82,75,11.35,109.93-10.26C708,578.32,713.08,575,708.69,567.37Zm2,254.82c-4.11,1.75-5.44-1-6.42-3.48-1.23-3.16,0-6,2.45-8.1a7.48,7.48,0,0,1,8.43-1.21c5.33,2.36,8.23,9.53,6.14,15.39a12.14,12.14,0,0,1-14,7.5,17,17,0,0,1,6.52-33.44c10.45,1.68,17,8.86,18.18,20.05,1.17,10.68-4.27,20-13.76,23.5s-21.57-.29-27.35-9c-5.57-8.36-6.83-17.69-4.8-27.43,4.69-22.59,11.34-44.67,17.77-66.8,0.76-2.61,2.26-5.21,0-7.81-0.93-1.09-1.48-2.85-3.29-2.63-1.56.19-1.52,1.83-1.87,2.93-8.3,25.77-16.63,51.54-20.24,78.5-1.58,11.82,1.58,22.41,9.91,31.24,11.05,11.69,27.06,13.68,38.72,4.78,8.45-6.45,9.54-16.24,10.94-25.57,1.46-9.75-6-21.27-15.4-25.51s-22.39-2.35-28.17,4c-5.56,6.07-6.54,20.5-1.84,29.3,3.89,7.28,10.17,11.17,18.34,11.09,6.67-.07,12.31-2.87,15.09-9.39,3.19-7.47,2.68-14.79-2.38-21.34a14.9,14.9,0,0,0-15.35-5.85,12.16,12.16,0,0,0-9.91,9.26c-1.36,5.09.17,9.49,3.89,13,2.9,2.74,6.53,4,10.42,2.49,5-2,5.72-6.17,4.13-10.63-1.07-3-3.83-5.59-7-3.72C705.16,816,708.42,819.32,710.7,822.19Zm9.5,378.31c25.89-.42,51.79-0.56,77.61-2.58,19.26-1.51,38.51-3.53,57-9.72,1.93-.65,5.1-0.68,5-3.46-0.09-2.63-2.92-3.88-4.88-5.41s-3.32.17-4.8,0.84a63.45,63.45,0,0,1-14.31,4.48c-34.49,6.58-69.41,8-104.34,7.55-47.81-.62-96.08,2.93-142.58-12.84-3.29-1.12-5.05,1.87-6.13,4.29-1.47,3.3,1.81,3.53,3.67,4.28,7.24,2.95,14.86,4.5,22.54,5.72C645.83,1199.49,683,1200,720.2,1200.5ZM619.81,532.77a8.07,8.07,0,0,0-.66,1.8,6,6,0,0,0,.17,2.23c6.47,19.17,18.55,33.66,36.35,43.27a10.74,10.74,0,0,0,7.28,1.21c16.24-3.19,30-11,42-22.17,1.55-1.44,2.5-3.17,2-5.36-0.59-2.77-3.08-2.23-4.89-2.46-9.45-1.19-19-2-28.39-3.34C655.12,545.26,637.4,539.19,619.81,532.77Zm-44.38,170.5-1.44.53a8.13,8.13,0,0,0,0,2.2c12.63,43.1,29.17,84.39,55.63,121.15,13.54,18.81,28.14,36.7,44.71,52.92,2.66,2.61,5.76,5.87,9.84,3.29A131.22,131.22,0,0,0,714,857.44c-5.48-1.48-9.16-1.15-12.59,2.44-3.28,3.44-7.24,6.22-10.74,9.46-4,3.74-7.46,3.73-11.7-.16a256.55,256.55,0,0,1-28.26-31.31c-22.17-28.39-42-58-54.15-92.43C591.36,730.73,582.59,717.28,575.43,703.27Zm232.08,312.9c-5.34,2.23-6.44,7.29-8.49,11.37A480,480,0,0,1,742.09,1116c-18.14,22.21-37.37,43.41-57.38,63.92-1.24,1.27-3.92,2.25-2.72,4.66,0.86,1.74,3.15,1,4.82,1.38,7.07,1.47,11.21-3.19,15.49-7.38,46-45.13,80.22-98.14,105.05-157.4A5.47,5.47,0,0,0,807.51,1016.17ZM778,1014.22c-1.31-1.84-2.19-3.78-3.68-5-2.27-1.82-2.94,1-3.84,2.09-7.44,8.85-14.47,18.05-22.13,26.7-42.35,47.82-90,89.72-141.59,127.31-3.31,2.42-11,5-8.76,8.24,4.31,6.22,9.32-.56,13.21-3.17,62.51-42,115-94.85,163.6-151.87C775.89,1017.24,776.82,1015.78,778,1014.22Zm37.5-52.7a37.59,37.59,0,0,1-3.55,3.75c-4.65,3.62-8.08,6.82-4.73,14,2.61,5.57-2.54,14-8.15,16.11-3.35,1.26-6.88,1.85-9.54-1.71a3,3,0,0,1,.2-4.13c1.93-2.18,2.15.29,3,1.23,2.58,3,5.19,1.58,7.07-.57C803,986.4,805,982,802,977.1s-7.58-6.27-13-4.52c-8.44,2.71-14.6,13.85-13.65,24.62,1.12,12.77,11.08,19.54,23.5,15.83,14.75-4.41,21.27-16.32,25.33-29.58,6.82-22.25,8.93-45.32,9-68.47,0-12.08-3.93-23.46-10.1-34.43-3.58,3.46-4.85,6.81-3,10.65,8.95,18.68,9.77,38.08,6,58.14-2.84,15.07-5.11,30.23-13,43.76-3.06,5.27-6.83,10-12.61,12.58-7.37,3.27-15.69.78-18.23-5.31-3.15-7.57.27-17.91,7-21,2.12-1,4.26-1.48,6.4.11a4.49,4.49,0,0,1,1.78,5.31,3.82,3.82,0,0,1-1.66,2.29c-1.65.69-1.9-.61-2.2-2-1-4.36-3.18-2.87-5.28-.94-3.85,3.54-4.75,12.28-1.51,16,4.13,4.75,8.79,3.54,13.63,1C809.45,996.52,820.58,973.74,815.47,961.51Zm8.88-429c-19.87,7.81-38.77,13.22-58.42,15.67-4.32.54-3.46,3.27-2.62,6.06,2.89,9.57,5.8,19.13,8.59,28.73,1.4,4.83,3.43,6.88,8.24,3.15,4.54-3.52,9.65-6.32,14.15-9.89C808.24,565.14,819.82,552.31,824.35,532.5ZM679.89,61.11c-7.22.42-12.8-5-19.79-4-15.28,2.06-29.78,6.71-44,12.36-1.46.58-4.15,0.65-3.82,2.93,1.1,7.7-4.69,10.88-9.46,14.37a39.62,39.62,0,0,0-12,13.19c-1.61,3-1.72,5.8,1.08,8s4.72-.15,6.47-1.79c6.28-5.89,13.09-10.51,21.51-13.26,12.39-4.06,24.7-8.07,36-15.54C663.71,72.09,668.86,62.37,679.89,61.11ZM486.6,194.47c4.33-3,10-4.92,11.54-10.37,1.56-5.71,5.21-9.75,9.27-13.36,4.23-3.77,8.75-7,12.25-11.71,1.62-2.17,4-5.28,9-2.19,2.89,1.8,8.8-2.29,11.46-5.33,3.69-4.24-3.37-1.29-3.54-3.65a6.23,6.23,0,0,1,0-2.17c1.69-5.54,2.11-12.26,11.14-10.16,2.55,0.59,5.52-.64,8.87-1.12-2.4,2.22-4.45,4-6.39,6-0.85.84-2.17,2.53-1.11,3.09,2.78,1.45,6,3.12,8.9,2.91,2.57-.19,3.61-4.39,2.7-6.22-2.14-4.3-.37-6.84,2.23-9.78,1.07-1.21,2.27-3.75,1.72-4.7-3.13-5.39.29-9.61,1.87-14.2a2.79,2.79,0,0,0-.37-1.3c-2.26-.34-3.4,3.21-5.85,1.83-1.28-3.06,4.53-5.62.9-8.1-4-2.73-6.33,1.8-8.59,3.89-7,6.48-13.21,13.8-20.32,20.12C511.54,146.31,498.38,169.78,486.6,194.47Zm356.5,604.19c-8.15,4-9.17,5.25-13.12,15C802.32,882.32,765.82,946,722,1005.5q-14.35,19.52-28.68,39.07C760,973.16,806.84,889.83,843.09,798.67ZM707.15,504.17c17.1,66.44,31.81,133.43,47.73,200.95,5.44-5,6.85-9.53,4.93-15.28-1.5-4.49-2.14-9.27-3.26-13.89C743.84,623,731.33,570.1,716,517.87,714.48,512.53,712.39,507.55,707.15,504.17Zm-165.28-3.72c0.18-5.33-3.3-7-6.71-8.53-11.19-5.17-17.2-14.34-19.69-26-2.58-12,2.48-24,12-29.4a24.2,24.2,0,0,1,28.66,3.54c10.78,10.13,13.09,22.69,9.15,36.61-0.75,2.64-2.27,5.08-2.91,7.73A9.76,9.76,0,0,0,566.59,495c3.94,2.4,5.09-2.73,6.78-5a54.62,54.62,0,0,0,8.2-16c10.81-33,4.6-64.38-9.41-94.94a9.5,9.5,0,0,0-2-2.14,28.41,28.41,0,0,0,2,8.35c7.66,21.81,11.72,44.15,9.26,67.32C580.2,464,578,475.2,569.18,483.86a48.74,48.74,0,0,1,1.1-8.63c2.17-13.14,1-25.57-8-36.24-7.64-9.05-17.57-12.8-29-10.4s-18.88,10.16-22.07,21.46C505.62,469.93,521,495.54,541.88,500.45ZM874.64,376.33c-3.93,3.3-5,6.47-6.31,9.39a127.6,127.6,0,0,0-11.6,41.88c-2,21.93,0,43.22,12.89,62.12,1.61,2.37,3.41,6.68,6.18,5.48,3.69-1.59,5-6.23,4.36-10.38-0.42-2.91-2.08-5.63-2.94-8.5-3.43-11.57-1.9-22.56,5.34-32.16,6.53-8.66,15.5-12.71,26.5-10.2,11.2,2.55,16.91,10.43,18.53,21.24,2.1,14-3.62,25-14.58,33.4-3,2.29-6.32,4.09-9.35,6.32-1.41,1-2.88,2.85-2,4.51,1.17,2.18,3.13.32,4.63-.13,20-6.09,32.93-37.87,23-56.36a29.2,29.2,0,0,0-39.61-11.84c-9.19,5-14,13.21-16.93,23s-0.56,19.56.21,29.29C852.85,448.11,861.3,412.93,874.64,376.33Zm-296,6.17c1.24,2.14,2.47,4.29,3.73,6.43,22.27,37.7,31.57,77.4,18.77,120.58a35.12,35.12,0,0,0-.84,16.43c4.22,23.29,17.09,40.36,37.34,52.11,1.74,1,3.33,3.14,6.2,1.79-2.51-2.05-4.89-3.9-7.15-5.87-20.73-18-32.09-39.1-25.56-67.85a132.42,132.42,0,0,0-4-74.31C600.66,413.52,592.93,396,578.64,382.49Zm284.73,0.4c-3.41,1.73-5.22,4.76-7.07,7.56C834,424.3,823.08,461.17,831.65,501.38c6.12,28.72-1.57,51.39-22.69,70.54-2.66,2.42-5.39,4.76-9.23,8.16,30.35-11.77,48.42-44.08,41.21-73.4-10.39-42.26-2.37-81.08,19.92-117.67C861.93,387.23,864,385.75,863.36,382.89ZM721.54,1311.35c6,0,12,0,18,0,3.34,0,5.24-1.18,5.06-4.81-0.32-6.51-.62-13-0.82-19.52-0.12-3.94-2.24-5-5.86-4.9-6.26.17-12.53,0-18.79,0-21.3-.06-21.12-0.06-21.61,21.32-0.13,5.79,1.33,8.38,7.44,8C710.5,1311.07,716,1311.36,721.54,1311.35ZM854,632.13c2.12-17.9-12.6-36-29.92-37.18-10.75-.73-22.75,6.91-25.51,16.25-3.19,10.77,2.39,22.89,13.11,28.45,10.56,5.48,19.09,3.67,27.07-5.7,0.45-.52.94-1.36,1.47-1.41,8.14-.7,5.65-6.18,4.52-10.57A23.39,23.39,0,0,0,831,605.87a17.13,17.13,0,0,0-18.95,2.86c-4.08,3.49-5.65,8.37-3.29,13.66,3.11,7,8.71,10.26,16.24,9.94,4.64-.2,9.54-1,10.26-6.74,0.75-6-3.3-9.1-8.35-11-2.79-1.06-5.55-.81-7.65,1.47a4.21,4.21,0,0,0-.41,5.58c1.82,2.34,4.39,2.26,6.78.84,1.62-1,2.8-1.15,3.28,1a2.8,2.8,0,0,1-2,3.56,10.68,10.68,0,0,1-11-3.06c-2.71-2.92-2.75-6.35-.69-9.74,3.44-5.65,11.2-6.13,18-1.16,7.16,5.27,8.61,11,4.09,16.23-5.74,6.59-13.4,8.42-21.44,5.11-6.67-2.74-12.34-10.57-12.19-16.84,0.18-7.51,5.55-13.57,14.45-16.37a18,18,0,0,1,11.09,0C841.45,605,847,614.42,850,625.89,850.64,628.18,849.89,631.11,854,632.13Zm-81.57,648.8v0.48c-6,0-12,0-18,0-3.11,0-4.64,1.16-4.41,4.48,0.45,6.5.77,13,1.09,19.51,0.2,3.91,1.91,6,6.1,5.77,11.75-.63,23.51-1.15,35.26-1.75,3.25-.17,5.11-1.43,4.46-5.23-1.09-6.41-1.92-12.86-2.77-19.31-0.54-4-2.7-5.44-6.7-5C782.41,1280.42,777.39,1280.59,772.39,1280.93Zm-103.67,28.68v0.63c5,0.25,10,.24,15,0.81,6.11,0.7,8.07-2,7.85-7.74a100.43,100.43,0,0,1,.46-15c0.56-5-1.32-6.8-6.14-6.91q-13.16-.32-26.3-1.2c-10.5-.72-10.5-0.84-12,9.37-0.67,4.46-1,9-2,13.36-1.24,5.32,1.13,6.81,5.86,6.73C657.19,1309.54,663,1309.61,668.72,1309.61Zm-6.53-546.24c-4.59-1.63-6.12-4.45-4.81-8.26a7.8,7.8,0,0,1,8.12-5.5c8.21,0.2,13.49,9.21,10,17.06-3.24,7.28-11.25,9.88-19.1,6.2S643.06,758.27,646,752c4.16-8.71,10.31-15.1,21.49-16.57-3.58-2.86-3.86-8.1-9.26-6.21-20,7-26.32,28.21-13,43.69,6.21,7.21,14.21,12.64,23.6,10.43,10.13-2.38,13.51-11.76,15.34-21.33,1.59-8.3-4.69-12.13-9.36-16.77-4.06-4-9.11-5.46-14.51-3-5.86,2.67-9.72,7.34-10.38,13.81-0.82,8,8.4,15.56,16,13.46,4.9-1.35,7.12-4.61,6.2-9.58-0.71-3.83-3.15-6.69-7.25-6.11C659,754.7,662.61,759.66,662.18,763.37ZM628,711.59c-2.72,1.12-4.74,2.14-6.87,2.79-14.19,4.33-27.82-6.74-26-21.15,0.9-7,5-11.5,11.88-12.85,6.45-1.27,12.07.57,15.39,6.7,2.45,4.52,2.53,9.27-1,13.3-3.15,3.61-7.33,4.25-11.67,2.31s-6-8.41-2.94-11.35c0.87-.85,1.94-1.69,3.31-1,1.17,0.63,1,1.55.37,2.49-1.6,2.51-1.57,4.83,1.21,6.4,1.9,1.08,3.86.62,5.68-.56,2.56-1.66,2.61-4.23,2.13-6.71-1-5.24-4.53-7.76-9.69-7.45-5.61.33-9.5,3.23-10.27,9.09a14.26,14.26,0,0,0,6.29,14.4c4.87,3.36,10.18,4,15.65,1.31,12-5.89,13.35-18.35,3.46-29.08-6.31-6.84-13.47-10.71-22.73-7.1s-14,11.31-14.75,21c-1.43,17.7,14.33,31.45,32.1,28.7C625.86,721.87,629,719,628,711.59ZM695,1275.11q0,0.52,0,1c5.51,0,11-.15,16.53,0,4.28,0.16,6.65-1.15,6.56-5.87-0.12-6,0-12,.15-18,0.08-3.63-1.13-5.55-5.17-5.54q-16.16,0-32.32-.41c-3.54-.1-5,1.42-5.36,4.66-0.62,6.22-1.19,12.45-1.88,18.67-0.43,3.81,1,5.59,5,5.48C684,1275,689.51,1275.11,695,1275.11Zm114.51,33.21c11.19-1.43,22.36-3,33.57-4.21,4.36-.46,4.87-2.71,4-6.13-1.42-5.58-3.25-11.07-4.32-16.71-1-5-3.44-6.46-8.34-5.82-9.2,1.21-18.44,2.23-27.69,2.78-5.25.31-7.22,2.28-6.27,7.45,1,5.67,2,11.36,2.7,17.08C803.64,1306.77,805.28,1308.82,809.52,1308.32Zm-177.36-.2c4.3,0.85,6.71-.62,7-5.72,0.29-4.72,1.49-9.38,2.26-14.07,1.44-8.9,1.09-9.23-7.73-10-8-.72-16-1.25-23.84-2.69-6.58-1.21-9.79.57-10.7,7.34a58.11,58.11,0,0,1-3.44,13c-2.49,6.49.5,8.51,6.29,9.06C612,1306,621.92,1307.06,632.16,1308.12Zm4.57-64.54c-8.24-.54-8.21-0.53-10,7.85-0.92,4.41-1.88,8.81-2.94,13.18-1.11,4.56,0,7.1,5.24,7.41,11,0.64,22,1.57,33,2.47,3.49,0.29,5.1-1.24,5.39-4.63,0.52-6,.94-12,1.8-17.94,0.74-5.14-1.63-6.57-6.25-6.76C654.24,1244.82,645.49,1244.13,636.73,1243.58Zm108.68,32.25c7.79-1.19,17,2.41,21.7-2.12,5-4.83-.75-13.7-0.18-20.85a6,6,0,0,0,0-.75c-0.2-4.3-2.19-6.1-6.72-5.76-5.74.44-11.52,0.26-17.29,0.33-18.74.23-18.74,0.22-18.59,19.3,0.08,10,.08,9.94,9.72,9.86C738,1275.8,742,1275.83,745.42,1275.83Zm43-2.16v0.18c8.24-.67,16.46-1.46,24.71-2,4.46-.27,6.43-2,5.31-6.63-1.41-5.82-2.86-11.65-4-17.52-0.64-3.26-2-4.79-5.52-4.48q-15.72,1.37-31.46,2.42c-3.91.26-5.17,2-4.58,5.84,0.83,5.44,1.49,10.92,1.86,16.41,0.34,5.07,2.47,7.31,7.68,6.24A47.32,47.32,0,0,1,788.37,1273.67ZM725.71,743.18c2.43-7.25,2.36-13.8-.68-20.75-10-22.87-24.45-42.77-40.87-61.2-12.39-13.91-27.36-25.11-42.29-36.21-1.77-1.32-3.9-5.1-6.65-1.45-2.43,3.22-1.23,5.69,2.26,7.91,40.4,25.83,67.29,62.43,84.65,106.6C722.81,739.81,722.93,742.1,725.71,743.18Zm104.45,526.76c10.89-1.62,19.53-3.06,28.21-4.16,6.25-.79,8.05-3.48,5.39-9.41a70.9,70.9,0,0,1-4.35-12.75c-1.31-5.58-4.34-7.06-9.76-6-6.36,1.29-12.83,2.1-19.28,2.86-11,1.29-11,1.21-8.59,12.17,0.8,3.66,2,7.26,2.48,11C824.89,1268.83,827.26,1270.85,830.16,1269.94Zm-218,.1c2.78,1.05,4.13-1.25,4.83-4.22,1.38-5.85,2.34-11.82,4-17.58,1.27-4.38.73-6.23-4.37-6.7-8.72-.81-17.4-2.29-26-3.85-4.13-.75-6.06.86-7.2,4.5-1.72,5.49-3.23,11.1-5.49,16.37-2.11,4.91.16,6.37,4.27,7C591.87,1267,601.55,1268.44,612.18,1270Zm-29.37,32.3c2.73,0.24,4.56-.74,5.32-3.32,2.12-7.22,4.14-14.47,6.22-21.7,0.48-1.67.31-3.15-1.59-3.52-9.84-1.92-20-6.07-29.43-4.73-6.13.87-6.3,12.08-9.39,18.54a19.71,19.71,0,0,0-1.07,2.81c-1,3.24-.09,5.19,3.52,6C565.23,1298.23,574,1300.33,582.81,1302.33Zm294.46-34.2c-8.62,1.69-17.23,3.43-25.87,5-3.7.69-3.42,3.17-2.74,5.7,1.7,6.3,3.53,12.56,5.39,18.81,0.75,2.53,1.87,4.78,5.22,4.11,9.1-1.83,18.2-3.68,27.32-5.44,3.5-.68,3.79-2.9,2.78-5.59-2.47-6.57-5-13.11-7.65-19.62C881,1269.2,879.8,1267.51,877.27,1268.13ZM667.14,1136.6c-0.36,10.55,12.8,26.64,22.29,28.21,2.7,0.45,4.26-1.08,5.8-2.72,6-6.42,11.8-13,17.9-19.3,2.73-2.82,2.58-4.92-.21-7.46-6.49-5.92-12.81-12-19.3-17.92-1.35-1.23-2.89-3.39-5.11-1.46q-10.22,8.89-20.24,18C667.46,1134.68,667.31,1136.15,667.14,1136.6ZM866.37,660.87c-4.61,4.67-6.33,9.11-4.6,15.28,2.7,9.63,5.91,19.16,7.07,29.2a36.73,36.73,0,0,1-7.09,27c-5.71,7.69-16.76,7.52-20.88-.06-2.8-5.16-1.37-9.82,2.55-13.65,3.15-3.08,6.88-2.78,10.26-.18a6.14,6.14,0,0,1,1.91,8.08,5.51,5.51,0,0,1-6.16,3.32,3.66,3.66,0,0,1-2.32-1.61,1.22,1.22,0,0,1,1.3-1.89c2.81,0.67,4.64,0,4.39-3.08-0.12-1.48-1.67-2.48-3.26-2.76-2.65-.48-4.21,1.09-5.47,3.11-1.91,3.06-1.18,5.85,1.23,8.15,2.84,2.72,6.19,3.07,9.71,1.27a11.31,11.31,0,0,0,4.39-15.56,12.77,12.77,0,0,0-18.28-4.2c-7.78,5.44-9.85,17.23-4.35,24.79,5,6.91,15.29,8.34,22.84,2.38,10.94-8.63,16.88-20.77,15.67-34.23C873.94,691.17,869.56,676.39,866.37,660.87ZM686.67,893.29l-2-.63c-2,5.34-3.78,10.76-6,16-7.87,18.93-19.39,35.73-31.44,52.12-6.55,8.91-10,18.4-9.79,29.34,0.07,3.85.84,7.55,3.29,10.61,3.81,4.74,9.05,5.67,14.28,3.55,4.61-1.87,6.23-6.42,6-11.24-0.12-2.65-1.54-5.26-4.73-4.54s-0.39,2.68-.22,4.06c0.59,4.63-1.3,6.66-6,6-8.19-1.19-10.95-9.53-5.31-18.32,9.34-14.57,19.41-28.68,28.8-43.22C682.26,923.7,685.26,908.67,686.67,893.29Zm116.61-46.11c-0.92,3.48-4.33,1.06-6.43,2.89-12.25,10.71-25.05,20.8-37.69,31.07-3.2,2.6-5.38,5.64-2.9,9.7,4.24,6.94.91,11.55-4.5,15.44-6.24,4.48-9.34,9.1-2.86,16,1.34,1.43,4,5.24,0,6.41-2.91.85-3.4,1.35-2.13,3.69,1,1.85,2.73,4,4.6,1.86,3.52-4,9-4.33,12.67-7.75,3.09-2.89,2-13.43-1.62-15.45-2-1.15-3.21.51-4.54,1.5-1.56,1.16-1.46,2.43-.06,3.71,0.93,0.84,1.86,1.69,2.7,2.61,1.68,1.85,1.43,3.79-.38,5.23-2.08,1.65-3-.31-4.05-1.71-5.68-7.26-5.53-8.55,1.81-14.42,1.76-1.41,3.49-2.87,5.24-4.29,3-2.45,6.48-4.26.7-8.18-2.13-1.44-6.34-6.1-2.12-9.63,11.88-9.94,24.37-19.15,36.23-29.11,3.85-3.23,10.85-4.33,11.3-9.44,0.48-5.3-4.79-9.61-7.8-14.17-1.2-1.82-1.62-6.47-5.4-4.11s-0.47,5.34.83,7.74C798.77,840.29,801,843.61,803.28,847.18ZM704.93,429.35c3.19,2.87,5.84,4.74,7.86,7.15,6.79,8.1,3.4,21.39-6.15,24.3-4.77,1.45-9,.31-11.93-3.93-2-2.91-2.58-6,.66-9.69,1.5,4.94,2.49,9.36,7.61,9.21,4.11-.12,7-2.68,8-6.76,1.25-4.94-.5-9-4.66-11.74a12.13,12.13,0,0,0-12.87-.6c-9.57,4.9-11.24,18.65-3.17,26.27,5.61,5.3,14.52,6.28,21.69,2.4,7.93-4.29,11.88-13.45,10-23.18C720.52,435,715.09,430.42,704.93,429.35ZM673.77,821.44c0.41-8.28.49-8.75-2.76-11.92-23.22-22.64-41.6-49-58.37-76.51-1-1.71-2-3.73-3.51-4.82-2.13-1.51-5.13-3.8-7.37-1.87-1.58,1.36,1.1,3.9,2.13,5.74,15.08,26.88,33.47,51.35,54.27,74C662.85,811.2,666.81,817.13,673.77,821.44Zm-32.63,51.23c0-10.46-8.43-21.25-17.68-23-8.84-1.71-18.82,3.88-21.9,12.26-4.06,11,4.4,28.38,15.87,32.22,2.08,0.7,4.93,2.59,6.26-1.16,1.1-3.09-.85-4.42-3.4-5.56-6-2.7-10.39-7-11.74-13.7-1.67-8.3,1.86-14.2,9.55-16.11,7.24-1.8,12.93,1.64,15.53,9.45,2.31,6.93.3,12.82-4.57,17.94-1.61,1.69-3.47,3.44-1.36,5.75s4.28,0.18,5.87-1C639.24,885.36,640.68,879,641.14,872.67Zm178.07,87.84c2-3.91,2.35-7.9,2.7-11.87A18.51,18.51,0,0,0,810,929.77c-8.74-3.1-14.14-.64-20.33,9.28-5.9,9.46-5.91,16.58,0,22.66a13.08,13.08,0,0,0,11.64,4c4.94-.67,8-3.74,9.89-8.22,1.81-4.2.85-7.94-1.74-11.27-2.37-3-5.59-4.26-9.33-2.47-3,1.42-4.76,3.72-4.28,7.2,0.29,2.16,1.47,3.81,3.72,4.16,2,0.31,3.21-.76,3.94-2.69,0.48-1.27-2.55-4.09,1.09-3.71,3,0.31,2.69,3.2,2,5.45-1.26,3.87-4,6-8,4.86-5.05-1.37-7.53-5.18-6.71-10.28s3.59-9,8.86-10.14c5.82-1.26,10.08,1.34,13.48,6.08S816.48,955.39,819.21,960.51ZM935.44,517.34c-14.12,10.08-24.11,20.23-29.37,35a474,474,0,0,0-18.26,65c-0.55,2.72-3.8,7.23.6,8.1,3.74,0.74,3.57-4.6,4.25-7.56,5.3-23.24,11.49-46.2,22.21-67.65,2.91-5.82,5.32-12.47,10.76-16.07C931.42,530.32,933.06,525.05,935.44,517.34Zm-211-53.44c-7.17,8.17-15.12,11.8-24.79,10.61-4.82-.59-3.72,1.94-2.55,4.38,4.76,9.93,12.23,17.71,20.35,24.9,3,2.69,4.92,1.33,5.89-2.15C726.66,489.63,728.15,477.57,724.41,463.9ZM730,851.11c-7.26,1.58-9.91,5.58-11.52,11.51-3.88,14.27-8,28.56-14.63,41.84-7.74,15.53-11,32.1-12.52,49.27C705.45,920.37,719.6,887,730,851.11Zm93.52,328.52c-2-3.26-5.29-4.14-8.13-5.51a188.08,188.08,0,0,1-54.1-38.83c-1.53-1.58-2.82-5.68-6.37-2.1-3.05,3.08-2.9,5.41.36,8.69a203.65,203.65,0,0,0,51.6,37.33C812.48,1182.08,817.8,1182.12,823.56,1179.63Zm-7.4-77.21c-2.24,4.62-11.7,54.05-11.57,57.78,0.1,2.78,1.71,4,3.82,5,7.91,3.77,15.72,7.76,23.77,11.21,5,2.12,9.46.35,14.32-3.7-10.07-3.45-19.42-6.1-28.15-10.42-4.46-2.2-6.36-4.72-5.2-10,2-9.28,3.62-18.69,4.9-28.1C819,1117.13,821.34,1109.81,816.15,1102.42ZM831,378.9c-0.81-3.49.78-7.37-2.52-8.16-2.67-.64-3,3.49-4.79,5.09-0.35.3-.34,1-0.7,1.29-9.6,6.55-14.49,15.6-16.39,27.11-0.65,4-1.55,7.6-.76,11.57,0.53,2.65,1.43,4.86,4.57,5.06,2.61,0.17,5.34-.17,6.52-2.75C822.81,405.18,828.06,392,831,378.9ZM566.59,1262.31c3.13-.07,3.87-2.19,4.63-4.41,1.79-5.19,3.47-10.42,5.52-15.51s1.12-7.22-4.67-8.62c-13.25-3.19-13.15-3.58-18.48,8.79-1.38,3.21-2.73,6.44-4.29,9.56-1.2,2.4-1.41,4.32,1.61,5.28C556.13,1259.07,561.36,1260.68,566.59,1262.31Zm23.53-618.12c5.48-8.67-2.56-11-6-14.94-5.14-5.76-11.56-6.44-18.48-3-6.42,3.21-9.09,8.61-8.45,15.43,0.69,7.36,3.64,13.68,11.07,16.61,6.18,2.44,14.29-1.39,16.11-7.32,2-6.47-1.28-13.5-7.18-15.48-3.9-1.31-6.93,0-9.12,3.24a6.36,6.36,0,0,0,.54,8.3,4.57,4.57,0,0,0,4.74,1.56c2.27-.5,2.56-2.17,2-4.07-0.42-1.37-1.6-3,.85-3.4,1.78-.3,2.66,1.29,3.22,2.65,1.34,3.26.28,5.88-2.6,7.78-4,2.65-7.68,1.82-10.89-1.37-4.3-4.28-3.95-12,.58-16.29a12.11,12.11,0,0,1,17.52.79C586.28,637.26,587.79,640.53,590.12,644.19ZM875.64,1262l5.73-1.63c13.78-3.86,13.78-3.86,7.87-16.6-6.57-14.17-6.57-14.17-21-9.65a4.18,4.18,0,0,1-.73.16c-3.36.42-4.05,2.11-2.9,5.23,2.33,6.32,4.42,12.72,6.59,19.1C872,1260.67,873,1262.17,875.64,1262Zm59.3-782.31c11.38-11.09,19-24.32,23.95-39.21,2.29-6.84.82-12.56-3.34-18.6-5.32,8-10.44,15.56-15.38,23.24a7.29,7.29,0,0,0-1,4.25C940,459.69,939.26,469.78,934.94,479.66ZM487.25,422.22c-7.68,14.19,2.36,41.53,21.21,57.85-3.86-11.45-6-21.82-4.22-32.58a3.34,3.34,0,0,0-.8-2C498.2,437.88,492.92,430.34,487.25,422.22ZM699.16,879.08c-5.57,2.43-6.94,5.81-7.42,10.07-0.62,5.48-1.55,10.92-2.57,16.34-3.65,19.46-9.14,38.56-11.5,58.27-0.52,4.36-.38,8.3,5.88,11.34C686.18,942.46,695.76,911.9,699.16,879.08Zm102.26,303.05a268.91,268.91,0,0,1-51.65-39c-1.43-1.37-2.72-.58-3.77.78-1.27,1.64-2.56,3.36-1,5.4a61.63,61.63,0,0,0,5,5.62c8.71,8.77,18.72,16,28.23,23.81C785.07,1184.36,791.91,1185.06,801.42,1182.13ZM815.06,647c0.95,15.8.42,30.91-2.46,46-3.26,17.07-8.53,32.8-20.82,45.6-4.69,4.88-9.21,9.94-13.62,15.08-1.65,1.93-5.11,4.39-2.35,6.87,2.28,2.05,4.07-1.72,5.74-3.18,31.81-27.7,38.6-64.66,38.36-104.18C819.9,650.77,819.81,648.12,815.06,647Zm-75.69,51.59-2-.11c-1.42,9.5-2.95,19-4.23,28.49-2.72,20.09-6.2,40.09-6.86,60.42-0.1,3.23,1,6.18,3.85,6.2,2.28,0,2-3.54,2.2-5.7q2.48-26.55,5.77-53C739.59,722.88,743.77,710.79,739.37,698.58ZM631.93,753.43c0.75-2,1.71-3.79,2-5.63a264.94,264.94,0,0,1,9.12-38c2.37-7.65,4.35-15.42,6.72-23.06,1-3.16-.54-4.89-2.9-6-2.76-1.34-3.33.94-4,2.92-6.28,19-12.2,38.18-15.87,57.93C626.13,746.32,626.87,750.49,631.93,753.43Zm-24.67,7.31c1.77,3.82,3.41,7.69,5.32,11.44a334.08,334.08,0,0,0,33.63,52.46c1.75,2.27,3.52,6.81,6.06,5.58,3.57-1.73,2.59-6.54,2-10.21a8,8,0,0,0-2-4C636.22,798.46,622.07,779.34,607.26,760.74Zm193.57,36a18.28,18.28,0,0,0-2.67,1.95c-8.93,9.65-17.78,19.38-26.74,29-11,11.8-11.46,15.35-1.92,28.57,2.45,3.4,1.4,4.51-1.14,6.3-4.51,3.19-9.09,6.32-13.34,9.82-1.87,1.54-3.7,4.36-1.57,6.48,1.71,1.7,3.43-1.05,5-2.1,2.07-1.41,4-3.05,6-4.6,14.56-11.42,14.73-11.54,4.11-26.9-2.52-3.65-1.4-4.9,1.17-7.63,11-11.7,21.6-23.8,32.38-35.73,0.89-1,1.81-1.87.86-3.19A15.39,15.39,0,0,0,800.83,796.73Zm8.57,282.49c-6.75,23.36-15.37,44-27,63.35-1.86,3.08-1,4.89,1.69,6.79,3.62,2.57,4.37-.69,5.44-2.6,9.08-16.18,16.77-33,22.06-50.79C813.09,1090.74,812.84,1085.72,809.4,1079.22ZM679.07,648.55c2.27-.41,2.48-2.5,3.25-3.91q13.9-25.35,27.6-50.8a29.2,29.2,0,0,0,2.43-5.47c0.56-1.9,1-4.34-1.11-5.42-2.43-1.22-3.54,1.23-4.51,2.78-11.41,18.27-21.67,37.19-31.47,56.37C673.07,646.41,676.87,647,679.07,648.55ZM475.8,441.3l-1.27.19a17.11,17.11,0,0,0,0,3.68c6.38,28.21,22.31,48.85,48.71,61.08a43.28,43.28,0,0,0,15.14,4.18c2.19,0.15,4.93.26,5.35-2.74s-2.39-2.6-4.19-3c-27.18-5.33-44.4-22.75-56.32-46.5C480.49,452.74,478.27,447,475.8,441.3ZM861.33,746.37c-5.35.27-7.9,2.22-9,6.49-1.26,4.84-3.68,9.45-4.48,14.34-2,12.12-9.06,20.35-18.82,26.88-2.5,1.68-4.94,3.45-7.33,5.28-8.45,6.46-8.9,9.15-2.77,17.88,0.92,1.32,1.35,4.57,4.09,2.73a3.54,3.54,0,0,0,.59-5.4c-5.51-5.72-1.52-9,3.11-11.45C849.11,791.09,854.12,768.64,861.33,746.37Zm106.4-305.91c-2.52,6.08-4.13,10.19-5.91,14.22-10.6,23.95-27.72,40.79-52.92,49.15-3,1-9.63-.84-8.58,4.17,1,4.69,6.87,1.83,10.57,1.47a24.07,24.07,0,0,0,7.1-2.35c20.57-9.12,36-23.61,45-44.35C965.75,456.48,968.46,450,967.73,440.46ZM876.5,587.15c-2.52,8.64-8.12,15.28-13.4,22.13-1.69,2.2-5.62,5.05-2.47,7.37,3,2.17,4.53-2.54,6.25-4.59,10.42-12.44,17.84-26.64,23.72-41.66,0.78-2,2.61-4.14,1-7.26a212.25,212.25,0,0,1-35.18,33.49c-2.13,1.6-5.14,3.48-2.76,6.67,2.7,3.62,5.38,1.1,7.55-1C866.4,597.34,871.42,592.21,876.5,587.15Zm108.8-169.39c0.09-6.56-3-12.08-7.83-14.37-3.58-1.68-6.94-1.38-9.68,1.43-4.47,4.59-5.17,10.1-3.15,16,1.75,5.15,3.86,10.22,10.5,9.88C980.9,430.45,985.2,424.62,985.29,417.76ZM713,688.81c1.51-23,2.93-44.25,4.25-65.51,0.16-2.63.84-6-3.37-6.22s-3.06,3.33-3.24,5.42c-1.53,17.73-2.6,35.51-4.45,53.21C705.56,681.39,707.82,684.53,713,688.81ZM479.25,415.72c-0.07-7.45-4.23-13-9.74-13-6.2,0-11.82,7.21-11.78,15.15,0,7.55,5.2,13.53,11.47,13.27C475.12,430.87,479.34,424.41,479.25,415.72Zm160,590.83c-2.18,6.45.87,9.1,6,10,7.33,1.21,14.35-.17,19.12-6.07,5-6.17,7.92-13.49,5.39-21.7a12.37,12.37,0,0,0-9.44-8.83c-4.46-1-8.4.38-11.68,3.52-2.78,2.67-2.2,5.91-1.38,9.14,0.5,2,1.82,3.07,3.85,2.69,2.49-.47,2-2,1.41-3.91-0.89-3,.25-5.68,3.28-6.69,3.52-1.17,5.56,1.35,7.16,4,5,8.2-1.13,19.68-11,20.85C647.51,1010,643.6,1008.43,639.22,1006.55Zm69.62,97.94c3.61-1.3,6.37-3.87,9.29-6.19,4.11-3.26,7-9.48,11.93-9.83,5.19-.37,7.93,6.22,12.12,9.3,0.4,0.3.77,0.65,1.16,1,1.74,1.41,3.32,3.2,5.59.53,1.9-2.24,2.63-4,0-6.29-5.3-4.61-10.37-9.5-15.55-14.24-1.7-1.56-3.35-3-5.68-.66-6.85,7-13.85,13.84-20.7,20.82C704.16,1101.72,706.25,1103.18,708.84,1104.49ZM744.23,732.6c-4.88,21-6.2,42.49-8.73,63.78-0.51,4.24,2.28,7.25,6.11,10.88C744.78,781.7,747.4,757.28,744.23,732.6Zm-38.62,452.63c8.62,3,12.27-2.62,16.54-6.55,8.46-7.78,8.39-7.86,16.59.41,0.88,0.89,1.81,1.74,2.6,2.71,4,4.92,8.95,5,16,3-8.45-7.47-15.9-14.07-23.36-20.66-1.71-1.51-3.62-1.86-5.42-.3C720.85,1170.49,712.67,1176.64,705.61,1185.23Zm-99.29-36c4.91-4.82,12.47-6.68,15.57-13.55,0.77-1.7,2.56-1.94,3.8-1.93,8.6,0,11.09-5.19,11.55-12.6,0.22-3.56,1.4-6.54,6-5.42,10.59,2.56,14.31-2.8,13.73-14.51-0.07-1.42.36-3.31-1.48-3.84-1.63-.47-2.88.88-3.68,2.06-1.31,1.92-3.37,3.51-1.66,6.59,2.35,4.24-.57,4.53-3.8,4.12-7.62-1-12.67,1.93-14.3,9.7-0.91,4.34-.3,10.31-7.83,6.06a2.29,2.29,0,0,0-1.87.89C617.26,1134.42,609.1,1139.72,606.33,1149.27Zm239,18c-0.58-8.29-6.46-9.91-12-11.19-6.68-1.55-8.5-4.84-6.4-11.32,2.58-8,3.17-16-4-23.69-1.76,11-3.31,21.12-5,31.2-0.5,2.92.33,4.91,2.93,6.17C828.45,1162.08,836,1165.85,845.3,1167.23ZM653,696.53c-5,5.64-2.13,9.76.51,13.63,8.76,12.83,18.2,25.16,29.09,36.28,1.44,1.47,2.85,5.38,5.69,2.46,2-2,1.58-5-.77-7.38A249.16,249.16,0,0,1,653,696.53Zm8.11,443.55c-2.5,1.48-6.23,2.75-5.53,6.15a241.41,241.41,0,0,0,10.77,36.62c1.09,2.89,4.22,2.4,6.59,1.65,2.81-.89,1.66-3.09,1.11-5-3.38-11.76-6.67-23.55-10.19-35.27C663.46,1142.81,663.53,1140.59,661.15,1140.08Zm113.34-77.73c-1.08-3.3-4-5-6.25-7.24-10.23-9.91-10.45-10-19.71.89-2.15,2.54-8.85,4.89-4.65,9,4.5,4.39,6.14-2.69,8.61-4.93,3.27-3,5.7-5.4,10.11-1.71s4.74,7.1.77,11.22c-1.9,2-3.46,4.29-5.19,6.43-1.17,1.45-1,2.71.48,3.82,1.16,0.87,2.39,2.33,3.84.78C767.48,1075.22,770.71,1068.68,774.49,1062.35Zm2.6,121.22a431.61,431.61,0,0,1-35-29.6c-1.95-1.82-3.34-1.35-5,.37-2.15,2.18-1.55,4,.33,5.75,7.11,6.71,14.38,13.25,21.31,20.14C763.62,1185.2,769,1186.91,777.09,1183.57ZM647.14,871.93c-6.15,17.91-6.12,18-22.59,28.59a5.78,5.78,0,0,0-2.73,6.38c0.55,2.48,3.27,1.65,5.15,1.54,10.78-.61,23.65-14,25.6-26.33C653.3,877.49,651.64,874.42,647.14,871.93Zm-37.56,305.56c7.26,5.3,11.47.5,16-2.84,10.46-7.67,10.47-7.66,14.48,4,0.24,0.71.29,1.49,0.57,2.18,1.08,2.69,3.41,2.9,5.65,2.25,2.53-.74,1.33-2.84.94-4.39q-1.62-6.55-3.47-13c-1.67-5.79-6.33-7-10.6-4.52C625.08,1165.92,617.63,1171.82,609.58,1177.49Zm284.86,85.56c-2.74,1.13-8.23.84-6.21,7,2.17,6.64,4.74,13.17,7.54,19.57,2.21,5.08,5.83,1.76,8.89.86s4.88-2.27,3.11-5.95c-2.91-6.08-5.46-12.33-8.25-18.48C898.71,1264.27,897.85,1262.27,894.44,1263.05Zm-339.61,5.65c0.44-4.31-3.23-4.3-5.45-5.32s-4.64-1.51-6,1.9c-2.66,6.43-5.72,12.7-8.58,19.05-1.13,2.51-1.49,4.9,1.88,6,3.15,1,7.1,3.86,9.26-.32C549.43,1283.19,551.91,1275.83,554.83,1268.7ZM656.3,689.4c-1.25,2.48-.34,3.79.42,5,8.61,14.14,17.95,27.75,29.72,39.49,1.4,1.39,2.93,5.18,5.75,2.19,2.26-2.39,0-4.46-1.72-6.38a175.61,175.61,0,0,1-21.91-29.43A28.57,28.57,0,0,0,656.3,689.4Zm-26.43,229c0.81,11.41,6,21,12.48,30,1,1.38,1.88,5.31,4.7,2.08,1.86-2.14,6.15-5.28,2.29-8-12.69-8.92-15.22-18.92-5.35-31.43,1.18-1.49.33-3-1.39-3.42C640.08,907.12,629.77,915.94,629.88,918.41Zm-9.07-8.1c-5,.36-3.23,4.57-2.59,7.23,3.51,14.74,10.87,28,17.05,41.65,0.69,1.52,1,4.6,3.73,3.23a5.25,5.25,0,0,0,2.87-5.69,16.33,16.33,0,0,0-2.74-5.25c-7.76-11.08-13.41-23-13.73-36.78C625.33,911.83,624.08,910.62,620.81,910.32ZM582.16,692c6.24-14.26,12.4-28.45,18.7-42.58,1.35-3,1.06-5.52-1.79-7-3.38-1.81-3.54,1.82-4.39,3.41a206.67,206.67,0,0,0-14.83,36.86C578.74,686.26,578.95,689.48,582.16,692Zm117.17,411.7c-1.48,2-2.92,3.71-4.18,5.57-1.41,2.1.45,3.23,1.64,4.38,6.3,6.15,12.68,12.21,19,18.35,2.17,2.11,4,3.58,6.76.47,2.46-2.8,2.79-4.87-.14-7.56-6.29-5.78-12.36-11.82-18.55-17.71C702.79,1106.19,701.54,1105.39,699.33,1103.68ZM903,613.89c0.94,3.53,1,6.63,5.6,5.89C918.82,618.13,925,604.26,919,595.7c-2.52-3.59-6.05-5.29-10.43-3.91-4.54,1.43-7.22,4.63-6.91,9.49s3.15,7.22,8.08,6.53c2.28-.32,3.44-2,3.56-4.2,0.11-1.93-.61-3.65-3-3.25-1.88.31-3.16-.07-2.76-2.07,0.34-1.75,2.07-1.9,3.63-1.71,3.06,0.36,4.91,1.85,5.56,5.08C918.46,610.15,914,614.37,903,613.89ZM717.43,1104.24c-1.52,1.59-6.33,1.75-4,5.35,3.38,5.22,8.44,9.16,13.45,12.92a2.38,2.38,0,0,0,3.35-.58c4.3-4.87,8.52-9.81,12.78-14.71,1.55-1.78,1-3-.82-4.18-1.47-.89-2.82-2.46-4.54-0.57a49.11,49.11,0,0,0-3.81,4.63c-3.58,5.05-7.21,6.59-11.51.69C721.22,1106.24,720,1104.51,717.43,1104.24ZM640.95,1155c5.56,3.25,6.62,8.77,8.18,14,1.22,4.06,2.26,8.18,3.33,12.29,1,3.7,3.92,3.64,6.61,3.11,4-.79,1.47-3.52,1-5.27-2.23-8.19-5-16.24-6.92-24.51-1.5-6.6-4.4-6-8.55-2.73C643.44,1152.76,642.36,1153.78,640.95,1155ZM815,797.35c-0.36-.53-0.77-1.14-1.19-1.74-8.2-11.48-17.92-21.69-27-32.46-1.23-1.47-2.53-2.47-4.33-.6s-0.89,3.65.49,5.25c9,10.46,18.34,20.69,26.43,31.93,0.69,1,1.57,2.3,3,1.21C813.54,800.05,815,799.26,815,797.35Zm-39.4-161.48c-0.84,2-1.34,2.7-1.38,3.39-1,16.72-1.82,33.44-6.86,49.61-0.35,1.14-1,3.32,1.38,3.35,2.24,0,3.67-1.58,4.14-3.7,1.62-7.31,3.6-14.58,4.58-22C778.79,656.75,780.19,646.8,775.64,635.86Zm-53.36-8c-2.54,15.87-3.31,31.89-4,47.92-0.08,2-.07,4.29,2.88,4.28,2.51,0,2.55-2.11,2.69-3.79q1.2-14.26,2.22-28.54A39.41,39.41,0,0,0,722.28,627.81ZM774.34,845a33.46,33.46,0,0,0,3.88-3.18q14.81-16.09,29.51-32.27c1.21-1.33,2.54-2.66.89-4.53-2.19-2.49-3.73-.29-4.92,1-10.31,11.36-20.51,22.81-30.74,34.24C771.17,842.32,771.48,843.86,774.34,845ZM653.87,918.1c-1.26-2.74-3.27-5.23-5.73-3.34-3.82,2.93-6.47,7.46-5.83,12.4,0.72,5.61,4.71,9.65,10,11.16,5,1.43,5.5-4,7.68-6.67a27.84,27.84,0,0,0,1.87-3.25c1.07-1.78,2.13-3.65.19-5.41-1.06-1-2.6-2.31-3.71-2.13-2.53.41-3.24,2.89-3.57,5.13-0.24,1.6.95,3.84-1.72,4.11-1,.1-2.32-0.86-3.11-1.7-1.42-1.51-1-3.22.14-4.81C651.39,921.75,652.64,919.89,653.87,918.1Zm316.46-576c5.39-12.11-5.39-38.37-17.67-43.94C962.34,311,961.33,328,970.33,342.14ZM607.46,649.86c-0.79,4.86,1.77,6.6,3.46,8.52q10.37,11.83,21.16,23.28c1.42,1.51,2.42,5.57,5.45,3.17,2.46-1.94,1.45-5-.54-7.34C628.34,667.44,618.54,658.63,607.46,649.86Zm308.57-28c-27.91,6.68-46.4,17.26-44.27,34.33,8.24-17.59,23.41-23.11,39-27.9C913.71,627.42,915.47,625.51,916,621.88ZM661.28,136.35c4.94,0.81,8.89-.18,12.7-1.19,4.2-1.11,6.61-3.42,3.27-8.15-2.26-3.2-4.16-6.56-4.29-10.91-0.06-1.93-1.25-6.09-5.39-4.09-2.75,1.33-6.14,3.62-3.73,6.81C668.89,125.48,664.93,130.44,661.28,136.35ZM701.4,672.82c1.91-9.55,2.18-18.73,2.82-27.87,0.2-2.82-1.11-4.3-3.79-4.46-3.51-.22-7.1-3.25-10.51,0-1.5,1.43-1.7,3.59.68,4.05,8.52,1.64,6.31,7.37,5.87,13.12C696.09,662.85,693.69,669.26,701.4,672.82ZM699,589.21c-15.42,5.31-17.67,18.72-24.33,28.49-1.66,2.43,1.51,3.13,2.93,4.22,2.24,1.74,3-.22,3.87-1.72C687,610.5,692.46,600.78,699,589.21Zm63.13-3.58c-0.29-7.91-5.82-9.8-10.12-12.27-6-3.45-9.16-7.25-5.49-14.29a15.09,15.09,0,0,0,1.18-6.54c0-2.07-1.12-4.29-3.17-4.57-2.88-.4-2.38,2.44-2.84,4.21-0.94,3.61-1.8,7.24-2.84,10.82-0.85,2.93-.43,5.3,2.06,7.32A186.31,186.31,0,0,0,762.14,585.63ZM630.49,872.25c0.1-5.8-4.22-10.84-9.36-10.44s-8.34,3-8.52,8.52c-0.22,6.44,4.47,12.39,9.77,11.9C628.23,881.69,629.91,877.32,630.49,872.25Zm12.13-260c-2-.27-2.62.86-3.26,1.91-1.54,2.49.42,3.58,2,4.83,8.27,6.56,16.49,13.17,24.82,19.66,1.51,1.18,3,4.33,5.41,1.2,1.87-2.43.19-4-1.72-5.6-8.19-6.66-16.31-13.4-24.48-20.09C644.43,613.38,643.35,612.74,642.62,612.25Zm34.7,16.6a2.71,2.71,0,0,0-.32-1.32c-9.25-7.67-18.5-15.35-27.88-22.87a2.87,2.87,0,0,0-4,.95c-1,1.49-.06,2.87,1.19,3.9,8.7,7.21,17.37,14.46,26.14,21.58C675.23,633.36,676.37,631.14,677.32,628.84ZM848.59,657c0.05-1.19.08-2.4-1.19-2.44a3.24,3.24,0,0,0-2.56,1.07,25.26,25.26,0,0,0-2.34,6.27c-2.62,12.84-8.63,24.52-12.56,36.91-0.73,2.3-.92,6-5.87,4.37-3.48-1.15-3.09,2.16-2.23,4.37,0.7,1.81,2.54,2.31,4.24,2.79,2.62,0.73,2.83-1.52,3.4-3Q838.82,683.2,848,659C848.3,658.29,848.44,657.55,848.59,657ZM738.11,1067.42a32.26,32.26,0,0,0-3.45,3c-1.59,1.87-.19,3.24,1.11,4.45q7.4,6.93,14.87,13.77c1.9,1.74,3.64,3.43,6.07.24,2.07-2.71,1.31-4.39-.86-6.33-4.65-4.18-9.18-8.5-13.84-12.67A29.53,29.53,0,0,0,738.11,1067.42Zm64.13-362c6-14.91-5.43-37.82-20.38-40.15C795.1,675.54,798.8,690.4,802.24,705.42Zm-179,139c-3.51-7.17-7.58-8-16.72-3.7-9.33,4.36-12.17,10-8.42,19C603.53,849.17,612.38,845,623.23,844.42Zm200.39,89.91c2.16-14.43-1.54-26.14-7.12-38C812.36,902.53,816.75,926.8,823.62,934.33ZM694.79,793.12c8.62-5.59,16.06-11.56,25.39-14.05,2.56-.68,2.27-2.94,1.76-5-0.65-2.59-2.71-2-4.21-1.42-5.38,1.93-10.9,3.49-15.92,6.38S694.28,786,694.79,793.12ZM783,1130.24c2-2.74,5.1-4.87,3.05-8.11a43.41,43.41,0,0,0-10.81-11.29c-0.35-.27-1.89.46-2.42,1.11-3.65,4.43-7.15,9-10.76,13.44-1.74,2.15-.74,3.65,1,5,2.18,1.77,3-.21,4-1.51,2.75-3.51,4.7-7.66,8.34-10.61C779.34,1121.15,780.13,1125.88,783,1130.24Zm-30.88-176c3.43-3.41,4.19-6.34,1.15-9.69-1.71-1.88-3.32-4.54-6.13-2.66-7.51,5-14.8,10.32-22.14,15.57-1.33,1-1.93,2.36-.81,3.89,1.36,1.86,2.77.42,3.89-.26,4.93-3,9.94-5.88,14.59-9.26C749,947.24,748.9,947.06,752.14,954.27Zm3.11-302,2.12,0.38q3.35-18.58,6.68-37.16c0.28-1.55.11-3-2-3.13a2.84,2.84,0,0,0-3.19,2.5C756.54,627.21,752.19,639.43,755.25,652.26ZM699,773.2c12.1-3.42,17.43-22.35,9.64-31.73C703.7,751.73,705.81,763.74,699,773.2ZM657.81,1080c9.83-9,16.62-18,23.58-26.86,2-2.52.38-3.45-1.34-4.62s-3.71-2.88-4.93,0C670.71,1058.92,662.14,1066.92,657.81,1080ZM754,1005c2.29-1.47,8.81,3.15,8-4.36-0.61-5.41-.51-8.75,6.22-8.14,1.78,0.16,3-1.55,3.39-3.47,0.2-1.13-.32-1.73-1.39-2.19-6.59-2.86-13.86,1.52-13.58,8.54,0.15,3.82-.71,5.93-4.82,4.95-2.88-.69-5.68-0.26-5.8,2.72-0.14,3.59,3.39,1.27,5.17,1.93A10.39,10.39,0,0,0,754,1005Zm13.82,27.76c13.11,1.59,27.23-5.34,29.32-14.39C786.94,1022.21,776.06,1022.94,767.78,1032.73Zm-93-44.15c4.39-7.1,2.17-14.08-5-17.73-7.72-3.94-12.31-2.9-15,3.4C667.23,976.68,668.16,977.34,674.78,988.58ZM751.4,546.31c-6.61-14-17.08-22.77-25.47-34.13C724.22,519.69,738.88,539.18,751.4,546.31ZM812.53,787c0.66-4.34,6-8.18-2.2-9.2-0.93-.12-1.51-2.39-2.43-3.53q-6.81-8.43-13.74-16.77c-1.11-1.33-2.41-2.78-4.4-1.25-2.46,1.9-.78,3.44.52,4.95C797.4,769.44,804.53,777.7,812.53,787ZM723.7,1043.8c7.78,0.39,9.06-.94,8.29-8.64-0.25-2.48-.66-4.94-1.13-7.39-0.32-1.65-.57-4-2.49-4-2.35,0-3,2.32-3.08,4.37a40,40,0,0,0,.56,5.19c0.41,3.87-.63,6.16-4.93,4-3.53-1.79-5.59,0-6.08,2.95-0.62,3.7,2.71,3.37,5.13,3.56C721.2,1043.88,722.45,1043.8,723.7,1043.8ZM591.86,80.74c-10.31,4.73-16.8,11.9-24.9,16.59-1.64.95-1.23,2.56-.34,3.94,1,1.6,2.81,3.09,4.34,1.93,5.13-3.87,8.08-10.31,15.66-11.55C588.52,91.34,589.56,85.79,591.86,80.74ZM848,650.26c4.51-.19,8.08-1.59,8.18-6.24,0.11-5-3.08-7.82-8-8-4.17-.12-7.82,1.93-7.87,6.27C840.2,647,843.18,650.09,848,650.26Zm47.3-8.53c-11.39-.14-24.48,17.71-21.42,29.05C881.24,661,885.93,650.05,895.25,641.72ZM668.9,915.44a4.62,4.62,0,0,0-.49-1.7,60.56,60.56,0,0,0-17.58-12.51c-2.08-.92-3.24,1.86-4.31,3.42s0,2.84,1.5,3.5c5.54,2.5,10,6.53,14.92,10,1.13,0.8,2.31,2.45,3.81.92A16.27,16.27,0,0,0,668.9,915.44ZM740,969.56c-5.3,2.58-9.57,4.63-13.8,6.74-4.92,2.45-9.84,4.91-14.72,7.44-1.88,1-3.61,2.7-2.72,4.75,1.27,2.92,3.31.77,4.94-.05,6.7-3.36,13.45-6.64,20-10.23C736.67,976.62,739.91,974.9,740,969.56Zm25.21-371.24a4.73,4.73,0,0,0-1.55-6.46C755.89,586,748,580.25,740,574.52c-1-.69-2.09-1.51-3.29-0.13-1.39,1.59-.59,3.09.57,3.93C746.5,585.06,755.05,592.76,765.26,598.32Zm39.89,532.35-1.65-.74c-3.71,7-7.47,14-11.1,21.08-2.67,5.2,2.45,6.18,5,7.32,3.75,1.69,2.78-2.36,3.15-4.12C802.2,1146.4,803.64,1138.53,805.15,1130.67ZM740,1024.18c2.65-.72,7.55,2.31,8.34-3,0.57-3.81-.65-7.92-1.31-11.86a3,3,0,0,0-3.05-2.82c-2.44.14-2.49,2.08-2.4,3.89a27.17,27.17,0,0,0,.49,3.73c0.27,1.42,1.33,3.06-.34,4.07-1.43.87-2.86,0.24-3.93-1.14s-2.2-2.56-3.5-.61-2.51,3.89-2.74,6c-0.2,1.78,2,1.72,3.5,1.74S738.1,1024.18,740,1024.18Zm71.71-184.32c8.84-9.75,9.15-15.33,1.59-24.3-1.42-1.69-2.57-3.16-4.81-1.1-1.73,1.59-2.49,3-.42,5,1.83,1.72,3.46,3.65,5.2,5.46,2.09,2.17,3.2,3.5-1,5.11C806,832.44,807.41,836.23,811.73,839.85Zm21.41,49.25c0.18-12.23,2.6-22.33.95-32.63C828.89,866.43,823.61,876.38,833.14,889.1ZM731.78,492.75c-4.75,13.41-1.08,23.73,10.37,30.91Zm-36.3,565.07c-3.28,2.11-3.9,4.42-3,7.44,1.43,4.78-.85,6.44-5.39,6.1-1.74-.13-3.5-0.05-5.24-0.07s-3.25.64-3.4,2.26c-0.19,2,1.67,2.17,3.17,2.22,4.24,0.14,8.49.26,12.74,0.27,3.19,0,4.73-2,4.1-4.85C697.51,1066.85,698.44,1062.1,695.47,1057.82ZM553.38,634.74c3.18-9.81,5.81-17.7,8.28-25.65,0.49-1.57-.54-2.89-1.85-3.8a1.8,1.8,0,0,0-2.95,1C554.34,614.87,548.78,623,553.38,634.74ZM657.33,788c3.14,5.8,7,10.87,14.32,9.57,6.36-1.13,4.88-6.44,5-11.73C670.31,790.95,664,788.67,657.33,788Zm-55,23c-2.56,1.15-4,3-2.93,5.4,3,6.43,7.75,11.66,12.14,17.13a2.53,2.53,0,0,0,3.44.23c1.59-1,.45-2.17-0.16-3.17q-5.32-8.65-10.71-17.25C603.61,812.5,602.94,811.77,602.33,811Zm58.89,152.79c4.78,0.06,9.84,5.59,11.9-.82,2-6.08,2.06-12.94,2.83-19.75C671.92,950.43,666.18,956.25,661.22,963.77ZM751.09,608.7c2.9-.2,7.88-0.45,12.83-0.92,1.72-.16,4.51,1,4.6-2.15,0.07-2.48-2.16-3.06-4.14-3.53-5.55-1.31-10.85,1-16.31,1.21-1.8.06-4.36-.46-4,2.87C744.5,609.28,746.6,609.45,751.09,608.7Zm41.06,475.56c-10.43,9.13-10.55,12.28-1.2,20.43,1.11,1,2.35,3.74,4,1.72,1.29-1.57,3.85-5,1-6.41C788.14,1096.1,790,1090.48,792.15,1084.26ZM730.47,692.12c2.73,0,5.82.92,5.94-2.9,0.09-2.92-1.84-4.34-4.85-4.53s-6-.81-8.94-1.12c-2.19-.23-4.72-0.94-5.06,2.57-0.26,2.66.69,4.34,3.54,4.7C724.33,691.23,727.55,691.72,730.47,692.12Zm49.7,360.44c-0.17-1.62-14-14.58-15.31-14.19-2.06.61-4,2.61-2.55,4.29a102.86,102.86,0,0,0,13.5,13C778.6,1057.84,779.21,1054.27,780.17,1052.57Zm84-337.31a11,11,0,0,0,1-2.58c0.16-5.54-14.24-15.15-18.86-12.57-1.4.78-1.83,2.32-2,3.84a2,2,0,0,0,2.07,2.48C853.3,706.82,858.9,710.33,864.14,715.25Zm-22.95,38.1c0.92,2.29-.75,6.4,2.84,6.63,2.74,0.17,2.88-3.56,3.7-5.7,2-5.23-1.64-8-9.26-6.77A11,11,0,0,0,830.8,753a3.25,3.25,0,0,0,.05,2c3,0.25,6.17,1.2,8.89-1.11A5,5,0,0,1,841.19,753.35ZM640.87,737.68c4.92-4.2,9.5-8.3,14.29-12.11,2.63-2.09,1.44-3.66,0-5.58-1.6-2.15-3-1.75-4.9-.25C644.61,724.22,640.53,729.47,640.87,737.68Zm139.84,155.8c4.08,0.2,7.27.74,7.44-3.31,0.18-4.28-3.19-2.65-5.4-2.7-3.5-.08-7-0.09-10-2.22-2.64-1.86-4.29-.4-5.23,1.86-1,2.45.72,3.82,2.8,4.31C774.16,892.35,778.09,893,780.72,893.48Zm-0.14-95.69c1.65-2.52,3.25-4.27,4-6.33a9,9,0,0,1,3.24-4.66c1.34-1,4-1.9,2.72-4.55a3.46,3.46,0,0,0-2.17-1.86c-2.4-.23-3.65,1.88-4.18,3.54-0.72,2.25-.85,3.77-3.74,2.17-2.05-1.14-2.88-6.27-6.2-3.06-3,2.91,1.13,4.39,2.56,6.43,0.78,1.11.53,2.89,1,4.28C778.1,794.61,778.84,795.3,780.58,797.79Zm47.35-84.1-1.84-.22c-0.47.55-1.26,1.05-1.36,1.66-0.42,2.78,1.58,7.24-2.08,7.77-3.08.44-4.43-3.08-3.15-6.62,0.55-1.52-1.13-1.38-1.94-1.24-2,.33-2.62,2.18-3.3,3.77-0.6,1.41-1,3,.74,4,7,4,9.1,9.1,3.35,15.81a1.89,1.89,0,0,0,.51,3.12c1.32,0.84,2.3.24,2.67-1.34Q824.71,727,827.93,713.7ZM702,896.19c5-8.81,7.82-18.27,10.57-29.5C699.84,874.79,704.14,886.5,702,896.19Zm2.49,119.44c3.78-.1,12.33-7.87,12.84-11.5,0.31-2.17-1.28-2.51-2.61-3-2-.74-2.94.76-2.92,2.27,0.06,6-3.89,5.89-8.17,6.08-3.13.14-8.44-2-8.3,3.14C695.41,1015.15,701.07,1015.33,704.49,1015.63ZM596,819.52c-2.36,2.17-4.67,4.38-2.64,7.22,2.86,4,5.62,8.32,10,10.91,0.61,0.36,2.41-.59,3.18-1.4,1.1-1.15,0-2.32-.75-3.31C602.56,828.51,599.31,824.08,596,819.52ZM679,863c1.59-4.29,2.77-15.77,2.3-18.77a4.53,4.53,0,0,0-2.38-3.55c-0.93-.5-1.81,0-2.51.92C673.91,844.69,675.34,859,679,863Zm-40.38,159c-3.3,8.18.79,12.74,4.75,17.25,1.12,1.28,2,4.24,4.41,2.45a4.51,4.51,0,0,0,1-6.66C645.63,1030.9,642.4,1026.87,638.58,1022ZM888.31,664.3a10.1,10.1,0,0,0-1.19-2.21,1.5,1.5,0,0,0-2.52.17c-3.75,5-7.57,10-10,15.78-0.37.86,0.42,2.42,1,3.43s1.74,0.57,2.43-.22A50.58,50.58,0,0,0,888.31,664.3ZM670.93,854.16c-0.58-8.38,3.94-16-2.39-23.27C663.7,842.26,664.07,848.12,670.93,854.16Zm99,120.91a25.38,25.38,0,0,0,0,3c0.19,1.57-.61,3.92,2.08,3.93,1.67,0,2.46-1.52,2.76-3.09a17.74,17.74,0,0,0,.51-3.7c-0.09-3.83-1-8,5.53-5,1.76,0.78,5.15-.69,5.76-3.45,0.32-1.42-1.77-2.15-3.24-2.44C778.22,963.25,770,969.89,769.92,975.07ZM670,1089.42c-1.95-.13-3.45-0.18-4.95-0.33-2.91-.3-6.32-0.18-6.5,3.25-0.23,4.32,3.73,2.6,6.12,2.84a21.05,21.05,0,0,0,4.5,0c3.46-.41,9.28,1.15,9.21-3.36S672.66,1090.28,670,1089.42Zm122.2,23.69c-1.69-4.28-5.4-6.92-8.78-9.77-1.16-1-2.36-3.92-4.7-1.08-1.68,2-.87,3.72.52,5.32,2.45,2.83,4.94,5.64,7.52,8.36,0.77,0.82,1.4,2.38,2.91,1.79C791.62,1117,791.26,1114.77,792.23,1113.11Zm-134.73-230c-1.63,3.77-3.24,7.12-4.54,10.6s2,4.09,3.72,5.58c1.36,1.17,2.7,1.06,3.35-.95C661.74,893.12,665.41,887.65,657.5,883.13ZM680,598.7c-9.07,0-11.47,6-14.08,11.58-0.92,2,.47,3.32,2,4.32,2.17,1.41,3.32-.28,4.17-1.74C674.72,608.47,677.12,604,680,598.7Zm109.6,435c-5.24,0-9.18,2.3-13.32,3.72-1.12.38-2.42,1.3-1.47,2.79a20.7,20.7,0,0,0,7,6.57c1,0.6,2.42-.45,2.29-1.17C783.25,1040.52,789.47,1039,789.63,1033.68ZM728,703c2.46,0.62,5.08.74,5.61-3.23,0.56-4.24-3-3.12-5.05-3.75a16.39,16.39,0,0,0-5.92-.61c-1.93.13-5.13-1.74-5.43,1.77-0.26,3,2,5,5.1,5.47C724.06,703,725.83,702.92,728,703Zm-55.11,457.09c1.61,5.52,2.64,9.08,3.7,12.62,1.58,5.32,4,4.36,7.38,1.34s3.54-5-.48-7.32C680.5,1165.06,677.61,1163.09,672.93,1160.14ZM798.38,791.6a24,24,0,0,0-2.64-3.51c-1.51-1.39-2.64-.08-3.82.85-3.11,2.46-4.23,6.49-7.63,8.9-2.34,1.67.42,3.39,1.75,4.64a2.24,2.24,0,0,0,3.89-1.36c0.16-3.75,3.13-4.3,5.36-5.89C796.46,794.42,797.21,793,798.38,791.6ZM690.25,857.7h0.11c0-1-.05-2,0-3,0.16-2.61,0-5.83-2.93-6-3.5-.17-2.26,3.56-2.69,5.66a24.37,24.37,0,0,0-.39,6.69c0.17,2.16-1.57,5.75,2.32,5.86,3,0.09,3.68-2.79,3.57-5.52C690.21,860.19,690.25,858.95,690.25,857.7Zm-52.74,182.08c-2.58,7.58-3.25,14.89-1.94,19.53C645.2,1048.7,645.39,1047.14,637.51,1039.79Zm54.78,41.65c-9.92-3.87-17.86-4.49-24.62,3.43C675.17,1082.95,683.27,1086.46,692.29,1081.43ZM553.71,599.66c-4.93-8-11.56-12.37-17.86-18.44C535.82,589.73,542.12,596.12,553.71,599.66Zm126.48,434.83c14.7,2.36,14.71,2.35,12.41-10-0.26-1.41-.77-2.78-1.39-4.94C686.19,1024,689.7,1032.44,680.19,1034.49ZM589,819.56c4.12-3.88,9.17-10.72,10.06-13.28,0.54-1.55.64-2.93-.63-4.05a2.4,2.4,0,0,0-1.83-.55C592.22,802.7,587.28,814.45,589,819.56Zm189.23,310.81c-0.37-2.27-.59-4.39-2.54-4.8-1.67-.36-2.36,1.54-3.11,2.81-1.15,1.94-2.79,3.8-3.24,5.9-1,4.53,3.37,5.75,6,7.46,1.43,0.92,3.43-2.92,3.24-3.11C775.63,1135.74,776.89,1132.83,778.23,1130.37ZM598,669l13.45-1.82c-2.49-4.58-4.63-8.21-8.59-10.85C600.59,660.65,598.4,664.2,598,669Zm240.7-6.75c-13,4.54-15.72,7.29-15,14.51C835.39,670.6,837,669.13,838.7,662.27ZM773.26,793.4c-4,7.61,3.13,11.12,4.91,16.15,0.7,2,2.3,3.35,4.58,1.16,1.74-1.67,2.1-3.07.39-5.07C779.92,801.88,776.9,797.94,773.26,793.4ZM772,922.33c5.08-8,4.78-12.2-.29-15.95-1.59-1.18-3.21-1.57-4.85-.52-1.9,1.22-.39,2.54.14,3.84C768.6,913.6,770.12,917.53,772,922.33Zm91.17-222.17c-0.69-7.42-4.23-10.25-10.92-9.29-1.71.24-2.85,0.93-3.27,2.48-0.49,1.81.84,2.81,2.23,3.38C855,698.31,858.82,700.15,863.18,700.15Zm-127.59,398.1c-1.67-1.57-2.7-4.91-5.33-4.21a11,11,0,0,0-7.41,6.86c-0.55,1.89,2.51,5.45,5.38,5C731.77,1105.26,733.64,1101.83,735.59,1098.25Zm144.2-399c4.51-4,3-10.71,6.75-15,0.43-.48-0.18-2.65-0.93-3.23-1.16-.89-2,0.54-3,1.27C876.37,687,876,692.6,879.79,699.23ZM667.33,892.47c-1.28,3.1-2.06,5.4-3.15,7.54-2.58,5,1.81,6.52,4.57,7.59,3.94,1.53,3.18-2.9,3.89-4.76C674.5,898,670.18,896.11,667.33,892.47Zm82.5-5a10.86,10.86,0,0,0-2.39,8.86c0.66,3.83-3.45,4.6-4.07,7.43-0.19.88-.32,2.18,0.16,2.73,1,1.11,2.3.39,3.29-.29C754.17,901.11,755,896.77,749.83,887.42Zm59.76,20.83c-6.38,5.86-2,11.17-.55,16.36,0.37,1.35,2.41,2,3.9,1.47s1.11-2.11.88-3.23C812.84,918.07,812.29,913.13,809.59,908.25Zm-157-775.69c4.85-.11,8.24-2.2,9.2-7.13,0.44-2.28-.55-4.15-3.23-3.75-5,.73-7.81,4-8.83,8.75C649.25,132.66,651.06,132.65,652.6,132.56ZM785.82,737.64c-4.75,1-7.46-2.09-10.72-2.13V749.8C780.23,746.83,782.74,743,785.82,737.64ZM580.47,761.21c1.6,6.72-.46,14.1,3.22,21C588.4,776.13,587.58,770.31,580.47,761.21Zm225.36,95.94c-5.59,2.06-8.58,5.37-11.61,8.52-2.84,3,.15,5,1.61,7,1,1.35,2.21.7,2.86-.63C800.92,867.49,803.09,862.89,805.83,857.14Zm-145-15c3.7-13.7,3.44-16.37-1.68-19.28C656.59,837.94,656.59,837.94,660.79,842.14ZM655.51,92c-3.24.25-6.48,0.56-9.73,0.72-2,.1-3.58.77-3.4,3,0.16,2,1.77,3,3.63,3.2,3.87,0.42,7.42-.87,10.84-2.49,1.33-.63,2.94-1.3,2.38-3.22S657,91.51,655.51,92ZM715,1055.82c-0.21-2.74-.45-5.49-0.62-8.24-0.12-2-.67-3.58-3.06-3.24-2.18.31-2.78,2-2.62,3.91,0.22,2.75.57,5.5,1,8.23,0.29,1.79-.49,4.8,2.43,4.52C714.48,1060.77,715.49,1058.35,715,1055.82Zm16.48-122.17c1.47,7.12-4.73,11.46-7.08,18.31C737.46,945.35,738.39,943,731.44,933.65Zm-24.58,128c-0.4-2.61-.61-4.85-1.11-7-0.37-1.6-.46-4.11-2.74-3.71-1.65.29-2.44,2.39-2.21,4.3,0.44,3.71.94,7.41,1.44,11.11,0.14,1,.56,2.12,1.78,1.8a3.39,3.39,0,0,0,2.18-1.74A26.29,26.29,0,0,0,706.86,1061.65ZM819.1,783.11c-0.49,3.72-3.87,7.61,0,9.86,4.5,2.62,7.2-2.17,10.84-4.78ZM574.52,669.69c4.36,0,6.75-2,7-5.26,0.15-2.35-1.34-2.71-2.68-2.06-3.43,1.68-9-1.76-10.41,3.08C567.62,668.24,571.43,670.06,574.52,669.69Zm200.9,226.54c-2.84.12-6.16-.17-4.5,3.25,1.51,3.11,5.35,4.56,8.61,5.25,2.22,0.47,3.4-2.53,4.13-4.56,1-2.78-1.54-2.51-3-2.9C778.72,896.77,776.74,896.49,775.42,896.23ZM791.62,885c1.43-1.62,3.33-3.27,2.51-5.69a20.61,20.61,0,0,0-5.45-8.76,1.82,1.82,0,0,0-2.64.49c-2.53,3.51,1.26,5.89,1.78,8.87C788.17,882,788.44,884.52,791.62,885Zm6.72-129.77c3.17-1.66,6.1-3.82,7.12-7.21,0.59-2-1.91-4.13-3.58-3.68a10.81,10.81,0,0,0-7.17,6.84C794,753.11,796.6,754.28,798.35,755.28Zm-16.1,89.22c-2,1.55-4.26,3.49-4.12,5.76,0.15,2.44,1.14,5.92,3.94,6.5,2.38,0.49,5.33-1.88,5.31-4.11C787.35,849.6,785.21,846.81,782.25,844.5Zm13.64-.86c-2.12-2.11-2.17-6.58-6-7.37-1.83-.37-3.59,2.17-3.15,4.25,0.72,3.36,2.15,6.9,5.65,8C793.54,848.91,795.48,846.41,795.89,843.64Zm-90.3-212.4c0-3.75-4.12-2.14-6.56-2.89a3.75,3.75,0,0,0-5,3.92c0.34,4.37,4.91,2.95,7.59,3.94C704.57,637.32,705.32,634.83,705.59,631.24Zm16.62,554.82c5.35,0.21,10.28.79,15.63-.37C731.29,1176.26,729.16,1176.33,722.21,1186.05ZM754,1073.34c2.32-2.66,6-4.73,7-8.79,0.4-1.78-1.78-3.71-3.36-2.84a13.52,13.52,0,0,0-7.09,9C750.22,1072.06,751.6,1073.33,754,1073.34Zm58.57-317.43c-1.15-1.86-2-4.75-3.31-4.14a16.46,16.46,0,0,0-7.83,8.25c-0.41.91,1.89,3.82,3.37,3.06A19.22,19.22,0,0,0,812.56,755.91Zm-96.09-1.12a19.59,19.59,0,0,0-1.47,3.36c-0.55,2.43-.85,4.92-1.35,7.37-0.24,1.21-1,2.73.46,3.28,0.95,0.37,2.42-.18,3.5-0.66C721.82,766.27,721.46,761.35,716.47,754.79Zm-72,266.82c2.49,4.5,3.87,9,8.86,10,0.92,0.18,2.51-2.74,2-4.42C654,1022.5,650.72,1020.37,644.48,1021.61ZM608.28,600.9l-0.6,1.38c3.75,2.16,7.47,4.37,11.25,6.47,2.48,1.38,4.29.54,5.31-2,1.22-3.06-1.12-3.2-3.06-3.55C616.88,602.39,612.58,601.65,608.28,600.9Zm13.19,138.91c2.42-4.7,3.93-8.73,2.08-12.25-0.81-1.55-6-.67-6.74,1C614.92,732.74,619,735.42,621.47,739.81ZM914.19,562.58c3.32-.09,5.72-2,8.18-3.31s3.79-3.92,2.28-6.15c-1.41-2.07-3.49.36-5.11,1.06C916.16,555.63,914.25,558.25,914.19,562.58ZM829.42,736.42c-0.61,5.62-4.82,9.29-3.64,14.94C835.43,743.39,835.43,743.39,829.42,736.42ZM804.9,1078.35a9,9,0,0,0-6.3-6.5c-2-.6-2.92,2-2.7,3.56a9,9,0,0,0,6.66,7.32C803.88,1083.14,804.58,1080.35,804.9,1078.35ZM713.25,612.77c2.19-.31,5.47,1.47,5.12-2.43-0.33-3.7-3.52-4.3-6.7-4.57s-5,1.65-4.7,4.37C707.43,614.36,711.35,611.7,713.25,612.77ZM586.17,805.9c2.53,0.08,3.35-1.75,4.11-3.15,1.69-3.09,6.07-5,4.39-9.59a2,2,0,0,0-1.71-.8c-3.51,2.52-6.28,5.67-7.13,10A12.14,12.14,0,0,0,586.17,805.9ZM691.4,661.12c1-4.19,4.09-7.85-.73-11.09-1.58-1.06-3.43-1.45-4.43.67C683.77,655.92,687.27,658.33,691.4,661.12Zm43-98c1.14-3.64,2-6.38,2.85-9.15,0.39-1.34,1.62-2.82,0-4.08-1.4-1.08-2.85-.09-4.28.21-1.9.41-2.35,1.66-2,3.34C731.5,556.53,732,559.67,734.4,563.12ZM540.25,598.55c0.61,5.86,4.2,8.18,7.58,10.56,1.13,0.8,2.64,1.59,3.89-.13a2.74,2.74,0,0,0-.5-4A29.86,29.86,0,0,0,540.25,598.55Zm207.39,0.6c2.1-1.16,6.55,1.39,7.08-2.41,0.45-3.25-3.51-3.86-6.14-3.58s-6.25.31-6.42,3.67C742,600,745.16,599.16,747.65,599.15Zm-14.7-53.59c1.76-1.59,6.3.26,6.4-3.22,0.08-2.66-2.76-4.86-6.11-3.52-2,.81-5.56-0.14-5.34,3.83C728.08,545.83,730.1,546.19,732.94,545.56Zm23.38,319.51c11.07-6.84,11.1-7,3.6-13.08C758.78,856.43,759,861.12,756.33,865.07ZM752.7,557.89c-4.74,8.86-4.37,9.8,5.06,13.58A39.33,39.33,0,0,0,752.7,557.89ZM739.9,929.26c-2.42-.22-3.53.76-2.94,2.58,1,3.14.19,7.39,3.83,8.95,1.35,0.58,4.55-1.92,4.24-3.34C744.33,934.2,742.87,930.88,739.9,929.26Zm25.66-270.75c-1.84,1.52-7-1.29-7.35,4.31-0.12,1.89.75,3.71,3.09,3,3.15-.93,7.44-0.52,7.92-5.36C769.41,658.47,768.16,657.87,765.56,658.51Zm18.36,118c-2-2.23-2.82-6.24-6.13-6.85-2.58-.47-3.2,2.49-3.18,4.87,0,4.56,6.2,1.79,6.81,5.69A4.58,4.58,0,0,0,783.92,776.49Zm51.22-132.7c-2.11,1.36-4.53,1.78-3.69,4a14,14,0,0,0,7.18,8c1.06,0.48,2.47-1.41,2-2.37C839,650.09,837,647,835.14,643.79Zm62.1,12.36c-1.29-1.8-2.22-4.82-4.8-4.83s-3.6,3.1-4.26,5.35a2.8,2.8,0,0,0,3.24,3.72C893.62,660,896.35,659.49,897.24,656.16ZM705,991.65c-2.52,5.3-6,8.42-4,13,0.41,0.94,3.07,1.83,4.07.69C708.37,1001.63,706.92,997.6,705,991.65Zm23.6-271.76a14.86,14.86,0,0,0,2.47-8.91c0-1.59-.27-3.13-2.13-3.34-1.44-.17-3.18-0.33-4.34.31-1.81,1-.31,2.64.17,3.83C725.77,714.27,727.05,716.64,728.61,719.89Zm34.29-36.77c3.1-3.15,3.15-6.54,4-9.53,0.4-1.42,1.81-4.3-1.6-4.35-2.6,0-5,1-4.36,4.43C761.45,676.55,762.12,679.41,762.9,683.12ZM717.31,967.81c1,2.27,0,6.07,3.82,6.88,1.55,0.32,4.26-.73,3.46-2.69-1.26-3.07-1.31-7.47-4.65-8.77C717.76,962.36,717.61,965.61,717.31,967.81ZM817.4,768.3a5.62,5.62,0,0,0-4-4.92,4.26,4.26,0,0,0-4.89,3.64,5.22,5.22,0,0,0,4.78,5C815.44,772.22,816.8,770.46,817.4,768.3ZM769.93,624.5c-2.26-.32-3.93.55-4.1,3.06-0.28,4.24,3.25,3.71,5.75,4.19,1.77,0.34,4,.18,3.78-2.27C775.16,626.48,773.64,624.21,769.93,624.5ZM763,1009.44c-4,0-8.34-2-11.57,1.47-0.73.79,0.12,3.6,1.51,3.76C757.12,1015.14,760.48,1013.17,763,1009.44ZM897.12,662c-6.71,4.84-8.64,9.52-8,15.29C893.14,673.71,895,669,897.12,662Zm-72.3,3.28c3.54-2.87,8.2-3.13,9.43-7.53,0.3-1.07-2.55-4-4.24-3C826.84,656.77,823.7,659.47,824.82,665.32Zm-23.58,424.13a3.74,3.74,0,0,0-3.87-4.33c-2.84,0-2.49,3.06-2.89,5.09-0.53,2.7,1.15,4.91,3.3,5C801.27,1095.26,799.75,1091.28,801.24,1089.45ZM769.9,641.81c0.14-2.82.34-5.61-2.9-6.23s-2.56,2.13-3,3.92c-0.76,3.08.65,4.76,3.48,5.33S769.61,643,769.9,641.81ZM585,795c3.76-4.43,9.19-7,4.67-13.61C586.3,785.44,582.92,788.58,585,795ZM830.59,686.25c-1.9-1.88-1.64-6.06-5.22-6.68-1.43-.25-2.72,2.06-2.31,4,0.67,3.12,2.58,5.31,5.83,5.74C830.54,689.51,830.58,688,830.59,686.25ZM561.64,623c4.49-1.51,7.86-1.52,10.71-4.07-2-1.88-3-5.68-6-5C562.87,614.79,563.2,618.91,561.64,623Zm129.08,417.19c-4.58-.43-8.5-1.82-10.72,1.61-1.32,2,1.42,3.23,3.28,3.93C687.87,1047.47,688.36,1043.57,690.71,1040.19Zm5.13-17.67c0.48,2.39.22,5.94,3.06,6,3.13,0.12,4-3.68,4.29-6.08,0.37-3.22-3.17-2.35-5-3C695.06,1018.51,696,1021,695.84,1022.53Zm51.92-62.4c-1-1.43-1.46-4.12-4.38-3.64-1.94.31-4.17,1.38-3.22,4,0.8,2.18,1.54,5.31,4.68,4.9C746.91,965.06,747.51,962.69,747.76,960.12Zm46.3-265.33c0.41-3.72,1.14-7.51-2.56-9.47-1.94-1-4.08,1-4.31,3C786.64,693.07,790.91,693.24,794.06,694.79Zm104.32-56.47c1.9,2.13,4.57,2,6.83,2.36,3,0.48,3.93-2.18,3.88-4.39-0.1-3.75-2.81-1.69-4.38-1.34C902.4,635.46,899.75,635.62,898.37,638.32ZM626.12,1181.08c3.71,0.66,6.94,3.69,9.62-.15,1-1.37.15-4.68-1.59-5.2C630.15,1174.55,628.41,1177.84,626.12,1181.08Zm-154-950.49c-0.55.64-1.53,1.4-1.4,1.68,1.69,4,3.51,7.86,5.42,11.72a2.39,2.39,0,0,0,1.93-.29c1.85-2.2.32-4.24-.68-6.15C476,235,475.22,232,472.08,230.6ZM785.86,682.68c1.16-.52,3.38-0.64,3.24-2.23-0.29-3.27-2.85-5.09-5.8-6-1.91-.58-2.65.91-2.72,2.55C780.41,680.5,783.09,681.49,785.86,682.68Zm36,6.78c-0.78,3.38-4.46,6.42.83,8.94,1.4,0.67,3.15,2.6,4.37.06C829.44,693.55,825.06,692.14,821.86,689.46Zm10.94,452.08c-2.44,9.67-2.26,10,5.93,10.33C836.88,1148.45,836.25,1144.71,832.8,1141.55Zm71.54-493.78c-0.38-2.8-2.72-3.26-4.78-3.54-1.75-.24-3.81.76-3.65,2.68a5.84,5.84,0,0,0,4.79,4.93C902.87,652.25,903.38,649.49,904.34,647.77ZM690.58,714.63c-3.85-4.39-7.67-6.37-12.93-8.3C679.58,713.66,683.22,716.1,690.58,714.63Zm27.78,284.14c1.69,0.13,3.27-.49,2.9-1.75-0.79-2.71-2.8-4.81-5.79-4.9-1.47,0-4.17.53-3.46,2.74C712.92,997.69,716.15,997.94,718.36,998.77Zm200.17-710c-0.4,4.1-2.26,8.25.78,12.23a2.94,2.94,0,0,0,2.52-.59c2.18-4.29.36-8-2-11.62A3.91,3.91,0,0,0,918.53,288.76ZM735.85,1035.94c3.48-1.42,6.88-2.78,6.81-6.32,0-2.38-3.19-1.83-5-1.27C733.31,1029.76,735.54,1032.81,735.85,1035.94ZM488,248.06a4.16,4.16,0,0,0-4.33-3.5A4.75,4.75,0,0,0,479.2,248c-0.46,2,1.59,3,3.42,3C484.85,251,487.17,250.7,488,248.06Zm274.4,689.69c-1-1.74-2-3.91-4.33-3.14-1.93.65-4.78,1.75-4.15,4.33,0.36,1.47,2.79,3.26,4.41,3.39C760.84,942.53,761.4,939.7,762.38,937.75Zm152-370.81c-4.49,2.88-5.23,6.76-5,11a2.2,2.2,0,0,0,1.68,1c3.5-2.24,4.18-5.79,4.14-9.6A12,12,0,0,0,914.42,566.94ZM738,965.22c-0.73-.77-1.47-2.25-2.31-2.3-3.16-.22-5.59,1.63-7.06,4.17-0.76,1.31,1.07,2.21,2.18,2.13A9.2,9.2,0,0,0,738,965.22ZM903.26,620.46L897.57,613c-0.18,4.19-3.46,6.58-1.19,9.06C898.48,624.38,900.87,622.06,903.26,620.46Zm-89,116.72c2.75-4.25,4.14-6.89.63-9.25-1.57-1.06-3.37-1.48-4.49.58C807.93,733.06,813.35,733.24,814.27,737.18Zm-43.48,69c-0.41,2.28-.64,3.22-0.73,4.16-0.31,3.25,1.29,5.78,3.34,8,0.95,1,1.92.12,2.39-.69,1.95-3.39-.92-5.55-2.25-8.07A30.82,30.82,0,0,0,770.79,806.18Zm33.27,14.52c-1.19,1.42-3.74,2.29-2.57,4.62,0.9,1.79,1.73,4.57,4.5,4,1.53-.32,3.2-1.95,2.24-3.92S806.73,821.17,804.06,820.7ZM592.37,832.65c-1,5-.72,8.33,2,11,0.21,0.21,2.5-.87,2.9-1.76C599.2,837.52,595.31,836,592.37,832.65ZM734.37,679c-0.68-3.68-.69-6.61-3.32-6.77-2.41-.15-2.63,2.51-2.74,4.53-0.13,2.48,1.08,3.69,3.57,3.66C733.92,680.35,734.42,679.22,734.37,679Z" transform="translate(-450.07 -39.25)"/><path d="M778.55,148.11c-7.14,5.47-2,7.13,1.38,9.66,2.77,2.05,8.73,2.79,6.85,7.34-1.66,4-6.6,1.63-10.11.79-6.88-1.65-13.46-2.71-20.48.53-5,2.33-7.64-.48-6.28-5.94a33.93,33.93,0,0,1,3.31-7.52c2.4-4.5,5.34-4.56,8.91-1,4.19,4.12,4,3.86,6.71-1.27C770.32,147.85,773.48,147.21,778.55,148.11Z" transform="translate(-450.07 -39.25)"/><path d="M703.45,1139.56c-0.08,2-12.91,14.24-14.9,14.16-2.62-.11-13.46-10.2-13.38-12.47,0.07-2.1,12.42-14.94,14.28-14.85C691.74,1126.52,703.52,1137.59,703.45,1139.56Zm-6.85.16c-0.74-3.68-3.67-6.41-6.43-6.49-4.48-.14-7.87,4-8.6,7.76-0.66,3.45,3.64,6.69,6.74,6.56C692.32,1147.38,694.56,1143.21,696.6,1139.72Z" transform="translate(-450.07 -39.25)"/><path d="M831,764.69c4.7,0.2,6.54,3,6.61,6.39,0.08,4.1-2.81,6.45-6.76,6.52-3.22.06-6.18-1.7-6.11-5.27A7.72,7.72,0,0,1,831,764.69Z" transform="translate(-450.07 -39.25)"/><path d="M621.94,876.34c-2-.95-4.22-1.7-3.9-4.07a4.63,4.63,0,0,1,4.07-3.83c2-.21,2.91,1.66,3.06,3.51C625.37,874.34,623.71,875.42,621.94,876.34Z" transform="translate(-450.07 -39.25)"/></svg>