<svg xmlns="http://www.w3.org/2000/svg" viewBox="0 0 60 75" x="0px" y="0px" fill="#C8102E"><path d="M11.5,22.74a5.2,5.2,0,0,1,.83,2.813,6.282,6.282,0,0,1-.079.878,4.267,4.267,0,0,0-.06.6,3.261,3.261,0,0,0,1.387,2.657,5.234,5.234,0,0,1,2.113,3.155,3.253,3.253,0,0,0,2.457,2.466,5.234,5.234,0,0,1,3.164,2.114,3.261,3.261,0,0,0,3.231,1.329,5.067,5.067,0,0,1,.9-.08,5.239,5.239,0,0,1,2.8.817,3.258,3.258,0,0,0,3.491.011,5.452,5.452,0,0,1,3.69-.751,4.266,4.266,0,0,0,.6.06,3.261,3.261,0,0,0,2.657-1.387,5.234,5.234,0,0,1,3.155-2.113,3.253,3.253,0,0,0,2.466-2.457,5.234,5.234,0,0,1,2.114-3.164,3.281,3.281,0,0,0,1.329-3.232,5.2,5.2,0,0,1,.737-3.7l0,0A3.257,3.257,0,0,0,48.5,19.26a5.2,5.2,0,0,1-.83-2.813,6.3,6.3,0,0,1,.079-.878,4.267,4.267,0,0,0,.06-.6,3.261,3.261,0,0,0-1.387-2.657A5.234,5.234,0,0,1,44.306,9.16a3.253,3.253,0,0,0-2.457-2.466A5.234,5.234,0,0,1,38.685,4.58a3.262,3.262,0,0,0-3.231-1.329,5.208,5.208,0,0,1-3.7-.737A3.258,3.258,0,0,0,28.26,2.5a5.417,5.417,0,0,1-3.691.751,4.267,4.267,0,0,0-.6-.06,3.261,3.261,0,0,0-2.657,1.387A5.234,5.234,0,0,1,18.16,6.694a3.253,3.253,0,0,0-2.466,2.457,5.234,5.234,0,0,1-2.114,3.164,3.263,3.263,0,0,0-1.386,2.657,3.658,3.658,0,0,0,.057.572,5.208,5.208,0,0,1-.737,3.7A3.258,3.258,0,0,0,11.5,22.74ZM30,6A15,15,0,1,1,15,21,15.017,15.017,0,0,1,30,6Z"/><circle cx="30" cy="21" r="13"/><path d="M36.028,40.806a6.436,6.436,0,0,1-.877-.078,3.871,3.871,0,0,0-.505-.034,42.143,42.143,0,0,1-3.46,7.041,33.956,33.956,0,0,0,10.15,10.191.389.389,0,0,0,.469-.007.384.384,0,0,0,.14-.442,14.321,14.321,0,0,1-.506-3.717,1,1,0,0,1,1-1,25.917,25.917,0,0,0,3.221-.281.386.386,0,0,0,.33-.309.362.362,0,0,0-.163-.407c-3.332-2.226-7.632-5.9-9.676-10.965C36.109,40.8,36.069,40.806,36.028,40.806Z"/><path d="M27.176,41.174a3.231,3.231,0,0,0-2.295-.453,5.723,5.723,0,0,1-.909.085c-.041,0-.081-.007-.122-.008-2.044,5.063-6.343,8.739-9.673,10.964a.362.362,0,0,0-.166.408.386.386,0,0,0,.332.309,25.874,25.874,0,0,0,3.219.281,1,1,0,0,1,1,1,14.3,14.3,0,0,1-.5,3.709.4.4,0,0,0,.607.457,34.113,34.113,0,0,0,10.491-10.7,40.267,40.267,0,0,0,2.994-5.684,5.271,5.271,0,0,1-4.973-.367Z"/></svg>