<svg id="Layer_1" data-name="Layer 1" xmlns="http://www.w3.org/2000/svg" viewBox="0 0 470.17 1292.58" fill="#C8102E"><title>2</title><path d="M704.18,73.52c125.16-.26,218.08,72.78,242.61,177,7.35,31.24,7.58,62.77,2,94.38-0.85,4.76-2.27,7.87-7.75,8.61-10,1.35-16,8.68-21.62,16.2a105.33,105.33,0,0,0-18.88,42.79c-7.48,38.33-31.52,62.77-63.87,81.6-86.9,50.59-197.22,38.62-270.84-29.91a40.24,40.24,0,0,1-10-14.44c-6.48-15.72-11.35-32-16.44-48.14a110.75,110.75,0,0,0-19.63-36.49c-5.17-6.41-11.44-11.34-19.78-12.42-4.33-.56-5.26-2.75-5.93-6.48-13-72.09,3.38-136.52,50.93-192.39C591.22,99.49,651.52,75.16,704.18,73.52ZM709.85,191c-9.22,3.66-9.49,14.19-16.34,19.24C672.15,226,674.93,248.88,675,271c0,2.32,1.75,4.78,3.1,6.93a104.83,104.83,0,0,0,7.5,10.77c11.83,14.48,17.32,19,34.34,15,9.24-2.18,19.57-10.16,29,.46a2.37,2.37,0,0,0,1.51.15c5.46-.25,6.25,3.4,4.94,7.14-2.82,8.05.11,14.26,4.42,20.85,7.07,10.81,9.61,22.67,5.09,35.31-2.84,7.95-2.15,15.55,1.24,23.25,5.3,12,6.73,25.2,10.76,37.66,3.13,9.68,5.41,12.33,15.58,10.14,15.5-3.34,26.1-12.66,33.42-26.3,1-1.77,1.31-4,3.35-5.05,5.41-2.84,6.43-7.83,5.94-13.19-0.46-5,1.38-8.75,5.76-10.76,11-5.06,13.8-19.36,10.84-28.69-3.37-10.62-1.24-19.8,5-28.39a172.72,172.72,0,0,1,11.53-14.51c8.67-9.6,12-21.4,14.36-33.62,1.13-5.93-1.55-8.14-7.48-6.48-3.59,1-7.08,2.76-12.95,2.31,9.52-4.11,17.15-7.74,23.64-13.35,8.86-7.66,10.84-17.25,5.37-27.27,8.05-.74,7.7,0,12.76,4.53,8.6,7.72,10.56,18.28,14.47,28.21s2.56,22.78,14.41,29c1.62,0.84.37,5.48,4,4.13,2.67-1,1.73-4,1.73-6.2a37.4,37.4,0,0,0-.69-9.21c-2.39-9.26-2.57-18.24,1.62-27.1,2.26-4.78,1.2-9.33-1.67-14.27-5.4,13.5-7.43,26.92-6.89,41.94-3.89-3.73-3.71-7.37-5.09-10.31-6.24-13.37-4.12-30.6-19.3-40-3.91-2.42-7.16-5.13-11.93-6.2-8.65-1.95-17.14-4.86-24.47-10.13-3.65-2.62-6.75-10.17-11-6.37-3.54,3.17,2.53,8.5,5.45,12,4,4.75,6.25,13.88,15.91,8.19,0.57-.34,2.23.86,3.2,1.59,6.54,4.93,7.48,12.42,1.9,19.57C880,260.07,871.79,264,863.21,267c-2.11.74-4.52,1.25-5.28-2.34C854.42,248,843,235.57,834,221.91c-2.3-3.49-5.64-8.89-10-6.14-4.88,3.06-.34,8,1.64,11.42,8.87,15.23,15.06,31.9,27.5,45.27,5.32,5.72,9.21,8.81,16.69,6.78,7.25-2,8-1.08,5.95,6.27-2.69,9.5-6.69,18.16-13.65,25.57-12.23,13-20.71,27.32-15.32,46.68,2.44,8.75-.77,16.73-9.37,21.75C832.8,382.21,829.36,386,830,392c0.58,5.29-.37,9.72-5.93,12-1.85.77-2,2.91-2.62,4.55-4.37,11.22-12.18,18.88-23.64,22.64-12.51,4.1-12.52,4-16-8.48a27.39,27.39,0,0,0-1.44-3.58c-5.4-12.26-6.18-25.92-11.68-38.2-1.68-3.74-.53-8.25,1.1-12.1,5.57-13.11,2.46-25.63-4.12-36.9-4.33-7.42-6.37-14.14-4.47-22.47,1.37-6-.81-10.19-7.84-10.23a7.08,7.08,0,0,1-6.07-2.88c-3.36-4.88-7.81-4.12-12.42-2.64-3.18,1-6.23,2.74-9.48,3.22-10,1.47-20.74,6.68-29.23-3.84C686.26,280.88,673.6,269.58,681,251a8.66,8.66,0,0,0,.37-4.59c-2.7-14.15,5.43-23.26,14.81-31.66a26.25,26.25,0,0,0,6.94-9.09c2.33-5.33,5.91-11.24,11.06-12.25,11.32-2.22,22.39-6.2,34-6.48,4.26-.1,9.31-0.23,8.21,6.81-0.45,2.87,1.25,4.9,3.74,6.18q10,5.1,20,10.13c3.28,1.65,6.36,1.6,7.29-2.5,1.16-5.11,4.29-4.07,7.59-3.11,7.23,2.11,14.53,3.28,22.1,2.29,8.63-1.13,6.59-7.83,6.78-13.13,0.21-5.74-4-6.29-8-5.15-9.12,2.6-14.31-1.75-17.81-9.29-1-2.06-1.69-3.76-4.26-3.48-2.35.25-2.62,2.2-3,4-1.38,7-4.49,5.19-6.86,1-4.74-8.47-12.86-13.11-20-18.89-1.52-1.23-3.41-2.21-4.78-.67s0.17,3.24,1.33,4.63c3.11,3.77,8.21,5.58,11.36,11.08-6.28-1.06-9.45-5.06-13.37-7.66-3.65-2.42-6.69-4.34-11.86-3.61-9.9,1.38-16,7.57-20.22,15.06-3.93,6.93-8,6.78-14.47,4.87-7.56-2.24-6.57-7-5.54-12.6,0.83-4.49,2.83-5.77,7.43-5.38,12.48,1.05,13.87-.73,10.53-12.17-0.43-1.47-.7-2.25.94-2.88,10.84-4.15,19.55-13.21,32.64-12.47,7.16,0.41,15.89.67,18.21-9.64,0.49-2.17,2.69-2,4.44-2.38s4.91-.26,4.4-2.9c-0.48-2.45-3.34-1.57-5.36-1.45-4.67.29-9.12,0.2-8.92-6.37,0-1.63,1.44-3.7-1.16-4.6-2.28-.79-3.91.4-5.44,2a13.66,13.66,0,0,0-3.76,12,6,6,0,0,1-3.56,6.32c-2.24.82-3.07-2.13-4-3.85-1.43-2.68-3.6-3.46-6.44-3-2,.28-3.67-0.27-4.46-2.21-1-2.34.46-3.88,2.12-5.27,2.56-2.15,5.61-4,7.54-6.6,6.3-8.57,14.38-10,23.94-7,3.85,1.21,7.74,2.3,12.27,3.64-4,2.37-4.54,4.3.05,5.89,2.83,1,5.83,1.79,8.08-.26,5.77-5.27,12.78-6.17,20-6.71,1.95-.15,4.54.09,4.85-2.67,0.29-2.52-2.11-3.47-3.87-4.28-4.43-2-9-3.74-13.54-5.54-1.63-.65-3.45-2-5-0.61s-0.23,3.26.38,4.89c2.44,6.53-1.39,7.25-6.19,6.2-5.51-1.2-10.92-2.89-16.34-4.51-11.06-3.31-20.87-2.14-28.55,7.47a30.18,30.18,0,0,1-4.4,4.33c-10.15,8.37-9.81,12.95,1.54,19-1.39,4.29-5,8-8.56,7.94-4.1,0-5.46-5.39-7.24-9a7.92,7.92,0,0,1-.74-2.19c-0.43-2.69-1.18-5.09-4.46-5.4s-6.88.14-8.16,3.12c-1.78,4.16-4.92,5.82-8.53,7.76a8.2,8.2,0,0,0-4.2,9.22c0.79,4,4.07,3.36,6.8,3.28,3-.09,5.09.94,5.41,4.1,0.19,1.84.23,3.58,2,4.74,2.09,1.4,5.37,2.84,4,5.65-1.45,3-5.07,1.23-7.74,1.2-3.86,0-7.84-.8-10.37,3.26C697.69,173.93,700.24,185,709.85,191ZM510.36,282.4c-3.92-3.82-3.4-10-8.3-12.83-1.29-.75-2.66-2.22-4-1s-0.64,3.16.63,4.05c3.68,2.6,4.52,6.74,6.07,10.48,1.63,3.93,3.86,7.57,7.72,9.3,7.36,3.31,5.85,9,3.81,14.2-8,20.44-2.16,50.16,14.76,64.21,9.26,7.69,13.43,16.73,16.29,27.73,5.9,22.69,12.78,45.13,27.75,63.92a65,65,0,0,0,32.74,22.05c2,0.61,4.36,1,5.37-1.43,0.87-2.1-.9-3.56-2.57-4.1-10.57-3.43-10.22-15.29-16.82-21.89-2-2-2.19-7.18.48-10.13,8.58-9.48,9.53-21.8,11.75-33.28,1-5.38,2.37-8.49,7.1-10.24A13.23,13.23,0,0,0,622,392.72c2.49-14.53,3.47-29.17,11.93-42.37,4.47-7,.64-12.39-6.33-17.26-6.72-4.69-14-7-21.75-9.12s-15.36-5.84-17.2-15.48c-1-5.43-4.34-9.37-9.91-10.73-7.79-1.9-13-6.84-17-13.48-3-5.07-6.32-9.5-13.5-6.88-1.91.7-4.06-.9-5.38-2.49-3.68-4.42-7.61-3-11.73-.9-3.08,1.55-5.19,4.13-7.6,6.44-3.24,3.11-8.77,1.75-8.8-2.32-0.05-7.36,4.33-14.81-3.54-21.66-1.49-1.3,2.08-11.51,5.8-14.75,3-2.63,6.86,3.67,10.28,6.14,1.56,1.13,2.07,1.73.76,3.5-1.81,2.43.38,3.26,2.14,3.47,4,0.48,8,2.16,12.16.62,2.46-.9,6.48-0.11,5.9-4.37-0.54-4-4.29-5-7.62-5.13-1.85-.1-3.78,1.26-5.86,2,0-5.33-3.58-8-7.43-10.86-5.35-3.92-8.9-2-12.36,2.54-0.58.76-2.4,0.85-3.62,0.8-9-.35-9,6-10.19,13.64l7-4.95c-0.13,1.63,0,2.72-.33,3.61-1.83,4.57-6,9.46,2.75,11.75,1.92,0.5,1.36,3,.91,4.8A47.49,47.49,0,0,0,510.36,282.4Zm0.26-58.58c7.52-5.52,10.44-2.62,11.17,4.35,0.2,1.93.7,3.54,3.12,3.57a4.33,4.33,0,0,0,4.31-2.69,68.11,68.11,0,0,0,3.26-8.65c1.76-6.25,3.52-12.5,9.14-16.53,4.5-3.23,7.19-8,10.8-11.92,7.46-8.13,15.15-15.87,26.62-19.22,6.52-1.9,14.87-3.25,18.18-10.35,2-4.39,3-5.5,7.54-3.33,4.13,2,10.36,3.6,12.07-1.95,2.11-6.83,3.65-14.62,1.93-21.72-2.44-10.1-2.65-11.63,6.29-17.3,6.14-3.9,10.2-8.58,8.47-16.46-0.38-1.75,0-4-2.82-3.27-2.15.59-5.78,2.17-4.62,4.09,5.61,9.21-4.47,10.11-7.35,14.65a3.56,3.56,0,0,1-6,.08c-1.69-2.22,1-2.9,2.12-4.09,1.31-1.41,4-2.58,2.1-4.91-1.64-2-3.72-.32-5.57.47-10.47,4.48-19.86,10.78-29.3,17.06-8.56,5.68-16,11.53-10.86,24.55,5-8,14.12-11.37,19.5-19,2.54-3.62,5.85-7.94,10.25-7.23,4.14,0.67,8.78,5.84,10.1,8.19,5.24,9.33,3.47,11.08-7.67,14.67a51.57,51.57,0,0,1-10.6,1.77c-7,.76-8.55,3.1-5.34,9.19,2.61,4.93,1,7.2-3.87,8.05-4.31.76-8.82,1.12-12.37,3.85-18.16,13.93-36,28.17-44.29,50.91-2.39-2.24-.55-8.66-6.51-7.61C515.25,213.93,512,217.13,510.62,223.82ZM637.32,96.3c7.91,2.31,5.15,5.9,1.38,9.59a19.76,19.76,0,0,0-5.13,8.48c-1.09,3.61-1.17,7.22,2.29,9.77s7,2.42,9.92-.3c11.75-11,27.21-13.82,41.5-19.2,3.13-1.18,6.19-2.17,8.69-4.67,6-6,10.28-13.72,19.58-19.46-6.94-.1-13.12-3.3-14.82,3.79-2.24,9.32-9.91,13-16.61,16.13-13.31,6.19-28.37,8.61-39.7,19.08-1.17,1.08-2.72,2.58-4.76,1.1s-1.9-3.65-1.31-5.59c1.32-4.35,4.82-7.18,7.75-10.4,2.56-2.81,6.52-6,3.91-9.86-3.05-4.56-7.35-.82-11,0.35A8.34,8.34,0,0,0,637.32,96.3ZM879.87,367.23c-0.41-5.17.68-9.19-3.51-10.55s-5.77,2.38-7.83,4.9c-1.62,2-2.78,4.65-4.82,6-12,7.66-10.72,20.77-13.41,32.16a7.66,7.66,0,0,0,4.45,9c3.91,1.66,7.42-.56,9.37-3.58C872,393,876.92,379.52,879.87,367.23ZM697.1,117a16.8,16.8,0,0,0,10.14-2.74c1.82-1.15,3.26-2.69,2.67-4.95s-2.79-2.28-4.44-2.26c-4.82.05-9.63,0.38-14.44,0.8a3.69,3.69,0,0,0-3.21,2.89c-0.51,2,.39,3.43,2,4.57C692,116.85,694.52,117.09,697.1,117Z" transform="translate(-486.38 -73.52)"/><path d="M711.6,833.72c-14.15,36-29.56,71.39-52.46,101.61-19-81.65-40.75-162.79-53.58-245.88-6.17-40-24.63-75.38-47.57-107.92-24.76-35.12-37.41-74.08-43.62-115.85-1.36-9.15-3.47-18.19-5.12-27.3-1.4-7.72-6.06-13.47-11-19.14-11.63-13.35-14.15-28.85-10-45.59,2.83-11.47,9.67-13.58,18.34-5.65,11.73,10.74,18.65,24.46,23.14,39.51,24.38,81.75,70.53,150,130.45,209.57,5.47,5.44,11.3,10.58,18.06,14.47,4.51,2.59,9.39,4.32,13.37-.21s3.48-9.92.08-14.93c-2.74-4-5.84-7.91-8.14-12.19-9.27-17.28-5.61-39.61,8.51-53.43a42.51,42.51,0,0,1,49.37-6.86c21.73,11.56,29.4,41.11,16.31,63.08-2.24,3.76-5,7.23-7,11.09-2.59,4.94-2.81,10.26,1.49,14.24,4.06,3.76,8.76,1.94,12.81-.68,10.25-6.63,18.73-15.33,27.2-24,46.83-47.92,82.52-103.25,109.22-164.55,4.54-10.42,7.71-21.27,10.63-32.21,3.69-13.86,9.72-26.57,18.91-37.65a41.72,41.72,0,0,1,6.52-6.56c7.77-6,13.72-4.35,16.28,5,3.85,14.13,4.87,29.34-4.91,40.7-13.7,15.91-17.75,34.37-20.33,53.88-5.8,44-21.17,83.95-47.07,120.23-28.23,39.57-43,84.37-49.71,132.43C824.28,772.53,811.28,825,797,877.19c-9.49,34.61-14.66,69.46-7.6,105.33,6.5,33,20.22,63.1,35.81,92.54,9.63,18.18,20.62,35.69,27.4,55.29,3.55,10.25,3.57,10.36-6.85,12.79-35.08,8.18-70.8,10.33-106.65,10.8-44.89.6-89.67-.48-133.93-9.2-19.23-3.79-19.33-3.69-12-21.72,8-19.61,18.74-37.81,28.59-56.47,14.5-27.46,26.23-55.9,32.3-86.47,1.69-8.53,6-15.81,10.29-23.15C686.83,918.47,703.11,877.61,711.6,833.72Zm-54,272.11c55.45-28.57,93-71.79,108.19-133.13C739.14,1024.77,700.39,1066.93,657.59,1105.82Zm-15.78-15.74c48.21-41.64,85.37-90.61,100.77-153.82-13.86,27.2-29.71,53.21-46.57,78.65C678.92,1040.68,660.57,1065.49,641.81,1090.08Z" transform="translate(-486.38 -73.52)"/><path d="M724.13,1366c-52.64.43-105.1-2.23-157.26-9.42-18.34-2.53-36.65-5.57-54.09-12.17-11.32-4.29-13.24-8-11.46-20.09,2.3-15.65,5.86-30.49,21.39-38.91,3.78-2,7.08-3.09,11.55-1.59,28.78,9.68,58.75,12.87,88.78,15.5a1173.23,1173.23,0,0,0,148.34,3.06c40.68-1.6,81.28-4.37,121.11-13.7,3.5-.82,7-1.86,10.39-2.93,13.38-4.18,25,.33,31.84,13,5.88,10.94,7.38,22.95,7,35.2-0.18,6.42-5.28,8.46-10.15,10.21-17.52,6.29-35.74,9.79-54.08,12.42C826.66,1363.88,775.48,1366.46,724.13,1366ZM575.61,1314c97.35,18.71,194.59,19.75,291.78.13C770.11,1321.68,672.82,1321.22,575.61,1314Z" transform="translate(-486.38 -73.52)"/><path d="M737.25,1287.36c-53.87.6-104.3-1.58-154.47-8.17a302.87,302.87,0,0,1-40.78-8.35c-4.2-1.15-6-2.5-4-7.37,6-14.51,11.44-29.22,17.07-43.87,1.18-3.06,2-5.2,6.53-3.81,34.73,10.73,70.67,13.46,106.68,15.63a935.18,935.18,0,0,0,135.19-1.75c25.41-2.15,50.66-5.73,75.26-12.69,5.65-1.6,8.29-.94,10.32,4.84q7.14,20.39,15.4,40.38c2.36,5.69.6,7.52-4.75,9-26.48,7.16-53.59,10.22-80.78,12.56C790.65,1286.16,762.33,1287.59,737.25,1287.36Z" transform="translate(-486.38 -73.52)"/><path d="M721.62,1217.5c-47.89-1-95.75-2.36-142.87-12.41-17.51-3.74-17.55-3.74-11.16-20.3,3.61-9.35,7.39-18.64,11.07-28,1.13-2.87,2.15-4.58,6.16-3.38,48.53,14.46,98.48,15.13,148.48,14.68,36.33-.33,72.59-2.14,108.32-9.52a91.24,91.24,0,0,0,14.85-4.06c5.17-2,7.28-.25,9,4.54,4.11,11.64,8.26,23.29,13.15,34.6,2.68,6.21.49,7.85-5.08,9.28-23.27,6-47,9.17-70.83,11.12C775.73,1216.29,748.71,1217.71,721.62,1217.5Z" transform="translate(-486.38 -73.52)"/><path d="M807.16,202.38c-4.47-1.07-10.27-2.21-15.9-3.9a8.07,8.07,0,0,0-7.24,1c-1.9,1.2-1.63,6-5.3,3.92-5-2.89-11.29-4.09-14.65-9.44-0.81-1.3-.76-4.93,1.07-4.18,7.09,2.92,5.7-16.18,15.06-5.49,1.86,2.13,3.71,4.26,5.64,6.32,3.31,3.54,6.67,4.62,11.62,2.25,6.11-2.92,12.12,2,18.47,1.86,2.4-.06,1.52,3.28.29,5C814.32,202.42,811.31,202.16,807.16,202.38Z" transform="translate(-486.38 -73.52)"/><path d="M767.27,182.87H731.94C741.24,166.93,752.64,166.46,767.27,182.87Z" transform="translate(-486.38 -73.52)"/><path d="M729.74,142.39c0.5,2.46-1.1,3.19-2.54,3.26-2.54.12-5.92,0-6-3.2a57.49,57.49,0,0,0-1.76-11.1c-0.14-.62.94-1.7,1.69-2.23a2.11,2.11,0,0,1,1.84.81A46.41,46.41,0,0,0,729.74,142.39Z" transform="translate(-486.38 -73.52)"/><path d="M838.5,239.32c3.52,5.75,8.79,10.56,11.27,19.14C843.08,252.41,840.37,246.14,838.5,239.32Z" transform="translate(-486.38 -73.52)"/><path d="M588.93,430.17c0,2.23,1.32,3.53,2.66,4.72,3.37,3,2.59,5.68-1.2,6.85-4.23,1.3-4.73,2.91-3.69,7.21,1.47,6.11.53,12.78,7.51,16.56,2,1.06,1,4.25.07,7.17-6.21-2.9-10.73-7.35-14.89-12.57-15-18.83-21.75-41.24-27.62-63.9-3-11.53-7.83-20.55-16.92-29.07-9.41-8.82-14.55-21.59-17.25-35.1a34,34,0,0,1,3.91-24.87c1.48-2.65.89-6.55,0.92-9.88,0-5.62,1.5-10.72,5.36-14.84,1.34-1.42,3.5-6.87,5.13,0,0.28,1.2.79,1.48,2.12,0.84a19.9,19.9,0,0,1,24.37,6.21c4,5.46,8.19,10.27,15.13,12.47,9.85,3.12,12.21,11.05,7,19.87-1.32,2.23-5.64,4.76-2,7.62,3,2.33,6.55.42,8.68-2.51,2.38-3.29,5.25-3.39,8-1.25a22.7,22.7,0,0,0,12.9,4.49c7.92,0.51,12.54,6.68,18.91,9.75,3.43,1.66,3.19,6.27,1.08,9-9.25,11.83-9.91,25.9-11.41,39.87-0.5,4.62-3.26,7.89-7.73,9.79-6.19,2.63-10,6.59-8.86,14.27,0.84,5.43-2.47,10.39-3.78,15.58C596.06,433.39,592,428.92,588.93,430.17Z" transform="translate(-486.38 -73.52)"/><path d="M875,364.74c-2.52,13.45-8.16,25.09-14.23,36.55a3,3,0,0,1-3.89,1.7c-2.07-.88-2-2.89-1.72-4.67C857.49,385,861.38,372.48,875,364.74Z" transform="translate(-486.38 -73.52)"/></svg>