<svg xmlns="http://www.w3.org/2000/svg" fill="#c8102e" viewBox="-3 -0.8 66 61.6"><path d="M11.5 22.74a5.2 5.2 0 0 1 .83 2.813 6 6 0 0 1-.079.878 4 4 0 0 0-.06.6 3.26 3.26 0 0 0 1.387 2.657 5.23 5.23 0 0 1 2.113 3.155 3.25 3.25 0 0 0 2.457 2.466 5.23 5.23 0 0 1 3.164 2.114 3.26 3.26 0 0 0 3.231 1.329 5 5 0 0 1 .9-.08 5.24 5.24 0 0 1 2.8.817 3.26 3.26 0 0 0 3.491.011 5.45 5.45 0 0 1 3.69-.751 4 4 0 0 0 .6.06 3.26 3.26 0 0 0 2.657-1.387 5.23 5.23 0 0 1 3.155-2.113 3.25 3.25 0 0 0 2.466-2.457 5.23 5.23 0 0 1 2.114-3.164 3.28 3.28 0 0 0 1.329-3.232 5.2 5.2 0 0 1 .737-3.7 3.26 3.26 0 0 0 .018-3.496 5.2 5.2 0 0 1-.83-2.813 6 6 0 0 1 .079-.878 4 4 0 0 0 .06-.6 3.26 3.26 0 0 0-1.387-2.657 5.23 5.23 0 0 1-2.116-3.152 3.25 3.25 0 0 0-2.457-2.466 5.23 5.23 0 0 1-3.164-2.114 3.26 3.26 0 0 0-3.231-1.329 5.2 5.2 0 0 1-3.7-.737A3.26 3.26 0 0 0 28.26 2.5a5.42 5.42 0 0 1-3.691.751 4 4 0 0 0-.6-.06 3.26 3.26 0 0 0-2.657 1.387 5.23 5.23 0 0 1-3.152 2.116 3.25 3.25 0 0 0-2.466 2.457 5.23 5.23 0 0 1-2.114 3.164 3.26 3.26 0 0 0-1.386 2.657 4 4 0 0 0 .057.572 5.2 5.2 0 0 1-.737 3.7 3.26 3.26 0 0 0-.014 3.496M30 6a15 15 0 1 1-15 15A15.017 15.017 0 0 1 30 6"/><circle cx="30" cy="21" r="13"/><path d="M36.028 40.806a6.4 6.4 0 0 1-.877-.078 4 4 0 0 0-.505-.034 42 42 0 0 1-3.46 7.041 33.96 33.96 0 0 0 10.15 10.191.39.39 0 0 0 .469-.007.384.384 0 0 0 .14-.442 14.3 14.3 0 0 1-.506-3.717 1 1 0 0 1 1-1 26 26 0 0 0 3.221-.281.39.39 0 0 0 .33-.309.36.36 0 0 0-.163-.407c-3.332-2.226-7.632-5.9-9.676-10.965-.042.002-.082.008-.123.008M27.176 41.174a3.23 3.23 0 0 0-2.295-.453 6 6 0 0 1-.909.085c-.041 0-.081-.007-.122-.008-2.044 5.063-6.343 8.739-9.673 10.964a.36.36 0 0 0-.166.408.39.39 0 0 0 .332.309 26 26 0 0 0 3.219.281 1 1 0 0 1 1 1 14.3 14.3 0 0 1-.5 3.709.4.4 0 0 0 .607.457 34.1 34.1 0 0 0 10.491-10.7 40 40 0 0 0 2.994-5.684 5.27 5.27 0 0 1-4.973-.367Z"/></svg>