<svg xmlns="http://www.w3.org/2000/svg" xmlns:xlink="http://www.w3.org/1999/xlink" version="1.1" x="0px" y="0px" viewBox="0 0 24 30" enable-background="new 0 0 24 24" xml:space="preserve"><g><polygon fill="none" stroke="#C8102E" stroke-width="1.3" stroke-linecap="round" stroke-linejoin="round" stroke-miterlimit="10" points="   12,0.69 13.693,1.579 15.605,1.579 16.691,3.153 18.384,4.041 18.615,5.939 19.701,7.513 19.023,9.301 19.253,11.199    17.822,12.467 17.144,14.254 15.288,14.712 13.856,15.98 12,15.522 10.144,15.98 8.712,14.712 6.856,14.254 6.178,12.467    4.747,11.199 4.977,9.301 4.299,7.513 5.385,5.939 5.616,4.041 7.309,3.153 8.395,1.579 10.307,1.579  "/><polyline fill="none" stroke="#C8102E" stroke-width="1.3" stroke-linecap="round" stroke-linejoin="round" stroke-miterlimit="10" points="   15.288,14.712 15.288,23.31 12,20.994 8.712,23.31 8.712,14.712  "/></g></svg>