<svg xmlns="http://www.w3.org/2000/svg" version="1.1" viewBox="-5.0 -10.0 110.0 135.0" fill="#C8102E">
 <g>
  <path d="m64.062 76.562h-28.125c-0.9375 0-1.5625 0.625-1.5625 1.5625v14.062h31.25v-14.062c0-0.9375-0.625-1.5625-1.5625-1.5625z"/>
  <path d="m60.938 59.375v-2.1875c-3.4375 1.4062-7.0312 2.1875-10.938 2.1875s-7.5-0.78125-10.938-2.1875v2.1875c0 0.9375 0.625 1.5625 1.5625 1.5625h18.75c0.9375 0 1.5625-0.625 1.5625-1.5625z"/>
  <path d="m20.312 14.062h-12.5v12.188c0 2.9688 0.78125 5.9375 2.5 8.4375 2.8125 4.5312 7.6562 7.1875 12.812 7.5-1.7188-3.75-2.8125-7.9688-2.8125-12.5z"/>
  <path d="m42.656 73.438h14.688l-2.3438-9.375h-10z"/>
  <path d="m79.688 14.062v15.625c0 4.375-0.9375 8.5938-2.8125 12.5 5.3125-0.15625 10-2.9688 12.812-7.5 1.5625-2.5 2.5-5.4688 2.5-8.4375v-12.188z"/>
  <path d="m23.438 29.688c0 14.688 11.875 26.562 26.562 26.562s26.562-11.875 26.562-26.562v-21.875h-53.125zm10.938-3.5938c0.15625-0.625 0.78125-1.0938 1.5625-1.0938h9.6875l2.8125-9.8438c0.3125-0.625 0.9375-1.0938 1.5625-1.0938s1.25 0.46875 1.5625 1.0938l2.8125 9.8438h9.6875c0.625 0 1.25 0.46875 1.5625 1.0938s0 1.4062-0.625 1.7188l-7.6562 5.3125 3.125 9.375c0.15625 0.625 0 1.4062-0.625 1.7188-0.3125 0.15625-0.625 0.3125-0.9375 0.3125s-0.625-0.15625-0.9375-0.3125l-7.9688-5.625-7.9688 5.7812c-0.625 0.46875-1.25 0.46875-1.875 0s-0.78125-1.0938-0.625-1.7188l3.125-9.375-7.6562-5.3125c-0.46875-0.46875-0.78125-1.25-0.625-1.875z"/>
 </g>
</svg>