<svg xmlns="http://www.w3.org/2000/svg" fill="#c8102e" viewBox="-10.5 3.8 121 92.4"><path d="M64.062 76.562H35.937c-.937 0-1.562.625-1.562 1.563v14.061h31.25V78.125c0-.937-.626-1.562-1.563-1.562M60.938 59.375v-2.187c-3.437 1.406-7.031 2.187-10.938 2.187s-7.5-.781-10.938-2.187v2.187c0 .938.625 1.563 1.563 1.563h18.75c.937 0 1.562-.626 1.562-1.563zM20.312 14.062h-12.5V26.25c0 2.969.781 5.938 2.5 8.438 2.813 4.53 7.656 7.187 12.812 7.5-1.719-3.75-2.812-7.97-2.812-12.5zM42.656 73.438h14.688L55 64.063H45zM79.688 14.062v15.625c0 4.375-.937 8.594-2.812 12.5 5.312-.156 10-2.969 12.811-7.5 1.563-2.5 2.5-5.469 2.5-8.437V14.06zM23.438 29.688C23.438 44.376 35.313 56.25 50 56.25s26.562-11.875 26.562-26.562V7.813H23.437zm10.938-3.594c.156-.625.781-1.094 1.563-1.094h9.687l2.813-9.843c.312-.625.937-1.094 1.562-1.094s1.25.469 1.563 1.094L54.375 25h9.688c.625 0 1.25.47 1.562 1.094s0 1.406-.625 1.719l-7.656 5.313L60.47 42.5c.156.625 0 1.406-.625 1.718-.313.157-.625.313-.938.313s-.625-.156-.937-.313L50 38.594l-7.969 5.782q-.937.702-1.875 0c-.938-.702-.781-1.094-.625-1.72l3.125-9.374-7.656-5.313c-.469-.469-.781-1.25-.625-1.875"/></svg>