<svg xmlns="http://www.w3.org/2000/svg" fill="#c8102e" viewBox="19 10.4 62 79.2"><path d="M47.938 53.5a18 18 0 0 0 4.117 0 19.615 19.615 0 0 0 17.633-19.57c0-10.852-8.836-19.688-19.695-19.688-10.852 0-19.688 8.828-19.688 19.688.008 10.125 7.578 18.539 17.633 19.57zm2.063-36.539c9.359 0 16.969 7.61 16.969 16.969S59.352 50.899 50 50.899c-9.359 0-16.968-7.61-16.968-16.969S40.64 16.961 50 16.961"/><path d="m50 42.391-6.14 4.46a2.9 2.9 0 0 1-1.336.532c2.218 1.235 4.765 1.953 7.484 1.953s5.273-.718 7.5-1.96a2.83 2.83 0 0 1-1.36-.524zM39.359 43.586l2.344-7.219-6.14-4.46c-.29-.212-.524-.462-.712-.743-.164.899-.265 1.82-.265 2.766 0 4.312 1.789 8.219 4.656 11.016a3 3 0 0 1 .117-1.36zM49.992 55.172c-.445 0-.898-.023-1.36-.055v1.258c0 4.008-3.062 7.32-6.968 7.711v2.898H58.32v-2.898c-3.906-.39-6.969-3.703-6.969-7.71v-1.259c-.453.04-.906.055-1.36.055zM44.875 26.617l2.344-7.219c.078-.242.187-.453.32-.664-4.851.781-8.953 3.828-11.172 8.024q.437-.141.906-.141z"/><path d="M43.086 35.438c.273.195.39.555.281.875l-2.523 7.758c-.18.562.015 1.172.492 1.523a1.34 1.34 0 0 0 1.594 0l6.601-4.797a.8.8 0 0 1 .922 0l6.602 4.797a1.37 1.37 0 0 0 1.594 0c.476-.351.68-.96.492-1.523l-2.523-7.758a.79.79 0 0 1 .28-.875l6.602-4.797c.477-.344.68-.96.493-1.523a1.35 1.35 0 0 0-1.297-.938h-8.141a.78.78 0 0 1-.742-.539l-2.524-7.758A1.35 1.35 0 0 0 50 18.946c-.593 0-1.109.375-1.289.937l-2.523 7.758a.78.78 0 0 1-.742.54h-8.164c-.594 0-1.11.374-1.29.937-.18.562.016 1.172.493 1.523zM40.875 68.555h-1.164v2.86h20.578v-2.86H40.874z"/><path d="M60.641 43.586c.148.453.18.914.11 1.36a15.36 15.36 0 0 0 4.656-11.017c0-.945-.102-1.867-.266-2.765-.188.281-.422.539-.711.742l-6.14 4.46zM38.93 72.969h-3.914v12.789h29.96V72.969zm20.461 9.29c0 .429-.352.78-.781.78H41.39a.784.784 0 0 1-.78-.78v-5.782c0-.43.351-.781.78-.781h17.22c.43 0 .781.351.781.78zM55.125 26.617h7.594c.312 0 .625.047.906.14-2.219-4.195-6.312-7.242-11.172-8.023q.201.303.32.664z"/><path d="M42.172 77.25h15.656v4.219H42.172z"/></svg>