<svg xmlns="http://www.w3.org/2000/svg" width="100" height="58" version="1.2" viewBox="0 0 367 210"><path fill-rule="evenodd" d="M186 .6c3 .3 7.3 1 9.5 1.6 2.2.5 10.3 4.3 18 8.3s22.6 11.6 33 17 26.2 13.5 35 18 25 12.9 36 18.5 25.6 13.2 32.5 16.8c6.9 3.5 13.3 7.2 14.3 8.1s2 2.9 2.3 4.6c.4 1.9-.1 4.4-1.2 6.8-1.6 3.2-3.3 4.6-9.9 7.9-4.4 2.2-17.5 8.9-29 14.8-11.6 6-39.9 20.6-63 32.5s-47.9 24.5-55 28.1c-12.5 6.3-13.4 6.6-22 7.1-5.3.3-10.8.1-13.3-.6-2.3-.6-4.1-1.6-3.9-2.2.1-.6 11.5-6.8 25.2-13.8 13.8-7 42.1-21.4 63-32.1 20.9-10.6 40.9-20.9 51-26.3l-3.5-1.9c-1.9-1-5.1-1.8-7-1.8-2.5.1-13.7 5.3-40 18.7-20.1 10.2-46.9 23.9-59.5 30.3-12.6 6.5-27.1 13.8-32 16.3-4.9 2.6-9.8 4.7-10.7 4.7-1 0-4.2-1.3-7-2.9-2.9-1.5-15-7.8-26.8-13.8-11.8-6.1-30.1-15.4-40.5-20.8s-23.5-12.1-29-15-18.1-9.3-28-14.3C14.6 110.3 5 105 3.2 103.6.4 101.3 0 100.4 0 96c0-4 .5-5.4 2.5-7.2 1.3-1.3 10.7-6.5 20.7-11.6C33.3 72 50.7 63.1 62 57.3S88.4 43.7 95.5 40s22.2-11.5 33.5-17.3 24.8-12.6 30-15.2 12.2-5.4 15.5-6.1S183 .3 186 .6m-24.6 61.8c-12 6.2-31.7 16.3-43.6 22.4L96 96c19 9.5 34.2 17.2 46 23.2 11.8 6.1 26 13.3 31.5 16.1l10 5.1c49.6-25.4 69-35.3 75.2-38.3 6.1-3.1 11.2-5.8 11.3-6.1 0-.3-1.4-1.2-3.2-2-1.8-.9-19.9-10-40.3-20.4s-38.4-19.7-40.1-20.7l-3.1-1.8z" style="fill:#ffffff"/></svg>