<svg xmlns="http://www.w3.org/2000/svg" width="812" height="253" version="1.0"><g fill="#fff"><path d="M67.5 4.2C65.2 10.3 26.8 153 17.5 190c-2.6 10.2-6.9 27.2-9.6 37.7C5.2 238.3 3 247.6 3 248.3c0 1.1 5.8.2 25.2-3.8 21.2-4.3 25.3-5.4 25.9-7.1.4-1 3.1-12.5 5.9-25.4 2.9-12.9 5.4-23.7 5.6-23.9.4-.5 7.3-1.4 42.8-6l21.8-2.7.9 2c.5 1.2 3.1 11.2 5.8 22.4 2.7 11.2 5 20.5 5.2 20.7.2.2 8.3-.7 17.9-2 9.6-1.3 21-2.7 25.3-3.1 4.2-.4 7.9-.9 8.1-1.3.2-.3-5.4-19.5-12.5-42.6-15.9-51.4-34-112.2-46.1-154.3L129.6 3H98.8c-23.8 0-31 .3-31.3 1.2zM105 69.6c6.1 26.3 9.9 42.3 14.5 61.8 1.4 5.9 2.4 11.1 2.1 11.3-.3.3-4.5.9-9.3 1.4-4.8.5-15.3 1.6-23.2 2.4-7.9.9-14.5 1.4-14.7 1.3-.3-.3 3.7-17.9 14.7-65.8 8.6-37.4 9.1-39.2 9.5-38.7.2.2 3.1 12 6.4 26.3zM215.7 69.7c-.4 36.8-.7 84.7-.7 106.7v39.8l6.3-.6c3.4-.3 14.6-1.3 25-2.3l18.7-1.7v-61.2l9.1-12.2c5-6.7 9.5-12 10-11.7.4.3 3.2 4.5 6 9.3 2.9 4.8 10.4 17 16.7 27.2 6.3 10.2 14.7 23.7 18.5 30 3.9 6.3 7.6 12.2 8.4 13 1.1 1.2 5.6 1.4 28 1.1 14.8-.1 27.2-.6 27.7-1.1.5-.5-12.1-20.8-29.6-47.7C320.2 97.6 317 92.5 317 91.2c0-1 23.7-32.4 54.2-72C377.7 10.8 383 3.8 383 3.5c0-.3-12-.5-26.8-.5h-26.7l-24.2 31.7C292 52.2 277.9 71 273.8 76.5l-7.3 10-.3-41.8L266 3h-49.7l-.6 66.7zM407 104.4v101.4l21.8.4c11.9.2 22.2 0 22.7-.5.7-.5.9-28.2.8-80.3-.2-43.7.1-79.4.5-79.4.5 0 4.1 12 8 26.7 4 14.8 13.5 50 21.3 78.3 7.7 28.3 14.3 52.7 14.6 54.1.6 3.1 2.2 3.4 25.9 4.5l14 .7 11.7-43.9c6.4-24.2 16-60.7 21.4-81.2C575 64.8 579.7 48 580 48c1 0 2 57.7 2 114.6v51.2l6.8.7c3.7.4 12.5 1.3 19.5 2.1 7.1.8 14.2 1.4 15.8 1.4h2.9v-88.8c0-48.8-.3-97.1-.7-107.5L625.7 3l-36.6.2-36.6.3-2.7 10.5c-2.6 10.4-23.1 95.4-29.2 120.7-1.7 7.3-3.3 13.3-3.6 13.3-.6 0-3.6-12.1-26.1-103.8L480.8 3H407v101.4zM651.8 3.6c-.6.5.2 217.6.7 218.2.2.2 7.2 1.2 15.6 2.3 13.5 1.7 37.1 5.5 64.1 10.3 11.1 2 62.5 12.3 70 14.1 3.1.7 5.9 1 6.2.7.3-.3.6-55.8.6-123.4V3h-49v92.5c0 60.6-.3 92.5-1 92.5-.5 0-6.7-1.1-13.7-2.4-7.1-1.4-19.7-3.7-28-5.2l-15.3-2.8-.2-62.5c-.1-34.4-.3-64.4-.4-66.6-.2-2.2-.3-13.3-.3-24.8L701 3h-24.3c-13.4 0-24.6.3-24.9.6z"/></g></svg>