<svg xmlns="http://www.w3.org/2000/svg" id="_레이어_1" viewBox="0 0 2398 653.9"><defs><style>.cls-1{fill:#fff}</style></defs><path d="M282.7.8c-.3.5-21.7 65.8-47.6 145.3-26 79.5-47.8 146.4-48.6 148.7l-1.4 4.3h155.7l3-12.8c1.6-7 4.2-18 5.7-24.5l2.7-11.7h62.4l6.4 23.5c3.5 12.9 6.7 23.9 7 24.5.4.7 27.5.9 80.7.8l80.1-.3-47.6-149.2L493.5.1H388.3c-57.8 0-105.4.3-105.6.7m116.7 136c8 41.9 14.6 76.6 14.6 77.2 0 .8-9.1 1.1-30 1.1-26.9 0-30-.2-30-1.6 0-.9 6.3-33.4 14-72.3 16.9-85.3 16.1-81.3 16.5-80.9.2.2 6.9 34.6 14.9 76.5M603 149.6v149.5h527v-48h-125V.1H863l-.2 125.2-.3 125.3-58.7.3-58.8.2V.1H603zM1150 149.5v149.6h112.3c111 0 133.7-.5 158.7-3.6 49.6-6 76.4-20 84.6-44.4 1.8-5.2 1.9-10.5 1.9-106V44.6l-3.3-6.7c-3.5-7.2-10.7-14.5-18.6-19.2-11.8-6.9-33.3-13-57.7-16.3-10.9-1.4-28-1.7-145.1-2L1150 0zm196.5-108.9c7.8 2 12.7 5.4 15.1 10.2 1.8 3.6 1.9 7.6 2.2 97.2.2 65.3-.1 95.1-.8 98.8-1.5 6.9-4.8 10.7-11.8 13.4-5.2 2.1-7.8 2.3-28.4 2.7l-22.8.4V39.1h20.3c15 0 21.8.4 26.2 1.5M1554.6 147.4c-26.4 80.9-48.3 148.2-48.8 149.4l-.8 2.3h155.8l3.1-13.3c1.7-7.2 4.3-18.3 5.7-24.5l2.6-11.2h62.4l6.4 23.5c3.5 12.9 6.7 23.9 7 24.5.4.7 27.5.9 80.7.8l80.1-.3-47.7-149.2L1813.5.1h-211zm164.8-10.6c8 41.9 14.6 76.7 14.6 77.2 0 .8-9.5 1.1-30.3 1.1h-30.3l14.3-72.3c17-85.9 16.4-82.9 16.8-82.5.2.2 6.9 34.6 14.9 76.5M1835.6 2.8c1 1.6 26.9 40.6 57.6 86.9l55.8 84.1v125.3h144V178l59.5-88.5C2185.2 40.9 2212 .8 2212 .6c0-.3-29.6-.5-65.7-.5l-65.8.1-22 37.2c-16.6 28.1-22.9 39.8-25.9 47.7-2.1 5.8-4.2 10.8-4.5 11.2-.4.4-2.5-4.3-4.8-10.5-3.1-8.4-9.4-20.5-25.1-48.2l-21-37-71.7-.3-71.7-.2zM919 345.2c-81.1 2.4-129.5 17-145.3 43.9-5.9 10.1-5.8 8.5-5.5 105.2.4 95.6.1 89.7 5.8 105 3.2 8.6 11.4 19.4 19.5 25.5 21.1 16 44.5 22.7 97.5 27.5 18.4 1.7 89 1.7 109 0 23-1.9 48.1-5.8 60.5-9.2 21.3-5.9 42.4-18.5 51.2-30.4 5.9-8 7.7-11.6 11-22.3l2.8-8.8v-180l-2.3-5.7c-10.7-26.5-46-41.8-111.1-48.3-13.7-1.3-25.7-1.9-60.1-2.8-5.2-.2-20.1 0-33 .4m43.2 44c10.4 2.2 16.7 7.2 18.8 14.9.7 2.6 1 34.7.8 98.7-.3 78.1-.5 95.2-1.7 97.3-5 9.2-14 12.5-34.1 12.5-8 0-15.6-.5-18.7-1.3-7.7-2-14.1-6.4-16.3-11.5-1.9-4-2-7.6-2-99 0-83.3.2-95.2 1.5-98.5 4.3-10.2 13.5-14 34.2-14.1 6.7-.1 14.6.4 17.5 1M1853 345.2c-57 1.7-98.3 9.2-123.8 22.4-15.8 8.1-24 16.5-28.8 29-1.8 4.8-1.9 9-1.9 95v90l2.3 7.8c5.8 20.2 16.7 33.1 36.4 43.2 20.8 10.8 39.9 15.3 80.1 19 23.1 2.2 75.8 3 101.2 1.6 66.8-3.7 96.6-12 117.6-33 8.6-8.6 13.5-17.4 17-30.6 1.9-7 2.3-11.5 2.7-35.3l.4-27.2H1912v32.5c0 19.7-.4 34.4-1.1 37.5-1.4 6.6-6.6 12.3-12.9 14.1-5.9 1.8-30.9 1.8-37 0-6.6-1.9-11.5-7.3-12.9-14.1-.8-4-1.1-32-.9-100 .3-103.3 0-97.1 6-102.7 4.7-4.4 9.5-5.6 23.9-6.1 15.4-.5 22.5.9 27.9 5.4 6.6 5.6 6.5 5 6.8 47.1l.3 38.3h144l-.3-38.8c-.4-43.5-.5-44-7.9-55.1-9.9-14.8-32.8-26.3-64.6-32.5-33.1-6.4-79-9-130.3-7.5M0 498.6v149.5l75.3-.2 75.2-.3.3-58.3.2-58.2h50.3c51.9 0 65.8-.7 83.8-4 31.1-5.8 53.9-20.5 63.7-41 7.6-15.8 7.7-16.9 7.7-58v-30.95c0-3.65-.82-7.25-2.4-10.55-7.5-15.3-30.7-27.7-61.1-32.9-22.7-3.8-25.4-3.9-160.2-4.3L0 349zm196-110.3c6.2 1.7 12.1 7.8 14.3 14.8 5.1 16.3 4.9 53.6-.4 70-1.7 5.1-3.3 7.6-7.4 11.7-7.5 7.4-11.4 8.3-33.7 8.3H151V386.6l20.2.2c12.2.1 22.1.7 24.8 1.5M380 498.6v149.5h150v-123h11.6c21.9 0 20.8-1.6 52.4 75.7l19.4 47.3h79.9c43.9 0 79.7-.4 79.5-.8-1.4-3.5-56.1-103.2-59.6-108.7-12.1-18.9-27.8-27.2-57.7-30.6-11.8-1.3-14.7-2.2-8.5-2.6 25.9-1.7 49.3-6.8 63.8-13.8 12.5-6.1 24.4-17.5 29.4-28.1 2.17-4.54 3.33-9.51 3.37-14.55l.23-23.45c.3-29.9.2-31.3-1.9-37-5.9-15.9-29.9-29.4-61.9-34.8-23.4-3.9-23.9-3.9-163.2-4.3L380 349zm198.5-111.1c12.8 1 20.4 6 23.1 15.4 1.3 4.2 1.5 9.9 1.2 29.5-.3 22.7-.4 24.5-2.5 28.3-2.9 5.4-6.9 8.7-14 11.5-5.4 2.2-7.5 2.4-31 2.7l-25.3.4v-88.2l16.8-.2c16.8-.3 20.7-.2 31.7.6M1217.8 465.8c-.3 111.8-.4 117-2.2 120.3-6.2 11.7-15.3 14-56.8 14H1136v48h46.3c57.3 0 85.8-1.8 111.7-7.1 36.9-7.5 56.6-22.5 64.6-49.4 1.7-5.6 1.8-14 2.1-124.3l.4-118.2h-143zM1388 498.6v149.5h291v-48h-140v-78h122v-55h-122v-69h140v-49h-291zM2071 373.6v24.5h91v250h144v-250h92v-49h-327z" class="cls-1"/></svg>