<svg width="500" height="285" version="1.1" xmlns="http://www.w3.org/2000/svg" desc="Created with imagetracer.js version 1.2.6" ><path fill="#ffffff" stroke="#ffffff" stroke-width="1" opacity="1" d="M 287.5 14 L 289 14 L 289.5 16 L 299.5 16 L 300 18 L 301.5 18 L 303 17.5 L 303 20 L 308 20 Q 306.3 24.1 310.5 23 L 312 22.5 Q 309.8 23.7 312.5 25 L 315 26.5 Q 314.3 28.8 316.5 28 L 318 27.5 L 319 29.5 L 317 29.5 Q 316 34 318.5 35 L 319.5 32 L 325 42.5 L 326 51.5 L 328 54.5 L 328 241.5 Q 330.2 242.7 329 247.5 L 328 252 L 324.5 254 L 325 252.5 L 327 249.5 L 327 224.5 L 326 223.5 L 326 57.5 L 322 51.5 L 322 45.5 Q 318.5 45 319 40.5 L 307.5 29 L 296.5 24 Q 289.8 25.2 287.5 22 L 195.5 22 L 189 26.5 L 188 29.5 L 188 209.5 L 189 210.5 L 189 223.5 L 188 224.5 L 188 249.5 L 187 250.5 L 186 264.5 L 188.5 266 L 192.5 264 L 191.5 266 L 186.5 268 L 184 262.5 Q 187.1 258.1 186 249.5 L 184 239.5 L 184 46.5 L 185 45.5 Q 183.4 35.4 186 29.5 L 185 26.5 L 187 18 L 190 16.5 L 190.5 15 L 192.5 15 L 286.5 15 L 287.5 14 Z " /><path fill="#ffffff" stroke="#ffffff" stroke-width="1" opacity="1" d="M 438.5 14 Q 440.8 16.7 446.5 16 L 448.5 16 L 455.5 16 Q 454.5 19.3 460.5 18 L 463 18.5 L 464.5 21 L 467.5 22 Q 468.8 19.8 470 22.5 L 469 23.5 L 477 31.5 L 481 36.5 L 480.5 40 Q 485.1 38.6 483 44.5 L 485 50.5 L 485 153.5 L 486 154.5 L 486 164.5 L 484.5 169 L 484 164.5 Q 486.7 162.8 485 156.5 L 484 155.5 L 484 128.5 L 483 127.5 L 483 80.5 L 484 79.5 L 484 64.5 L 483 63.5 L 483 53.5 L 480 50.5 L 480 47.5 L 476 42.5 L 476 39.5 L 465.5 29 L 453.5 23 L 444.5 23 L 443.5 22 L 350.5 22 L 346 23 L 344 34.5 L 344 260.5 L 342 264.5 L 345 265.5 L 344.5 268 L 342.5 267 L 341 267.5 Q 339.3 261.3 342 259.5 L 342 159.5 L 343 156.5 L 342 152.5 L 343 148.5 Q 340.3 146.8 342 140.5 L 343 139.5 L 343 40.5 L 342 39.5 L 342 26.5 L 343 24.5 L 343 22.5 Q 341.1 17.1 344.5 18 L 348.5 15 L 437.5 15 L 438.5 14 Z M 466 27 L 468 29 Q 469 26 466 27 Z " /><path fill="#ffffff" stroke="#ffffff" stroke-width="1" opacity="1" d="M 76.5 15 L 87.5 16 L 88.5 15 L 122.5 15 L 125.5 16 L 126.5 15 L 140.5 15 L 155.5 20 L 157 19.5 L 156 21.5 L 162 23.5 L 161 24.5 L 165 28.5 L 168 39 Q 172 37.6 170 44.5 L 171 45.5 L 171 95.5 L 172 96.5 L 172 111.5 L 171 112.5 L 171 127.5 L 172 128.5 L 172 143.5 L 171 144.5 L 171 159.5 L 172 160.5 L 172 207.5 L 171 208.5 L 171 259.5 L 173 268 Q 169.5 269.1 171 261.5 L 170 260.5 L 170 53.5 L 168 50.5 L 167 40.5 L 164.5 38 L 161 35.5 L 157 29 L 147.5 24 Q 142.2 24.8 140.5 22 L 78.5 22 L 64.5 28 L 55 36.5 L 52 43.5 L 46 51.5 L 46 63.5 L 45 64.5 L 45 99.5 L 46 100.5 L 46 110.5 L 47 111.5 L 47 113.5 Q 45.6 121.6 39.5 125 L 37 126.5 Q 37.9 129.5 33.5 128 L 25 134.5 L 17.5 145 L 16 144.5 L 17 239.5 L 16 240.5 L 16 253.5 L 17 257.5 L 16 262 L 14 261.5 L 14 146.5 L 15 142.5 L 14 138.5 L 15 135 L 19 132.5 Q 16.3 130.8 20.5 129 L 24 128 Q 22.5 124.3 25.5 125 L 33.5 120 L 38 119.5 L 37.5 118 L 40 118 Q 39 115 42 116 L 42 113.5 L 41.5 112 L 43.5 113 L 43.5 111 Q 45.8 111.8 45 109.5 L 44 108.5 L 43.5 87 L 42.5 99 L 42 56.5 L 43 56.5 L 43.5 74 L 44 53.5 L 43 50 Q 45.7 51.1 45 48.5 L 43 44.5 L 44 40 L 48 38.5 L 47 35.5 L 47.5 34 Q 49.3 36.8 51 32.5 L 54.5 27 L 60 23.5 L 59 21 L 68 20 Q 66.9 17.3 69.5 18 L 76.5 15 Z M 45 114 L 44 117 L 45 117 L 45 114 Z " /><path fill="#ffffff" stroke="#ffffff" stroke-width="1" opacity="1" d="M 285.5 26 L 288 26.5 L 285.5 27 L 285.5 26 Z " /><path fill="#ffffff" stroke="#ffffff" stroke-width="1" opacity="1" d="M 78.5 27 L 83 27.5 L 78.5 28 L 78.5 27 Z " /><path fill="#ffffff" stroke="#ffffff" stroke-width="1" opacity="1" d="M 205.5 27 L 210 27.5 L 205.5 28 L 205.5 27 Z " /><path fill="#ffffff" stroke="#ffffff" stroke-width="1" opacity="1" d="M 74.5 28 L 76 28.5 L 72.5 30 L 72.5 29 L 74.5 28 Z " /><path fill="#ffffff" stroke="#ffffff" stroke-width="1" opacity="1" d="M 142.5 28 Q 147.3 28.3 149 31.5 L 146.5 30 L 142.5 29 L 142.5 28 Z " /><path fill="#ffffff" stroke="#ffffff" stroke-width="1" opacity="1" d="M 202.5 28 L 204 28.5 L 201 30.5 L 200.5 32 L 200 30.5 L 202.5 28 Z " /><path fill="#ffffff" stroke="#ffffff" stroke-width="1" opacity="1" d="M 360.5 28 L 362 28.5 L 358 30 L 356.5 34 L 356 31.5 L 357 29 L 360.5 28 Z " /><path fill="#ffffff" stroke="#ffffff" stroke-width="1" opacity="1" d="M 295.5 29 L 303 32.5 L 301.5 32 L 295.5 30 L 295.5 29 Z " /><path fill="#ffffff" stroke="#ffffff" stroke-width="1" opacity="1" d="M 70.5 30 L 69.5 32 L 70.5 30 Z " /><path fill="#ffffff" stroke="#ffffff" stroke-width="1" opacity="1" d="M 456.5 30 L 459.5 31 L 468 39.5 L 467 43.5 L 468 46.5 L 466 47.5 Q 466.8 45.3 464.5 46 L 465 42.5 L 467 39.5 L 459.5 32 L 456.5 31 L 456.5 30 Z " /><path fill="#ffffff" stroke="#ffffff" stroke-width="1" opacity="1" d="M 67.5 32 L 64.5 36 L 67.5 32 Z " /><path fill="#ffffff" stroke="#ffffff" stroke-width="1" opacity="1" d="M 150.5 32 Q 154.8 33.3 154 38 Q 157.3 36.7 156 41.5 L 153.5 45 L 156 45.5 L 156 53.5 L 155 53.5 L 154 47.5 L 150 41.5 L 151.5 42 Q 154.9 42.9 153 37.5 L 150.5 32 Z " /><path fill="#ffffff" stroke="#ffffff" stroke-width="1" opacity="1" d="M 357.5 35 L 358 37.5 L 357 37.5 L 357.5 35 Z " /><path fill="#ffffff" stroke="#ffffff" stroke-width="1" opacity="1" d="M 200.5 36 L 201 45.5 L 200 45.5 L 200.5 36 Z " /><path fill="#ffffff" stroke="#ffffff" stroke-width="1" opacity="1" d="M 306.5 36 L 311 42.5 L 311 47.5 L 311 49.5 L 314 61.5 L 314 71.5 L 315 72.5 L 315 193.5 L 316 194.5 L 316 209.5 L 305 224 L 296 226 L 295.5 228 L 208.5 228 L 199 222.5 Q 196.1 218.9 197 211.5 L 199 200.5 L 199.5 51 Q 202.9 54.6 201 63.5 L 200 64.5 L 200 79.5 L 201 80.5 L 201 95.5 L 200 96.5 L 200 111.5 L 201 112.5 L 201 127.5 L 200 128.5 L 200 143.5 L 201 144.5 L 201 159.5 L 200 160.5 L 200 195.5 L 201 196.5 L 201 206.5 L 200 210.5 L 202.5 216 L 204 215.5 L 205.5 219 L 215.5 222 L 216.5 221 L 289.5 221 L 296.5 218 L 297 220 L 302 220 L 302 216.5 L 309 212 L 313 201.5 L 313 69.5 L 311 67.5 L 311 53.5 L 310 52.5 L 310.5 51 Q 308.3 51.8 309 49.5 L 308 44 L 310 43.5 L 306.5 36 Z " /><path fill="#ffffff" stroke="#ffffff" stroke-width="1" opacity="1" d="M 63.5 37 L 64 42.5 Q 61.7 43.8 63 48.5 L 61.5 50 Q 59.3 50.8 60 48.5 Q 63.5 47 61 45.5 Q 59.5 38.5 63.5 37 Z " /><path fill="#ffffff" stroke="#ffffff" stroke-width="1" opacity="1" d="M 357.5 40 L 358 43.5 L 357 44.5 L 357 61.5 L 358 62.5 L 358 79.5 L 357 80.5 L 357 165.5 L 356 170 L 358.5 169 L 358.5 171 Q 360.8 170.3 360 172.5 L 361.5 174 L 382.5 175 L 386.5 173 L 422.5 173 L 423.5 174 L 444.5 175 L 460 171.5 Q 457.7 170.3 460.5 169 L 464 168 L 464 165.5 L 471 154.5 L 470 153.5 L 469 122.5 L 470 121.5 L 470.5 112 L 472 119.5 Q 469.5 121 471 126.5 L 472 131.5 L 471 132.5 L 471 146.5 Q 475.5 150 474 159.5 L 469 170.5 L 462.5 177 L 453.5 181 L 380.5 181 L 376.5 182 L 375.5 181 L 362.5 181 L 355 176.5 L 354 165.5 L 356 158.5 L 356 76.5 L 355 74.5 L 356 73.5 L 356 43.5 L 357.5 40 Z " /><path fill="#ffffff" stroke="#ffffff" stroke-width="1" opacity="1" d="M 466.5 49 L 467.5 51 L 466.5 49 Z " /><path fill="#ffffff" stroke="#ffffff" stroke-width="1" opacity="1" d="M 60.5 55 L 61 58.5 Q 58.2 61.2 59 67.5 L 60 72.5 L 59 73.5 L 59 127.5 L 60 128.5 L 60 143.5 L 59 144.5 L 59 159.5 L 60 160.5 L 60 175.5 L 59 176.5 L 59 188.5 L 60 189.5 L 60.5 198 L 62 197.5 L 62 199.5 L 63.5 203 L 67 202.5 L 66.5 204 L 69.5 203 L 70.5 204 L 141.5 204 L 143.5 203 L 145.5 204 L 149 202.5 L 148.5 201 L 152 202 L 151.5 200 L 150 200.5 L 155 197.5 L 155 196 L 157 195.5 L 157 185.5 L 156 184.5 L 156 57.5 L 157 57.5 L 157 67.5 L 158 68.5 L 158 184.5 L 159 185.5 L 159 203.5 L 150 210.5 L 156 217.5 L 150.5 213 L 148.5 212 L 68.5 212 L 65.5 213 L 65.5 211 L 64 211 Q 65.5 207.3 62.5 208 L 59 205.5 L 54 195.5 L 56 192.5 L 58 182.5 L 58 112.5 L 57 111.5 L 57 96.5 L 58 95.5 L 58 59.5 L 60.5 55 Z M 152 204 L 152 206 L 154 205 L 152 204 Z " /><path fill="#ffffff" stroke="#ffffff" stroke-width="1" opacity="1" d="M 468.5 55 L 470 58.5 L 469 58.5 L 468.5 55 Z " /><path fill="#ffffff" stroke="#ffffff" stroke-width="1" opacity="1" d="M 471.5 61 L 472 68.5 L 470 69.5 Q 468.3 62.8 471.5 61 Z " /><path fill="#ffffff" stroke="#ffffff" stroke-width="1" opacity="1" d="M 470 71 L 472 71.5 L 472 108.5 L 470 109.5 L 469 100.5 L 470 99.5 L 470 71 Z " /><path fill="#ffffff" stroke="#ffffff" stroke-width="1" opacity="1" d="M 311.5 74 L 312 178.5 L 311 178.5 L 311.5 74 Z " /><path fill="#ffffff" stroke="#ffffff" stroke-width="1" opacity="1" d="M 483.5 170 L 484 171.5 L 482.5 174 L 482 172.5 L 483.5 170 Z " /><path fill="#ffffff" stroke="#ffffff" stroke-width="1" opacity="1" d="M 480.5 173 L 481 177 L 478 178.5 Q 478.8 181.1 475.5 180 L 473.5 179 Q 472.3 181.3 471 178.5 Q 472 176 476.5 177 Q 478.3 179.8 480 175.5 L 476 174.5 L 480.5 173 Z " /><path fill="#ffffff" stroke="#ffffff" stroke-width="1" opacity="1" d="M 469.5 180 L 471 180.5 L 468 182.5 Q 468.8 185.1 465.5 184 L 461.5 186 L 462.5 184 L 464.5 184 L 469.5 180 Z " /><path fill="#ffffff" stroke="#ffffff" stroke-width="1" opacity="1" d="M 458.5 186 L 460 186.5 L 457.5 188 L 458.5 186 Z " /><path fill="#ffffff" stroke="#ffffff" stroke-width="1" opacity="1" d="M 451.5 188 L 455 188.5 L 451.5 189 L 451.5 188 Z " /><path fill="#ffffff" stroke="#ffffff" stroke-width="1" opacity="1" d="M 446.5 189 L 450 189.5 L 446.5 190 L 446.5 189 Z " /><path fill="#ffffff" stroke="#ffffff" stroke-width="1" opacity="1" d="M 442.5 190 L 445 190.5 Q 437.7 191.7 434 196.5 L 435 204.5 L 432 212.5 L 432 217.5 L 433 218.5 L 433 262.5 L 434 263.5 L 434 265.5 L 432.5 268 L 431 267.5 Q 433.3 266.2 432 261.5 L 431 260.5 L 431 212.5 L 433 208.5 L 433 196.5 L 434 194 Q 437 195 436 192 L 439.5 192 L 442.5 190 Z " /><path fill="#ffffff" stroke="#ffffff" stroke-width="1" opacity="1" d="M 74.5 202 L 77 202.5 L 74.5 203 L 74.5 202 Z " /><path fill="#ffffff" stroke="#ffffff" stroke-width="1" opacity="1" d="M 80.5 202 L 112 202.5 L 80.5 203 L 80.5 202 Z " /><path fill="#ffffff" stroke="#ffffff" stroke-width="1" opacity="1" d="M 62.5 213 L 64 213.5 L 61 215.5 L 60.5 218 L 60 215.5 L 62.5 213 Z " /><path fill="#ffffff" stroke="#ffffff" stroke-width="1" opacity="1" d="M 156.5 219 L 157 224.5 L 155.5 230 L 154 225.5 L 156 222.5 L 154 222 L 154.5 220 L 156 220.5 L 156.5 219 Z " /><path fill="#ffffff" stroke="#ffffff" stroke-width="1" opacity="1" d="M 60.5 223 L 61.5 225 L 60 225.5 L 61 228.5 L 60 229.5 L 59.5 262 L 57 253.5 L 57 240.5 L 58 239.5 L 58 228.5 L 60.5 223 Z " /><path fill="#ffffff" stroke="#ffffff" stroke-width="1" opacity="1" d="M 156.5 231 L 157 255.5 L 158 257.5 L 157 258.5 L 157 267.5 L 160 266.5 L 156.5 269 L 155 266.5 L 156 265.5 L 156.5 231 Z " /><path fill="#ffffff" stroke="#ffffff" stroke-width="1" opacity="1" d="M 320.5 255 L 323.5 256 L 325 255.5 L 324 258 Q 321.3 256.9 322 259.5 L 320 260.5 L 320.5 259 L 318.5 258 L 315.5 259 L 316.5 257 L 320.5 255 Z " /><path fill="#ffffff" stroke="#ffffff" stroke-width="1" opacity="1" d="M 312.5 260 L 314 260.5 L 311.5 262 L 312.5 260 Z " /><path fill="#ffffff" stroke="#ffffff" stroke-width="1" opacity="1" d="M 164.5 264 L 165.5 266 L 162 265.5 L 164.5 264 Z " /><path fill="#ffffff" stroke="#ffffff" stroke-width="1" opacity="1" d="M 194.5 264 L 201 265.5 L 195.5 266 L 194.5 264 Z " /><path fill="#ffffff" stroke="#ffffff" stroke-width="1" opacity="1" d="M 346.5 264 L 353 265.5 L 347.5 266 L 346.5 264 Z " /><path fill="#ffffff" stroke="#ffffff" stroke-width="1" opacity="1" d="M 206.5 265 L 214 265.5 L 206.5 266 L 206.5 265 Z " /><path fill="#ffffff" stroke="#ffffff" stroke-width="1" opacity="1" d="M 277.5 265 L 297 265.5 L 277.5 266 L 277.5 265 Z " /><path fill="#ffffff" stroke="#ffffff" stroke-width="1" opacity="1" d="M 413.5 265 L 425 265.5 L 413.5 266 L 413.5 265 Z " /><path fill="#ffffff" stroke="#ffffff" stroke-width="1" opacity="1" d="M 18.5 266 L 15.5 270 L 14 267 L 16.5 268 L 18.5 266 Z " /><path fill="#ffffff" stroke="#ffffff" stroke-width="1" opacity="1" d="M 56.5 266 L 57.5 268 L 56.5 266 Z " /><path fill="#ffffff" stroke="#ffffff" stroke-width="1" opacity="1" d="M 78.5 13 L 141.5 13 L 156 18 Q 154.8 21 158.5 20 L 161 24 L 167 28.5 L 167 31 Q 169.7 29.9 169 32.5 L 172 38.5 Q 170.5 44 173 45.5 L 173 263.5 L 172 263.5 L 171 259.5 L 171 208.5 L 172 207.5 L 172 160.5 L 171 159.5 L 171 144.5 L 172 143.5 L 172 128.5 L 171 127.5 L 171 112.5 L 172 111.5 L 172 96.5 L 171 95.5 L 171 45.5 L 170 39 Q 166.7 40.3 168 35.5 Q 165.3 25.8 157.5 21 L 156 21.5 Q 156.8 19.3 154.5 20 L 140.5 15 L 126.5 15 L 123.5 16 L 122.5 15 L 88.5 15 L 84.5 16 Q 82.8 13.3 76.5 15 L 68 18 Q 69.4 22 62.5 20 L 59 21 L 60 23.5 L 52 29.5 L 48.5 35 L 48 32.5 L 59.5 20 L 69.5 15 L 78.5 13 Z " /><path fill="#ffffff" stroke="#ffffff" stroke-width="1" opacity="1" d="M 190.5 13 L 289.5 13 L 302 16 Q 303 19 300 18 L 300 16 L 289.5 16 L 289 14 L 287.5 14 L 286.5 15 L 192.5 15 L 191.5 16 L 190 15.5 L 188.5 18 Q 186.3 17.3 187 19.5 L 185 28.5 L 186 31.5 L 185 32.5 L 184.5 46 L 184 19.5 L 187.5 15 L 190.5 13 Z " /><path fill="#ffffff" stroke="#ffffff" stroke-width="1" opacity="1" d="M 347.5 13 L 448.5 13 L 462 17 L 461.5 19 L 456 18 L 455.5 16 L 448.5 16 L 446.5 16 L 438.5 14 L 437.5 15 L 348.5 15 L 343 18 L 342 23.5 L 343 25.5 L 342 26.5 L 342 39.5 L 343 40.5 L 343 139.5 Q 340.3 141.3 342 147.5 L 343 151.5 L 342 155.5 L 343 158.5 L 342 159.5 L 341.5 260 L 341 19.5 L 345.5 14 L 347.5 13 Z " /><path fill="#ffffff" stroke="#ffffff" stroke-width="1" opacity="1" d="M 303 17 Q 311.8 19.4 317 26.5 Q 317.7 29.1 315 28 L 313.5 25 L 308 23 L 308 20 L 303 20 L 303 17 Z " /><path fill="#ffffff" stroke="#ffffff" stroke-width="1" opacity="1" d="M 463.5 18 L 468 20 L 469.5 23 L 471.5 23 L 476 27.5 L 484 39.5 L 487 51.5 L 487 161.5 L 486 161.5 Q 487.7 155.3 485 153.5 L 485 50.5 L 483 40 L 480 39.5 L 481 36.5 L 477 32.5 L 467.5 22 L 463 19.5 L 463.5 18 Z " /><path fill="#ffffff" stroke="#ffffff" stroke-width="1" opacity="1" d="M 83.5 27 L 139.5 27 Q 148 29.5 153 35.5 L 153 37.5 Q 154.9 42.9 151.5 42 L 150 42.5 L 150.5 41 L 148 39.5 Q 147.1 36.5 151.5 38 L 151.5 37 Q 149.3 37.8 150 35.5 Q 145.8 29.7 137.5 28 L 83.5 28 L 83.5 27 Z " /><path fill="#ffffff" stroke="#ffffff" stroke-width="1" opacity="1" d="M 210.5 27 L 288.5 27 Q 299.1 29.4 306 35.5 L 310 43.5 L 308 44 L 307.5 47 L 303 41.5 L 306 40.5 L 300.5 33 L 288.5 28 L 210.5 28 L 210.5 27 Z " /><path fill="#ffffff" stroke="#ffffff" stroke-width="1" opacity="1" d="M 365.5 27 L 446.5 27 Q 460.4 29.6 467 39.5 L 465 42.5 L 463.5 45 L 462 42 L 460 41.5 L 464 39.5 L 459.5 34 L 449.5 29 Q 444.8 30.2 443.5 28 L 365.5 28 L 365.5 27 Z " /><path fill="#ffffff" stroke="#ffffff" stroke-width="1" opacity="1" d="M 465.5 27 Q 469.3 26 468 29 L 465.5 27 Z " /><path fill="#ffffff" stroke="#ffffff" stroke-width="1" opacity="1" d="M 76.5 28 L 80 28.5 L 71.5 32 L 66 36.5 L 68 41.5 L 63.5 48 L 63 43.5 Q 65.5 42 64 36.5 L 68.5 32 L 76.5 28 Z " /><path fill="#ffffff" stroke="#ffffff" stroke-width="1" opacity="1" d="M 204.5 28 L 209 28.5 Q 204.3 28.3 203 31.5 L 204 33.5 L 202 39.5 L 202 210.5 L 205 217 L 209.5 219 L 292.5 219 Q 301.4 216.9 306 210.5 L 307.5 208 L 309 207.5 L 309 205.5 L 311 199.5 L 311 179.5 L 312 178.5 L 312 74.5 Q 309.7 73.3 311 68.5 L 313 69.5 L 313 201.5 L 309 212 L 302 216.5 L 302 220 L 297 220 L 296.5 218 L 289.5 221 L 216.5 221 L 213.5 222 L 205.5 219 L 204 219.5 L 204 217.5 L 203.5 215 L 202 215.5 L 200 207.5 L 201 206.5 L 201 196.5 L 200 195.5 L 200 160.5 L 201 159.5 L 201 144.5 L 200 143.5 L 200 128.5 L 201 127.5 L 201 112.5 L 200 111.5 L 200 96.5 L 201 95.5 L 201 80.5 L 200 79.5 L 200 64.5 L 201 63.5 L 201 53.5 Q 198.5 52 200 46.5 L 201 45.5 L 201 36.5 L 200 33.5 L 202.5 29 L 204.5 28 Z " /><path fill="#ffffff" stroke="#ffffff" stroke-width="1" opacity="1" d="M 318.5 28 L 322 31.5 L 327 41.5 L 329 48.5 L 330 61.5 L 329 62.5 L 329 235.5 L 330 240.5 L 328 241.5 L 328 54.5 L 326 51.5 L 325 42.5 L 319.5 32 L 318.5 35 Q 316 34 317 29.5 L 318.5 28 Z " /><path fill="#ffffff" stroke="#ffffff" stroke-width="1" opacity="1" d="M 362.5 28 L 364 28.5 L 360 30 L 359 36.5 L 359 168.5 L 362.5 172 L 386 173.5 Q 381.1 176.7 371.5 175 L 370.5 174 L 361.5 174 L 360 172.5 Q 360.8 170.3 358.5 171 L 356 170 L 357 165.5 L 357 80.5 L 358 79.5 L 358 62.5 L 357 61.5 L 357 44.5 L 358 40.5 L 357 38.5 L 358 35.5 L 357 32.5 L 358 30 L 362.5 28 Z " /><path fill="#ffffff" stroke="#ffffff" stroke-width="1" opacity="1" d="M 46.5 35 Q 49.3 36.3 47 37.5 L 45.5 40 L 45 37.5 L 46.5 35 Z " /><path fill="#ffffff" stroke="#ffffff" stroke-width="1" opacity="1" d="M 153.5 44 L 152.5 46 L 153.5 44 Z " /><path fill="#ffffff" stroke="#ffffff" stroke-width="1" opacity="1" d="M 43.5 45 L 45 50 Q 42 48.8 43 52.5 L 44 53.5 L 44 73.5 L 43 73.5 L 42 47.5 L 43.5 45 Z " /><path fill="#ffffff" stroke="#ffffff" stroke-width="1" opacity="1" d="M 464.5 46 Q 466.8 45.3 466 47.5 L 466.5 49 Q 464.3 49.8 465 47.5 L 464.5 46 Z " /><path fill="#ffffff" stroke="#ffffff" stroke-width="1" opacity="1" d="M 310.5 53 L 311 55.5 L 310 55.5 L 310.5 53 Z " /><path fill="#ffffff" stroke="#ffffff" stroke-width="1" opacity="1" d="M 155.5 54 L 156 184.5 L 157 185.5 L 157 196 Q 154.3 194.9 155 197.5 L 152 202 L 144.5 204 L 142.5 203 L 141.5 204 L 70.5 204 L 68.5 203 L 66.5 204 L 63 202.5 L 60 197.5 L 59 176.5 L 60 175.5 L 60 160.5 L 59 159.5 L 59 144.5 L 60 143.5 L 60 128.5 L 59 127.5 L 59 73.5 L 60 68.5 Q 57.7 67.3 59 62.5 L 60.5 59 L 61 195.5 L 63 199 L 68.5 202 L 76.5 203 L 79.5 202 L 80.5 203 L 111.5 203 L 112.5 202 L 148.5 202 L 153 198.5 L 155 192.5 L 155.5 54 Z " /><path fill="#ffffff" stroke="#ffffff" stroke-width="1" opacity="1" d="M 468.5 57 L 470 59.5 L 470 99.5 L 469 103.5 L 470 104.5 L 470 121.5 L 468 120.5 L 469 112.5 L 468 111.5 L 468.5 57 Z " /><path fill="#ffffff" stroke="#ffffff" stroke-width="1" opacity="1" d="M 43.5 87 L 44 108.5 L 45 111 L 43 111.5 L 43.5 113 L 42 113 L 42 116 Q 39 115 40 118 L 37.5 118 L 37.5 120 L 33.5 120 L 24 125 Q 25.5 128.8 22.5 128 L 18 131.5 Q 20.8 133.3 16.5 135 L 15 134.5 Q 17.3 127.8 22.5 124 L 41 115 L 42 112.5 L 42 110.5 L 43.5 87 Z " /><path fill="#ffffff" stroke="#ffffff" stroke-width="1" opacity="1" d="M 44.5 114 L 45 116.5 L 43 117.5 L 44.5 114 Z " /><path fill="#ffffff" stroke="#ffffff" stroke-width="1" opacity="1" d="M 469.5 133 L 470 153.5 L 471 155.5 L 464 165.5 L 464 168 L 459 170.5 L 459.5 172 Q 454.2 171.2 452.5 174 L 439.5 175 L 438.5 174 L 423 173.5 L 447.5 173 L 461 168 L 461 166 Q 463.7 167.1 463 164.5 L 468 156.5 L 469.5 133 Z " /><path fill="#ffffff" stroke="#ffffff" stroke-width="1" opacity="1" d="M 14.5 142 L 15 145.5 L 14 145.5 L 14.5 142 Z " /><path fill="#ffffff" stroke="#ffffff" stroke-width="1" opacity="1" d="M 481 174 L 483 174.5 L 474.5 184 L 472.5 185 L 472 183 L 464.5 187 L 458.5 188 L 456.5 190 L 442.5 192 L 436 195.5 L 436.5 198 Q 438.8 197.3 438 199.5 L 435.5 204 L 434 196.5 L 442.5 191 L 454.5 189 L 468 184 L 469.5 181 L 474.5 179 L 478 180 L 479.5 177 Q 482.5 177.7 481 174 Z " /><path fill="#ffffff" stroke="#ffffff" stroke-width="1" opacity="1" d="M 152 204 L 154 204.5 L 152 205.5 L 152 204 Z " /><path fill="#ffffff" stroke="#ffffff" stroke-width="1" opacity="1" d="M 433.5 210 L 434 262.5 L 433 262.5 L 433 218.5 Q 430.7 217.2 432 212.5 L 433.5 210 Z " /><path fill="#ffffff" stroke="#ffffff" stroke-width="1" opacity="1" d="M 68.5 212 L 148.5 212 L 156 218.5 L 155.5 221 L 154 220.5 L 155 225 Q 152.3 226.1 153 223.5 L 152 220 L 154 219.5 L 152 215 L 147.5 213 L 68.5 213 L 63 215 Q 64.5 218.8 61.5 218 L 61.5 219 Q 65.3 217.8 64 221.5 L 62.5 224 L 59 220.5 L 60 219.5 L 62.5 214 L 68.5 212 Z " /><path fill="#ffffff" stroke="#ffffff" stroke-width="1" opacity="1" d="M 154.5 227 L 156 230.5 L 156 265.5 L 155 267.5 L 157.5 269 Q 159 265.5 160.5 268 L 164 269.5 L 162.5 270 L 159.5 268 L 159 269.5 L 159.5 271 Q 155.8 271.8 155 269.5 L 154 266.5 L 155 265.5 L 155 235.5 L 154 234.5 L 154.5 227 Z " /><path fill="#ffffff" stroke="#ffffff" stroke-width="1" opacity="1" d="M 60.5 229 L 61 264.5 L 60 264.5 L 60.5 229 Z " /><path fill="#ffffff" stroke="#ffffff" stroke-width="1" opacity="1" d="M 184.5 240 L 186 257.5 L 184.5 262 L 184.5 240 Z " /><path fill="#ffffff" stroke="#ffffff" stroke-width="1" opacity="1" d="M 326.5 252 L 328 252.5 Q 325.4 259.9 319.5 264 L 315.5 261 Q 312 264.5 305.5 265 L 305.5 264 L 318.5 258 L 320.5 261 L 322 258 Q 324.7 259.1 324 256.5 L 326.5 252 Z " /><path fill="#ffffff" stroke="#ffffff" stroke-width="1" opacity="1" d="M 193.5 264 L 194.5 266 L 189 268.5 L 189.5 270 L 186.5 271 L 184 265.5 L 186 266.5 L 186.5 268 L 193.5 264 Z " /><path fill="#ffffff" stroke="#ffffff" stroke-width="1" opacity="1" d="M 23.5 265 L 53 265.5 L 23.5 266 L 23.5 265 Z " /><path fill="#ffffff" stroke="#ffffff" stroke-width="1" opacity="1" d="M 297.5 265 L 304 265.5 L 297.5 266 L 297.5 265 Z " /><path fill="#ffffff" stroke="#ffffff" stroke-width="1" opacity="1" d="M 19.5 266 L 21 266.5 L 16 270.5 L 19.5 266 Z " /><path fill="#ffffff" stroke="#ffffff" stroke-width="1" opacity="1" d="M 54 266 L 60 268.5 Q 57 274 54 267.5 L 54 266 Z " /><path fill="#ffffff" stroke="#ffffff" stroke-width="1" opacity="1" d="M 166.5 266 L 172 270.5 L 170.5 271 L 166.5 266 Z " /><path fill="#ffffff" stroke="#ffffff" stroke-width="1" opacity="1" d="M 222.5 266 L 271 266.5 L 222.5 267 L 222.5 266 Z " /><path fill="#ffffff" stroke="#ffffff" stroke-width="1" opacity="1" d="M 346.5 266 L 348 266.5 L 346 267 Q 347.9 272.6 343 271 Q 344.1 268.3 341.5 269 L 342.5 267 L 344.5 268 L 346.5 266 Z " /><path fill="#ffffff" stroke="#ffffff" stroke-width="1" opacity="1" d="M 376.5 266 L 404 266.5 L 376.5 267 L 376.5 266 Z " /><path fill="#ffffff" stroke="#ffffff" stroke-width="1" opacity="1" d="M 428.5 266 L 432.5 268 L 434 267.5 L 431.5 271 L 429 269.5 L 428.5 266 Z " /><path fill="#ffffff" stroke="#ffffff" stroke-width="1" opacity="1" d="M 230.5 270 L 266.5 270 L 278 272.5 L 214.5 273 L 214.5 272 L 232 271.5 L 230.5 270 Z " /><path fill="#ffffff" stroke="#ffffff" stroke-width="1" opacity="1" d="M 384.5 270 L 398 270.5 L 384.5 271 L 384.5 270 Z " /><path fill="#ffffff" stroke="#ffffff" stroke-width="1" opacity="1" d="M 374.5 271 L 379.5 272 L 413 272.5 L 356.5 273 L 356.5 272 L 373.5 272 L 374.5 271 Z " /><path fill="#ffffff" stroke="#ffffff" stroke-width="1" opacity="1" d="M 160.5 272 L 163 272.5 L 160.5 273 L 160.5 272 Z " /><path fill="#ffffff" stroke="#ffffff" stroke-width="1" opacity="1" d="M 165.5 272 L 168 272.5 L 165.5 273 L 165.5 272 Z " /><path fill="#ffffff" stroke="#ffffff" stroke-width="1" opacity="1" d="M 202.5 272 L 208 272.5 L 202.5 273 L 202.5 272 Z " /><path fill="#ffffff" stroke="#ffffff" stroke-width="1" opacity="1" d="M 290.5 272 L 300 272.5 L 290.5 273 L 290.5 272 Z " /><path fill="#ffffff" stroke="#ffffff" stroke-width="1" opacity="1" d="M 83.5 12 L 137 12.5 L 83.5 13 L 83.5 12 Z " /><path fill="#ffffff" stroke="#ffffff" stroke-width="1" opacity="1" d="M 192.5 12 L 286 12.5 L 192.5 13 L 192.5 12 Z " /><path fill="#ffffff" stroke="#ffffff" stroke-width="1" opacity="1" d="M 356.5 12 L 441 12.5 L 356.5 13 L 356.5 12 Z " /><path fill="#ffffff" stroke="#ffffff" stroke-width="1" opacity="1" d="M 74.5 13 L 78 13.5 L 74.5 14 L 74.5 13 Z " /><path fill="#ffffff" stroke="#ffffff" stroke-width="1" opacity="1" d="M 142.5 13 L 145 13.5 L 142.5 14 L 142.5 13 Z " /><path fill="#ffffff" stroke="#ffffff" stroke-width="1" opacity="1" d="M 189.5 13 L 188.5 15 L 185.5 17 L 187.5 14 L 189.5 13 Z " /><path fill="#ffffff" stroke="#ffffff" stroke-width="1" opacity="1" d="M 290.5 13 L 294 13.5 L 290.5 14 L 290.5 13 Z " /><path fill="#ffffff" stroke="#ffffff" stroke-width="1" opacity="1" d="M 449.5 13 L 452 13.5 L 449.5 14 L 449.5 13 Z " /><path fill="#ffffff" stroke="#ffffff" stroke-width="1" opacity="1" d="M 146.5 14 Q 152.3 14.3 155 17.5 L 153.5 17 L 146.5 15 L 146.5 14 Z " /><path fill="#ffffff" stroke="#ffffff" stroke-width="1" opacity="1" d="M 344.5 14 L 342 17.5 L 341.5 19 L 341 17.5 L 344.5 14 Z " /><path fill="#ffffff" stroke="#ffffff" stroke-width="1" opacity="1" d="M 453.5 14 L 456 14.5 L 453.5 15 L 453.5 14 Z " /><path fill="#ffffff" stroke="#ffffff" stroke-width="1" opacity="1" d="M 63.5 17 L 62.5 19 L 63.5 17 Z " /><path fill="#ffffff" stroke="#ffffff" stroke-width="1" opacity="1" d="M 156.5 18 L 157.5 20 L 156.5 18 Z " /><path fill="#ffffff" stroke="#ffffff" stroke-width="1" opacity="1" d="M 307.5 18 L 308.5 20 L 307.5 18 Z " /><path fill="#ffffff" stroke="#ffffff" stroke-width="1" opacity="1" d="M 340.5 20 L 341 267.5 L 340 267.5 L 340.5 20 Z " /><path fill="#ffffff" stroke="#ffffff" stroke-width="1" opacity="1" d="M 57.5 21 L 50.5 29 L 57.5 21 Z " /><path fill="#ffffff" stroke="#ffffff" stroke-width="1" opacity="1" d="M 160.5 21 L 165.5 27 L 160.5 21 Z " /><path fill="#ffffff" stroke="#ffffff" stroke-width="1" opacity="1" d="M 469.5 21 L 470.5 23 L 469.5 21 Z " /><path fill="#ffffff" stroke="#ffffff" stroke-width="1" opacity="1" d="M 183.5 22 L 184 264.5 L 183 264.5 L 183.5 22 Z " /><path fill="#ffffff" stroke="#ffffff" stroke-width="1" opacity="1" d="M 314.5 23 L 320.5 30 L 314.5 23 Z " /><path fill="#ffffff" stroke="#ffffff" stroke-width="1" opacity="1" d="M 80.5 28 L 137.5 28 Q 145.8 29.7 150 35.5 Q 149.3 37.8 151.5 37 L 151.5 38 Q 147.1 36.5 148 39.5 L 149.5 42 Q 146.3 36.7 139.5 35 L 80.5 35 L 67 41.5 Q 69.8 43.3 65.5 45 L 65.5 40 L 67 40.5 L 66 36.5 L 71.5 32 L 80.5 28 Z " /><path fill="#ffffff" stroke="#ffffff" stroke-width="1" opacity="1" d="M 209.5 28 L 288.5 28 Q 298.7 29.8 304 36.5 L 306 40.5 L 303 41.5 L 304.5 44 Q 299.3 37.2 289.5 35 L 204.5 35 L 203 35.5 L 204 33.5 L 203 31.5 L 205.5 29 L 209.5 28 Z " /><path fill="#ffffff" stroke="#ffffff" stroke-width="1" opacity="1" d="M 364.5 28 L 443.5 28 Q 444.8 30.2 449.5 29 L 461 35.5 L 464 39.5 L 460 41.5 L 462 42 L 464 45.5 L 456.5 39 L 447.5 35 L 361.5 35 L 360 36.5 L 360 168.5 L 360.5 170 L 359 168.5 L 359 36.5 L 360 30 L 364.5 28 Z " /><path fill="#ffffff" stroke="#ffffff" stroke-width="1" opacity="1" d="M 476.5 28 L 478.5 31 L 476.5 28 Z " /><path fill="#ffffff" stroke="#ffffff" stroke-width="1" opacity="1" d="M 167.5 29 L 168.5 31 L 167.5 29 Z " /><path fill="#ffffff" stroke="#ffffff" stroke-width="1" opacity="1" d="M 479.5 32 L 480.5 34 L 479.5 32 Z " /><path fill="#ffffff" stroke="#ffffff" stroke-width="1" opacity="1" d="M 47.5 33 L 46.5 35 L 47.5 33 Z " /><path fill="#ffffff" stroke="#ffffff" stroke-width="1" opacity="1" d="M 481.5 35 L 482.5 37 L 481.5 35 Z " /><path fill="#ffffff" stroke="#ffffff" stroke-width="1" opacity="1" d="M 324.5 36 L 326 38.5 L 325 38.5 L 324.5 36 Z " /><path fill="#ffffff" stroke="#ffffff" stroke-width="1" opacity="1" d="M 202.5 39 L 203 210.5 L 202 210.5 L 202.5 39 Z " /><path fill="#ffffff" stroke="#ffffff" stroke-width="1" opacity="1" d="M 172.5 40 L 173 44.5 L 172 44.5 L 172.5 40 Z " /><path fill="#ffffff" stroke="#ffffff" stroke-width="1" opacity="1" d="M 485.5 43 L 486 45.5 L 485 45.5 L 485.5 43 Z " /><path fill="#ffffff" stroke="#ffffff" stroke-width="1" opacity="1" d="M 42.5 44 L 43 46.5 L 42 46.5 L 42.5 44 Z " /><path fill="#ffffff" stroke="#ffffff" stroke-width="1" opacity="1" d="M 306.5 46 L 307.5 48 L 306.5 46 Z " /><path fill="#ffffff" stroke="#ffffff" stroke-width="1" opacity="1" d="M 486.5 47 L 487 50.5 L 486 50.5 L 486.5 47 Z " /><path fill="#ffffff" stroke="#ffffff" stroke-width="1" opacity="1" d="M 329.5 50 L 330 55.5 L 329 55.5 L 329.5 50 Z " /><path fill="#ffffff" stroke="#ffffff" stroke-width="1" opacity="1" d="M 173.5 51 L 174 268.5 L 170.5 273 L 165.5 274 L 163.5 274 Q 157.1 274.4 155 270.5 L 156.5 271 L 160 270.5 L 159 268.5 L 165.5 266 L 172 271 L 173 268.5 L 173.5 51 Z M 161 272 L 161 273 L 163 273 L 161 272 Z M 166 272 L 166 273 L 168 273 L 166 272 Z " /><path fill="#ffffff" stroke="#ffffff" stroke-width="1" opacity="1" d="M 61.5 53 L 62 55.5 L 61 55.5 L 61.5 53 Z " /><path fill="#ffffff" stroke="#ffffff" stroke-width="1" opacity="1" d="M 154.5 53 L 155 192.5 L 154 192.5 L 154.5 53 Z " /><path fill="#ffffff" stroke="#ffffff" stroke-width="1" opacity="1" d="M 41.5 56 L 42 110.5 L 41 110.5 L 41.5 56 Z " /><path fill="#ffffff" stroke="#ffffff" stroke-width="1" opacity="1" d="M 310.5 56 L 311 59.5 L 310 59.5 L 310.5 56 Z " /><path fill="#ffffff" stroke="#ffffff" stroke-width="1" opacity="1" d="M 329.5 62 L 330 235.5 L 329 235.5 L 329.5 62 Z " /><path fill="#ffffff" stroke="#ffffff" stroke-width="1" opacity="1" d="M 40.5 112 L 41 113.5 L 37 116.5 L 40.5 112 Z " /><path fill="#ffffff" stroke="#ffffff" stroke-width="1" opacity="1" d="M 30.5 119 L 32 119.5 L 28.5 121 L 28.5 120 L 30.5 119 Z " /><path fill="#ffffff" stroke="#ffffff" stroke-width="1" opacity="1" d="M 25.5 121 L 27 121.5 L 19.5 127 L 22.5 123 L 25.5 121 Z " /><path fill="#ffffff" stroke="#ffffff" stroke-width="1" opacity="1" d="M 468.5 121 L 469 129.5 L 468 129.5 L 468.5 121 Z " /><path fill="#ffffff" stroke="#ffffff" stroke-width="1" opacity="1" d="M 16.5 131 L 16 132.5 L 15.5 134 L 15 132.5 L 16.5 131 Z " /><path fill="#ffffff" stroke="#ffffff" stroke-width="1" opacity="1" d="M 468.5 131 L 469 149.5 L 468 149.5 L 468.5 131 Z " /><path fill="#ffffff" stroke="#ffffff" stroke-width="1" opacity="1" d="M 13.5 138 L 14 267.5 L 13 267.5 L 13.5 138 Z " /><path fill="#ffffff" stroke="#ffffff" stroke-width="1" opacity="1" d="M 467.5 154 L 468 156.5 L 467 156.5 L 467.5 154 Z " /><path fill="#ffffff" stroke="#ffffff" stroke-width="1" opacity="1" d="M 465.5 160 L 466 161.5 L 462.5 166 L 462 164.5 L 465.5 160 Z " /><path fill="#ffffff" stroke="#ffffff" stroke-width="1" opacity="1" d="M 486.5 162 L 487 165.5 L 486 165.5 L 486.5 162 Z " /><path fill="#ffffff" stroke="#ffffff" stroke-width="1" opacity="1" d="M 460.5 166 L 461 168 L 456.5 170 L 456.5 169 L 460.5 166 Z " /><path fill="#ffffff" stroke="#ffffff" stroke-width="1" opacity="1" d="M 371.5 172 L 448 172.5 L 371.5 173 L 371.5 172 Z " /><path fill="#ffffff" stroke="#ffffff" stroke-width="1" opacity="1" d="M 481.5 177 L 480 179.5 L 471.5 189 L 459.5 196 L 451.5 198 L 442.5 198 L 437.5 201 L 438 199.5 Q 438.8 197.3 436.5 198 L 436.5 195 L 442.5 192 L 456.5 190 L 458.5 188 L 464.5 187 L 472 183 L 472.5 185 L 481.5 177 Z " /><path fill="#ffffff" stroke="#ffffff" stroke-width="1" opacity="1" d="M 61.5 194 L 63 196.5 L 61 195.5 L 61.5 194 Z " /><path fill="#ffffff" stroke="#ffffff" stroke-width="1" opacity="1" d="M 310.5 196 L 311 199.5 L 310 199.5 L 310.5 196 Z " /><path fill="#ffffff" stroke="#ffffff" stroke-width="1" opacity="1" d="M 152.5 197 L 149.5 201 L 152.5 197 Z " /><path fill="#ffffff" stroke="#ffffff" stroke-width="1" opacity="1" d="M 68.5 201 L 83 201.5 L 68.5 202 L 68.5 201 Z " /><path fill="#ffffff" stroke="#ffffff" stroke-width="1" opacity="1" d="M 141.5 201 L 148 201.5 L 141.5 202 L 141.5 201 Z " /><path fill="#ffffff" stroke="#ffffff" stroke-width="1" opacity="1" d="M 434.5 207 L 435 265.5 L 434 265.5 L 434.5 207 Z " /><path fill="#ffffff" stroke="#ffffff" stroke-width="1" opacity="1" d="M 305.5 210 L 301.5 215 L 299.5 216 L 300.5 214 L 305.5 210 Z " /><path fill="#ffffff" stroke="#ffffff" stroke-width="1" opacity="1" d="M 203.5 212 L 205 214.5 L 203 213.5 L 203.5 212 Z " /><path fill="#ffffff" stroke="#ffffff" stroke-width="1" opacity="1" d="M 68.5 213 L 147.5 213 L 152 215 L 154 219.5 L 152 220 L 153 223.5 L 151 222.5 Q 151.8 220.3 149.5 221 L 147.5 219 L 67.5 219 L 64 221 Q 65.3 218 61.5 219 L 61.5 218 L 63 218 Q 61.5 214.2 64.5 215 L 68.5 213 Z " /><path fill="#ffffff" stroke="#ffffff" stroke-width="1" opacity="1" d="M 289.5 218 L 293 218.5 L 289.5 219 L 289.5 218 Z " /><path fill="#ffffff" stroke="#ffffff" stroke-width="1" opacity="1" d="M 154.5 235 L 155 265.5 L 154 265.5 L 154.5 235 Z " /><path fill="#ffffff" stroke="#ffffff" stroke-width="1" opacity="1" d="M 329.5 241 L 330 246.5 L 329 246.5 L 329.5 241 Z " /><path fill="#ffffff" stroke="#ffffff" stroke-width="1" opacity="1" d="M 324.5 259 L 316.5 268 L 304.5 273 L 302.5 272 L 300.5 273 L 299.5 272 L 290.5 272 L 290.5 273 L 298 273.5 L 261.5 274 L 261.5 273 L 278 272.5 L 266.5 270 L 230.5 270 L 230.5 271 L 232 271.5 L 214 272.5 L 217 273.5 L 191.5 274 L 187 271.5 Q 186.2 268.9 189.5 270 L 189.5 268 L 193.5 266 L 221.5 266 L 222.5 267 L 270.5 267 L 271.5 266 L 303.5 266 L 315.5 261 L 319.5 264 L 324.5 259 Z M 203 272 L 203 273 L 208 273 L 203 272 Z " /><path fill="#ffffff" stroke="#ffffff" stroke-width="1" opacity="1" d="M 60.5 265 L 61 267.5 L 60 267.5 L 60.5 265 Z " /><path fill="#ffffff" stroke="#ffffff" stroke-width="1" opacity="1" d="M 21.5 266 L 53.5 266 L 54 267.5 L 57 268.5 Q 54.8 269.8 57.5 271 L 59 270.5 L 51.5 274 L 20.5 274 L 14 269.5 L 16.5 271 L 21.5 266 Z " /><path fill="#ffffff" stroke="#ffffff" stroke-width="1" opacity="1" d="M 348.5 266 L 403.5 267 L 404.5 266 L 427.5 266 L 431 271.5 L 429.5 273 L 420.5 273 L 419.5 274 L 348 274 L 347.5 272 L 345.5 273 L 341 269.5 L 343.5 271 L 346 271 L 346 267 L 347.5 267 L 348.5 266 Z M 385 270 L 385 271 L 398 271 L 385 270 Z M 375 271 L 374 272 L 357 272 L 357 273 L 413 273 L 380 272 L 375 271 Z " /><path fill="#ffffff" stroke="#ffffff" stroke-width="1" opacity="1" d="M 184.5 268 L 185.5 270 L 184.5 268 Z " /><path fill="#ffffff" stroke="#ffffff" stroke-width="1" opacity="1" d="M 431.5 269 L 432.5 271 L 431.5 269 Z " /><path fill="#ffffff" stroke="#ffffff" stroke-width="1" opacity="1" d="M 222.5 273 L 235 273.5 L 222.5 274 L 222.5 273 Z " /><path fill="#ffffff" stroke="#ffffff" stroke-width="1" opacity="1" d="M 76.5 12 L 83 12.5 L 76.5 13 L 76.5 12 Z " /><path fill="#ffffff" stroke="#ffffff" stroke-width="1" opacity="1" d="M 137.5 12 L 144 12.5 L 137.5 13 L 137.5 12 Z " /><path fill="#ffffff" stroke="#ffffff" stroke-width="1" opacity="1" d="M 286.5 12 L 292 12.5 L 286.5 13 L 286.5 12 Z " /><path fill="#ffffff" stroke="#ffffff" stroke-width="1" opacity="1" d="M 346.5 12 L 356 12.5 L 346.5 13 L 341 17.5 L 340 20.5 L 339.5 266 L 339 20.5 L 344.5 13 L 346.5 12 Z " /><path fill="#ffffff" stroke="#ffffff" stroke-width="1" opacity="1" d="M 441.5 12 L 451 12.5 L 441.5 13 L 441.5 12 Z " /><path fill="#ffffff" stroke="#ffffff" stroke-width="1" opacity="1" d="M 71.5 13 L 74 13.5 L 71.5 14 L 71.5 13 Z " /><path fill="#ffffff" stroke="#ffffff" stroke-width="1" opacity="1" d="M 145.5 13 L 148 13.5 L 145.5 14 L 145.5 13 Z " /><path fill="#ffffff" stroke="#ffffff" stroke-width="1" opacity="1" d="M 187.5 13 L 189 13.5 L 185 16.5 L 184.5 18 L 184 16.5 L 187.5 13 Z " /><path fill="#ffffff" stroke="#ffffff" stroke-width="1" opacity="1" d="M 294.5 13 L 300 14.5 L 298.5 15 L 294.5 14 L 294.5 13 Z " /><path fill="#ffffff" stroke="#ffffff" stroke-width="1" opacity="1" d="M 452.5 13 L 455 13.5 L 452.5 14 L 452.5 13 Z " /><path fill="#ffffff" stroke="#ffffff" stroke-width="1" opacity="1" d="M 68.5 14 L 70 14.5 L 66.5 16 L 66.5 15 L 68.5 14 Z " /><path fill="#ffffff" stroke="#ffffff" stroke-width="1" opacity="1" d="M 459.5 15 L 464 17.5 L 462.5 17 Q 458.8 16.8 459.5 15 Z " /><path fill="#ffffff" stroke="#ffffff" stroke-width="1" opacity="1" d="M 63.5 16 L 65 16.5 L 61.5 19 L 63.5 16 Z " /><path fill="#ffffff" stroke="#ffffff" stroke-width="1" opacity="1" d="M 154.5 16 L 155.5 18 L 154.5 16 Z " /><path fill="#ffffff" stroke="#ffffff" stroke-width="1" opacity="1" d="M 304.5 16 L 307 17.5 L 305.5 17 L 304.5 16 Z " /><path fill="#ffffff" stroke="#ffffff" stroke-width="1" opacity="1" d="M 157.5 18 L 159.5 21 L 157.5 18 Z " /><path fill="#ffffff" stroke="#ffffff" stroke-width="1" opacity="1" d="M 308.5 18 L 314 22.5 L 310.5 20 L 308.5 18 Z " /><path fill="#ffffff" stroke="#ffffff" stroke-width="1" opacity="1" d="M 59.5 19 L 58.5 21 L 59.5 19 Z " /><path fill="#ffffff" stroke="#ffffff" stroke-width="1" opacity="1" d="M 183.5 19 L 184 21.5 L 183 21.5 L 183.5 19 Z " /><path fill="#ffffff" stroke="#ffffff" stroke-width="1" opacity="1" d="M 467.5 19 L 480 30.5 L 483 35.5 L 481 34.5 Q 477.3 25.7 469.5 21 L 467.5 19 Z " /><path fill="#ffffff" stroke="#ffffff" stroke-width="1" opacity="1" d="M 56.5 21 L 50.5 28 L 56.5 21 Z " /><path fill="#ffffff" stroke="#ffffff" stroke-width="1" opacity="1" d="M 161.5 21 L 163.5 24 L 161.5 21 Z " /><path fill="#ffffff" stroke="#ffffff" stroke-width="1" opacity="1" d="M 317.5 25 L 318.5 27 L 317.5 25 Z " /><path fill="#ffffff" stroke="#ffffff" stroke-width="1" opacity="1" d="M 166.5 27 L 168.5 30 L 166.5 27 Z " /><path fill="#ffffff" stroke="#ffffff" stroke-width="1" opacity="1" d="M 49.5 29 L 48.5 31 L 49.5 29 Z " /><path fill="#ffffff" stroke="#ffffff" stroke-width="1" opacity="1" d="M 321.5 30 L 326 36.5 L 324 35.5 L 321.5 30 Z " /><path fill="#ffffff" stroke="#ffffff" stroke-width="1" opacity="1" d="M 47.5 32 L 46.5 34 L 47.5 32 Z " /><path fill="#ffffff" stroke="#ffffff" stroke-width="1" opacity="1" d="M 80.5 35 L 140 35.5 L 80.5 36 L 80.5 35 Z " /><path fill="#ffffff" stroke="#ffffff" stroke-width="1" opacity="1" d="M 204.5 35 L 290 35.5 L 204 36 L 203.5 212 L 203 36.5 L 204.5 35 Z " /><path fill="#ffffff" stroke="#ffffff" stroke-width="1" opacity="1" d="M 361.5 35 L 448 35.5 L 361 36 L 360.5 39 L 360 36.5 L 361.5 35 Z " /><path fill="#ffffff" stroke="#ffffff" stroke-width="1" opacity="1" d="M 141.5 36 L 147 39.5 L 144.5 38 Q 140.8 37.8 141.5 36 Z " /><path fill="#ffffff" stroke="#ffffff" stroke-width="1" opacity="1" d="M 74.5 37 L 73.5 39 L 70.5 41 L 72.5 38 L 74.5 37 Z " /><path fill="#ffffff" stroke="#ffffff" stroke-width="1" opacity="1" d="M 452.5 37 L 455 38.5 L 453.5 38 L 452.5 37 Z " /><path fill="#ffffff" stroke="#ffffff" stroke-width="1" opacity="1" d="M 297.5 38 L 298.5 40 L 297.5 38 Z " /><path fill="#ffffff" stroke="#ffffff" stroke-width="1" opacity="1" d="M 326.5 38 L 328 41.5 L 327 41.5 L 326.5 38 Z " /><path fill="#ffffff" stroke="#ffffff" stroke-width="1" opacity="1" d="M 456.5 39 L 463.5 47 L 456.5 39 Z " /><path fill="#ffffff" stroke="#ffffff" stroke-width="1" opacity="1" d="M 300.5 40 L 305.5 46 L 300.5 40 Z " /><path fill="#ffffff" stroke="#ffffff" stroke-width="1" opacity="1" d="M 148.5 41 L 150.5 44 L 148.5 41 Z " /><path fill="#ffffff" stroke="#ffffff" stroke-width="1" opacity="1" d="M 173.5 42 L 174 50.5 L 173 50.5 L 173.5 42 Z " /><path fill="#ffffff" stroke="#ffffff" stroke-width="1" opacity="1" d="M 67.5 43 L 65.5 46 L 67.5 43 Z " /><path fill="#ffffff" stroke="#ffffff" stroke-width="1" opacity="1" d="M 328.5 43 L 330 49.5 L 329 49.5 L 328.5 43 Z " /><path fill="#ffffff" stroke="#ffffff" stroke-width="1" opacity="1" d="M 486.5 44 L 487 46.5 L 486 46.5 L 486.5 44 Z " /><path fill="#ffffff" stroke="#ffffff" stroke-width="1" opacity="1" d="M 41.5 47 L 42 55.5 L 41 55.5 L 41.5 47 Z " /><path fill="#ffffff" stroke="#ffffff" stroke-width="1" opacity="1" d="M 306.5 47 L 309 51.5 L 308 51.5 L 306.5 47 Z " /><path fill="#ffffff" stroke="#ffffff" stroke-width="1" opacity="1" d="M 487.5 48 L 488 164.5 L 487 164.5 L 487.5 48 Z " /><path fill="#ffffff" stroke="#ffffff" stroke-width="1" opacity="1" d="M 153.5 50 L 154 194.5 L 153 194.5 L 153.5 50 Z " /><path fill="#ffffff" stroke="#ffffff" stroke-width="1" opacity="1" d="M 62.5 51 L 63 53.5 L 62 53.5 L 62.5 51 Z " /><path fill="#ffffff" stroke="#ffffff" stroke-width="1" opacity="1" d="M 466.5 52 L 467 54.5 L 466 54.5 L 466.5 52 Z " /><path fill="#ffffff" stroke="#ffffff" stroke-width="1" opacity="1" d="M 309.5 53 L 310 55.5 L 309 55.5 L 309.5 53 Z " /><path fill="#ffffff" stroke="#ffffff" stroke-width="1" opacity="1" d="M 330.5 53 L 331 244.5 L 330 244.5 L 330.5 53 Z " /><path fill="#ffffff" stroke="#ffffff" stroke-width="1" opacity="1" d="M 61.5 56 L 62 193.5 L 61 193.5 L 61.5 56 Z " /><path fill="#ffffff" stroke="#ffffff" stroke-width="1" opacity="1" d="M 467.5 56 L 468 153.5 L 467 153.5 L 467.5 56 Z " /><path fill="#ffffff" stroke="#ffffff" stroke-width="1" opacity="1" d="M 310.5 60 L 311 195.5 L 310 195.5 L 310.5 60 Z " /><path fill="#ffffff" stroke="#ffffff" stroke-width="1" opacity="1" d="M 28.5 119 L 30 119.5 L 26.5 121 L 26.5 120 L 28.5 119 Z " /><path fill="#ffffff" stroke="#ffffff" stroke-width="1" opacity="1" d="M 24.5 121 L 23.5 123 L 24.5 121 Z " /><path fill="#ffffff" stroke="#ffffff" stroke-width="1" opacity="1" d="M 18.5 127 L 17.5 129 L 18.5 127 Z " /><path fill="#ffffff" stroke="#ffffff" stroke-width="1" opacity="1" d="M 12.5 142 L 13 150.5 L 12 150.5 L 12.5 142 Z " /><path fill="#ffffff" stroke="#ffffff" stroke-width="1" opacity="1" d="M 466.5 155 L 467 157.5 L 462 166 L 452.5 171 L 452.5 170 Q 460.4 167.9 464 161.5 L 466.5 155 Z " /><path fill="#ffffff" stroke="#ffffff" stroke-width="1" opacity="1" d="M 486.5 166 L 487 168.5 L 485.5 171 L 485 169.5 L 486.5 166 Z " /><path fill="#ffffff" stroke="#ffffff" stroke-width="1" opacity="1" d="M 363.5 171 L 375 171.5 L 363.5 172 L 363.5 171 Z " /><path fill="#ffffff" stroke="#ffffff" stroke-width="1" opacity="1" d="M 434.5 171 L 451 171.5 L 434.5 172 L 434.5 171 Z " /><path fill="#ffffff" stroke="#ffffff" stroke-width="1" opacity="1" d="M 484.5 172 L 485 173.5 L 482.5 177 L 483 175.5 L 484.5 172 Z " /><path fill="#ffffff" stroke="#ffffff" stroke-width="1" opacity="1" d="M 481.5 178 L 481 179.5 L 480 183 Q 477.3 181.9 478 184.5 L 475 186 Q 476.1 188.7 473.5 188 L 459.5 197 L 452.5 198 L 452.5 197 Q 471.3 193.8 480 180.5 L 481.5 178 Z " /><path fill="#ffffff" stroke="#ffffff" stroke-width="1" opacity="1" d="M 152.5 196 L 148.5 201 L 146 200.5 Q 151.1 200.1 152.5 196 Z " /><path fill="#ffffff" stroke="#ffffff" stroke-width="1" opacity="1" d="M 63.5 197 L 65.5 200 L 63.5 197 Z " /><path fill="#ffffff" stroke="#ffffff" stroke-width="1" opacity="1" d="M 309.5 198 L 310 201.5 L 309 201.5 L 309.5 198 Z " /><path fill="#ffffff" stroke="#ffffff" stroke-width="1" opacity="1" d="M 442.5 198 L 451 198.5 Q 441.5 197.5 437.5 202 L 438.5 200 L 442.5 198 Z " /><path fill="#ffffff" stroke="#ffffff" stroke-width="1" opacity="1" d="M 67.5 200 L 70 200.5 L 67.5 201 L 67.5 200 Z " /><path fill="#ffffff" stroke="#ffffff" stroke-width="1" opacity="1" d="M 83.5 201 L 141 201.5 L 83.5 202 L 83.5 201 Z " /><path fill="#ffffff" stroke="#ffffff" stroke-width="1" opacity="1" d="M 306.5 208 L 301.5 214 L 306.5 208 Z " /><path fill="#ffffff" stroke="#ffffff" stroke-width="1" opacity="1" d="M 299.5 214 L 298.5 216 L 299.5 214 Z " /><path fill="#ffffff" stroke="#ffffff" stroke-width="1" opacity="1" d="M 205.5 215 L 206.5 217 L 205.5 215 Z " /><path fill="#ffffff" stroke="#ffffff" stroke-width="1" opacity="1" d="M 211.5 218 L 289 218.5 L 211.5 219 L 211.5 218 Z " /><path fill="#ffffff" stroke="#ffffff" stroke-width="1" opacity="1" d="M 67.5 219 L 71 219.5 L 66.5 221 L 67.5 219 Z " /><path fill="#ffffff" stroke="#ffffff" stroke-width="1" opacity="1" d="M 145.5 219 L 149 220.5 L 147.5 220 Q 144.5 220.5 145.5 219 Z " /><path fill="#ffffff" stroke="#ffffff" stroke-width="1" opacity="1" d="M 63.5 223 L 63 224.5 L 62.5 226 L 62 224.5 L 63.5 223 Z " /><path fill="#ffffff" stroke="#ffffff" stroke-width="1" opacity="1" d="M 151.5 223 L 152.5 225 L 151.5 223 Z " /><path fill="#ffffff" stroke="#ffffff" stroke-width="1" opacity="1" d="M 153.5 226 L 154 268.5 L 157.5 273 L 160 273.5 L 157.5 274 L 153 268.5 L 153.5 226 Z " /><path fill="#ffffff" stroke="#ffffff" stroke-width="1" opacity="1" d="M 61.5 227 L 62 265.5 L 61 265.5 L 61.5 227 Z " /><path fill="#ffffff" stroke="#ffffff" stroke-width="1" opacity="1" d="M 329.5 247 L 330 249.5 L 329 249.5 L 329.5 247 Z " /><path fill="#ffffff" stroke="#ffffff" stroke-width="1" opacity="1" d="M 12.5 250 L 13 263.5 L 12 263.5 L 12.5 250 Z " /><path fill="#ffffff" stroke="#ffffff" stroke-width="1" opacity="1" d="M 328.5 251 L 329 253.5 L 325.5 259 L 326 257.5 L 328.5 251 Z " /><path fill="#ffffff" stroke="#ffffff" stroke-width="1" opacity="1" d="M 324.5 260 L 317.5 268 L 324.5 260 Z " /><path fill="#ffffff" stroke="#ffffff" stroke-width="1" opacity="1" d="M 183.5 265 L 184 267.5 L 183 267.5 L 183.5 265 Z " /><path fill="#ffffff" stroke="#ffffff" stroke-width="1" opacity="1" d="M 434.5 266 L 435 268.5 L 433 269.5 L 434.5 266 Z " /><path fill="#ffffff" stroke="#ffffff" stroke-width="1" opacity="1" d="M 60.5 268 L 59.5 270 L 60.5 268 Z " /><path fill="#ffffff" stroke="#ffffff" stroke-width="1" opacity="1" d="M 315.5 268 L 314.5 270 L 315.5 268 Z " /><path fill="#ffffff" stroke="#ffffff" stroke-width="1" opacity="1" d="M 173.5 269 L 174 270.5 L 171 272.5 L 173.5 269 Z " /><path fill="#ffffff" stroke="#ffffff" stroke-width="1" opacity="1" d="M 184.5 269 L 187.5 273 L 184.5 269 Z " /><path fill="#ffffff" stroke="#ffffff" stroke-width="1" opacity="1" d="M 14.5 270 L 16.5 273 L 14.5 270 Z " /><path fill="#ffffff" stroke="#ffffff" stroke-width="1" opacity="1" d="M 309.5 271 L 311 271.5 L 306.5 273 L 306.5 272 L 309.5 271 Z " /><path fill="#ffffff" stroke="#ffffff" stroke-width="1" opacity="1" d="M 431.5 271 L 430.5 273 L 431.5 271 Z " /><path fill="#ffffff" stroke="#ffffff" stroke-width="1" opacity="1" d="M 56.5 272 L 55.5 274 L 52 273.5 L 56.5 272 Z " /><path fill="#ffffff" stroke="#ffffff" stroke-width="1" opacity="1" d="M 217.5 273 L 222 273.5 L 217.5 274 L 217.5 273 Z " /><path fill="#ffffff" stroke="#ffffff" stroke-width="1" opacity="1" d="M 235.5 273 L 261 273.5 L 235.5 274 L 235.5 273 Z " /><path fill="#ffffff" stroke="#ffffff" stroke-width="1" opacity="1" d="M 298.5 273 L 305 273.5 L 298.5 274 L 298.5 273 Z " /><path fill="#ffffff" stroke="#ffffff" stroke-width="1" opacity="1" d="M 420.5 273 L 429 273.5 L 420.5 274 L 420.5 273 Z " /><path fill="#ffffff" stroke="#ffffff" stroke-width="1" opacity="1" d="M 78.5 22 L 140.5 22 Q 142.2 24.8 147.5 24 L 157 29 L 163.5 38 L 167 40.5 L 168 50.5 L 170 53.5 L 170 260.5 L 172 268.5 L 170.5 269 L 168.5 266 Q 167.3 268.3 166 265.5 L 169 264.5 Q 165.1 255.4 167 240.5 L 168 239.5 L 168 208.5 L 167 207.5 L 167 48.5 L 162.5 41 L 159 40 L 160 47.5 L 157 46.5 Q 155.8 51.8 158.5 53 Q 161.3 52.4 160 58.5 L 160.5 60 L 159 60.5 L 160 61.5 L 160 183.5 L 161 184.5 L 161 205 L 157 207.5 L 160 210.5 L 160 223.5 L 158 226.5 L 160 229.5 L 160 261.5 L 158 264.5 L 159.5 264 L 164 264.5 L 160.5 267 L 159.5 266 L 157 267.5 Q 155.5 260 158 256.5 L 157 255.5 L 157 231.5 Q 154.7 230.3 156 225.5 Q 158.2 224.2 157 219.5 L 150 210.5 L 159 203.5 L 159 185.5 L 158 184.5 L 158 68.5 L 157 67.5 L 156 45 Q 153.3 46.1 154 43.5 Q 157 42.3 156 38 Q 153 39.3 154 35.5 L 144.5 28 L 133.5 26 L 132.5 27 L 78.5 27 L 75.5 28 L 76.5 26 L 85 24.5 L 76 23.5 L 78.5 22 Z M 133 24 L 133 25 L 141 25 L 133 24 Z M 142 25 L 143 27 L 144 27 L 142 25 Z " /><path fill="#ffffff" stroke="#ffffff" stroke-width="1" opacity="1" d="M 195.5 22 L 287.5 22 Q 289.8 25.2 296.5 24 L 307.5 29 L 319 40.5 Q 318.5 45 322 45.5 L 322 51.5 L 326 57.5 L 326 223.5 L 327 224.5 L 327 249.5 L 324 253.5 Q 326.3 254.8 323.5 256 L 320.5 255 L 315 258.5 L 315.5 260 L 308 262 Q 309.3 265 305.5 264 L 302.5 265 L 267.5 266 L 265.5 266 L 214.5 266 Q 212.8 263.2 206.5 265 L 201.5 266 L 195 264.5 L 213.5 264 L 215.5 264 Q 222.3 262.7 225.5 265 L 226.5 264 L 301.5 264 Q 302.9 260.8 308 262 Q 306.7 258.7 311.5 260 L 319.5 252 L 323 252 Q 321.9 249.3 324.5 250 L 326 247.5 L 324 237.5 L 324 59.5 L 321 53.5 L 321 50.5 L 318.5 48 Q 316.3 47.3 317 49.5 L 314 58.5 L 316 67.5 L 316 191.5 Q 320 195 318 204.5 L 316.5 207 L 316 194.5 L 315 193.5 L 315 72.5 L 314 71.5 L 314 61.5 L 312 51.5 L 310 48.5 Q 312.3 47.3 311 42.5 Q 308 35 301.5 31 L 285.5 26 L 284.5 27 L 205.5 27 L 200 30.5 L 200 50.5 L 199 51.5 L 199 200.5 L 198 201.5 L 197.5 211 L 196 199.5 Q 198.5 198 197 192.5 L 196 191.5 L 196 176.5 L 197 175.5 L 197 160.5 L 196 159.5 L 196 144.5 L 197 143.5 L 197 48.5 L 198 44.5 L 197 43.5 L 197 32.5 L 199.5 27 L 202 28 L 203.5 25 L 213 24.5 L 194.5 24 L 191 26.5 L 190 29.5 L 190 207.5 L 191 208.5 L 191 223.5 L 190 224.5 L 190 259.5 L 187 265 L 189 265.5 L 187.5 266 Q 185.3 265.3 186 261.5 L 187 260.5 L 187 250.5 L 188 249.5 L 189 210.5 L 188 209.5 L 188 29.5 L 192.5 23 L 195.5 22 Z M 285 24 L 285 25 L 289 25 L 285 24 Z M 302 29 L 304 31 L 306 31 L 302 29 Z M 307 31 L 308 33 Q 309 30 307 31 Z M 311 35 L 311 39 L 315 40 L 311 35 Z " /><path fill="#ffffff" stroke="#ffffff" stroke-width="1" opacity="1" d="M 350.5 22 L 443.5 22 L 444.5 23 L 453.5 23 L 465.5 29 L 476 39.5 L 476 42.5 L 483 53.5 L 484 79.5 L 483 80.5 L 483 127.5 L 484 128.5 L 484 155.5 Q 486.7 157.3 485 163.5 L 483 162.5 L 482 159.5 L 482 144.5 L 481 143.5 L 481 128.5 L 480 127.5 L 480 80.5 L 481 79.5 L 481 64.5 L 480 63.5 L 480 54.5 Q 477.4 53.1 478 48.5 L 475.5 46 Q 470.7 44.3 472 48.5 L 471 50.5 Q 473.5 52 472 57.5 L 471 58.5 L 474 61.5 L 474 79.5 L 476 80.5 L 476 95.5 L 475 96.5 L 475 111.5 L 474 112.5 L 474 143.5 Q 477.4 149.6 476 160.5 L 470 171.5 L 465 176.5 L 463 182 L 469 177.5 Q 468.3 175.3 470.5 176 L 473.5 172 L 480 173.5 L 476 174.5 L 480 175.5 Q 478.3 179.8 476.5 177 Q 472 176 471 178.5 L 471.5 180 L 459.5 186 L 461 183.5 L 461 181 L 456 181 L 458 184.5 L 455 185 Q 453.9 187.7 456.5 187 L 458 186.5 L 456.5 188 Q 445.2 188.2 437.5 192 L 439.5 189 L 441 189.5 L 441.5 188 L 450 188 L 450 185 L 447.5 184 L 384.5 184 L 383.5 183 L 363.5 183 L 355 180 Q 351.9 176.2 353 168 L 355 168.5 L 355 176.5 L 362.5 181 Q 372.8 179.7 379.5 182 L 380.5 181 L 453.5 181 Q 463.8 178.3 469 170.5 L 474 159.5 L 474 151.5 L 471 146.5 L 471 132.5 L 472 127.5 Q 469.5 126 471 120.5 L 472 115.5 L 470 110.5 L 472 108.5 L 472 71 L 470 70.5 Q 473.8 68.8 472 61.5 L 470 61.5 L 470 57.5 L 467 51.5 L 467 49.5 L 468 44.5 L 468 42.5 L 468 39.5 L 459.5 31 L 448.5 27 L 363.5 27 L 357 29 L 356 33.5 L 357 34.5 L 357 42.5 L 356 42.5 L 355 34 Q 352.3 35.1 353 32.5 L 354 29 L 362.5 25 L 367.5 26 L 373 24.5 L 367.5 24 L 365.5 25 L 362.5 23 L 361.5 24 L 350.5 24 L 348 25 L 346 34.5 L 346 252.5 L 347 253.5 L 347 260 Q 344.3 258.9 345 261.5 L 344 265.5 L 345 265.5 L 345.5 264 L 348 264.5 L 344.5 267 Q 340.3 265.3 343 263.5 L 344 260.5 L 344 34.5 L 346 23 L 350.5 22 Z M 441 24 L 441 25 L 449 25 L 450 26 L 451 26 L 450 24 L 441 24 Z M 455 27 L 455 28 L 462 31 Q 465 32 464 29 Q 461 26 455 27 Z " /><path fill="#ffffff" stroke="#ffffff" stroke-width="1" opacity="1" d="M 73.5 24 L 75 24.5 L 68 27 Q 66.7 30.3 71.5 29 L 71.5 30 L 64 35.5 Q 59.7 37.7 61 45.5 Q 63.3 46.8 60.5 48 L 55.5 49 L 51 47.5 L 55 45.5 L 57 38 Q 54 36.8 55 40.5 L 51.5 46 Q 49.3 45.3 50 47.5 L 49 50.5 L 49 57.5 L 47 64.5 L 47 99.5 L 48 100.5 L 48 111.5 L 49 113.5 L 47 120.5 L 41.5 126 L 34 130 Q 35.4 133.7 29.5 132 L 19 144.5 L 19 191.5 L 20 192.5 L 20 207.5 L 19 208.5 L 19 259.5 L 16 263.5 L 21 265.5 L 16.5 268 L 14 266.5 L 14 264.5 Q 13 260.8 16 262 L 16 258.5 L 17 254.5 L 16 253.5 L 16 240.5 L 17 239.5 L 17 178.5 L 16 177.5 L 16 144.5 L 19 143.5 L 27.5 132 L 33.5 128 L 37 128 L 38.5 125 L 45 119.5 L 47 113.5 L 46 110.5 L 46 100.5 L 45 99.5 L 45 64.5 L 46 63.5 L 46 51.5 L 52 43.5 L 55 36.5 L 59.5 32 Q 65 26.5 73.5 24 Z M 63 31 Q 62 34 65 33 Q 66 30 63 31 Z M 60 34 L 58 37 Q 60 40 61 37 L 60 34 Z " /><path fill="#ffffff" stroke="#ffffff" stroke-width="1" opacity="1" d="M 355.5 44 L 356 73.5 L 355 75.5 L 356 76.5 L 356 158.5 Q 353.8 159.8 355 164.5 L 353.5 166 L 353 160.5 L 354 159.5 L 354 46.5 L 355.5 44 Z " /><path fill="#ffffff" stroke="#ffffff" stroke-width="1" opacity="1" d="M 59.5 50 L 61 54.5 L 58 59.5 L 57 111.5 L 58 112.5 L 58 182.5 L 56 192.5 L 54 195.5 L 60.5 207 L 64 208 Q 62.5 211.8 65.5 211 L 64.5 213 L 60.5 215 L 60 213.5 L 61 211.5 L 53 194.5 L 55 191.5 L 55 176.5 L 56 175.5 L 56 112.5 L 55 111.5 L 55 96.5 L 56 95.5 L 57 56.5 L 59.5 50 Z " /><path fill="#ffffff" stroke="#ffffff" stroke-width="1" opacity="1" d="M 483.5 166 L 484 169.5 L 481.5 174 L 481 167 L 483.5 166 Z " /><path fill="#ffffff" stroke="#ffffff" stroke-width="1" opacity="1" d="M 433 193 L 436 193.5 L 434 194 L 432 204.5 L 433 208.5 L 431 212.5 L 431 260.5 L 432 265.5 Q 430.8 268.3 429.5 266 L 413.5 265 L 412.5 266 L 353.5 266 L 353.5 265 L 355.5 264 L 425.5 264 L 427.5 264 Q 431.9 265.5 431 262.5 L 429 259.5 L 429 212.5 Q 431.5 211 430 205.5 L 428 201.5 Q 431 200.3 430 196 Q 434.5 197.5 433 193 Z " /><path fill="#ffffff" stroke="#ffffff" stroke-width="1" opacity="1" d="M 315.5 210 L 316 213 L 313 214.5 Q 313.6 221.1 309.5 223 L 305 224 L 315.5 210 Z " /><path fill="#ffffff" stroke="#ffffff" stroke-width="1" opacity="1" d="M 196.5 213 Q 196.6 220.4 200.5 224 L 208.5 228 L 296 228 Q 294.7 224.7 299.5 226 L 304 224 L 303 228 L 286.5 229 L 285.5 230 L 220.5 230 L 219.5 229 L 207.5 229 L 198 223.5 Q 194.6 220 196.5 213 Z " /><path fill="#ffffff" stroke="#ffffff" stroke-width="1" opacity="1" d="M 59.5 216 L 60 219.5 L 59 222 L 62 223.5 L 60 223.5 L 61 225.5 L 59 225.5 Q 56.6 230.6 58 239.5 L 57 240.5 L 57 253.5 Q 59.3 254.8 58 259.5 L 60 262.5 L 60 268 L 54 265.5 L 56 264.5 L 55 262.5 L 56 261.5 L 56 240.5 L 55 237.5 L 56 236.5 L 57 224 Q 60 225 59 222 L 57 222 L 57 217 L 59.5 216 Z " /><path fill="#ffffff" stroke="#ffffff" stroke-width="1" opacity="1" d="M 25.5 261 L 26 264 L 30 264.5 L 23.5 265 L 23.5 264 Q 26.4 264.7 25.5 261 Z " /><path fill="#ffffff" stroke="#ffffff" stroke-width="1" opacity="1" d="M 40.5 264 L 50 264.5 L 40.5 265 L 40.5 264 Z " /><path fill="#ffffff" stroke="#ffffff" stroke-width="1" opacity="1" d="M 362.5 23 L 366.5 25 Q 367.8 22.7 372.5 24 L 372.5 25 L 363.5 26 L 360.5 25 L 354 29 L 353 34 Q 356 32.8 355 36.5 L 356 40 Q 353.3 41.1 354 38.5 Q 351.2 36.5 352 32 Q 349 33 350 30 L 347 30 L 347 28.5 L 348 25 L 350.5 24 L 361.5 24 L 362.5 23 Z " /><path fill="#ffffff" stroke="#ffffff" stroke-width="1" opacity="1" d="M 75.5 24 L 78.5 25 L 80 25.5 Q 75.8 25.3 74.5 28 L 70 26.5 Q 74.3 26.8 75.5 24 Z " /><path fill="#ffffff" stroke="#ffffff" stroke-width="1" opacity="1" d="M 135.5 24 Q 142 23 144 26.5 L 142.5 27 Q 141.3 23.8 135.5 25 L 135.5 24 Z " /><path fill="#ffffff" stroke="#ffffff" stroke-width="1" opacity="1" d="M 194.5 24 L 213 24.5 L 203.5 25 L 202 26.5 Q 202.8 28.8 200.5 28 Q 199.3 25.8 198 28.5 L 197.5 32 L 197 26 Q 194.3 24.9 195 27.5 L 193.5 30 L 193 28 Q 190.3 29.1 191 26.5 L 194.5 24 Z " /><path fill="#ffffff" stroke="#ffffff" stroke-width="1" opacity="1" d="M 440.5 24 L 446 24.5 L 440.5 25 L 440.5 24 Z " /><path fill="#ffffff" stroke="#ffffff" stroke-width="1" opacity="1" d="M 448.5 24 L 453 26.5 L 451.5 27 L 448.5 24 Z " /><path fill="#ffffff" stroke="#ffffff" stroke-width="1" opacity="1" d="M 300.5 28 L 308 31 L 315 39.5 L 312.5 40 L 305.5 31 Q 300.5 30.8 300.5 28 Z " /><path fill="#ffffff" stroke="#ffffff" stroke-width="1" opacity="1" d="M 190.5 29 L 191 64 L 196 63.5 L 196 48.5 L 197 46.5 Q 194.3 43.2 195 36.5 L 196.5 34 L 198 47.5 L 197 48.5 L 197 143.5 L 196 144.5 L 196 159.5 L 197 160.5 L 197 175.5 L 196 176.5 L 196 191.5 Q 198.5 193 197 198.5 L 196 203.5 L 197 206 L 195 206.5 L 195 220 Q 197.7 218.9 197 221.5 L 199.5 225 L 207.5 229 L 219.5 229 L 220.5 230 L 285.5 230 L 286.5 229 Q 295.1 229.8 300 228 Q 301.9 233.6 297 232 L 296.5 230 L 286 230 L 285.5 232 L 200 232 Q 201 225.6 195.5 224 Q 191 223.5 191 224.5 L 191 259.5 Q 192.6 262.5 198 261 L 198 264 L 190.5 264 L 187 265 L 190 259.5 L 191 208.5 L 190 207.5 L 190.5 29 Z M 191 80 L 191 96 L 196 96 L 196 81 L 191 80 Z M 191 112 L 191 128 L 196 128 L 196 113 L 191 112 Z M 191 144 L 191 160 L 195 160 L 195 145 L 191 144 Z M 191 176 L 191 200 L 195 201 L 196 199 Q 198 193 195 192 L 195 177 L 191 176 Z M 190 262 L 188 264 L 190 264 L 190 262 Z " /><path fill="#ffffff" stroke="#ffffff" stroke-width="1" opacity="1" d="M 63 31 Q 66 30 65 33 Q 62 34 63 31 Z " /><path fill="#ffffff" stroke="#ffffff" stroke-width="1" opacity="1" d="M 59.5 34 L 61 36.5 Q 59.5 39.5 58 36.5 L 59.5 34 Z " /><path fill="#ffffff" stroke="#ffffff" stroke-width="1" opacity="1" d="M 346.5 34 L 347 111.5 L 346 111.5 L 346.5 34 Z " /><path fill="#ffffff" stroke="#ffffff" stroke-width="1" opacity="1" d="M 55.5 38 Q 58.5 37.1 57 41.5 L 53.5 47 L 51 47.5 L 55.5 49 L 60 48 L 61 50.5 L 58 51.5 L 57 66.5 L 56 67.5 L 55 111.5 L 56 112.5 L 56 175.5 L 55 176.5 L 55 191.5 L 53 196.5 L 53.5 198 L 52 196.5 L 52 113 L 48 111.5 L 48 100.5 L 47 99.5 L 47 64.5 L 49.5 55 L 55 56 L 55 64 L 48.5 64 L 48 64.5 L 48 96 L 52 95.5 L 52 80.5 L 55 79.5 L 55 67.5 L 56 66.5 Q 54.3 58.3 57 54.5 L 55.5 52 L 55 54 L 52 54 Q 53 51 50 52 L 49.5 54 L 49 50.5 L 50 47.5 Q 49.3 45.3 51.5 46 L 56 39.5 L 55.5 38 Z " /><path fill="#ffffff" stroke="#ffffff" stroke-width="1" opacity="1" d="M 159 40 L 164 42.5 L 167 48.5 L 167 61.5 L 166 61.5 L 166 48.5 L 164 48 L 163.5 50 L 162.5 46 L 162 50 L 160 50.5 L 162.5 57 Q 163.8 54.8 165 57.5 L 162 58 L 160.5 68 L 159 60.5 L 161 59.5 L 160 53 L 157 51.5 L 157.5 46 L 160 47.5 L 159 40 Z " /><path fill="#ffffff" stroke="#ffffff" stroke-width="1" opacity="1" d="M 353.5 43 L 356 43.5 L 354 46.5 L 353.5 160 L 352.5 46 L 351.5 48 L 351 44 L 353.5 43 Z " /><path fill="#ffffff" stroke="#ffffff" stroke-width="1" opacity="1" d="M 472 46 Q 476.7 45 478 48.5 Q 477.4 53.1 480 54.5 L 480 63.5 L 481 64.5 L 481 79.5 L 480 80.5 L 480 127.5 L 481 128.5 L 482 159.5 L 484 165.5 L 481 167 Q 482.3 171.6 479.5 173 L 473.5 172 L 470.5 176 Q 468.3 175.3 469 177.5 L 463 182 L 465 176.5 L 470 171.5 L 476 160.5 L 476 149.5 L 474 143.5 L 474 112.5 L 475 111.5 L 476 80 L 474 79.5 L 474 61.5 L 471 58.5 L 472 57.5 L 472.5 52 L 473 59 L 478.5 60 L 479 56 Q 474.5 57.8 476 52.5 L 477 49.5 L 475.5 50 L 471.5 51 L 471 49.5 L 472 46 Z M 478 171 L 478 172 L 480 172 L 478 171 Z " /><path fill="#ffffff" stroke="#ffffff" stroke-width="1" opacity="1" d="M 193 48 Q 196.7 46.8 195 52 Q 191.3 53.2 193 48 Z " /><path fill="#ffffff" stroke="#ffffff" stroke-width="1" opacity="1" d="M 317 48 L 321 50.5 L 321 53.5 L 324 59.5 L 324 224 L 322 224 L 322 220 Q 319 221 320 218 L 316 218 Q 317 221 314 220 L 314 223.5 L 312.5 223 L 307 225.5 L 307 228 Q 304.3 226.9 305 229.5 L 304 229.5 L 303 226.5 L 311 221.5 L 314.5 213 Q 317.3 213.6 316 207.5 Q 320 204 318 194.5 L 316 191.5 L 316 67.5 Q 313.5 66 315 60.5 L 316 60.5 L 316 64 L 323 64 L 323 60.5 Q 319.4 58.6 320 54 Q 314.8 51.9 316 56.5 L 315 56.5 L 317 48 Z M 317 68 Q 315 74 320 72 Q 322 66 317 68 Z M 320 80 L 320 96 L 323 96 L 323 81 L 320 80 Z M 320 112 L 320 128 L 323 128 L 323 113 L 320 112 Z M 320 144 L 320 160 L 323 160 L 323 145 L 320 144 Z M 320 176 L 320 192 L 323 192 L 323 177 L 320 176 Z M 320 204 L 317 209 L 318 212 L 320 209 L 320 204 Z " /><path fill="#ffffff" stroke="#ffffff" stroke-width="1" opacity="1" d="M 349 72 L 351 72.5 L 351 80 L 349 79.5 L 349 72 Z " /><path fill="#ffffff" stroke="#ffffff" stroke-width="1" opacity="1" d="M 160.5 80 L 162 111.5 L 161 112.5 L 161 127.5 L 162 128.5 L 162 143.5 L 161 144.5 L 161 159.5 L 162 160.5 L 162 207.5 L 161 208.5 L 161 259.5 Q 162.2 262 166 261 L 166 240.5 L 167 239.5 L 167 208.5 L 166 207.5 L 166 160.5 L 167 160.5 L 168 239.5 L 167 240.5 L 167 257.5 L 169 264.5 L 167.5 264 L 159.5 264 L 158.5 265 L 158 263.5 L 160 261.5 L 160 229.5 L 158 226.5 L 160 223.5 L 160 210.5 Q 154.3 207.8 159.5 205 L 161 204.5 L 161 184.5 L 160 183.5 L 160.5 80 Z " /><path fill="#ffffff" stroke="#ffffff" stroke-width="1" opacity="1" d="M 166.5 96 L 167 111.5 L 166 111.5 L 166.5 96 Z " /><path fill="#ffffff" stroke="#ffffff" stroke-width="1" opacity="1" d="M 349 112 L 351 112.5 L 351 128 L 349 127.5 L 349 112 Z " /><path fill="#ffffff" stroke="#ffffff" stroke-width="1" opacity="1" d="M 48.5 117 L 51 118 L 51 120 Q 48.3 118.9 49 121.5 L 48 128 L 44 128 Q 45 125 42 126 Q 43.2 129.7 38 128 L 38 134 L 34 134 Q 35 137 32 136 Q 33.7 131.9 29.5 133 L 21 143.5 L 20 191.5 L 21 192.5 L 21 239.5 L 20 240.5 L 20 263.5 L 20.5 265 Q 16.8 265.8 16 263.5 L 19 259.5 L 19 208.5 L 20 207.5 L 20 192.5 L 19 191.5 L 19 144.5 L 29.5 132 L 34 132 Q 32.9 129.3 35.5 130 L 47 120.5 L 48.5 117 Z " /><path fill="#ffffff" stroke="#ffffff" stroke-width="1" opacity="1" d="M 166.5 128 L 167 143.5 L 166 143.5 L 166.5 128 Z " /><path fill="#ffffff" stroke="#ffffff" stroke-width="1" opacity="1" d="M 346.5 128 L 347 251.5 L 348 252.5 L 348 260 L 352 261.5 Q 350.9 265.7 355 264 Q 353.5 260.2 356.5 261 L 358.5 261 Q 363.8 259.5 362 264 L 352.5 265 L 351.5 264 L 344 264 L 345 260 Q 348.5 261.1 347 253.5 L 346 252.5 L 346.5 128 Z " /><path fill="#ffffff" stroke="#ffffff" stroke-width="1" opacity="1" d="M 356.5 180 L 363.5 183 L 378 183.5 L 368 184 L 368 188 L 361 188 Q 360.3 184.6 363 183.5 Q 356.8 183.3 356.5 180 Z " /><path fill="#ffffff" stroke="#ffffff" stroke-width="1" opacity="1" d="M 456 181 L 461 181 L 461 183.5 L 458 185.5 L 456 181 Z " /><path fill="#ffffff" stroke="#ffffff" stroke-width="1" opacity="1" d="M 379.5 183 L 384.5 184 L 447.5 184 L 450 185 L 450 188 L 441.5 188 L 441 189.5 L 439.5 189 L 436 191.5 Q 438.8 190.4 438 187 L 435.5 186 L 435 188 L 384.5 188 L 384 184 L 379.5 184 L 379.5 183 Z " /><path fill="#ffffff" stroke="#ffffff" stroke-width="1" opacity="1" d="M 455.5 185 L 456.5 187 Q 453.7 187.7 455.5 185 Z " /><path fill="#ffffff" stroke="#ffffff" stroke-width="1" opacity="1" d="M 432.5 190 L 433 192 L 435 192.5 L 433 193 Q 434.5 197.5 430 196 L 430 199.5 Q 428.8 202.3 427.5 200 Q 423.3 201.1 425 197 L 429 196 L 429 192 Q 432.8 193.3 432.5 190 Z " /><path fill="#ffffff" stroke="#ffffff" stroke-width="1" opacity="1" d="M 55.5 201 L 57 203.5 L 56 203.5 L 55.5 201 Z " /><path fill="#ffffff" stroke="#ffffff" stroke-width="1" opacity="1" d="M 428.5 204 L 430 205.5 L 430 212 Q 427.3 213.1 428 210.5 L 429 205.5 L 428.5 204 Z " /><path fill="#ffffff" stroke="#ffffff" stroke-width="1" opacity="1" d="M 58.5 207 L 61 212.5 L 58.5 217 L 57 217 L 57 222 L 59 222.5 L 57 224.5 L 55 239.5 L 56 240.5 L 56 261.5 L 55 264 L 50.5 265 L 49.5 264 L 40.5 264 L 39.5 265 L 30.5 265 L 26 264 L 25.5 261 L 25 264 Q 21.7 265.3 23 260.5 Q 24.3 257.8 29.5 259 L 30.5 260 L 52 260 L 52 236.5 L 53.5 235 Q 56.5 235.5 55 228.5 L 56 224.5 L 55 222.5 L 56 220.5 L 55 216.5 L 59 215 Q 60.5 210.5 56 212 L 56 208 L 58.5 207 Z " /><path fill="#ffffff" stroke="#ffffff" stroke-width="1" opacity="1" d="M 196.5 208 L 197 212.5 L 196 212.5 L 196.5 208 Z " /><path fill="#ffffff" stroke="#ffffff" stroke-width="1" opacity="1" d="M 428.5 219 L 429 259.5 L 431 263.5 L 430 263.5 L 429.5 262 L 429 264 L 426.5 265 L 425.5 264 L 419 264 Q 417.5 260.2 420.5 261 L 421.5 260 L 428 260 L 428.5 219 Z " /><path fill="#ffffff" stroke="#ffffff" stroke-width="1" opacity="1" d="M 324.5 238 L 326 248.5 L 323 250 Q 324.1 253.3 320 252 L 320 248 L 321.5 248 L 324 247.5 L 324.5 238 Z " /><path fill="#ffffff" stroke="#ffffff" stroke-width="1" opacity="1" d="M 318.5 252 L 311.5 260 Q 306.5 259 307.5 262 L 303.5 262 Q 301.6 265.8 295 264 Q 293.5 260.2 296.5 261 L 299.5 259 L 301 259.5 L 300 256.5 L 300.5 254 Q 306.8 252.8 308 256.5 L 308.5 258 L 309 256 Q 311.7 257.1 311 254.5 L 312 254.5 L 312.5 256 L 313 253 L 318.5 252 Z M 306 256 L 304 260 L 302 261 L 307 261 L 307 256 L 306 256 Z " /><path fill="#ffffff" stroke="#ffffff" stroke-width="1" opacity="1" d="M 224 258 L 239.5 258 L 240.5 260 L 272 260 L 272.5 258 L 288 258 Q 286.8 261.7 292 260 L 292 264 L 215.5 264 L 214.5 265 L 208 264 L 208 260 L 223.5 260 L 224 258 Z " /><path fill="#ffffff" stroke="#ffffff" stroke-width="1" opacity="1" d="M 368.5 259 L 397.5 259 L 402.5 261 L 416 261 L 415.5 264 L 363 264 Q 361.5 260.2 364.5 261 L 368.5 259 Z " /><path fill="#ffffff" stroke="#ffffff" stroke-width="1" opacity="1" d="M 201.5 260 L 206 261 L 206 264 L 199 264 Q 197.5 260.2 200.5 261 L 201.5 260 Z " /><path fill="#ffffff" stroke="#ffffff" stroke-width="1" opacity="1" d="M 78.5 24 L 83 24.5 L 78.5 25 L 78.5 24 Z " /><path fill="#ffffff" stroke="#ffffff" stroke-width="1" opacity="1" d="M 195 26 L 197 26.5 L 197 33.5 Q 194 35.5 195 41.5 L 197 47.5 L 196 48.5 L 196 64 L 191 63.5 L 191 28 Q 193.7 26.9 193 29.5 L 194 29.5 L 195 26 Z M 193 48 Q 191 53 195 52 Q 197 47 193 48 Z " /><path fill="#ffffff" stroke="#ffffff" stroke-width="1" opacity="1" d="M 69 27 L 74 27.5 L 69 29 L 69 27 Z " /><path fill="#ffffff" stroke="#ffffff" stroke-width="1" opacity="1" d="M 456.5 27 L 463 29 L 462.5 31 L 456.5 28 L 456.5 27 Z " /><path fill="#ffffff" stroke="#ffffff" stroke-width="1" opacity="1" d="M 347 30 L 350 30 Q 349 33 352 32 L 352 35.5 L 354 40 Q 357.3 38.9 356 43 L 351 44 L 351.5 48 L 352.5 46 L 353 176.5 L 357.5 182 L 363 183.5 Q 360.3 184.6 361 188 L 368 188 L 368.5 184 L 377.5 184 L 379.5 184 L 384 184 L 384.5 188 L 435 188 L 435.5 186 L 438 187 L 435.5 193 L 433 192 L 432.5 190 L 432 192 L 429 192 L 429 196 L 427.5 196 L 425 197 Q 423.5 201.5 428 200 L 428 204.5 L 429 209.5 L 428 211.5 Q 430.5 213 429 218.5 L 428 219.5 L 428 260 Q 421.8 259.1 419 261 Q 420.5 265.5 416 264 L 415.5 261 L 402.5 261 L 397.5 259 L 368.5 259 L 363 261 L 362.5 264 L 362 261 L 357.5 260 L 355 261 Q 356.7 265.1 352.5 264 L 348.5 265 L 348.5 264 Q 353.3 265.7 352 261.5 L 348 260 L 348 252.5 L 347 251.5 L 347 128.5 L 346 127.5 L 346 112.5 L 347 111.5 L 347 30 Z M 349 72 L 349 80 L 351 80 L 351 73 L 349 72 Z M 349 112 L 349 128 L 351 128 L 351 113 L 349 112 Z " /><path fill="#ffffff" stroke="#ffffff" stroke-width="1" opacity="1" d="M 162.5 46 L 163.5 50 L 164 48 L 166 48.5 L 166 61.5 L 167 62.5 L 167 95.5 L 166 96.5 L 166 111.5 L 167 112.5 L 167 127.5 L 166 128.5 L 166 143.5 L 167 144.5 L 167 159.5 L 166 160.5 L 166 207.5 L 167 208.5 L 167 239.5 L 166 240.5 L 166 261 Q 162.2 262 161 259.5 L 162 160.5 L 161 159.5 L 161 144.5 L 162 143.5 L 162 128.5 L 161 127.5 L 161 112.5 L 162 111.5 L 162 96.5 L 161 95.5 L 160 68.5 Q 162.9 64.6 162 58 L 165 57.5 L 162 56.5 L 160 50.5 L 162 50 L 162.5 46 Z " /><path fill="#ffffff" stroke="#ffffff" stroke-width="1" opacity="1" d="M 476.5 49 L 477 51.5 L 476 56 Q 480.5 54.3 479 59.5 L 477.5 59 L 473 59 L 473 52.5 L 472 50 L 476.5 49 Z " /><path fill="#ffffff" stroke="#ffffff" stroke-width="1" opacity="1" d="M 50 52 Q 53 51 52 54 L 55 54 L 55.5 52 L 57 55.5 L 56 56.5 L 56 66.5 L 55 67.5 L 55 80 L 52 80.5 L 52 96 L 48 96 L 48 64.5 L 48.5 64 L 55 64 L 55 56 Q 50.4 57.3 49 54.5 L 50 52 Z " /><path fill="#ffffff" stroke="#ffffff" stroke-width="1" opacity="1" d="M 316 54 Q 321.2 51.9 320 56.5 Q 323.9 58.6 323 64 L 316 64 L 316 60.5 L 315 57.5 L 316 54 Z " /><path fill="#ffffff" stroke="#ffffff" stroke-width="1" opacity="1" d="M 317 68 Q 321.9 66.4 320 72 Q 315.1 73.6 317 68 Z " /><path fill="#ffffff" stroke="#ffffff" stroke-width="1" opacity="1" d="M 191 80 L 196 80.5 L 196 96 L 191 95.5 L 191 80 Z " /><path fill="#ffffff" stroke="#ffffff" stroke-width="1" opacity="1" d="M 320 80 L 323 80.5 L 323 96 L 320 95.5 L 320 80 Z " /><path fill="#ffffff" stroke="#ffffff" stroke-width="1" opacity="1" d="M 191 112 L 196 112.5 L 196 128 L 191 127.5 L 191 112 Z " /><path fill="#ffffff" stroke="#ffffff" stroke-width="1" opacity="1" d="M 320 112 L 323 112.5 L 323 128 L 320 127.5 L 320 112 Z " /><path fill="#ffffff" stroke="#ffffff" stroke-width="1" opacity="1" d="M 49 113 L 52 113.5 L 52 196.5 L 58 208 Q 54.3 206.8 56 212 Q 60.5 210.5 59 215 L 55 216.5 L 56 221.5 L 55 223.5 L 56 227.5 L 55 228.5 L 55 235 L 52 236.5 L 52 260 L 30.5 260 Q 29.3 257.8 24.5 259 Q 21.8 260.4 23 265 L 20 263.5 L 21 192.5 L 20 191.5 L 20 176.5 L 21 175.5 L 21 143.5 L 29.5 133 L 32 133 Q 30.7 137.1 34 136 Q 32.8 132.3 38 134 L 38 128 L 42 128 Q 41 125 44 126 Q 42.8 129.7 48 128 L 49 120 Q 52 121 51 118 L 48 116.5 L 49 113 Z " /><path fill="#ffffff" stroke="#ffffff" stroke-width="1" opacity="1" d="M 191 144 L 195 144.5 L 195 160 L 191 159.5 L 191 144 Z " /><path fill="#ffffff" stroke="#ffffff" stroke-width="1" opacity="1" d="M 320 144 L 323 144.5 L 323 160 L 320 159.5 L 320 144 Z " /><path fill="#ffffff" stroke="#ffffff" stroke-width="1" opacity="1" d="M 477.5 171 L 481 172.5 L 479.5 172 Q 476.5 172.5 477.5 171 Z " /><path fill="#ffffff" stroke="#ffffff" stroke-width="1" opacity="1" d="M 191 176 L 195 176.5 L 195 191.5 Q 197.5 193 196 198.5 L 195 201 L 191 199.5 L 191 176 Z " /><path fill="#ffffff" stroke="#ffffff" stroke-width="1" opacity="1" d="M 320 176 L 323 176.5 L 323 192 L 320 191.5 L 320 176 Z " /><path fill="#ffffff" stroke="#ffffff" stroke-width="1" opacity="1" d="M 319.5 204 L 320 208.5 L 317.5 212 L 317 208.5 L 319.5 204 Z " /><path fill="#ffffff" stroke="#ffffff" stroke-width="1" opacity="1" d="M 195 206 Q 197.7 204.9 197 207.5 L 196 208.5 L 195.5 220 L 195 206 Z " /><path fill="#ffffff" stroke="#ffffff" stroke-width="1" opacity="1" d="M 316 218 L 320 218 Q 319 221 322 220 L 322 224 L 324 224.5 L 324 247.5 L 321.5 248 L 320 248 L 320 252 L 318.5 252 L 313 253 L 312.5 256 L 311.5 254 L 311 256 Q 308.3 254.9 309 257.5 L 308 257.5 L 307.5 256 L 307 261 L 302 260.5 L 304 260 L 305.5 256 L 307 255.5 Q 305.4 252.5 300 254 L 301 259.5 L 298.5 260 L 295 261 Q 296.5 265.5 292 264 L 292 260 Q 286.7 261.3 287.5 258 L 272 258 L 271.5 260 L 240 260 L 239.5 258 L 224 258 L 223.5 260 L 208 260 Q 209.7 265.2 206 264 Q 207.8 259.5 202.5 261 L 200.5 261 Q 197.9 260.2 199 263.5 L 198 263.5 L 198 261 L 192.5 261 L 191 259.5 L 191 224 Q 198.3 222.8 200 228.5 L 200.5 232 L 286 232 L 286.5 230 L 297 230 Q 295.9 233.3 300 232 Q 298 226 304 228 L 304.5 230 L 305 228 Q 308.3 229.1 307 225 L 304 224.5 L 306.5 224 L 308.5 224 L 312.5 223 L 314 223.5 L 314 220 Q 317 221 316 218 Z " /><path fill="#ffffff" stroke="#ffffff" stroke-width="1" opacity="1" d="M 428.5 261 L 430 263.5 L 429 263.5 L 428.5 261 Z " /><path fill="#ffffff" stroke="#ffffff" stroke-width="1" opacity="1" d="M 189.5 262 L 190 264 L 192 264.5 L 190.5 265 L 188 263.5 L 189.5 262 Z " /><path fill="#ffffff" stroke="#ffffff" stroke-width="1" opacity="1" d="M 52.5 264 L 56 264.5 L 52.5 265 L 52.5 264 Z " /></svg>