<svg xmlns="http://www.w3.org/2000/svg" xml:space="preserve" width="451" height="81"><path fill="#3C50FF" d="M155.763 59.401V22h15.4v11h-4.4v15.4h4.4v11h-15.4v.001zM174.684 22h11v13.2h26.401V22h11v37.401h-11v-13.2h-26.401v24.201l-11 11V22zm51.921 37.401v-11h4.4v-15.4h-4.4v-11h15.4v37.401h-15.4v-.001z"/><g fill="#FFF"><path d="M0 59.401 48.401 11v48.401h-11v-22l-22 22.001H0v-.001zm51.921 0V22h11v26.401h37.401v11H51.921zm51.921 0V22h11v26.401h37.401v11h-48.401zm141.683 0V22h48.401v37.401h-48.401zm37.401-11v-15.4h-26.401v15.4h26.401zm14.52 11V22h11v26.401h26.401V11l11-11v59.401h-48.401zm65.122-24.2h24.201v-2.2h-26.401v26.401h-11V22h48.401v24.201h-8.8l13.2 13.2v15.4l-39.601-39.6z"/><path d="M402.169 59.401v-11h22.001L397.769 22h50.601v11h-24.201l26.401 26.401h-48.401z"/></g></svg>