<svg xmlns="http://www.w3.org/2000/svg" viewBox="0 0 99.843 108.957"><path d="m49.652.013.709 1.097c.388.601.976 1.63 1.297 2.3s.722 1.537.882 1.938.468 1.243.682 1.871.535 1.738.709 2.474.4 1.818.494 2.406c.134.735.187 2.26.187 4.88 0 2.58-.053 4.117-.173 4.746-.094.508-.254 1.297-.361 1.738s-.321 1.31-.468 1.938a36.018 36.018 0 0 1-1.431 4.345c-.254.655-.909 2.113-1.457 3.209-.535 1.11-1.31 2.58-1.738 3.275a76 76 0 0 1-1.51 2.407c-.402.628-1.404 2.005-2.206 3.074s-2.246 2.848-3.222 3.944c-.976 1.11-2.915 3.115-4.292 4.479-1.39 1.364-2.847 2.727-3.222 3.048-.454.361-.775.521-.882.468-.107-.067-.588-.562-1.083-1.11-.508-.548-1.43-1.698-2.059-2.54s-1.417-1.952-1.751-2.46c-.334-.494-.735-1.096-.896-1.337-.147-.227-.428-.681-.615-1.016s-.561-.989-.842-1.47-1.003-1.858-1.604-3.075c-.615-1.217-1.47-3.048-1.899-4.078-.44-1.029-1.083-2.62-1.43-3.542-.334-.923-.816-2.246-1.056-2.942-.334-.975-.495-1.283-.695-1.31-.188-.04-.736.428-1.979 1.671-.95.936-2.54 2.62-3.556 3.717-1.016 1.11-2.62 2.941-3.57 4.09S8.597 40.723 8.25 41.19l-1.27 1.711c-.348.482-.896 1.257-1.23 1.738s-1.07 1.538-1.618 2.353c-.561.816-1.27 1.885-1.59 2.407s-.83 1.39-1.137 1.938-.708 1.217-1.23 1.939l-.08-.669C.041 52.233 0 48.142 0 43.517s.04-8.544.067-8.69c.067-.214.308-.321 1.244-.509q1.333-.299 2.633-.721c.816-.254 1.979-.682 2.607-.936s2.006-.91 3.075-1.444 2.687-1.417 3.61-1.965a81 81 0 0 0 2.513-1.511c.468-.294 1.297-.816 1.845-1.177.548-.347 1.083-.762 1.19-.935.2-.268.187-.375-.054-1.23-.133-.508-.44-1.685-.668-2.607s-.548-2.367-.695-3.209c-.16-.842-.334-1.805-.388-2.139-.067-.334-.187-.99-.267-1.47-.094-.482-.214-1.23-.281-1.672s-.187-1.19-.267-1.67c-.067-.482-.16-1.35-.2-1.94s-.135-1.136-.188-1.202c-.054-.08-.147-.736-.214-1.47-.054-.736-.12-1.645-.12-2.006a56 56 0 0 0-.134-2.14c-.054-.815-.067-1.443-.027-1.403s.147.521.228 1.07.294 1.63.48 2.406.389 1.618.455 1.872c.054.254.268 1.123.468 1.938.2.802.415 1.711.468 2.005.067.295.187.776.268 1.07s.2.775.267 1.07c.08.294.187.748.24 1.002.067.254.214.802.335 1.203s.307 1.123.441 1.605c.12.481.642 2.165 1.15 3.743s.976 3.008 1.056 3.168c.08.228.2.294.428.254.16-.04 1.684-.989 3.369-2.112 1.697-1.136 3.382-2.26 3.743-2.527.374-.267 1.27-.882 2.005-1.39s1.484-1.03 1.671-1.163c.187-.147.976-.722 1.752-1.283.775-.562 1.925-1.418 2.54-1.886q1.314-1.035 2.593-2.112c.816-.682 2.22-1.925 3.142-2.754s2.353-2.26 3.195-3.182c.842-.909 1.992-2.286 2.567-3.061S49.292.776 49.425.508zM43.25 12.915c-.375.12-1.19.454-1.805.748-.628.28-1.858.883-2.74 1.324-.883.454-2.18 1.15-2.875 1.55q-1.014.57-2.005 1.177c-.415.24-.923.575-1.137.722-.227.147-1.163.775-2.072 1.39a79 79 0 0 0-3.075 2.166c-.775.575-2.125 1.631-3.008 2.34s-1.778 1.484-1.978 1.71l-.361.429c.588 1.39 1.016 2.38 1.323 3.075s.896 1.898 1.31 2.673q.63 1.196 1.35 2.34c.335.508.977 1.444 1.431 2.072s1.457 1.738 2.233 2.474c.802.762 1.724 1.51 2.179 1.764.441.228 1.163.548 1.604.695.602.214 1.123.281 2.206.281.896 0 1.658-.08 2.139-.214.401-.12 1.096-.4 1.537-.615.442-.227 1.217-.748 1.738-1.15a25 25 0 0 0 1.912-1.764c.548-.548 1.417-1.578 1.952-2.273.522-.695 1.297-1.778 1.698-2.406.414-.629 1.11-1.765 1.55-2.54s1.057-1.979 1.364-2.674c.321-.695.776-1.872 1.03-2.607s.575-1.939.735-2.674c.227-1.043.28-1.845.294-3.676.027-2.113-.013-2.434-.294-3.343-.174-.548-.441-1.19-.588-1.403a7 7 0 0 0-.682-.843 4.6 4.6 0 0 0-.815-.695c-.228-.147-.75-.347-1.177-.468-.414-.107-1.11-.2-1.537-.187a17 17 0 0 0-1.765.2c-.561.108-1.31.281-1.671.402M68.703 0c4.492 0 8.169.04 8.155.094 0 .053-.548.615-1.216 1.243-.669.628-1.564 1.55-1.979 2.072-.414.508-1.15 1.47-1.617 2.14-.482.654-1.11 1.59-1.404 2.071-.308.482-.642 1.043-.749 1.27-.12.214-.468.883-.789 1.471-.307.588-.668 1.217-.802 1.404-.12.187-.735 1.47-1.363 2.874-.615 1.39-1.297 2.941-1.484 3.436-.2.495-.495 1.283-.682 1.738-.174.468-.535 1.47-.789 2.246s-.588 1.791-.735 2.272-.482 1.712-.736 2.741c-.267 1.03-.588 2.473-.735 3.209s-.347 1.938-.441 2.674c-.094.761-.174 2.553-.16 4.21 0 2.527.04 2.995.294 3.945.16.588.48 1.457.695 1.938a5.6 5.6 0 0 0 1.096 1.55c.388.389 1.07.883 1.51 1.11s1.244.508 1.806.629c.628.133 1.71.214 2.94.214 1.364.013 2.233-.054 2.942-.214.548-.12 1.537-.415 2.206-.642.655-.227 1.564-.588 2.005-.815s1.243-.682 1.805-1.003q.747-.456 1.47-.95c.255-.186.91-.708 1.471-1.149.548-.441 1.685-1.457 2.514-2.273.842-.815 2.165-2.26 2.954-3.208.776-.963 1.778-2.22 2.22-2.808s1.256-1.764 1.818-2.607c.548-.842 1.256-1.912 1.564-2.38.307-.454.548-.882.548-.935s.107-.24.254-.428c.134-.187.682-1.15 1.216-2.14q1.243-2.393 2.434-4.812c.802-1.658 1.67-3.396 1.911-3.877s.562-1.163.696-1.51.267-.616.294-.602c.026.027-.12.642-.308 1.377-.2.735-.481 1.791-.628 2.34s-.388 1.39-.548 1.871c-.147.481-.455 1.377-.669 2.005a57 57 0 0 1-.574 1.538c-.094.214-.602 1.51-1.15 2.874-.535 1.364-1.564 3.65-2.273 5.08a111 111 0 0 1-1.711 3.276c-.214.36-.495.855-.628 1.096s-.482.842-.776 1.337c-.28.495-.842 1.39-1.23 1.979s-1.042 1.524-1.443 2.072-.87 1.19-1.043 1.417c-.16.227-.749.949-1.297 1.604s-1.832 2.032-2.874 3.062c-1.15 1.15-2.34 2.192-3.075 2.7-.669.441-1.885 1.15-2.714 1.564s-2.112.95-2.874 1.204q-1.237.408-2.5.721c-.629.148-1.912.361-2.848.482s-2.647.214-3.81.214c-1.15 0-2.62-.067-3.236-.147a122 122 0 0 1-2.874-.402 53 53 0 0 1-3.409-.668 73 73 0 0 1-3.41-.95 85 85 0 0 1-2.78-.922c-.561-.214-1.03-.468-1.03-.561s.495-.669 1.097-1.297c.615-.628 1.671-1.898 2.38-2.82A54 54 0 0 0 54.09 42.5c.669-1.137 1.645-2.928 2.166-3.997a184 184 0 0 0 1.337-2.875 86.03 86.03 0 0 0 2.193-5.815c.335-.989.788-2.407 1.002-3.142.228-.735.535-1.791.682-2.34.16-.548.401-1.43.535-1.938.147-.521.32-1.203.401-1.537s.24-.99.348-1.471.28-1.324.387-1.872.281-1.51.375-2.139c.107-.708.173-2.286.173-4.144-.013-2.14-.066-3.342-.227-4.145-.107-.628-.401-1.764-.628-2.54-.24-.775-.588-1.71-.776-2.072-.187-.374-.548-1.003-.815-1.404s-.535-.815-.602-.909C60.562.027 62.193 0 68.704 0m-42.22 55.428c.2.134.829.615 1.39 1.056.575.441 2.527 1.978 4.345 3.409s4.653 3.703 6.297 5.054c1.645 1.336 3.356 2.753 3.797 3.141.454.375 1.27 1.083 1.805 1.551.548.468 2.165 1.925 3.61 3.222a128 128 0 0 1 4.612 4.425c1.096 1.136 2.58 2.754 3.288 3.596s1.631 2.019 2.046 2.607a28 28 0 0 1 1.484 2.34c.401.695.99 1.898 1.31 2.674s.682 1.818.816 2.34c.12.507.307 1.39.414 1.938.107.561.2 1.791.2 2.807 0 1.07-.08 2.18-.2 2.74-.107.509-.307 1.271-.454 1.672-.134.401-.428 1.096-.642 1.537s-.682 1.257-1.043 1.805c-.374.548-1.056 1.39-1.537 1.872s-1.23 1.096-1.671 1.377q-.75.455-1.538.842c-.414.187-1.136.468-1.604.615a14 14 0 0 1-1.738.388c-.481.067-1.39.16-2.005.2-.669.04-1.364.014-1.672-.08-.294-.08-.895-.174-1.337-.2s-1.016-.094-1.27-.134c-.267-.04-.949-.214-1.537-.361s-1.524-.415-2.072-.588c-.562-.174-1.484-.495-2.072-.709s-1.498-.575-2.006-.789c-.521-.214-1.778-.802-2.807-1.31s-2.447-1.23-3.142-1.63a42 42 0 0 1-1.47-.843c-.12-.067-.468-.294-.79-.495s-1.336-.855-2.245-1.47c-.91-.602-1.591-1.097-1.511-1.097.067 0 .361.107.628.24.281.135 1.404.562 2.514.923 1.096.375 2.393.802 2.874.936.468.147 1.19.361 1.604.468.401.12 1.097.28 1.538.374.44.08 1.19.254 1.67.361.469.107 1.23.254 1.672.321s1.43.174 2.206.24c.762.068 1.818.161 2.34.215.507.04 1.537.013 2.272-.067s1.658-.214 2.072-.28c.401-.08 1.217-.295 1.805-.482s1.484-.588 1.992-.896c.522-.294 1.364-.976 1.872-1.484.521-.521 1.15-1.31 1.417-1.738.254-.44.601-1.283.775-1.871s.334-1.458.375-1.939c.026-.481 0-1.59-.08-2.473-.067-.883-.215-2.059-.322-2.607s-.52-1.992-.922-3.209-1.016-2.807-1.377-3.543c-.348-.735-.896-1.791-1.23-2.34q-.455-.78-.95-1.537c-.186-.294-.841-1.163-1.43-1.938a51 51 0 0 0-2.54-2.955c-.802-.842-1.818-1.871-2.26-2.272s-1.162-1.003-1.603-1.337-1.257-.883-1.805-1.23a14 14 0 0 0-2.246-1.03c-1.07-.347-1.43-.4-2.674-.4-.936 0-1.685.066-2.166.213-.414.12-1.096.388-1.537.602s-1.23.762-1.738 1.216c-.508.468-1.163 1.177-1.457 1.578s-.776 1.15-1.057 1.671c-.28.508-.748 1.537-1.042 2.273q-.431 1.126-.802 2.272c-.148.508-.361 1.23-.468 1.605-.107.36-.348 1.203-.535 1.871a27 27 0 0 0-.455 1.672c-.066.254-.267 1.123-.468 1.938-.187.802-.4 1.805-.48 2.206s-.175.789-.228.869c-.04.067-.16.735-.268 1.47s-.254 1.752-.32 2.273c-.067.508-.188 1.564-.268 2.34s-.147 2.42-.147 3.676c-.013 1.244.054 2.848.147 3.543.08.695.214 1.631.28 2.072s.282 1.404.469 2.14c.2.735.561 1.818.829 2.406.254.588.494 1.176.521 1.297.054.187-.053.254-.508.307-.307.04-4.786.054-9.946.04-5.16-.027-9.426-.08-9.492-.134s.374-.628.962-1.27a115 115 0 0 0 2.22-2.513c.614-.735 1.577-1.939 2.125-2.66s1.177-1.578 1.404-1.885c.214-.308.815-1.204 1.337-1.979.508-.789 1.23-1.885 1.59-2.46.375-.575 1.057-1.738 1.525-2.58a202 202 0 0 0 1.484-2.74c.347-.67.949-1.9 1.337-2.741s.962-2.206 1.283-3.008c.308-.816.882-2.434 1.257-3.61s.735-2.326.802-2.54c.067-.227.36-1.243.655-2.273s.695-2.5.882-3.275.455-1.912.602-2.54.348-1.524.468-2.006c.107-.48.28-1.35.388-1.938s.267-1.524.36-2.072c.08-.548.214-1.297.281-1.645s.12-.882.12-1.203c0-.307.054-.775.12-1.03s.161-1.55.201-2.874c.027-1.323.08-2.486.094-2.593.027-.134.107-.12.401.067m50.054-.281.08.401c.04.214.093 12.206.093 26.631.027 26.07.027 26.243-.24 26.51-.268.255-.455.268-7.126.268-3.77 0-7.179-.04-8.315-.16l.468-.28c.254-.148.828-.469 1.27-.71s1.323-.788 1.965-1.216c.628-.428 1.684-1.257 2.326-1.845s1.51-1.497 1.925-2.005c.415-.522 1.016-1.324 1.324-1.805s.895-1.538 1.283-2.34c.401-.815.923-2.045 1.177-2.74.24-.696.574-1.752.721-2.34.16-.588.401-1.577.548-2.206s.335-1.564.402-2.072c.08-.521.187-1.203.227-1.537.053-.335.147-1.083.227-1.672.067-.588.134-2.754.147-4.812 0-2.273-.053-4.118-.147-4.68-.093-.52-.214-1.203-.28-1.537-.08-.334-.268-1.03-.428-1.537-.16-.522-.562-1.484-.896-2.14-.481-.935-.856-1.443-1.698-2.285-.829-.83-1.257-1.15-1.872-1.39-.708-.281-1.016-.322-2.54-.322-1.564.014-1.871.054-2.94.415-.67.214-1.378.508-1.578.655-.2.134-.401.227-.428.187-.04-.04.815-.882 1.898-1.872s2.487-2.286 3.115-2.874 2.367-2.22 3.877-3.61a863 863 0 0 0 4.078-3.81z" style="fill:#ffffff;fill-rule:evenodd"/></svg>