<svg width="200" height="51" version="1.1" xmlns="http://www.w3.org/2000/svg" desc="Created with imagetracer.js version 1.2.6" ><path fill="white" stroke="rgb(0,0,0)" stroke-width="1" opacity="0" d="M 0 0 L 5 0 L 5 8.5 L 4 9.5 L 0.5 41 L 0 32.5 Q 2.8 30.8 1 24.5 L 0 23.5 L 0 0 Z M 4 1 L 3 8 L 4 8 L 4 1 Z M 3 8 L 2 16 L 3 16 L 3 8 Z M 2 16 L 1 24 L 2 24 L 2 16 Z " /><path fill="white" stroke="rgb(0,0,0)" stroke-width="1" opacity="0" d="M 15.5 0 L 16.5 4 L 17 0 L 21 0.5 L 21 30.5 L 20 35.5 L 21 36.5 L 21 44.5 L 20 44.5 L 15.5 0 Z M 20 1 L 19 12 L 18 13 L 19 29 L 20 29 L 20 1 Z M 18 4 L 17 12 L 18 12 L 18 4 Z " /><path fill="white" stroke="rgb(0,0,0)" stroke-width="1" opacity="0" d="M 31.5 0 L 33 2.5 L 33.5 12 L 34 1.5 L 33.5 0 L 36 0.5 L 35 1.5 L 33.5 23 L 32 2.5 L 31.5 0 Z " /><path fill="white" stroke="rgb(0,0,0)" stroke-width="1" opacity="0" d="M 45 0 L 47 0.5 L 47 51 L 45 50.5 L 45 0 Z " /><path fill="white" stroke="rgb(0,0,0)" stroke-width="1" opacity="0" d="M 61.5 0 L 63.5 0 Q 65.8 -0.8 65 1.5 L 64.5 4 L 61.5 0 Z " /><path fill="white" stroke="rgb(0,0,0)" stroke-width="1" opacity="0" d="M 66.5 0 L 67 50.5 L 66 50.5 L 65.5 29 L 64 31.5 L 65 32.5 L 65 51 L 57 51 L 57 36 L 59 35.5 L 57 34.5 L 60.5 33 L 62.5 34 L 64 30.5 Q 68 22.5 66 8.5 L 65 5.5 L 66.5 0 Z " /><path fill="white" stroke="rgb(0,0,0)" stroke-width="1" opacity="0" d="M 82 0 L 84 0.5 L 84 51 Q 80 52.4 82 45.5 L 83 44.5 L 83 6.5 L 82 0 Z " /><path fill="white" stroke="rgb(0,0,0)" stroke-width="1" opacity="0" d="M 100.5 0 L 106 0 L 106 2.5 L 104 5.5 L 104 19.5 Q 107.4 28.1 114 33.5 L 114 43.5 Q 112.5 46.5 111 43.5 L 111 33 L 104 33 L 104 30.5 L 103 30.5 L 103 44.5 L 107 50.5 L 104 50.5 L 104 48.5 L 103.5 47 L 102.5 51 L 102 30.5 L 101 28.5 L 102 26.5 L 100 26.5 L 102 23.5 L 102 6.5 L 104 3 Q 101.3 1.9 102 4.5 L 101 4.5 L 99 1.5 L 100.5 0 Z M 104 20 L 103 24 L 105 24 L 104 20 Z M 113 33 L 112 44 L 113 44 L 113 33 Z " /><path fill="white" stroke="rgb(0,0,0)" stroke-width="1" opacity="0" d="M 118.5 0 L 120.5 0 L 125.5 1 L 127 0.5 Q 121.4 4.9 123 16.5 L 126 24.5 L 123.5 29 L 123 27 L 121 27.5 L 123 30.5 L 123 45.5 L 127 50.5 L 124.5 51 L 119.5 50 L 118 50.5 L 122 44.5 L 122 31.5 L 119 26.5 L 120 24.5 L 118.5 25 L 113 19.5 L 112 17.5 L 112 6.5 L 114 7.5 L 114 16.5 L 113 17.5 L 115.5 21 L 121 19.5 L 115 18.5 L 122 18 L 122.5 21 L 123 17.5 L 122 16.5 L 121 4.5 L 118.5 0 Z M 123 4 L 122 7 L 123 7 L 123 4 Z " /><path fill="white" stroke="rgb(0,0,0)" stroke-width="1" opacity="0" d="M 140.5 0 L 145.5 1 L 147 0.5 L 143 6.5 L 143 40.5 L 148 50.5 L 146 51 L 141 38.5 L 142 37.5 L 142 18.5 L 140.5 19 L 134 19 L 134 21.5 L 135 21.5 L 135.5 20 L 141 20 L 141 32.5 L 140 34.5 L 141 36.5 L 140 36.5 L 133 21.5 L 131 15.5 L 131 9.5 L 132.5 6 L 133.5 19 L 134.5 18 L 141 18 L 141 5.5 L 139 1.5 L 140.5 0 Z M 142 3 L 142 6 L 143 6 Q 144 2 142 3 Z M 139 28 L 138 31 L 139 31 L 139 28 Z " /><path fill="white" stroke="rgb(0,0,0)" stroke-width="1" opacity="0" d="M 158.5 0 L 160.5 0 Q 162.8 -0.8 162 1.5 L 162 3.5 L 162.5 5 L 163.5 0 L 164 50.5 L 163 50.5 L 162.5 46 L 161 48.5 L 162 51 L 159.5 50 L 158 50.5 L 162 45.5 L 162 5.5 L 158.5 0 Z " /><path fill="white" stroke="rgb(0,0,0)" stroke-width="1" opacity="0" d="M 171.5 0 L 172.5 2 L 173.5 0 L 174 1.5 L 173 5.5 L 174.5 11 L 175.5 0 L 176 19.5 L 175 19.5 L 171.5 0 Z " /><path fill="white" stroke="rgb(0,0,0)" stroke-width="1" opacity="0" d="M 183 0 L 185 0.5 L 185 51 L 183 50.5 L 183 0 Z " /><path fill="white" stroke="rgb(0,0,0)" stroke-width="1" opacity="0" d="M 152.5 6 L 154 6.5 L 154 43.5 Q 152.5 46.5 151 43.5 L 151 7.5 L 152.5 6 Z M 153 7 L 152 44 L 153 44 L 153 7 Z " /><path fill="white" stroke="rgb(0,0,0)" stroke-width="1" opacity="0" d="M 55 7 L 57 7.5 L 56 8.5 L 56 25.5 L 56.5 27 L 55 26.5 L 55 7 Z " /><path fill="white" stroke="rgb(0,0,0)" stroke-width="1" opacity="0" d="M 75.5 7 L 76 20.5 L 75 20.5 L 75.5 7 Z " /><path fill="white" stroke="rgb(0,0,0)" stroke-width="1" opacity="0" d="M 77.5 7 L 82 7.5 L 77.5 8 L 77.5 7 Z " /><path fill="white" stroke="rgb(0,0,0)" stroke-width="1" opacity="0" d="M 92 7 L 94 7.5 L 94 22.5 L 92 23.5 L 92 21.5 L 92 7 Z " /><path fill="white" stroke="rgb(0,0,0)" stroke-width="1" opacity="0" d="M 193.5 7 L 194 20.5 L 193 20.5 L 193.5 7 Z " /><path fill="white" stroke="rgb(0,0,0)" stroke-width="1" opacity="0" d="M 195.5 7 L 200 7.5 L 195.5 8 L 195.5 7 Z " /><path fill="white" stroke="rgb(0,0,0)" stroke-width="1" opacity="0" d="M 77 9 L 82 9.5 L 82 42 L 77 42 L 77 30 L 81 29.5 L 77 28.5 L 81 28 L 81 21 L 77.5 21 L 77.5 20 L 81 19.5 L 77 19 L 77 9 Z " /><path fill="white" stroke="rgb(0,0,0)" stroke-width="1" opacity="0" d="M 195 9 L 200 9.5 L 200 42 L 195 42 L 195 30 L 199 29.5 L 195 28.5 L 199 28 L 199 21 L 195.5 21 L 195.5 20 L 199 19.5 L 195 19 L 195 9 Z " /><path fill="white" stroke="rgb(0,0,0)" stroke-width="1" opacity="0" d="M 10.5 22 L 11 32 L 9 31.5 L 9 24.5 L 10.5 22 Z " /><path fill="white" stroke="rgb(0,0,0)" stroke-width="1" opacity="0" d="M 75.5 28 L 76 43.5 L 75 43.5 L 75.5 28 Z " /><path fill="white" stroke="rgb(0,0,0)" stroke-width="1" opacity="0" d="M 171.5 28 L 176 51 Q 171.1 52.8 173 46.5 L 174 42.5 L 172.5 37 L 171.5 51 L 171.5 28 Z M 175 46 L 174 50 L 175 50 L 175 46 Z " /><path fill="white" stroke="rgb(0,0,0)" stroke-width="1" opacity="0" d="M 193.5 28 L 194 43.5 L 193 43.5 L 193.5 28 Z " /><path fill="white" stroke="rgb(0,0,0)" stroke-width="1" opacity="0" d="M 28.5 31 L 30 51 L 28 50.5 L 28.5 31 Z " /><path fill="white" stroke="rgb(0,0,0)" stroke-width="1" opacity="0" d="M 92.5 31 L 94 32.5 L 94 51 L 92 50.5 L 92 33.5 L 92.5 31 Z " /><path fill="white" stroke="rgb(0,0,0)" stroke-width="1" opacity="0" d="M 55.5 34 L 56 50.5 L 55 50.5 L 55.5 34 Z " /><path fill="white" stroke="rgb(0,0,0)" stroke-width="1" opacity="0" d="M 131.5 36 L 133 40.5 L 132 43.5 L 132.5 45 L 131 43.5 L 131.5 36 Z " /><path fill="white" stroke="rgb(0,0,0)" stroke-width="1" opacity="0" d="M 37.5 37 L 38 51 Q 35.3 52.1 36 49.5 L 37 48.5 L 37.5 37 Z " /><path fill="white" stroke="rgb(0,0,0)" stroke-width="1" opacity="0" d="M 8.5 39 L 9.5 44 L 10 41 L 13 41.5 L 13 51 L 9 51 L 9 44.5 L 8 44.5 L 7.5 51 L 7 44.5 L 8.5 39 Z M 12 42 L 11 50 L 12 50 L 12 42 Z " /><path fill="white" stroke="rgb(0,0,0)" stroke-width="1" opacity="0" d="M 77.5 43 L 82 43.5 L 77.5 44 L 77.5 43 Z " /><path fill="white" stroke="rgb(0,0,0)" stroke-width="1" opacity="0" d="M 195.5 43 L 200 43.5 L 195.5 44 L 195.5 43 Z " /><path fill="white" stroke="rgb(0,0,0)" stroke-width="1" opacity="0" d="M 21.5 46 L 22 50.5 L 21 50.5 L 21.5 46 Z " /><path fill="white" stroke="rgb(212,212,212)" stroke-width="1" opacity="0.6" d="M 7.5 0 Q 13.5 -1.5 15 1.5 L 14.5 5 L 14 1 L 7.5 1 L 7.5 0 Z " /><path fill="white" stroke="rgb(212,212,212)" stroke-width="1" opacity="0.6" d="M 23.5 0 L 30 0.5 L 23.5 1 L 23.5 0 Z " /><path fill="white" stroke="rgb(212,212,212)" stroke-width="1" opacity="0.6" d="M 37.5 0 L 44 0.5 L 37.5 1 L 37.5 0 Z " /><path fill="white" stroke="rgb(212,212,212)" stroke-width="1" opacity="0.6" d="M 48.5 0 L 58 0.5 L 48.5 1 L 48.5 0 Z " /><path fill="white" stroke="rgb(212,212,212)" stroke-width="1" opacity="0.6" d="M 68.5 0 L 81 0.5 L 68 1 L 68 49.5 L 68.5 50 L 81 50 L 81.5 45 L 82 49.5 L 80.5 51 L 68.5 51 L 67 49.5 L 67 1.5 L 68.5 0 Z " /><path fill="white" stroke="rgb(212,212,212)" stroke-width="1" opacity="0.6" d="M 85.5 0 L 94 0.5 L 85 1 L 85 49.5 Q 85.1 50.6 90.5 50 L 90.5 51 Q 85.3 52.3 84 49.5 L 84 1.5 L 85.5 0 Z " /><path fill="white" stroke="rgb(212,212,212)" stroke-width="1" opacity="0.6" d="M 165.5 0 Q 170 -1 171 1.5 L 169.5 1 Q 164.5 2 165.5 0 Z " /><path fill="white" stroke="rgb(212,212,212)" stroke-width="1" opacity="0.6" d="M 177.5 0 Q 182 -1 183 1.5 L 183 49.5 L 181.5 51 L 178 50.5 L 182 50 L 182 1.5 Q 182 0.5 177.5 1 L 177.5 0 Z " /><path fill="white" stroke="rgb(212,212,212)" stroke-width="1" opacity="0.6" d="M 186.5 0 L 200 0.5 L 186.5 1 L 186.5 0 Z " /><path fill="white" stroke="rgb(212,212,212)" stroke-width="1" opacity="0.6" d="M 107.5 1 L 106.5 3 L 107.5 1 Z " /><path fill="white" stroke="rgb(212,212,212)" stroke-width="1" opacity="0.6" d="M 137.5 1 L 138.5 3 L 137.5 1 Z " /><path fill="white" stroke="rgb(212,212,212)" stroke-width="1" opacity="0.6" d="M 44.5 2 L 45 49.5 Q 44 52 39.5 51 L 39.5 50 Q 44 50.5 44 49.5 L 44.5 2 Z " /><path fill="white" stroke="rgb(212,212,212)" stroke-width="1" opacity="0.6" d="M 81.5 2 L 82 5.5 L 81 5.5 L 81.5 2 Z " /><path fill="white" stroke="rgb(212,212,212)" stroke-width="1" opacity="0.6" d="M 99.5 3 L 100.5 5 L 99.5 3 Z " /><path fill="white" stroke="rgb(212,212,212)" stroke-width="1" opacity="0.6" d="M 22.5 4 L 23 6.5 L 22 6.5 L 22.5 4 Z " /><path fill="white" stroke="rgb(212,212,212)" stroke-width="1" opacity="0.6" d="M 5.5 5 L 6 8.5 L 5 8.5 L 5.5 5 Z " /><path fill="white" stroke="rgb(212,212,212)" stroke-width="1" opacity="0.6" d="M 112.5 5 L 111.5 7 L 112.5 5 Z " /><path fill="white" stroke="rgb(212,212,212)" stroke-width="1" opacity="0.6" d="M 54.5 6 L 55 27 L 57 27.5 L 54 28 L 54.5 6 Z " /><path fill="white" stroke="rgb(212,212,212)" stroke-width="1" opacity="0.6" d="M 93.5 6 L 95 7.5 L 95 22.5 L 94 22.5 L 94 7.5 L 93.5 6 Z " /><path fill="white" stroke="rgb(212,212,212)" stroke-width="1" opacity="0.6" d="M 192.5 6 L 193 21.5 L 192 21.5 L 192.5 6 Z " /><path fill="white" stroke="rgb(212,212,212)" stroke-width="1" opacity="0.6" d="M 35.5 7 L 36 11.5 L 35 11.5 L 35.5 7 Z " /><path fill="white" stroke="rgb(212,212,212)" stroke-width="1" opacity="0.6" d="M 104.5 7 L 105 16.5 L 104 16.5 L 104.5 7 Z " /><path fill="white" stroke="rgb(212,212,212)" stroke-width="1" opacity="0.6" d="M 114.5 7 L 115 16.5 L 114 16.5 L 114.5 7 Z " /><path fill="white" stroke="rgb(212,212,212)" stroke-width="1" opacity="0.6" d="M 130.5 7 L 131 10.5 L 130 10.5 L 130.5 7 Z " /><path fill="white" stroke="rgb(212,212,212)" stroke-width="1" opacity="0.6" d="M 140.5 7 L 141 16.5 L 140 16.5 L 140.5 7 Z " /><path fill="white" stroke="rgb(212,212,212)" stroke-width="1" opacity="0.6" d="M 161.5 7 L 162 43.5 L 161 43.5 L 161.5 7 Z " /><path fill="white" stroke="rgb(212,212,212)" stroke-width="1" opacity="0.6" d="M 31.5 8 L 32 12.5 L 31 12.5 L 31.5 8 Z " /><path fill="white" stroke="rgb(212,212,212)" stroke-width="1" opacity="0.6" d="M 101.5 8 L 102 21.5 L 101 21.5 L 101.5 8 Z " /><path fill="white" stroke="rgb(212,212,212)" stroke-width="1" opacity="0.6" d="M 15.5 9 L 16 12.5 L 15 12.5 L 15.5 9 Z " /><path fill="white" stroke="rgb(212,212,212)" stroke-width="1" opacity="0.6" d="M 58.5 9 L 59 24.5 L 58 24.5 L 58.5 9 Z " /><path fill="white" stroke="rgb(212,212,212)" stroke-width="1" opacity="0.6" d="M 22.5 11 L 23 13.5 L 22 13.5 L 22.5 11 Z " /><path fill="white" stroke="rgb(212,212,212)" stroke-width="1" opacity="0.6" d="M 130.5 12 L 131 15.5 L 130 15.5 L 130.5 12 Z " /><path fill="white" stroke="rgb(212,212,212)" stroke-width="1" opacity="0.6" d="M 4.5 13 L 5 16.5 L 4 16.5 L 4.5 13 Z " /><path fill="white" stroke="rgb(212,212,212)" stroke-width="1" opacity="0.6" d="M 9 14 Q 12 12.8 11 16.5 L 9 17.5 L 9 14 Z " /><path fill="white" stroke="rgb(212,212,212)" stroke-width="1" opacity="0.6" d="M 16.5 17 L 17 20.5 L 16 20.5 L 16.5 17 Z " /><path fill="white" stroke="rgb(212,212,212)" stroke-width="1" opacity="0.6" d="M 34.5 18 L 35 21.5 L 34 21.5 L 34.5 18 Z " /><path fill="white" stroke="rgb(212,212,212)" stroke-width="1" opacity="0.6" d="M 150.5 18 L 151 43.5 L 150 43.5 L 150.5 18 Z " /><path fill="white" stroke="rgb(212,212,212)" stroke-width="1" opacity="0.6" d="M 32.5 19 L 33 23.5 L 32 23.5 L 32.5 19 Z " /><path fill="white" stroke="rgb(212,212,212)" stroke-width="1" opacity="0.6" d="M 3.5 21 L 4 23.5 L 3 23.5 L 3.5 21 Z " /><path fill="white" stroke="rgb(212,212,212)" stroke-width="1" opacity="0.6" d="M 27.5 21 Q 29.8 21.8 29 25.5 L 28 26.5 L 27.5 49 L 27.5 21 Z " /><path fill="white" stroke="rgb(212,212,212)" stroke-width="1" opacity="0.6" d="M 38.5 21 L 39 24.5 L 38 24.5 L 38.5 21 Z " /><path fill="white" stroke="rgb(212,212,212)" stroke-width="1" opacity="0.6" d="M 79.5 21 Q 82 22 81 26.5 L 80 26.5 L 79.5 21 Z " /><path fill="white" stroke="rgb(212,212,212)" stroke-width="1" opacity="0.6" d="M 11.5 23 L 12 26.5 L 11 26.5 L 11.5 23 Z " /><path fill="white" stroke="rgb(212,212,212)" stroke-width="1" opacity="0.6" d="M 170.5 23 L 172 25.5 L 171 26.5 L 171 49.5 L 169.5 51 L 165 50.5 L 170 50 L 170.5 23 Z " /><path fill="white" stroke="rgb(212,212,212)" stroke-width="1" opacity="0.6" d="M 8.5 24 L 9 27.5 L 8 27.5 L 8.5 24 Z " /><path fill="white" stroke="rgb(212,212,212)" stroke-width="1" opacity="0.6" d="M 22.5 24 L 23 28.5 L 22 28.5 L 22.5 24 Z " /><path fill="white" stroke="rgb(212,212,212)" stroke-width="1" opacity="0.6" d="M 107.5 24 L 108.5 26 L 107.5 24 Z " /><path fill="white" stroke="rgb(212,212,212)" stroke-width="1" opacity="0.6" d="M 17.5 25 L 18 28.5 L 17 28.5 L 17.5 25 Z " /><path fill="white" stroke="rgb(212,212,212)" stroke-width="1" opacity="0.6" d="M 117.5 25 L 118.5 27 L 117.5 25 Z " /><path fill="white" stroke="rgb(212,212,212)" stroke-width="1" opacity="0.6" d="M 98.5 26 L 101 29.5 L 98 27.5 L 98.5 26 Z " /><path fill="white" stroke="rgb(212,212,212)" stroke-width="1" opacity="0.6" d="M 192.5 27 L 193 44.5 L 192 44.5 L 192.5 27 Z " /><path fill="white" stroke="rgb(212,212,212)" stroke-width="1" opacity="0.6" d="M 37.5 28 L 38 31.5 L 37 31.5 L 37.5 28 Z " /><path fill="white" stroke="rgb(212,212,212)" stroke-width="1" opacity="0.6" d="M 2.5 29 L 3 32.5 L 2 32.5 L 2.5 29 Z " /><path fill="white" stroke="rgb(212,212,212)" stroke-width="1" opacity="0.6" d="M 93.5 30 L 95 31.5 L 95 50 L 101 50 L 101 33.5 L 102 33.5 L 102 49.5 L 100.5 51 Q 95.3 52.3 94 49.5 L 94 31.5 L 93.5 30 Z " /><path fill="white" stroke="rgb(212,212,212)" stroke-width="1" opacity="0.6" d="M 18.5 33 L 19 36.5 L 18 36.5 L 18.5 33 Z " /><path fill="white" stroke="rgb(212,212,212)" stroke-width="1" opacity="0.6" d="M 22.5 33 L 23 36.5 L 22 36.5 L 22.5 33 Z " /><path fill="white" stroke="rgb(212,212,212)" stroke-width="1" opacity="0.6" d="M 29.5 33 L 30 35.5 L 29 35.5 L 29.5 33 Z " /><path fill="white" stroke="rgb(212,212,212)" stroke-width="1" opacity="0.6" d="M 54.5 33 L 55 49.5 Q 53.8 52.3 48.5 51 L 48.5 50 L 54 50 L 54.5 33 Z " /><path fill="white" stroke="rgb(212,212,212)" stroke-width="1" opacity="0.6" d="M 104.5 33 L 109 33.5 L 104.5 34 L 104.5 33 Z " /><path fill="white" stroke="rgb(212,212,212)" stroke-width="1" opacity="0.6" d="M 110.5 33 L 111 43.5 L 110 43.5 L 110.5 33 Z " /><path fill="white" stroke="rgb(212,212,212)" stroke-width="1" opacity="0.6" d="M 114.5 33 L 115 43.5 L 114 43.5 L 114.5 33 Z " /><path fill="white" stroke="rgb(212,212,212)" stroke-width="1" opacity="0.6" d="M 130.5 33 L 131.5 35 L 130.5 33 Z " /><path fill="white" stroke="rgb(212,212,212)" stroke-width="1" opacity="0.6" d="M 1.5 37 L 2 40.5 L 1 40.5 L 1.5 37 Z " /><path fill="white" stroke="rgb(212,212,212)" stroke-width="1" opacity="0.6" d="M 36.5 38 L 37 42.5 L 36 42.5 L 36.5 38 Z " /><path fill="white" stroke="rgb(212,212,212)" stroke-width="1" opacity="0.6" d="M 13.5 42 L 14 45.5 L 13 45.5 L 13.5 42 Z " /><path fill="white" stroke="rgb(212,212,212)" stroke-width="1" opacity="0.6" d="M 19.5 42 L 20 44.5 L 19 44.5 L 19.5 42 Z " /><path fill="white" stroke="rgb(212,212,212)" stroke-width="1" opacity="0.6" d="M 30.5 42 L 31 45.5 L 30 45.5 L 30.5 42 Z " /><path fill="white" stroke="rgb(212,212,212)" stroke-width="1" opacity="0.6" d="M 22.5 44 L 23 46.5 L 22 46.5 L 22.5 44 Z " /><path fill="white" stroke="rgb(212,212,212)" stroke-width="1" opacity="0.6" d="M 0.5 45 L 1 48.5 L 0 48.5 L 0.5 45 Z " /><path fill="white" stroke="rgb(212,212,212)" stroke-width="1" opacity="0.6" d="M 6.5 45 L 7 48.5 L 6 48.5 L 6.5 45 Z " /><path fill="white" stroke="rgb(212,212,212)" stroke-width="1" opacity="0.6" d="M 35.5 48 L 36 49.5 Q 35.3 51.8 31.5 51 L 31.5 50 Q 36 51.3 35.5 48 Z " /><path fill="white" stroke="rgb(212,212,212)" stroke-width="1" opacity="0.6" d="M 0.5 50 L 6 50.5 L 0.5 51 L 0.5 50 Z " /><path fill="white" stroke="rgb(212,212,212)" stroke-width="1" opacity="0.6" d="M 14.5 50 L 20 50.5 L 14.5 51 L 14.5 50 Z " /><path fill="white" stroke="rgb(212,212,212)" stroke-width="1" opacity="0.6" d="M 23.5 50 L 27 50.5 L 23.5 51 L 23.5 50 Z " /><path fill="white" stroke="rgb(212,212,212)" stroke-width="1" opacity="0.6" d="M 186.5 50 L 200 50.5 L 186.5 51 L 186.5 50 Z " /><path fill="white" stroke="rgb(220,220,220)" stroke-width="1" opacity="0.984313725490196" d="M 92.5 1 L 96 1.5 L 92.5 2 L 92.5 1 Z " /><path fill="white" stroke="rgb(220,220,220)" stroke-width="1" opacity="0.984313725490196" d="M 128.5 1 L 137 1.5 L 128.5 2 L 128.5 1 Z " /><path fill="white" stroke="rgb(220,220,220)" stroke-width="1" opacity="0.984313725490196" d="M 97.5 2 L 96.5 4 L 97.5 2 Z " /><path fill="white" stroke="rgb(220,220,220)" stroke-width="1" opacity="0.984313725490196" d="M 6.5 4 L 7 8.5 L 5 9.5 L 6.5 4 Z " /><path fill="white" stroke="rgb(220,220,220)" stroke-width="1" opacity="0.984313725490196" d="M 36.5 4 L 37 9.5 L 36 9.5 L 36.5 4 Z " /><path fill="white" stroke="rgb(220,220,220)" stroke-width="1" opacity="0.984313725490196" d="M 43.5 4 L 44 11.5 L 43 11.5 L 43.5 4 Z " /><path fill="white" stroke="rgb(220,220,220)" stroke-width="1" opacity="0.984313725490196" d="M 119.5 4 L 120 7.5 L 119 7.5 L 119.5 4 Z " /><path fill="white" stroke="rgb(220,220,220)" stroke-width="1" opacity="0.984313725490196" d="M 144.5 5 L 145 8.5 L 144 8.5 L 144.5 5 Z " /><path fill="white" stroke="rgb(220,220,220)" stroke-width="1" opacity="0.984313725490196" d="M 139.5 6 L 140 15.5 L 139 15.5 L 139.5 6 Z " /><path fill="white" stroke="rgb(220,220,220)" stroke-width="1" opacity="0.984313725490196" d="M 30.5 8 L 31 13.5 L 30 13.5 L 30.5 8 Z " /><path fill="white" stroke="rgb(220,220,220)" stroke-width="1" opacity="0.984313725490196" d="M 160.5 8 L 161 14.5 L 160 14.5 L 160.5 8 Z " /><path fill="white" stroke="rgb(220,220,220)" stroke-width="1" opacity="0.984313725490196" d="M 171.5 8 L 172 11.5 L 171 11.5 L 171.5 8 Z " /><path fill="white" stroke="rgb(220,220,220)" stroke-width="1" opacity="0.984313725490196" d="M 149.5 10 L 150 38.5 L 149 38.5 L 149.5 10 Z " /><path fill="white" stroke="rgb(220,220,220)" stroke-width="1" opacity="0.984313725490196" d="M 130.5 11 L 130 12.5 L 129.5 15 L 129 12.5 L 130.5 11 Z " /><path fill="white" stroke="rgb(220,220,220)" stroke-width="1" opacity="0.984313725490196" d="M 105.5 13 L 106 16.5 L 105 16.5 L 105.5 13 Z " /><path fill="white" stroke="rgb(220,220,220)" stroke-width="1" opacity="0.984313725490196" d="M 8.5 14 L 9 19.5 L 8 19.5 L 8.5 14 Z " /><path fill="white" stroke="rgb(220,220,220)" stroke-width="1" opacity="0.984313725490196" d="M 63.5 14 L 64 24.5 L 65 25.5 L 63.5 29 L 63.5 14 Z " /><path fill="white" stroke="rgb(220,220,220)" stroke-width="1" opacity="0.984313725490196" d="M 125.5 14 L 127 22.5 L 126 22.5 L 125.5 14 Z " /><path fill="white" stroke="rgb(220,220,220)" stroke-width="1" opacity="0.984313725490196" d="M 11.5 15 L 12 19.5 L 11 19.5 L 11.5 15 Z " /><path fill="white" stroke="rgb(220,220,220)" stroke-width="1" opacity="0.984313725490196" d="M 59.5 16 L 60 24.5 L 59 24.5 L 59.5 16 Z " /><path fill="white" stroke="rgb(220,220,220)" stroke-width="1" opacity="0.984313725490196" d="M 23.5 18 L 24 20.5 L 23 20.5 L 23.5 18 Z " /><path fill="white" stroke="rgb(220,220,220)" stroke-width="1" opacity="0.984313725490196" d="M 173.5 19 L 175 22.5 L 174 22.5 L 173.5 19 Z " /><path fill="white" stroke="rgb(220,220,220)" stroke-width="1" opacity="0.984313725490196" d="M 26.5 20 L 27 23.5 L 26 23.5 L 26.5 20 Z " /><path fill="white" stroke="rgb(220,220,220)" stroke-width="1" opacity="0.984313725490196" d="M 177.5 20 L 178 23.5 L 177 23.5 L 177.5 20 Z " /><path fill="white" stroke="rgb(220,220,220)" stroke-width="1" opacity="0.984313725490196" d="M 29.5 21 L 30 23.5 L 29 23.5 L 29.5 21 Z " /><path fill="white" stroke="rgb(220,220,220)" stroke-width="1" opacity="0.984313725490196" d="M 31.5 22 L 32 27.5 L 31 27.5 L 31.5 22 Z " /><path fill="white" stroke="rgb(220,220,220)" stroke-width="1" opacity="0.984313725490196" d="M 12.5 24 L 13 27.5 L 12 27.5 L 12.5 24 Z " /><path fill="white" stroke="rgb(220,220,220)" stroke-width="1" opacity="0.984313725490196" d="M 23.5 24 L 24 27.5 L 23 27.5 L 23.5 24 Z " /><path fill="white" stroke="rgb(220,220,220)" stroke-width="1" opacity="0.984313725490196" d="M 68.5 24 L 69 27.5 L 68 27.5 L 68.5 24 Z " /><path fill="white" stroke="rgb(220,220,220)" stroke-width="1" opacity="0.984313725490196" d="M 79.5 24 L 80 25.5 L 78 26.5 L 79.5 24 Z " /><path fill="white" stroke="rgb(220,220,220)" stroke-width="1" opacity="0.984313725490196" d="M 7.5 25 L 8 27.5 L 7 27.5 L 7.5 25 Z " /><path fill="white" stroke="rgb(220,220,220)" stroke-width="1" opacity="0.984313725490196" d="M 109 25 Q 112 24 111 27 Q 108 28 109 25 Z " /><path fill="white" stroke="rgb(220,220,220)" stroke-width="1" opacity="0.984313725490196" d="M 124.5 30 L 125 33.5 L 124 33.5 L 124.5 30 Z " /><path fill="white" stroke="rgb(220,220,220)" stroke-width="1" opacity="0.984313725490196" d="M 174.5 31 L 175 35.5 L 174 35.5 L 174.5 31 Z " /><path fill="white" stroke="rgb(220,220,220)" stroke-width="1" opacity="0.984313725490196" d="M 109.5 33 L 109.5 36 L 104 34.5 L 109.5 33 Z " /><path fill="white" stroke="rgb(220,220,220)" stroke-width="1" opacity="0.984313725490196" d="M 144.5 36 L 147 43.5 L 145 42.5 L 144.5 36 Z " /><path fill="white" stroke="rgb(220,220,220)" stroke-width="1" opacity="0.984313725490196" d="M 2.5 39 L 3 41.5 L 2 41.5 L 2.5 39 Z " /><path fill="white" stroke="rgb(220,220,220)" stroke-width="1" opacity="0.984313725490196" d="M 139.5 39 L 140.5 41 L 139.5 39 Z " /><path fill="white" stroke="rgb(220,220,220)" stroke-width="1" opacity="0.984313725490196" d="M 18.5 40 L 19 47.5 L 18 47.5 L 18.5 40 Z " /><path fill="white" stroke="rgb(220,220,220)" stroke-width="1" opacity="0.984313725490196" d="M 31.5 40 L 32 44.5 L 31 44.5 L 31.5 40 Z " /><path fill="white" stroke="rgb(220,220,220)" stroke-width="1" opacity="0.984313725490196" d="M 176.5 40 L 177 43.5 L 176 43.5 L 176.5 40 Z " /><path fill="white" stroke="rgb(220,220,220)" stroke-width="1" opacity="0.984313725490196" d="M 149.5 41 L 150 43.5 L 149 43.5 L 149.5 41 Z " /><path fill="white" stroke="rgb(220,220,220)" stroke-width="1" opacity="0.984313725490196" d="M 1.5 44 L 2 47.5 L 1 47.5 L 1.5 44 Z " /><path fill="white" stroke="rgb(220,220,220)" stroke-width="1" opacity="0.984313725490196" d="M 43.5 44 L 44 47.5 L 43 47.5 L 43.5 44 Z " /><path fill="white" stroke="rgb(220,220,220)" stroke-width="1" opacity="0.984313725490196" d="M 155.5 44 L 154.5 46 L 152.5 47 L 153.5 45 L 155.5 44 Z " /><path fill="white" stroke="rgb(220,220,220)" stroke-width="1" opacity="0.984313725490196" d="M 142.5 45 L 144 47.5 L 142 46.5 L 142.5 45 Z " /><path fill="white" stroke="rgb(220,220,220)" stroke-width="1" opacity="0.984313725490196" d="M 196.5 45 L 200 45.5 L 196.5 46 L 196.5 45 Z " /><path fill="white" stroke="rgb(220,220,220)" stroke-width="1" opacity="0.984313725490196" d="M 5.5 46 L 6 47.5 L 4.5 50 L 4 48.5 L 5.5 46 Z " /><path fill="white" stroke="rgb(220,220,220)" stroke-width="1" opacity="0.984313725490196" d="M 159.5 47 L 158.5 49 L 159.5 47 Z " /><path fill="white" stroke="rgb(220,220,220)" stroke-width="1" opacity="0.984313725490196" d="M 34.5 48 L 33.5 50 L 34.5 48 Z " /><path fill="white" stroke="rgb(220,220,220)" stroke-width="1" opacity="0.984313725490196" d="M 117.5 48 L 116.5 50 L 109 49.5 L 117.5 48 Z " /><path fill="white" stroke="rgb(220,220,220)" stroke-width="1" opacity="0.984313725490196" d="M 138.5 48 L 139.5 50 L 138.5 48 Z " /><path fill="white" stroke="rgb(220,220,220)" stroke-width="1" opacity="0.984313725490196" d="M 48.5 49 L 53 49.5 L 48.5 50 L 48.5 49 Z " /><path fill="white" stroke="rgb(220,220,220)" stroke-width="1" opacity="0.984313725490196" d="M 148.5 49 L 151 49.5 L 148.5 50 L 148.5 49 Z " /><path fill="white" stroke="rgb(220,220,220)" stroke-width="1" opacity="0.984313725490196" d="M 186.5 49 L 200 49.5 L 186.5 50 L 186.5 49 Z " /><path fill="white" stroke="rgb(215,215,215)" stroke-width="1" opacity="0.9607843137254902" d="M 30.5 2 L 31 4.5 L 30 4.5 L 30.5 2 Z " /><path fill="white" stroke="rgb(215,215,215)" stroke-width="1" opacity="0.9607843137254902" d="M 86.5 2 L 91 2.5 L 86.5 3 L 86.5 2 Z " /><path fill="white" stroke="rgb(215,215,215)" stroke-width="1" opacity="0.9607843137254902" d="M 146.5 2 L 147.5 4 L 145 3.5 L 146.5 2 Z " /><path fill="white" stroke="rgb(215,215,215)" stroke-width="1" opacity="0.9607843137254902" d="M 188.5 2 L 200 2.5 L 188.5 3 L 188.5 2 Z " /><path fill="white" stroke="rgb(215,215,215)" stroke-width="1" opacity="0.9607843137254902" d="M 63.5 4 L 63 5.5 L 62.5 7 L 62 5.5 L 63.5 4 Z " /><path fill="white" stroke="rgb(215,215,215)" stroke-width="1" opacity="0.9607843137254902" d="M 86.5 4 L 87 6.5 L 86 6.5 L 86.5 4 Z " /><path fill="white" stroke="rgb(215,215,215)" stroke-width="1" opacity="0.9607843137254902" d="M 91.5 5 L 91 6.5 L 90.5 25 L 90 6.5 L 91.5 5 Z " /><path fill="white" stroke="rgb(215,215,215)" stroke-width="1" opacity="0.9607843137254902" d="M 151.5 5 L 150.5 7 L 151.5 5 Z " /><path fill="white" stroke="rgb(215,215,215)" stroke-width="1" opacity="0.9607843137254902" d="M 52.5 8 L 53 11.5 L 52 11.5 L 52.5 8 Z " /><path fill="white" stroke="rgb(215,215,215)" stroke-width="1" opacity="0.9607843137254902" d="M 138.5 8 L 139 15.5 L 138 15.5 L 138.5 8 Z " /><path fill="white" stroke="rgb(215,215,215)" stroke-width="1" opacity="0.9607843137254902" d="M 64.5 11 L 65 23.5 L 64 23.5 L 64.5 11 Z " /><path fill="white" stroke="rgb(215,215,215)" stroke-width="1" opacity="0.9607843137254902" d="M 9 12 Q 12 11 11 14 Q 8 15 9 12 Z " /><path fill="white" stroke="rgb(215,215,215)" stroke-width="1" opacity="0.9607843137254902" d="M 12.5 13 L 13 17.5 L 12 17.5 L 12.5 13 Z " /><path fill="white" stroke="rgb(215,215,215)" stroke-width="1" opacity="0.9607843137254902" d="M 120.5 13 L 121 15.5 L 120 15.5 L 120.5 13 Z " /><path fill="white" stroke="rgb(215,215,215)" stroke-width="1" opacity="0.9607843137254902" d="M 134.5 14 L 135 16.5 L 134 16.5 L 134.5 14 Z " /><path fill="white" stroke="rgb(215,215,215)" stroke-width="1" opacity="0.9607843137254902" d="M 52.5 16 L 53 26.5 L 52 26.5 L 52.5 16 Z " /><path fill="white" stroke="rgb(215,215,215)" stroke-width="1" opacity="0.9607843137254902" d="M 22.5 18 L 23 23.5 L 22 23.5 L 22.5 18 Z " /><path fill="white" stroke="rgb(215,215,215)" stroke-width="1" opacity="0.9607843137254902" d="M 28.5 18 L 29 21.5 L 28 21.5 L 28.5 18 Z " /><path fill="white" stroke="rgb(215,215,215)" stroke-width="1" opacity="0.9607843137254902" d="M 38.5 19 Q 41.3 20.3 40 25.5 L 39 25.5 L 38.5 19 Z " /><path fill="white" stroke="rgb(215,215,215)" stroke-width="1" opacity="0.9607843137254902" d="M 86.5 19 L 87 21.5 L 86 21.5 L 86.5 19 Z " /><path fill="white" stroke="rgb(215,215,215)" stroke-width="1" opacity="0.9607843137254902" d="M 113.5 21 L 114.5 23 L 113.5 21 Z " /><path fill="white" stroke="rgb(215,215,215)" stroke-width="1" opacity="0.9607843137254902" d="M 170.5 21 L 172 23.5 L 170 22.5 L 170.5 21 Z " /><path fill="white" stroke="rgb(215,215,215)" stroke-width="1" opacity="0.9607843137254902" d="M 34.5 22 L 35 26.5 L 34 26.5 L 34.5 22 Z " /><path fill="white" stroke="rgb(215,215,215)" stroke-width="1" opacity="0.9607843137254902" d="M 94.5 23 L 93.5 25 L 94.5 23 Z " /><path fill="white" stroke="rgb(215,215,215)" stroke-width="1" opacity="0.9607843137254902" d="M 32.5 24 L 34 29.5 L 32 28.5 L 32.5 24 Z " /><path fill="white" stroke="rgb(215,215,215)" stroke-width="1" opacity="0.9607843137254902" d="M 37.5 25 L 38 27.5 L 37 27.5 L 37.5 25 Z " /><path fill="white" stroke="rgb(215,215,215)" stroke-width="1" opacity="0.9607843137254902" d="M 126.5 25 L 127.5 27 L 126.5 25 Z " /><path fill="white" stroke="rgb(215,215,215)" stroke-width="1" opacity="0.9607843137254902" d="M 111.5 26 L 110.5 28 L 111.5 26 Z " /><path fill="white" stroke="rgb(215,215,215)" stroke-width="1" opacity="0.9607843137254902" d="M 12.5 29 L 13 34 L 7 34 L 7 31.5 L 8 31.5 L 8 33 L 12 33 L 12.5 29 Z " /><path fill="white" stroke="rgb(215,215,215)" stroke-width="1" opacity="0.9607843137254902" d="M 86.5 31 L 87 38.5 L 86 38.5 L 86.5 31 Z " /><path fill="white" stroke="rgb(215,215,215)" stroke-width="1" opacity="0.9607843137254902" d="M 130.5 32 L 131.5 34 L 129 33.5 L 130.5 32 Z " /><path fill="white" stroke="rgb(215,215,215)" stroke-width="1" opacity="0.9607843137254902" d="M 119.5 34 L 120 37.5 L 119 37.5 L 119.5 34 Z " /><path fill="white" stroke="rgb(215,215,215)" stroke-width="1" opacity="0.9607843137254902" d="M 108.5 35 L 109 39.5 L 108 39.5 L 108.5 35 Z " /><path fill="white" stroke="rgb(215,215,215)" stroke-width="1" opacity="0.9607843137254902" d="M 90.5 36 L 91 42.5 L 90 42.5 L 90.5 36 Z " /><path fill="white" stroke="rgb(215,215,215)" stroke-width="1" opacity="0.9607843137254902" d="M 116.5 37 L 117 39.5 L 116 39.5 L 116.5 37 Z " /><path fill="white" stroke="rgb(215,215,215)" stroke-width="1" opacity="0.9607843137254902" d="M 125.5 38 L 126 43.5 L 124.5 46 L 124 44.5 L 125.5 38 Z " /><path fill="white" stroke="rgb(215,215,215)" stroke-width="1" opacity="0.9607843137254902" d="M 13.5 39 L 14 41.5 L 13 41.5 L 13.5 39 Z " /><path fill="white" stroke="rgb(215,215,215)" stroke-width="1" opacity="0.9607843137254902" d="M 110.5 44 L 111.5 46 L 110.5 44 Z " /><path fill="white" stroke="rgb(215,215,215)" stroke-width="1" opacity="0.9607843137254902" d="M 114.5 44 L 113.5 46 L 114.5 44 Z " /><path fill="white" stroke="rgb(215,215,215)" stroke-width="1" opacity="0.9607843137254902" d="M 150.5 44 L 151.5 46 L 150.5 44 Z " /><path fill="white" stroke="rgb(215,215,215)" stroke-width="1" opacity="0.9607843137254902" d="M 117.5 47 L 120 47.5 L 117 49.5 L 117.5 47 Z " /><path fill="white" stroke="rgb(215,215,215)" stroke-width="1" opacity="0.9607843137254902" d="M 49.5 48 L 52 48.5 L 49.5 49 L 49.5 48 Z " /><path fill="white" stroke="rgb(215,215,215)" stroke-width="1" opacity="0.9607843137254902" d="M 110.5 50 L 115 50.5 L 110.5 51 L 110.5 50 Z " /><path fill="white" stroke="rgb(215,215,215)" stroke-width="1" opacity="0.9607843137254902" d="M 130.5 50 L 135 50.5 L 130.5 51 L 130.5 50 Z " /><path fill="white" stroke="rgb(215,215,215)" stroke-width="1" opacity="0.9607843137254902" d="M 140.5 50 L 144 50.5 L 140.5 51 L 140.5 50 Z " /><path fill="white" stroke="rgb(226,226,226)" stroke-width="1" opacity="1" d="M 7 1 L 12 1.5 L 7.5 3 L 7 1 Z " /><path fill="white" stroke="rgb(226,226,226)" stroke-width="1" opacity="1" d="M 23.5 1 Q 30.5 -0.5 30 2.5 L 28.5 2 Q 22.5 3.2 23.5 1 Z " /><path fill="white" stroke="rgb(226,226,226)" stroke-width="1" opacity="1" d="M 37.5 1 L 40 1.5 L 37.5 2 L 37.5 1 Z " /><path fill="white" stroke="rgb(226,226,226)" stroke-width="1" opacity="1" d="M 41.5 1 L 44 1.5 L 41.5 2 L 41.5 1 Z " /><path fill="white" stroke="rgb(226,226,226)" stroke-width="1" opacity="1" d="M 48.5 1 L 57 1.5 L 48.5 2 L 48.5 1 Z " /><path fill="white" stroke="rgb(226,226,226)" stroke-width="1" opacity="1" d="M 68.5 1 L 81 1.5 L 68.5 2 L 68.5 1 Z " /><path fill="white" stroke="rgb(226,226,226)" stroke-width="1" opacity="1" d="M 85 1 L 87 1.5 L 85 2.5 L 85 1 Z " /><path fill="white" stroke="rgb(226,226,226)" stroke-width="1" opacity="1" d="M 88.5 1 L 92 1.5 L 88.5 2 L 88.5 1 Z " /><path fill="white" stroke="rgb(226,226,226)" stroke-width="1" opacity="1" d="M 116.5 1 L 118.5 4 L 116.5 1 Z " /><path fill="white" stroke="rgb(226,226,226)" stroke-width="1" opacity="1" d="M 165 1 L 170 1.5 L 165.5 3 L 165 1 Z " /><path fill="white" stroke="rgb(226,226,226)" stroke-width="1" opacity="1" d="M 177.5 1 L 180 1.5 L 177.5 2 L 177.5 1 Z " /><path fill="white" stroke="rgb(226,226,226)" stroke-width="1" opacity="1" d="M 188.5 1 L 200 1.5 L 188.5 2 L 188.5 1 Z " /><path fill="white" stroke="rgb(226,226,226)" stroke-width="1" opacity="1" d="M 127.5 2 L 126.5 4 L 127.5 2 Z " /><path fill="white" stroke="rgb(226,226,226)" stroke-width="1" opacity="1" d="M 137.5 2 L 138.5 4 L 137.5 2 Z " /><path fill="white" stroke="rgb(226,226,226)" stroke-width="1" opacity="1" d="M 68.5 3 L 69 23.5 L 68 23.5 L 68.5 3 Z " /><path fill="white" stroke="rgb(226,226,226)" stroke-width="1" opacity="1" d="M 181.5 3 L 182 47.5 L 181 47.5 L 181.5 3 Z " /><path fill="white" stroke="rgb(226,226,226)" stroke-width="1" opacity="1" d="M 85.5 4 L 86 11.5 L 85 11.5 L 85.5 4 Z " /><path fill="white" stroke="rgb(226,226,226)" stroke-width="1" opacity="1" d="M 165.5 4 L 166 49 L 169 48.5 L 169 24.5 L 170 24.5 L 170 49.5 L 165 50 L 165.5 4 Z " /><path fill="white" stroke="rgb(226,226,226)" stroke-width="1" opacity="1" d="M 53.5 7 L 54 27.5 L 53 27.5 L 53.5 7 Z " /><path fill="white" stroke="rgb(226,226,226)" stroke-width="1" opacity="1" d="M 100.5 7 L 101 19.5 L 100 19.5 L 100.5 7 Z " /><path fill="white" stroke="rgb(226,226,226)" stroke-width="1" opacity="1" d="M 191.5 7 L 192 19.5 L 191 19.5 L 191.5 7 Z " /><path fill="white" stroke="rgb(226,226,226)" stroke-width="1" opacity="1" d="M 14.5 8 L 15 10.5 L 14 10.5 L 14.5 8 Z " /><path fill="white" stroke="rgb(226,226,226)" stroke-width="1" opacity="1" d="M 95.5 8 L 96 20.5 L 95 20.5 L 95.5 8 Z " /><path fill="white" stroke="rgb(226,226,226)" stroke-width="1" opacity="1" d="M 115.5 8 L 116 15.5 L 115 15.5 L 115.5 8 Z " /><path fill="white" stroke="rgb(226,226,226)" stroke-width="1" opacity="1" d="M 105.5 9 L 106 12.5 L 105 12.5 L 105.5 9 Z " /><path fill="white" stroke="rgb(226,226,226)" stroke-width="1" opacity="1" d="M 144.5 9 L 145 35.5 L 144 35.5 L 144.5 9 Z " /><path fill="white" stroke="rgb(226,226,226)" stroke-width="1" opacity="1" d="M 5.5 12 L 6 15.5 L 5 15.5 L 5.5 12 Z " /><path fill="white" stroke="rgb(226,226,226)" stroke-width="1" opacity="1" d="M 43.5 12 L 44 33.5 L 43 33.5 L 43.5 12 Z " /><path fill="white" stroke="rgb(226,226,226)" stroke-width="1" opacity="1" d="M 23.5 13 L 24 15.5 L 23 15.5 L 23.5 13 Z " /><path fill="white" stroke="rgb(226,226,226)" stroke-width="1" opacity="1" d="M 85.5 13 L 86 47.5 L 85 47.5 L 85.5 13 Z " /><path fill="white" stroke="rgb(226,226,226)" stroke-width="1" opacity="1" d="M 160.5 15 L 161 43.5 L 160 43.5 L 160.5 15 Z " /><path fill="white" stroke="rgb(226,226,226)" stroke-width="1" opacity="1" d="M 15.5 16 L 16 20.5 L 15 20.5 L 15.5 16 Z " /><path fill="white" stroke="rgb(226,226,226)" stroke-width="1" opacity="1" d="M 35.5 16 L 36 19.5 L 35 19.5 L 35.5 16 Z " /><path fill="white" stroke="rgb(226,226,226)" stroke-width="1" opacity="1" d="M 193.5 22 L 198 22.5 L 193.5 23 L 193.5 22 Z " /><path fill="white" stroke="rgb(226,226,226)" stroke-width="1" opacity="1" d="M 26.5 24 L 27 26.5 L 26 26.5 L 26.5 24 Z " /><path fill="white" stroke="rgb(226,226,226)" stroke-width="1" opacity="1" d="M 29.5 24 L 30 28.5 L 29 28.5 L 29.5 24 Z " /><path fill="white" stroke="rgb(226,226,226)" stroke-width="1" opacity="1" d="M 99.5 24 L 98.5 26 L 99.5 24 Z " /><path fill="white" stroke="rgb(226,226,226)" stroke-width="1" opacity="1" d="M 36.5 28 L 37 32.5 L 36 32.5 L 36.5 28 Z " /><path fill="white" stroke="rgb(226,226,226)" stroke-width="1" opacity="1" d="M 68.5 28 L 69 47.5 L 68 47.5 L 68.5 28 Z " /><path fill="white" stroke="rgb(226,226,226)" stroke-width="1" opacity="1" d="M 173.5 28 L 174 30.5 L 173 30.5 L 173.5 28 Z " /><path fill="white" stroke="rgb(226,226,226)" stroke-width="1" opacity="1" d="M 191.5 28 L 192 43.5 L 191 43.5 L 191.5 28 Z " /><path fill="white" stroke="rgb(226,226,226)" stroke-width="1" opacity="1" d="M 62.5 29 L 61.5 31 L 62.5 29 Z " /><path fill="white" stroke="rgb(226,226,226)" stroke-width="1" opacity="1" d="M 93.5 29 L 94.5 31 L 93.5 29 Z " /><path fill="white" stroke="rgb(226,226,226)" stroke-width="1" opacity="1" d="M 30.5 31 L 31 35.5 L 30 35.5 L 30.5 31 Z " /><path fill="white" stroke="rgb(226,226,226)" stroke-width="1" opacity="1" d="M 17.5 32 L 18 36.5 L 17 36.5 L 17.5 32 Z " /><path fill="white" stroke="rgb(226,226,226)" stroke-width="1" opacity="1" d="M 95.5 32 L 96 47.5 L 95 47.5 L 95.5 32 Z " /><path fill="white" stroke="rgb(226,226,226)" stroke-width="1" opacity="1" d="M 100.5 32 L 101 46.5 L 100 46.5 L 100.5 32 Z " /><path fill="white" stroke="rgb(226,226,226)" stroke-width="1" opacity="1" d="M 26.5 33 L 27 35.5 L 26 35.5 L 26.5 33 Z " /><path fill="white" stroke="rgb(226,226,226)" stroke-width="1" opacity="1" d="M 53.5 34 L 54 49.5 L 53 49.5 L 53.5 34 Z " /><path fill="white" stroke="rgb(226,226,226)" stroke-width="1" opacity="1" d="M 43.5 35 L 44 37.5 L 43 37.5 L 43.5 35 Z " /><path fill="white" stroke="rgb(226,226,226)" stroke-width="1" opacity="1" d="M 115.5 35 L 116 43.5 L 115 43.5 L 115.5 35 Z " /><path fill="white" stroke="rgb(226,226,226)" stroke-width="1" opacity="1" d="M 109.5 36 L 110 43.5 L 109 43.5 L 109.5 36 Z " /><path fill="white" stroke="rgb(226,226,226)" stroke-width="1" opacity="1" d="M 8.5 37 L 11 37.5 L 8.5 38 L 8.5 37 Z " /><path fill="white" stroke="rgb(226,226,226)" stroke-width="1" opacity="1" d="M 43.5 40 L 44 43.5 L 43 43.5 L 43.5 40 Z " /><path fill="white" stroke="rgb(226,226,226)" stroke-width="1" opacity="1" d="M 14.5 42 Q 13.6 47.4 16.5 49 L 20 49.5 L 15 50 Q 13.1 47.5 14.5 42 Z " /><path fill="white" stroke="rgb(226,226,226)" stroke-width="1" opacity="1" d="M 107.5 48 L 108.5 50 L 107.5 48 Z " /><path fill="white" stroke="rgb(226,226,226)" stroke-width="1" opacity="1" d="M 23.5 49 L 27 49.5 L 23.5 50 L 23.5 49 Z " /><path fill="white" stroke="rgb(226,226,226)" stroke-width="1" opacity="1" d="M 68.5 49 L 81 49.5 L 68.5 50 L 68.5 49 Z " /><path fill="white" stroke="rgb(226,226,226)" stroke-width="1" opacity="1" d="M 85.5 49 L 90 49.5 L 85.5 50 L 85.5 49 Z " /><path fill="white" stroke="rgb(226,226,226)" stroke-width="1" opacity="1" d="M 95.5 49 L 101 49.5 L 95.5 50 L 95.5 49 Z " /><path fill="white" stroke="rgb(254,254,254)" stroke-width="1" opacity="0.011764705882352941" d="M 21.5 0 L 22 36 Q 19.3 37.1 20 34.5 L 20 32.5 L 21 30.5 L 21.5 0 Z " /><path fill="white" stroke="rgb(254,254,254)" stroke-width="1" opacity="0.011764705882352941" d="M 32.5 0 L 33.5 2 L 31.5 3 L 32 1.5 L 32.5 0 Z " /><path fill="white" stroke="rgb(254,254,254)" stroke-width="1" opacity="0.011764705882352941" d="M 65.5 0 L 66 1.5 L 66 3.5 L 65.5 5 L 64 2.5 L 65.5 0 Z " /><path fill="white" stroke="rgb(254,254,254)" stroke-width="1" opacity="0.011764705882352941" d="M 98.5 0 L 104 3 L 102.5 6 L 101 5.5 L 102 3.5 L 98.5 0 Z " /><path fill="white" stroke="rgb(254,254,254)" stroke-width="1" opacity="0.011764705882352941" d="M 119.5 0 L 122 3.5 L 121 3.5 L 119.5 0 Z " /><path fill="white" stroke="rgb(254,254,254)" stroke-width="1" opacity="0.011764705882352941" d="M 125.5 0 L 124 2.5 L 123.5 4 L 123 2.5 L 125.5 0 Z " /><path fill="white" stroke="rgb(254,254,254)" stroke-width="1" opacity="0.011764705882352941" d="M 138.5 0 L 141 1.5 L 140.5 3 L 140 1 L 138.5 0 Z " /><path fill="white" stroke="rgb(254,254,254)" stroke-width="1" opacity="0.011764705882352941" d="M 145.5 0 L 143 3.5 L 142.5 6 L 142 3.5 L 145.5 0 Z " /><path fill="white" stroke="rgb(254,254,254)" stroke-width="1" opacity="0.011764705882352941" d="M 172.5 0 L 173.5 2 L 174.5 0 L 175 6 L 173 5.5 L 173 3.5 L 172.5 0 Z " /><path fill="white" stroke="rgb(254,254,254)" stroke-width="1" opacity="0.011764705882352941" d="M 3.5 1 L 4 5.5 L 3 5.5 L 3.5 1 Z " /><path fill="white" stroke="rgb(254,254,254)" stroke-width="1" opacity="0.011764705882352941" d="M 19.5 1 L 20 22.5 L 19 22.5 L 18 18.5 L 18 16.5 L 17.5 12 L 16.5 14 L 16 12.5 Q 18.8 10.8 17 4.5 L 16 4.5 L 15.5 6 L 15 4.5 L 16.5 2 Q 19.4 5.1 18.5 12 L 19.5 1 Z " /><path fill="white" stroke="rgb(254,254,254)" stroke-width="1" opacity="0.011764705882352941" d="M 162.5 1 L 163 4.5 L 162 4.5 L 161 2.5 L 162.5 1 Z " /><path fill="white" stroke="rgb(254,254,254)" stroke-width="1" opacity="0.011764705882352941" d="M 33.5 4 L 34 7.5 L 33 7.5 L 33.5 4 Z " /><path fill="white" stroke="rgb(254,254,254)" stroke-width="1" opacity="0.011764705882352941" d="M 3.5 7 L 3 8.5 L 2.5 14 L 2 8.5 L 3.5 7 Z " /><path fill="white" stroke="rgb(254,254,254)" stroke-width="1" opacity="0.011764705882352941" d="M 194.5 7 L 200 8.5 L 195 9 L 195 19 L 198.5 19 L 198.5 20 L 194.5 21 L 194 18.5 L 194 9.5 L 195 8.5 L 194.5 7 Z " /><path fill="white" stroke="rgb(254,254,254)" stroke-width="1" opacity="0.011764705882352941" d="M 152.5 8 L 153 40.5 L 152 40.5 L 152.5 8 Z " /><path fill="white" stroke="rgb(254,254,254)" stroke-width="1" opacity="0.011764705882352941" d="M 174.5 9 L 175 10.5 L 173 11.5 L 174.5 9 Z " /><path fill="white" stroke="rgb(254,254,254)" stroke-width="1" opacity="0.011764705882352941" d="M 56.5 10 L 58 10.5 L 58 24.5 L 56 25.5 L 56 12.5 L 57 11.5 L 56.5 10 Z " /><path fill="white" stroke="rgb(254,254,254)" stroke-width="1" opacity="0.011764705882352941" d="M 65.5 12 L 66 15.5 L 65 15.5 L 65.5 12 Z " /><path fill="white" stroke="rgb(254,254,254)" stroke-width="1" opacity="0.011764705882352941" d="M 123.5 13 L 124 16.5 L 123 20.5 L 125 20.5 Q 123.5 23.5 122 20.5 L 121 17.5 L 123 17 L 123.5 13 Z " /><path fill="white" stroke="rgb(254,254,254)" stroke-width="1" opacity="0.011764705882352941" d="M 2.5 15 L 2 16.5 L 2 23.5 L 0.5 29 L 0 24.5 Q 2.8 22.8 1 16.5 L 2.5 15 Z " /><path fill="white" stroke="rgb(254,254,254)" stroke-width="1" opacity="0.011764705882352941" d="M 76.5 16 L 77 19 L 81 19.5 L 76 20 L 76.5 16 Z " /><path fill="white" stroke="rgb(254,254,254)" stroke-width="1" opacity="0.011764705882352941" d="M 82.5 16 L 83 18.5 L 82 18.5 L 82.5 16 Z " /><path fill="white" stroke="rgb(254,254,254)" stroke-width="1" opacity="0.011764705882352941" d="M 113.5 17 Q 115.2 20.3 121 19.5 L 116 20.5 L 121.5 27 L 123.5 26 L 123 27.5 L 124 29.5 L 122 30 L 121.5 28 L 120 28.5 Q 122.3 27.2 119.5 26 L 118 25.5 L 119 24.5 L 115 20.5 L 113.5 17 Z " /><path fill="white" stroke="rgb(254,254,254)" stroke-width="1" opacity="0.011764705882352941" d="M 133.5 17 L 134 19 L 140.5 19 L 141.5 18 L 142 20.5 L 141.5 36 L 139 35.5 L 140 33.5 L 138 30.5 L 140 31.5 L 140.5 33 L 141 20 L 135.5 20 L 135 21.5 L 139 28.5 L 136 28.5 L 137 26.5 L 133.5 19 L 132 19.5 L 133.5 17 Z " /><path fill="white" stroke="rgb(254,254,254)" stroke-width="1" opacity="0.011764705882352941" d="M 103.5 22 L 106 22.5 L 106 24.5 L 113 33.5 L 111 32.5 L 105 24 Q 102.3 22.9 103 25.5 L 100.5 29 L 99.5 27 L 102 25.5 L 103.5 22 Z " /><path fill="white" stroke="rgb(254,254,254)" stroke-width="1" opacity="0.011764705882352941" d="M 82.5 26 L 83 29.5 L 82 29.5 L 82.5 26 Z " /><path fill="white" stroke="rgb(254,254,254)" stroke-width="1" opacity="0.011764705882352941" d="M 194.5 28 L 199 29.5 L 195 30 L 195 42 L 199.5 42 L 199.5 43 L 194.5 44 L 194 41.5 L 194 30.5 L 195 29.5 L 194.5 28 Z " /><path fill="white" stroke="rgb(254,254,254)" stroke-width="1" opacity="0.011764705882352941" d="M 65.5 29 L 66 50.5 L 65 50.5 L 64.5 32 L 61 34 Q 59.8 31 63.5 32 L 65.5 29 Z " /><path fill="white" stroke="rgb(254,254,254)" stroke-width="1" opacity="0.011764705882352941" d="M 77.5 29 L 77 30.5 L 76.5 32 L 76 30.5 L 77.5 29 Z " /><path fill="white" stroke="rgb(254,254,254)" stroke-width="1" opacity="0.011764705882352941" d="M 103.5 30 L 104 32.5 L 103 32.5 L 103.5 30 Z " /><path fill="white" stroke="rgb(254,254,254)" stroke-width="1" opacity="0.011764705882352941" d="M 93.5 31 L 92.5 33 L 93.5 31 Z " /><path fill="white" stroke="rgb(254,254,254)" stroke-width="1" opacity="0.011764705882352941" d="M 55.5 33 Q 59.3 32.3 60 34.5 L 57 36 L 56.5 51 L 56 34.5 L 55.5 33 Z " /><path fill="white" stroke="rgb(254,254,254)" stroke-width="1" opacity="0.011764705882352941" d="M 173.5 36 L 172.5 38 L 173.5 36 Z " /><path fill="white" stroke="rgb(254,254,254)" stroke-width="1" opacity="0.011764705882352941" d="M 21.5 37 L 22 39.5 L 21 39.5 L 21.5 37 Z " /><path fill="white" stroke="rgb(254,254,254)" stroke-width="1" opacity="0.011764705882352941" d="M 9.5 39 L 12 40.5 L 10 41 L 8.5 51 L 8 44.5 L 10 40.5 L 9.5 39 Z " /><path fill="white" stroke="rgb(254,254,254)" stroke-width="1" opacity="0.011764705882352941" d="M 76.5 40 L 78 42.5 L 76 41.5 L 76.5 40 Z " /><path fill="white" stroke="rgb(254,254,254)" stroke-width="1" opacity="0.011764705882352941" d="M 132 41 Q 135 39.8 134 43.5 L 132 42.5 L 132 41 Z " /><path fill="white" stroke="rgb(254,254,254)" stroke-width="1" opacity="0.011764705882352941" d="M 79.5 42 Q 84.3 40.3 83 44.5 L 82 44.5 Q 82.8 41.9 79.5 43 L 79.5 42 Z " /><path fill="white" stroke="rgb(254,254,254)" stroke-width="1" opacity="0.011764705882352941" d="M 172.5 42 L 174 45.5 L 172.5 51 L 172.5 42 Z " /><path fill="white" stroke="rgb(254,254,254)" stroke-width="1" opacity="0.011764705882352941" d="M 11.5 43 L 12 46.5 L 11 46.5 L 11.5 43 Z " /><path fill="white" stroke="rgb(254,254,254)" stroke-width="1" opacity="0.011764705882352941" d="M 21.5 43 L 22 45.5 L 20 46.5 L 21.5 43 Z " /><path fill="white" stroke="rgb(254,254,254)" stroke-width="1" opacity="0.011764705882352941" d="M 123.5 45 L 123 46.5 L 126 50.5 L 122.5 48 L 119 50.5 Q 122.1 48.8 120.5 47 L 122 47.5 L 123.5 45 Z " /><path fill="white" stroke="rgb(254,254,254)" stroke-width="1" opacity="0.011764705882352941" d="M 162.5 46 L 163 50.5 L 162 50.5 L 161.5 49 L 159 50.5 L 162.5 46 Z " /><path fill="white" stroke="rgb(254,254,254)" stroke-width="1" opacity="0.011764705882352941" d="M 103.5 47 L 106 50.5 L 103 50.5 L 103.5 47 Z " /><path fill="white" stroke="rgb(254,254,254)" stroke-width="1" opacity="0.011764705882352941" d="M 174.5 47 L 175 49.5 L 174 49.5 L 174.5 47 Z " /><path fill="white" stroke="rgb(217,217,217)" stroke-width="1" opacity="1" d="M 58.5 1 L 59.5 3 L 58.5 1 Z " /><path fill="white" stroke="rgb(217,217,217)" stroke-width="1" opacity="1" d="M 108.5 1 L 115 1.5 L 108.5 2 L 108.5 1 Z " /><path fill="white" stroke="rgb(217,217,217)" stroke-width="1" opacity="1" d="M 148.5 1 L 153 1.5 L 148.5 2 L 148.5 1 Z " /><path fill="white" stroke="rgb(217,217,217)" stroke-width="1" opacity="1" d="M 13.5 2 L 15 7.5 L 13.5 7 Q 11.3 7.8 12 5.5 L 13.5 2 Z " /><path fill="white" stroke="rgb(217,217,217)" stroke-width="1" opacity="1" d="M 43.5 2 L 44 4 L 42 3.5 L 43.5 2 Z " /><path fill="white" stroke="rgb(217,217,217)" stroke-width="1" opacity="1" d="M 80.5 2 L 81 4.5 Q 80 7 75.5 6 L 75.5 5 L 78 4.5 L 70 3.5 L 79.5 3 L 80.5 2 Z " /><path fill="white" stroke="rgb(217,217,217)" stroke-width="1" opacity="1" d="M 37.5 3 L 40 3.5 L 37.5 4 L 37.5 3 Z " /><path fill="white" stroke="rgb(217,217,217)" stroke-width="1" opacity="1" d="M 116.5 3 L 117 5.5 Q 115 9 113 4.5 Q 114.8 6.1 116.5 3 Z " /><path fill="white" stroke="rgb(217,217,217)" stroke-width="1" opacity="1" d="M 23.5 4 L 24 6.5 L 23 6.5 L 23.5 4 Z " /><path fill="white" stroke="rgb(217,217,217)" stroke-width="1" opacity="1" d="M 54.5 4 L 53.5 6 L 54.5 4 Z " /><path fill="white" stroke="rgb(217,217,217)" stroke-width="1" opacity="1" d="M 62.5 4 L 63.5 6 L 62.5 4 Z " /><path fill="white" stroke="rgb(217,217,217)" stroke-width="1" opacity="1" d="M 92.5 4 L 94.5 5 L 96 4.5 L 95 6.5 L 95.5 8 L 92.5 4 Z " /><path fill="white" stroke="rgb(217,217,217)" stroke-width="1" opacity="1" d="M 99.5 4 L 100 6.5 L 99 6.5 L 99.5 4 Z " /><path fill="white" stroke="rgb(217,217,217)" stroke-width="1" opacity="1" d="M 145.5 4 L 146 6.5 L 145 6.5 L 145.5 4 Z " /><path fill="white" stroke="rgb(217,217,217)" stroke-width="1" opacity="1" d="M 149 4 Q 154.5 2.9 157 5.5 Q 155.3 8.8 153.5 5 L 150 6.5 L 149.5 10 L 149 4 Z " /><path fill="white" stroke="rgb(217,217,217)" stroke-width="1" opacity="1" d="M 168.5 4 L 169 7.5 L 168 7.5 L 168.5 4 Z " /><path fill="white" stroke="rgb(217,217,217)" stroke-width="1" opacity="1" d="M 170.5 4 L 171 8.5 L 170 8.5 L 170.5 4 Z " /><path fill="white" stroke="rgb(217,217,217)" stroke-width="1" opacity="1" d="M 177.5 4 L 178 19.5 L 177 19.5 L 177.5 4 Z " /><path fill="white" stroke="rgb(217,217,217)" stroke-width="1" opacity="1" d="M 194.5 4 L 195.5 6 L 194.5 4 Z " /><path fill="white" stroke="rgb(217,217,217)" stroke-width="1" opacity="1" d="M 106.5 5 L 108 8.5 L 107 8.5 L 106.5 6 L 105 6.5 L 106.5 5 Z " /><path fill="white" stroke="rgb(217,217,217)" stroke-width="1" opacity="1" d="M 125.5 5 L 126 13.5 L 125 13.5 L 125.5 5 Z " /><path fill="white" stroke="rgb(217,217,217)" stroke-width="1" opacity="1" d="M 135.5 7 L 136 15.5 L 137 16.5 L 135 17 L 135.5 7 Z " /><path fill="white" stroke="rgb(217,217,217)" stroke-width="1" opacity="1" d="M 7.5 8 L 6.5 10 L 7.5 8 Z " /><path fill="white" stroke="rgb(217,217,217)" stroke-width="1" opacity="1" d="M 73.5 8 L 74 20 L 72 19.5 L 73 18.5 L 73.5 8 Z " /><path fill="white" stroke="rgb(217,217,217)" stroke-width="1" opacity="1" d="M 88 8 L 90 8.5 L 90 22 Q 87 23.3 88 19.5 L 89 14.5 L 87 10.5 L 88 8 Z " /><path fill="white" stroke="rgb(217,217,217)" stroke-width="1" opacity="1" d="M 119.5 8 L 120 17 L 117 16.5 L 119 16 L 119.5 8 Z " /><path fill="white" stroke="rgb(217,217,217)" stroke-width="1" opacity="1" d="M 8.5 10 L 9 13.5 L 8 13.5 L 8.5 10 Z " /><path fill="white" stroke="rgb(217,217,217)" stroke-width="1" opacity="1" d="M 11.5 10 L 13 12.5 L 11.5 15 L 11.5 10 Z " /><path fill="white" stroke="rgb(217,217,217)" stroke-width="1" opacity="1" d="M 25.5 10 L 28 10.5 L 25.5 11 L 25.5 10 Z " /><path fill="white" stroke="rgb(217,217,217)" stroke-width="1" opacity="1" d="M 71.5 10 L 72 15.5 L 71 15.5 L 71.5 10 Z " /><path fill="white" stroke="rgb(217,217,217)" stroke-width="1" opacity="1" d="M 63.5 11 L 64 13.5 L 63 13.5 L 63.5 11 Z " /><path fill="white" stroke="rgb(217,217,217)" stroke-width="1" opacity="1" d="M 14.5 12 L 16 15.5 L 14 16.5 L 14.5 12 Z " /><path fill="white" stroke="rgb(217,217,217)" stroke-width="1" opacity="1" d="M 28.5 12 L 29 15 L 25 14.5 L 28 14 L 28.5 12 Z " /><path fill="white" stroke="rgb(217,217,217)" stroke-width="1" opacity="1" d="M 59.5 12 L 60 15.5 L 59 15.5 L 59.5 12 Z " /><path fill="white" stroke="rgb(217,217,217)" stroke-width="1" opacity="1" d="M 28.5 17 Q 31.5 16.1 30 20.5 L 29 20.5 L 28.5 17 Z " /><path fill="white" stroke="rgb(217,217,217)" stroke-width="1" opacity="1" d="M 31.5 17 L 32 21.5 L 31 21.5 L 31.5 17 Z " /><path fill="white" stroke="rgb(217,217,217)" stroke-width="1" opacity="1" d="M 105.5 17 L 107 19.5 L 105 18.5 L 105.5 17 Z " /><path fill="white" stroke="rgb(217,217,217)" stroke-width="1" opacity="1" d="M 129.5 17 L 130.5 19 L 129.5 17 Z " /><path fill="white" stroke="rgb(217,217,217)" stroke-width="1" opacity="1" d="M 7 20 L 9 20.5 L 7.5 24 L 7 20 Z " /><path fill="white" stroke="rgb(217,217,217)" stroke-width="1" opacity="1" d="M 37.5 20 L 38 23.5 L 37 23.5 L 37.5 20 Z " /><path fill="white" stroke="rgb(217,217,217)" stroke-width="1" opacity="1" d="M 40.5 20 L 41 47.5 L 40 47.5 L 40.5 20 Z " /><path fill="white" stroke="rgb(217,217,217)" stroke-width="1" opacity="1" d="M 168.5 20 L 170 23.5 L 169 23.5 L 168.5 20 Z " /><path fill="white" stroke="rgb(217,217,217)" stroke-width="1" opacity="1" d="M 23.5 21 L 24 23.5 L 23 23.5 L 23.5 21 Z " /><path fill="white" stroke="rgb(217,217,217)" stroke-width="1" opacity="1" d="M 191.5 21 Q 194.5 22.5 191.5 24 L 191.5 21 Z " /><path fill="white" stroke="rgb(217,217,217)" stroke-width="1" opacity="1" d="M 78.5 22 L 77.5 24 L 78.5 22 Z " /><path fill="white" stroke="rgb(217,217,217)" stroke-width="1" opacity="1" d="M 132.5 23 L 135 28.5 L 133 29.5 L 133 27.5 L 132.5 23 Z " /><path fill="white" stroke="rgb(217,217,217)" stroke-width="1" opacity="1" d="M 197.5 23 L 198 26.5 L 197 26.5 L 197.5 23 Z " /><path fill="white" stroke="rgb(217,217,217)" stroke-width="1" opacity="1" d="M 89.5 24 L 93 25.5 L 89.5 27 L 87 25.5 L 89.5 24 Z " /><path fill="white" stroke="rgb(217,217,217)" stroke-width="1" opacity="1" d="M 190.5 26 L 193 26.5 Q 190.9 29.8 190.5 26 Z " /><path fill="white" stroke="rgb(217,217,217)" stroke-width="1" opacity="1" d="M 126.5 27 L 126 28.5 L 125.5 31 L 125 28.5 L 126.5 27 Z " /><path fill="white" stroke="rgb(217,217,217)" stroke-width="1" opacity="1" d="M 7.5 28 L 8 30.5 Q 5.8 31.7 7 36.5 L 7 38.5 L 6.5 40 L 5.5 38 L 4.5 40 L 3 32.5 L 4 32.5 Q 3.3 35.1 6 34 L 7.5 28 Z " /><path fill="white" stroke="rgb(217,217,217)" stroke-width="1" opacity="1" d="M 12.5 28 Q 15.1 27.2 14 30.5 L 13 30.5 L 12.5 28 Z " /><path fill="white" stroke="rgb(217,217,217)" stroke-width="1" opacity="1" d="M 73.5 28 L 74 43.5 L 73 43.5 L 73.5 28 Z " /><path fill="white" stroke="rgb(217,217,217)" stroke-width="1" opacity="1" d="M 96.5 28 L 100 29.5 L 97.5 30 Q 94.7 30.7 96.5 28 Z " /><path fill="white" stroke="rgb(217,217,217)" stroke-width="1" opacity="1" d="M 118.5 28 L 120 31.5 L 119 31.5 L 118.5 28 Z " /><path fill="white" stroke="rgb(217,217,217)" stroke-width="1" opacity="1" d="M 16.5 29 L 17 30.5 L 15 31.5 L 16.5 29 Z " /><path fill="white" stroke="rgb(217,217,217)" stroke-width="1" opacity="1" d="M 70.5 30 L 72 34.5 L 70.5 37 L 70.5 30 Z " /><path fill="white" stroke="rgb(217,217,217)" stroke-width="1" opacity="1" d="M 89.5 31 L 90 38.5 L 89 38.5 L 89.5 31 Z " /><path fill="white" stroke="rgb(217,217,217)" stroke-width="1" opacity="1" d="M 114.5 31 L 116 34.5 L 115 34.5 L 114.5 31 Z " /><path fill="white" stroke="rgb(217,217,217)" stroke-width="1" opacity="1" d="M 87.5 32 L 88 35.5 L 87 35.5 L 87.5 32 Z " /><path fill="white" stroke="rgb(217,217,217)" stroke-width="1" opacity="1" d="M 119.5 33 L 121 33.5 L 121 43.5 L 118.5 48 L 116.5 48 L 111.5 47 L 108 48 L 107.5 46 L 106.5 48 L 105 45.5 L 107 45.5 L 107.5 44 L 111.5 46 L 115.5 44 L 118.5 46 Q 120.8 44.3 120 39.5 L 120 37.5 L 119.5 33 Z " /><path fill="white" stroke="rgb(217,217,217)" stroke-width="1" opacity="1" d="M 132.5 33 L 133.5 35 Q 134.8 32.8 136 35.5 Q 132.9 37.3 134.5 39 Q 130.9 37.1 132.5 33 Z " /><path fill="white" stroke="rgb(217,217,217)" stroke-width="1" opacity="1" d="M 36.5 34 L 37 35.5 L 35.5 40 L 35 36.5 L 36.5 34 Z " /><path fill="white" stroke="rgb(217,217,217)" stroke-width="1" opacity="1" d="M 124.5 36 L 126 46.5 L 125 46.5 L 124.5 36 Z " /><path fill="white" stroke="rgb(217,217,217)" stroke-width="1" opacity="1" d="M 129.5 36 L 130 41.5 L 129 41.5 L 129.5 36 Z " /><path fill="white" stroke="rgb(217,217,217)" stroke-width="1" opacity="1" d="M 146.5 36 L 147 39.5 L 146 39.5 L 146.5 36 Z " /><path fill="white" stroke="rgb(217,217,217)" stroke-width="1" opacity="1" d="M 16.5 37 L 17.5 39 L 16.5 37 Z " /><path fill="white" stroke="rgb(217,217,217)" stroke-width="1" opacity="1" d="M 30.5 37 L 32 39.5 L 31 39.5 L 30.5 37 Z " /><path fill="white" stroke="rgb(217,217,217)" stroke-width="1" opacity="1" d="M 138.5 37 L 139.5 39 L 138.5 37 Z " /><path fill="white" stroke="rgb(217,217,217)" stroke-width="1" opacity="1" d="M 135.5 40 L 136 42.5 L 135 42.5 L 135.5 40 Z " /><path fill="white" stroke="rgb(217,217,217)" stroke-width="1" opacity="1" d="M 24.5 41 L 26 41.5 L 23.5 43 L 24.5 41 Z " /><path fill="white" stroke="rgb(217,217,217)" stroke-width="1" opacity="1" d="M 87.5 41 Q 90.8 39.9 90 42.5 L 88.5 42 L 87.5 41 Z " /><path fill="white" stroke="rgb(217,217,217)" stroke-width="1" opacity="1" d="M 2.5 42 L 3 44.5 L 2 44.5 L 2.5 42 Z " /><path fill="white" stroke="rgb(217,217,217)" stroke-width="1" opacity="1" d="M 5.5 42 L 6 45.5 L 5 45.5 L 5.5 42 Z " /><path fill="white" stroke="rgb(217,217,217)" stroke-width="1" opacity="1" d="M 149.5 44 L 151.5 47 L 149.5 44 Z " /><path fill="white" stroke="rgb(217,217,217)" stroke-width="1" opacity="1" d="M 23.5 45 L 26 46.5 L 24 47 L 23.5 49 L 23.5 45 Z " /><path fill="white" stroke="rgb(217,217,217)" stroke-width="1" opacity="1" d="M 76.5 45 L 79 45.5 L 76.5 46 L 76.5 45 Z " /><path fill="white" stroke="rgb(217,217,217)" stroke-width="1" opacity="1" d="M 130.5 45 L 135 47.5 L 133.5 48 L 130.5 45 Z " /><path fill="white" stroke="rgb(217,217,217)" stroke-width="1" opacity="1" d="M 158.5 45 Q 160.8 44.3 160 46.5 L 157 48.5 Q 160.1 46.8 158.5 45 Z " /><path fill="white" stroke="rgb(217,217,217)" stroke-width="1" opacity="1" d="M 191.5 45 L 196 45.5 L 191.5 46 L 191.5 45 Z " /><path fill="white" stroke="rgb(217,217,217)" stroke-width="1" opacity="1" d="M 128.5 46 L 129.5 48 L 128 48.5 L 128.5 50 Q 125.8 48.8 128 47.5 L 128.5 46 Z " /><path fill="white" stroke="rgb(217,217,217)" stroke-width="1" opacity="1" d="M 147.5 46 L 149 48.5 L 148 48.5 L 147.5 46 Z " /><path fill="white" stroke="rgb(217,217,217)" stroke-width="1" opacity="1" d="M 76.5 47 Q 81.9 45.1 81 48.5 L 79.5 48 Q 75.5 48.8 76.5 47 Z " /><path fill="white" stroke="rgb(217,217,217)" stroke-width="1" opacity="1" d="M 141.5 47 L 144 48.5 L 139.5 49 L 139.5 48 L 141.5 47 Z " /><path fill="white" stroke="rgb(217,217,217)" stroke-width="1" opacity="1" d="M 192.5 47 L 196 47.5 L 192.5 48 L 192.5 47 Z " /><path fill="white" stroke="rgb(217,217,217)" stroke-width="1" opacity="1" d="M 130.5 49 L 136 49.5 L 130.5 50 L 130.5 49 Z " /><path fill="white" stroke="rgb(217,217,217)" stroke-width="1" opacity="1" d="M 151.5 49 L 154 49.5 L 151.5 50 L 151.5 49 Z " /><path fill="white" stroke="rgb(211,211,211)" stroke-width="1" opacity="0.20392156862745098" d="M 6.5 0 L 6 1.5 L 5.5 5 L 5 1.5 L 6.5 0 Z " /><path fill="white" stroke="rgb(211,211,211)" stroke-width="1" opacity="0.20392156862745098" d="M 47.5 0 L 48 50.5 L 47 50.5 L 47.5 0 Z " /><path fill="white" stroke="rgb(211,211,211)" stroke-width="1" opacity="0.20392156862745098" d="M 117.5 0 L 119.5 3 L 117.5 0 Z " /><path fill="white" stroke="rgb(211,211,211)" stroke-width="1" opacity="0.20392156862745098" d="M 164.5 0 L 165 50.5 L 164 50.5 L 164.5 0 Z " /><path fill="white" stroke="rgb(211,211,211)" stroke-width="1" opacity="0.20392156862745098" d="M 176.5 0 L 177 24.5 L 176 24.5 L 175 20.5 L 176 19.5 L 176.5 0 Z " /><path fill="white" stroke="rgb(211,211,211)" stroke-width="1" opacity="0.20392156862745098" d="M 185.5 0 L 186 50.5 L 185 50.5 L 185.5 0 Z " /><path fill="white" stroke="rgb(211,211,211)" stroke-width="1" opacity="0.20392156862745098" d="M 61.5 1 L 64 1.5 Q 61.5 3 65 4.5 L 64.5 6 L 61.5 1 Z " /><path fill="white" stroke="rgb(211,211,211)" stroke-width="1" opacity="0.20392156862745098" d="M 98.5 1 L 100.5 4 L 98.5 1 Z " /><path fill="white" stroke="rgb(211,211,211)" stroke-width="1" opacity="0.20392156862745098" d="M 126.5 1 L 125.5 3 L 126.5 1 Z " /><path fill="white" stroke="rgb(211,211,211)" stroke-width="1" opacity="0.20392156862745098" d="M 146.5 1 L 145 3.5 L 144.5 5 L 144 3.5 L 146.5 1 Z " /><path fill="white" stroke="rgb(211,211,211)" stroke-width="1" opacity="0.20392156862745098" d="M 158.5 1 L 161 1.5 L 160.5 4 L 158.5 1 Z " /><path fill="white" stroke="rgb(211,211,211)" stroke-width="1" opacity="0.20392156862745098" d="M 104.5 2 L 105.5 4 L 104.5 2 Z " /><path fill="white" stroke="rgb(211,211,211)" stroke-width="1" opacity="0.20392156862745098" d="M 31.5 3 L 32 7.5 L 31 7.5 L 31.5 3 Z " /><path fill="white" stroke="rgb(211,211,211)" stroke-width="1" opacity="0.20392156862745098" d="M 35.5 3 L 36 6.5 L 35 6.5 L 35.5 3 Z " /><path fill="white" stroke="rgb(211,211,211)" stroke-width="1" opacity="0.20392156862745098" d="M 15.5 6 L 16 8.5 L 15 8.5 L 15.5 6 Z " /><path fill="white" stroke="rgb(211,211,211)" stroke-width="1" opacity="0.20392156862745098" d="M 55.5 6 L 58 7.5 Q 59.1 10.8 56.5 10 L 57 8.5 Q 57.8 6.3 55.5 7 L 55.5 6 Z " /><path fill="white" stroke="rgb(211,211,211)" stroke-width="1" opacity="0.20392156862745098" d="M 75.5 6 Q 81.5 4.5 83 7.5 L 81.5 7 Q 75.7 4.9 77 9.5 L 76 9.5 L 75.5 7 L 75 20.5 L 77.5 21 L 79 21.5 L 75.5 22 L 74 20.5 L 74 7.5 L 75.5 6 Z " /><path fill="white" stroke="rgb(211,211,211)" stroke-width="1" opacity="0.20392156862745098" d="M 91 6 L 93 6.5 L 92 7.5 L 91.5 24 L 91 6 Z " /><path fill="white" stroke="rgb(211,211,211)" stroke-width="1" opacity="0.20392156862745098" d="M 133.5 6 L 134 17 L 141 17.5 L 134.5 18 L 133 16.5 L 133.5 6 Z " /><path fill="white" stroke="rgb(211,211,211)" stroke-width="1" opacity="0.20392156862745098" d="M 143.5 6 L 144 40.5 L 143 40.5 L 143.5 6 Z " /><path fill="white" stroke="rgb(211,211,211)" stroke-width="1" opacity="0.20392156862745098" d="M 151.5 6 L 152.5 8 L 151.5 6 Z " /><path fill="white" stroke="rgb(211,211,211)" stroke-width="1" opacity="0.20392156862745098" d="M 172.5 6 L 173 8.5 L 172 8.5 L 172.5 6 Z " /><path fill="white" stroke="rgb(211,211,211)" stroke-width="1" opacity="0.20392156862745098" d="M 174.5 6 L 175 8.5 L 174 8.5 L 174.5 6 Z " /><path fill="white" stroke="rgb(211,211,211)" stroke-width="1" opacity="0.20392156862745098" d="M 193.5 6 L 200 6.5 L 193.5 7 L 193.5 6 Z " /><path fill="white" stroke="rgb(211,211,211)" stroke-width="1" opacity="0.20392156862745098" d="M 111.5 7 L 112 16.5 L 111 16.5 L 111.5 7 Z " /><path fill="white" stroke="rgb(211,211,211)" stroke-width="1" opacity="0.20392156862745098" d="M 154.5 7 L 155 43.5 L 153.5 45 L 151 44.5 L 152.5 41 L 153.5 44 L 154.5 7 Z " /><path fill="white" stroke="rgb(211,211,211)" stroke-width="1" opacity="0.20392156862745098" d="M 121.5 8 L 122 16.5 Q 120.5 19.5 114.5 18 L 114.5 17 L 121 17 L 121.5 8 Z " /><path fill="white" stroke="rgb(211,211,211)" stroke-width="1" opacity="0.20392156862745098" d="M 123.5 9 L 124 12.5 L 123 12.5 L 123.5 9 Z " /><path fill="white" stroke="rgb(211,211,211)" stroke-width="1" opacity="0.20392156862745098" d="M 150.5 9 L 151 17.5 L 150 17.5 L 150.5 9 Z " /><path fill="white" stroke="rgb(211,211,211)" stroke-width="1" opacity="0.20392156862745098" d="M 4.5 10 L 5 12.5 L 4 12.5 L 4.5 10 Z " /><path fill="white" stroke="rgb(211,211,211)" stroke-width="1" opacity="0.20392156862745098" d="M 76.5 11 L 77 15.5 L 76 15.5 L 76.5 11 Z " /><path fill="white" stroke="rgb(211,211,211)" stroke-width="1" opacity="0.20392156862745098" d="M 82.5 11 L 83 15.5 L 82 15.5 L 82.5 11 Z " /><path fill="white" stroke="rgb(211,211,211)" stroke-width="1" opacity="0.20392156862745098" d="M 34.5 13 L 35 17.5 L 34 17.5 L 34.5 13 Z " /><path fill="white" stroke="rgb(211,211,211)" stroke-width="1" opacity="0.20392156862745098" d="M 16.5 14 L 17 16.5 L 16 16.5 L 16.5 14 Z " /><path fill="white" stroke="rgb(211,211,211)" stroke-width="1" opacity="0.20392156862745098" d="M 32.5 14 L 33 18.5 L 32 18.5 L 32.5 14 Z " /><path fill="white" stroke="rgb(211,211,211)" stroke-width="1" opacity="0.20392156862745098" d="M 65.5 16 L 66 23.5 L 65 23.5 L 65.5 16 Z " /><path fill="white" stroke="rgb(211,211,211)" stroke-width="1" opacity="0.20392156862745098" d="M 10.5 17 L 11 21.5 L 9.5 24 L 9 18.5 L 10.5 17 Z " /><path fill="white" stroke="rgb(211,211,211)" stroke-width="1" opacity="0.20392156862745098" d="M 104.5 17 L 105 19.5 L 103.5 22 L 103 20.5 L 104.5 17 Z " /><path fill="white" stroke="rgb(211,211,211)" stroke-width="1" opacity="0.20392156862745098" d="M 3.5 18 L 4 20.5 L 3 20.5 L 3.5 18 Z " /><path fill="white" stroke="rgb(211,211,211)" stroke-width="1" opacity="0.20392156862745098" d="M 114.5 19 L 114 20.5 L 117.5 25 L 113 20.5 L 114.5 19 Z " /><path fill="white" stroke="rgb(211,211,211)" stroke-width="1" opacity="0.20392156862745098" d="M 193.5 21 L 199 21.5 L 193.5 22 L 193.5 21 Z " /><path fill="white" stroke="rgb(211,211,211)" stroke-width="1" opacity="0.20392156862745098" d="M 33.5 24 L 34 26.5 L 33 26.5 L 33.5 24 Z " /><path fill="white" stroke="rgb(211,211,211)" stroke-width="1" opacity="0.20392156862745098" d="M 38.5 25 L 39 50.5 L 38 50.5 L 37 32.5 L 38.5 25 Z " /><path fill="white" stroke="rgb(211,211,211)" stroke-width="1" opacity="0.20392156862745098" d="M 100.5 25 L 99.5 27 L 100.5 25 Z " /><path fill="white" stroke="rgb(211,211,211)" stroke-width="1" opacity="0.20392156862745098" d="M 107.5 25 L 112.5 31 L 107.5 25 Z " /><path fill="white" stroke="rgb(211,211,211)" stroke-width="1" opacity="0.20392156862745098" d="M 2.5 26 L 3 28.5 L 2 28.5 L 2.5 26 Z " /><path fill="white" stroke="rgb(211,211,211)" stroke-width="1" opacity="0.20392156862745098" d="M 28.5 26 L 29 29.5 L 28 29.5 L 28.5 26 Z " /><path fill="white" stroke="rgb(211,211,211)" stroke-width="1" opacity="0.20392156862745098" d="M 11.5 27 L 12 30.5 L 11 30.5 L 11.5 27 Z " /><path fill="white" stroke="rgb(211,211,211)" stroke-width="1" opacity="0.20392156862745098" d="M 75.5 27 L 81 27.5 L 77 28 L 76.5 30 L 75.5 28 L 75 43.5 L 76 43.5 L 76.5 42 L 77 44 L 82 44.5 L 75.5 45 L 74 43.5 L 74 28.5 L 75.5 27 Z " /><path fill="white" stroke="rgb(211,211,211)" stroke-width="1" opacity="0.20392156862745098" d="M 193.5 27 L 199 27.5 L 193.5 28 L 193.5 27 Z " /><path fill="white" stroke="rgb(211,211,211)" stroke-width="1" opacity="0.20392156862745098" d="M 8.5 28 L 9 32 L 11 32.5 L 8 33 L 8.5 28 Z " /><path fill="white" stroke="rgb(211,211,211)" stroke-width="1" opacity="0.20392156862745098" d="M 18.5 29 L 19 32.5 L 18 32.5 L 18.5 29 Z " /><path fill="white" stroke="rgb(211,211,211)" stroke-width="1" opacity="0.20392156862745098" d="M 102.5 29 L 102 30.5 L 101.5 33 L 101 30.5 L 102.5 29 Z " /><path fill="white" stroke="rgb(211,211,211)" stroke-width="1" opacity="0.20392156862745098" d="M 63.5 30 L 62.5 32 L 63.5 30 Z " /><path fill="white" stroke="rgb(211,211,211)" stroke-width="1" opacity="0.20392156862745098" d="M 82.5 30 L 83 41.5 L 82 41.5 L 82.5 30 Z " /><path fill="white" stroke="rgb(211,211,211)" stroke-width="1" opacity="0.20392156862745098" d="M 92.5 30 L 92 31.5 L 91.5 50 L 91 31.5 L 92.5 30 Z " /><path fill="white" stroke="rgb(211,211,211)" stroke-width="1" opacity="0.20392156862745098" d="M 123.5 30 L 124 44.5 L 123 44.5 L 123.5 30 Z " /><path fill="white" stroke="rgb(211,211,211)" stroke-width="1" opacity="0.20392156862745098" d="M 172.5 30 L 173 32.5 L 172 32.5 L 172.5 30 Z " /><path fill="white" stroke="rgb(211,211,211)" stroke-width="1" opacity="0.20392156862745098" d="M 76.5 32 L 77 39.5 L 76 39.5 L 76.5 32 Z " /><path fill="white" stroke="rgb(211,211,211)" stroke-width="1" opacity="0.20392156862745098" d="M 121.5 32 L 122 44.5 L 121 44.5 L 121.5 32 Z " /><path fill="white" stroke="rgb(211,211,211)" stroke-width="1" opacity="0.20392156862745098" d="M 1.5 33 L 2 36.5 L 1 36.5 L 1.5 33 Z " /><path fill="white" stroke="rgb(211,211,211)" stroke-width="1" opacity="0.20392156862745098" d="M 103.5 33 L 104 44.5 L 103 44.5 L 103.5 33 Z " /><path fill="white" stroke="rgb(211,211,211)" stroke-width="1" opacity="0.20392156862745098" d="M 130.5 34 Q 133.3 35.3 131 36.5 L 131.5 44 Q 132.8 41.8 134 44.5 L 131.5 45 L 130 43.5 L 130.5 34 Z " /><path fill="white" stroke="rgb(211,211,211)" stroke-width="1" opacity="0.20392156862745098" d="M 29.5 36 L 30 40.5 L 29 40.5 L 29.5 36 Z " /><path fill="white" stroke="rgb(211,211,211)" stroke-width="1" opacity="0.20392156862745098" d="M 112.5 36 L 113 41.5 L 112 41.5 L 112.5 36 Z " /><path fill="white" stroke="rgb(211,211,211)" stroke-width="1" opacity="0.20392156862745098" d="M 8.5 38 L 8 39.5 L 7.5 44 L 7 39.5 L 8.5 38 Z " /><path fill="white" stroke="rgb(211,211,211)" stroke-width="1" opacity="0.20392156862745098" d="M 11.5 38 L 13 40.5 L 12 40.5 L 11.5 38 Z " /><path fill="white" stroke="rgb(211,211,211)" stroke-width="1" opacity="0.20392156862745098" d="M 19.5 38 L 20 41.5 L 19 41.5 L 19.5 38 Z " /><path fill="white" stroke="rgb(211,211,211)" stroke-width="1" opacity="0.20392156862745098" d="M 172.5 40 L 174 42.5 L 172 41.5 L 172.5 40 Z " /><path fill="white" stroke="rgb(211,211,211)" stroke-width="1" opacity="0.20392156862745098" d="M 0.5 41 L 1 44.5 L 0 44.5 L 0.5 41 Z " /><path fill="white" stroke="rgb(211,211,211)" stroke-width="1" opacity="0.20392156862745098" d="M 36.5 43 L 37 46.5 L 36 46.5 L 36.5 43 Z " /><path fill="white" stroke="rgb(211,211,211)" stroke-width="1" opacity="0.20392156862745098" d="M 193.5 44 L 200 44.5 L 193.5 45 L 193.5 44 Z " /><path fill="white" stroke="rgb(211,211,211)" stroke-width="1" opacity="0.20392156862745098" d="M 13.5 46 L 14 50.5 L 13 50.5 L 13.5 46 Z " /><path fill="white" stroke="rgb(211,211,211)" stroke-width="1" opacity="0.20392156862745098" d="M 30.5 46 L 31 49.5 L 30 49.5 L 30.5 46 Z " /><path fill="white" stroke="rgb(211,211,211)" stroke-width="1" opacity="0.20392156862745098" d="M 20.5 47 L 21 50.5 L 20 50.5 L 20.5 47 Z " /><path fill="white" stroke="rgb(211,211,211)" stroke-width="1" opacity="0.20392156862745098" d="M 124.5 47 L 129 50.5 L 127.5 51 L 124.5 47 Z " /><path fill="white" stroke="rgb(211,211,211)" stroke-width="1" opacity="0.20392156862745098" d="M 160.5 47 L 157.5 51 L 156 50.5 L 160.5 47 Z " /><path fill="white" stroke="rgb(211,211,211)" stroke-width="1" opacity="0.20392156862745098" d="M 105.5 48 L 106.5 50 L 105.5 48 Z " /><path fill="white" stroke="rgb(211,211,211)" stroke-width="1" opacity="0.20392156862745098" d="M 119.5 48 L 117.5 51 L 119.5 48 Z " /><path fill="white" stroke="rgb(211,211,211)" stroke-width="1" opacity="0.20392156862745098" d="M 147.5 48 L 149 50.5 L 147 49.5 L 147.5 48 Z " /><path fill="white" stroke="rgb(211,211,211)" stroke-width="1" opacity="0.20392156862745098" d="M 176.5 48 L 178 50.5 L 176 49.5 L 176.5 48 Z " /><path fill="white" stroke="rgb(211,211,211)" stroke-width="1" opacity="0.9882352941176471" d="M 150.5 0 Q 154.8 -0.8 155.5 2 L 158 1 L 157 3.5 L 161 5.5 L 160 6.5 L 160 45 Q 157 43.8 158 47.5 L 157.5 50 L 155.5 50 L 150.5 51 L 150.5 50 L 154 49.5 L 148 46.5 L 145 39.5 L 145 7.5 L 146 4 Q 149 5 148 2 L 152.5 2 L 152.5 1 Q 149.5 1.5 150.5 0 Z M 153 3 L 149 4 L 149 45 L 152 47 Q 155 48 156 45 L 155 43 L 155 8 Q 158 8 157 5 L 153 3 Z M 147 36 L 146 40 L 147 40 L 147 36 Z " /><path fill="white" stroke="rgb(211,211,211)" stroke-width="1" opacity="0.9882352941176471" d="M 117.5 1 Q 115.9 2.8 119 4.5 L 119 15.5 L 116 16 L 115.5 6 Q 114.3 8.3 113 5.5 L 113.5 4 Q 111.3 3.3 112 5.5 L 111 6.5 L 111 18.5 L 114.5 24 L 116 24 L 116 27 Q 118.7 25.9 118 28.5 L 120 32.5 Q 117.8 33.8 119 38.5 L 120 43.5 L 116.5 45 L 116 42.5 L 117 37.5 L 116 35.5 L 116 33.5 L 114.5 31 Q 112.3 31.8 113 29.5 L 109.5 24 L 107 23.5 L 107 21.5 L 106 6.5 L 108.5 2 L 116.5 2 L 117.5 1 Z M 117 3 L 115 5 L 117 6 L 117 3 Z M 108 6 L 107 9 L 108 9 L 108 6 Z " /><path fill="white" stroke="rgb(211,211,211)" stroke-width="1" opacity="0.9882352941176471" d="M 127.5 1 L 128.5 2 L 136.5 2 L 138 3.5 L 139 7.5 Q 136.3 9.3 138 15.5 L 138.5 17 L 136 15.5 L 135.5 7 L 134.5 14 L 134 5 L 131.5 4 L 129.5 7 L 128 7.5 L 129 12.5 Q 128.4 17.9 130 20 Q 133.7 18.6 132 24.5 L 133.5 30 L 136 29 L 137 35.5 L 143 47.5 L 140.5 48 L 128.5 49 L 126 48 L 125 31.5 L 128 26.5 L 128 24.5 L 126 19.5 L 126 4.5 Q 129.1 2.8 127.5 1 Z M 131 32 L 129 34 L 129 45 L 133 47 L 134 44 L 136 44 L 136 41 L 134 41 L 135 39 Q 132 37 136 36 Q 135 33 134 35 L 133 33 L 131 32 Z M 129 46 Q 127 49 130 48 L 129 46 Z " /><path fill="white" stroke="rgb(211,211,211)" stroke-width="1" opacity="0.9882352941176471" d="M 6.5 2 L 8.5 2 Q 14.3 -0.1 13 4.5 L 12 7 Q 14.7 8.1 14 5.5 L 15 5.5 Q 12.5 9 14 16.5 L 14 18.5 Q 16.9 22.1 16 29.5 L 15 31.5 L 18 30.5 L 16 37.5 L 18 39.5 L 18.5 48 L 19.5 45 L 20 47.5 L 17.5 49 L 15 48 L 14.5 38 L 13.5 39 L 10.5 36 L 9.5 37 Q 5.3 38.1 7 34 L 13 34 L 13 31.5 L 14 28.5 L 12 20.5 L 13 17.5 Q 13.9 12.1 11.5 10 L 11 12 Q 8.3 13.1 9 10.5 L 8 10.5 L 8 19.5 L 6 28.5 L 6 30.5 Q 7 35.5 4 34.5 L 4 40 L 7 40.5 L 5 42.5 Q 6.3 47.8 3.5 49 L 1 48.5 L 3 44.5 L 4 29.5 L 3 26.5 L 6 22.5 L 4 19.5 L 6 12.5 Q 3.7 11.3 6.5 10 Q 9.1 10.8 8 7.5 L 6.5 2 Z " /><path fill="white" stroke="rgb(211,211,211)" stroke-width="1" opacity="0.9882352941176471" d="M 24 2 L 30 3 L 31 7.5 Q 28.2 9.3 30 15.5 L 32 15.5 L 30.5 28 L 30 17 Q 26.7 15.7 28 20.5 L 26 20.5 L 26 36.5 L 23.5 37 L 24 35.5 Q 25.5 30 23 28.5 L 24 27.5 L 24 2 Z M 26 10 L 26 11 L 28 11 L 26 10 Z M 29 12 L 28 14 L 25 15 L 29 15 L 29 12 Z " /><path fill="white" stroke="rgb(211,211,211)" stroke-width="1" opacity="0.9882352941176471" d="M 37.5 2 Q 42.9 0.1 42 3.5 Q 44.8 5.3 43 11.5 L 43 13.5 L 43 48.5 L 39 49 L 39.5 26 L 40.5 48 L 41 20 L 38.5 19 Q 36.3 19.8 37 23.5 L 37 25.5 L 35 36.5 L 35 44.5 L 36 48 L 31 47.5 L 32 46.5 L 32 38.5 L 31 38.5 L 30.5 40 L 30 38.5 Q 32.5 37 31 31.5 L 29 31.5 L 30.5 29 L 33.5 30 Q 37.1 25.1 36 15.5 L 35.5 12 L 37 11.5 L 37 4 L 39.5 4 L 39.5 3 Q 36.5 3.5 37.5 2 Z " /><path fill="white" stroke="rgb(211,211,211)" stroke-width="1" opacity="0.9882352941176471" d="M 48 2 Q 57.2 0.6 63 3.5 L 62 6.5 L 63 7.5 L 63 28.5 L 62.5 31 L 60.5 30 L 56 31.5 L 56.5 33 L 53 32 L 52 34.5 L 53 35.5 L 53 48.5 L 51.5 48 L 48.5 49 L 48 2 Z M 54 5 L 52 9 L 53 13 L 52 27 Q 53 30 58 29 L 57 28 L 58 26 L 60 26 L 60 9 L 59 9 L 59 8 L 57 6 L 54 5 Z " /><path fill="white" stroke="rgb(211,211,211)" stroke-width="1" opacity="0.9882352941176471" d="M 70.5 2 L 80 2.5 L 70.5 3 L 70.5 2 Z " /><path fill="white" stroke="rgb(211,211,211)" stroke-width="1" opacity="0.9882352941176471" d="M 91.5 2 Q 96.9 0.1 96 3.5 L 98 3.5 L 100 7.5 L 100 21.5 L 101 22.5 Q 97.4 23.9 97.5 29 L 96 28.5 Q 95.1 31.5 99.5 30 Q 102.3 31.3 100 32.5 L 100 48.5 L 97.5 49 L 96 47.5 L 96 31.5 L 95 29 L 91 30.5 L 90.5 36 L 89.5 31 L 89 38.5 L 90 41 L 86 41 L 86 39.5 L 88 32.5 L 87.5 30 L 86 30 L 86 26 L 91.5 27 L 97 21.5 L 96 20.5 L 96 7.5 L 95 5 L 92.5 6 Q 91.3 3.7 90 6.5 L 88 9.5 L 87 11.5 Q 89.8 13.2 89 18.5 L 88 22 Q 90.7 20.9 90 23.5 L 86 25 L 87 19.5 L 86 18.5 L 86 7.5 L 87 4.5 L 86.5 3 L 91.5 2 Z " /><path fill="white" stroke="rgb(211,211,211)" stroke-width="1" opacity="0.9882352941176471" d="M 178.5 2 L 181 2.5 L 181 49 L 178 47.5 L 177.5 44 L 176 44.5 L 177 40.5 L 176 37 L 174 36.5 L 175 31.5 Q 172 28.3 173 22 Q 170 23.3 171 19.5 L 170 19.5 L 169 22.5 L 169 46 L 166 45.5 L 166 3 L 171 3.5 L 170 8.5 L 171.5 12 L 173 11.5 L 172 16.5 L 174 26 Q 176.7 24.9 176 27.5 L 177 27.5 L 178 23.5 L 178 4 L 180 3.5 L 178.5 2 Z M 169 4 L 168 8 L 169 8 L 169 4 Z " /><path fill="white" stroke="rgb(211,211,211)" stroke-width="1" opacity="0.9882352941176471" d="M 186 2 L 188.5 3 L 200 3 Q 201.8 7.5 196.5 6 L 194.5 6 L 191.5 5 L 190 7.5 L 191 8.5 L 191.5 24 L 197 23 Q 199.2 28.6 193.5 27 L 190 26 L 191 28.5 L 191 46 L 200 46 L 200 49 L 186.5 49 L 186 48.5 L 186 2 Z M 193 47 L 193 48 L 196 48 L 193 47 Z " /><path fill="white" stroke="rgb(211,211,211)" stroke-width="1" opacity="0.9882352941176471" d="M 69 4 L 78 4.5 L 74 6.5 Q 71.3 10.3 73 18.5 L 72 19.5 L 74 20 Q 72.9 22.7 75.5 22 Q 77.3 25.1 79 23.5 Q 80.3 27.3 76.5 26 L 73 28.5 L 73 43.5 L 74.5 45 L 80 46.5 L 76 47.5 L 80 48.5 L 70.5 49 L 69 47.5 L 69 4 Z M 72 10 L 71 16 L 72 16 L 72 10 Z M 71 30 L 71 37 L 72 35 L 71 30 Z " /><path fill="white" stroke="rgb(211,211,211)" stroke-width="1" opacity="0.9882352941176471" d="M 120.5 8 L 121 10.5 L 120 10.5 L 120.5 8 Z " /><path fill="white" stroke="rgb(211,211,211)" stroke-width="1" opacity="0.9882352941176471" d="M 124.5 8 L 125 14.5 L 124 14.5 L 124.5 8 Z " /><path fill="white" stroke="rgb(211,211,211)" stroke-width="1" opacity="0.9882352941176471" d="M 198.5 23 L 199 25.5 L 198 25.5 L 198.5 23 Z " /><path fill="white" stroke="rgb(211,211,211)" stroke-width="1" opacity="0.9882352941176471" d="M 106.5 35 Q 109.9 34.1 108 39.5 L 109 44.5 L 107 44.5 L 108 48 L 111.5 47 L 117 48.5 L 108.5 49 L 106.5 46 L 105 46.5 L 106 44.5 Q 102.3 42.6 104 36 L 106.5 35 Z " /><path fill="white" stroke="rgb(211,211,211)" stroke-width="1" opacity="0.9882352941176471" d="M 24 38 Q 27.3 36.9 26 41 Q 22.7 42.1 24 38 Z " /><path fill="white" stroke="rgb(211,211,211)" stroke-width="1" opacity="0.9882352941176471" d="M 1.5 41 L 2 43.5 L 1 43.5 L 1.5 41 Z " /><path fill="white" stroke="rgb(211,211,211)" stroke-width="1" opacity="0.9882352941176471" d="M 87.5 42 L 91 43.5 L 89.5 46 Q 91.8 45.3 91 47.5 Q 89.8 50 86 49 L 87 45.5 L 86 43.5 L 87.5 42 Z " /><path fill="white" stroke="rgb(211,211,211)" stroke-width="1" opacity="0.9882352941176471" d="M 24 44 Q 27 43 26 46 Q 23 47 24 44 Z " /><path fill="white" stroke="rgb(211,211,211)" stroke-width="1" opacity="0.9882352941176471" d="M 166.5 47 L 169 47.5 L 166.5 48 L 166.5 47 Z " /><path fill="white" stroke="rgb(211,211,211)" stroke-width="1" opacity="0.9882352941176471" d="M 140.5 49 L 144 49.5 L 139.5 51 L 140.5 49 Z " /></svg>