<svg xmlns="http://www.w3.org/2000/svg" width="504" height="431" overflow="hidden"><defs><clipPath id="a"><path d="M388 141h504v431H388z"/></clipPath><clipPath id="b"><path d="M389 142h502v429H389z"/></clipPath><clipPath id="c"><path d="M389 142h502v430H389z"/></clipPath></defs><g clip-path="url(#a)" transform="translate(-388 -141)"><g clip-path="url(#b)"><g fill="#ffffff" clip-path="url(#c)"><path d="M654.497 569.257c-.867-.616-4.884-4.71-8.931-9.098-8.067-8.738-14.706-15.64-43.531-45.244-40.317-41.405-61.242-63.159-63.339-65.852-4.322-5.545-6.105-10.787-6.099-17.925.005-5.573.575-7.629 6.082-21.955 2.507-6.521 5.301-14.045 6.211-16.724l1.654-4.87-22.803-.004c-14.303 0-23.503-.197-24.679-.524-2.99-.83-4.708-4.387-3.781-7.827.279-1.036 2.257-6.153 4.395-11.372 2.138-5.22 4.031-10.108 4.206-10.864l.32-1.372h-11.49c-10.797 0-11.55.059-12.481.991-.546.546-2.484 3.972-4.307 7.617-4.835 9.66-10.169 19.062-15.78 27.818-11.095 17.313-17.397 23.258-28.975 27.343-2.731.964-4.964 1.333-9.21 1.526-5.053.23-6.01.128-9.733-1.041-5.663-1.777-9.881-4.415-13.853-8.664-6.029-6.453-7.969-12.014-7.982-22.878-.012-9.229 1.746-15.482 6.263-22.28 3-4.517 9.383-11.025 13.628-13.896 4.36-2.95 11.395-6.205 16.776-7.76 8.438-2.442 11.707-2.76 28.297-2.76h15.432l1.15-1.242c.633-.684 2.675-4.56 4.539-8.615 5.588-12.162 8.101-16.519 13.097-22.706 9.477-11.738 25.193-16.756 40.337-12.88 4.815 1.23 7.539 2.677 8.731 4.634 1.854 3.042 1.423 4.86-4.327 18.228-5.949 13.83-8.668 20.673-8.668 21.812 0 .661 1.184.769 8.501.769 11.592 0 13.457.862 13.858 6.41.184 2.553.057 3.055-1.13 4.468-2.208 2.624-4.846 3.106-17.024 3.106-8.003 0-10.649.152-10.839.624-.139.343-1.641 3.995-3.339 8.116-1.698 4.12-3.287 7.996-3.533 8.615l-.446 1.123h40.218l6.458-13.347c3.552-7.342 7.506-15.1 8.786-17.238 8.256-13.798 17.995-19.367 31.118-17.79 11.456 1.375 19.729 11.86 19.706 24.974-.023 13.135-7.402 24.634-19.958 31.102-8.013 4.126-13.943 5.43-27.435 6.032-3.697.165-7.288.573-7.982.905-1.52.727-3.014 4.072-8.619 19.289-7.706 20.92-7.524 20.317-7.255 24.082.398 5.568 1.971 8.112 9.837 15.908 3.742 3.707 16.551 16.968 28.464 29.466 11.912 12.499 28.076 29.254 35.918 37.23 7.843 7.98 19.415 19.891 25.717 26.471 6.304 6.581 11.65 12.044 11.885 12.14.499.206 9.664-9.09 28.984-29.392 7.71-8.105 17.522-18.216 21.801-22.476 7.184-7.142 23.442-23.95 38.415-39.704 3.393-3.572 11.577-11.95 18.186-18.62 12.806-12.924 13.712-13.592 17.525-12.877 2.322.437 4.012 2.1 4.689 4.61 1.036 3.852.354 4.895-10.362 15.85-5.4 5.52-17.896 18.464-27.768 28.766-9.872 10.3-24.813 25.697-33.202 34.211-8.389 8.516-23.729 24.407-34.088 35.312-10.359 10.907-19.332 20.177-19.939 20.602-1.74 1.22-6.371 1.024-8.296-.353ZM426.82 406.027c9.805-3.22 16.838-11.434 29.349-34.273 3.04-5.55 6.305-11.309 7.256-12.796l1.73-2.706-2.573-.31c-1.416-.17-6.505-.306-11.31-.303-13.547.009-19.114 1.07-27.951 5.329-5.145 2.48-6.18 3.214-9.987 7.077-2.542 2.58-4.879 5.514-5.82 7.308-4.182 7.968-4.807 15.94-1.749 22.315 3.822 7.967 12.167 11.28 21.055 8.359Zm150.487-32.432c8.978-1 15.539-3.8 20.465-8.734 3.836-3.841 5.808-7.813 6.132-12.35.308-4.306-.525-7.266-2.791-9.916-3.122-3.648-7.223-4.423-11.896-2.246-4.955 2.308-8.781 7.035-13.779 17.024-2.103 4.204-7.365 15.993-7.365 16.501 0 .385 4.492.25 9.234-.279Zm-66.706-33.358c.478-.635 1.62-3.22 2.537-5.744.918-2.524 2.901-7.623 4.406-11.331 3.466-8.536 5.165-13.487 4.819-14.046-.703-1.139-9.204.048-13.114 1.83-6.993 3.19-12.97 10.879-18.77 24.15-1.248 2.854-2.269 5.494-2.269 5.863 0 .546 2.015.65 10.76.552 10.593-.118 10.775-.138 11.631-1.274Zm296.186 80.706c-4.109-.414-9.984-2.28-14.241-4.521-9.525-5.02-19.417-17.604-31.004-39.446-1.568-2.953-2.947-5.37-3.066-5.37-.747 0-10.289 21.946-14.941 34.359-2.719 7.257-6.079 10.544-10.027 9.802-2.516-.472-5.095-2.842-5.512-5.065-.527-2.81.429-5.809 5.977-18.75 8.042-18.76 14.79-35.962 14.79-37.701 0-.944-1.453-4.556-3.617-8.99-1.99-4.075-4.742-9.873-6.112-12.882-4.984-10.94-10.567-17.851-16.931-20.959-5.113-2.497-9.33-3.063-15.018-2.015-10.406 1.917-11.527 2.017-12.85 1.15-1.658-1.086-3.081-4.168-3.104-6.718-.027-3.07 2.18-5.168 7.171-6.82 7.161-2.367 13.123-2.861 19.597-1.621 8.406 1.609 14.553 4.875 20.69 10.992 5.009 4.991 6.973 8.007 12.996 19.953 3.043 6.033 4.923 9.249 5.23 8.94.802-.8 4.362-9.367 7.735-18.612 4.956-13.582 6.359-15.766 10.479-16.32 4.202-.564 7.672 2.439 7.675 6.643.002 2.475-.542 4.085-4.13 12.194-4.931 11.152-13.337 32.357-13.337 33.646 0 1.986 1.578 5.507 6.531 14.58 6.312 11.557 9.286 16.376 14.599 23.673 5.972 8.204 8.798 10.935 13.974 13.501 11.455 5.678 22.61 1.42 25.516-9.74 3.808-14.623-6.499-30.585-23.421-36.276-5.004-1.682-8.504-2.299-16.551-2.916-9.126-.7-11.665-2.248-11.665-7.11 0-2.235.21-2.676 2.372-4.992 2.619-2.808 14.601-13.387 20.838-18.398 5.792-4.653 18.71-15.723 36.939-31.655 24.765-21.647 26.153-22.85 31.079-26.953 10.072-8.387 11.927-14.097 8.873-27.29-4.783-20.674-14.443-37.438-30.427-52.813-10.442-10.045-21.043-17.128-33.055-22.088-16.071-6.636-33.678-9.518-49.098-8.038-28.555 2.741-54.825 14.62-74.912 33.875-8.99 8.617-20.373 22.351-19.726 23.804 5.118 11.534 8.129 20.173 9.847 28.257.906 4.263 1.121 6.926 1.151 14.234.035 8.97.03 8.996-1.436 11.986-1.887 3.85-5.393 7.248-9.627 9.335-3.089 1.52-3.738 1.653-8.109 1.653-4.43 0-5.006-.122-8.497-1.797-4.556-2.188-7.652-5.108-9.398-8.864-1.203-2.588-1.328-3.468-1.498-10.565-.149-6.29.02-8.958.912-14.234 1.353-8.022 3.702-15.898 6.763-22.667 3.416-7.558 3.413-7.974-.035-12.796-16.648-23.28-42.607-41.312-69.697-48.418-11.485-3.012-18.346-3.94-29.372-3.976-18.033-.056-32.068 3.31-48.514 11.634-14.626 7.404-27.526 18.366-38.035 32.323-10.864 14.428-18.35 34.421-19.841 52.991-.693 8.632-.26 23.837.916 32.113.488 3.433.89 8.307.895 10.83.008 4.407-.05 4.647-1.469 6.129-3.041 3.176-7.269 3.096-10.155-.193-1.289-1.468-1.568-2.425-2.508-8.585-1.639-10.734-2.082-16.912-2.082-29.014 0-18.583 1.628-28.558 7.076-43.345 4.04-10.966 12.683-25.58 20.978-35.467 17.873-21.306 42.834-36.115 70.028-41.547 6.429-1.285 38.127-1.303 44.923-.026 29.875 5.61 60.776 23.379 79.459 45.689 2.721 3.251 5.725 6.963 6.671 8.248.947 1.286 1.87 2.346 2.055 2.357.182.01 2.312-2.397 4.726-5.35 5.69-6.953 15.637-16.928 21.642-21.702 17.175-13.657 34.023-22.089 54.743-27.397 10.394-2.664 16.104-3.131 34.528-2.827 12.853.212 16.036.414 19.896 1.261 41.628 9.143 76.432 39.653 90.499 79.334 3.098 8.74 4.514 15.386 4.826 22.648.355 8.247-.157 11.022-3.123 16.949-2.692 5.381-6.439 9.55-15.455 17.2-7.628 6.47-28.403 24.454-39.905 34.543-4.397 3.857-11.93 10.278-16.741 14.27-8.821 7.32-15.632 13.427-15.32 13.738.093.092 2.155.745 4.582 1.448 17.941 5.202 31.366 18.134 35.77 34.453 1.653 6.12 1.558 15.094-.217 20.475-2.454 7.447-6.856 13.333-12.873 17.225-5.807 3.755-11.904 5.144-19.295 4.394ZM661.645 265.017c2.739-1.145 3.453-3.13 3.061-8.505-.594-8.112-2.746-18.131-5.083-23.659l-.777-1.838-1.238 2.997c-4.102 9.936-5.937 26.823-3.248 29.9 1.63 1.868 4.441 2.294 7.285 1.105Zm-37.132 122.209c-2.921-.552-5.028-3.168-5.028-6.246 0-.994 3.285-9.797 8.165-21.875 4.489-11.117 9.242-23.02 10.563-26.455 1.705-4.431 2.886-6.73 4.072-7.923 1.623-1.63 1.773-1.674 4.976-1.47 2.994.19 3.443.366 4.797 1.884 1.403 1.57 1.475 1.852 1.188 4.6-.167 1.609-1.059 4.888-1.982 7.288-2.058 5.35-9.575 23.818-12.809 31.465l-2.379 5.627 11.7-.133 11.699-.134 3.396-8.49c7.398-18.506 9.448-22.309 14.865-27.572 5.905-5.734 12.277-7.877 19.792-6.659 4.189.679 7.692 2.399 10.786 5.293 7.46 6.983 8.526 17.766 3.281 33.146-.697 2.039-1.266 3.748-1.266 3.798 0 .049 3.328.207 7.397.352 8.195.29 10.002.829 11.313 3.362.981 1.898.969 5.65-.025 7.571-1.395 2.703-2.769 2.933-17.437 2.933-14.109 0-15.425-.187-17.47-2.48-1.887-2.117-1.37-5.28 2.367-14.53 3.658-9.057 4.851-13.314 4.864-17.342.025-8.673-7.922-11.428-14.224-4.933-3.123 3.221-5.563 7.852-9.512 18.06-7.343 18.982-7.93 20.02-11.7 20.75-2.26.435-39.137.535-41.389.113Zm29.162-71.807c-4.172-1.477-7.2-6.512-6.481-10.774.434-2.578 2.779-5.7 5.208-6.941 2.929-1.495 7.528-1.393 10.292.23 2.284 1.338 4.711 5.321 4.706 7.72-.008 3.92-2.627 7.944-6.232 9.584-2.387 1.085-4.776 1.143-7.493.181Z"/><path d="M654.564 569.257c-.869-.616-4.249-4.044-7.512-7.616-7.124-7.794-16.127-17.155-43.265-44.982-34.685-35.57-61.294-63.122-64.05-66.33-4.791-5.57-7.103-11.82-7.103-19.198 0-5.429.656-7.826 5.802-21.197 5.964-15.496 8.246-21.942 7.894-22.294-.166-.165-10.897-.302-23.846-.302-25.477 0-25.098.04-26.532-2.736-1.286-2.488-.92-5.156 1.526-11.152 1.254-3.074 3.148-7.725 4.21-10.334 1.062-2.609 2.082-5.362 2.267-6.118l.336-1.373H480.79l-.948 1.373c-.522.756-2.916 5.184-5.32 9.843-6.161 11.938-9.511 17.664-16.523 28.238-8.917 13.448-14.249 18.792-22.48 22.527-13.401 6.078-26.509 4.09-36.172-5.49-7.197-7.136-9.384-13.806-8.778-26.774.405-8.675 2.345-14.118 7.55-21.184 7.904-10.73 18.702-17.407 34.186-21.14 3.726-.897 6.31-1.048 21.2-1.24 9.718-.126 17.347-.43 17.874-.712.505-.27 3.372-5.559 6.371-11.753 6.608-13.646 9.539-18.171 15.373-23.725 7.559-7.199 15.785-10.461 26.533-10.525 6.031-.036 9.511.609 14.823 2.747 3.302 1.329 4.663 2.948 4.996 5.942.276 2.485-.398 4.36-7.082 19.679-2.282 5.23-4.84 11.467-5.684 13.86l-1.534 4.35 8.596.028c9.811.032 11.508.413 13.24 2.968.973 1.435 1.148 2.218.976 4.363-.238 2.955-1.209 4.35-3.873 5.556-1.369.62-4.266.848-13.391 1.055l-11.644.264-2.753 6.742a1653.09 1653.09 0 0 0-3.697 9.115l-.945 2.372h40.479l1.519-3.372c4.109-9.122 13.076-26.768 15.305-30.12 3.229-4.853 9.025-10.358 12.994-12.343 4.263-2.131 7.822-2.769 14.035-2.513 4.682.193 5.609.394 8.562 1.848 13.701 6.75 17.534 25.213 8.421 40.56-4.987 8.4-14.313 14.797-25.834 17.72-3.514.892-7.202 1.339-14.285 1.724-7.63.417-9.784.695-10.719 1.374-1.431 1.045-2.43 3.365-8.434 19.583-6.992 18.89-7.232 19.689-7.015 23.473.3 5.246 2.056 8.359 8.037 14.252 6.203 6.113 13.268 13.423 34.01 35.192 8.768 9.203 22.363 23.25 30.211 31.215 7.849 7.966 16.057 16.395 18.244 18.729 2.185 2.335 7.848 8.243 12.584 13.13l8.611 8.881 1.448-1.07c.797-.589 8.824-8.745 17.837-18.124 9.013-9.377 21.786-22.558 28.383-29.286 6.599-6.73 20.183-20.777 30.19-31.215 10.007-10.439 23.594-24.412 30.196-31.049 13.135-13.214 13.519-13.478 17.811-12.191 3.536 1.062 5.069 5.852 3.099 9.678-.452.88-5.231 6.092-10.619 11.586-5.385 5.494-17.976 18.53-27.978 28.966-10.002 10.44-24.713 25.609-32.692 33.714-16.049 16.3-19.984 20.377-39.187 40.617-7.25 7.643-13.804 14.217-14.558 14.607-2.147 1.111-5.915.912-7.775-.413ZM426.35 406.274c9.807-2.863 17.181-11.404 29.945-34.674 3.086-5.627 6.346-11.389 7.244-12.803l1.632-2.571-1.583-.274c-.87-.151-7.087-.21-13.812-.13-11.41.134-12.564.233-17.221 1.474-2.745.732-7.125 2.387-9.733 3.679-3.952 1.956-5.5 3.1-9.286 6.864-7.13 7.088-10.036 13.906-9.584 22.477.417 7.916 4.986 14.177 11.882 16.283 2.18.668 7.709.494 10.516-.325Zm156.202-33.401c5.551-1.142 11.6-4.3 15.255-7.967 4.183-4.195 5.829-7.721 6.11-13.09.198-3.768.089-4.434-1.14-6.948-2.438-4.986-7.181-6.82-12.812-4.955-3.816 1.264-8.31 5.956-12.035 12.567-2.584 4.584-8.646 17.593-9.599 20.599l-.376 1.184 5.429-.31c2.985-.17 7.111-.657 9.168-1.08Zm-73.191-31.708c1.57-.597 1.929-1.282 4.85-9.255a519.095 519.095 0 0 1 5.109-13.243c1.5-3.709 2.881-7.473 3.069-8.366l.341-1.623-2.41.003c-11.585.014-19.955 6.224-26.84 19.915-2.801 5.567-5.703 12.446-5.385 12.763.484.485 19.949.308 21.266-.194Zm292.812 78.924c-6.736-1.868-10.154-3.58-15.417-7.716-6.484-5.094-14.86-16.581-23.165-31.765-2.624-4.8-4.978-8.796-5.228-8.879-.744-.248-8.641 17.877-14.81 33.989-2.245 5.862-4.37 8.86-6.871 9.687-3.216 1.062-7.096-.734-8.402-3.89-1.038-2.51.033-6.23 5.341-18.564 8.484-19.707 15.142-36.712 15.142-38.67 0-1.2-.928-3.738-2.691-7.36-10.833-22.242-11.855-24.168-14.736-27.829-4.721-5.993-10.793-9.505-17.657-10.208-2.479-.255-4.701-.02-10.009 1.053-8.719 1.766-9.505 1.603-11.507-2.405-1.316-2.633-1.394-3.066-.864-4.832 1.073-3.582 5.225-5.835 13.377-7.258 5.044-.88 7.725-.929 12.142-.22 10.988 1.764 21.252 8.509 27.668 18.181 1.079 1.626 4.262 7.454 7.076 12.952l5.111 9.993 1.328-2.972c2.102-4.705 4.147-9.9 6.981-17.727 1.446-3.995 3.343-8.676 4.215-10.404 1.35-2.677 1.92-3.288 3.855-4.145 3.64-1.61 7.305-.515 8.955 2.68 1.366 2.642.674 5.769-3.283 14.864-6.389 14.69-13.487 32.767-13.487 34.352 0 2.095 1.086 4.496 6.763 14.938 7.246 13.326 14.294 24.074 20.161 30.74 4.52 5.138 11.513 8.392 18.032 8.392 10.154 0 16.413-7.045 16.431-18.498.01-7.013-2.714-13.78-7.825-19.432-7.483-8.272-17.065-12.3-32.053-13.474-10.087-.79-12.526-2.173-12.526-7.095 0-2.099.252-2.706 1.848-4.475 2.414-2.674 14.965-13.698 24.108-21.176a819.44 819.44 0 0 0 14.476-12.188c8.344-7.228 37.007-32.217 42.177-36.773a450.584 450.584 0 0 1 8.035-6.85c5.398-4.483 7.685-7.16 9.527-11.152 2.01-4.358 1.848-9.575-.599-19.193-4.991-19.635-14.364-35.39-30.033-50.49-17.432-16.8-37.686-26.534-61.702-29.654-28.632-3.72-62.845 6.801-87.95 27.045-8.424 6.793-20.822 20.16-25.891 27.916l-1.33 2.036 2.277 5.14c3.153 7.117 6.444 17.215 7.737 23.75 1.53 7.73 1.905 18.997.769 22.998-2.469 8.684-11.205 14.74-20.321 14.089-6.641-.476-13.672-5.157-16.311-10.859-1.099-2.374-1.296-3.61-1.488-9.281-.277-8.173.502-15.077 2.656-23.495 1.623-6.351 2.125-7.751 5.935-16.59.986-2.289 1.793-4.779 1.793-5.534 0-4.404-17.15-23.373-29.45-32.573-7.88-5.895-12.943-8.979-21.712-13.227-17.158-8.312-37.076-12.724-54.377-12.044-15.717.618-28.541 3.859-42.957 10.855-17.395 8.443-32.466 21.685-43.612 38.32-6.55 9.774-12.815 26.033-15.351 39.838-1.415 7.697-1.283 32.18.226 42.084 1.695 11.121 1.399 13.743-1.807 16.027-2.255 1.607-3.76 1.766-6.255.663-3.756-1.663-4.2-2.788-5.85-14.824-1.309-9.544-1.844-29.796-1.023-38.706 1.754-19.046 7.884-36.103 18.957-52.753 5.98-8.993 11.253-15.37 18.074-21.86 16.367-15.57 37.392-26.711 58.604-31.052 5.845-1.196 7.799-1.346 19.716-1.515 24.126-.343 34.251 1.247 51.911 8.15 22.609 8.839 43.556 24.248 58.336 42.914l5.179 6.54 5.035-6.052c22.236-26.722 49.468-43.295 82.692-50.32 4.856-1.027 6.574-1.109 23.459-1.12 16.978-.011 18.611.066 23.959 1.126 22.97 4.555 47.171 18.188 64.131 36.125 9.051 9.574 16.089 19.77 21.707 31.443 9.924 20.624 12.638 39.652 7.2 50.49-3.098 6.173-6.649 10.146-16.461 18.426-5.647 4.766-22.94 19.725-40.901 35.384-5.513 4.807-13.607 11.7-17.984 15.319-4.377 3.618-9.051 7.696-10.384 9.063l-2.427 2.484 2.926.808c9.668 2.67 17.777 7.1 24.271 13.256 9.897 9.382 14.394 19.147 14.501 31.488.082 9.307-2.537 16.477-8.322 22.798-6.042 6.605-12.988 9.69-21.686 9.636-3.046-.02-6.045-.366-8.085-.933ZM662.299 264.726c.899-.55 1.878-1.616 2.172-2.37.644-1.648.21-9.488-.851-15.336-.819-4.532-4.192-15.754-4.731-15.754-.5 0-2.757 6.25-3.963 10.98-1.393 5.462-2.214 13.568-1.78 17.611.307 2.885.564 3.522 1.855 4.609 1.88 1.582 4.951 1.69 7.298.26Zm-37.323 122.39c-.961-.187-2.223-.6-2.805-.917-1.267-.687-2.686-3.495-2.686-5.314 0-.72 4.119-11.585 9.153-24.147 5.034-12.561 9.782-24.5 10.554-26.533 1.987-5.231 3.375-6.639 6.831-6.925 3.156-.262 5.393.631 6.744 2.692 1.383 2.115.237 6.88-4.297 17.869a1938.996 1938.996 0 0 0-6.926 17.028c-1.646 4.12-3.563 8.788-4.265 10.372l-1.275 2.881 11.799-.134 11.797-.134 1.933-4.994c3.21-8.294 8.371-20.335 9.737-22.724 4.462-7.797 11.615-13.714 17.981-14.872 6.717-1.221 13.862.53 18.409 4.511 7.278 6.378 9.068 17.213 5.013 30.338-.976 3.159-1.915 6.104-2.085 6.544-.384.996 2.632 1.436 9.875 1.442 3.298.003 5.348.241 6.297.733 2.741 1.419 3.927 6.586 2.254 9.823-1.398 2.706-2.774 2.938-17.295 2.905-14.658-.032-15.916-.242-17.764-2.968-1.598-2.358-1.321-4.311 1.621-11.487 5.065-12.356 5.462-13.758 5.492-19.317.028-4.966-.007-5.12-1.445-6.626-1.975-2.066-4.674-2.766-7.785-2.02-4.549 1.092-8.574 6.56-12.676 17.226-6.314 16.416-9.303 22.899-11.098 24.075-1.126.738-3.538.843-21.305.925-11.02.05-20.822-.062-21.783-.252Zm28.954-71.604c-.956-.305-2.659-1.474-3.782-2.598-6.23-6.232-1.943-16.223 6.958-16.223 3.57 0 5.635.853 7.662 3.166 3.438 3.917 3.219 9.16-.549 13.072-2.886 2.998-6.297 3.855-10.289 2.583Z"/><path d="M655.104 569.508c-.852-.48-4.125-3.683-7.268-7.118-7.903-8.626-17.218-18.31-40.843-42.451-11.154-11.4-23.295-23.905-26.98-27.787-3.684-3.885-14.143-14.71-23.241-24.058-9.098-9.348-17.603-18.48-18.899-20.3-1.296-1.816-2.942-4.927-3.658-6.907-1.125-3.116-1.303-4.418-1.316-9.599-.018-6.872-.288-5.883 6.35-23.223 5.402-14.112 7.455-20.05 7.065-20.437-.16-.16-10.211-.312-22.335-.342-27.876-.07-25.063.127-27.084-1.894-2.796-2.798-2.453-4.864 2.915-17.531 3.054-7.206 4.61-11.665 4.211-12.065-.145-.144-5.328-.282-11.519-.305-10.143-.04-11.352.045-12.24.848-.542.491-2.944 4.745-5.338 9.454-8.146 16.024-18.646 33.017-25.112 40.64-7.474 8.81-17.093 13.868-27.49 14.455-9.01.51-16.535-2.383-23.029-8.85-7.053-7.028-9.422-14.305-8.727-26.798.567-10.173 3.886-17.485 11.636-25.634 5.304-5.576 8.937-8.227 15.697-11.449 11.16-5.319 18.127-6.51 38.13-6.513 11.73-.002 14.682-.139 15.504-.715 1.068-.748 1.931-2.38 7.664-14.48 7.019-14.813 13.707-22.675 23.18-27.248 6.875-3.318 11.144-4.186 19.186-3.896 10.438.375 17.013 3.21 17.855 7.697.458 2.444-.121 4.162-6.042 17.912-4.093 9.505-8.229 19.82-8.229 20.518 0 .055 4.211.188 9.359.297 10.188.213 11.011.412 12.628 3.065 2.143 3.517.829 7.772-2.931 9.486-2.134.971-3.299 1.072-13.505 1.169-6.143.057-11.343.289-11.555.514-.292.312-4.646 10.71-7.334 17.517-.194.493 4.016.624 20.057.624h20.304l2.753-5.868c10.77-22.958 14.776-29.803 20.611-35.207 5.727-5.307 11.073-7.384 18.937-7.358 7.206.023 11.273 1.66 16.038 6.454 8.566 8.617 9.859 21.575 3.405 34.132-1.605 3.123-3.127 5.114-6.38 8.347-4.858 4.827-8.133 6.924-14.642 9.372-6.373 2.392-9.756 2.993-20.285 3.587-6.825.384-9.501.722-10.389 1.304-1.493.98-2.141 2.455-7.99 18.2-8.127 21.878-7.765 20.676-7.509 24.946.366 6.1 1.428 7.667 13.57 20.002 5.812 5.907 17.62 18.155 26.24 27.221 8.62 9.064 22.319 23.223 30.442 31.465 8.123 8.238 16.566 16.892 18.76 19.226 2.195 2.335 8.185 8.599 13.308 13.917l9.318 9.67 1.403-1.01c1.535-1.1 2.674-2.263 22.416-22.824a4264.082 4264.082 0 0 1 25.419-26.222 5208.226 5208.226 0 0 0 25.229-25.97c37.916-39.347 44.325-45.774 46.577-46.709 4.546-1.89 8.798.885 8.793 5.74-.002 3.188-1.143 4.82-8.406 12.016-3.473 3.446-16.309 16.704-28.523 29.47-12.211 12.763-29.396 30.51-38.187 39.435-8.791 8.93-23.565 24.233-32.835 34.013-9.268 9.778-17.42 18.038-18.114 18.355-1.855.844-5.25.7-7.025-.3ZM427.246 406.005c5.946-2.046 10.518-5.819 16.203-13.37 4.279-5.684 6.892-9.96 13.99-22.896 2.9-5.285 5.845-10.453 6.545-11.484l1.272-1.874-1.376-.392c-2.385-.68-21.5-.614-25.834.089-15.97 2.587-27.892 11.12-32.444 23.218-2.731 7.26-2.661 13.014.228 18.74 4.068 8.064 12.273 11.117 21.416 7.969Zm156.55-33.379c10.869-2.78 18.542-9.987 20.223-18.996a13.736 13.736 0 0 0-2.163-10.32c-2.029-2.983-4.257-4.167-7.846-4.167-8.08 0-14.037 7.008-22.687 26.688-1.787 4.067-3.25 7.627-3.25 7.91 0 .834 11.217.038 15.723-1.115Zm-74.092-31.502c1.061-.568 2.488-3.138 3.455-6.225.344-1.1 2.506-6.735 4.804-12.525 2.298-5.788 4.321-11.238 4.496-12.11l.317-1.586h-3.033c-10.346 0-17.561 4.897-24.672 16.743-1.505 2.51-7.36 15.225-7.36 15.986 0 .49 21.055.22 21.993-.283Zm292.629 78.933c-4.254-1.117-10.134-3.757-13.457-6.046-7.413-5.103-16.251-16.89-25.619-34.162-2.532-4.671-4.679-8.571-4.774-8.667-.512-.528-6.646 13.403-13.05 29.64-4.966 12.595-6.507 14.735-10.589 14.733-2.966-.003-5.373-1.456-6.374-3.855-1.179-2.823-.347-5.715 5.777-20.075 6.477-15.187 13.67-32.926 14.531-35.834.617-2.076.605-2.11-4.002-11.737a4532.197 4532.197 0 0 1-6.514-13.651c-4.434-9.372-10.197-16.25-15.964-19.052-5.608-2.728-10.406-3.27-16.711-1.891-10.109 2.212-11.677 2.036-13.28-1.493-2.469-5.441-.527-8.761 6.407-10.953 12.876-4.07 25.419-2.014 35.928 5.89 6.381 4.8 9.62 9.314 17.097 23.84l4.954 9.623 1.57-3.482c2.287-5.067 4.255-10.06 7.076-17.964 4.304-12.054 6.032-14.395 10.629-14.395 4.342 0 7.1 3.091 6.614 7.411-.128 1.12-2.377 7.083-5.001 13.25-8.285 19.463-12.344 29.966-12.344 31.921 0 4.343 12.998 27.35 23.06 40.818 4.349 5.82 7.512 8.659 12.281 11.017 3.688 1.823 3.937 1.873 9.305 1.873 5.024 0 5.745-.12 8.057-1.341 3.106-1.638 5.433-4.212 7.121-7.874 1.014-2.198 1.321-3.762 1.48-7.574.385-9.237-2.012-15.068-9.125-22.186-8.172-8.178-16.391-11.268-33.212-12.489-5.423-.394-8.062-1.452-9.225-3.703-1.031-1.994-.951-4.443.207-6.343 1.154-1.894 12.232-11.83 23.242-20.845 9.036-7.4 18.681-15.695 44.175-38 9.747-8.526 19.629-17.094 21.964-19.04 5.675-4.732 7.794-7.176 9.657-11.122 2.127-4.505 2.115-9.19-.04-18.317-5.413-22.907-18.701-43.118-39.069-59.426-21.344-17.092-50.863-25.438-77.628-21.949-21.697 2.828-42.212 11.084-59.637 24-9.101 6.746-27.055 25.597-30.23 31.744-.662 1.279-.55 1.735 1.735 7.072 3.293 7.695 6.222 16.876 7.6 23.83.891 4.491 1.143 7.484 1.161 13.733.02 7.768-.02 8.078-1.416 11.099-2.709 5.868-9.572 10.752-16.059 11.431-7.088.742-15.395-3.43-18.95-9.515-4.087-6.993-2.369-28.238 3.491-43.23a498.575 498.575 0 0 1 3.462-8.565c1.424-3.41 1.703-4.577 1.336-5.542-1.77-4.663-17.11-21.622-26.131-28.894-18.65-15.032-39.748-24.056-63.513-27.168-14.419-1.888-31.251-.2-45.671 4.581-5.792 1.92-17.291 7.303-22.712 10.632-12.244 7.52-25.09 19.952-33.592 32.513-8.488 12.54-14.687 29.745-16.618 46.124-.873 7.409-.303 28.745.995 37.25 1.217 7.977 1.287 10.447.356 12.678-2.029 4.856-9.557 5.105-11.992.394-.973-1.884-2.62-13.224-3.347-23.062-.7-9.466-.278-26.686.832-33.96 2.104-13.778 6.88-27.508 13.527-38.89 10.572-18.101 23.077-31.623 39.108-42.286 14.206-9.45 29.273-15.66 44.923-18.518 5.244-.957 27.324-1.372 36.58-.687 25.042 1.853 55.52 16.066 76.734 35.783 5.915 5.497 8.087 7.858 14.164 15.403 2.654 3.296 4.981 5.88 5.171 5.744.189-.138 2.599-2.941 5.35-6.23 21.807-26.056 49.278-42.747 81.558-49.557 6.165-1.3 6.707-1.33 24.276-1.32 17.49.01 18.139.045 24.281 1.331 31.184 6.529 59.664 26.312 77.78 54.027 9.655 14.77 16.611 34.028 17.31 47.922.34 6.781-.537 11.49-3.083 16.542-2.749 5.45-6.025 9.072-15.919 17.585-14.204 12.225-33.686 29.099-42.492 36.801a906.38 906.38 0 0 1-15.974 13.587c-9.261 7.654-13.73 12.004-12.669 12.333.392.123 2.624.797 4.956 1.5 16.606 5.001 29.584 17.026 34.131 31.624 2.721 8.736 2.708 16.69-.035 24.3-3.498 9.707-11.388 17.065-20.973 19.563-3.885 1.012-10.566.9-14.958-.252ZM662.254 264.753c.877-.534 1.863-1.477 2.192-2.095.832-1.552.277-10.452-1.056-17.018-1.153-5.683-3.875-14.374-4.499-14.374-.22 0-.881 1.284-1.468 2.855-3.221 8.613-4.866 18.12-4.339 25.089.257 3.408.432 3.902 1.82 5.143 1.89 1.692 4.961 1.859 7.35.4Zm-36.613 122.353c-3.548-.395-6.156-3-6.156-6.153 0-.655 3.49-9.823 7.756-20.376s8.778-21.871 10.026-25.153c3.243-8.518 4.147-10.259 5.885-11.319 3.22-1.966 8.656-.645 9.807 2.385.734 1.93.112 5.237-2.045 10.906-1.72 4.513-12.181 30.25-14.161 34.835l-.809 1.873 11.862-.017 11.862-.018 3.742-9.55c2.06-5.252 5.064-12.268 6.674-15.59 2.634-5.426 3.368-6.475 7.238-10.327 6.519-6.491 11.098-8.211 19.502-7.326 4.841.509 8.391 2.179 11.642 5.472 7.268 7.362 8.247 17.443 3.136 32.324-.699 2.04-1.273 4.007-1.273 4.37 0 .521 1.64.662 7.7.662 7.465 0 7.742.037 9.168 1.239 3.175 2.673 3.482 7.598.646 10.434l-1.56 1.561h-14.678c-14.11 0-14.734-.04-16.089-1.044-.774-.572-1.723-1.936-2.11-3.025-.649-1.84-.607-2.254.579-5.7.704-2.043 2.3-6.186 3.545-9.209 2.939-7.124 3.815-10.605 3.815-15.153 0-4.69-1.048-6.627-4.254-7.851-4.419-1.69-8.382-.044-11.914 4.945-2.882 4.07-3.898 6.155-7.331 15.06-5.435 14.087-7.38 18.4-9.068 20.079l-1.625 1.619-19.467.167c-10.706.092-20.626.037-22.045-.12Zm28.564-71.682c-4.432-1.579-6.746-4.754-6.759-9.27-.017-5.734 4.494-9.806 10.377-9.366 3.552.266 5.328 1.131 7.265 3.544 1.253 1.555 1.558 2.448 1.723 5.04.317 5.007-2.122 8.733-6.592 10.06-2.996.89-3.495.89-6.014-.008Z"/><path d="M655.673 569.708c-.824-.378-5.54-5.04-10.481-10.358-4.941-5.318-13.807-14.619-19.699-20.67-24.171-24.82-45.516-46.79-50.71-52.2-3.035-3.16-12.289-12.745-20.565-21.299-8.656-8.946-15.907-16.885-17.074-18.69-3.791-5.87-5.293-13.96-3.851-20.749.415-1.95 2.371-7.793 4.347-12.985 5.76-15.126 8.486-22.623 8.801-24.197l.294-1.472-23.647-.007c-17.899-.005-23.951-.157-24.895-.63-1.746-.874-3.098-3.695-2.829-5.903.119-.99 1.127-4.022 2.238-6.742 4.893-11.978 6.476-16.025 6.787-17.348l.332-1.414-11.739.165-11.739.165-1.211 1.25c-.666.687-3.224 5.181-5.684 9.988-7.102 13.879-15.417 27.666-21.819 36.177-8.884 11.812-19.677 17.88-31.953 17.964-3.95.028-5.714-.204-8.45-1.116-9.13-3.045-15.139-8.344-19.037-16.785-1.332-2.886-1.779-4.702-2.24-9.118-1.545-14.755 2.684-26.078 13.576-36.36 7.66-7.229 17.575-12.037 29.914-14.505 3.364-.673 7.416-.855 20.25-.91 15.288-.065 16.099-.116 17.163-1.068.614-.55 3.519-5.95 6.453-12.003 6.125-12.631 9.222-17.529 14.206-22.472 10.736-10.645 26.163-14.032 40.595-8.91 4.763 1.69 6.117 3.236 6.117 6.984 0 2.36-.715 4.39-5.281 15.006-5.059 11.763-8.695 20.8-8.695 21.613 0 .211 4.16.506 9.244.657 7.332.217 9.499.44 10.475 1.08 4.208 2.759 4.115 8.985-.167 11.117-1.57.782-3.54.948-13.744 1.162l-11.911.25-3.687 8.974c-2.028 4.936-3.687 9.216-3.687 9.513 0 .378 6.065.53 20.28.506l20.281-.033 5.62-11.847c9.228-19.456 13.01-25.551 18.902-30.46 4.284-3.57 8.252-5.305 13.697-5.994 10.25-1.293 18.118 2.046 23.143 9.825 2.834 4.387 4.107 8.994 4.083 14.772-.056 13.452-7.596 24.992-20.403 31.229-7.227 3.517-12.128 4.697-21.962 5.28-11.146.66-12.506.845-13.653 1.849-1.077.943-3.601 6.978-8.021 19.18-1.622 4.476-3.906 10.608-5.076 13.632-1.797 4.64-2.132 6.075-2.164 9.247-.032 3.308.167 4.17 1.674 7.233 1.428 2.903 2.962 4.716 9.291 10.98 4.169 4.124 15.069 15.366 24.222 24.978 9.153 9.616 23.287 24.223 31.408 32.464 14.246 14.458 44.331 45.765 45.008 46.838.631 1.005 5.368-3.724 36.165-36.123 7.168-7.539 14.356-14.961 15.971-16.488 1.616-1.529 11.251-11.412 21.407-21.96 21.847-22.695 44.437-45.787 46.125-47.154.769-.623 2.212-1.047 3.995-1.175 3.39-.242 5.2.91 6.087 3.872 1.203 4.023.651 4.937-8.761 14.493-4.739 4.814-10.729 11.04-13.308 13.832-6.726 7.29-29.736 31.063-45.837 47.363-7.6 7.69-18.306 18.704-23.792 24.472-15.746 16.556-30.899 32.331-32.567 33.908-1.813 1.714-5.41 2.233-7.812 1.127ZM425.252 406.84c6.804-1.814 12.378-6.22 18.875-14.928 4.11-5.51 6.426-9.312 13.141-21.58 2.549-4.656 5.387-9.65 6.308-11.097.92-1.447 1.673-2.829 1.673-3.07 0-.645-13.847-1.226-20.384-.854-6.959.397-11.984 1.398-17.639 3.517-6.172 2.314-9.554 4.471-14.17 9.039-3.207 3.172-4.474 4.88-6.119 8.24-3.457 7.064-4.329 12.385-2.904 17.723 1.372 5.139 3.978 8.916 7.628 11.057 4.52 2.648 8.713 3.252 13.591 1.953Zm154.428-33.287c11.688-1.523 21.06-8.317 23.824-17.271 1.217-3.941 1.262-6.109.203-9.679-1.037-3.493-4.044-6.614-7.188-7.462-3.782-1.019-8.2.472-12.419 4.193-1.727 1.522-6.497 8.905-8.925 13.81-3.067 6.198-7.517 16.652-7.269 17.075.243.414 5.978.09 11.774-.666Zm-72.873-31.74c3.097-.293 3.453-.448 4.346-1.893.535-.866 1.679-3.587 2.542-6.046.863-2.458 2.984-7.954 4.714-12.212 1.73-4.258 3.501-8.95 3.935-10.428l.791-2.688-5.151.23c-4.412.197-5.611.446-8.353 1.74-6.167 2.908-11.375 8.515-15.829 17.04-2.537 4.857-6.091 12.796-6.091 13.605 0 .725 13.466 1.184 19.096.653Zm297.361 78.48c-15.639-3.19-26.108-13.555-40.594-40.198-2.604-4.79-4.946-8.778-5.201-8.864-.774-.257-8.306 16.948-14.885 33.998-2.117 5.484-4.247 8.959-5.98 9.748-4.177 1.903-9.213-1.162-9.205-5.606.005-3.108.664-5.01 6.349-18.287 7.235-16.893 14.611-35.562 14.611-36.98 0-.648-1.326-3.887-2.946-7.195-1.623-3.31-4.632-9.544-6.689-13.852-6.217-13.029-10.953-18.832-18.166-22.26-3.381-1.605-4.422-1.856-8.369-2.019-3.314-.136-5.735.092-9.121.856-5.81 1.31-9.173 1.36-10.267.148-1.113-1.23-2.344-4.305-2.344-5.858 0-.71.342-1.95.759-2.759 2.305-4.458 17.325-7.37 27-5.235 7.827 1.729 13.874 5.088 19.582 10.878 4.541 4.606 6.761 8.037 12.511 19.329 2.801 5.505 5.265 10.01 5.472 10.01.53 0 5.506-11.882 8.577-20.478 2.921-8.184 4.846-12.276 6.461-13.735 1.71-1.545 6.954-1.425 8.681.199 1.88 1.767 2.522 4.138 1.848 6.819-.305 1.21-2.04 5.633-3.855 9.827-4.644 10.728-13 31.474-13.385 33.235-.459 2.089.829 5.163 6.494 15.478 6.554 11.943 9.253 16.315 14.581 23.632 7.43 10.2 12.304 14.145 19.447 15.734 19.424 4.324 28.685-18.27 14.855-36.252-4.596-5.98-13.197-11.344-21.579-13.462-2.262-.57-7.687-1.352-12.054-1.735-4.369-.383-8.359-.92-8.868-1.193-3.119-1.682-4.365-5.214-2.914-8.271.929-1.958 11.308-11.39 23.454-21.312 8.849-7.229 15.24-12.716 42.48-36.466 12.109-10.558 23.521-20.485 25.366-22.061 9.45-8.08 11.286-13.693 8.532-26.101-5.491-24.737-19.003-45.438-40.857-62.591-17.682-13.879-43.51-22.43-65.719-21.759-20.598.623-42.449 7.177-60.703 18.208-12.698 7.676-27.424 21.201-36.931 33.928-4.262 5.704-4.2 4.938-1.049 12.56 5.071 12.263 7.435 21.166 8.344 31.39.642 7.236.07 13.474-1.538 16.81-1.583 3.286-5.577 7.167-9.2 8.938-2.732 1.336-3.456 1.465-8.234 1.468-4.849.003-5.486-.113-8.487-1.558-4.177-2.01-6.918-4.426-8.668-7.645-3.513-6.457-2.597-23.923 2.032-38.74.686-2.197 2.344-6.48 3.685-9.517 3.49-7.907 3.488-7.861.672-11.988-5.645-8.27-15.872-19.214-24.176-25.871-26.095-20.921-60.664-31.351-89.875-27.118-12.575 1.823-21.17 4.506-33.164 10.356-11.76 5.735-19.977 11.757-29.776 21.825-15.01 15.418-23.64 31.544-28.127 52.552-2.352 11.018-2.61 32.314-.553 45.596 1.722 11.114 1.532 13.155-1.466 15.789-3.13 2.75-7.85 1.568-9.806-2.458-1.205-2.481-2.855-15.103-3.435-26.282-1.61-31.02 3.928-53.367 18.82-75.954 16.756-25.413 41.428-43.67 69.378-51.34 11.05-3.032 14.551-3.351 34.264-3.128 16.032.181 18.05.3 22.828 1.344 25.478 5.563 49.616 18.363 68.336 36.24 4.063 3.877 12.222 13.281 15.275 17.606.822 1.161 1.631 2.117 1.796 2.122.167.006 2.187-2.293 4.489-5.108 20.658-25.271 46.524-41.97 76.744-49.541 9.907-2.482 12.796-2.75 30.106-2.788 18.623-.042 21.751.294 33.189 3.561 27.022 7.72 52.434 26.73 68.695 51.39 7.283 11.041 13.804 26.572 16.361 38.956 1.5 7.27 1.515 16.418.032 20.976-2.671 8.227-5.807 11.955-21.07 25.043-8.726 7.484-26.445 22.85-35.645 30.915-5.216 4.571-12.854 11.08-16.971 14.464-7.984 6.56-16.226 13.883-16.218 14.411 0 .176 1.558.696 3.46 1.155 14.374 3.467 27.764 13.668 33.971 25.876 3.223 6.344 4.786 14.021 4.346 21.378-1.148 19.289-17.594 32.53-35.793 28.817ZM660.444 265.727c.976-.272 2.412-1.16 3.191-1.974l1.418-1.48-.297-6.388c-.165-3.515-.749-8.454-1.298-10.978-1.151-5.27-3.993-14.14-4.532-14.14-.564 0-3.381 7.75-4.542 12.485-.706 2.892-1.123 6.632-1.303 11.736-.254 7.15-.217 7.555.819 8.86.599.752 1.803 1.574 2.679 1.827 2.117.613 1.858.61 3.865.052Zm47.64 121.406c-6.314-.162-11.847-.474-12.291-.697-.447-.222-1.209-1.144-1.696-2.048-1.313-2.438-.806-5.044 2.635-13.56 4.042-10.002 4.758-12.65 4.761-17.549.002-4.584-.607-6.005-3.296-7.693-2.399-1.51-7.076-1.145-9.55.743-3.767 2.875-7.066 8.617-10.933 19.035-2.04 5.495-4.187 10.721-6.921 16.843-.579 1.299-1.598 2.873-2.262 3.497l-1.208 1.135-21.57.145-21.569.144-1.726-1.157c-1.162-.781-1.944-1.846-2.395-3.265l-.671-2.103 9.246-23.102c5.086-12.706 9.945-24.933 10.796-27.17.851-2.238 2.122-4.644 2.824-5.345 1.698-1.7 4.868-2.176 7.41-1.114 2.537 1.06 3.226 2.083 3.243 4.818.02 3.034-.946 6.138-4.811 15.423-6.139 14.752-12.241 30.06-12.054 30.246.102.103 5.498.053 11.992-.11l11.804-.299 1.616-4.293c3.65-9.696 9.505-22.738 11.672-26 4.876-7.339 11.78-11.964 18.493-12.397 7.371-.473 12.714 1.425 17.113 6.08 6.641 7.026 7.67 16.304 3.303 29.82-1.011 3.132-1.945 5.977-2.077 6.32-.183.48 1.35.624 6.678.627 7.805.002 10.177.473 11.61 2.297 1.411 1.793 1.808 5.096.884 7.312-1.523 3.645-2.996 3.884-21.05 3.42Zm-54.905-72.156c-2.515-1.098-5.124-4.414-5.511-7.006-.534-3.554.075-5.566 2.417-8.003 4.414-4.595 11.852-4.24 15.135.724 3.171 4.798 1.453 11.552-3.56 13.98-2.369 1.149-6.234 1.288-8.481.305Z"/></g></g></g></svg>