<svg xmlns="http://www.w3.org/2000/svg" width="167" height="50" fill="none"><path fill="#fff" d="M142.817 38.24c-6.896 0-11.755-5.322-11.755-13.074s4.795-13.075 11.822-13.075c4.74 0 8.905 3.117 10.218 7.514.155.519.605.895 1.147.895h11.28c.784 0 1.345-.725 1.188-1.491C164.602 8.656 154.647 0 142.423 0c-9.667 0-17.59 4.5-21.951 11.66a1.17 1.17 0 0 1-1.17.545c-3.91-.505-8.57 1.332-11.962 6.902-.222.365-.777.139-.665-.273l1.042-3.862a1.215 1.215 0 0 0-1.172-1.532H94.15c-.55 0-1.028.367-1.173.895L86.482 38.14c-.276 1.013-1.621 1.222-2.191.342l-3.632-5.6c-.395-.61-.175-1.437.482-1.746 5.184-2.438 8.454-7.159 8.454-13.065 0-9.856-7.816-16.426-19.31-16.426H47.463c-.67 0-1.214.545-1.214 1.215v27.464c0 .827-1.176.983-1.392.186L37.24 2.54a1.216 1.216 0 0 0-1.173-.895h-22.77c-.548 0-1.03.368-1.172.898L.043 47.153a1.215 1.215 0 0 0 1.172 1.534H13.6c.552 0 1.036-.372 1.176-.908l1.297-4.952c.14-.534.623-.907 1.175-.907h14.996c.556 0 1.042.378 1.178.917l1.243 4.932c.137.539.622.918 1.178.918h23.44c.67 0 1.216-.545 1.216-1.215V34.725c0-.67.544-1.215 1.215-1.215h4.627c.447 0 .858.246 1.07.64l7.455 13.898c.212.394.624.64 1.07.64h21.702c.546 0 1.025-.364 1.17-.892l4.038-14.619c2.078-7.815 8.604-9.93 13.3-7.99.423.175.678.606.695 1.064.523 14.02 11.112 24.08 25.646 24.08 12.454 0 22.466-8.19 24.284-18.928a1.225 1.225 0 0 0-1.2-1.441h-11.264c-.542 0-.995.368-1.165.884-1.421 4.334-5.585 7.395-10.326 7.395zM18.98 30.429l4.59-17.55a1.216 1.216 0 0 1 2.36 0l4.56 17.551c.185.765-.395 1.5-1.181 1.5h-9.15a1.215 1.215 0 0 1-1.18-1.503zm48.548-6.12h-5.813c-.67 0-1.214-.544-1.214-1.214V13.04c0-.67.544-1.215 1.214-1.215h5.813c4.334 0 7.816 2.3 7.816 6.243 0 3.942-3.48 6.24-7.816 6.24"/></svg>