<svg xmlns="http://www.w3.org/2000/svg" width="135" height="20" viewBox="0 0 135 20"><path fill="#fff" d="m22.244 12.215.73-5.743h-.166l-5.914 5.732h5.35zm-.67 5.18h-10.03l-2.58 2.49H0L21.136 0h11.012l-1.922 19.906h-8.964l.323-2.511zM57.17 6.004l-7.793-.01L41.3 19.916h-8.38l8.077-13.924-7.794-.01L36.662.02l23.967.021zM66.47 7.628l14.397.021-2.664 4.586-14.397-.01-1.578 2.73 14.387.01-2.894 4.993-22.766-.032L62.489.041l22.777.031-2.947 5.065-14.387-.01zM91.106 7.66l14.387.01-2.665 4.596-14.386-.02-1.578 2.73 14.376.02-2.883 4.983-22.766-.021L87.115.072l22.766.021-2.936 5.065-14.387-.01zM116.787 13.861l10.249.01L123.484 20l-23.268-.02 3.417-5.91 14.752-7.838-10.197-.01L111.74.094l23.247.02-3.427 5.91z"/></svg>