<svg xmlns="http://www.w3.org/2000/svg" width="110" height="27" version="1.2" viewBox="0 0 1974 490"><style>.a,.b{opacity:.04;fill:#fff}.b{opacity:1}</style><path fill-rule="evenodd" d="M703.5-1.5c21.5.1 39.9.6 41 1.1 1.3.6-15.5 1.1-91.8 1.9L651.4 7c-.7 3-2.2 9.8-3.3 15s-3.3 15.8-5 23.5c-1.6 7.7-3.9 18.5-5.1 24s-3.4 15.8-5.1 23c-2 9.1-2.7 11.2-2.3 7 .3-3.3 1-6.8 1.5-7.8.5-.9.9-2.7.9-4 0-1.2.7-5.4 1.6-9.2s2.4-10.6 3.4-15 2.5-11.2 3.4-15c.8-3.8 2-9.5 2.6-12.5.5-3 1.7-8.6 2.5-12.5S648.4 14 649 11c.5-3 1.5-6.8 2.2-8.3.7-1.6 2.2-3 3.3-3.3 1.1-.2 3.8-.5 6-.8 2.2-.2 21.5-.3 43-.1m1199 21-.3 6.5c-.1 3.6-.9 8.3-1.6 10.5-.8 2.2-2.4 9.2-3.6 15.5-1.1 6.3-2.8 14.4-3.6 18s-1.3 7.1-1 7.8c.4.6-.1 1.2-.9 1.2-1 0-1.3-.7-1-2.3.3-1.2 3-14 6-28.4 3-14.5 5.5-26.5 5.5-26.8s-20.7-.5-46-.5q-46 0-45.4-1c.3-.7 16.2-.9 91.9-.5m-1166.8 32c.1.3-.3 3.1-1 6.4-.6 3.3-1.3 5.9-1.5 5.8-.1-.1.3-3 1-6.4s1.4-6 1.5-5.8m89.8 20.1c5.7.3 14.1 1.6 19.5 3 5.2 1.3 12.2 3.7 15.5 5.2 3.3 1.6 8.7 4.7 12 6.9 3.3 2.3 8.4 6.5 11.4 9.5 3 2.9 6.8 7.1 8.6 9.3 1.7 2.2 4.7 6.7 6.6 10 2 3.3 5 9.6 6.7 14s3.8 11.4 4.6 15.5 1.8 10.7 2.1 14.5c.4 4 .1 11.6-.7 17.7-.7 5.9-1.4 10.6-1.6 10.5s.2-4.7.8-10.2c.8-7.4.8-12.8 0-20.5-.6-5.8-2-13.9-3.1-18s-4.1-11.8-6.7-17-7.4-12.9-10.7-16.9c-3.3-4.1-9.4-10.2-13.5-13.4-4.1-3.3-11.1-7.7-15.5-9.8-4.4-2.2-11.6-4.9-16-6-4.9-1.3-12.7-2.3-20-2.6-8.4-.4-15.4 0-23.5 1.1-6.3.9-15.8 2.8-21 4.2s-14 4.3-19.5 6.5-13.6 6.1-18 8.7-10 6.3-12.5 8.3c-2.5 1.9-5.1 3.8-5.8 4.2-.8.5-1.2-.1-1.2-2.1 0-2.1.2-2.3 1-1.2.8 1.3 1.2 1.2 3.2-.6 1.3-1.2 5-3.9 8.3-6.1 3.3-2.3 10.4-6.2 15.7-8.7 5.4-2.5 13.7-5.9 18.5-7.5 4.9-1.6 13.5-3.9 19.3-5.1s13.9-2.5 18-3 12-.6 17.5-.4m973.5 1.2c.3.1 0 .7-.5 1.2-.6.5-14.9 1.1-34.3 1.2-21.8.2-33.1 0-32.9-.7.2-.6 12.8-1.2 33.8-1.5 18.4-.3 33.6-.4 33.9-.2m-68.3 4.7c.2.5-.3 3.7-1.1 7s-1.5 5-1.5 3.7c-.1-1.2.4-4.3 1.1-7 .6-2.6 1.3-4.3 1.5-3.7m244 1.7c.1.2-.1 2.6-.6 5.4-.5 2.7-1.4 7.6-2.1 10.9-.6 3.3-1.6 7.6-2.2 9.5s-1.4 5.7-1.9 8.5c-.5 2.7-1.5 8.1-2.3 12-.8 3.8-2 9-2.7 11.5-.6 2.5-1.5 5.2-1.9 6-.6 1.3-4.9 1.5-57.5 1.5l28.2-.2c26-.3 28.3-.4 28.7-2.1.3-.9 1.4-6 2.5-11.2s3.1-14.7 4.5-21 3.2-15.1 4.1-19.5 1.9-8.8 2.3-9.8c.3-1 .8-1.7.9-1.5m-247.2 11.9c.2.4-.7 5.8-2 12-1.3 6.3-3.4 16.1-4.6 21.9s-3 13.9-4 18-1.7 5.7-1.4 3.5c.2-2.2 1.1-7.2 1.9-11s2.6-12.2 4-18.5 3.3-14.9 4.1-19c.9-4.1 1.8-7.2 2-6.9M629.7 106.3c.1.2-.9 5.7-2.2 12.3-1.4 6.5-3.8 18.2-5.4 25.9-1.7 7.7-4.6 21.2-6.4 30-1.9 8.8-4.2 20.1-5.2 25-1.1 4.9-2 8.6-2.2 8s.1-3.5.6-6.5 1.7-8.7 2.5-12.5c.9-3.8 2.3-10.4 3.1-14.5s2.3-11.3 3.4-16c1-4.7 3.3-15.3 5.1-23.5 1.7-8.3 3.6-17.3 4.1-20 .5-2.8 1.2-5.8 1.6-6.8s.8-1.7 1-1.4M1876.2 144l21.3.4-20 .7-1.9 9.2c-1 5.1-2.2 11-2.7 13.2-.4 2.2-1.4 7.2-2.2 11s-1.9 9-2.5 11.5-1.8 7.5-2.6 11.2c-.9 3.8-1.6 8-1.6 9.5 0 1.6-.6 4.5-1.5 6.5-.8 2.1-1.5 5.3-1.5 7 0 1.8-.7 5.1-1.4 7.3-.8 2.2-3.3 13.2-5.6 24.5-2.4 11.3-4.6 22.3-5.1 24.5-.4 2.2-.8 6.7-.9 10 0 5 .4 6.6 2.8 10 1.7 2.5 4.5 4.7 7.2 5.9 3.5 1.5 8.1 2.1 36.5 3.4l-16.5-.2c-15.6-.2-16.8-.3-21.5-2.8-2.8-1.4-5.8-3.7-6.8-5.2-.9-1.4-2.2-4.5-2.9-6.9-.9-3.6-.7-6.1 1.5-17.2 1.5-7.1 3.6-17.3 4.7-22.5s3.4-15.8 5-23.5 4.3-20.5 6-28.5 4.5-20.8 6.1-28.5c1.7-7.7 3.4-16 4-18.5.5-2.5 1.2-6.2 1.5-8.3zm-126.9 7c27.1 0 34.7.3 34.7 1.3s-7.2 1.1-33.9.7c-18.7-.2-34.3-.8-34.8-1.2-.4-.5 14.8-.8 34-.8m-967.8 34c.3.3.5 5.3.6 11 0 5.8-.4 13.5-1.1 17-.6 3.6-2.3 9.9-3.7 14-1.3 4.2-4.6 12-7.3 17.5-2.6 5.5-8.8 16.1-13.8 23.5-4.9 7.5-13.7 19.2-19.4 26-5.7 6.9-16.2 18.4-23.4 25.7-7.1 7.2-17.6 17.4-23.4 22.6-5.8 5.3-16.8 14.9-24.5 21.3s-20.3 16.5-28 22.4-21.2 15.9-30 22.3c-8.8 6.3-23.6 16.6-33 22.9-9.3 6.3-21.5 14.3-27 17.8s-10.6 6.9-11.3 7.5c-.9.8-1.3.7-1.2-.2 0-.7 4.6-4.2 10.3-7.7 5.6-3.6 16.4-10.7 24-15.8s16.7-11.3 20.2-13.8c3.5-2.4 10.6-7.4 15.7-11 5.1-3.5 17.2-12.5 26.9-20 9.7-7.4 21.9-16.9 27-21 5.2-4.2 16.4-13.8 24.9-21.4s20.2-18.7 26-24.5c5.8-5.9 15-15.8 20.5-22.1 5.6-6.3 12.4-14.4 15.1-18 2.8-3.5 7.9-10.7 11.3-16 3.4-5.2 8.9-14.8 12-21.5 3.2-6.6 6.5-14.2 7.4-17 .9-2.7 2.3-8.2 3.2-12.2.9-4.2 1.5-12 1.5-18.5 0-6.2.2-11 .5-10.8m-173.8 24.5c.1.2-.5 3.7-1.3 7.7-.8 4.1-2.1 10-4.4 19.3l.6-5c.3-2.7 1.5-8.9 2.7-13.7s2.3-8.5 2.4-8.3m1294.8 100 24-.5-.8 3.3c-.5 1.8-1.2 5.7-1.6 8.7-.4 3.1-1.1 6-1.4 6.5-.3.6-2 7.8-3.7 16-1.8 8.3-3.8 18.2-4.6 22-.8 3.9-1.7 7.9-2 9-.3 1.2-.7 1.8-.9 1.5-.2-.2.5-4.7 1.5-10 1.1-5.2 2.6-12.6 3.5-16.5.8-3.8 2-9 2.5-11.5.5-2.4 1.9-9 3-14.5 1.2-5.5 2.3-10.7 2.5-11.7.5-1.6-.6-1.8-10.7-2zM821 333.5l1 6c.5 3.3 2 8.1 3.2 10.5 1.2 2.5 3.6 6.1 5.2 7.9 1.7 1.9 5.3 4.9 8.1 6.7 2.7 1.9 7.4 4.3 10.5 5.5 3 1.2 8.8 3 13 4.1 4.3 1.1 10.9 1.9 15.7 1.9 4.5-.1 8.5.4 8.8.9.2.6 0 1.7-.5 2.5-.6.9-1.5 1.3-2 1-.6-.2-1.3 0-1.5.5-.3.6-1.3.7-2.3.3-1.2-.5-1.5-.4-1 .5q.7 1.2-1 1c-1-.1-2.4.2-3.2.6-.9.5-1.8.5-2.2 0s-.8-2-1-3.4c-.3-1.9-1-2.5-3.3-2.8-1.7-.2-5.7-1-9-1.8s-9.6-3.2-14-5.3c-5.2-2.5-10-5.8-13.5-9.2-3.1-3-6.6-7.5-7.8-10.1-1.3-2.7-2.4-7.5-2.7-11zM525.6 461c.2 0 .2.4 0 .9-.1.6-3.1 2.8-6.7 5s-12.9 7.7-20.7 12.3c-12.9 7.6-14.1 8.5-13.1 10.3 1 1.9 1 1.9-.8.2-1.7-1.5-1.7-1.9-.4-3.2.8-.8 10.5-6.9 21.5-13.4 11-6.6 20.1-12 20.2-12.1" class="a"/><path d="M652.6 2.3c-.2.6-.9 3.2-1.5 5.7-.5 2.5-1.9 8.8-3 14s-3.4 16-5.1 24-4 18.5-5 23.5c-1.1 5-4.2 19.8-7 33s-5.9 28.1-7 33c-1 4.9-3.5 16.2-5.4 25s-4.6 21.8-6.1 29-3.7 17.5-5 23c-1.2 5.5-2.9 13-3.6 16.7-.8 3.7-1.1 7.1-.7 7.5s1.5.5 2.3.1c.8-.5 2.3-2.6 3.2-4.8 1-2.2 2.1-4 2.5-4 .5 0 .8-.4.8-1s1.7-3.6 3.8-6.7c2-3.2 6.4-9.2 9.7-13.3s11.3-12.9 18-19.6c6.6-6.6 16.3-15.2 21.5-19.1 5.2-3.8 12.2-8.6 15.5-10.5s9.4-5 13.5-6.8 11.1-4.2 15.5-5.3c6.7-1.6 10.1-1.9 21-1.4 9.3.3 14.6 1 18.5 2.4 3 1.1 7.5 3.1 10 4.6 2.5 1.4 6.8 4.9 9.6 7.9 2.8 2.9 6.3 7.7 7.7 10.6 1.5 2.8 3.4 7.8 4.2 11 .9 3.2 1.6 10.1 1.6 15.7 0 5.5-.5 12.9-1.1 16.5-.7 3.6-2.3 9.9-3.7 14-1.3 4.1-4.6 12-7.3 17.5-2.6 5.5-8.8 16.1-13.8 23.5-4.9 7.4-13.7 19.1-19.4 26s-16.3 18.4-23.4 25.6-17.6 17.4-23.4 22.7-16.8 14.8-24.5 21.2-20.3 16.5-28 22.5c-7.7 5.9-22.3 16.7-32.5 24s-27.7 19.3-39 26.8c-11.3 7.4-22.8 14.9-25.5 16.7-3.5 2.3-5.2 2.9-5.7 2.2-.4-.7-.8-.9-.8-.4 0 .4-.1 1.1-.3 1.6-.1.5-.6 1.3-1.1 1.8-.6.5-.6.2 0-.7.7-1 .5-1.3-.6-.8-.8.3-1.4 1.1-1.3 1.7.2.6-.4.9-1.2.6s-2.1.4-2.8 1.4c-.6 1.1-4.1 3.8-7.7 6s-12.9 7.8-20.7 12.3c-12.2 7.1-14 8.5-13.2 10.1.5.9 1.5 1.5 2.1 1.2.7-.2 10.3-2.9 21.3-5.9 11-3.1 20.9-5.7 22-5.9s2.7-.7 3.5-1 4.6-1.5 8.5-2.5c3.8-1.1 14-3.9 22.5-6.2 8.5-2.4 16.2-4.4 17-4.4.8-.1 2-.4 2.5-.8.5-.3 9.5-2.9 20-5.8 10.5-3 19.7-5.4 20.5-5.5s2.2-.5 3-.8c.8-.4 2.4-.8 3.5-1 1.1-.1 2.6-.6 3.2-1 .7-.4 1.6-.5 2-.2.5.3 1.3.1 1.8-.4s6.8-2.5 14-4.4c7.1-2 13.9-3.8 15-4s2.7-.7 3.5-1 16.1-4.7 34-9.6 39.1-10.8 47.2-13c8.2-2.3 15.6-4.3 16.5-4.4 1-.2 2.5-.7 3.3-1s23.8-6.8 51-14.3l49.5-13.7c-1-5.7-1.6-6.3-4-6.5-1.7-.2-5.7-1-9-1.8-3.3-.9-9.6-3.3-14-5.4-5.1-2.4-10-5.7-13.5-9.1-3-3-6.6-7.6-8-10.4-1.9-4.1-2.4-6.5-2.3-13 0-6.5.5-9.1 2.7-14 1.5-3.3 4.7-8.7 7-12 2.4-3.3 7.9-9.6 12.2-14 4.4-4.4 11.5-11.8 15.8-16.5 4.4-4.7 11.9-13.8 16.8-20.2 4.8-6.5 8.8-12 8.8-12.3s1.2-2.4 2.8-4.7c1.5-2.4 4.7-8.4 7.1-13.3s5.8-12.8 7.6-17.5 4.2-12.3 5.3-17 2.5-13 3.2-18.5c.8-7.4.8-12.7 0-20.5-.6-5.8-2-13.9-3.1-18s-4.1-11.8-6.7-17-7.4-12.9-10.7-16.9c-3.3-4.1-9.4-10.2-13.5-13.4-4.1-3.3-11.1-7.7-15.5-9.8-4.4-2.2-11.6-4.9-16-6-4.9-1.3-12.7-2.3-20-2.6-8.4-.4-15.4 0-23.5 1.1-6.3.9-15.8 2.8-21 4.2s-14 4.3-19.5 6.5-13.6 6.1-18 8.7-10.4 6.6-13.5 9c-3.6 2.8-5.6 3.9-5.9 3-.2-.7.4-4.2 1.3-7.8.8-3.6 2.5-11 3.6-16.5 1.2-5.5 3.7-17 5.6-25.5s3.6-16.8 3.9-18.5c.2-1.6 1.4-7.3 2.5-12.5 1.2-5.2 2.5-11.3 3-13.5s1.2-5.5 1.5-7.2L746 1c-82.9 0-93.1.3-93.4 1.3M1810 21.8c0 .4-1.8 8.8-4 18.7-2.1 9.9-4.4 20.5-5.1 23.5-.6 3-1.4 6.6-1.8 8l-.8 2.5-66.6 1c-6.5 29.4-9.4 42.9-10.7 49-1.2 6.1-3 14.5-3.9 18.7l-1.6 7.7c53.1.1 68.5.2 68.5.4 0 .1-.8 4.3-1.9 9.2-1 4.9-4.9 22.5-8.5 39-3.7 16.5-7.3 32.7-8.1 36s-4.4 19.5-8.2 36c-6.7 29.8-6.7 30.1-6.7 45-.1 13.8.2 15.6 2.7 22.5 1.5 4.1 4.4 9.9 6.4 12.9 2.1 2.9 6.7 7.6 10.3 10.2 3.6 2.7 9.2 6 12.5 7.3s9.4 3.2 13.5 4.1c6.5 1.5 14.8 1.9 61 2.3l53.5.4c1.8-7.5 3.3-14.2 4.5-19.7 1.1-5.5 2.5-11.8 3-14s1.9-8.5 3-14 2.5-11.8 3-14 .8-4.1.7-4.3c-.1-.1-14.4-.3-31.7-.5l-31.5-.2c-7.8-4.1-10.8-6.4-11.8-7.9-.9-1.4-2.2-4.5-2.9-6.8-.9-3.7-.7-6.2 1.5-17.3 1.5-7.1 3.6-17.3 4.7-22.5s3.4-15.8 5-23.5 4.3-20.5 6-28.5 4.5-20.8 6.1-28.5c1.7-7.7 3.4-16 4-18.5.5-2.5 1.3-6.2 1.7-8.2l.7-3.7c64.3-.1 83.1-.3 83.3-.4.1-.1.7-2.2 1.3-4.7s2.3-10.6 3.9-18 4-18.9 5.4-25.5 2.8-13 3.1-14.2l.5-2.3h-84c.8-3.5 3.5-16.3 6.5-30.7 3-14.5 5.5-26.5 5.5-26.8s-20.7-.5-46-.5-46 .3-46 .8" class="b"/><path fill-rule="evenodd" d="M436.1 19.7c-.8.2-1.4.8-1.3 1.1.1.4 27.3.6 60.4.4l60.3-.3c-1.1 4.3-3.3 14.4-5.5 25.1s-4.4 21.4-4.8 23.6c-.6 3.4-.5 4 .6 3 .7-.6 1.3-2.7 1.2-4.6 0-1.9.6-5.8 1.4-8.5.8-2.8 1.9-7.5 2.5-10.5.7-3 1.6-8.2 2.1-11.5.6-3.3 1.5-7.1 2.1-8.5.5-1.4.9-4.1.7-6l-.3-3.5c-91.5-.3-118.7-.1-119.5.2zm613.5 52.4c-6 1.1-15 3.1-20 4.5s-12.8 4.2-17.5 6.2-11.5 5.2-15.2 7.2c-3.7 1.9-10.9 6.4-16 10-5.1 3.5-14.3 11.4-20.3 17.5-6.1 6-13.7 14.8-17.1 19.5-3.3 4.7-7.6 11.2-9.5 14.5-2 3.3-5.2 9.4-7.1 13.5-2 4.1-4.3 9.1-5.1 11s-2.9 7.8-4.6 13c-1.8 5.2-3.6 10.8-4.1 12.5s-1.2 5-1.5 7.5c-.3 3 .3 1.5 2-4.5 1.4-4.9 4-13.1 5.7-18s4.5-12.2 6.3-16 5.4-10.8 8-15.5c2.7-4.7 7.1-11.7 9.9-15.5 2.7-3.8 7.7-10.1 11.1-13.9 3.3-3.8 9.6-10.1 14.1-14 4.4-3.9 12.1-9.8 17-13 4.9-3.3 13.4-8.1 18.9-10.7 5.5-2.7 14-6.1 19-7.8 5-1.6 13.5-3.9 19-5 5.5-1.2 16.1-2.6 23.5-3.3 10.4-.9 16.6-.9 27 0 7.4.7 17.5 2.1 22.5 3.2 5 1 12.5 3 16.8 4.4 4.2 1.4 11.4 4.5 16 6.7 4.5 2.3 10.9 5.9 14.2 8.2 3.3 2.2 8.9 6.6 12.5 9.7s9.1 9 12.2 13.1 8 11.7 10.7 16.9c2.8 5.2 5.1 9.2 5.1 8.8 0-.5-1.3-3.4-2.8-6.6-1.5-3.1-3.8-7.5-5.2-9.7-1.3-2.2-4.5-6.8-7.2-10.3-2.6-3.4-7.5-8.8-10.9-12-3.3-3.1-8.9-7.6-12.2-10-3.4-2.4-9.4-5.9-13.2-7.9-3.8-1.9-7.5-3.9-8-4.3s-5.3-2.2-10.5-3.9-14.2-4.1-20-5.3c-8.2-1.6-15-2.2-31.5-2.4-17.7-.3-22.7 0-32 1.7m315.5-1.6c-.8.2-5.5.9-10.5 1.5s-13 2.1-18 3.2-12.2 3.1-16 4.5c-3.8 1.3-11.5 4.6-17 7.2s-13.8 7.3-18.5 10.4-12.7 9.5-17.9 14.4c-5.2 4.8-11.8 11.7-14.6 15.3-2.9 3.6-7.7 10.6-10.7 15.5-3.1 4.9-6.5 11-7.6 13.5s-2.7 6.1-3.5 8-2.2 6-3.2 9c-.9 3-1.5 5.6-1.3 5.7.2.2 1.8-3.7 3.5-8.5 1.8-4.8 5.1-12.3 7.4-16.7 2.2-4.4 6.6-11.8 9.7-16.5 3.3-5 10.3-13.3 17.1-20.1 7.6-7.5 15-13.8 21.6-18.2 5.5-3.6 13.8-8.4 18.5-10.5 4.7-2.2 12.5-5.4 17.5-7.2 5-1.7 14.6-4.3 21.5-5.8 11.5-2.4 14.4-2.6 36.5-2.6 20.6-.1 25.7.2 36.3 2.2 6.7 1.2 16.4 3.6 21.5 5.3 5 1.7 13.5 5.3 18.7 8s12.4 7.3 15.9 10.2c3.5 2.8 8.6 7.9 11.3 11.2s6.7 9.6 8.9 14c2.1 4.4 4.9 11.2 6.1 15 1.6 5.4 2.2 11 2.8 24.5l.6 17.5c.3-26.6-.1-32.7-1.2-37-.8-3.3-2.4-8.7-3.5-12s-3.6-8.7-5.4-12-5.3-8.3-7.7-11c-2.4-2.8-5.2-6-6.3-7.1s-4.7-4.1-8-6.6c-3.3-2.6-10-6.7-15-9.1-5-2.5-13.5-5.9-19-7.5-5.5-1.7-12.9-3.6-16.5-4.2-3.6-.7-11.7-1.8-18-2.6s-16.7-1.4-23-1.3-12.2.3-13 .4M141.6 72.1c-4.9.4-12.1 1.4-16 2.3-3.8.8-10.4 2.6-14.5 3.9s-11.3 4.4-16 6.7-12.3 6.8-16.9 9.9-12.5 9.7-17.5 14.6c-5.1 4.9-11 11.2-13.3 14-2.2 2.7-7.1 9.5-10.8 15-3.8 5.5-9.2 15.2-12.2 21.5s-5.9 12.4-6.4 13.5c-.4 1.1-2.2 6.1-4 11-1.7 4.9-4.2 13.3-5.5 18.5-1.4 5.2-2.9 10.8-3.4 12.5s-1.2 5.7-1.4 9c-.5 5.9-.5 5.9.5 1.5.5-2.5 2.1-9.2 3.4-15 1.4-5.8 3.8-14.6 5.4-19.5s4.3-12.6 6.1-17c1.7-4.4 5.2-12.1 7.8-17 2.5-4.9 8-14.2 12.3-20.5s11.1-15.1 15.1-19.4c4-4.4 10.5-10.5 14.3-13.6 3.9-3.2 10.2-7.7 14-10.2 3.9-2.5 9.9-6 13.5-7.8s11-4.7 16.5-6.5 14.7-4 20.5-4.9 15.2-1.6 21-1.6 14.6.7 19.5 1.5c5 .9 11.9 2.5 15.5 3.6 3.6 1.2 9.4 3.7 13 5.5 3.6 1.9 9.6 5.8 13.5 8.7 3.8 2.8 9.2 8 12 11.3 2.7 3.4 7.1 9.9 9.7 14.5 2.9 5.1 4.9 7.8 5.2 6.9.3-.8 1.7-7.3 3.1-14.5s3.5-17.2 4.5-22.3l2-9.2h94c-1 4.2-.9 4.2 0 2.7.5-.9.8-2.2.5-2.7-.3-.6-17.2-1-47.5-1h-47c-1.5 3.5-2.4 7-3 10-.7 3-2.5 11.8-4.1 19.5s-3.1 14.1-3.4 14.2c-.3.2-2.4-2.9-4.7-6.9-2.4-4-8-11-12.8-15.8-4.7-4.7-10.5-10-13-11.7s-7.3-4.4-10.7-6.2c-3.5-1.7-10.7-4.2-16-5.7-5.4-1.4-14.7-2.9-20.8-3.4-6-.5-11.4-.9-12-.8-.5 0-5 .4-10 .9m1563 2c-4.4.4-10.9 1.3-14.5 2-3.6.6-10.5 2.5-15.5 4.1s-13.3 5.1-18.5 7.7-13.1 7.3-17.5 10.6c-4.4 3.2-10.6 8.5-13.7 11.7-5.1 5-5.8 5.5-5.9 3.5-.1-2.1-.1-2.1-.9.3-.4 1.4-.8 3.3-.9 4.2-.1 1.1 3.1-1.4 8.2-6.5 4.5-4.5 12-10.7 16.7-13.8s11.8-7.3 15.8-9.3c3.9-2 10.7-4.8 15-6.2 4.2-1.4 11.5-3.5 16.2-4.5 4.7-1.1 14.1-2.3 20.8-2.7l12.4-.7c-.9 3.9-2.5 11.8-4.2 20-1.7 8.3-3.9 19.1-5 24-1 4.9-2.9 13.7-4.1 19.5-1.1 5.8-2.2 10.9-2.4 11.5-.1.6-1.7 1.3-3.6 1.8-1.9.4-5.4.8-7.9.8s-6.5.4-9 .9c-2.9.5-.1.6 7.5.3 6.8-.3 12.5-1 13.2-1.7.7-.6 1.9-5 2.8-9.9.8-4.8 2-9.6 2.5-10.7s1-3.6 1-5.5.5-4.7 1.1-6.3c.6-1.5 1.4-5 1.9-7.7.4-2.8 1.2-7 1.8-9.5s1.8-7.9 2.7-12 1.7-9.5 1.8-12l.2-4.5c-7.7-.2-13.6.1-18 .6M383.1 78.7c4.7.2 11.9.2 16 0 4.1-.1.3-.3-8.5-.3s-12.2.2-7.5.3m214 0c3 .2 7.5.2 10 0s0-.3-5.5-.3-7.5.1-4.5.3m933.9 2c-.6 1.6-1.8 6.4-2.6 10.8s-1.6 8.2-1.8 8.5-.8 3.2-1.4 6.5c-.5 3.3-2.4 12.3-4 20-1.7 7.7-4.5 20.8-6.2 29-1.6 8.2-3.6 17.3-4.3 20s-2.1 8.2-2.9 12c-.9 3.8-1.8 8.3-2.1 10s-1.2 6.2-2 10c-.7 3.8-1.9 9-2.5 11.5s-1 5.2-1 6c0 1.3.1 1.3.9 0 .5-.8 1.1-3.1 1.4-5s1.2-6.7 2-10.5c.9-3.8 2.5-11.1 3.6-16 1-4.9 3.3-15.5 5-23.5s3.3-15.4 3.6-16.5c.4-1.1.8-3.1 1-4.5.1-1.4 1-5.9 1.9-10s2.5-11.6 3.6-16.5c1.2-4.9 3.5-16.2 5.3-25s3.6-16.6 3.9-17.3c.6-.9 10.9-1.2 46.7-1.2 43 0 46 .1 46.4 1.7q.5 1.9.3-.2c-.2-2-1.1-2-47-2.3l-46.7-.2zm-904.6 1c-.2 1.5-.7 4.5-1.2 6.7-.6 2.2-2.6 11.2-4.5 20-2 8.8-5.1 23.7-7.1 33-1.9 9.4-3.9 18.8-4.4 21s-1.6 7-2.5 10.5c-.8 3.6-3.1 14.2-5.1 23.5-2 9.4-4 19.3-4.6 22-.6 2.8-1.8 8-2.7 11.5-.9 3.6-2.1 6.9-2.6 7.4q-1.1.8.3.5c.7-.2 2.1-2.8 3.1-5.9.9-3 2.2-8.2 2.9-11.5s1.9-9.3 2.6-13.5c.8-4.1 2.5-12.9 3.9-19.5 1.5-6.6 3.1-13.5 3.8-15.5.6-1.9 1.7-6.6 2.5-10.5.7-3.8 1.8-9.5 2.3-12.7.6-3.2 1.4-6.7 2-7.8.5-1.1 1-3.1 1-4.5 0-1.3.6-4.8 1.4-7.7s2.4-9.8 3.6-15.3 2.5-12 3-14.5c.5-2.4 1.6-7.6 2.5-11.5.8-3.8 1.2-7.3.8-7.7-.5-.4-.9.5-1 2m-286.1 23c-.7 3.7-1.1 6.8-1 7 .2.1.9-2.4 1.7-5.5.7-3.2 1.2-6.3 1-7s-1 1.7-1.7 5.5m1280-.5c-.7 3.4-1.2 6.3-1 6.5.2.1.8-2.6 1.5-5.9s1.1-6.2 1-6.4-.8 2.4-1.5 5.8m-1278.8 35c-.4 1.2-.4 3 0 4 .5 1.6 3.1 1.7 33.6 1.7h33c-.9 6.1-.9 6.2-.1 4 .5-1.3.9-3 1-3.7.1-1-7.2-1.3-33.4-1.3h-33.5c.7-5.4.7-7 .4-7-.2 0-.7 1.1-1 2.3m166.6 5.5c3 .2 7.5.2 10 0s0-.4-5.5-.4-7.5.2-4.5.4m-15.5 2.8c-3.3 1.3-8.4 4.1-11.4 6.2s-7.5 6.1-10 9c-2.5 2.8-6.3 8-8.4 11.5-2.1 3.4-5 9.8-6.5 14.2-2.6 7.7-2.7 8.8-2.6 28 0 13.2.4 20.9 1.2 22.5 1.1 2.3 1.1 2.2.6-1.5-.3-2.2-.5-12.3-.5-22.5 0-16.2.2-19.2 2.1-24.5 1.1-3.3 2.8-7.8 3.7-10s3-5.6 4.5-7.7 2.8-4.1 2.8-4.5 3-3.7 6.8-7.3c3.7-3.5 7.6-7 8.7-7.7 1.1-.6 3.8-2 6-3 2.2-1.1 5.6-2.6 7.5-3.5s3-1.7 2.5-1.7c-.6 0-3.7 1.1-7 2.5m919.5 11.7c0 2.7-1 6.2-2.7 9.7-1.6 3-4.6 6.9-6.8 8.7s-8.7 5.3-14.5 7.8-11.3 4.5-12.3 4.5c-.9 0-3.4.6-5.5 1.4-2 .7-6.9 2.1-10.7 2.9-3.9.9-11.3 2.5-16.5 3.7-5.2 1.1-16.9 3.4-26 5.1s-21 4.4-26.5 6-12.3 3.7-15 4.6c-2.8.9-9.1 3.1-14 5-5 2-12.4 5.3-16.5 7.4-4.1 2.2-11.6 7-16.5 10.7s-11.5 9.7-14.5 13.4c-3 3.6-7.2 9.9-9.2 14-2 4-4.3 9.1-5.2 11.3s-2.2 7.4-3.1 11.5c-.8 4.2-1.7 9.8-2.1 12.5-.3 2.8-.1 8.6.5 13s1.6 8.5 2.1 9c.5.6.4-1.4-.2-4.5s-.8-10.2-.5-16.5c.3-6 1.3-13.9 2.3-17.5.9-3.5 3.3-10.1 5.4-14.5 2-4.4 5.7-10.7 8.2-14s6.9-8.2 9.9-10.9 9-7.2 13.4-10.1 11.6-7 16-9 10.9-4.8 14.5-6.1c3.6-1.4 12.8-4.3 20.5-6.5 7.7-2.1 27.5-6.7 44-10s35.4-7.6 42-9.5 15.4-5 19.5-7c4.1-1.9 9.4-5.1 11.7-6.9 2.4-1.9 5.2-5.4 6.4-7.7s2.4-6.8 2.6-10c.3-3.2.2-5.8-.1-5.8s-.6 2-.6 4.3m-201.3 26.7c.2 8 .6 15.2.7 16 .2.9.4-4.5.4-12 0-7.4-.3-14.6-.7-16-.4-1.3-.6 4.1-.4 12m101.4-8.7c-.1 1-.4 1.7-.9 1.6-.4-.1-1.4.1-2.2.5-.8.3-19.5.8-41.5.9l-40 .3c72.8.4 82.4.2 83.9-.8 1-.7 1.6-1.9 1.3-2.8-.4-1.1-.6-1.1-.6.3m289.1 25c-.7 3.5-1.1 6.3-1 6.5.2.1.8-2.5 1.5-5.8s1.1-6.2 1-6.4c-.1-.3-.8 2.3-1.5 5.7m-691.6 14.2c-.3 1.7-1 6-1.6 9.5-.5 3.6-.9 8.3-.9 10.5.1 3.4.3 3 .9-2 .4-3.3 1.3-9.1 1.9-12.9.6-3.9.9-7.2.6-7.5-.2-.3-.6.8-.9 2.4m590.1 11.2c-.3.5-1.3 4.2-2.2 8.3-.8 4.2-2.4 11.6-3.5 16.5-1.1 5-2.7 12.4-3.5 16.5-.8 4.2-2.2 10.2-3 13.5s-2.4 9.6-3.5 14c-1.2 4.4-2.5 10.3-3 13-.5 2.8-1.3 8.2-1.9 12-.6 3.9-1.9 10.2-2.8 14-.8 3.9-2.4 8.5-3.4 10.3-1.2 2-1.7 4.3-1.4 6 .3 1.5.1 3.4-.4 4.2-.6.9-1.2 1.3-1.5 1-.3-.2-.7-4.3-.8-9-.1-4.6.1-10.7.5-13.5.5-3.4.2-2.8-.9 2-.8 3.9-2.8 13.3-4.5 21-1.6 7.7-2.9 14.4-2.7 14.9.2.4.9-1.5 1.5-4.3.7-2.8 1.7-5.1 2.3-5.1.5 0 1-.6 1-1.5 0-.8.4-1.5 1-1.5.5 0 1.2.7 1.5 1.5.3.9.5 3.9.5 6.8-.1 2.9.1 5 .4 4.7.2-.2 1.4-4.8 2.5-10.2 1.2-5.4 3-13.9 4.1-19 1-5.1 3.1-14.7 4.5-21.3s2.8-12.9 3-14c.3-1.1.9-4 1.4-6.5.5-2.4 2.1-10.1 3.5-17 1.5-6.8 4.3-19.9 6.2-29 1.9-9 4.1-19.1 4.8-22.4.8-3.3 1.3-6.1 1.1-6.3-.1-.2-.4 0-.8.4M1.4 236.4c-.5 2.8-.8 14.3-.8 25.5 0 11.3.3 22.7.7 25.3.5 2.6 1.2 4.7 1.8 4.7s.6-1-.1-2.7c-.6-1.5-1.4-10.4-1.7-19.8-.3-10.7 0-20.6.7-26.8.7-5.4 1-10.1.7-10.5s-.9 1.6-1.3 4.3m904.2 12.8c-.4 4.5-.3 11.6.2 15.7 1 7.2 1 6.8 1.2-8.2 0-8.7-.1-15.8-.3-15.8-.3 0-.8 3.8-1.1 8.3m-449-.8c.8 3.9 2 9.1 2.6 11.5.7 2.5 3 9.3 5.1 15 2.2 5.8 6.3 15.3 9.2 21 2.9 5.8 8.1 15.2 11.7 20.9 3.5 5.6 10.1 15.1 14.6 21 4.6 5.8 12.7 15.1 18.1 20.6 8 8.2 9.7 10.4 9.1 12-.4 1.1-.8 2.6-.8 3.3-.1.8 1.1 1.2 3.4 1 3.1-.2 3.3-.1 1.7 1.1-1.6 1.3-1.6 1.4 0 .8 1-.4 2-.7 2.3-.7s.5-.6.5-1.5c0-.8-5.7-7.2-12.8-14.2-7-7.1-16.1-17.4-20.2-22.9-4.1-5.6-8.2-11.1-9-12.4-.8-1.2-2.3-3.3-3.3-4.6-.9-1.3-1.7-2.8-1.7-3.4 0-.5-.5-1-1-1-.6 0-1.3-1-1.6-2.2-.4-1.2-1.2-2.9-1.9-3.8-.7-.8-3.6-6.2-6.5-12-2.9-5.7-5.9-11.8-6.6-13.5-.7-1.6-1.9-4.8-2.7-7-.9-2.2-2.4-6.4-3.5-9.5-1.1-3-2.5-7-3-9-.6-1.9-1.6-6.2-2.2-9.5s-1.5-6.4-2-7c-.5-.5-.3 2.2.5 6m539.5 10c.1 6.1.5 13.3.9 16 .5 2.9.6-1.6.3-10.5-.3-8.5-.7-15.7-.9-16-.2-.2-.3 4.5-.3 10.5m117 3.3c-2.1.3-3.6 2.4-8.4 11.6-3.2 6.1-7.7 13.8-10 17.1s-5.3 7.3-6.7 8.9c-1.3 1.5-4.7 4.5-7.4 6.6-2.8 2.2-7.5 5.1-10.5 6.6-3 1.6-8.2 3.4-11.5 4.1s-8.7 1.3-12 1.3-8.9-.5-12.5-1.1-9-2.5-12-4.1-7.2-4.6-9.4-6.6c-2.1-2-5-5.5-6.4-7.7-1.5-2.2-3.9-7.3-5.4-11.5-1.6-4.1-2.6-5.9-2.2-4 .3 2 2.3 7.1 4.4 11.5 2.8 6 5.1 9.3 9.1 12.9 3 2.6 7.4 5.7 9.9 6.9s6.7 2.7 9.5 3.4c2.7.7 8.9 1.3 13.7 1.3 4.9 0 11.2-.5 14-1.1 2.9-.6 8.7-2.7 12.8-4.7 5-2.5 9.5-5.7 14-10.2 3.6-3.5 8.6-9.6 11.1-13.5 2.4-3.8 6.1-10.3 8-14.5 2-4.1 3.8-8.5 4-9.7.5-2.2.8-2.3 14.7-2.3 8.8 0 14.2-.3 14.2-1 0-.6-4.3-.9-11.3-.8-6.1.1-12.3.3-13.7.6m33.8.4c.1.5 8.4.9 18.4.9 10.1 0 17.9-.4 17.5-.8-.5-.4-8.8-.8-18.4-.9-9.7 0-17.5.3-17.5.8m43.9.5c7 .3 7.3.4 6.7 2.6-.4 1.9-.4 2 .5.5.6-1 .9-2.2.6-2.8-.3-.5-3.7-.9-7.8-.8l-7.2.2zm287 28.3c-.9 4.7-2.8 14.2-4.3 21-1.4 6.9-2.4 12.6-2.3 12.8.2.1.9-2.6 1.7-6 .7-3.5 1.7-7.2 2.2-8.3.4-1.1 1-3.8 1.3-6s1.2-7.3 2.1-11.5c.9-4.1 1.5-8.1 1.3-9-.2-.8-1.1 2.4-2 7m101.4 10.8c-.7 3.7-1.2 6.8-1 6.9s.9-2.7 1.6-6.3c.7-3.5 1.1-6.6 1-6.9-.2-.2-.9 2.7-1.6 6.3M6.1 308.2c-.1 1 1.3 5.1 2.9 9.2 1.7 4.2 3.3 7.3 3.5 7 .3-.2 0-1.5-.6-2.7-.7-1.2-2.3-5.2-3.5-8.8-1.3-3.5-2.3-5.7-2.3-4.7m1562.3 42.5c-1.3 5.4-2.5 11.3-2.9 13.2-.4 2-.4 3.3-.1 3 .3-.2 1.7-6 3.1-12.8 1.3-6.8 2.3-12.5 2.2-12.7s-1.1 4-2.3 9.3M25.8 346.4c1.1 1.7 4 4.8 6.4 7 3.6 3.4 3.5 3.1-1.1-2-3-3.3-5.9-6.4-6.4-7-.5-.5 0 .4 1.1 2m166.7 1.3c-1.7 1.5-2.6 2.4-2.1 2 .6-.4 1.4-.8 1.8-.8.5 0 .6 2.4.4 5.3-.3 2.9-.3 4.8-.1 4.2.3-.5 1.1-3.8 1.8-7.2s1.3-6.3 1.3-6.3c-.1 0-1.5 1.3-3.1 2.8m91.8 20.4c-.7 3.5-1.1 6.6-.8 6.8.2.3.9-2.2 1.6-5.5.6-3.3.9-6.3.8-6.8-.2-.4-.9 2-1.6 5.5" class="a"/><path fill-rule="evenodd" d="m555.5 21-.7 2.7c-.4 1.6-2.6 11.6-4.8 22.3s-4.4 21.4-4.8 23.6c-.4 2.3-.4 4 0 3.8.5-.2.7.8.3 5.1l39.5.3c21.7.1 40 .4 40.5.6.6.2.7 2 .4 4.2-.4 2.2-1.2 6.1-1.7 8.9-.6 2.7-2.4 11.1-4.1 18.5s-4.6 21.2-6.6 30.5c-1.9 9.3-3.9 18.8-4.4 21s-1.6 6.9-2.5 10.5c-.8 3.6-2.5 11-3.6 16.5-1.2 5.5-3.4 16.1-5 23.5-1.5 7.4-3.4 15.9-4.2 18.8-.9 3.7-1.7 5.2-2.8 5-.8-.2-1.5-1.4-1.6-2.8 0-1.4-.9-6.1-1.8-10.5-1-4.4-3.4-12.3-5.3-17.5-2-5.2-4.9-12.2-6.6-15.5-1.6-3.3-5.1-9.1-7.6-13-2.5-3.8-7.5-10-11.1-13.8-3.6-3.7-7.1-6.8-7.8-6.7-.6 0-1.4-.6-1.5-1.3-.2-.6-4.2-3.1-8.8-5.4s-10.8-4.6-13.7-5.2c-2.8-.6-8.7-1.1-13-1.1-4.2 0-10.4.7-13.7 1.6-3.3.8-8.7 3-12 4.7-3.3 1.8-9.1 6.3-13 10.2s-8.7 9.9-10.8 13.5-4.9 10.1-6.4 14.5c-2.2 6.7-2.7 10.3-3.1 22.5-.2 8 .1 17.7.7 21.5.5 3.9 1.3 8.4 1.6 10s1 5.5 1.6 8.5 1.8 8 2.6 11c.9 3 3.1 9.6 5 14.5s5.8 13.7 8.7 19.5 8.1 15.1 11.7 20.8c3.5 5.7 10.1 15.1 14.6 21 4.6 5.9 13.4 15.9 19.5 22.2 6.2 6.3 10.5 10.8 9.5 10s-1.8-1.1-1.8-.5c.1.6-.3 2.1-.7 3.4-.7 2.3-.5 2.4 2.9 2 2.1-.2 3.5-.1 3.3.3-.2.5-40.9.8-90.4.8s-90.2-.3-90.4-.8c-.2-.4.9-5.6 2.5-11.7 1.5-6.1 3.8-14.8 4.9-19.5 1.2-4.7 3.7-14.6 5.5-22s10.2-40.5 18.5-73.5 17.6-69.7 20.6-81.5c2.9-11.8 5.4-21.8 5.4-22.3 0-.4-15.1-.7-67-.7l.5-3.8c.3-2 2.2-11.1 4.1-20.2 2-9.1 4.8-21.9 8.9-40.5l68-.5 1.7-8.3c.9-4.5 3.1-14.7 4.8-22.7s3.5-17 4.1-20 1.3-5.8 1.5-6.3c.3-.4 27.4-.7 119.9-.7m522 50.1c4.4-.1 12.7.4 18.5.9 5.8.6 14.5 1.9 19.5 3 5 1 12.5 3 16.8 4.4 4.2 1.4 11.4 4.5 16 6.7 4.5 2.3 10.9 5.9 14.2 8.2 3.3 2.2 9.1 6.7 12.9 10.1s9.4 9.5 12.5 13.6 7.6 11.3 10 16 5.3 11 6.3 14 2.5 8.2 3.3 11.5 1.9 9.2 2.4 13c.6 3.8 1.1 13.5 1.2 21.5s-.1 14.9-.4 15.5-.8 4.2-1.2 8-.8 7.7-.9 8.5c-.2.8-.6 2.7-1 4.2-.3 1.6-.8 3.9-1.6 7.8H997l-.6 10.7c-.4 6-.4 14.7 0 19.5.3 4.9 1.1 10.9 1.7 13.5.6 2.7 2.8 8.4 4.9 12.8 2.8 6 5.1 9.2 9.1 12.8 3 2.7 7.4 5.8 9.9 7 2.5 1.1 6.8 2.7 9.5 3.4 2.8.7 8.9 1.3 13.8 1.3 4.8 0 11.1-.5 14-1.1 2.8-.6 8.6-2.7 12.7-4.7 5-2.5 9.5-5.8 14-10.2 3.6-3.6 8.6-9.6 11.1-13.5s6.1-10.4 8-14.5c2-4.1 3.9-8.5 4.3-9.8.6-2.1.9-2.2 14.6-2.2 8.7 0 14-.4 14-1s2-1 4.5-1 4.5.4 4.5 1 9.1 1 25.3 1c13.8 0 25.3.1 25.4.2.2.2-1.1 4.1-2.8 8.8s-5.5 13.4-8.4 19.5-7.7 14.6-10.6 19c-2.8 4.4-8.2 11.8-11.9 16.5s-9.6 11.2-13.1 14.4c-3.5 3.3-9.6 8.3-13.4 11.2s-11 7.6-16 10.6c-5 2.9-10.6 5.9-12.5 6.7-1.9.7-7.8 2.8-13 4.7s-12.7 4-16.5 4.9c-3.8.8-10.4 1.9-14.5 2.6-4.1.6-14.7 1.2-23.5 1.3-11.3.1-19.2-.3-27-1.6-6-1-12.1-2-13.5-2.2s-3.2-.6-4-.9-5.1-1.7-9.5-3.1-11.8-4.5-16.5-6.8c-4.7-2.4-11.2-6.1-14.5-8.2-3.3-2.2-10.3-8.3-15.5-13.5-5.3-5.3-11.6-12.7-14.1-16.6s-5.7-9.5-7.2-12.5c-1.4-3-3.8-8.6-5.3-12.5-1.4-3.9-2.8-7.9-3-9s-1.3-6.1-2.3-11c-1.7-7.6-1.9-12.3-1.7-30.5.1-11.8.8-24.7 1.5-28.5s2.2-11.1 3.3-16c1.2-4.9 3.9-14.4 6.1-21s5.4-15.2 7.2-19c1.7-3.8 5.4-10.8 8-15.5 2.7-4.7 7.1-11.7 9.9-15.5 2.7-3.8 7.7-10.1 11.1-13.9 3.3-3.8 9.6-10.1 14.1-14 4.4-3.9 12.1-9.8 17-13 4.9-3.3 13.4-8.1 18.9-10.7 5.5-2.7 14-6.1 19-7.8 5-1.6 13.5-3.9 19-5s13.8-2.5 18.5-2.9c4.7-.5 12.1-1 16.5-1.1m-31.5 71.6c-3 1.7-8.2 6-11.5 9.5s-7.7 8.6-9.7 11.3c-2 2.8-5.7 9.3-8.2 14.5s-4.3 9.8-3.9 10.2c.5.4 25.8.7 56.3.5l55.5-.2c.5-4.7.1-9.4-.5-13.5-.7-4.1-2.2-9.7-3.3-12.5-1.1-2.7-3.6-7-5.6-9.5s-4.3-5.2-5.1-6.1-3.5-2.9-6-4.4c-2.5-1.6-7.3-3.9-10.7-5.2-5.4-1.9-8.1-2.3-18-2.2-9.7 0-12.9.4-17.8 2.2-3.3 1.3-8.5 3.7-11.5 5.4m337.5-70.2c15.9.2 23.8.8 32.8 2.4 6.4 1.1 15.9 3.5 21 5.2 5 1.7 13.5 5.3 18.7 8s12.4 7.3 15.9 10.2c3.5 2.8 8.6 7.9 11.3 11.2s6.9 10.1 9.3 15 5.3 12.8 6.4 17.5c1.7 6.6 2.1 11.7 2.1 22.8 0 11.7-.5 16.8-2.9 29-1.7 8.1-5 24.4-7.5 36.2-2.4 11.8-6.3 30.3-8.6 41-2.2 10.7-4.5 21.5-5 24s-2.3 11-4 19-3.9 18.8-5 24c-1 5.2-3 14.9-4.5 21.5-1.4 6.6-2.7 13-3.5 16.5h-90l-1.2-2.5c-1.1-1.9-1-2.7 0-3.7.7-.8.9-2.1.5-3.3-.6-1.4-.4-1.8.5-1.2.8.5 1 .1.7-1.3-.3-1.1 0-2 .5-2s.9-1.3.8-3c-.2-1.6 0-3 .5-3 .4 0 .7-.3.7-.7 0-.5-.4-1.5-.9-2.3-.8-1.2-2.3-.6-8.8 3.7-4.3 2.9-8.3 5.6-8.8 6.1-.5.4-5.7 2.9-11.5 5.4-5.8 2.6-14.3 5.8-19 7.1-4.7 1.4-10.7 2.8-13.5 3.2-2.7.4-5.5 1.1-6 1.5s-9.1.6-19 .5-18.7-.4-19.5-.7-5.8-1.5-11-2.8c-5.2-1.2-13.3-4-18-6.3-4.7-2.2-11.4-6.4-15-9.2-3.6-2.9-8.1-7.2-10.1-9.6s-5-6.9-6.7-9.9-4.1-8-5.2-11-2.4-7.7-2.8-10.5c-.4-2.7-.7-10.6-.6-17.5 0-8.5.6-14.8 1.8-19.5 1-3.9 3.5-10.6 5.6-15 2-4.4 5.7-10.7 8.2-14s7-8.2 9.9-10.9c3-2.7 9-7.3 13.4-10.2s11.6-6.9 16-8.9 10.9-4.8 14.5-6.2c3.6-1.3 12.8-4.2 20.5-6.4s27.5-6.7 44-10c16.5-3.4 35.4-7.6 42-9.5s15.4-5.1 19.5-7c4.1-2 9.4-5.1 11.8-7 2.3-1.9 5.2-5.3 6.4-7.6 1.7-3.2 2.2-6 2.3-11.3 0-6-.4-7.6-2.7-11-1.5-2.2-5.1-5.4-8-7.2-2.9-1.7-8-3.8-11.3-4.7-3.3-.8-8.7-1.7-12-2.1s-9.6-.2-14 .5c-4.4.6-10.5 1.9-13.5 2.9s-7.3 2.7-9.5 3.9c-2.2 1.1-5 3-6.2 4.1-1.3 1.2-2.6 2.1-3 2.1-.5-.1-2.6 1.8-4.8 4.2-2.3 2.4-5.6 6.6-7.5 9.3-1.9 2.8-4.7 7.9-6.2 11.5s-2.8 6.1-2.8 5.5-.5-.4-1.2.3c-.9.9-10.7 1.2-82.8 1.2l.6-2.7c.3-1.6 2.3-7.3 4.5-12.8s6.4-14.1 9.3-19c3-4.9 8-12.4 11.3-16.5s9.8-11.1 14.4-15.5 12.7-10.9 17.9-14.4 12.4-7.8 16-9.6 11-4.9 16.5-7c5.5-2 14.7-4.8 20.5-6.1s13.7-2.8 17.5-3.3 16.5-.8 28-.6m-2.5 170.1c-2.5.9-7.9 2.4-12 3.6-4.1 1.1-9.5 2.3-12 2.8-2.5.4-7.7 1.6-11.5 2.5s-9.5 2.2-12.5 3c-3 .7-7.7 2.1-10.5 3-2.7.8-8.3 3.2-12.4 5.3-4.1 2-9.3 5.5-11.6 7.7-2.2 2.2-4.8 5.4-5.7 7s-2.2 4.6-2.9 6.5-1.2 6.9-1.2 11c0 4.9.5 8.5 1.5 10.5.9 1.6 3.1 4.4 5 6.1 1.8 1.8 5.1 4.1 7.3 5.2 2.2 1 7.8 2.5 12.5 3.1 6.5.9 10.7 1 18 .1 5.2-.7 12.7-2.2 16.5-3.5 3.8-1.2 10.2-3.7 14-5.5s9.8-5.2 13.3-7.6c4.9-3.5 6.4-5.2 7.2-8.1.6-2.1 1.7-6.9 2.4-10.8.8-3.9 2.4-11.3 3.6-16.5 1.1-5.2 2.8-13.1 3.7-17.5.8-4.4 1.7-9.2 1.9-10.7.2-1.6 0-2.8-.4-2.8s-2.7 1-5.2 2.1-6.5 2.7-9 3.5M153 73.1c6.3-.1 15.6.6 20.5 1.4 4.9.9 11.9 2.5 15.5 3.6 3.6 1.2 9.4 3.7 13 5.5 3.6 1.9 9.6 5.8 13.5 8.7 3.8 2.8 9.2 8 12 11.3 2.7 3.4 7.1 9.9 9.7 14.5 2.9 5.1 4.9 7.8 5.2 6.9.3-.8 1.7-7.3 3.1-14.5 1.4-7.1 3.5-17.2 6.5-31.5h47c44.3 0 47 .1 46.5 1.8-.3.9-1.2 4.9-2 8.7-.8 3.9-2.9 13.8-4.6 22-1.7 8.3-4 18.8-5 23.5-1.1 4.7-2.9 12.8-3.9 18-1.1 5.2-3.1 14.9-4.5 21.5s-3.9 18.3-5.6 26c-1.6 7.7-3.9 18.1-4.9 23s-3.3 15.3-4.9 23c-1.7 7.7-4.9 22.8-7.1 33.5-2.3 10.7-5.4 25.6-7 33s-5.3 24.3-8.1 37.5-5.3 24.3-5.5 24.8c-.2.4-20.9.7-45.9.7s-46.2-.2-47-.5-1.5-.9-1.5-1.5.5-.7 1.2-.2c.8.5 1.1-.1.7-2-.2-1.5-.1-2.8.4-2.8.4 0 1-1.9 1.3-4.2.3-2.4 1.3-7.7 2.2-11.9 1.5-6.7 1.5-7.5.2-6.5-.8.6-3.7 3-6.5 5.5-2.7 2.4-8.2 6.5-12 9.1s-10.3 6.4-14.2 8.4c-4 2-11.2 4.9-16 6.6-4.9 1.6-14.4 3.8-21.3 4.8s-15 1.7-18 1.6c-3-.2-7.7-.6-10.5-.9-2.7-.3-6.6-.7-8.5-1-1.9-.2-7.3-1.5-12-2.9-4.7-1.3-11.4-3.8-15-5.4s-10.1-5.3-14.5-8.3-10.2-7.9-13-10.9c-2.7-3-6-6.5-7.2-7.7C24 344 23 342.6 23 342s-.6-1.3-1.4-1.7c-.8-.5-1.5-1.2-1.6-1.8s-1.3-2.8-2.5-5c-1.3-2.2-4-7.8-6-12.5S7 309.1 6 305c-1.1-4.1-2.2-9.1-2.4-11-.3-1.9-1-6.4-1.5-10-.6-3.6-1.1-12.8-1.1-20.5s.7-18.9 1.5-25S4.4 225 5 222s2.1-9.8 3.5-15c1.3-5.2 3.5-12.9 4.9-17 1.3-4.1 3.8-11.1 5.6-15.5 1.7-4.4 5.2-12.1 7.8-17 2.5-4.9 8-14.2 12.3-20.5s11.1-15.1 15.1-19.4c4-4.4 10.5-10.5 14.3-13.6 3.8-3.2 10.4-7.9 14.5-10.6 4.1-2.6 11.1-6.5 15.5-8.5s11.8-4.9 16.5-6.3 12.6-3.2 17.5-4 14.2-1.5 20.5-1.5m1.5 67.8c-3.3 1-7.8 2.9-10 4.1s-6 3.8-8.5 5.8-6.2 5.4-8.3 7.6c-2.1 2.3-5.6 6.7-7.8 9.9-2.1 3.1-5.5 9.2-7.5 13.5-2 4.2-4.2 9.1-4.9 10.7-.7 1.7-1.7 4.1-2.2 5.5-.6 1.4-2 6.1-3.1 10.5-1.2 4.4-2.8 10.9-3.7 14.5-.8 3.6-2.2 11.7-3 18S94 255.3 94 258.8c0 3.4.7 10.4 1.6 15.5 1 5.4 3 12.1 4.9 16.2 1.8 3.9 5.2 9 7.6 11.4s6.7 5.6 9.4 7.2c2.8 1.6 7.5 3.7 10.5 4.6 3.9 1.2 8.9 1.7 17 1.7 8.6 0 12.8-.4 16.5-1.7 2.8-1 7.9-3.3 11.5-5 3.8-1.9 9.4-6 13.5-9.8 3.8-3.6 9.1-9.7 11.7-13.5s6.5-10.7 8.6-15.4c2.2-4.7 5.1-11.9 6.4-16 1.4-4.1 3.7-12.2 5.1-18s3.1-14 3.7-18.2c.5-4.3 1-13.3 1-20 0-6.8-.5-15.2-1.1-18.8s-2.4-9.6-4-13.5c-1.6-3.8-4.8-9.2-7.2-12-2.4-2.7-6.6-6.4-9.3-8.1s-7.1-3.8-9.9-4.7c-2.7-.8-9.3-1.7-14.5-2s-11.1-.3-13 0c-1.9.2-6.2 1.2-9.5 2.2m1558.8-65.8c8.5-.1 8.7-.1 8.2 2.2-.2 1.2-1.8 9-3.5 17.2-1.7 8.3-4 19.3-5.1 24.5s-2.9 13.4-4 18.3c-1 4.8-1.9 9.6-1.9 10.7s-.6 2.3-1.2 2.7c-.7.3-6 1-11.8 1.5s-15.7 2-22 3.4c-6.3 1.5-12.6 3.1-14 3.6s-2.7 1-3 1-3.7 1.1-7.5 2.5-11.4 4.6-16.8 7.2c-5.4 2.5-9.8 4.9-9.7 5.4 0 .4-.7.7-1.5.7s-4.5 2.4-14.9 10.5l-7.7 35c-4.3 19.3-8 36.1-8.3 37.5-.2 1.4-2.7 12.6-5.5 25s-5.9 26.6-7 31.5-3.2 14.2-4.6 20.5-3.7 16.9-5.1 23.5c-1.3 6.6-2.9 13-4.4 16.5l-45-.2c-28.1-.2-45.3-.7-46-1.3-.9-.7-.6-3.6.9-11 1.1-5.5 2.9-14.3 4-19.5s3.2-14.9 4.6-21.5c1.5-6.6 2.8-12.9 3-14 .3-1.1.9-4 1.4-6.5s2.1-10.1 3.5-17c1.5-6.9 4.3-19.9 6.2-29s3.9-18.1 4.4-20 1.1-5.1 1.3-7 .7-3.9 1-4.5.8-2.6 1.1-4.5 1.2-6.6 2-10.5c.9-3.8 2.5-11.1 3.6-16 1-4.9 3.3-15.5 5-23.5s3.3-15.4 3.6-16.5c.4-1.1.8-3.1 1-4.5.1-1.4 1-5.9 1.9-10s2.5-11.6 3.6-16.5c1.2-4.9 3.5-16.2 5.3-25s3.6-16.6 3.9-17.2c.6-1 10.9-1.3 92.7-1.3l-.6 4.3c-.3 2.3-1 5.8-1.5 7.7s-2 8.9-3.4 15.5-2.5 12.3-2.5 12.8c0 .4 3.7-3 8.3-7.5 4.5-4.6 12-10.8 16.7-13.9s11.9-7.4 16-9.4c4.1-2.1 11.3-5 16-6.5s12.1-3.5 16.5-4.3c4.4-.9 9.3-1.8 11-2s6.9-.5 11.8-.6" class="b"/><path d="M1070.5 134.7c2.8.2 6.8.2 9 0s0-.3-5-.3-6.8.1-4 .3M1016 177c-1.6 3.3-2.9 6.2-2.8 6.5.2.2 1.7-2.5 3.4-6 1.8-3.6 3-6.5 2.8-6.5s-1.7 2.7-3.4 6m108.4 3 .1 8.5c-88 0-113.5.3-113.5.8 0 .4 25.9.7 57.5.7h57.5c-.1-8.1-.5-12.3-.9-14.5-.7-3.2-.8-2.3-.7 4.5m-901.9 18.5c0 11.4.3 19 .7 16.9s.7-10.2.6-17.9c0-7.7-.3-15.3-.7-16.9-.3-1.6-.6 6.4-.6 17.9m-4.4 38.3c-1.1 4.8-3.2 12.3-4.7 16.7s-4.4 11.8-6.6 16.5c-2.1 4.7-6 11.6-8.6 15.4s-7.9 9.9-11.7 13.5c-4.1 3.8-9.7 7.9-13.5 9.8-3.6 1.7-8.8 4-11.5 5-3.7 1.3-7.9 1.7-16.5 1.7-8.1 0-13.1-.5-17-1.7-3-.9-7.8-3-10.5-4.6-2.8-1.5-7-4.9-9.5-7.5-2.5-2.5-6-7.7-7.8-11.4-1.7-3.7-2.9-5.6-2.6-4.2.4 1.4 1.9 5 3.4 8s5.1 7.6 7.9 10.3c2.8 2.6 7.9 6 11.3 7.7 3.5 1.6 8.8 3.4 11.8 4s9.1 1 13.5 1 10.9-.7 14.5-1.6c3.6-.8 9.6-3.2 13.4-5.2s10.1-6.6 14-10.2c3.8-3.6 9.5-10.3 12.5-15 3.1-4.7 7.8-13.7 10.3-20 2.6-6.3 5.8-15.5 7.2-20.5 1.3-4.9 2.6-10.7 3-12.7.3-2.1.4-3.8.1-3.8-.2 0-1.3 3.9-2.4 8.8M94.4 241c-.3 3-.4 6.2-.2 7 .3.8.8-1.4 1.2-4.9.5-3.5.6-6.6.2-7-.3-.3-.8 1.9-1.2 4.9m1301-1.7c-.1 1.7-.8 6.8-1.7 11.2s-2.6 12.3-3.7 17.5c-1.2 5.2-2.8 12.6-3.6 16.5-.7 3.9-1.7 8.4-2.2 10s-1.7 4.4-2.7 6l-1.8 3c4.9-4.7 5.7-7.5 9.2-24.5 2.2-10.7 4.9-24 6.1-29.5 1.1-5.5 2.2-10.8 2.3-11.7.1-1-.2-1.8-.8-1.8-.5 0-1 1.5-1.1 3.3M93.6 262c.2 6.3.8 12.9 1.4 14.5.8 2.5.9 2.2.4-2-.4-2.7-1-9.3-1.4-14.5l-.8-9.5zm1274 47.1c-4.4 2.2-11.9 5.3-16.5 6.9-4.7 1.5-12.8 3.4-18 4-7.3.9-11.6.8-18-.1-4.7-.6-10.3-2.1-12.5-3.1-2.2-1.1-5.7-3.7-7.8-5.7s-3.8-3-3.8-2.3c0 .6 2 2.8 4.3 4.7 2.3 2 6.7 4.6 9.8 5.7 4.7 1.9 7.4 2.2 19.5 2.2 12.2-.1 15.1-.4 23-2.8 4.9-1.5 12.6-4.4 17-6.5s8.9-4.6 10-5.5c1.1-.8 1.7-1.5 1.5-1.5-.3 0-4.1 1.8-8.5 4" class="a"/></svg>