<svg xmlns="http://www.w3.org/2000/svg" xml:space="preserve" width="26.43137mm" height="8.6750526mm" viewBox="0 0 26.43137 8.6750525"><defs><clipPath id="a"><path fill="#fff" d="M0 0h155v60H0z"/></clipPath></defs><g clip-path="url(#a)" style="fill:none" transform="matrix(.26458 0 0 .26458 -7.29 0)"><g fill="#fff"><path d="M64.95 16.393h8.07v-3.441c0-7.059-3.069-10.428-6.449-11.969-1.284-.586-3.37-.897-5.42-.983h-5.453v32.786h9.251c4.548-.002 8.235-3.672 8.235-8.198s-3.687-8.195-8.235-8.195M34.05 26.492c0 4.989-6.5 5.611-6.5 5.611v.685h23.71V0H27.55v.685s6.5.622 6.5 5.61v-.008ZM99.185 32.786V0h-4.262c-2.398 0-5.075.31-6.611 1.01-3.38 1.544-6.451 4.919-6.45 11.989v19.787h17.325zM127.449 32.786V32.1s-6.5-.622-6.5-5.61V6.286v.008c0-4.988 6.5-5.61 6.5-5.61V0h-10.765c-2.398 0-5.076.31-6.611 1.01-3.381 1.544-6.452 4.919-6.45 11.989v19.787z"/></g></g></svg>