<svg fill="white" xmlns="http://www.w3.org/2000/svg" version="1.0" viewBox="0 0 278.000000 321.000000"><path d="M181.7 6.4c-6.8 2.8-8 3.7-10.7 8.1-1.2 1.9-5 5-9 7.4-9.3 5.5-22.1 16.3-29.4 24.8-17.7 20.3-33.8 53-43.6 87.8-2.8 10-5.3 15.1-7.9 15.8-1.1.3-4.7-.9-8.4-2.9-12.4-6.4-22.9-7.9-33.6-4.5-15.2 4.7-28 18.2-33.1 34.9-2.5 7.9-3.7 24-2.1 26.9 1.1 2.2 10.3 5.9 12 4.9.5-.4 3.1-7 5.7-14.9 2.5-7.8 4.9-14.7 5.3-15.2 1-1.7 1.9 7.4 2 19.3.1 8.9.4 11.4 1.6 11.8.8.3 5.6-.4 10.7-1.5 16.5-3.7 54.8-10.8 54.8-10 0 1-2 1.8-54 22-2.5.9-4.6 2.4-4.8 3.3-.3 1.6 1.5 5.3 15 29.9 6.9 12.5 8.2 17.2 3.1 11.2-5.9-7.1-31.8-32.5-32.7-32.2-.6.2-2.8 3.6-4.9 7.5-3.8 7-3.8 7.1-2.1 10.4.9 1.8 4.1 6.5 7 10.5 13.3 17.5 34.2 26.5 54.2 23.3 15.4-2.5 24.4-7.2 40.5-21.5 6-5.2 11.4-9.5 12-9.5 2.9 0 6.1 3.7 10.3 12.3 11.5 23 23.8 36.7 40.6 45.3 17.6 8.9 38.8 8.3 55.3-1.7 16.6-10 32.9-35.8 37.9-60.1 2-9.7 2.1-29 .1-38.3-4-19-18.2-35.7-35.3-41.4-8.2-2.8-11.8-2.6-22.3 1-5.8 2-9.9 2.9-11.5 2.5-2.6-.7-5.7-6.6-23.1-43.6-11-23.3-16.2-39.5-18.3-56.2-2.6-20.6 5.1-42.8 16.9-48.7 2-1 6.2-2.6 9.3-3.6 6.6-2 9.7-4.8 10.5-9.7 1.2-7.7-6.7-10-18-5.4m-30.9 37.8c.5.7 1.2 8.3 1.5 16.8.7 21.2 4.4 39.4 11.5 57 1.7 4.1 7.1 16.3 12 27.1 10.5 22.7 13.4 30.7 13.6 37 .2 7.5-.7 7.9-15.5 7.9-10.5 0-14.1.4-19.5 2.2-6.4 2.1-6.7 2.1-8 .3-.7-1-2.1-4.3-3-7.4-3.3-11.6-9.4-19.6-18.6-24.6-4.1-2.2-7.1-3-13.7-3.5-11.6-.9-12.6-2.2-11.7-14.1 1.1-16.8 7.9-38.5 17.8-56.9 9.2-17.3 28.2-43 31.6-43 .5 0 1.4.6 2 1.2M56.9 157.3c8.8 6.4 5.8 9.6-4.4 4.8-6.6-3.1-8.2-4.8-7.1-7.7.9-2.4 5.9-1.1 11.5 2.9m59.9 19.3c6 5.1 5.3 9.4-1.4 9.4-5.8 0-11.6-6.8-9.4-11.1 1.7-3.1 6.1-2.4 10.8 1.7m113.8 4.3c3.9 2.4 7.4 9.4 7.4 14.9 0 6.2-2.1 6.5-7.8 1-2.6-2.5-6.4-5.5-8.4-6.7-4.8-2.9-5.7-5.6-2.7-8.7 2.8-2.9 7.2-3.1 11.5-.5"/></svg>