<svg xmlns="http://www.w3.org/2000/svg" width="1163" height="465" viewBox="0 0 2048 818"><path fill="#fff" d="m1291 18 3 1v4l-3 1-38 2-32 4-34 7-27 8-27 10-20 9-22 11-25 15-10 7 5 5 13 10 15 14 10 11 11 15 9 16 6 13 5 15 3 13 2 14v26l-4 24-5 17-9 21-10 17-10 14-11 13-18 18-14 11-21 14-25 13-23 9-21 6-18 4 6 13 2 9v16l-3 21-6 22-8 20-10 21-16 27-8 12-13 19-13 18-28 38-13 18-16 24-9 16-7 16-2 13 2 11 6 10 9 8 17 8 15 4 20 3h40l23-3 26-6 27-9 23-10 22-11 25-15 20-14 17-13 13-11 8-7 10-9 28-28 9-11 8-9 15-20 14-21 12-21 8-17 7-21 3-16v-14l-3-12-6-10-9-6-12-4-7-1h-15l-20 3-18 5-23 10-19 11-17 12-10 8-13 11-15 14-9 9-7 8-9 10-11 14-14 18-19 29-12 21-8 15-8 19-8 24-5-1 1-11 7-25 11-28 12-24 10-17 12-18 12-16 9-11 11-12 7-8 11-11 8-7 14-12 18-13 15-9 15-8 21-8 25-6 15-2h31l15 4 11 7 7 8 5 13 1 5v18l-4 20-7 20-12 25-10 17-13 19-13 17-9 11-10 11-7 8-26 26-8 7-13 11-17 13-17 12-19 12-25 14-19 9-26 10-23 7-29 6-16 2-18 1h-12l-24-2-19-4-16-6-11-6-10-9-7-8-6-12-3-12v-19l4-17 8-20 13-25 13-21 14-21 11-16 13-18 10-14 12-17 13-18 17-26 12-20 8-16 6-16 2-11-1-11-3-8h-10l-11 1h-33l-17-3-8-5-2-5 5-6 9-4 9-2h26l16 4 9 5 6 5 7-1 21-7 25-12 17-10 19-14 15-13 17-17 9-11 11-15 8-13 11-21 7-19 5-19 2-12v-31l-3-17-6-18-8-16-8-13-8-10-9-10-8-8-11-9-5-2-12 9-10 8-13 11-12 11-8 7-23 23-7 8-11 12-9 11-11 13-13 17-14 18-26 36-14 20-12 17-26 36-28 38-16 21-12 16-22 28-13 16-11 14-11 13-9 11-24 28-10 11-7 8-10 11-7 8-11 12-7 8-7 7-7 8-20 20-8 7-14 13-11 9-13 11-17 13-18 13-18 12-21 13-29 16-27 13-27 11-29 10-27 8-36 8-32 5-34 3-28 1h-13l-34-2-32-5-22-6-21-8-19-10-13-10-10-9-10-13-8-15-4-14-1-5v-19l4-17 8-16 9-11 7-7 15-10 14-6 17-4 11-1h11l18 2 13 4 9 6 4 6v6l-5 6-4 2h-11l-6-3-7-7-6-8-5-4-2-1H93l-15 3-14 5-12 7-10 9-6 7-8 16-3 13v17l4 16 5 12 7 11 11 13 11 9 14 9 16 8 16 6 22 6 27 4 14 1h38l32-2 32-4 31-6 30-8 31-11 23-10 28-14 17-10 22-14 18-13 13-10 16-13 14-12 10-9 12-11 15-14 18-18 7-8 8-8 7-8 11-12 7-8 24-28 9-11 14-17 11-14 14-17 33-42 28-36 42-55 12-16 16-21 13-17 10-13 13-16 11-14 12-14 9-11 14-15 7-8 8-8 7-8 18-18 8-7 7-7 8-7 14-12 16-13 16-12 17-12 14-9-5-4-13-8-17-9-29-12-30-10-36-9-38-7-39-5-38-3-19-1h-90l-44 3-43 5-37 6-39 8-39 10-42 13-30 11-29 12-28 13-26 13-23 13-26 16-16 11-14 10-17 13-17 14-11 10-8 7-29 29-9 11-8 9-15 20-12 18-10 17-10 19-10 25-6 20-4 20-1 8v31l3 17 6 18 9 17 11 14 8 8 13 10 16 9 18 8 24 7 23 4 19 2h46l24-3 29-6 30-9 28-11 20-9 26-13 24-14 19-12 19-13 19-14 16-13 13-11 10-9 8-7 8-8 8-7 14-15 12-13 11-14 12-15 12-18 9-15 9-17 8-21 4-15 1-7v-22l-4-14-6-10-5-6-13-9-12-5-14-4-20-3h-38l-26 3-24 5-27 8-22 9-25 12-21 12-15 10-14 10-13 10-14 12-8 7-15 14-11 11-7 8-9 10-11 14-13 17-11 17-10 19-3 7-4-1-1-5 8-17 12-19 10-14 10-13 11-13 18-20 19-19 8-7 13-11 17-13 17-12 25-15 23-12 26-11 25-8 26-6 26-4 13-1h33l17 2 17 4 17 7 13 9 10 10 8 13 5 15 2 14v14l-3 21-6 21-6 15-11 23-11 18-11 16-13 17-12 14-12 13-22 22-8 7-13 11-13 10-19 14-17 11-20 12-26 14-24 11-28 11-28 9-32 8-35 6-31 3h-52l-26-3-24-5-24-8-17-8-15-10-10-8-12-12-10-14-8-16-5-13-4-19-1-9v-25l4-27 7-25 10-25 12-24 12-20 14-20 11-14 11-13 7-8 11-12 20-20 8-7 15-13 14-11 20-15 30-20 25-15 18-10 27-14 31-14 36-14 35-12 35-10 37-9 42-8 41-6 40-4 32-2 29-1h39l50 2 45 4 37 5 36 7 32 8 36 12 20 8 27 13 15 9 5-1 23-13 25-13 25-11 30-11 27-8 36-8 27-4 22-2zM879 412l-13 4-3 3 1 4 8 4 17 2h13l21-2 9-2-5-5-11-5-12-3zm733 28h9l6 3 3 6-1 6-7 11-9 10-7 8-2 3 8 20 6 20 3 16 1 20-2 23-6 25-8 21-11 20-12 16-11 12-13 13-17 13-18 11-23 11-20 7 24-3 24-6 20-7 20-9 25-13 23-15 18-13 16-13 13-11 13-12 12-11 26-26 3-4h5l14-14 8-7 13-11 12-9 17-12 17-11 24-14 26-13 23-9 17-5 5-1h21l7 3 5 5 1 7-4 11-8 11-17 17-17 13-15 10-20 12-27 14-24 11-39 15-25 8-10 12-13 18-12 19-12 23-5 17v8l3 6 6 5 9 3 6 1h25l20-4 24-8 29-14 22-13 16-11 18-13 16-13 10-8 14-12 12-11 8-7 17-16 14-14 3 1-1 4-35 35-8 7-12 11-11 9-17 14-19 14-19 13-18 11-22 12-24 10-20 6-18 3h-26l-15-3-10-5-5-4-6-9-3-12v-17l4-20 6-16 10-19 11-16-5 4-7 8-8 7-7 7-8 7-13 11-13 10-18 13-19 12-18 10-16 8-19 8-21 7-26 6-16 2-35 1h-28l-16-3-12-5-12-7-7-7-5-8-3-9v-13l1-6-10 9-17 13-13 9-15 9-21 10-15 5-14 3-8 1h-15l-14-3-9-5-7-6-5-8-3-10v-20l4-17 8-19 8-15 13-19 9-11 11-13 25-25 11-9 16-13 19-13 17-11 21-12 23-12 25-10 20-5h23l9 4 6 5 4 8 1 4v17l-4 15-6 16-8 16-10 18-10 15-13 18-13 16-12 14-9 10h11l5 3 2 4-1 6-9 10-10 8-11 8-1 1v6l6 9 8 7 16 8 13 3h18l17-4 16-7 16-9 14-10 11-9 12-11 18-18 9-11 12-15 11-16 11-18 12-23 8-21 4-18v-25l-3-16-5-13-7 6-36 36-7 8-34 34-7 8-20 20-4-1 1-4 18-18 7-8 40-40 7-8 38-38-1-5-4-10v-11l4-9 9-8zm294 50-16 4-18 8-18 10-20 14-14 11-14 12-13 12-16 15-9 10-7 7-7 8-11 13 3 1 26-8 25-9 33-15 22-12 22-14 17-13 14-12 11-11 9-13 3-8-1-6-3-3-2-1zm-472 1-15 4-19 9-14 9-19 14-14 12-12 11-8 7-38 38-7 8-9 10-9 11-12 15-13 18-12 20-9 19-3 10v15l3 6 7 6 10 3h18l15-3 19-7 21-11 18-12 13-10 11-9 13-12 8-7 11-11 7-8 10-11 22-28 16-24 10-17 10-21-1-2-10-5-6-10v-12l4-8 8-6 7-2-2-4-6-4-3-1zm598-158h4l-2 4-19 14-14 10-18 13-17 12-18 13-9 6h-4l1-4 13-14 7-8 9-10 12-14 13-14 6-7z"/></svg>