<svg xmlns="http://www.w3.org/2000/svg" width="395.82422" height="138.45703" viewBox="0 0 1944 679.69815"><path fill="#fff" d="M1155-.156h18l10 3 10 6 8 8 8 16 2 12v11l-3 16-8 16-14 21-12 17-11 17-20 30-9 11-10 10-8 5-12 3h-8l-9-2-9-6-8-9-5-10-4-16-1-20-3-13-7-11-10-6-8-2h-22l-19 4-18 7-16 8-18 11-14 10-16 13-14 12-27 27-7 8-13 15-11 14-12 16-16 23-11 18-10 17-15 28-12 26-11 29-7 23-5 18 9-4 25-15 24-14 25-13 19-10 31-15 30-13 34-13 27-9 31-8 26-5 16-2h37l14 2 14 4 12 7 4-5 10-16 12-16 10-13 9-10 7-8 8-8 7-8 17-16 13-12 14-11 15-12 17-12 27-18 15-9 21-12 27-14 31-14 26-10 25-9 35-10 26-6 26-5 37-5 26-2h48l29 3 27 6 21 7 18 8 18 11 11 9 12 11 11 14 8 13 7 16 5 17 3 19v22l-3 14-7 19-10 19-11 17-14 19-11 13-22 24-10 10-8 7-12 11-11 9-15 12-17 12-18 12-18 11-18 10-16 8-19 9-29 11-23 7-30 7-27 4-10 1h-44l-20-3-17-6-10-7-7-7-6-11-3-13-1-11 3-16 7-16 10-18 13-19 8-11 12-15 9-11 12-13 25-25 14-11 10-7 15-8 13-3 16 2 10 5 5 4 7 10 3 11v9l-3 11-7 12-11 12-8 7-18 14-16 12-11 9-14 11-16 15-11 11-6 10v3l3 1h20l20-2 27-5 23-6 30-10 26-11 23-11 23-13 16-10 15-10 15-11 16-13 14-12 13-12 14-15 13-17 10-15 8-16 5-14 2-13-1-16-4-14-7-13-8-9-13-9-14-7-18-6-14-3-24-3-21-1h-13l-33 2-33 4-30 6-31 8-38 13-26 11-28 13-23 13-14 8-14 9-19 13-16 12-17 14-11 9-9 9-8 7-10 10-7 8-10 11-13 17-10 14-8 13-8 14-8 19-4 13-3 15v17l4 17 7 14 10 13 10 9 15 10 27 13 24 8 25 6 28 5 36 4 31 2h36l34-3 36-6 38-9 39-12 30-11 28-12 25-12 27-14 23-14 12-8 18-13 13-11 12-11 18-18 7-8 9-10 8-10 9-11 19-19 11-7 9-4 10-2h19l19 3 15 6 13 9 10 10 8 14 4 11 1 6v12l-4 16-8 16-6 10-9 12-12 14-16 16-8 7-13 11-19 14-30 20-29 17-29 15-23 11-36 15-36 13-39 12-40 10-40 8-41 6-42 4-17 1h-67l-37-3-35-5-29-6-30-8-31-11-24-11-17-9-14-9-16-12-11-10-7-6-7-8-11-14-8-13-7-14-9-27v-3l-9 3-13 2h-36l-26-1h-42l-21 2-24 4-30 8-27 10-28 13-24 13-19 12-18 12-19 14-11 9-14 12-12 11-44 44-14 11-16 8-13 3h-17l-12-3-10-5-8-7-7-11-4-11-2-11v-16l3-20 6-22 11-28 11-24 1-3-66-8-50-5-43-3-22-3-16-4-14-7-7-8-3-7-1-5v-13l4-10 10-10 12-7 10-4 20-5 17-2 6-4 9-10 13-17 10-15 12-22 10-21 10-26 9-29 7-30 6-35 3-22h-21l-12-3-9-7-6-9-3-12 1-11 4-11 7-8 10-6 9-3 19-2 25-1 41-4 47-7 27-4h10l10 3 6 4 8 9 4 10 2 11-1 13-4 11-7 10-9 8-11 5-10 2-46 1-16 1-10 16-12 23-8 19-14 41-12 30-13 30-16 35-11 22-9 19 39 4 31 5 21 6 13 7 10 8 2 2 8-14 18-34 14-24 9-16 14-23 22-33 13-18 13-16 13-15 7-7 7-8 10-10 8-7 8-8 8-7 28-24 14-11 21-16 33-22 25-15 25-13 28-11 19-5 21-3h17l21 3 14 5 10 6 8 6 2-3 9-21 11-19 9-12 9-10 12-9 12-5z" style="fill:#fff;fill-opacity:1"/><path fill="#fff" d="M31 68.844h16l25 5 25 9 35 14 30 11 28 8 23 5 31 4 16 1h24l24-2 29-5 20-5 19-6 22-8 25-11 21-10h14l10 5 7 8 4 10v10l-4 9-7 8-10 6-25 14-22 14-15 10-17 12-16 12-13 10-11 9-26 22-13 12-5 5-1 4 32-7 26-6 14-2h20l14 3 12 6 7 6 7 10 4 11 1 12-3 14-5 10-11 12-9 6-10 4-10 2h-10l-19-4-22-7-24-5-27-2h-23l-27 1-11 12-9 12-12 15-26 36-4 6v2l41 8 29 8 25 9 28 13 18 10 27 18 17 12 19 14 16 12 14 11 10 8 13 11 11 9 15 14 22 22 10 13 8 13 3 8v14l-4 16-7 12-8 8-10 6-14 4-7 1h-9l-16-4-16-8-11-7-19-14-10-9-11-9-11-10-11-9-15-12-20-15-18-13-24-16-21-13-18-10-22-11-25-9-15-3h-25l-14 3-17 7-16 7-10 2-17 1-11-2-9-4-9-7-7-10-4-11-1-4v-13l4-15 8-16 8-10 10-11 11-9 17-13 14-12 13-11 16-15 28-28 3-7h-26l-14-4-11-7-8-9-5-12v-12l4-11 7-8 9-6 10-3 6-1h32l46 5 9 1h9l65-65 1-3-50-6-44-7-34-7-22-6-13-4-4 13-7 14-10 11-10 6-7 2-13 1-15-2-11-6-11-11-8-14-8-20-9-29-3-14v-20l4-11 7-8 9-5z" style="fill:#fff;fill-opacity:1"/></svg>