<svg xmlns="http://www.w3.org/2000/svg" viewBox="0 0 406.8026 406.9475"><path fill="#fff" transform="rotate(-90 203.47375 203.40130)" d="M145.778 406.803c-.517-.284-1.005-.704-1.558-.825-1.751-.384-3.515-.802-5.295-.942-4.752-.375-8.297-3.06-11.935-5.753a33.084 33.084 0 0 1-8.269-8.836c-1.005-1.57-1.83-3.26-2.892-4.787-2.921-4.204-5.442-8.652-6.758-13.581a75.683 75.683 0 0 1-2.263-12.79c-.512-5.781-.745-11.614-.64-17.416.072-3.93.903-7.848 1.451-11.764.295-2.11.562-4.241 1.1-6.296 1.232-4.708 2.32-9.49 4.037-14.026 1.63-4.305 3.749-8.475 6.097-12.442 1.823-3.08 3.962-6.034 6.965-8.255 1.757-1.3 3.056-3.211 4.794-4.545 3.197-2.453 6.795-4.1 10.78-5.017 3.863-.888 7.709-2.128 11.68-1.642 5.312.65 10.881.6 15.768 2.927 4.19 1.994 8.475 3.97 11.71 7.725 3.036 3.522 6.85 6.315 9.645 10.157 2.65 3.642 4.133 7.706 5.556 11.868 1.325 3.878 2.378 7.815 2.953 11.87.2 1.421.175 2.873.359 4.297 1.137 8.825 1.118 17.698.778 26.549-.185 4.825-.51 9.84-1.99 14.37-1.708 5.227-3.234 10.651-6.371 15.37-1.374 2.067-2.256 4.454-3.47 6.635-.525.943-1.197 1.886-2.02 2.567-3.938 3.258-7.806 6.637-11.998 9.541-2.185 1.514-5.002 2.102-7.506 3.172-1.195.51-2.705.482-3.428 1.869h-17.28Zm20.312-63.893c-.346-2.958-.445-6.326-1.22-9.53-.493-2.038-1.528-4.514-3.129-5.6-3.756-2.55-8.049-4.286-12.815-2.99-2.29.623-4.415 1.751-5.615 3.903-1.99 3.567-3.036 7.486-3.045 11.542-.011 4.534.29 9.075.637 13.6.189 2.462 1.666 4.493 3.591 5.814 2.133 1.464 4.643 2.24 7.384 2.065 2.994-.19 5.542-1.4 8.174-2.71 2.924-1.456 4.865-3.372 5.174-6.701.279-2.997.552-5.995.864-9.393ZM246.098 406.803c-.442-.27-.87-.744-1.329-.775-4.278-.285-8.039-2.254-11.51-4.339-3.751-2.254-6.847-5.576-10.34-8.288-5.27-4.092-8.633-9.517-11.211-15.52-.496-1.154-.731-2.417-1.184-3.593-1.394-3.62-2.467-7.372-2.66-11.21-.544-10.837-1.988-21.663-1.012-32.533.39-4.341.962-8.718 2.035-12.93.917-3.601 2.566-7.036 4.078-10.462 2.053-4.651 4.064-9.375 7.52-13.21 4.11-4.56 8.57-8.703 14.462-10.954 2.802-1.071 5.57-2.236 8.322-3.429 3.119-1.352 6.422-1.146 9.648-1.012 4.201.175 8.413.592 12.565 1.252 2.079.33 4.08 1.222 6.057 2.178 5.347 2.587 10.147 5.867 13.793 10.525 2.673 3.414 4.817 7.24 7.242 10.851 2.814 4.192 4.545 8.855 5.95 13.648.556 1.896.887 3.865 1.236 5.816 1.4 7.831 1.6 15.758.782 23.612-.63 6.04-2.107 12.003-3.424 17.953-.818 3.697-1.709 7.441-3.156 10.92a135.667 135.667 0 0 1-7.304 14.928c-1.259 2.214-3.528 3.854-5.352 5.743-1.475 1.528-3.196 2.878-4.4 4.594-1.748 2.496-4.112 3.686-6.915 4.432-1.76.469-3.45 1.193-5.173 1.803h-18.72Zm-9.943-60.959h-.087c0 2.64-.12 5.286.035 7.916.15 2.512.454 5.033.947 7.5.288 1.439 1.09 2.773 1.643 4.163 1.611 4.06 3.894 7.61 7.685 9.975 1.492.93 3 2.3 4.608 2.476 2.938.32 5.848.68 8.844-1.16 4.647-2.853 7.691-6.964 9.933-11.537 1.488-3.034 2.015-6.752 2.144-10.194.272-7.265.21-14.56-.151-21.82-.142-2.841.033-5.89-1.572-8.573-1.543-2.58-2.907-5.267-4.368-7.897-2.808-5.056-10.818-7.527-16.179-5.185-3.549 1.55-6.149 3.735-8.088 7.269-3.352 6.108-5.486 12.395-5.4 19.389.033 2.559.006 5.119.006 7.678ZM159.69 66.314c0-3.837-.132-7.68.04-11.51.145-3.253.259-6.59 1.072-9.713 1.176-4.516 2.815-8.933 4.55-13.276 1.361-3.409 2.945-6.773 4.829-9.92 2.682-4.48 6.521-8.03 10.752-11 2.773-1.947 6.107-3.076 8.982-4.899 3.895-2.469 8.279-3.132 12.623-4.044.155-.033.321-.066.476-.046 3.758.486 7.524.93 11.27 1.496 1.473.222 2.952.59 4.347 1.11 4.609 1.714 8.896 4.014 12.952 6.84 5.7 3.972 9.31 9.616 13.108 15.203 3.231 4.754 4.536 10.216 6.332 15.496 2.578 7.58 2.943 15.505 2.44 23.375-.469 7.356-1.197 14.744-3.36 21.873-1.35 4.446-2.055 9.24-4.215 13.252-3.232 6.004-4.827 12.935-9.754 17.998-1.9 1.952-4.017 3.697-5.861 5.696-3.385 3.668-7.822 4.891-12.471 5.74-2.79.508-5.592 1.59-8.352 1.48-5.283-.213-10.61-.75-15.785-1.807-3.834-.783-7.212-2.875-10.124-5.772-3.352-3.334-7.38-6.002-10.62-9.428-2.697-2.854-4.937-6.235-6.907-9.655-2.171-3.77-3.014-8.084-4.153-12.29-2.338-8.631-2.264-17.406-2.172-26.198Zm34.06 1.13h.093c0 2.718-.096 5.44.022 8.152.19 4.329 1.112 8.456 4.503 11.514 2.136 1.927 3.9 4.696 7.489 3.93 3.323-.709 6.319-2.079 8.806-4.421.496-.467.865-1.123 1.142-1.757 1.18-2.702 2.1-5.47 2.046-8.482a26.276 26.276 0 0 1 .167-3.593c.86-7.157 1.025-14.299-.214-21.438-.767-4.425-4.163-7.812-8.182-8.283-5.77-.677-11.586 2.863-13.88 7.775-1.106 2.37-1.63 5.11-1.92 7.737-.32 2.922-.073 5.908-.073 8.866ZM129.885 61.053c.195.52.218.87.368.938 2.836 1.275 4.76 3.798 7.592 5.208 4.77 2.377 8.429 6.154 10.875 10.997 1.114 2.204 2.394 4.325 3.463 6.548.576 1.197 1.049 2.501 1.252 3.806.596 3.82 1.885 7.58.87 11.56-.37 1.445-.204 3.02-.35 4.53-.393 4.08-1.829 7.898-3.977 11.262-1.725 2.704-4.27 4.894-6.501 7.265-4.274 4.541-10.046 6.409-15.658 8.436-2.263.817-4.808.846-7.222 1.251-10.318 1.732-20.707.836-31.064.72-2.947-.032-5.87-1.09-8.831-1.464-2.126-.268-4.297-.192-6.449-.247-2.28-.059-2.47-.134-2.461-2.473.057-15.03-.409-30.091.407-45.081.88-16.14.118-32.249.402-48.368.175-9.911.055-19.827.109-29.74.016-2.972.407-3.235 3.292-3.467 10.991-.883 22.004-1.381 33.013-.83 4.529.227 9.29.533 13.373 2.708 5.186 2.763 11.021 4.501 15.354 8.651 1.75 1.676 2.92 4.027 4.108 6.205 3.736 6.849 3.405 14.114 2.298 21.556-.732 4.921-2.983 9.158-5.467 13.182-1.418 2.296-4.247 3.734-6.484 5.503-.662.524-1.47.863-2.311 1.344ZM111.073 71.68v-.028c-1.519 0-3.038.037-4.556-.008-2.664-.08-3.487.799-3.504 3.315-.013 1.838.015 3.676-.005 5.513-.055 5.195-.056 10.392-.21 15.584-.157 5.319-.503 10.632-.695 15.95-.054 1.471.843 2.099 2.316 2.073 1.193-.02 2.42-.03 3.58.213 4.49.943 8.96 1.292 13.412-.117a54.596 54.596 0 0 0 4.448-1.642c3.576-1.484 6.635-3.686 8.48-7.146.987-1.85 1.559-3.935 2.2-5.951.562-1.767 1.254-3.568 1.358-5.384.144-2.53.107-4.973-1.083-7.547-2.078-4.494-5.018-8.126-9.043-10.7-2.372-1.519-5.453-1.88-8.049-3.112-2.134-1.014-4.281-.99-6.49-1.012-.72-.008-1.44-.001-2.16-.001Zm-10.26-27.958c4.47 1.57 8.703 1.33 12.84-.593 1.12-.52 2.48-.79 3.314-1.602 3.185-3.107 4.1-7.06 3.946-11.418-.114-3.215-1.75-5.43-4.027-7.424-1.646-1.44-3.69-1.734-5.671-2.14-2.84-.58-5.707-1.144-8.59-1.378-2.103-.17-2.949.748-2.877 2.893.238 7.146.606 14.288.93 21.431.003.07.077.137.135.23ZM28.89 189.324c-.118.817-.346 1.634-.339 2.45.056 5.997-.237 12.039.418 17.974.319 2.893.213 5.563.015 8.412-.46 6.613-.38 13.267-.41 19.904-.008 1.676-.455 3.54 1.167 4.917.27.23.217.906.218 1.377.012 7.594.008 15.19.008 22.789-1.412 1.154-2.835 1.334-4.63.85-1.577-.424-3.332-.229-5.01-.233-6.394-.02-12.789-.008-19.624-.008v-3.161c.001-25.353.038-50.705-.029-76.058-.012-4.603-.985-9.255-.572-13.798.783-8.618.504-17.222.57-25.833.011-1.637.58-2.257 2.245-2.236 6.155.076 12.313.051 18.47.059 2.218.003 3.694.709 4.84 2.955 1.465 2.869 3.8 5.279 5.585 8.002 2.99 4.564 5.826 9.228 8.753 13.834 2.575 4.052 5.148 8.107 7.794 12.114 2.608 3.95 5.335 7.823 7.955 11.766 2.458 3.7 4.795 7.481 7.277 11.165 3.028 4.497 6.166 8.92 9.226 13.396.962 1.408 1.781 2.914 2.74 4.324a146.739 146.739 0 0 0 3.879 5.406c.2.268.675.33 1.4.657V146.53c1.186 0 2.036-.013 2.886.003 2.958.053 5.916.158 8.874.166 3.19.01 3.356.117 3.328 3.41-.055 6.473-.224 12.947-.193 19.42.051 11.115.185 22.231.353 33.346.09 5.98.502 11.958.448 17.935-.067 7.42-.572 14.834-.693 22.254-.122 7.516-.005 15.035 0 22.553.001.551-.047 1.103-.086 1.933-1.036.07-2.031.188-3.028.197-2.72.022-5.445.103-8.155-.067-.898-.056-2.08-.572-2.576-1.272-4.261-6.02-8.84-11.817-12.225-18.446-1.232-2.412-3.453-4.301-5.08-6.533-1.884-2.586-3.905-5.14-5.323-7.98-1.32-2.644-3.279-4.66-5.48-6.263-1.75-1.273-2.814-2.872-3.878-4.536-2.056-3.215-4.074-6.469-5.858-9.839-2.698-5.096-6.364-9.553-9.272-14.5-1.588-2.699-3.07-5.46-4.617-8.183-.184-.324-.482-.584-.727-.874l-.644.07ZM194.578 161.844c-2.958.326-5.701.809-8.457.893-5.194.158-10.399.227-15.591.07-4.768-.145-9.729.086-14.23-1.18-4.412-1.239-8.674-.313-13.236-1.12-.141 1.278-.357 2.35-.362 3.423-.024 5.438.046 10.878-.006 16.316-.015 1.659-.464 3.318-.44 4.972.027 1.798.374 3.59.584 5.408.607.098.991.183 1.38.218 10.983.987 21.994.9 33.004.839 3.09-.018 3.354.243 3.438 3.407.074 2.798.127 5.598.296 8.39.1 1.654-.503 2.29-2.18 2.245-2.717-.073-5.444-.077-8.156.078-4.214.241-8.463.366-12.615 1.048-4.285.703-8.49 1.84-12.883 1.864-1.455.008-2.32 1.319-2.339 3.24-.048 4.878.013 9.759-.098 14.636-.115 5.095-.416 10.185-.563 15.28-.082 2.84-.014 5.684-.014 8.567.189.114.376.315.582.337 5.77.616 11.53 1.6 17.36.841 3.6-.468 7.183-1.07 10.773-1.608.158-.024.319-.031.478-.038 8.197-.34 16.393-.682 24.59-1.01 1.15-.046 2.287-.057 2.366 1.598.247 5.173.538 10.344.795 15.517.02.385-.093.776-.175 1.4h-93.84c-.273-2.192-.78-4.446-.796-6.703-.085-11.834-.145-23.671-.02-35.505.108-10.212.447-20.423.755-30.632.065-2.14.55-4.268.63-6.41.047-1.237-.426-2.486-.491-3.738-.155-2.954-.273-5.914-.285-8.871-.034-8.879-.017-17.757-.008-26.636.003-3.083.132-3.187 3.294-3.167 5.359.033 10.719 0 16.076.111 3.819.08 7.662.743 11.445.465 18.368-1.347 36.752-.167 55.122-.61 3.697-.088 3.996.452 3.856 3.838-.164 3.982-.038 7.977-.038 12.227ZM375.067 405.769c-.848-1.149-1.67-2.17-2.394-3.259-1.712-2.576-3.304-5.235-5.096-7.754-.75-1.054-2.022-1.727-2.814-2.76-3.683-4.805-7.176-9.76-10.942-14.497-2.893-3.64-6.09-7.037-9.157-10.54-.047-.054-.181-.046-.21-.102-2.656-5.102-7.289-2.768-11.492-3.385-.413 13.715 1.797 26.992 1.064 40.813-4.573-.395-8.905-.913-13.25-1.104-4.24-.187-8.494-.041-12.905-.041 0-2.222-.006-4.055 0-5.887.066-18.305.156-36.61.195-54.915.03-14.391.065-28.782-.04-43.172-.035-4.681-.574-9.356-.75-14.038-.108-2.896 1.306-4.014 4.186-4.582 7.37-1.454 14.798-.77 22.2-.813 3.074-.017 6.343.097 9.185 1.105 3.991 1.415 8.044 1.743 12.131 2.359 2.801.422 5.489 1.712 8.175 2.75 3.606 1.391 6.811 3.402 9.276 6.47 1.297 1.614 2.492 3.372 4.042 4.708 2.106 1.816 3.765 3.91 4.887 6.386 1.54 3.398 3.424 6.679 3.643 10.568.137 2.441.73 4.86.812 7.3.176 5.137-1.176 9.968-3.369 14.587-.904 1.906-1.711 3.858-2.627 5.757-1.042 2.163-2.985 3.501-4.749 4.993-1.366 1.155-2.751 2.288-4.118 3.443-2.044 1.727-4.048 3.503-6.13 5.182-1.232.994-1.549 1.982-.706 3.422 1.752 2.99 3.482 5.999 5.062 9.081 1.71 3.335 3.054 6.87 4.907 10.118 1.56 2.732 3.675 5.141 5.444 7.761 2.355 3.488 4.622 7.036 6.906 10.57.565.875.404 1.595-.49 2.247-2.422 1.766-4.757 3.651-7.205 5.378-1.003.707-2.207 1.127-3.67 1.851Zm-41.204-81.295.236.021c0 2.316.005 4.63-.002 6.946-.004 1.228.386 2.308 1.72 2.418 4.116.338 8.141.061 12.05-1.586 2.228-.94 3.41-2.718 4.867-4.422 2.389-2.794 3.56-9.096 1.851-12.39-1.228-2.367-2.922-4.393-5.356-5.63-1.873-.95-3.73-2.063-5.73-2.604-2.412-.653-4.958-.867-7.463-1.095-1.215-.11-1.776.68-1.625 1.972.183 1.572.422 3.166.339 4.735-.205 3.883-.58 7.757-.887 11.635ZM219.63 146.771c4.16 0 8.32.075 12.477-.034 1.864-.049 3.3.682 4.329 2.02 3.181 4.134 6.353 8.285 9.303 12.586 1.767 2.576 3.154 5.42 4.634 8.185 2.344 4.383 5.1 8.467 8.421 12.174.514.573.854 1.31 1.236 1.992.573 1.021 1.168 1.106 1.95.188 2.718-3.192 5.63-6.237 8.142-9.582 2.1-2.796 3.828-5.887 5.564-8.936 1.78-3.122 3.322-6.379 5.056-9.528a126.977 126.977 0 0 1 4.065-6.823c1.026-1.615 2.785-2.136 4.518-2.17 5.674-.111 11.353-.088 17.03-.027 1.001.01 2.067.303 2.982.728 1.234.574 1.427 1.718 1.196 3.015-.621 3.497-2.198 6.514-4.328 9.323-1.582 2.086-2.988 4.305-4.46 6.474-2.496 3.68-4.678 7.626-7.545 10.989-4.385 5.145-7.11 11.333-11.195 16.65-2.737 3.562-5.096 7.412-7.703 11.077-1.721 2.419-1.823 2.597.203 4.978 2.152 2.53 4.492 4.904 6.588 7.478 2.533 3.113 5.135 6.213 7.282 9.589 3.755 5.906 8.22 11.228 12.698 16.561 3.136 3.736 6.522 7.314 9.22 11.349 2.397 3.585 5.511 6.449 8.185 9.733.499.613.7 1.47 1.037 2.215-.794.217-1.587.616-2.383.623-6.318.05-12.637.017-18.955.03-3.458.007-6.259-1.263-8.224-4.165-2.315-3.419-4.506-6.927-6.944-10.255-1.535-2.096-3.491-3.878-5.14-5.899-2.498-3.064-4.858-6.24-7.35-9.31-.761-.936-1.798-1.643-2.65-2.512-1.284-1.306-2.572-2.614-3.755-4.01-1.053-1.24-1.862-.885-2.628.213-.717 1.028-1.277 2.179-2.073 3.137-4.193 5.043-8.481 10.006-12.652 15.067-3.196 3.88-6.274 7.858-9.384 11.808-.528.67-1.048 1.378-1.41 2.145-1.219 2.572-3.473 3.718-6.049 3.77-8.315.169-16.635.12-24.953.112-1.665-.002-2.225-.703-1.79-2.267.5-1.798 1.14-3.472 2.357-5.054 4.006-5.203 7.703-10.642 11.613-15.92 1.186-1.602 2.692-2.963 4.026-4.457 2.282-2.557 4.379-5.174 6.047-8.265 1.738-3.218 4.594-5.811 6.691-8.864 2.904-4.226 5.576-8.612 8.3-12.96.677-1.08.645-2.104-.268-3.246-2.836-3.545-5.484-7.24-8.294-10.807-1.623-2.059-3.511-3.91-5.107-5.988-1.366-1.778-2.421-3.793-3.737-5.614-1.1-1.522-2.17-3.18-3.618-4.314-3.756-2.943-5.72-7.108-8.21-10.957-1.286-1.99-3.158-3.596-4.731-5.406a16.979 16.979 0 0 1-1.527-2.086c-.828-1.313-1.506-2.728-2.416-3.978-2.004-2.75-1.863-5.849-1.523-8.94.173-1.563 1.544-1.805 2.895-1.804 4.319.003 8.638 0 12.957 0v-.031ZM21.404 405.85c-.254-.533-.43-.74-.444-.957-.288-4.358-.646-8.715-.802-13.078-.112-3.147.544-6.256.168-9.468-.317-2.714.79-5.617.36-8.29-1.395-8.675-.677-17.376-.741-26.057-.15-20.47-.05-40.941-.042-61.412 0-1.599.148-3.2.097-4.796-.053-1.697.753-2.236 2.336-2.213 7.278.104 14.557.081 21.832.262 3.577.088 7.156.428 10.712.848 1.157.137 2.229.926 3.363 1.355 2.99 1.131 6.192 1.878 8.939 3.434 3.094 1.752 5.904 4.08 8.61 6.421 2.168 1.875 3.919 4.223 5.993 6.217 2.86 2.749 4.461 6.372 6.801 9.435 4.23 5.537 5.935 12.005 7.898 18.407.69 2.251 1.007 4.681 1.083 7.043.167 5.192.253 10.402.019 15.588-.146 3.217-.936 6.406-1.443 9.606-.396 2.502-.572 5.066-1.257 7.487-.915 3.237-1.964 6.489-3.426 9.507-2.467 5.092-6.073 9.384-10.36 13.1-2.847 2.47-5.517 5.158-8.475 7.482a37.758 37.758 0 0 1-7.082 4.4c-3.18 1.508-6.49 2.829-9.867 3.806-3.14.909-6.434 1.701-9.674 1.76-5.402.097-10.814-.562-16.226-.643-2.758-.042-5.524.48-8.372.756ZM38.212 386.3c.694-.18 1.293-.401 1.91-.486 5.23-.72 9.597-2.955 12.817-7.228 1.009-1.339 1.96-2.724 3.02-4.02 4.386-5.358 8.214-11.036 10.468-17.658 1.35-3.966 2.708-7.924 2.347-12.216-.194-2.298-.432-4.594-.574-6.896-.438-7.103.077-14.313-3.428-20.97-2.264-4.3-4.433-8.63-7.75-12.224a14.881 14.881 0 0 0-3.664-2.887c-4.134-2.287-8.631-3.6-13.227-4.63-2.543-.57-3.333-.03-3.264 2.696.22 8.61.64 17.217.7 25.827.118 17.183.056 34.368.033 51.552-.001 1.01-.384 2.013-.485 3.03-.214 2.139-1.068 4.423 1.097 6.11ZM373.712 267.655h-2.925c-6.797-.015-13.594-.037-20.391-.04-2.154-.001-2.52-.243-2.514-2.483.042-12.874.065-25.748.224-38.621.251-20.457.606-40.912.905-61.368.01-.618-.119-1.238-.197-2.003-.811-.042-1.508-.109-2.204-.11-9.198-.012-18.396-.008-27.594-.022-2.926-.004-3.311-.712-2.808-3.66.303-1.77.048-3.637.005-5.46-.01-.389-.259-.77-.272-1.16-.217-6.496-.195-7.098 5.937-6.958 8.394.191 16.796.024 25.193.136 3.733.05 7.46.48 11.194.597 3.234.101 6.548.153 9.699-.166 9.813-.994 19.617-.195 29.417-.477 2.6-.075 5.216.477 7.827.717 1.31.12 1.81.872 1.731 2.1-.26 4.054-.591 8.103-.77 12.16-.077 1.729-.927 2.11-2.448 2.106-9.118-.02-18.236.012-27.354.027-.778.002-1.556 0-2.434 0-.112.776-.262 1.31-.256 1.844.088 6.957.163 13.915.311 20.871.186 8.699.66 17.397.603 26.093-.068 10.366-.671 20.727-.845 31.094-.12 7.193.1 14.391.148 21.587.007.94-.104 1.88-.182 3.196ZM305.749 130.663c-1.15.125-2.236.339-3.323.346-5.04.033-10.078-.01-15.117.01-4.379.018-4.34.04-4.318-4.231.103-20.394.16-40.787.301-61.18.016-2.292-1.173-3.631-2.573-5.24-3.667-4.217-6.877-8.828-10.515-13.071-3.833-4.472-6.397-9.946-10.972-13.808-2.906-2.453-4.67-5.71-6.607-8.884-1.175-1.924-3.036-3.454-4.073-5.431-1.508-2.877-3.872-4.984-5.81-7.467-1.292-1.655-1.233-2.414.354-3.514 3.825-2.65 7.712-5.21 11.59-7.784 1.81-1.202 2.63.536 3.366 1.463 3.04 3.822 5.816 7.851 8.845 11.682 3.02 3.818 6.28 7.445 9.324 11.246 1.353 1.689 2.383 3.632 3.656 5.39.664.916 1.616 1.62 2.3 2.524 2.627 3.468 5.272 6.928 7.763 10.494 1.488 2.13 2.564 2.335 3.972.124 2.806-4.408 5.713-8.78 8.125-13.404 3.134-6.006 6.756-11.68 10.492-17.306 2.363-3.558 4.625-7.183 6.919-10.786 1.257-1.975 1.716-2.034 3.563-.573.732.58 1.589 1 2.37 1.521 2.74 1.833 5.153 4.11 8.198 5.548 1.791.846 1.962 2.412.774 4.195-3.316 4.978-6.753 9.875-10.02 14.883-1.701 2.606-3.065 5.43-4.723 8.066-3.304 5.255-6.72 10.44-10.056 15.676-.79 1.24-1.347 2.634-2.184 3.837-1.59 2.285-3.308 4.483-4.969 6.72-1.42 1.914-1.529 3.975-1.155 6.306.453 2.82.433 5.718.616 8.582.01.16.008.32.016.48.352 7.328.678 14.658 1.068 21.984.266 5.009.288 10.065 1.061 15 .483 3.08.413 6.252 1.596 9.323.775 2.01.146 4.562.146 7.279Z"/></svg>