<svg xmlns="http://www.w3.org/2000/svg" width="466" height="765"><path fill="#fff" fill-rule="evenodd" d="M465.647 765.418c-10.11-3.683-20.016-7.264-29.896-10.897-60.452-22.2-120.88-44.424-181.357-66.548-2.743-1.016-3.581-2.286-3.581-5.181.076-169.901.076-339.802.025-509.703 0-2.49.61-4.14 2.667-5.766C323 112.586 392.444 57.773 461.913 2.959c1.092-.863 2.21-1.65 3.759-2.794v765.228zM.013 765.418V.013c6.909 5.435 13.41 10.515 19.863 15.62C83.528 65.85 147.18 116.092 210.884 166.232c2.997 2.362 4.09 4.724 4.09 8.56-.102 168.758-.102 337.516.025 506.299 0 4.242-1.092 6.07-5.156 7.544-68.631 25.019-137.186 50.216-205.766 75.362-1.27.482-2.566.914-4.039 1.422z" class="fil1" clip-rule="evenodd"/></svg>