<svg fill="white" xmlns="http://www.w3.org/2000/svg" width="200" height="30"><path d="M138.556 1.04c-.129.067-.324.427-.41.759-.125.457-.164.953-.164 2.18 0 1.042-.027 1.425-.125 1.784-.035.141-.043.149-.258.176-.586.07-1.023.477-1.023.938-.004.3.097.445.699.972l.309.274v.289c0 .265-.059.71-.164 1.226-.106.52-1.067 4.422-1.333 5.399-.261.98-.5 2.012-.5 2.21 0 .169.18.434.372.555.214.133.535.204.918.208.523.003.62-.067.902-.633.187-.383.308-.805.5-1.735.172-.824.305-1.347.426-1.66l.082-.23.18.027c.32.047 1.331.34 1.828.527 1.53.582 2.625 1.36 3.656 2.579.246.296.43.48.492.496.059.015.3-.004.539-.036.793-.117 1.133-.378 1.133-.878-.004-.508-.309-.993-1.39-2.165-.47-.507-.477-.519-.391-.582a9 9 0 0 1 .351-.261c.98-.73 1.785-1.547 2.305-2.348.851-1.312 1.012-2.91.398-3.937-.488-.817-1.449-1.258-3-1.38-.566-.046-2.07-.023-3.097.044-.309.02-.805.047-1.106.066l-.55.023v-.46c0-.254.046-.88.105-1.391.125-1.133.133-1.695.02-2.125-.196-.746-.4-.91-1.176-.938-.278-.011-.477 0-.528.028m6.371 6.766c.168.055.387.149.489.207.16.094.183.125.207.29.062.433-.118 1.34-.364 1.835-.437.883-1.27 1.532-2.312 1.805-.332.082-.496.102-.938.102-.922.004-1.566-.2-2.238-.715-.348-.258-.437-.387-.414-.563.148-1.07.203-1.402.309-1.949.066-.351.129-.652.148-.668.012-.012.223-.043.461-.066.348-.04 2.293-.293 2.871-.383.066-.008.426-.012.797-.008.602.012.715.024.984.113M11.005 1.666c-2.628.426-4.601 1.394-6.324 3.113-1.906 1.895-3.195 4.563-3.8 7.879-.196 1.066-.286 1.89-.368 3.422-.039.742-.023 2.43.028 2.605.011.035.226.196.484.356s.941.601 1.523.976c2.672 1.735 4.063 2.489 5.418 2.942.797.261 1.16.332 1.762.336.55.004.785-.047 1.211-.266 1.023-.516 1.559-1.496 1.2-2.2-.321-.636-.766-.675-1.743-.152-.531.286-.707.313-1.207.184-.535-.137-1.168-.45-2.371-1.18a52 52 0 0 0-1.73-1c-1.97-1.058-2.418-1.562-2.485-2.761-.027-.524.055-1.094.363-2.508.118-.547.27-1.266.34-1.594.59-2.789 1.524-4.758 2.965-6.242.777-.813 1.469-1.274 2.617-1.762.762-.324 1.168-.523 1.422-.699.2-.137.512-.461.625-.645.152-.25.297-.843.2-.828-.02.004-.075.016-.13.024M108.95 1.677c-1.59.196-3.323.77-4.683 1.536-.754.43-1.18.746-1.703 1.265-.61.614-.875 1.012-1.129 1.711-.656 1.84-.902 5.801-.48 7.91.215 1.082.402 1.32 1.351 1.72 1.156.483 2.711.76 3.547.62.746-.12 1.137-.445 1.14-.945 0-.348-.152-.613-.456-.754-.301-.145-.5-.156-1.32-.082-.813.078-1.32.062-1.47-.031-.074-.051-.105-.14-.175-.477-.297-1.465-.43-2.875-.39-4.23.081-2.875.878-4.586 2.519-5.41.82-.415 1.594-.586 3.726-.833 1.485-.167 2.41-.324 2.664-.449.137-.066.133-.164-.03-.5-.259-.527-.708-.855-1.356-.992-.36-.078-1.336-.105-1.754-.059M154.783 2.459c-.125.062-.332.234-.54.453-.277.289-.347.383-.386.547-.027.117-.062.668-.082 1.3-.02.602-.047 1.43-.066 1.84-.043 1.235.007 1.63.554 4.22.125.57.246 1.226.27 1.46.117 1.106.172 1.52.219 1.738.03.137.05.453.05.723 0 .3.02.586.067.777.043.207.062.5.062.942 0 .633.004.644.114.84.066.113.195.277.292.367.208.187.145.176 1.489.297.504.043 1.195.101 1.535.136 1.535.137 2.953.11 3.465-.062.125-.04.304-.086.402-.098a4.5 4.5 0 0 0 1.246-.398c.246-.114.63-.29.848-.387.8-.352 1.387-.844 1.898-1.61.293-.433.473-.804.657-1.35.246-.75.226-1.075-.118-1.774-.23-.465-1.144-1.692-1.73-2.317a12 12 0 0 1-.762-.922c-.336-.472-1.672-2.062-2.027-2.414a1.9 1.9 0 0 0-.383-.293 18 18 0 0 1-.785-.484c-.34-.215-.84-.54-1.117-.715a16 16 0 0 0-1.235-.687c-.508-.254-.8-.426-.941-.555a1 1 0 0 0-.39-.23 2.2 2.2 0 0 1-.423-.165c-.418-.207-.53-.214-1.046-.05-.063.02-.07-.008-.07-.246 0-.446-.231-.801-.595-.922-.234-.078-.234-.078-.472.039m2.273 4.222c.688.348 1.13.606 1.852 1.082.242.164.629.395.855.516.836.445 1.465 1.016 2.203 2 .239.32.555.711.696.875.578.652 1.136 1.316 1.312 1.563.102.144.293.398.43.562.133.164.281.356.328.422l.086.125-.117.246c-.223.473-.602.715-1.574 1.008-.31.09-.77.234-1.028.324-.46.152-.465.152-1.094.152-.628 0-1.296-.043-1.906-.117a84 84 0 0 1-1.937-.265c-.094-.016-.114-.047-.153-.254-.027-.133-.074-.551-.105-.926-.098-1.145-.172-1.707-.442-3.317-.32-1.886-.437-2.656-.472-3.019a22 22 0 0 0-.07-.594c-.036-.281-.036-.316.03-.394.067-.07.403-.313.446-.313.008 0 .3.149.66.324M124.326 2.611c-.211.211-.715 1.356-1 2.258-.27.871-.535 2.02-.735 3.23-.183 1.106-.273 1.782-.582 4.399-.347 2.969-.52 4.047-.855 5.433-.09.352-.16.7-.16.774 0 .43.472 1.082 1.129 1.55l.265.192.184-.094c.305-.144.668-.515.848-.867.316-.61.425-1.16.585-2.906.141-1.594.243-2.281.344-2.344.031-.023.172-.074.324-.121.274-.09.493-.191 1.305-.625.422-.227.914-.414 1.219-.477.11-.02.129-.007.148.075.012.047.075.27.13.492.16.625.195 1.3.128 2.719-.09 2.136-.055 3.039.152 3.71.282.907.84 1.41 1.809 1.633.414.098.484.075.582-.152.121-.3.055-.55-.316-1.125-.364-.555-.43-.754-.465-1.324-.031-.524.012-1.684.078-2.203.086-.59.176-1.868.176-2.399 0-.597-.082-1.23-.211-1.586a1.6 1.6 0 0 1-.078-.3c0-.07.168-.141.664-.278.402-.11.597-.219.722-.398.086-.125.09-.172.079-.48-.024-.446-.149-.712-.47-1.012-.335-.31-.581-.403-1.105-.399l-.402.004-.047-.266a38 38 0 0 0-.562-2.472c-.446-1.598-1.164-3.266-1.668-3.875a2.9 2.9 0 0 0-.508-.47c-.39-.269-.664-.358-1.18-.382-.41-.015-.426-.015-.527.086m1.543 3.559c.148.195.41.734.504 1.047.187.601.308 1.418.422 2.906l.027.344-.508.19c-.598.22-1.2.38-1.426.38h-.16l.031-.399c.063-1.02.258-2.074.645-3.52.144-.538.266-1.003.277-1.03.028-.082.082-.059.188.082M197.681 3.681c-.754.141-.789.16-.93.547-.054.149-.246.66-.425 1.14-.422 1.145-.692 1.79-1.875 4.571-1.301 3.051-1.457 3.45-1.754 4.418-.137.453-.3.957-.371 1.121-.14.336-.57 1-.649 1-.144 0-.972-1.379-1.64-2.722-.852-1.727-1.29-2.786-1.867-4.54-.602-1.82-.883-2.43-1.364-2.94-.344-.36-.61-.497-.976-.493-.23 0-.313.023-.598.164-.184.09-.402.23-.488.309l-.157.14.028.434c.023.488.082.71.426 1.668.527 1.457.53 1.707.02 3.41a24 24 0 0 0-.614 2.434c-.793 3.808-1.735 6.964-2.59 8.687l-.262.527.117.125c.262.282.891.442 1.41.36 1.32-.207 2.133-1.512 2.891-4.656.14-.575.348-1.442.461-1.926.305-1.274.645-2.239.863-2.461.055-.051.07-.047.16.058.407.5.926 1.457 1.278 2.368.117.285.43 1.168.695 1.957.703 2.074.875 2.492 1.067 2.593.34.176 1.207.274 1.699.188.527-.09.816-.29.988-.676.043-.094.102-.379.133-.64.035-.254.105-.622.16-.805.094-.305.125-.36.348-.578a2.9 2.9 0 0 1 .617-.446c.855-.453 1.05-.972.867-2.32-.133-.95-.152-1.3-.105-1.656.136-.961.535-2.13 1.402-4.082.18-.41.438-1.012.578-1.34.332-.8.555-1.29.985-2.176.777-1.613 1.148-2.516 1.296-3.195.043-.192-.351-.473-.777-.567-.242-.05-.777-.05-1.047 0M176.466 4.146c-2.18.082-3.699.235-4.687.477-.527.125-.797.219-1.145.402-.34.176-.773.57-.742.66.047.117.41.317.797.438.457.144.773.324.73.426-.05.14-.183.648-.312 1.25-.293 1.296-.52 1.785-.984 2.082-.11.074-.196.144-.196.16 0 .015.043.11.098.203.18.312.332.863.383 1.402.078.832-.004 1.649-.403 3.871-.128.7-.238 1.59-.238 1.899 0 .949.48 1.597 1.414 1.898.52.168.969.215 1.758.196.695-.02 1.023-.075 2.41-.407a12 12 0 0 1 2.168-.324c.461-.035.942-.09 1.07-.125.317-.078.575-.246.72-.46.144-.224.175-.349.105-.474-.09-.16-.524-.421-.903-.546-.34-.114-.37-.118-1.168-.114-.8 0-.84.004-2.011.211-1.028.18-1.278.211-1.754.215-.309.004-.606-.008-.656-.023-.083-.028-.09-.047-.067-.2.012-.09.05-.632.082-1.207.149-2.546.336-3.504.809-4.129l.097-.136 1.743.027c1.539.027 1.78.024 2.097-.035.446-.086.828-.258 1.051-.477.2-.195.21-.289.063-.582-.282-.574-.883-.777-1.93-.668-1.137.121-1.672.149-2.051.102-.598-.074-1.14-.383-1.14-.648 0-.391.328-1.993.624-3.043.188-.668.157-.649 1.051-.645.543 0 .828.027 1.645.148 1.781.27 2.308.192 2.879-.414.14-.152.261-.312.261-.355 0-.117-.449-.504-.765-.66-.344-.168-.79-.285-1.266-.34a13 13 0 0 0-1.637-.055M33.013 4.595c-.21.082-.484.266-.683.45l-.137.132-.027.5c-.118 2.165-.41 4.188-1.098 7.614-.504 2.492-.547 2.86-.762 6.289a35 35 0 0 1-.261 2.469 4.2 4.2 0 0 1-.247.87c-.23.583-.285.887-.21 1.126.07.218.312.472.449.472.172 0 .691-.152.91-.261.625-.317 1.066-1.125 1.289-2.36.125-.676.168-1.09.266-2.636.043-.708.09-1.403.101-1.547l.024-.262.687.273c2.785 1.121 4.621 2.598 5.488 4.414.422.891.567 1.555.575 2.66.003.735.011.794.097.958.137.257.465.586.703.703.93.457 2.094-.18 2.164-1.184.024-.34-.027-.55-.257-1.058-.239-.52-.434-1.079-.735-2.07-.476-1.59-.656-2.075-.879-2.329-.07-.078-.3-.285-.508-.453-.648-.523-1.035-.867-1.851-1.676l-.79-.773.294-.293c1.441-1.434 1.433-3.512-.02-6.305a30 30 0 0 0-.699-1.238 41 41 0 0 1-.918-1.64c-.586-1.114-.851-1.571-1.11-1.923-.448-.613-1.011-1-1.448-1a1.4 1.4 0 0 0-.407.078M34.6 10.03c1.024 1.383 1.403 2.09 1.656 3.082.11.434.118.508.102 1.008-.02.586-.102.965-.234 1.105-.172.188-.762.215-1.844.09-.504-.058-.879-.012-1.25.164-.164.074-.25.102-.25.067 0-.157.355-1.95.558-2.805.34-1.457.637-3.016.637-3.328q-.002-.134.055-.11c.023.012.281.34.57.727M19.779 5.63c-.348.09-.582.235-.844.52-.539.59-.773 1.176-1.289 3.29-.613 2.515-.789 3.831-1.02 7.66a23 23 0 0 1-.128 1.359c-.118.851-.121 1.699-.012 1.898.133.254.258.387.457.492.508.282 1.05.121 1.394-.398.153-.227.329-.774.418-1.293.13-.707.18-.973.207-.992.028-.028.958-.153 1.73-.227.54-.058.661-.058.704-.012.074.07.352 1.118.496 1.852.113.606.14.734.457 2.73.235 1.446.469 2.485.66 2.922l.078.18.274-.023c.574-.051 1.023-.274 1.293-.637.23-.313.316-.637.336-1.274.031-.855-.156-1.816-.711-3.64-.317-1.055-.625-2.117-.656-2.297-.02-.105.007-.156.18-.355.519-.59.66-.915.66-1.473 0-.356-.008-.395-.094-.488-.16-.172-.36-.204-.79-.125-.449.078-.55.062-.636-.114-.063-.14-.61-2.242-.93-3.597-.5-2.078-.808-3.653-1.062-5.418-.035-.266-.082-.512-.102-.535-.05-.086-.773-.09-1.07-.004m-.184 6c.223.442.633 1.899.942 3.368.07.34.148.652.168.687.023.051.011.082-.04.106-.167.09-.91.242-1.296.27l-.43.03v-.878c0-.93.047-1.61.145-2.196.054-.347.32-1.437.359-1.507.031-.047.09-.004.152.12M51.818 5.97c-.29.075-.559.243-.68.426-.129.2-.105.313.086.457.36.278.778.418 1.793.602.309.055.645.129.742.16.832.254 1.172.82 1.328 2.223.102.902.11 1.59.043 3.261-.097 2.602-.113 3.618-.062 4.32.055.778.113 1.173.184 1.282.066.11.527.348.855.45.54.163 1.094.144 1.54-.052l.23-.101-.028-.192c-.086-.609-.183-2.527-.265-5.168a31 31 0 0 0-.098-1.82c-.191-1.648-.195-2.148-.02-2.703.086-.293.352-.727.496-.82.106-.07.079-.075 1.094.14.742.157 1.082.188 1.38.121.3-.058.421-.12.64-.328.207-.187.222-.277.101-.593-.117-.301-.234-.454-.48-.614-.45-.3-.988-.367-2.555-.312-1.734.058-2.176.011-3.61-.375-1.253-.344-1.437-.38-1.991-.395-.352-.012-.586 0-.723.031M84.744 7.22c-.121.008-.61.055-1.078.098-.47.04-1.055.09-1.297.102-1.035.058-2.469.187-2.91.257-.899.145-1.512.372-1.657.614-.097.16-.097.281-.004.492.133.293.59.5 1.532.695.215.043.425.098.468.121.106.059.176.2.309.664.2.668.281 1.122.566 3.235.2 1.465.372 2.176.68 2.844.078.175.215.402.297.492.355.39 1.664.836 3.05 1.031.778.11 2.462.098 3.231-.02.649-.097 1.254-.25 1.504-.37.379-.184.363-.567-.055-1.2-.21-.324-.492-.363-2.644-.379-1.656-.008-2.031-.031-2.438-.16a.9.9 0 0 1-.265-.148c-.196-.22-.528-1.028-.668-1.637-.074-.328-.18-1.227-.149-1.293.008-.031.09-.082.184-.121.488-.195 1.121-.098 2.879.45 1.723.534 2.484.698 2.867.612.328-.074.5-.203.637-.468.148-.297.043-.579-.34-.91-.602-.52-2.215-1.004-4.48-1.344-1.266-.188-1.93-.36-2.016-.52a.4.4 0 0 1-.04-.176c0-.054-.062-.261-.144-.46-.078-.2-.133-.391-.125-.43.008-.047.09-.094.29-.145.406-.11 1-.097 1.952.031 1.247.172 1.676.149 2.188-.105.297-.148.336-.23.27-.586-.122-.668-.43-.996-1.102-1.168-.297-.074-1.063-.125-1.492-.098M72.896 7.97c-.27.09-.656.317-.687.399-.008.027.007.203.035.39.129.774.18 1.36.218 2.438.02.625.028 1.18.016 1.23-.02.086-.039.09-.351.09-.184 0-1.047.075-1.926.16-1.688.168-3.074.27-3.172.235-.067-.031-.192-.633-.293-1.375-.086-.645-.117-1.91-.063-2.434.047-.43.047-.437-.043-.531-.242-.262-.835-.453-1.39-.453-.41 0-.574.043-.82.21-.333.223-.356.282-.305.716.027.207.144 1 .265 1.773l.301 1.899c.043.277.149.96.239 1.523.25 1.59.511 3.32.66 4.316.05.368.125.86.16 1.102.035.238.07.469.078.5s.047.285.082.559c.09.777.094.789.469.984.476.25 1.16.324 1.636.176.375-.114.387-.13.387-.598 0-.723-.187-1.77-.64-3.562-.278-1.102-.477-2.286-.477-2.829v-.164l.352-.082c.445-.101 1.023-.187 1.8-.265.34-.035.727-.078.86-.102.558-.098.504-.105.644.094.156.219.438.465 1.051.918.625.465.809.66 1.016 1.09.39.804.468 1.441.48 3.722.012 2.641.078 3.485.305 3.73.219.243.758.388 1.387.384.48-.004.804-.082.996-.246l.082-.07-.098-1.419c-.137-1.976-.375-4.3-.738-7.14-.121-.961-.39-3.352-.5-4.418-.032-.34-.07-.72-.082-.828l-.032-.215.29-.285c.156-.16.304-.348.328-.422.132-.414-.43-1.004-1.16-1.207-.422-.118-1.004-.118-1.36.007m0 0"/><path d="M105.798 11.892a6 6 0 0 0-.46.133c-.29.113-.657.363-.657.453 0 .121.395.442.739.606.39.183 1.066.36 1.914.492.351.055.921.144 1.27.203 1.284.207 1.917.402 2.542.8l.145.095-.188.87c-.312 1.426-.656 2.68-1.625 5.93-.14.48-.144.493-.07.547.101.078.824.309 1.23.399.91.199 1.52-.141 1.785-.989.043-.136.239-.914.434-1.73.379-1.559.59-2.356.824-3.082.192-.598.477-1.324.598-1.527.14-.25.246-.27 1.41-.274h.977l.195-.117c.375-.219.5-.766.25-1.137a.85.85 0 0 0-.332-.273l-.234-.114-1.313-.023c-1.61-.031-1.684-.043-4.41-.676-2.242-.52-2.746-.601-3.887-.62-.644-.013-.945-.005-1.137.034M48.212 22.623c-.32.047-.765.152-.82.191-.062.043-.058.11.02.79.047.406.097 1.136.12 1.613.028.484.063 1.242.083 1.68.02.44.039.991.039 1.23v.43l.27.136c.464.238.808.32 1.18.293.171-.016.335-.043.366-.066.028-.028.063-.137.078-.254.016-.117.106-.73.2-1.367.218-1.465.27-1.965.27-2.54-.009-1.312-.442-1.972-1.395-2.117a7 7 0 0 0-.297-.039 1 1 0 0 1-.114.02m0 0"/></svg>