<svg xmlns="http://www.w3.org/2000/svg" width="188" height="40"><g fill="#fff"><path d="M35.344.121c-.582.211-1.032.465-1.614.961-.562.465-1.156 1.066-1.156 1.156a.14.14 0 0 1-.07.114c-.156.062-1.23 1.55-1.883 2.62-.394.63-1.23 2.192-1.867 3.47-1.211 2.437-1.309 2.64-1.875 3.98-.192.45-.418.969-.52 1.14-.152.278-1.336 3.145-2.062 4.981-.137.344-.504 1.277-.813 2.055-.308.773-.691 1.742-.843 2.144-.567 1.442-.657 1.563-2.293 3.207-1.168 1.168-1.786 1.707-2.485 2.172-1.02.676-4.195 2.32-4.851 2.512a9 9 0 0 0-.59.191c-.902.356-2.285.574-3.735.574-1.289.012-1.71-.09-2.492-.601-.965-.621-1.883-1.938-2.312-3.305-.188-.594-.399-1.972-.473-3.058-.082-1.172.203-3.344.567-4.332.07-.207.171-.5.207-.649.156-.574.73-2.043 1.14-2.922 1.625-3.488 3-5.449 5.121-7.277.973-.832 1.567-1.25 2.657-1.836 1.02-.547 2.093-.902 2.73-.902 1.012 0 2.121.656 2.574 1.523.239.45.274 1.582.074 2.285-.628 2.262-1.445 3.723-2.41 4.29-.738.44-1.558.257-1.82-.403-.172-.445-.129-.719.273-1.715.461-1.125.399-1.55-.347-2.32-.739-.766-1.219-.64-2.094.547-.48.648-.816 1.406-1.117 2.558-.465 1.801-.211 3.078.8 3.98a4.1 4.1 0 0 0 1.903.977c.426.094.664.086 1.363-.035 1.149-.2 1.367-.266 2.258-.668 1.047-.465 1.918-1.058 2.39-1.625.458-.539 1.259-1.89 1.676-2.867.528-1.188 1.028-3.652 1.028-5.05 0-.95-.145-1.516-.645-2.54-.32-.637-.547-.95-1.175-1.57-1.254-1.258-2.184-1.613-3.958-1.524-3.074.164-5.394 1.344-8.433 4.254-1.395 1.344-1.996 2.074-3.215 3.938C2.074 14.96.672 18.25.137 21.867c-.301 2.098-.082 5.68.46 7.45.856 2.796 3.462 5.078 6.5 5.718 1.602.336 4.403-.035 6.641-.894 1.258-.477 3.38-1.563 4.325-2.211.445-.301.843-.559.89-.559.035 0 .047.258.008.578-.043.473-.027.656.129.996.348.801 1.055 1.203 1.738.992.754-.218 1.785-1.769 4.149-6.218.73-1.367 1.082-1.973 2.066-3.563.527-.847 1.3-1.844 1.676-2.136.773-.61 2.047-.903 2.172-.5.148.457-.07 1.394-.727 3.14-.371.988-.664 1.91-.965 3.098-.261.992-.281 1.168-.246 2.191.04.856.094 1.215.246 1.606.403.968 1.477 2.027 2.196 2.148 1.199.2 2.539-.387 4.293-1.89.863-.731.937-.77 1.136-.477 1.094 1.562 1.649 1.855 3.352 1.746 1.5-.102 2.672-.586 4.031-1.691.473-.375.883-.649.918-.602.035.043.164.336.273.648.653 1.797 2.383 2.329 5.012 1.524 1.176-.356 3.168-1.426 3.797-2.035.11-.102.227-.192.254-.192s.137-.082.246-.183c.3-.274.41-.227.574.265.27.84 1.18 2 2.008 2.575.52.355 1.395.629 2.023.629.91 0 2.81-.329 3.684-.63 1.793-.628 3.45-1.644 5.262-3.222.336-.293.625-.531.664-.531.027 0 .055.347.055.777 0 .418.035.86.082.977.043.117.105.328.144.464.063.329.781 1.106 1.293 1.407.652.386 2.164.758 3.055.758.656 0 1.765-.329 2.476-.739 2.567-1.46 5.258-4.695 6.196-7.414.312-.894.39-1.89.175-2.219-.148-.23-.183-.238-.773-.203-.82.047-1.258.34-1.812 1.242-.72 1.16-1.883 2.915-2.149 3.235-.945 1.148-2.21 2.152-2.992 2.363-.621.164-1.438.074-1.813-.219-.418-.32-.472-.613-.289-1.496.473-2.332 1.692-4.914 3.711-7.89 1.082-1.598 1.067-1.563 1.067-2.696 0-.867-.028-1.039-.211-1.359-.48-.86-1.254-.73-2.528.402-.765.684-3.23 5.02-4.086 7.203-.3.758-.3.758-1.085 1.297-.801.547-1.055.758-2.848 2.293-1.774 1.516-2.848 2.239-3.922 2.621-.883.309-1.328.403-2.3.446-1.067.058-1.329-.082-1.731-.856-.309-.594-.48-1.508-.317-1.707.063-.074.446-.14 1.075-.176 1.316-.074 2.464-.39 3.71-1.03 2.11-1.079 3.676-2.274 4.805-3.645.336-.41 1.067-1.496 1.067-1.59 0-.043.097-.262.226-.485.762-1.378.953-3.597.426-4.976-.246-.656-.774-1.34-1.164-1.535-.965-.453-3.258-.207-5.223.566-1.902.75-3.004 1.629-4.62 3.664a17.5 17.5 0 0 0-2.934 5.563l-.29.941-1.257 1.238c-1.547 1.528-2.028 1.903-3.375 2.594-1.184.613-1.864.77-2.082.496-.22-.265-.164-1.93.09-2.777.699-2.348.874-2.75 1.93-4.402 2.546-4.028 2.663-4.266 2.593-5.208-.067-1.011-.512-1.53-1.356-1.597-.964-.082-1.586.496-2.847 2.64-.395.668-.875 1.47-1.067 1.79-.199.32-.664 1.105-1.047 1.734-.8 1.363-2.257 3.562-3.12 4.723-1.184 1.582-2.614 2.742-3.602 2.933-.54.098-.613-.047-.559-1.105.047-1.125.301-1.918 1.102-3.516.539-1.062.828-1.57 2.113-3.656.781-1.27 1.809-3.04 1.93-3.313.164-.383.125-1.058-.074-1.508-.227-.511-.81-.792-1.418-.703-.766.11-1.997 1.516-3.477 3.973-.656 1.07-1.875 3.496-2.195 4.34-.516 1.36-.735 1.797-1.383 2.785a10 10 0 0 1-1.563 1.879c-1.703 1.644-2.703 1.746-2.703.273 0-.8.219-1.53.918-3.05.2-.41.356-.774.356-.793 0-.028.343-.813.761-1.754 1.168-2.582 1.368-3.653.895-4.692-.328-.742-1.219-1.437-2.04-1.582-.417-.074-.437-.238-.062-.457.352-.21 1.473-1.16 1.891-1.597.746-.793 1.203-1.399 1.691-2.247 1.375-2.382 1.942-3.753 2.368-5.726.199-.93.226-1.297.226-2.75 0-1.863-.09-2.328-.625-3.113C37.57.25 36.414-.254 35.344.12m.816 3.863c.211.164.238.246.238.758 0 2.258-1.847 6.055-4.503 9.235-.801.957-2.45 2.464-3.024 2.773-.281.148-.273 0 .02-.664.129-.285.226-.578.226-.64 0-.255.738-2.075 1.34-3.298.336-.703.719-1.507.836-1.78.437-.985 1.437-2.977 1.82-3.606 1.008-1.625 1.766-2.703 1.992-2.824.356-.192.774-.172 1.055.046M66.152 18.13c.246.25.313.55.246 1.242-.144 1.82-2.156 3.856-5.12 5.188-.95.421-1.985.742-2.122.648-.246-.144.645-2.207 1.555-3.605.766-1.18 1.191-1.68 1.95-2.293.8-.63 1.183-.84 2.073-1.133.82-.266 1.184-.281 1.418-.047M150.234 2.012c-1.882.3-4.047 1.187-5.394 2.21-1.176.887-1.957 1.907-2.574 3.36a13 13 0 0 1-.512 1.098c-.656 1.086-.856 1.98-.766 3.394.157 2.594 1.832 4.594 4.262 5.106 1.191.258 2.43.011 3.5-.684.695-.45 1.984-1.68 2.484-2.367.828-1.149 1.094-1.816 1.094-2.813 0-1.12-.375-1.55-1.266-1.449-.964.098-1.726.594-2.601 1.68-.52.648-1.32 1.277-1.856 1.453-.175.063-.484.11-.703.11-.433 0-.488-.055-1.062-1.106-.383-.688-.418-1.078-.184-1.781.227-.688.656-1.297 1.41-2 1.02-.95 2.075-1.528 3.532-1.91 1.422-.383 3.511-.594 4.285-.43.683.148 1.969.805 2.394 1.234.348.348.356.356.301.914-.074.766-.676 2.328-1.875 4.922-.164.336-.348.766-.418.957-.062.184-.355.895-.637 1.57-1.894 4.54-2.347 7.215-1.52 8.98.317.692 1.13 1.587 1.72 1.907.836.457 1.375.559 2.793.504 1.12-.039 1.375-.074 2.011-.3.754-.274 1.828-.942 2.274-1.407.636-.668.554-.164-.434 2.512-.539 1.469-1.683 3.816-2.367 4.847-.602.914-1.484 1.883-2.184 2.41-.93.696-2.293 1.462-2.593 1.462-.82 0-2.203-.711-2.63-1.36-.347-.52-.284-.976.255-1.652.52-.668.574-1.5.109-1.617-.437-.102-1.539.109-2.184.43-.882.437-1.347.94-1.484 1.605-.129.605-.062 1.734.129 2.484.309 1.16 1.3 2.293 2.555 2.895 1.367.668 1.957.824 3.05.824.836 0 1.075-.047 1.891-.313 2.86-.93 5.68-3.687 7.555-7.386.398-.77 1.836-4.32 2.293-5.637 1.902-5.461 3.484-9.16 4.75-11.059.945-1.406.98-1.48 1.945-3.68a525 525 0 0 0 1.176-2.656c1.035-2.347 1.117-3.71.254-4.082-.508-.218-1.602-.203-2.121.036-1.118.503-1.985 1.734-3.082 4.437-.594 1.426-1.04 2.375-1.711 3.582-1.84 3.285-2.43 4.152-4.141 6.125-1.914 2.192-3.324 3.16-5.172 3.543-.855.184-1.308.184-1.453.012-.191-.23-.21-.813-.055-1.7.274-1.617.938-3.433 2.274-6.226.383-.797.691-1.453.691-1.473s.164-.382.356-.804c.964-2.055 1.636-4.856 1.539-6.383-.055-.84-.336-1.367-1.203-2.227-1.227-1.207-2.555-1.761-5.122-2.136-.84-.13-2.695-.11-3.578.035M130.203 3.863c-.637.328-1.082.832-1.539 1.742-.383.77-.363 1.145.11 2.067.43.832 1.019 1.488 1.581 1.742.594.266 1.657.395 2.23.277 1.93-.421 2.602-2.906 1.313-4.824-.593-.875-1.41-1.305-2.496-1.305-.535 0-.718.043-1.199.301M115.93 3.629c-2.114.437-2.785.805-4.45 2.402-2.003 1.918-3.742 4.883-5.343 9.114-.41 1.093-.543 1.207-1.29 1.132-2.456-.265-5.077-1.808-5.824-3.433-.191-.422-.218-.574-.183-1.14.074-.981.437-1.821 1.285-2.915 1.582-2.074 1.773-2.34 1.828-2.648.082-.45-.101-1.114-.402-1.434-.246-.266-.281-.273-1.074-.273-.817 0-.817 0-1.262.355-1.586 1.277-3.004 3.414-3.488 5.23-.207.805-.247 2.293-.082 3.106.054.266.3.914.566 1.445.41.84.574 1.067 1.328 1.836.52.52 1.2 1.094 1.664 1.395 1 .66 2.793 1.515 3.805 1.836.426.136.828.258.89.273.204.074.122.403-.355 1.352-.563 1.125-1.371 2.394-1.61 2.523-.234.125-.5.043-1.292-.414-1.328-.758-1.774-.883-3.356-.93-1.566-.046-2.414.055-3.469.41-1.738.587-3.066 1.59-3.832 2.907-1.043 1.789-1.043 3.715 0 5.906.786 1.645 2.579 2.777 4.563 2.879.844.043.898.027 2.355-.43.82-.258 1.72-.578 2-.703 1.266-.586 2.586-1.789 3.758-3.445.246-.328.492-.602.567-.602.062 0 .464.422.882.942.829 1.023 1.446 1.625 2.473 2.383 1.602 1.187 2.813 1.789 4.168 2.062.8.164 1.168.195 2.402.156 2.375-.062 3.223-.375 4.414-1.644.375-.39.891-.867 1.137-1.051.258-.18.649-.48.883-.684.238-.191.473-.328.52-.3.035.027.128.238.183.476.191.758 1.246 1.64 2.328 1.945.656.192 1.719.372 2.121.372 2.11 0 5.25-2.418 7.352-5.66 1.027-1.59 1.492-2.833 1.492-3.973 0-.824-.098-.961-.71-.961-.907.012-1.466.476-2.392 2.012-1.949 3.23-3.375 4.62-5.078 4.93-.5.093-.644.081-.972-.044-.5-.195-.856-.605-.856-.988 0-.336.363-1.828.68-2.805.129-.375.504-1.242.828-1.918.555-1.148 1.04-1.953 2.73-4.554l.676-1.043v-.97c-.011-1.44-.273-1.925-1.066-1.925-.692 0-1.719.777-2.43 1.856-.726 1.093-2.183 3.761-2.84 5.175a30 30 0 0 0-.945 2.375c-.398 1.223-.91 3.125-.91 3.426 0 .102-.047.336-.102.527l-.09.348-.316-.273c-.273-.246-.394-.282-.812-.282s-.637.07-1.336.438a29 29 0 0 1-1.575.75c-.402.164-.808.336-.91.371-.965.43-2.86.578-3.785.305-1.012-.305-2.148-.907-3.039-1.63-.473-.382-1.984-1.905-2.832-2.839-.547-.61-.617-.93-.309-1.324.102-.125.184-.254.184-.29 0-.038.3-.523.672-1.07.473-.71.746-1.234.918-1.761.355-1.059.738-1.899 1.02-2.192.163-.164.511-.328 1.156-.523 2.437-.746 2.847-.922 4.515-1.906 1.5-.887 2.41-1.707 3.93-3.536 1.93-2.328 2.465-3.277 2.746-4.949.422-2.394-.043-4.328-1.207-5.023-.828-.5-2.14-.696-3.195-.465m.902 3.871c.18.129.207.21.16.531-.11.739-.433 1.617-.883 2.266-1.007 1.504-2.554 3.039-3.894 3.871-.754.465-2.02.922-2.02.719 0-.016.184-.399.39-.84.22-.438.493-1.047.614-1.352.336-.875 1.043-2.207 1.446-2.718.765-.989 1.984-2.165 2.484-2.395.582-.266 1.383-.3 1.703-.082m-18.52 18.621c1.665.32 1.774.402 1.594 1.07-.32 1.215-1.304 2.371-2.469 2.938-.882.422-1.316.531-2.32.578-.699.035-.883.008-1.183-.137-1.016-.539-1.473-1.672-1.036-2.633.645-1.421 3.114-2.253 5.414-1.816M174.121 16.059c-1.39.636-4.203 5.086-5.613 8.875-.656 1.78-1.074 3.515-1.074 4.484 0 1.023.425 2.074 1.156 2.812.683.696 1.062.833 2.258.825 1.664-.012 3.039-.532 4.41-1.672.422-.356.8-.649.84-.649.035 0 .152.254.261.567.274.746 1.094 1.613 1.758 1.836 1.418.484 3.875-.102 5.969-1.418 1.8-1.133 3.523-2.922 3.812-3.953.11-.395.137-1.762.047-2-.093-.23-.937-.192-1.476.054-.262.13-.864.63-1.61 1.352-1.199 1.168-1.703 1.578-2.586 2.101-.726.418-1.78.82-2.183.82-.336 0-.363-.027-.473-.335-.144-.45-.043-1.903.184-2.633.09-.3.281-.895.418-1.324.3-.969.972-2.281 1.902-3.7 2.137-3.277 2.293-3.605 2.211-4.527-.055-.629-.281-1.14-.629-1.39-.3-.227-1.074-.309-1.437-.153-.356.145-1.32 1.196-1.692 1.836-.164.274-.71 1.203-1.23 2.082-.516.875-1.047 1.762-1.164 1.961-.582 1.024-.953 1.598-1.992 3.117-2.274 3.305-3.196 4.22-4.731 4.703-.594.192-.691.082-.73-.742-.043-1.133.336-2.41 1.265-4.172.5-.96 1.676-2.96 2.422-4.109 1.09-1.691 1.574-2.676 1.574-3.262 0-.492-.293-1.086-.648-1.316-.281-.172-.918-.207-1.219-.07M79.066 3.82c-.636.328-1.082.832-1.539 1.743-.382.769-.363 1.144.11 2.066.43.832 1.02 1.488 1.586 1.742.59.266 1.656.395 2.226.277 1.93-.421 2.606-2.906 1.313-4.824-.594-.875-1.41-1.304-2.496-1.304-.536 0-.72.042-1.2.3m0 0"/></g></svg>