<svg xmlns="http://www.w3.org/2000/svg" width="31" height="32" fill="none" viewBox="0 0 31 32"><g fill="#fff" clip-path="url(#a)"><path d="M9.585 22.773c-.11-.174-.146-.375-.208-.568-.178-.394-.358-.791-.618-1.139-.149-.24-.34-.45-.491-.688-.105-.215-.13-.46-.256-.669-.072-.158-.169-.302-.24-.46-.044-.12-.041-.254-.092-.372-.06-.158-.159-.298-.246-.442a2 2 0 0 1-.261-.895c-.025-.207-.093-.42-.09-.633.027-.387-.112-.77-.107-1.158.042-.258.127-.508.133-.774.015-.214.092-.417.127-.628.08-.464.153-.929.199-1.397.036-.188.01-.382.05-.568a3 3 0 0 1 .081-.289c.084-.228.286-.387.403-.597.164-.268.138-.58.354-.819.486-.48 1.074-.89 1.734-1.078.629-.17 1.217-.46 1.775-.79l.004-.001c.142-.053.296-.066.44-.114.182-.051.357-.123.539-.178.17-.051.342-.096.503-.174.5-.247.935-.604 1.408-.898.21-.136.38-.326.601-.446.575-.34 1.283-.262 1.886-.525.588-.245 1.01-.758 1.582-1.03.315-.128.616-.286.865-.524.36-.283.683-.61 1.006-.936.13-.144.154-.346.175-.532.044-.246.14-.485.127-.74-.013-.258-.057-.528-.184-.757-.053-.084-.13-.148-.194-.224-.154-.188-.201-.474-.369-.666-.163-.224-.331-.295-.58-.389-.208-.123-.429-.228-.638-.347-.307-.235-.73-.3-1.08-.123-.21.1-.443.128-.66.21-.263.124-.527.286-.707.518-.131.198-.27.393-.377.604-.086.172-.132.36-.212.533-.195.336-.411.658-.587 1.006-.222.361-.346.762-.567 1.124-.177.279-.433.483-.652.724-.146.155-.331.277-.467.439-.15.168-.25.377-.41.535-.148.174-.253.382-.404.554a6 6 0 0 1-.711.502c-.163.055-.32.146-.49.169-.604-.002-.494-.9-.537-1.316-.02-.286-.046-.57-.06-.857.01-.303.051-.612-.027-.91-.161-.554-.395-1.1-.805-1.517-.257-.343-.33-.412-.712-.628-.571-.25-1.02-.158-1.425.327a5.2 5.2 0 0 0-.604.873c-.082.214-.134.44-.189.663-.081.342.011.688.129 1.011.044.208.192.354.307.526.219.373.483.737.842.986.2.127.379.287.574.42.182.128.359.275.487.46.069.147.127.316.152.479 0 .198-.092.4-.266.502-.079.048-.177.051-.27.073-.16.054-.322.07-.483.114-.148.06-.313.094-.437.197-.183.186-.425.555-.717.336-.249-.19-.298-.545-.358-.833-.041-.176-.113-.346-.157-.521a5.3 5.3 0 0 1-.187-.796c-.124-.56-.575-.976-1.088-1.199-.29-.156-.602-.29-.93-.336-.177-.014-.344.053-.514.092-.31.015-.506.066-.707.322-.148.16-.298.322-.367.534-.107.267-.21.554-.218.84.007.493.062 1.02.362 1.428.16.206.396.34.615.472.516.27 1.12.328 1.679.478.201.065.418.112.566.259.34.321.243.855-.015 1.196-.058.081-.101.178-.157.252-.057.074-.115.149-.146.24-.096.356-.211.718-.234 1.087q-.023.258-.041.517c.01.328-.096.616-.438.327-.253-.327-.54-.641-.727-1.014-.215-.465-.232-.452-.608-.784-.364-.368-.91-.395-1.399-.436-.542-.07-.656.098-1.143.224-.17.069-.339.133-.502.213a2.2 2.2 0 0 0-.374.322c-.115.16-.21.38-.266.554-.031.127-.005.27-.01.406a1 1 0 0 0 .027.378c.033.125.023.256.067.378.103.27.288.5.452.735.16.187.343.37.564.484.558.248 1.188.302 1.792.284.343-.05.689-.118 1.038-.101.272-.02.566-.036.808.113.195.102.353.295.276.522-.029.135-.031.275-.06.41-.091.398-.18.819-.08 1.22.047.33.347.628.26.968-.17.371-.896.457-1.246.34-.412-.114-.842-.186-1.269-.143-.595.079-1.175.267-1.659.628-.412.257-.638.488-.843.94-.14.24-.155.505-.216.776-.062.352-.155.73.016 1.036.2.307.48.468.79.638.398.226.872.237 1.32.205.439-.062.892.054 1.323-.073.48-.162.948-.51 1.2-.957.078-.175.19-.337.28-.504.058-.118.115-.236.19-.344.087-.13.136-.268.236-.38.111-.12.243-.232.396-.288.136-.035.376-.046.498.074.136.164.172.375.225.576.106.337.37.57.62.799.101.108.223.22.242.375-.002.219-.01.458-.112.656-.15.192-.367.337-.585.442-.275.115-.5.31-.753.463-.234.16-.494.277-.727.438-.383.225-.606.641-.683 1.07-.089.3-.114.613-.06.921.051.353.128.72.323 1.022.229.293.65.426.996.277.37-.197.699-.458.99-.755.08-.087.135-.192.215-.277.163-.18.353-.338.457-.56.204-.275.243-.47.3-.798.098-.33.069-.676.218-.991.059-.11.143-.273.288-.265.212.055.27.425.327.611.056.226-.019.48.148.674.135.184.266.374.45.512.11.12.234.231.385.299.303.169.591-.086.637-.396.184-.42-.048-.746-.181-1.137-.126-.439-.36-.828-.568-1.231zM30.542 12.75v-.006c-.11-.716-.107-1.457-.31-2.16-.147-.415-.43-.75-.645-1.132-.111-.202-.18-.425-.296-.625-.231-.374-.48-.741-.67-1.139-.412-.542-.904-1.033-1.4-1.502-.19-.169-.423-.279-.646-.395-.579-.425-1.3-.621-2.008-.694-.444-.03-.876-.236-1.325-.192-.304.053-.648.169-.883.354-.066.072-.138.144-.24.163-.662.148-1.442.833-1.87 1.352-.187.185-.412.343-.516.59-.07.163-.11.336-.2.488-.17.288-.268.612-.432.901-.078.118-.206.201-.291.318-.13.161-.203.357-.298.539a4.2 4.2 0 0 0-.513 1.212c-.217.429-.424.875-.507 1.351a2.8 2.8 0 0 0-.052.654c-.019.138-.068.272-.073.412-.004.513-.047 1.032-.006 1.542.023.311-.17.593-.195.9-.01.117-.027.233-.069.343-.135.316-.179.664-.342.97-.071.152-.195.267-.296.4-.218.254-.407.529-.618.786-.197.18-.45.245-.6.472-.1.107-.212.167-.305.272-.143.154-.244.343-.394.492a9.4 9.4 0 0 0-.801 1.09c-.269.44-.442.926-.651 1.395-.298.564-.617 1.126-.812 1.735-.076.266-.043.561-.114.83-.025.203-.183.32-.273.489-.251.446-.327.976-.381 1.478-.011.237-.138.45-.18.682-.046.284-.055.576-.08.864-.005.655-.034 1.352.253 1.959.238.485.51.99.914 1.357.175.108.37.173.542.287.186.1.344.232.552.275.275.037.544.057.819.02.243.011.496.004.72-.108.249-.098.538-.095.771-.244.168-.092.3-.232.45-.35.148-.095.303-.182.427-.31.305-.314.493-.729.678-1.12.05-.281.058-.573.154-.845.252-.635.13-1.01.156-1.64.063-.379-.002-.756-.048-1.13-.018-.396-.12-.786-.156-1.182-.067-.267-.2-.519-.285-.782-.085-.38-.198-.757-.266-1.141-.1-.68-.152-1.367-.145-2.052-.021-.215-.122-1.448.332-.928.188.222.242.542.377.826.072.18.213.317.302.486.09.251.177.504.28.751.122.317.291.616.387.943.107.349.317.647.528.938.336.988 1.02 1.817 1.808 2.49.402.336.786.713 1.242.974.37.152.771.207 1.16.302q.157.032.315.01c.647-.033 1.3-.065 1.909-.31.183-.077.34-.206.509-.31.254-.14.499-.285.698-.494.406-.233.751-.562 1.043-.927.176-.269.233-.6.38-.886.124-.31.291-.598.418-.908.066-.318.145-.633.15-.957-.005-.305-.117-.605-.133-.91-.133-.559-.305-1.144-.796-1.497-.245-.182-.559-.213-.842-.3-.25-.02-.478-.097-.714-.172-.306-.067-.629-.02-.94-.05-.182-.018-.363-.083-.545-.08-.196-.013-.381.085-.58.072-.258 0-.514.024-.769-.04-.218-.047-.43-.118-.65-.163-.283-.08-.572.02-.858-.024-.454-.054-.867-.257-1.27-.457a5.5 5.5 0 0 1-.935-.468c-.396-.201-.84-.482-.916-.956-.113-.512.42-.792.808-.97.433-.136.907-.01 1.352.002q.486.035.952.173c.31.046.624.082.934.123.25.049.488-.054.73-.082.213-.007.417.056.624.088.444.073.891-.023 1.332-.08.484-.08.977-.13 1.45-.262.528-.064 1.093-.039 1.54-.376.428-.224.832-.5 1.175-.841.16-.102.32-.243.407-.419.183-.315.242-.696.357-1.045.025-.132.123-.232.164-.358.096-.362.094-.762.042-1.132m-5.223-1.037-.002.005c-.103.315-.277.614-.544.812-.234.163-.48.327-.752.415-.209.065-.432.046-.654.04-.125-.005-.252-.009-.375-.028-.208-.026-.387-.13-.57-.228-.192-.099-.401-.184-.54-.358-.144-.163-.188-.377-.234-.585q-.031-.135-.058-.27c-.055-.33.03-.684.122-1.006a1.51 1.51 0 0 1 .855-.937c.133-.054.27-.094.408-.139.203-.068.417-.143.63-.125.424.038.753.346 1.121.528.325.168.36.398.477.71.062.156.143.304.175.467.046.233.013.475-.059.699"/><path d="M12.257 16.55c.444.09.816 0 1.237-.143.227-.076.46-.141.67-.261.273-.167.485-.433.623-.72l.002-.006c.176-.42.17-.842-.128-1.203-.31-.434-.608-.745-1.165-.809a3.6 3.6 0 0 1-.661-.131c-.273-.075-.553-.026-.832-.005-.32.018-.642.143-.848.396-.137.17-.307.327-.407.516-.067.13-.094.277-.117.42-.046.283-.058.586.075.845.157.329.508.487.778.71.268.224.417.341.774.39z"/></g><defs><clipPath id="a"><path fill="#fff" d="M.102.105h30.476v31.79H.102z"/></clipPath></defs></svg>