<svg xmlns="http://www.w3.org/2000/svg" width="200px" height="16px" viewBox="0 0 196 16"><path d="M103.258.023c-.473.11-.938.57-1.313 1.301-.199.39-.246.727-.191 1.434.016.246.039.625.043.844.016.48 0 .578-.203 1.355-.082.305-.172.668-.203.805-.086.36-.079.355-.27.164a7 7 0 0 1-.402-.5 7.2 7.2 0 0 0-1.235-1.36c-.554-.476-.972-.617-1.496-.503a.6.6 0 0 0-.343.19c-.215.224-.243.466-.102.892.059.183.27.546.465.8.387.516.96.985 1.582 1.301.41.207.703.305 1.055.352.093.015.214.035.273.047l.102.027v.101c0 .055-.055.395-.122.747-.062.359-.144.828-.18 1.054-.105.66-.292 1.578-.323 1.578-.012 0-.102-.105-.207-.234-.79-.961-1.473-1.527-2.094-1.742-.133-.043-.188-.051-.469-.051s-.336.008-.477.05a.8.8 0 0 0-.41.29c-.09.12-.187.394-.187.531 0 .418.39.984 1.031 1.496.426.34.715.5 1.375.75.305.117.492.168.922.242.219.036.34.067.348.086.02.055-.207 2.625-.274 3.106a5 5 0 0 0-.02.39v.243l.07.07c.13.117.434.168.556.086.101-.063.132-.184.21-.75.086-.59.102-.766.165-1.598.058-.777.097-1.172.125-1.226.039-.075.105-.082.257-.04.278.083.438.106.668.106.672 0 1.524-.258 2.094-.64.379-.247.856-.805.977-1.141a.74.74 0 0 0-.008-.543c-.133-.29-.55-.551-.914-.574q-.42-.03-1.156.27c-.485.198-1.028.526-1.336.816-.184.168-.32.25-.348.207-.023-.036-.023-.063 0-.223.125-.82.2-1.379.234-1.77.055-.566.118-.996.164-1.078.047-.097.118-.113.293-.066.082.023.27.066.414.09.508.097 1.426.062 1.97-.078.66-.168 1.144-.434 1.55-.864.277-.289.371-.535.328-.828-.05-.328-.469-.676-.941-.785-.352-.078-.782-.027-1.383.168-.547.172-1.211.5-1.785.875-.188.125-.246.148-.246.098 0-.016.027-.137.062-.274.031-.133.074-.375.098-.531.152-1.246.254-1.438 1.058-2.012.461-.328.778-.676 1.02-1.11.336-.609.437-1.128.316-1.632a1.18 1.18 0 0 0-.593-.754.9.9 0 0 0-.594-.055M131.66 1.531c-1.055.063-2.094.278-2.898.602-.985.394-1.907.976-2.524 1.597-.445.45-.96 1.16-1.242 1.727-.105.2-.371.906-.445 1.164-.176.625-.239 1.195-.219 2.106.016 1.003.082 1.445.3 2.054.419 1.149 1.067 2.106 1.9 2.797a7.2 7.2 0 0 0 1.59 1.012c.683.293 1.589.539 2.413.652.414.055 2.047.055 2.52 0 1.261-.152 2.402-.355 2.578-.46.129-.083.254-.34.535-1.09.184-.489.539-1.567.605-1.825.051-.215.047-.262-.05-.355a.77.77 0 0 0-.45-.168c-.074 0-.097.015-.168.09-.042.05-.144.195-.218.324a9 9 0 0 1-.68 1.015c-.2.247-.652.7-.86.86-.206.16-.632.402-.87.504-.637.261-1.52.328-2.262.175a4.4 4.4 0 0 1-2-.949c-.531-.425-1.047-1.093-1.38-1.785-.257-.535-.39-.933-.534-1.59-.098-.445-.121-.629-.16-1.226-.055-.903-.004-1.586.171-2.301.13-.508.22-.793.38-1.164q.298-.693.656-1.168c.109-.152.55-.61.761-.793.332-.297.75-.516 1.391-.734.66-.223 1.719-.258 2.516-.086.222.046.62.187.812.285.297.148.668.422.887.652.336.356.715 1.008.887 1.54.12.37.187.429.472.429.137.004.188-.008.258-.043.102-.055.117-.094.117-.25a21 21 0 0 0-.172-1.629 34 34 0 0 1-.172-1.164c-.023-.2-.058-.262-.183-.316-.137-.063-1.313-.313-1.742-.372a14 14 0 0 0-2.52-.117M40.188 1.594c-.422.125-.555.293-.872 1.12-.136.368-.296.763-.457 1.134-.062.14-.226.562-.37.937-.145.375-.384.969-.528 1.32-.145.356-.3.743-.344.868-.047.12-.14.363-.21.53-.071.173-.282.696-.47 1.165-.19.469-.46 1.125-.597 1.46-.137.337-.278.68-.313.77-.035.086-.195.497-.359.907-.313.789-.625 1.46-.82 1.754-.246.37-.582.566-1.2.699-.152.031-.28.07-.32.097-.129.09-.176.293-.117.497.031.097.043.117.094.128.152.028.648.032 2.43.016 2.109-.016 2.019-.008 2.078-.14.05-.114.019-.344-.067-.434-.074-.086-.148-.11-.574-.211-.555-.129-.594-.14-.68-.25a1 1 0 0 1-.097-.137c-.028-.054-.028-.3 0-.453.046-.258.77-2.445.882-2.676.098-.203-.113-.183 2.067-.183 1.347 0 1.933.008 1.965.023a.7.7 0 0 1 .125.2c.097.214.464 1.214.757 2.093.192.57.223.688.235.844.011.172.011.183-.047.25-.09.105-.207.164-.527.258-.16.047-.332.105-.383.125a.7.7 0 0 0-.301.312c-.035.09-.035.098.008.192.082.187-.153.171 2.851.18 1.457.003 2.668 0 2.696-.009.082-.02.117-.14.109-.351-.016-.195-.035-.262-.105-.297a3 3 0 0 0-.325-.086c-.523-.113-.789-.238-1.02-.473-.128-.132-.16-.183-.374-.62-.23-.473-.473-1.071-.938-2.321a60 60 0 0 0-.351-.937c-.067-.172-.18-.47-.25-.66a23 23 0 0 0-.239-.653c-.058-.164-.222-.617-.363-1.004a88 88 0 0 0-.547-1.492c-.164-.434-.39-1.05-.504-1.363l-.289-.793-.148-.414c-.106-.305-.598-1.645-.633-1.735a1 1 0 0 0-.101-.152c-.063-.07-.075-.074-.2-.074a1 1 0 0 0-.258.039m-.754 3.41c.011.023.129.355.265.742.133.387.285.828.34.98s.184.524.29.82c.1.302.257.747.347.997.18.508.297.902.277.922-.016.015-3.016.031-3.129.012-.086-.012-.09-.016-.09-.082 0-.086.082-.336.317-.95.097-.254.23-.605.293-.78.062-.177.191-.517.281-.759.176-.472.559-1.508.652-1.777.043-.121.067-.164.094-.164.024 0 .05.02.063.039M65.984 1.809l-.273.011-.066.09c-.051.074-.063.113-.07.25-.02.262.01.285.59.461.483.145.647.219.812.375.328.317.664 1.004 1.214 2.484.172.461.672 1.743.907 2.313.203.492.754 1.894.941 2.379l.629 1.664c.082.219.195.508.25.648.05.141.195.524.316.844.375 1.004.649 1.684.711 1.754.114.133.364.191.672.148.192-.027.242-.054.332-.175.059-.086.48-1.133.805-2.004.172-.469.371-.98.582-1.496.066-.16.18-.45.25-.649.074-.195.21-.554.312-.797l.391-.96c.113-.29.254-.633.313-.77.058-.133.199-.477.312-.758.215-.527.29-.71.637-1.57.453-1.13.984-2.27 1.219-2.617.32-.48.488-.598 1.152-.793.512-.149.543-.16.617-.246.168-.192.082-.524-.148-.567-.145-.027-4.457-.023-4.512.004-.102.055-.152.293-.102.477.047.16.121.21.446.289.828.195.89.218.972.34.11.16.121.425.04.757-.06.246-.477 1.496-.81 2.434-.124.351-.269.758-.32.906-.16.469-.68 1.836-.816 2.156-.074.168-.18.426-.234.575s-.153.39-.215.543c-.164.418-.36.941-.418 1.132-.031.094-.059.18-.07.188-.024.023-.09-.024-.141-.102-.094-.14-.371-.808-.785-1.879-.317-.824-.489-1.257-.856-2.187-.168-.426-.351-.91-.41-1.074a25 25 0 0 0-.242-.64c-.074-.188-.207-.536-.297-.77-.086-.235-.246-.653-.351-.93a8 8 0 0 1-.25-.711c-.102-.414-.024-.516.496-.64.472-.114.652-.165.703-.2.082-.05.113-.152.113-.355 0-.207-.035-.305-.113-.32-.063-.016-4.883-.024-5.235-.012M.598 1.828.28 1.84.2 1.93c-.082.097-.14.25-.117.324.043.129.168.21.414.266.809.18.89.207 1.047.351.05.05.117.129.145.188.07.144.128.503.148.98.031.563.027 7.586 0 8.297-.024.61-.082 1.172-.149 1.387a.53.53 0 0 1-.285.34c-.109.054-.593.167-.937.226a3 3 0 0 0-.328.07c-.078.04-.133.204-.137.407 0 .136.004.172.035.191.027.023.43.035 1.86.043 2.359.02 4.347-.02 4.984-.094 1.324-.16 2.332-.414 3.137-.797a10 10 0 0 0 .984-.562c.344-.238.895-.707 1.086-.926.469-.527.613-.707.832-1.07.48-.809.727-1.54.875-2.594.039-.309.047-.445.05-1.035 0-.785-.023-.996-.19-1.664-.184-.735-.458-1.309-.93-1.965a4.5 4.5 0 0 0-1.07-1.098c-.88-.656-2.274-1.156-3.563-1.277-.98-.094-1.02-.094-4.156-.098-1.664-.004-3.164 0-3.336.008m6.226.875c.844.129 1.305.281 1.84.61a4.7 4.7 0 0 1 1.656 1.664c.176.293.297.57.45 1.035.218.664.308 1.18.332 1.953a8.8 8.8 0 0 1-.29 2.531 4.87 4.87 0 0 1-1.269 2.29c-.242.25-.426.394-.742.589-.434.27-.68.39-.985.484-.59.184-.89.243-1.355.27a6 6 0 0 1-1.106-.074c-.507-.102-.793-.367-.94-.864-.103-.34-.11-.68-.11-5.035 0-4.61.011-5.02.129-5.21.074-.126.32-.208.796-.27.344-.047 1.2-.031 1.594.027M156.203 1.828c-.2.027-.27.16-.23.445.023.196.05.211.601.293.422.067.703.133.863.211.102.047.125.07.172.172.118.235.16.477.211 1.184.04.531.043 7.738 0 8.418-.047.86-.074 1.054-.18 1.25-.136.265-.218.304-.921.445-.477.094-.551.121-.637.219-.05.062-.055.078-.047.203.016.172.078.277.184.297.097.023 5.543.023 5.62 0 .036-.008.075-.043.095-.082.039-.078.062-.414.035-.492-.028-.067-.13-.102-.29-.102-.222 0-.847-.133-1.027-.215-.168-.082-.289-.285-.328-.554-.023-.18-.074-4.645-.05-4.856.011-.098.023-.133.046-.14.059-.016 5.942.003 5.957.019.008.004.012.93.012 2.05 0 2.524-.023 2.93-.168 3.192-.082.152-.137.215-.223.258-.09.047-.668.191-.968.246-.285.05-.375.086-.438.172a.5.5 0 0 0-.023.46q.023.048.117.06c.047.007 1.367.011 2.93.007 3.105-.008 2.93 0 2.972-.133.086-.27.016-.496-.175-.53a9 9 0 0 0-.481-.09c-.527-.094-.676-.141-.797-.25-.14-.122-.203-.266-.222-.52-.06-.61-.067-1.809-.06-5.64.013-3.805.024-4.403.083-4.614.094-.348.273-.477.848-.59.183-.035.398-.082.484-.098.281-.054.344-.128.344-.402 0-.14-.04-.258-.102-.289-.05-.027-4.242-.031-5.176-.008l-.527.016-.066.066c-.11.11-.13.344-.043.473.054.086.172.129.578.207.418.086.672.156.777.223.078.05.203.28.254.484.05.2.07.723.086 2.527.012 1.356.008 1.684-.012 1.696-.035.02-5.984.015-6-.008-.008-.008-.008-.903.004-1.988.012-1.684.02-1.997.05-2.149.044-.219.099-.39.161-.473.094-.132.36-.226.977-.343.425-.078.492-.133.496-.399 0-.152-.028-.246-.082-.308-.035-.036-.192-.04-2.801-.036-1.524 0-2.82.008-2.883.016M190.23 1.824c-.062.012-.171.145-.195.242-.031.098-.031.247 0 .301.035.067.164.117.445.176.704.152.958.23 1.055.316.063.055.168.258.207.399.02.066.051.254.07.418.036.27.036.644.047 4.172.004 3.91-.004 4.73-.07 5.351-.05.465-.078.567-.207.73-.082.106-.2.153-.746.286-.625.156-.656.168-.746.265-.098.11-.113.172-.067.29.059.156.125.195.356.21.11.008 1.379.012 2.824.008 2.942-.008 2.707.008 2.766-.16.043-.117.035-.351-.012-.418-.05-.086-.137-.113-.5-.176-.55-.09-.781-.152-.871-.234a1 1 0 0 1-.234-.414c-.051-.242-.067-1.07-.075-4.64-.011-3.876 0-5.114.063-5.505.039-.246.101-.453.164-.535.09-.113.394-.219 1.016-.344.355-.07.39-.082.437-.175.047-.102.066-.336.031-.434-.05-.156.188-.144-2.914-.14-1.539 0-2.816.007-2.844.011m0 0" style="stroke:none;fill-rule:nonzero;fill:#fff;fill-opacity:1"/></svg>