<svg width="200" height="201" viewBox="0 10 200 125" version="1.1" xmlns="http://www.w3.org/2000/svg" desc="Created with imagetracer.js version 1.2.6" ><path fill="rgb(0,0,0)" stroke="rgb(0,0,0)" stroke-width="1" opacity="0" d="M 0 0 L 200 0 L 200 201 L 0 201 L 0 0 Z M 41 11 L 41 12 L 45 12 L 41 11 Z M 52 11 L 52 12 L 56 12 L 52 11 Z M 91 11 L 91 12 L 94 12 L 91 11 Z M 102 11 L 102 12 L 106 12 L 102 11 Z M 141 11 L 141 12 L 144 12 L 141 11 Z M 152 11 L 152 12 L 155 12 L 152 11 Z M 38 12 L 38 13 L 40 13 L 38 12 Z M 48 12 L 35 15 L 30 18 Q 20 25 16 39 L 16 51 L 21 63 L 72 131 Q 71 133 74 132 L 75 129 L 94 104 L 87 94 Q 88 91 86 92 L 74 107 Q 75 109 73 108 L 34 57 L 30 49 Q 29 40 32 36 Q 36 29 44 27 Q 54 26 59 30 L 65 17 L 56 13 L 48 12 Z M 57 12 L 57 13 L 59 13 L 57 12 Z M 97 12 L 87 14 L 76 21 Q 69 27 66 38 Q 64 53 70 61 L 123 132 L 131 122 L 129 117 L 106 87 L 125 62 L 130 49 Q 131 33 124 26 Q 118 18 109 14 L 97 12 Z M 107 12 L 107 13 L 109 13 L 107 12 Z M 147 12 Q 145 15 140 13 L 130 17 L 136 28 L 136 30 L 143 27 Q 154 25 159 30 L 165 40 Q 166 49 163 55 L 126 104 L 133 114 L 136 115 L 175 62 L 180 48 Q 180 32 172 24 Q 167 17 159 14 L 147 12 Z M 44 28 L 44 29 L 53 29 L 44 28 Z M 143 28 L 143 29 L 153 29 L 143 28 Z M 180 33 L 179 36 L 180 36 L 180 33 Z M 66 34 L 65 37 L 66 37 L 66 34 Z M 16 35 L 15 38 L 16 38 L 16 35 Z M 131 36 L 130 39 L 131 39 L 131 36 Z M 181 36 L 180 40 L 181 40 L 181 36 Z M 65 37 L 64 44 L 65 44 L 65 37 Z M 15 38 L 14 51 L 15 51 L 15 38 Z M 164 39 L 163 50 L 164 50 L 164 39 Z M 132 40 L 131 48 L 132 48 L 132 40 Z M 32 41 L 31 48 L 32 48 L 32 41 Z M 182 43 L 181 47 L 182 47 L 182 43 Z M 65 45 L 64 51 L 65 51 L 65 45 Z M 33 49 L 32 52 L 33 52 L 33 49 Z M 131 49 L 130 53 L 131 53 L 131 49 Z M 181 49 L 180 53 L 181 53 L 181 49 Z M 16 52 L 15 55 L 16 55 L 16 52 Z M 66 52 L 65 55 L 66 55 L 66 52 Z M 180 53 L 179 56 L 180 56 L 180 53 Z M 72 105 L 72 107 L 74 106 L 72 105 Z M 69 153 L 69 154 L 72 154 L 69 153 Z M 11 154 L 11 155 L 18 155 L 11 154 Z M 29 154 L 29 155 L 34 155 L 29 154 Z M 45 154 L 45 155 L 52 155 L 45 154 Z M 65 154 L 65 155 L 67 155 L 65 154 Z M 74 154 L 74 155 L 76 155 L 74 154 Z M 92 154 L 92 155 L 99 155 L 92 154 Z M 113 154 L 113 155 L 119 155 L 113 154 Z M 128 154 L 128 155 L 141 155 L 128 154 Z M 155 154 L 155 155 L 162 155 L 155 154 Z M 171 154 L 171 155 L 177 155 L 171 154 Z M 69 155 L 61 158 L 54 168 Q 53 175 56 179 Q 60 184 68 186 L 73 186 L 80 183 Q 84 180 86 174 Q 87 166 84 163 Q 80 155 69 155 Z M 10 156 L 17 184 L 19 185 L 26 185 L 30 174 Q 29 170 32 171 L 36 184 L 37 185 L 44 185 L 46 181 Q 48 167 53 157 L 44 156 L 40 173 L 35 158 Q 34 155 29 156 L 27 158 L 23 173 L 18 159 L 18 156 L 10 156 Z M 91 156 L 91 185 L 92 185 L 99 185 L 100 169 L 111 185 L 120 185 L 120 185 L 120 156 L 111 156 L 111 169 L 110 170 L 112 172 L 101 159 L 99 156 L 91 156 Z M 127 156 L 127 185 L 135 185 L 135 176 Q 142 177 146 174 L 149 169 L 148 161 L 142 156 L 127 156 Z M 154 156 L 154 185 L 155 185 L 162 185 L 162 157 L 162 156 L 154 156 Z M 169 156 L 169 185 L 186 185 L 186 178 L 178 178 L 177 178 L 177 156 L 169 156 Z M 9 157 L 8 160 L 9 160 L 9 157 Z M 26 157 L 25 160 L 26 160 L 26 157 Z M 37 157 L 36 160 L 37 160 L 37 157 Z M 54 157 L 53 160 L 54 160 L 54 157 Z M 90 157 L 89 185 L 90 185 L 90 157 Z M 122 157 L 121 184 L 122 184 L 122 157 Z M 126 157 L 125 184 L 126 184 L 126 157 Z M 153 157 L 152 185 L 153 185 L 153 157 Z M 164 157 L 163 185 L 164 185 L 164 157 Z M 168 157 L 167 184 L 168 184 L 168 157 Z M 21 159 L 20 162 L 21 162 L 21 159 Z M 42 159 L 41 162 L 42 162 L 42 159 Z M 25 160 L 24 163 L 25 163 L 25 160 Z M 38 160 L 37 163 L 38 163 L 38 160 Z M 22 163 L 21 166 L 22 166 L 22 163 Z M 24 163 L 23 166 L 24 166 L 24 163 Z M 39 163 L 38 166 L 39 166 L 39 163 Z M 41 163 L 40 166 L 41 166 L 41 163 Z M 151 163 L 150 169 L 151 169 L 151 163 Z M 11 164 L 10 167 L 11 167 L 11 164 Z M 52 164 L 51 167 L 52 167 L 52 164 Z M 87 164 L 86 167 L 87 167 L 87 164 Z M 23 166 L 22 169 L 23 169 L 23 166 Z M 40 166 L 39 169 L 40 169 L 40 166 Z M 12 167 L 11 170 L 12 170 L 12 167 Z M 51 167 L 50 170 L 51 170 L 51 167 Z M 88 167 L 87 174 L 88 174 L 88 167 Z M 53 168 L 52 173 L 53 173 L 53 168 Z M 101 172 L 101 184 L 101 175 Q 103 173 101 172 Z M 14 174 L 13 177 L 14 177 L 14 174 Z M 30 174 Q 29 178 32 177 Q 33 173 30 174 Z M 49 174 L 48 177 L 49 177 L 49 174 Z M 54 174 L 53 177 L 54 177 L 54 174 Z M 87 174 L 86 177 L 87 177 L 87 174 Z M 179 176 L 179 177 L 186 177 L 179 176 Z M 15 177 L 14 180 L 15 180 L 15 177 Z M 30 177 L 29 180 L 30 180 L 30 177 Z M 33 177 L 32 180 L 33 180 L 33 177 Z M 48 177 L 47 180 L 48 180 L 48 177 Z M 136 177 L 137 185 L 137 178 L 141 178 L 136 177 Z M 188 178 L 187 185 L 188 185 L 188 178 Z M 29 180 L 28 183 L 29 183 L 29 180 Z M 34 180 L 33 183 L 34 183 L 34 180 Z M 47 181 L 46 184 L 47 184 L 47 181 Z M 19 186 L 19 187 L 26 187 L 19 186 Z M 37 186 L 37 187 L 44 187 L 37 186 Z M 65 186 L 65 187 L 67 187 L 65 186 Z M 74 186 L 74 187 L 76 187 L 74 186 Z M 92 186 L 92 187 L 99 187 L 92 186 Z M 113 186 L 113 187 L 119 187 L 113 186 Z M 128 186 L 128 187 L 135 187 L 128 186 Z M 155 186 L 155 187 L 162 187 L 155 186 Z M 171 186 L 171 187 L 186 187 L 171 186 Z M 69 187 L 69 188 L 72 188 L 69 187 Z " /><path fill="rgb(0,0,0)" stroke="rgb(0,0,0)" stroke-width="1" opacity="0" d="M 93.5 27 L 102.5 27 L 112 33.5 Q 116.7 38.3 115 49.5 L 113 54.5 L 97.5 75 L 82 53.5 Q 78.9 49.1 80 40.5 Q 82.1 32.6 88.5 29 L 93.5 27 Z M 94 28 L 94 29 L 102 29 L 94 28 Z M 114 39 L 113 43 L 114 43 L 114 39 Z M 82 41 L 81 49 L 82 49 L 82 41 Z M 114 46 L 113 50 L 114 50 L 114 46 Z M 83 49 L 82 52 L 83 52 L 83 49 Z " /><path fill="rgb(0,0,0)" stroke="rgb(0,0,0)" stroke-width="1" opacity="0" d="M 69.5 163 Q 75.1 163.5 77 167.5 Q 78.5 175.5 73.5 177 L 69.5 178 L 63 173.5 Q 61.5 165.5 66.5 164 L 69.5 163 Z M 65 167 L 64 174 L 65 174 L 65 167 Z M 76 167 L 75 174 L 76 174 L 76 167 Z " /><path fill="rgb(0,0,0)" stroke="rgb(0,0,0)" stroke-width="1" opacity="0" d="M 135 163 Q 138.8 162 140 164.5 Q 140.8 168.3 138.5 169 L 135 169 L 135 163 Z M 136 164 Q 134 170 139 168 Q 141 162 136 164 Z " /><path fill="rgb(254,254,254)" stroke="rgb(254,254,254)" stroke-width="1" opacity="1" d="M 91.5 14 Q 102.5 12.1 108 15.5 L 105.5 16 L 104.5 15 L 91.5 15 L 87.5 16 L 87.5 15 L 91.5 14 Z " /><path fill="rgb(254,254,254)" stroke="rgb(254,254,254)" stroke-width="1" opacity="1" d="M 141.5 14 Q 152 12.5 158 15.5 L 154.5 16 L 153.5 15 L 141.5 15 L 135 17.5 L 135.5 19 L 133 18 L 134.5 21 L 137 20.5 L 138.5 17 L 140.5 17 L 143.5 16 L 144 22.5 Q 142.8 25.3 141.5 23 L 139.5 24 Q 138.3 21.7 137 24.5 L 136.5 26 L 131 18.5 L 141.5 14 Z M 136 21 L 137 24 L 138 22 L 136 21 Z " /><path fill="rgb(254,254,254)" stroke="rgb(254,254,254)" stroke-width="1" opacity="1" d="M 48.5 24 L 57.5 27 L 58 25.5 L 57.5 24 L 60 24.5 L 57.5 28 Q 55.2 25.3 49.5 26 L 48.5 24 Z " /><path fill="rgb(254,254,254)" stroke="rgb(254,254,254)" stroke-width="1" opacity="1" d="M 141.5 25 L 144 25.5 L 137.5 28 L 137.5 27 L 141.5 25 Z " /><path fill="rgb(254,254,254)" stroke="rgb(254,254,254)" stroke-width="1" opacity="1" d="M 128.5 42 L 129 45.5 L 128 45.5 L 128.5 42 Z " /><path fill="rgb(254,254,254)" stroke="rgb(254,254,254)" stroke-width="1" opacity="1" d="M 161.5 58 L 161 59.5 L 162 61.5 L 158 63.5 L 156.5 66 L 157 64.5 L 161.5 58 Z " /><path fill="rgb(254,254,254)" stroke="rgb(254,254,254)" stroke-width="1" opacity="1" d="M 168.5 64 L 171 64.5 L 168.5 68 L 169 66.5 L 168.5 64 Z " /><path fill="rgb(254,254,254)" stroke="rgb(254,254,254)" stroke-width="1" opacity="1" d="M 86.5 80 Q 88.5 84 90.5 80 L 96 80 L 96 86.5 L 92 86.5 L 93.5 89 Q 94.8 86.8 96 89.5 L 95 91.5 L 95.5 93 L 86.5 80 Z M 91 81 L 92 83 Q 93 80 91 81 Z M 90 82 L 89 84 L 91 85 L 90 82 Z M 93 84 L 94 86 Q 95 83 93 84 Z " /><path fill="rgb(254,254,254)" stroke="rgb(254,254,254)" stroke-width="1" opacity="1" d="M 85.5 93 L 87 95.5 L 84 95.5 L 85.5 93 Z " /><path fill="rgb(254,254,254)" stroke="rgb(254,254,254)" stroke-width="1" opacity="1" d="M 98.5 96 L 102.5 96 Q 104.8 95.3 104 97.5 L 103 99.5 L 103 101.5 L 104 103.5 L 102 102.5 L 98.5 96 Z M 101 97 L 100 99 L 102 100 L 101 97 Z " /><path fill="rgb(254,254,254)" stroke="rgb(254,254,254)" stroke-width="1" opacity="1" d="M 112.5 97 L 123 111.5 L 122 111.5 L 120.5 109 L 119 112 L 113.5 112 L 113 110.5 Q 110.5 109 112 103.5 L 114 103.5 L 112 100.5 L 113 98.5 L 112.5 97 Z M 116 105 L 115 107 L 119 108 L 119 107 L 116 105 Z M 118 108 Q 116 111 119 110 L 118 108 Z " /><path fill="rgb(254,254,254)" stroke="rgb(254,254,254)" stroke-width="1" opacity="1" d="M 64.5 99 L 72 110 Q 74.7 111.1 74 108.5 L 79.5 101 L 80 102.5 L 80 104.5 L 79 106.5 L 80 112 L 75.5 111 L 73.5 111 L 71.5 112 L 69 110.5 L 69 112 L 64 112 L 64.5 105 L 68 105.5 L 66.5 103 Q 65.3 105.3 64 102.5 L 65 100.5 L 64.5 99 Z M 79 104 L 77 107 L 79 106 L 79 104 Z M 67 106 L 66 108 L 68 109 L 67 106 Z M 70 107 L 69 109 L 71 110 L 70 107 Z " /><path fill="rgb(254,254,254)" stroke="rgb(254,254,254)" stroke-width="1" opacity="1" d="M 82.5 176 L 83 177.5 L 80.5 181 L 80 179.5 L 80.5 177 L 82 177.5 L 82.5 176 Z " /><path fill="rgb(254,254,254)" stroke="rgb(254,254,254)" stroke-width="1" opacity="1" d="M 160.5 176 L 161 183.5 L 160 183.5 L 160.5 176 Z " /><path fill="rgb(254,254,254)" stroke="rgb(254,254,254)" stroke-width="1" opacity="1" d="M 176.5 179 L 185 179 L 185 184 L 176 183.5 L 184 183 L 184 180 L 176.5 180 L 176.5 179 Z " /><path fill="rgb(255,255,255)" stroke="rgb(255,255,255)" stroke-width="1" opacity="0.37254901960784315" d="M 41.5 13 L 44 13.5 L 41.5 14 L 41.5 13 Z " /><path fill="rgb(255,255,255)" stroke="rgb(255,255,255)" stroke-width="1" opacity="0.37254901960784315" d="M 52.5 13 L 55 13.5 L 52.5 14 L 52.5 13 Z " /><path fill="rgb(255,255,255)" stroke="rgb(255,255,255)" stroke-width="1" opacity="0.37254901960784315" d="M 102.5 13 L 105 13.5 L 102.5 14 L 102.5 13 Z " /><path fill="rgb(255,255,255)" stroke="rgb(255,255,255)" stroke-width="1" opacity="0.37254901960784315" d="M 31.5 17 L 30.5 19 L 31.5 17 Z " /><path fill="rgb(255,255,255)" stroke="rgb(255,255,255)" stroke-width="1" opacity="0.37254901960784315" d="M 131.5 17 L 131.5 20 Q 128.5 18.5 131.5 17 Z " /><path fill="rgb(255,255,255)" stroke="rgb(255,255,255)" stroke-width="1" opacity="0.37254901960784315" d="M 165.5 18 L 166.5 20 L 165.5 18 Z " /><path fill="rgb(255,255,255)" stroke="rgb(255,255,255)" stroke-width="1" opacity="0.37254901960784315" d="M 78.5 19 L 77.5 21 L 78.5 19 Z " /><path fill="rgb(255,255,255)" stroke="rgb(255,255,255)" stroke-width="1" opacity="0.37254901960784315" d="M 27.5 20 L 23.5 25 L 27.5 20 Z " /><path fill="rgb(255,255,255)" stroke="rgb(255,255,255)" stroke-width="1" opacity="0.37254901960784315" d="M 119.5 21 L 121.5 24 L 119.5 21 Z " /><path fill="rgb(255,255,255)" stroke="rgb(255,255,255)" stroke-width="1" opacity="0.37254901960784315" d="M 73.5 24 L 72.5 26 L 73.5 24 Z " /><path fill="rgb(255,255,255)" stroke="rgb(255,255,255)" stroke-width="1" opacity="0.37254901960784315" d="M 172.5 25 L 173.5 27 L 172.5 25 Z " /><path fill="rgb(255,255,255)" stroke="rgb(255,255,255)" stroke-width="1" opacity="0.37254901960784315" d="M 99.5 26 L 102 26.5 L 99.5 27 L 99.5 26 Z " /><path fill="rgb(255,255,255)" stroke="rgb(255,255,255)" stroke-width="1" opacity="0.37254901960784315" d="M 123.5 26 L 124.5 28 L 123.5 26 Z " /><path fill="rgb(255,255,255)" stroke="rgb(255,255,255)" stroke-width="1" opacity="0.37254901960784315" d="M 143.5 26 L 146 26.5 L 143.5 27 L 143.5 26 Z " /><path fill="rgb(255,255,255)" stroke="rgb(255,255,255)" stroke-width="1" opacity="0.37254901960784315" d="M 149.5 26 L 152 26.5 L 149.5 27 L 149.5 26 Z " /><path fill="rgb(255,255,255)" stroke="rgb(255,255,255)" stroke-width="1" opacity="0.37254901960784315" d="M 109.5 30 L 111.5 33 L 109.5 30 Z " /><path fill="rgb(255,255,255)" stroke="rgb(255,255,255)" stroke-width="1" opacity="0.37254901960784315" d="M 159.5 30 L 161.5 33 L 159.5 30 Z " /><path fill="rgb(255,255,255)" stroke="rgb(255,255,255)" stroke-width="1" opacity="0.37254901960784315" d="M 66.5 38 L 67 40.5 L 66 40.5 L 66.5 38 Z " /><path fill="rgb(255,255,255)" stroke="rgb(255,255,255)" stroke-width="1" opacity="0.37254901960784315" d="M 16.5 40 L 17 43.5 L 16 43.5 L 16.5 40 Z " /><path fill="rgb(255,255,255)" stroke="rgb(255,255,255)" stroke-width="1" opacity="0.37254901960784315" d="M 29.5 42 L 30 46.5 L 29 46.5 L 29.5 42 Z " /><path fill="rgb(255,255,255)" stroke="rgb(255,255,255)" stroke-width="1" opacity="0.37254901960784315" d="M 79.5 42 L 80 47.5 L 79 47.5 L 79.5 42 Z " /><path fill="rgb(255,255,255)" stroke="rgb(255,255,255)" stroke-width="1" opacity="0.37254901960784315" d="M 129.5 42 L 130 45.5 L 129 45.5 L 129.5 42 Z " /><path fill="rgb(255,255,255)" stroke="rgb(255,255,255)" stroke-width="1" opacity="0.37254901960784315" d="M 16.5 45 L 17 48.5 L 16 48.5 L 16.5 45 Z " /><path fill="rgb(255,255,255)" stroke="rgb(255,255,255)" stroke-width="1" opacity="0.37254901960784315" d="M 66.5 47 L 67 49.5 L 66 49.5 L 66.5 47 Z " /><path fill="rgb(255,255,255)" stroke="rgb(255,255,255)" stroke-width="1" opacity="0.37254901960784315" d="M 112.5 55 L 111.5 57 L 112.5 55 Z " /><path fill="rgb(255,255,255)" stroke="rgb(255,255,255)" stroke-width="1" opacity="0.37254901960784315" d="M 162.5 55 L 161.5 57 L 162.5 55 Z " /><path fill="rgb(255,255,255)" stroke="rgb(255,255,255)" stroke-width="1" opacity="0.37254901960784315" d="M 34.5 57 L 35.5 59 L 34.5 57 Z " /><path fill="rgb(255,255,255)" stroke="rgb(255,255,255)" stroke-width="1" opacity="0.37254901960784315" d="M 125.5 59 L 124.5 61 L 125.5 59 Z " /><path fill="rgb(255,255,255)" stroke="rgb(255,255,255)" stroke-width="1" opacity="0.37254901960784315" d="M 159.5 59 L 158.5 61 L 159.5 59 Z " /><path fill="rgb(255,255,255)" stroke="rgb(255,255,255)" stroke-width="1" opacity="0.37254901960784315" d="M 86.5 60 L 87.5 62 L 86.5 60 Z " /><path fill="rgb(255,255,255)" stroke="rgb(255,255,255)" stroke-width="1" opacity="0.37254901960784315" d="M 107.5 62 L 106.5 64 L 107.5 62 Z " /><path fill="rgb(255,255,255)" stroke="rgb(255,255,255)" stroke-width="1" opacity="0.37254901960784315" d="M 22.5 63 L 23.5 65 L 22.5 63 Z " /><path fill="rgb(255,255,255)" stroke="rgb(255,255,255)" stroke-width="1" opacity="0.37254901960784315" d="M 39.5 64 L 40.5 66 L 39.5 64 Z " /><path fill="rgb(255,255,255)" stroke="rgb(255,255,255)" stroke-width="1" opacity="0.37254901960784315" d="M 73.5 64 L 74.5 66 L 73.5 64 Z " /><path fill="rgb(255,255,255)" stroke="rgb(255,255,255)" stroke-width="1" opacity="0.37254901960784315" d="M 89.5 64 L 90.5 66 L 89.5 64 Z " /><path fill="rgb(255,255,255)" stroke="rgb(255,255,255)" stroke-width="1" opacity="0.37254901960784315" d="M 171.5 65 L 170.5 67 L 171.5 65 Z " /><path fill="rgb(255,255,255)" stroke="rgb(255,255,255)" stroke-width="1" opacity="0.37254901960784315" d="M 104.5 66 L 103.5 68 L 104.5 66 Z " /><path fill="rgb(255,255,255)" stroke="rgb(255,255,255)" stroke-width="1" opacity="0.37254901960784315" d="M 120.5 66 L 119.5 68 L 120.5 66 Z " /><path fill="rgb(255,255,255)" stroke="rgb(255,255,255)" stroke-width="1" opacity="0.37254901960784315" d="M 25.5 67 L 26.5 69 L 25.5 67 Z " /><path fill="rgb(255,255,255)" stroke="rgb(255,255,255)" stroke-width="1" opacity="0.37254901960784315" d="M 42.5 68 L 43.5 70 L 42.5 68 Z " /><path fill="rgb(255,255,255)" stroke="rgb(255,255,255)" stroke-width="1" opacity="0.37254901960784315" d="M 76.5 68 L 77.5 70 L 76.5 68 Z " /><path fill="rgb(255,255,255)" stroke="rgb(255,255,255)" stroke-width="1" opacity="0.37254901960784315" d="M 92.5 68 L 93.5 70 L 92.5 68 Z " /><path fill="rgb(255,255,255)" stroke="rgb(255,255,255)" stroke-width="1" opacity="0.37254901960784315" d="M 168.5 69 L 167.5 71 L 168.5 69 Z " /><path fill="rgb(255,255,255)" stroke="rgb(255,255,255)" stroke-width="1" opacity="0.37254901960784315" d="M 101.5 70 L 100.5 72 L 101.5 70 Z " /><path fill="rgb(255,255,255)" stroke="rgb(255,255,255)" stroke-width="1" opacity="0.37254901960784315" d="M 117.5 70 L 116.5 72 L 117.5 70 Z " /><path fill="rgb(255,255,255)" stroke="rgb(255,255,255)" stroke-width="1" opacity="0.37254901960784315" d="M 151.5 70 L 150.5 72 L 151.5 70 Z " /><path fill="rgb(255,255,255)" stroke="rgb(255,255,255)" stroke-width="1" opacity="0.37254901960784315" d="M 28.5 71 L 29.5 73 L 28.5 71 Z " /><path fill="rgb(255,255,255)" stroke="rgb(255,255,255)" stroke-width="1" opacity="0.37254901960784315" d="M 45.5 72 L 46.5 74 L 45.5 72 Z " /><path fill="rgb(255,255,255)" stroke="rgb(255,255,255)" stroke-width="1" opacity="0.37254901960784315" d="M 79.5 72 L 80.5 74 L 79.5 72 Z " /><path fill="rgb(255,255,255)" stroke="rgb(255,255,255)" stroke-width="1" opacity="0.37254901960784315" d="M 99.5 73 L 98.5 75 L 99.5 73 Z " /><path fill="rgb(255,255,255)" stroke="rgb(255,255,255)" stroke-width="1" opacity="0.37254901960784315" d="M 165.5 73 L 164.5 75 L 165.5 73 Z " /><path fill="rgb(255,255,255)" stroke="rgb(255,255,255)" stroke-width="1" opacity="0.37254901960784315" d="M 114.5 74 L 113.5 76 L 114.5 74 Z " /><path fill="rgb(255,255,255)" stroke="rgb(255,255,255)" stroke-width="1" opacity="0.37254901960784315" d="M 148.5 74 L 147.5 76 L 148.5 74 Z " /><path fill="rgb(255,255,255)" stroke="rgb(255,255,255)" stroke-width="1" opacity="0.37254901960784315" d="M 48.5 76 L 49.5 78 L 48.5 76 Z " /><path fill="rgb(255,255,255)" stroke="rgb(255,255,255)" stroke-width="1" opacity="0.37254901960784315" d="M 162.5 77 L 161.5 79 L 162.5 77 Z " /><path fill="rgb(255,255,255)" stroke="rgb(255,255,255)" stroke-width="1" opacity="0.37254901960784315" d="M 145.5 78 L 144.5 80 L 145.5 78 Z " /><path fill="rgb(255,255,255)" stroke="rgb(255,255,255)" stroke-width="1" opacity="0.37254901960784315" d="M 84.5 79 L 85.5 81 L 84.5 79 Z " /><path fill="rgb(255,255,255)" stroke="rgb(255,255,255)" stroke-width="1" opacity="0.37254901960784315" d="M 51.5 80 L 52.5 82 L 51.5 80 Z " /><path fill="rgb(255,255,255)" stroke="rgb(255,255,255)" stroke-width="1" opacity="0.37254901960784315" d="M 109.5 81 L 108.5 83 L 109.5 81 Z " /><path fill="rgb(255,255,255)" stroke="rgb(255,255,255)" stroke-width="1" opacity="0.37254901960784315" d="M 159.5 81 L 158.5 83 L 159.5 81 Z " /><path fill="rgb(255,255,255)" stroke="rgb(255,255,255)" stroke-width="1" opacity="0.37254901960784315" d="M 36.5 82 L 37.5 84 L 36.5 82 Z " /><path fill="rgb(255,255,255)" stroke="rgb(255,255,255)" stroke-width="1" opacity="0.37254901960784315" d="M 142.5 82 L 141.5 84 L 142.5 82 Z " /><path fill="rgb(255,255,255)" stroke="rgb(255,255,255)" stroke-width="1" opacity="0.37254901960784315" d="M 87.5 83 L 88.5 85 L 87.5 83 Z " /><path fill="rgb(255,255,255)" stroke="rgb(255,255,255)" stroke-width="1" opacity="0.37254901960784315" d="M 54.5 84 L 55.5 86 L 54.5 84 Z " /><path fill="rgb(255,255,255)" stroke="rgb(255,255,255)" stroke-width="1" opacity="0.37254901960784315" d="M 39.5 86 L 40.5 88 L 39.5 86 Z " /><path fill="rgb(255,255,255)" stroke="rgb(255,255,255)" stroke-width="1" opacity="0.37254901960784315" d="M 139.5 86 L 138.5 88 L 139.5 86 Z " /><path fill="rgb(255,255,255)" stroke="rgb(255,255,255)" stroke-width="1" opacity="0.37254901960784315" d="M 57.5 88 L 58.5 90 L 57.5 88 Z " /><path fill="rgb(255,255,255)" stroke="rgb(255,255,255)" stroke-width="1" opacity="0.37254901960784315" d="M 154.5 88 L 153.5 90 L 154.5 88 Z " /><path fill="rgb(255,255,255)" stroke="rgb(255,255,255)" stroke-width="1" opacity="0.37254901960784315" d="M 42.5 90 L 43.5 92 L 42.5 90 Z " /><path fill="rgb(255,255,255)" stroke="rgb(255,255,255)" stroke-width="1" opacity="0.37254901960784315" d="M 108.5 90 L 109.5 92 L 108.5 90 Z " /><path fill="rgb(255,255,255)" stroke="rgb(255,255,255)" stroke-width="1" opacity="0.37254901960784315" d="M 136.5 90 L 135.5 92 L 136.5 90 Z " /><path fill="rgb(255,255,255)" stroke="rgb(255,255,255)" stroke-width="1" opacity="0.37254901960784315" d="M 85.5 92 L 84.5 94 L 85.5 92 Z " /><path fill="rgb(255,255,255)" stroke="rgb(255,255,255)" stroke-width="1" opacity="0.37254901960784315" d="M 151.5 92 L 150.5 94 L 151.5 92 Z " /><path fill="rgb(255,255,255)" stroke="rgb(255,255,255)" stroke-width="1" opacity="0.37254901960784315" d="M 45.5 94 L 46.5 96 L 45.5 94 Z " /><path fill="rgb(255,255,255)" stroke="rgb(255,255,255)" stroke-width="1" opacity="0.37254901960784315" d="M 95.5 94 L 96.5 96 L 95.5 94 Z " /><path fill="rgb(255,255,255)" stroke="rgb(255,255,255)" stroke-width="1" opacity="0.37254901960784315" d="M 111.5 94 L 112.5 96 L 111.5 94 Z " /><path fill="rgb(255,255,255)" stroke="rgb(255,255,255)" stroke-width="1" opacity="0.37254901960784315" d="M 62.5 95 L 63.5 97 L 62.5 95 Z " /><path fill="rgb(255,255,255)" stroke="rgb(255,255,255)" stroke-width="1" opacity="0.37254901960784315" d="M 82.5 96 L 81.5 98 L 82.5 96 Z " /><path fill="rgb(255,255,255)" stroke="rgb(255,255,255)" stroke-width="1" opacity="0.37254901960784315" d="M 148.5 96 L 147.5 98 L 148.5 96 Z " /><path fill="rgb(255,255,255)" stroke="rgb(255,255,255)" stroke-width="1" opacity="0.37254901960784315" d="M 89.5 97 L 90.5 99 L 89.5 97 Z " /><path fill="rgb(255,255,255)" stroke="rgb(255,255,255)" stroke-width="1" opacity="0.37254901960784315" d="M 131.5 97 L 130.5 99 L 131.5 97 Z " /><path fill="rgb(255,255,255)" stroke="rgb(255,255,255)" stroke-width="1" opacity="0.37254901960784315" d="M 48.5 98 L 49.5 100 L 48.5 98 Z " /><path fill="rgb(255,255,255)" stroke="rgb(255,255,255)" stroke-width="1" opacity="0.37254901960784315" d="M 98.5 98 L 99.5 100 L 98.5 98 Z " /><path fill="rgb(255,255,255)" stroke="rgb(255,255,255)" stroke-width="1" opacity="0.37254901960784315" d="M 114.5 98 L 115.5 100 L 114.5 98 Z " /><path fill="rgb(255,255,255)" stroke="rgb(255,255,255)" stroke-width="1" opacity="0.37254901960784315" d="M 65.5 99 L 66.5 101 L 65.5 99 Z " /><path fill="rgb(255,255,255)" stroke="rgb(255,255,255)" stroke-width="1" opacity="0.37254901960784315" d="M 79.5 100 L 78.5 102 L 79.5 100 Z " /><path fill="rgb(255,255,255)" stroke="rgb(255,255,255)" stroke-width="1" opacity="0.37254901960784315" d="M 145.5 100 L 144.5 102 L 145.5 100 Z " /><path fill="rgb(255,255,255)" stroke="rgb(255,255,255)" stroke-width="1" opacity="0.37254901960784315" d="M 92.5 101 L 94 103.5 L 92 104.5 L 93 102.5 L 92.5 101 Z " /><path fill="rgb(255,255,255)" stroke="rgb(255,255,255)" stroke-width="1" opacity="0.37254901960784315" d="M 128.5 101 L 127.5 103 L 128.5 101 Z " /><path fill="rgb(255,255,255)" stroke="rgb(255,255,255)" stroke-width="1" opacity="0.37254901960784315" d="M 117.5 102 L 118.5 104 L 117.5 102 Z " /><path fill="rgb(255,255,255)" stroke="rgb(255,255,255)" stroke-width="1" opacity="0.37254901960784315" d="M 68.5 103 L 69.5 105 L 68.5 103 Z " /><path fill="rgb(255,255,255)" stroke="rgb(255,255,255)" stroke-width="1" opacity="0.37254901960784315" d="M 76.5 104 L 75.5 106 L 76.5 104 Z " /><path fill="rgb(255,255,255)" stroke="rgb(255,255,255)" stroke-width="1" opacity="0.37254901960784315" d="M 142.5 104 L 141.5 106 L 142.5 104 Z " /><path fill="rgb(255,255,255)" stroke="rgb(255,255,255)" stroke-width="1" opacity="0.37254901960784315" d="M 53.5 105 L 54.5 107 L 53.5 105 Z " /><path fill="rgb(255,255,255)" stroke="rgb(255,255,255)" stroke-width="1" opacity="0.37254901960784315" d="M 103.5 105 L 104.5 107 L 103.5 105 Z " /><path fill="rgb(255,255,255)" stroke="rgb(255,255,255)" stroke-width="1" opacity="0.37254901960784315" d="M 120.5 106 L 121.5 108 L 120.5 106 Z " /><path fill="rgb(255,255,255)" stroke="rgb(255,255,255)" stroke-width="1" opacity="0.37254901960784315" d="M 128.5 106 L 129.5 108 L 128.5 106 Z " /><path fill="rgb(255,255,255)" stroke="rgb(255,255,255)" stroke-width="1" opacity="0.37254901960784315" d="M 71.5 107 L 74 108.5 L 72.5 109 L 71.5 107 Z " /><path fill="rgb(255,255,255)" stroke="rgb(255,255,255)" stroke-width="1" opacity="0.37254901960784315" d="M 90.5 107 L 89.5 109 L 90.5 107 Z " /><path fill="rgb(255,255,255)" stroke="rgb(255,255,255)" stroke-width="1" opacity="0.37254901960784315" d="M 56.5 109 L 57.5 111 L 56.5 109 Z " /><path fill="rgb(255,255,255)" stroke="rgb(255,255,255)" stroke-width="1" opacity="0.37254901960784315" d="M 106.5 109 L 107.5 111 L 106.5 109 Z " /><path fill="rgb(255,255,255)" stroke="rgb(255,255,255)" stroke-width="1" opacity="0.37254901960784315" d="M 123.5 110 L 124.5 112 L 123.5 110 Z " /><path fill="rgb(255,255,255)" stroke="rgb(255,255,255)" stroke-width="1" opacity="0.37254901960784315" d="M 131.5 110 L 132.5 112 L 131.5 110 Z " /><path fill="rgb(255,255,255)" stroke="rgb(255,255,255)" stroke-width="1" opacity="0.37254901960784315" d="M 87.5 111 L 86.5 113 L 87.5 111 Z " /><path fill="rgb(255,255,255)" stroke="rgb(255,255,255)" stroke-width="1" opacity="0.37254901960784315" d="M 137.5 111 L 136.5 113 L 137.5 111 Z " /><path fill="rgb(255,255,255)" stroke="rgb(255,255,255)" stroke-width="1" opacity="0.37254901960784315" d="M 59.5 113 L 60.5 115 L 59.5 113 Z " /><path fill="rgb(255,255,255)" stroke="rgb(255,255,255)" stroke-width="1" opacity="0.37254901960784315" d="M 109.5 113 L 110.5 115 L 109.5 113 Z " /><path fill="rgb(255,255,255)" stroke="rgb(255,255,255)" stroke-width="1" opacity="0.37254901960784315" d="M 84.5 115 L 83.5 117 L 84.5 115 Z " /><path fill="rgb(255,255,255)" stroke="rgb(255,255,255)" stroke-width="1" opacity="0.37254901960784315" d="M 62.5 117 L 63.5 119 L 62.5 117 Z " /><path fill="rgb(255,255,255)" stroke="rgb(255,255,255)" stroke-width="1" opacity="0.37254901960784315" d="M 129.5 118 L 131 120.5 L 130 120.5 L 129.5 118 Z " /><path fill="rgb(255,255,255)" stroke="rgb(255,255,255)" stroke-width="1" opacity="0.37254901960784315" d="M 114.5 120 L 115.5 122 L 114.5 120 Z " /><path fill="rgb(255,255,255)" stroke="rgb(255,255,255)" stroke-width="1" opacity="0.37254901960784315" d="M 65.5 121 L 66.5 123 L 65.5 121 Z " /><path fill="rgb(255,255,255)" stroke="rgb(255,255,255)" stroke-width="1" opacity="0.37254901960784315" d="M 79.5 122 L 78.5 124 L 79.5 122 Z " /><path fill="rgb(255,255,255)" stroke="rgb(255,255,255)" stroke-width="1" opacity="0.37254901960784315" d="M 128.5 123 L 127.5 125 L 128.5 123 Z " /><path fill="rgb(255,255,255)" stroke="rgb(255,255,255)" stroke-width="1" opacity="0.37254901960784315" d="M 117.5 124 L 118.5 126 L 117.5 124 Z " /><path fill="rgb(255,255,255)" stroke="rgb(255,255,255)" stroke-width="1" opacity="0.37254901960784315" d="M 76.5 126 L 75.5 128 L 76.5 126 Z " /><path fill="rgb(255,255,255)" stroke="rgb(255,255,255)" stroke-width="1" opacity="0.37254901960784315" d="M 120.5 128 L 121.5 130 L 120.5 128 Z " /><path fill="rgb(255,255,255)" stroke="rgb(255,255,255)" stroke-width="1" opacity="0.37254901960784315" d="M 11.5 156 Q 16.8 154.8 18 157.5 L 16.5 157 Q 10.5 158.2 11.5 156 Z " /><path fill="rgb(255,255,255)" stroke="rgb(255,255,255)" stroke-width="1" opacity="0.37254901960784315" d="M 29.5 156 L 33 156.5 L 29.5 157 L 29.5 156 Z " /><path fill="rgb(255,255,255)" stroke="rgb(255,255,255)" stroke-width="1" opacity="0.37254901960784315" d="M 45.5 156 L 52 156.5 L 44.5 158 L 45.5 156 Z " /><path fill="rgb(255,255,255)" stroke="rgb(255,255,255)" stroke-width="1" opacity="0.37254901960784315" d="M 92.5 156 L 98 156.5 L 92 157 L 92 183.5 Q 92.1 184.6 97.5 184 L 97.5 185 Q 92.3 186.3 91 183.5 L 91 157.5 L 92.5 156 Z " /><path fill="rgb(255,255,255)" stroke="rgb(255,255,255)" stroke-width="1" opacity="0.37254901960784315" d="M 113.5 156 L 119 156.5 L 113.5 157 L 113.5 156 Z " /><path fill="rgb(255,255,255)" stroke="rgb(255,255,255)" stroke-width="1" opacity="0.37254901960784315" d="M 128.5 156 L 140 156.5 L 128.5 157 L 128.5 156 Z " /><path fill="rgb(255,255,255)" stroke="rgb(255,255,255)" stroke-width="1" opacity="0.37254901960784315" d="M 155.5 156 Q 160.8 154.8 162 157.5 L 162 183.5 L 160.5 185 Q 155.3 186.3 154 183.5 L 154 157.5 L 155.5 156 Z M 155 157 L 155 184 L 156 184 L 161 184 L 161 158 L 161 157 L 155 157 Z " /><path fill="rgb(255,255,255)" stroke="rgb(255,255,255)" stroke-width="1" opacity="0.37254901960784315" d="M 170.5 156 L 176 156.5 L 170 157 L 170 184 L 185 184 L 185.5 178 L 186 183.5 L 184.5 185 L 170.5 185 L 169 183.5 L 169 157.5 L 170.5 156 Z " /><path fill="rgb(255,255,255)" stroke="rgb(255,255,255)" stroke-width="1" opacity="0.37254901960784315" d="M 80.5 159 L 81.5 161 L 80.5 159 Z " /><path fill="rgb(255,255,255)" stroke="rgb(255,255,255)" stroke-width="1" opacity="0.37254901960784315" d="M 101.5 160 L 102.5 162 L 101.5 160 Z " /><path fill="rgb(255,255,255)" stroke="rgb(255,255,255)" stroke-width="1" opacity="0.37254901960784315" d="M 135.5 162 L 138 162.5 L 135 163 L 135 169 L 137.5 169 L 137.5 170 L 134 168.5 Q 132.8 163.3 135.5 162 Z " /><path fill="rgb(255,255,255)" stroke="rgb(255,255,255)" stroke-width="1" opacity="0.37254901960784315" d="M 66.5 163 L 68 163.5 L 65.5 165 L 66.5 163 Z " /><path fill="rgb(255,255,255)" stroke="rgb(255,255,255)" stroke-width="1" opacity="0.37254901960784315" d="M 148.5 164 L 149 166.5 L 148 166.5 L 148.5 164 Z " /><path fill="rgb(255,255,255)" stroke="rgb(255,255,255)" stroke-width="1" opacity="0.37254901960784315" d="M 105.5 165 L 106.5 167 L 105.5 165 Z " /><path fill="rgb(255,255,255)" stroke="rgb(255,255,255)" stroke-width="1" opacity="0.37254901960784315" d="M 140.5 167 L 139.5 169 L 140.5 167 Z " /><path fill="rgb(255,255,255)" stroke="rgb(255,255,255)" stroke-width="1" opacity="0.37254901960784315" d="M 98 168 L 101 169.5 L 99 169.5 L 98.5 183 L 98 168 Z " /><path fill="rgb(255,255,255)" stroke="rgb(255,255,255)" stroke-width="1" opacity="0.37254901960784315" d="M 85.5 169 L 86 172.5 L 85 172.5 L 85.5 169 Z " /><path fill="rgb(255,255,255)" stroke="rgb(255,255,255)" stroke-width="1" opacity="0.37254901960784315" d="M 108.5 169 L 109.5 171 L 108.5 169 Z " /><path fill="rgb(255,255,255)" stroke="rgb(255,255,255)" stroke-width="1" opacity="0.37254901960784315" d="M 21.5 171 L 23 173.5 L 21 172.5 L 21.5 171 Z " /><path fill="rgb(255,255,255)" stroke="rgb(255,255,255)" stroke-width="1" opacity="0.37254901960784315" d="M 40.5 171 L 41 172.5 L 39 173.5 L 40.5 171 Z " /><path fill="rgb(255,255,255)" stroke="rgb(255,255,255)" stroke-width="1" opacity="0.37254901960784315" d="M 103.5 173 L 104.5 175 L 103.5 173 Z " /><path fill="rgb(255,255,255)" stroke="rgb(255,255,255)" stroke-width="1" opacity="0.37254901960784315" d="M 134.5 175 L 135 183.5 Q 133.5 186.5 127.5 185 L 127.5 184 L 134 184 L 134.5 175 Z " /><path fill="rgb(255,255,255)" stroke="rgb(255,255,255)" stroke-width="1" opacity="0.37254901960784315" d="M 106.5 177 L 107.5 179 L 106.5 177 Z " /><path fill="rgb(255,255,255)" stroke="rgb(255,255,255)" stroke-width="1" opacity="0.37254901960784315" d="M 177.5 178 L 184 178.5 L 177.5 179 L 177.5 178 Z " /><path fill="rgb(255,255,255)" stroke="rgb(255,255,255)" stroke-width="1" opacity="0.37254901960784315" d="M 82.5 179 L 80.5 182 L 82.5 179 Z " /><path fill="rgb(255,255,255)" stroke="rgb(255,255,255)" stroke-width="1" opacity="0.37254901960784315" d="M 58.5 180 L 59.5 182 L 58.5 180 Z " /><path fill="rgb(255,255,255)" stroke="rgb(255,255,255)" stroke-width="1" opacity="0.37254901960784315" d="M 110.5 182 L 112.5 184 L 119 184.5 L 112.5 185 L 110.5 182 Z " /><path fill="rgb(255,255,255)" stroke="rgb(255,255,255)" stroke-width="1" opacity="0.37254901960784315" d="M 18.5 184 L 25 184.5 L 18.5 185 L 18.5 184 Z " /><path fill="rgb(255,255,255)" stroke="rgb(255,255,255)" stroke-width="1" opacity="0.37254901960784315" d="M 37.5 184 L 44 184.5 L 37.5 185 L 37.5 184 Z " /><path fill="rgb(255,255,255)" stroke="rgb(255,255,255)" stroke-width="1" opacity="0.8156862745098039" d="M 44.5 13 L 47 13.5 L 44.5 14 L 44.5 13 Z " /><path fill="rgb(255,255,255)" stroke="rgb(255,255,255)" stroke-width="1" opacity="0.8156862745098039" d="M 48.5 13 L 52 13.5 L 48.5 14 L 48.5 13 Z " /><path fill="rgb(255,255,255)" stroke="rgb(255,255,255)" stroke-width="1" opacity="0.8156862745098039" d="M 93.5 13 L 97 13.5 L 93.5 14 L 93.5 13 Z " /><path fill="rgb(255,255,255)" stroke="rgb(255,255,255)" stroke-width="1" opacity="0.8156862745098039" d="M 98.5 13 L 102 13.5 L 98.5 14 L 98.5 13 Z " /><path fill="rgb(255,255,255)" stroke="rgb(255,255,255)" stroke-width="1" opacity="0.8156862745098039" d="M 143.5 13 L 147 13.5 L 143.5 14 L 143.5 13 Z " /><path fill="rgb(255,255,255)" stroke="rgb(255,255,255)" stroke-width="1" opacity="0.8156862745098039" d="M 148.5 13 L 152 13.5 L 148.5 14 L 148.5 13 Z " /><path fill="rgb(255,255,255)" stroke="rgb(255,255,255)" stroke-width="1" opacity="0.8156862745098039" d="M 116.5 19 L 117.5 21 L 116.5 19 Z " /><path fill="rgb(255,255,255)" stroke="rgb(255,255,255)" stroke-width="1" opacity="0.8156862745098039" d="M 132.5 20 L 133.5 22 L 132.5 20 Z " /><path fill="rgb(255,255,255)" stroke="rgb(255,255,255)" stroke-width="1" opacity="0.8156862745098039" d="M 167.5 20 L 171.5 25 L 167.5 20 Z " /><path fill="rgb(255,255,255)" stroke="rgb(255,255,255)" stroke-width="1" opacity="0.8156862745098039" d="M 76.5 21 L 74.5 24 L 76.5 21 Z " /><path fill="rgb(255,255,255)" stroke="rgb(255,255,255)" stroke-width="1" opacity="0.8156862745098039" d="M 121.5 24 L 122.5 26 L 121.5 24 Z " /><path fill="rgb(255,255,255)" stroke="rgb(255,255,255)" stroke-width="1" opacity="0.8156862745098039" d="M 157.5 28 L 158.5 30 L 157.5 28 Z " /><path fill="rgb(255,255,255)" stroke="rgb(255,255,255)" stroke-width="1" opacity="0.8156862745098039" d="M 36.5 29 L 33.5 33 L 36.5 29 Z " /><path fill="rgb(255,255,255)" stroke="rgb(255,255,255)" stroke-width="1" opacity="0.8156862745098039" d="M 85.5 30 L 83.5 33 L 85.5 30 Z " /><path fill="rgb(255,255,255)" stroke="rgb(255,255,255)" stroke-width="1" opacity="0.8156862745098039" d="M 112.5 33 L 113.5 35 L 112.5 33 Z " /><path fill="rgb(255,255,255)" stroke="rgb(255,255,255)" stroke-width="1" opacity="0.8156862745098039" d="M 162.5 33 L 163.5 35 L 162.5 33 Z " /><path fill="rgb(255,255,255)" stroke="rgb(255,255,255)" stroke-width="1" opacity="0.8156862745098039" d="M 178.5 39 L 179 42.5 L 178 42.5 L 178.5 39 Z " /><path fill="rgb(255,255,255)" stroke="rgb(255,255,255)" stroke-width="1" opacity="0.8156862745098039" d="M 66.5 41 L 67 46.5 L 66 46.5 L 66.5 41 Z " /><path fill="rgb(255,255,255)" stroke="rgb(255,255,255)" stroke-width="1" opacity="0.8156862745098039" d="M 116.5 43 L 117 45.5 L 116 45.5 L 116.5 43 Z " /><path fill="rgb(255,255,255)" stroke="rgb(255,255,255)" stroke-width="1" opacity="0.8156862745098039" d="M 178.5 47 L 179 49.5 L 178 49.5 L 178.5 47 Z " /><path fill="rgb(255,255,255)" stroke="rgb(255,255,255)" stroke-width="1" opacity="0.8156862745098039" d="M 32.5 55 L 33.5 57 L 32.5 55 Z " /><path fill="rgb(255,255,255)" stroke="rgb(255,255,255)" stroke-width="1" opacity="0.8156862745098039" d="M 82.5 55 L 83.5 57 L 82.5 55 Z " /><path fill="rgb(255,255,255)" stroke="rgb(255,255,255)" stroke-width="1" opacity="0.8156862745098039" d="M 111.5 57 L 110.5 59 L 111.5 57 Z " /><path fill="rgb(255,255,255)" stroke="rgb(255,255,255)" stroke-width="1" opacity="0.8156862745098039" d="M 161.5 57 L 160.5 59 L 161.5 57 Z " /><path fill="rgb(255,255,255)" stroke="rgb(255,255,255)" stroke-width="1" opacity="0.8156862745098039" d="M 35.5 59 L 36.5 61 L 35.5 59 Z " /><path fill="rgb(255,255,255)" stroke="rgb(255,255,255)" stroke-width="1" opacity="0.8156862745098039" d="M 21.5 61 L 22.5 63 L 21.5 61 Z " /><path fill="rgb(255,255,255)" stroke="rgb(255,255,255)" stroke-width="1" opacity="0.8156862745098039" d="M 158.5 61 L 157.5 63 L 158.5 61 Z " /><path fill="rgb(255,255,255)" stroke="rgb(255,255,255)" stroke-width="1" opacity="0.8156862745098039" d="M 72.5 62 L 73.5 64 L 72.5 62 Z " /><path fill="rgb(255,255,255)" stroke="rgb(255,255,255)" stroke-width="1" opacity="0.8156862745098039" d="M 172.5 63 L 171.5 65 L 172.5 63 Z " /><path fill="rgb(255,255,255)" stroke="rgb(255,255,255)" stroke-width="1" opacity="0.8156862745098039" d="M 106.5 64 L 105.5 66 L 106.5 64 Z " /><path fill="rgb(255,255,255)" stroke="rgb(255,255,255)" stroke-width="1" opacity="0.8156862745098039" d="M 121.5 64 L 120.5 66 L 121.5 64 Z " /><path fill="rgb(255,255,255)" stroke="rgb(255,255,255)" stroke-width="1" opacity="0.8156862745098039" d="M 155.5 65 L 154.5 67 L 155.5 65 Z " /><path fill="rgb(255,255,255)" stroke="rgb(255,255,255)" stroke-width="1" opacity="0.8156862745098039" d="M 75.5 66 L 76.5 68 L 75.5 66 Z " /><path fill="rgb(255,255,255)" stroke="rgb(255,255,255)" stroke-width="1" opacity="0.8156862745098039" d="M 90.5 66 L 91.5 68 L 90.5 66 Z " /><path fill="rgb(255,255,255)" stroke="rgb(255,255,255)" stroke-width="1" opacity="0.8156862745098039" d="M 169.5 67 L 168.5 69 L 169.5 67 Z " /><path fill="rgb(255,255,255)" stroke="rgb(255,255,255)" stroke-width="1" opacity="0.8156862745098039" d="M 103.5 68 L 102.5 70 L 103.5 68 Z " /><path fill="rgb(255,255,255)" stroke="rgb(255,255,255)" stroke-width="1" opacity="0.8156862745098039" d="M 118.5 68 L 117.5 70 L 118.5 68 Z " /><path fill="rgb(255,255,255)" stroke="rgb(255,255,255)" stroke-width="1" opacity="0.8156862745098039" d="M 93.5 70 L 94.5 72 L 93.5 70 Z " /><path fill="rgb(255,255,255)" stroke="rgb(255,255,255)" stroke-width="1" opacity="0.8156862745098039" d="M 166.5 71 L 165.5 73 L 166.5 71 Z " /><path fill="rgb(255,255,255)" stroke="rgb(255,255,255)" stroke-width="1" opacity="0.8156862745098039" d="M 96.5 74 L 99 75.5 L 97.5 76 L 96.5 74 Z " /><path fill="rgb(255,255,255)" stroke="rgb(255,255,255)" stroke-width="1" opacity="0.8156862745098039" d="M 32.5 76 L 33.5 78 L 32.5 76 Z " /><path fill="rgb(255,255,255)" stroke="rgb(255,255,255)" stroke-width="1" opacity="0.8156862745098039" d="M 83.5 77 L 84.5 79 L 83.5 77 Z " /><path fill="rgb(255,255,255)" stroke="rgb(255,255,255)" stroke-width="1" opacity="0.8156862745098039" d="M 49.5 78 L 50.5 80 L 49.5 78 Z " /><path fill="rgb(255,255,255)" stroke="rgb(255,255,255)" stroke-width="1" opacity="0.8156862745098039" d="M 110.5 79 L 109.5 81 L 110.5 79 Z " /><path fill="rgb(255,255,255)" stroke="rgb(255,255,255)" stroke-width="1" opacity="0.8156862745098039" d="M 35.5 80 L 36.5 82 L 35.5 80 Z " /><path fill="rgb(255,255,255)" stroke="rgb(255,255,255)" stroke-width="1" opacity="0.8156862745098039" d="M 144.5 80 L 143.5 82 L 144.5 80 Z " /><path fill="rgb(255,255,255)" stroke="rgb(255,255,255)" stroke-width="1" opacity="0.8156862745098039" d="M 86.5 81 L 87.5 83 L 86.5 81 Z " /><path fill="rgb(255,255,255)" stroke="rgb(255,255,255)" stroke-width="1" opacity="0.8156862745098039" d="M 52.5 82 L 53.5 84 L 52.5 82 Z " /><path fill="rgb(255,255,255)" stroke="rgb(255,255,255)" stroke-width="1" opacity="0.8156862745098039" d="M 107.5 83 L 106.5 85 L 107.5 83 Z " /><path fill="rgb(255,255,255)" stroke="rgb(255,255,255)" stroke-width="1" opacity="0.8156862745098039" d="M 38.5 84 L 39.5 86 L 38.5 84 Z " /><path fill="rgb(255,255,255)" stroke="rgb(255,255,255)" stroke-width="1" opacity="0.8156862745098039" d="M 141.5 84 L 140.5 86 L 141.5 84 Z " /><path fill="rgb(255,255,255)" stroke="rgb(255,255,255)" stroke-width="1" opacity="0.8156862745098039" d="M 55.5 86 L 56.5 88 L 55.5 86 Z " /><path fill="rgb(255,255,255)" stroke="rgb(255,255,255)" stroke-width="1" opacity="0.8156862745098039" d="M 155.5 86 L 154.5 88 L 155.5 86 Z " /><path fill="rgb(255,255,255)" stroke="rgb(255,255,255)" stroke-width="1" opacity="0.8156862745098039" d="M 41.5 88 L 42.5 90 L 41.5 88 Z " /><path fill="rgb(255,255,255)" stroke="rgb(255,255,255)" stroke-width="1" opacity="0.8156862745098039" d="M 91.5 88 L 92.5 90 L 91.5 88 Z " /><path fill="rgb(255,255,255)" stroke="rgb(255,255,255)" stroke-width="1" opacity="0.8156862745098039" d="M 138.5 88 L 137.5 90 L 138.5 88 Z " /><path fill="rgb(255,255,255)" stroke="rgb(255,255,255)" stroke-width="1" opacity="0.8156862745098039" d="M 58.5 90 L 59.5 92 L 58.5 90 Z " /><path fill="rgb(255,255,255)" stroke="rgb(255,255,255)" stroke-width="1" opacity="0.8156862745098039" d="M 152.5 90 L 151.5 92 L 152.5 90 Z " /><path fill="rgb(255,255,255)" stroke="rgb(255,255,255)" stroke-width="1" opacity="0.8156862745098039" d="M 94.5 92 L 95.5 94 L 94.5 92 Z " /><path fill="rgb(255,255,255)" stroke="rgb(255,255,255)" stroke-width="1" opacity="0.8156862745098039" d="M 135.5 92 L 134.5 94 L 135.5 92 Z " /><path fill="rgb(255,255,255)" stroke="rgb(255,255,255)" stroke-width="1" opacity="0.8156862745098039" d="M 149.5 94 L 148.5 96 L 149.5 94 Z " /><path fill="rgb(255,255,255)" stroke="rgb(255,255,255)" stroke-width="1" opacity="0.8156862745098039" d="M 112.5 96 L 113.5 98 L 112.5 96 Z " /><path fill="rgb(255,255,255)" stroke="rgb(255,255,255)" stroke-width="1" opacity="0.8156862745098039" d="M 115.5 100 L 116.5 102 L 115.5 100 Z " /><path fill="rgb(255,255,255)" stroke="rgb(255,255,255)" stroke-width="1" opacity="0.8156862745098039" d="M 52.5 103 L 53.5 105 L 52.5 103 Z " /><path fill="rgb(255,255,255)" stroke="rgb(255,255,255)" stroke-width="1" opacity="0.8156862745098039" d="M 102.5 103 L 103.5 105 L 102.5 103 Z " /><path fill="rgb(255,255,255)" stroke="rgb(255,255,255)" stroke-width="1" opacity="0.8156862745098039" d="M 118.5 104 L 119.5 106 L 118.5 104 Z " /><path fill="rgb(255,255,255)" stroke="rgb(255,255,255)" stroke-width="1" opacity="0.8156862745098039" d="M 127.5 104 L 128.5 106 L 127.5 104 Z " /><path fill="rgb(255,255,255)" stroke="rgb(255,255,255)" stroke-width="1" opacity="0.8156862745098039" d="M 91.5 105 L 90.5 107 L 91.5 105 Z " /><path fill="rgb(255,255,255)" stroke="rgb(255,255,255)" stroke-width="1" opacity="0.8156862745098039" d="M 55.5 107 L 56.5 109 L 55.5 107 Z " /><path fill="rgb(255,255,255)" stroke="rgb(255,255,255)" stroke-width="1" opacity="0.8156862745098039" d="M 105.5 107 L 106.5 109 L 105.5 107 Z " /><path fill="rgb(255,255,255)" stroke="rgb(255,255,255)" stroke-width="1" opacity="0.8156862745098039" d="M 121.5 108 L 122.5 110 L 121.5 108 Z " /><path fill="rgb(255,255,255)" stroke="rgb(255,255,255)" stroke-width="1" opacity="0.8156862745098039" d="M 130.5 108 L 131.5 110 L 130.5 108 Z " /><path fill="rgb(255,255,255)" stroke="rgb(255,255,255)" stroke-width="1" opacity="0.8156862745098039" d="M 88.5 109 L 87.5 111 L 88.5 109 Z " /><path fill="rgb(255,255,255)" stroke="rgb(255,255,255)" stroke-width="1" opacity="0.8156862745098039" d="M 138.5 109 L 137.5 111 L 138.5 109 Z " /><path fill="rgb(255,255,255)" stroke="rgb(255,255,255)" stroke-width="1" opacity="0.8156862745098039" d="M 58.5 111 L 59.5 113 L 58.5 111 Z " /><path fill="rgb(255,255,255)" stroke="rgb(255,255,255)" stroke-width="1" opacity="0.8156862745098039" d="M 124.5 112 L 125.5 114 L 124.5 112 Z " /><path fill="rgb(255,255,255)" stroke="rgb(255,255,255)" stroke-width="1" opacity="0.8156862745098039" d="M 133.5 112 L 136 113.5 L 134.5 114 L 133.5 112 Z " /><path fill="rgb(255,255,255)" stroke="rgb(255,255,255)" stroke-width="1" opacity="0.8156862745098039" d="M 61.5 115 L 62.5 117 L 61.5 115 Z " /><path fill="rgb(255,255,255)" stroke="rgb(255,255,255)" stroke-width="1" opacity="0.8156862745098039" d="M 127.5 116 L 128.5 118 L 127.5 116 Z " /><path fill="rgb(255,255,255)" stroke="rgb(255,255,255)" stroke-width="1" opacity="0.8156862745098039" d="M 113.5 118 L 114.5 120 L 113.5 118 Z " /><path fill="rgb(255,255,255)" stroke="rgb(255,255,255)" stroke-width="1" opacity="0.8156862745098039" d="M 80.5 120 L 79.5 122 L 80.5 120 Z " /><path fill="rgb(255,255,255)" stroke="rgb(255,255,255)" stroke-width="1" opacity="0.8156862745098039" d="M 116.5 122 L 117.5 124 L 116.5 122 Z " /><path fill="rgb(255,255,255)" stroke="rgb(255,255,255)" stroke-width="1" opacity="0.8156862745098039" d="M 77.5 124 L 76.5 126 L 77.5 124 Z " /><path fill="rgb(255,255,255)" stroke="rgb(255,255,255)" stroke-width="1" opacity="0.8156862745098039" d="M 69.5 126 L 70.5 128 L 69.5 126 Z " /><path fill="rgb(255,255,255)" stroke="rgb(255,255,255)" stroke-width="1" opacity="0.8156862745098039" d="M 124.5 128 L 122.5 131 L 124.5 128 Z " /><path fill="rgb(255,255,255)" stroke="rgb(255,255,255)" stroke-width="1" opacity="0.8156862745098039" d="M 66.5 156 L 69 156.5 L 66.5 157 L 66.5 156 Z " /><path fill="rgb(255,255,255)" stroke="rgb(255,255,255)" stroke-width="1" opacity="0.8156862745098039" d="M 71.5 156 L 74 156.5 L 71.5 157 L 71.5 156 Z " /><path fill="rgb(255,255,255)" stroke="rgb(255,255,255)" stroke-width="1" opacity="0.8156862745098039" d="M 112.5 157 L 113 174 L 110 172.5 L 112 172.5 L 112.5 157 Z " /><path fill="rgb(255,255,255)" stroke="rgb(255,255,255)" stroke-width="1" opacity="0.8156862745098039" d="M 127.5 157 L 128 183.5 L 127 183.5 L 127.5 157 Z " /><path fill="rgb(255,255,255)" stroke="rgb(255,255,255)" stroke-width="1" opacity="0.8156862745098039" d="M 176.5 157 L 177 178.5 L 176 178.5 L 176.5 157 Z " /><path fill="rgb(255,255,255)" stroke="rgb(255,255,255)" stroke-width="1" opacity="0.8156862745098039" d="M 61.5 158 L 60.5 160 L 61.5 158 Z " /><path fill="rgb(255,255,255)" stroke="rgb(255,255,255)" stroke-width="1" opacity="0.8156862745098039" d="M 78.5 158 L 79.5 160 L 78.5 158 Z " /><path fill="rgb(255,255,255)" stroke="rgb(255,255,255)" stroke-width="1" opacity="0.8156862745098039" d="M 99.5 158 L 100.5 160 L 99.5 158 Z " /><path fill="rgb(255,255,255)" stroke="rgb(255,255,255)" stroke-width="1" opacity="0.8156862745098039" d="M 144.5 158 L 146.5 161 L 144.5 158 Z " /><path fill="rgb(255,255,255)" stroke="rgb(255,255,255)" stroke-width="1" opacity="0.8156862745098039" d="M 58.5 161 L 57.5 163 L 58.5 161 Z " /><path fill="rgb(255,255,255)" stroke="rgb(255,255,255)" stroke-width="1" opacity="0.8156862745098039" d="M 68.5 162 L 72 162.5 L 68.5 163 L 68.5 162 Z " /><path fill="rgb(255,255,255)" stroke="rgb(255,255,255)" stroke-width="1" opacity="0.8156862745098039" d="M 103.5 163 L 104.5 165 L 103.5 163 Z " /><path fill="rgb(255,255,255)" stroke="rgb(255,255,255)" stroke-width="1" opacity="0.8156862745098039" d="M 64.5 164 L 63.5 166 L 64.5 164 Z " /><path fill="rgb(255,255,255)" stroke="rgb(255,255,255)" stroke-width="1" opacity="0.8156862745098039" d="M 75.5 164 L 76.5 166 L 75.5 164 Z " /><path fill="rgb(255,255,255)" stroke="rgb(255,255,255)" stroke-width="1" opacity="0.8156862745098039" d="M 106.5 167 L 107.5 169 L 106.5 167 Z " /><path fill="rgb(255,255,255)" stroke="rgb(255,255,255)" stroke-width="1" opacity="0.8156862745098039" d="M 101.5 170 L 102.5 172 L 101.5 170 Z " /><path fill="rgb(255,255,255)" stroke="rgb(255,255,255)" stroke-width="1" opacity="0.8156862745098039" d="M 146.5 171 L 144.5 174 L 146.5 171 Z " /><path fill="rgb(255,255,255)" stroke="rgb(255,255,255)" stroke-width="1" opacity="0.8156862745098039" d="M 21.5 173 L 22.5 175 L 21.5 173 Z " /><path fill="rgb(255,255,255)" stroke="rgb(255,255,255)" stroke-width="1" opacity="0.8156862745098039" d="M 40.5 173 L 41 175 L 39 174.5 L 40.5 173 Z " /><path fill="rgb(255,255,255)" stroke="rgb(255,255,255)" stroke-width="1" opacity="0.8156862745098039" d="M 63.5 175 L 64.5 177 L 63.5 175 Z " /><path fill="rgb(255,255,255)" stroke="rgb(255,255,255)" stroke-width="1" opacity="0.8156862745098039" d="M 76.5 175 L 75.5 177 L 76.5 175 Z " /><path fill="rgb(255,255,255)" stroke="rgb(255,255,255)" stroke-width="1" opacity="0.8156862745098039" d="M 105.5 175 L 106.5 177 L 105.5 175 Z " /><path fill="rgb(255,255,255)" stroke="rgb(255,255,255)" stroke-width="1" opacity="0.8156862745098039" d="M 68.5 178 L 72 178.5 L 68.5 179 L 68.5 178 Z " /><path fill="rgb(255,255,255)" stroke="rgb(255,255,255)" stroke-width="1" opacity="0.8156862745098039" d="M 108.5 179 L 109.5 181 L 108.5 179 Z " /><path fill="rgb(255,255,255)" stroke="rgb(255,255,255)" stroke-width="1" opacity="0.023529411764705882" d="M 40.5 11 L 45 11.5 L 40 12.5 L 40.5 14 L 37.5 13 L 37.5 15 L 35 13.5 L 40.5 11 Z " /><path fill="rgb(255,255,255)" stroke="rgb(255,255,255)" stroke-width="1" opacity="0.023529411764705882" d="M 51.5 11 Q 58.1 10.4 61 13.5 L 58.5 15 L 58.5 13 L 55.5 14 L 55.5 12 Q 50.5 13 51.5 11 Z " /><path fill="rgb(255,255,255)" stroke="rgb(255,255,255)" stroke-width="1" opacity="0.023529411764705882" d="M 90.5 11 L 94 11.5 L 90.5 12 L 90.5 11 Z " /><path fill="rgb(255,255,255)" stroke="rgb(255,255,255)" stroke-width="1" opacity="0.023529411764705882" d="M 101.5 11 Q 108.1 10.4 111 13.5 L 108.5 15 L 108.5 13 L 105.5 14 L 105.5 12 Q 100.5 13 101.5 11 Z " /><path fill="rgb(255,255,255)" stroke="rgb(255,255,255)" stroke-width="1" opacity="0.023529411764705882" d="M 140.5 11 L 144 11.5 L 140.5 12 L 140.5 11 Z " /><path fill="rgb(255,255,255)" stroke="rgb(255,255,255)" stroke-width="1" opacity="0.023529411764705882" d="M 151.5 11 L 155 11.5 L 151.5 12 L 151.5 11 Z " /><path fill="rgb(255,255,255)" stroke="rgb(255,255,255)" stroke-width="1" opacity="0.023529411764705882" d="M 96.5 12 L 99 12.5 L 96.5 13 L 96.5 12 Z " /><path fill="rgb(255,255,255)" stroke="rgb(255,255,255)" stroke-width="1" opacity="0.023529411764705882" d="M 137.5 12 L 141 13.5 L 139.5 14 L 137.5 12 Z " /><path fill="rgb(255,255,255)" stroke="rgb(255,255,255)" stroke-width="1" opacity="0.023529411764705882" d="M 146.5 12 L 149 12.5 L 146.5 13 L 146.5 12 Z " /><path fill="rgb(255,255,255)" stroke="rgb(255,255,255)" stroke-width="1" opacity="0.023529411764705882" d="M 156.5 12 L 158 12.5 L 154.5 14 L 154.5 13 L 156.5 12 Z " /><path fill="rgb(255,255,255)" stroke="rgb(255,255,255)" stroke-width="1" opacity="0.023529411764705882" d="M 84.5 13 L 87 14.5 L 85.5 14 L 84 14.5 L 84.5 16 L 82.5 15 L 82.5 17 Q 79.5 15.5 82.5 14 L 84.5 13 Z " /><path fill="rgb(255,255,255)" stroke="rgb(255,255,255)" stroke-width="1" opacity="0.023529411764705882" d="M 134.5 13 L 137 14.5 L 135.5 14 L 134 14.5 L 134.5 16 L 132.5 15 L 132.5 17 Q 129.5 15.5 132.5 14 L 134.5 13 Z " /><path fill="rgb(255,255,255)" stroke="rgb(255,255,255)" stroke-width="1" opacity="0.023529411764705882" d="M 159.5 13 L 167 17.5 L 164 17.5 L 164.5 16 L 162.5 17 L 162.5 15 L 160.5 16 L 160.5 14 L 158.5 15 L 159.5 13 Z " /><path fill="rgb(255,255,255)" stroke="rgb(255,255,255)" stroke-width="1" opacity="0.023529411764705882" d="M 33.5 14 L 34.5 16 L 33.5 14 Z " /><path fill="rgb(255,255,255)" stroke="rgb(255,255,255)" stroke-width="1" opacity="0.023529411764705882" d="M 112.5 14 L 116 16.5 L 114 17.5 L 114.5 16 L 112.5 14 Z " /><path fill="rgb(255,255,255)" stroke="rgb(255,255,255)" stroke-width="1" opacity="0.023529411764705882" d="M 31.5 15 L 30.5 17 L 29 17.5 Q 31.3 18.8 28.5 20 L 27.5 19 L 22 24.5 L 22.5 26 L 20 25.5 L 31.5 15 Z " /><path fill="rgb(255,255,255)" stroke="rgb(255,255,255)" stroke-width="1" opacity="0.023529411764705882" d="M 79.5 16 L 79.5 19 L 77.5 19 L 75 20.5 Q 77.3 21.8 74.5 23 Q 73.3 20.8 72 23.5 L 71 25.5 L 71.5 27 L 69 26.5 L 76.5 18 L 79.5 16 Z " /><path fill="rgb(255,255,255)" stroke="rgb(255,255,255)" stroke-width="1" opacity="0.023529411764705882" d="M 117.5 17 L 127 27.5 L 125 28.5 L 125 26.5 L 124.5 25 Q 123.3 27.2 122 24.5 L 123 23.5 L 119.5 20 Q 118.3 22.3 117 19.5 L 117.5 17 Z " /><path fill="rgb(255,255,255)" stroke="rgb(255,255,255)" stroke-width="1" opacity="0.023529411764705882" d="M 66.5 18 L 67 19.5 Q 65 24 63 20.5 L 66 19.5 L 66.5 18 Z " /><path fill="rgb(255,255,255)" stroke="rgb(255,255,255)" stroke-width="1" opacity="0.023529411764705882" d="M 128.5 18 L 131.5 22 L 133 21.5 L 133 23.5 L 133.5 25 L 135 24.5 L 134 26.5 L 136 26.5 L 134.5 29 L 128.5 18 Z " /><path fill="rgb(255,255,255)" stroke="rgb(255,255,255)" stroke-width="1" opacity="0.023529411764705882" d="M 168.5 18 L 173.5 24 L 171.5 24 L 168 20.5 L 168.5 18 Z " /><path fill="rgb(255,255,255)" stroke="rgb(255,255,255)" stroke-width="1" opacity="0.023529411764705882" d="M 61.5 23 L 64 23.5 L 60.5 29 L 59.5 27 L 61 27.5 L 60 25.5 L 62 25.5 L 61.5 23 Z " /><path fill="rgb(255,255,255)" stroke="rgb(255,255,255)" stroke-width="1" opacity="0.023529411764705882" d="M 174.5 25 Q 180.4 29.6 181 39.5 L 180 39.5 L 179.5 36 L 178 36.5 L 179 33.5 L 177 33.5 L 178 31.5 L 176 31.5 L 177 29.5 L 175 29.5 L 176 27.5 L 174 27.5 L 174.5 25 Z " /><path fill="rgb(255,255,255)" stroke="rgb(255,255,255)" stroke-width="1" opacity="0.023529411764705882" d="M 46.5 26 L 50 26.5 L 46.5 27 L 46.5 26 Z " /><path fill="rgb(255,255,255)" stroke="rgb(255,255,255)" stroke-width="1" opacity="0.023529411764705882" d="M 96.5 26 L 99 26.5 L 96.5 27 L 96.5 26 Z " /><path fill="rgb(255,255,255)" stroke="rgb(255,255,255)" stroke-width="1" opacity="0.023529411764705882" d="M 146.5 26 L 149 26.5 L 146.5 27 L 146.5 26 Z " /><path fill="rgb(255,255,255)" stroke="rgb(255,255,255)" stroke-width="1" opacity="0.023529411764705882" d="M 19.5 27 L 20.5 29 L 19 28.5 L 18 31.5 L 18.5 33 L 17 32.5 L 18 34.5 L 16 33.5 L 19.5 27 Z " /><path fill="rgb(255,255,255)" stroke="rgb(255,255,255)" stroke-width="1" opacity="0.023529411764705882" d="M 42.5 27 L 43.5 28 L 52.5 28 L 54 27.5 L 52.5 29 L 43.5 29 L 42.5 27 Z " /><path fill="rgb(255,255,255)" stroke="rgb(255,255,255)" stroke-width="1" opacity="0.023529411764705882" d="M 92.5 27 L 93.5 28 L 102 28.5 L 93.5 29 L 92.5 27 Z " /><path fill="rgb(255,255,255)" stroke="rgb(255,255,255)" stroke-width="1" opacity="0.023529411764705882" d="M 141.5 27 L 142.5 28 L 152.5 28 L 154 27.5 L 153.5 29 L 155.5 28 L 154.5 30 Q 150.7 27.3 142.5 29 L 140.5 30 L 139.5 28 L 141.5 29 L 141.5 27 Z " /><path fill="rgb(255,255,255)" stroke="rgb(255,255,255)" stroke-width="1" opacity="0.023529411764705882" d="M 39.5 28 L 42 29.5 L 34.5 35 L 33 33.5 L 36.5 30 L 38.5 30 L 40 29.5 L 39.5 28 Z " /><path fill="rgb(255,255,255)" stroke="rgb(255,255,255)" stroke-width="1" opacity="0.023529411764705882" d="M 56.5 28 L 56.5 31 L 54 29.5 L 56.5 28 Z " /><path fill="rgb(255,255,255)" stroke="rgb(255,255,255)" stroke-width="1" opacity="0.023529411764705882" d="M 68.5 28 L 69.5 30 L 68 29.5 L 69 31.5 L 67 31.5 L 66.5 33 L 66 31.5 L 68.5 28 Z " /><path fill="rgb(255,255,255)" stroke="rgb(255,255,255)" stroke-width="1" opacity="0.023529411764705882" d="M 89.5 28 L 92 29.5 L 84 35.5 L 83.5 37 L 83 35.5 L 83 33.5 L 86.5 30 L 88.5 30 L 90 29.5 L 89.5 28 Z " /><path fill="rgb(255,255,255)" stroke="rgb(255,255,255)" stroke-width="1" opacity="0.023529411764705882" d="M 105.5 28 L 104.5 30 L 103 29.5 L 105.5 28 Z " /><path fill="rgb(255,255,255)" stroke="rgb(255,255,255)" stroke-width="1" opacity="0.023529411764705882" d="M 107.5 29 L 107.5 31 L 111 33.5 L 111.5 35 L 113 34.5 Q 111.5 37.5 110 34.5 L 108.5 32 L 106 30.5 L 107.5 29 Z " /><path fill="rgb(255,255,255)" stroke="rgb(255,255,255)" stroke-width="1" opacity="0.023529411764705882" d="M 127.5 29 L 129 31.5 L 127 32.5 L 128 30.5 L 126 30.5 L 127.5 29 Z " /><path fill="rgb(255,255,255)" stroke="rgb(255,255,255)" stroke-width="1" opacity="0.023529411764705882" d="M 136.5 29 L 139 30.5 L 137 31.5 L 137.5 30 L 136.5 29 Z " /><path fill="rgb(255,255,255)" stroke="rgb(255,255,255)" stroke-width="1" opacity="0.023529411764705882" d="M 157.5 29 L 158.5 32 L 161 33.5 L 161.5 35 L 163 34.5 Q 161.5 37.5 160 34.5 Q 160.8 32.3 158.5 33 Q 154 31 157.5 29 Z " /><path fill="rgb(255,255,255)" stroke="rgb(255,255,255)" stroke-width="1" opacity="0.023529411764705882" d="M 129.5 33 L 130 34.5 L 128 35.5 L 129.5 33 Z " /><path fill="rgb(255,255,255)" stroke="rgb(255,255,255)" stroke-width="1" opacity="0.023529411764705882" d="M 65.5 34 L 67 37.5 L 65 37.5 L 64.5 44 L 64 37.5 L 65.5 34 Z " /><path fill="rgb(255,255,255)" stroke="rgb(255,255,255)" stroke-width="1" opacity="0.023529411764705882" d="M 15.5 35 L 17 39.5 L 16 39.5 L 15.5 38 L 14.5 51 L 14 38.5 L 15.5 35 Z " /><path fill="rgb(255,255,255)" stroke="rgb(255,255,255)" stroke-width="1" opacity="0.023529411764705882" d="M 130.5 36 L 131 38.5 L 129.5 42 L 129 39.5 L 130.5 36 Z " /><path fill="rgb(255,255,255)" stroke="rgb(255,255,255)" stroke-width="1" opacity="0.023529411764705882" d="M 162.5 37 L 163.5 39 L 165 38.5 L 164 39.5 L 164 49.5 L 164.5 51 L 163 49.5 Q 163.6 40.6 162.5 37 Z " /><path fill="rgb(255,255,255)" stroke="rgb(255,255,255)" stroke-width="1" opacity="0.023529411764705882" d="M 114.5 38 L 114 39.5 L 113.5 43 L 113 39.5 L 114.5 38 Z " /><path fill="rgb(255,255,255)" stroke="rgb(255,255,255)" stroke-width="1" opacity="0.023529411764705882" d="M 30.5 39 Q 33.1 41.4 32 47.5 L 31 47.5 L 30.5 39 Z " /><path fill="rgb(255,255,255)" stroke="rgb(255,255,255)" stroke-width="1" opacity="0.023529411764705882" d="M 131.5 40 L 132 47.5 L 131 47.5 L 131.5 40 Z " /><path fill="rgb(255,255,255)" stroke="rgb(255,255,255)" stroke-width="1" opacity="0.023529411764705882" d="M 81.5 41 L 83 51.5 L 91 62.5 L 88 62.5 L 88 60.5 L 87.5 59 Q 86.3 61.3 85 58.5 L 85 56.5 L 84.5 55 L 83 55.5 L 83 53.5 L 82.5 52 L 81 52.5 L 82 49.5 L 80 49.5 L 81.5 41 Z " /><path fill="rgb(255,255,255)" stroke="rgb(255,255,255)" stroke-width="1" opacity="0.023529411764705882" d="M 115.5 41 L 116 47.5 L 115 47.5 L 115.5 41 Z " /><path fill="rgb(255,255,255)" stroke="rgb(255,255,255)" stroke-width="1" opacity="0.023529411764705882" d="M 179.5 41 L 180 47.5 L 179 47.5 L 179.5 41 Z " /><path fill="rgb(255,255,255)" stroke="rgb(255,255,255)" stroke-width="1" opacity="0.023529411764705882" d="M 165.5 42 L 166 46.5 L 165 46.5 L 165.5 42 Z " /><path fill="rgb(255,255,255)" stroke="rgb(255,255,255)" stroke-width="1" opacity="0.023529411764705882" d="M 181.5 43 L 182 46.5 L 181 46.5 L 181.5 43 Z " /><path fill="rgb(255,255,255)" stroke="rgb(255,255,255)" stroke-width="1" opacity="0.023529411764705882" d="M 64.5 45 L 65 50.5 L 64 50.5 L 64.5 45 Z " /><path fill="rgb(255,255,255)" stroke="rgb(255,255,255)" stroke-width="1" opacity="0.023529411764705882" d="M 113.5 46 L 115 50.5 L 113 49.5 L 113.5 46 Z " /><path fill="rgb(255,255,255)" stroke="rgb(255,255,255)" stroke-width="1" opacity="0.023529411764705882" d="M 129.5 46 L 131 52.5 L 130 52.5 L 129.5 46 Z " /><path fill="rgb(255,255,255)" stroke="rgb(255,255,255)" stroke-width="1" opacity="0.023529411764705882" d="M 32.5 49 L 36 56.5 L 50 74.5 L 47 74.5 L 47 72.5 L 45.5 70 L 44 70.5 L 44 68.5 L 43.5 67 Q 42.3 69.3 41 66.5 L 41 64.5 L 40.5 63 Q 39.3 65.3 38 62.5 L 38 60.5 L 37.5 59 L 36 59.5 Q 38.5 58 35 56.5 L 34.5 55 L 33 55.5 L 33 53.5 L 32.5 52 L 31 52.5 L 32.5 49 Z " /><path fill="rgb(255,255,255)" stroke="rgb(255,255,255)" stroke-width="1" opacity="0.023529411764705882" d="M 180.5 49 L 181 52.5 L 178.5 58 L 177 55.5 L 179 55.5 L 178 52.5 L 180 52.5 L 180.5 49 Z " /><path fill="rgb(255,255,255)" stroke="rgb(255,255,255)" stroke-width="1" opacity="0.023529411764705882" d="M 66.5 50 L 67 51.5 L 66 54.5 L 68 54.5 L 66.5 57 L 65 52.5 L 66.5 50 Z " /><path fill="rgb(255,255,255)" stroke="rgb(255,255,255)" stroke-width="1" opacity="0.023529411764705882" d="M 112.5 51 L 113 52.5 L 110 56.5 L 110.5 58 L 109 57.5 L 108 59.5 Q 110.3 60.8 107.5 62 L 106 61.5 L 105 63.5 L 105.5 65 L 103 64.5 L 112.5 51 Z " /><path fill="rgb(255,255,255)" stroke="rgb(255,255,255)" stroke-width="1" opacity="0.023529411764705882" d="M 162.5 51 L 163 52.5 L 161 53.5 L 162.5 51 Z " /><path fill="rgb(255,255,255)" stroke="rgb(255,255,255)" stroke-width="1" opacity="0.023529411764705882" d="M 15.5 52 L 16.5 55 L 18 54.5 L 16.5 57 L 15.5 52 Z " /><path fill="rgb(255,255,255)" stroke="rgb(255,255,255)" stroke-width="1" opacity="0.023529411764705882" d="M 128.5 52 L 130 55.5 L 127 61.5 L 108 86.5 L 113 92.5 L 110 92.5 L 110 90.5 L 108.5 88 L 107 88.5 L 107.5 84 L 109 84.5 L 111 81.5 L 110.5 80 L 112 80.5 L 113 78.5 Q 110.8 77.3 113.5 76 L 115 76.5 L 116 74.5 L 115.5 73 Q 116.8 75.3 118 72.5 L 119 70.5 L 118.5 69 L 120 69.5 L 122 66.5 L 121.5 65 L 123 65.5 L 124 63.5 Q 121.8 62.2 124.5 61 L 126 61.5 L 128 56.5 L 127.5 55 L 129 55.5 L 128.5 52 Z " /><path fill="rgb(255,255,255)" stroke="rgb(255,255,255)" stroke-width="1" opacity="0.023529411764705882" d="M 160.5 55 L 160.5 58 L 159 57.5 L 157 60.5 L 157.5 62 L 156 61.5 L 155 63.5 Q 157.2 64.8 154.5 66 L 153 65.5 L 152 67.5 Q 154.3 68.8 151.5 70 L 150 69.5 L 149 71.5 Q 151.3 72.8 148.5 74 L 147 73.5 L 146 75.5 L 146.5 77 Q 145.3 74.8 144 77.5 L 143 79.5 L 143.5 81 L 141 80.5 L 160.5 55 Z " /><path fill="rgb(255,255,255)" stroke="rgb(255,255,255)" stroke-width="1" opacity="0.023529411764705882" d="M 67.5 58 L 69.5 61 L 71 60.5 L 71 62.5 L 71.5 64 L 73 63.5 L 72.5 66 L 67.5 58 Z " /><path fill="rgb(255,255,255)" stroke="rgb(255,255,255)" stroke-width="1" opacity="0.023529411764705882" d="M 177.5 59 L 177 60.5 L 172.5 67 L 172.5 64 L 174 64.5 L 175 62.5 L 174.5 61 L 176 61.5 L 177.5 59 Z " /><path fill="rgb(255,255,255)" stroke="rgb(255,255,255)" stroke-width="1" opacity="0.023529411764705882" d="M 18.5 60 L 20.5 63 L 22 62.5 L 21.5 65 L 18.5 60 Z " /><path fill="rgb(255,255,255)" stroke="rgb(255,255,255)" stroke-width="1" opacity="0.023529411764705882" d="M 91.5 64 L 93.5 67 L 91 66.5 L 91.5 64 Z " /><path fill="rgb(255,255,255)" stroke="rgb(255,255,255)" stroke-width="1" opacity="0.023529411764705882" d="M 22.5 66 L 25 66.5 L 25 68.5 L 25.5 70 Q 26.8 67.8 28 70.5 L 28 72.5 L 28.5 74 Q 29.8 71.8 31 74.5 L 31 76.5 L 31.5 78 Q 32.8 75.8 34 78.5 L 34 80.5 L 34.5 82 L 36 81.5 Q 33.5 83 37 84.5 L 37.5 86 L 39 85.5 L 38.5 88 L 22.5 66 Z " /><path fill="rgb(255,255,255)" stroke="rgb(255,255,255)" stroke-width="1" opacity="0.023529411764705882" d="M 102.5 66 L 102.5 69 L 101 68.5 L 99 71.5 L 99.5 73 L 98.5 72 L 96 73.5 L 96 71.5 L 95.5 70 L 94 70.5 L 94.5 68 L 97.5 72 L 102.5 66 Z " /><path fill="rgb(255,255,255)" stroke="rgb(255,255,255)" stroke-width="1" opacity="0.023529411764705882" d="M 73.5 67 L 76 67.5 L 75.5 70 L 73.5 67 Z " /><path fill="rgb(255,255,255)" stroke="rgb(255,255,255)" stroke-width="1" opacity="0.023529411764705882" d="M 169.5 68 L 172 68.5 L 169 70.5 L 169.5 68 Z " /><path fill="rgb(255,255,255)" stroke="rgb(255,255,255)" stroke-width="1" opacity="0.023529411764705882" d="M 76.5 71 L 79 71.5 L 79 73.5 L 79.5 75 Q 80.8 72.8 82 75.5 L 82 77.5 L 82.5 79 L 84 78.5 Q 81.5 80 85 81.5 L 85.5 83 L 87 82.5 L 87 84.5 L 87.5 86 Q 88.7 83.8 90 86.5 L 90 88.5 L 90.5 90 Q 91.8 87.8 93 90.5 L 93 92.5 L 93.5 94 L 95 93.5 L 94.5 96 L 76.5 71 Z " /><path fill="rgb(255,255,255)" stroke="rgb(255,255,255)" stroke-width="1" opacity="0.023529411764705882" d="M 166.5 72 L 169 72.5 L 166 74.5 L 166.5 72 Z " /><path fill="rgb(255,255,255)" stroke="rgb(255,255,255)" stroke-width="1" opacity="0.023529411764705882" d="M 50.5 76 L 52.5 79 L 50 78.5 L 50.5 76 Z " /><path fill="rgb(255,255,255)" stroke="rgb(255,255,255)" stroke-width="1" opacity="0.023529411764705882" d="M 163.5 76 L 166 76.5 L 152.5 94 L 152.5 91 L 154 91.5 L 156 88.5 L 155.5 87 L 157 87.5 L 158 85.5 Q 155.8 84.3 158.5 83 L 160 83.5 L 161 81.5 Q 158.7 80.3 161.5 79 L 163 79.5 L 164 77.5 L 163.5 76 Z " /><path fill="rgb(255,255,255)" stroke="rgb(255,255,255)" stroke-width="1" opacity="0.023529411764705882" d="M 53.5 80 L 55.5 83 L 53 82.5 L 53.5 80 Z " /><path fill="rgb(255,255,255)" stroke="rgb(255,255,255)" stroke-width="1" opacity="0.023529411764705882" d="M 140.5 82 L 140.5 85 L 138 84.5 L 140.5 82 Z " /><path fill="rgb(255,255,255)" stroke="rgb(255,255,255)" stroke-width="1" opacity="0.023529411764705882" d="M 56.5 84 L 72.5 105 Q 74.8 105.8 74 103.5 L 83.5 92 L 84 94.5 L 82.5 96 L 81 95.5 L 80 97.5 Q 82.3 98.7 79.5 100 L 78 99.5 L 77 101.5 L 77.5 103 Q 76.3 100.8 75 103.5 L 74 105.5 L 74.5 107 L 72 106.5 L 71.5 105 L 70 105.5 L 70 103.5 L 69.5 102 Q 68.3 104.3 67 101.5 L 67 99.5 L 66.5 98 Q 65.3 100.3 64 97.5 L 64 95.5 L 63.5 94 Q 62.2 96.3 61 93.5 L 61 91.5 L 60.5 90 L 59 90.5 Q 61.5 89 58 87.5 L 57.5 86 L 56 86.5 L 56.5 84 Z " /><path fill="rgb(255,255,255)" stroke="rgb(255,255,255)" stroke-width="1" opacity="0.023529411764705882" d="M 137.5 86 L 137.5 89 L 136 88.5 L 134 91.5 L 134.5 93 L 133 92.5 L 132 94.5 Q 134.3 95.8 131.5 97 L 130 96.5 L 129 98.5 Q 131.3 99.8 128.5 101 L 127 100.5 L 126 102.5 L 128 105.5 Q 125.5 107 129 108.5 L 129.5 110 L 131 109.5 Q 128.5 111 132 112.5 L 132.5 114 L 134 113.5 L 133 114.5 L 134.5 117 L 125 105.5 L 126 103.5 L 124 103.5 L 137.5 86 Z " /><path fill="rgb(255,255,255)" stroke="rgb(255,255,255)" stroke-width="1" opacity="0.023529411764705882" d="M 39.5 89 L 42 89.5 L 41.5 92 L 39.5 89 Z " /><path fill="rgb(255,255,255)" stroke="rgb(255,255,255)" stroke-width="1" opacity="0.023529411764705882" d="M 88.5 92 L 94 99.5 Q 92.5 102.5 91 99.5 L 91 97.5 L 90.5 96 Q 89.3 98.3 88 95.5 L 88 93.5 L 88.5 92 Z " /><path fill="rgb(255,255,255)" stroke="rgb(255,255,255)" stroke-width="1" opacity="0.023529411764705882" d="M 42.5 93 L 45 93.5 L 45 95.5 L 45.5 97 Q 46.8 94.8 48 97.5 L 48 99.5 L 48.5 101 Q 49.7 98.8 51 101.5 L 51 103.5 L 51.5 105 L 53 104.5 Q 50.5 106 54 107.5 L 54.5 109 L 56 108.5 Q 53.5 110 57 111.5 L 57.5 113 L 59 112.5 L 58.5 115 L 42.5 93 Z " /><path fill="rgb(255,255,255)" stroke="rgb(255,255,255)" stroke-width="1" opacity="0.023529411764705882" d="M 113.5 94 L 115.5 97 L 113 96.5 L 113.5 94 Z " /><path fill="rgb(255,255,255)" stroke="rgb(255,255,255)" stroke-width="1" opacity="0.023529411764705882" d="M 149.5 95 L 152 95.5 L 149 97.5 L 149.5 95 Z " /><path fill="rgb(255,255,255)" stroke="rgb(255,255,255)" stroke-width="1" opacity="0.023529411764705882" d="M 95.5 97 L 98 97.5 L 98 99.5 L 98.5 101 Q 99.8 98.8 101 101.5 L 101 103.5 L 101.5 105 L 103 104.5 Q 100.5 106 104 107.5 L 104.5 109 L 106 108.5 L 105.5 111 L 95.5 97 Z " /><path fill="rgb(255,255,255)" stroke="rgb(255,255,255)" stroke-width="1" opacity="0.023529411764705882" d="M 116.5 98 L 118.5 101 L 116 100.5 L 116.5 98 Z " /><path fill="rgb(255,255,255)" stroke="rgb(255,255,255)" stroke-width="1" opacity="0.023529411764705882" d="M 146.5 99 L 149 99.5 L 136.5 116 L 135.5 114 L 137 114.5 L 139 111.5 L 138.5 110 L 140 110.5 L 141 108.5 Q 138.8 107.3 141.5 106 L 143 106.5 L 144 104.5 Q 141.8 103.3 144.5 102 L 146 102.5 L 147 100.5 L 146.5 99 Z " /><path fill="rgb(255,255,255)" stroke="rgb(255,255,255)" stroke-width="1" opacity="0.023529411764705882" d="M 94.5 101 L 96 103.5 L 88.5 113 L 88.5 110 L 90 110.5 L 92 107.5 L 91.5 106 L 93 106.5 L 95 102.5 L 94.5 101 Z " /><path fill="rgb(255,255,255)" stroke="rgb(255,255,255)" stroke-width="1" opacity="0.023529411764705882" d="M 119.5 102 L 121.5 105 L 119 104.5 L 119.5 102 Z " /><path fill="rgb(255,255,255)" stroke="rgb(255,255,255)" stroke-width="1" opacity="0.023529411764705882" d="M 122.5 106 L 133 120.5 L 132 120.5 L 129.5 116 Q 128.3 118.3 127 115.5 L 127 113.5 L 126.5 112 L 125 112.5 Q 127.5 111 124 109.5 L 123.5 108 L 122 108.5 L 122.5 106 Z " /><path fill="rgb(255,255,255)" stroke="rgb(255,255,255)" stroke-width="1" opacity="0.023529411764705882" d="M 106.5 112 L 109 112.5 L 109 114.5 L 109.5 116 Q 110.8 113.7 112 116.5 L 112 118.5 L 112.5 120 L 114 119.5 L 113.5 122 L 106.5 112 Z " /><path fill="rgb(255,255,255)" stroke="rgb(255,255,255)" stroke-width="1" opacity="0.023529411764705882" d="M 85.5 114 L 88 114.5 L 80.5 124 L 80.5 121 L 82 121.5 L 83 119.5 Q 80.8 118.3 83.5 117 L 85 117.5 L 86 115.5 L 85.5 114 Z " /><path fill="rgb(255,255,255)" stroke="rgb(255,255,255)" stroke-width="1" opacity="0.023529411764705882" d="M 59.5 116 L 62 116.5 L 62 118.5 L 62.5 120 Q 63.7 117.8 65 120.5 L 65 122.5 L 65.5 124 Q 66.8 121.8 68 124.5 L 68 126.5 L 68.5 128 Q 69.8 125.8 71 128.5 L 70.5 131 L 59.5 116 Z " /><path fill="rgb(255,255,255)" stroke="rgb(255,255,255)" stroke-width="1" opacity="0.023529411764705882" d="M 130.5 121 Q 133.8 122.8 130 124.5 L 125.5 131 L 124.5 129 L 126 129.5 L 127 127.5 Q 124.8 126.2 127.5 125 L 129 125.5 L 130 123.5 Q 127.7 122.2 130.5 121 Z " /><path fill="rgb(255,255,255)" stroke="rgb(255,255,255)" stroke-width="1" opacity="0.023529411764705882" d="M 114.5 123 L 117 123.5 L 117 125.5 L 118.5 128 L 120 127.5 L 120 129.5 L 120.5 131 Q 121.8 128.8 123 131.5 Q 121 135 119 130.5 L 114.5 123 Z " /><path fill="rgb(255,255,255)" stroke="rgb(255,255,255)" stroke-width="1" opacity="0.023529411764705882" d="M 77.5 125 L 80 125.5 L 77 127.5 L 77.5 125 Z " /><path fill="rgb(255,255,255)" stroke="rgb(255,255,255)" stroke-width="1" opacity="0.023529411764705882" d="M 74.5 129 L 77 129.5 Q 74.9 132.8 74.5 129 Z " /><path fill="rgb(255,255,255)" stroke="rgb(255,255,255)" stroke-width="1" opacity="0.023529411764705882" d="M 68.5 153 L 72 153.5 L 68.5 154 L 68.5 153 Z " /><path fill="rgb(255,255,255)" stroke="rgb(255,255,255)" stroke-width="1" opacity="0.023529411764705882" d="M 10.5 154 L 18 154.5 L 10.5 155 L 10.5 154 Z " /><path fill="rgb(255,255,255)" stroke="rgb(255,255,255)" stroke-width="1" opacity="0.023529411764705882" d="M 28.5 154 L 34 154.5 L 28.5 155 L 28.5 154 Z " /><path fill="rgb(255,255,255)" stroke="rgb(255,255,255)" stroke-width="1" opacity="0.023529411764705882" d="M 44.5 154 L 52 154.5 L 44.5 155 L 44.5 154 Z " /><path fill="rgb(255,255,255)" stroke="rgb(255,255,255)" stroke-width="1" opacity="0.023529411764705882" d="M 64.5 154 L 67 154.5 L 64 155.5 L 64.5 157 L 62.5 156 L 60 157.5 Q 62.3 158.8 59.5 160 Q 58.3 157.8 57 160.5 L 57.5 162 L 55 161.5 L 64.5 154 Z " /><path fill="rgb(255,255,255)" stroke="rgb(255,255,255)" stroke-width="1" opacity="0.023529411764705882" d="M 73.5 154 Q 81.6 155.4 85 161.5 Q 83.5 164.5 82 161.5 Q 84.8 159.8 80.5 158 L 79 158.5 L 79.5 157 L 76.5 156 L 75 156.5 L 75.5 155 Q 72.5 155.5 73.5 154 Z " /><path fill="rgb(255,255,255)" stroke="rgb(255,255,255)" stroke-width="1" opacity="0.023529411764705882" d="M 91.5 154 Q 101.3 152.3 103 158.5 L 100 158.5 Q 102.3 157.3 99.5 156 L 98 156.5 L 98.5 155 L 91.5 155 L 91.5 154 Z " /><path fill="rgb(255,255,255)" stroke="rgb(255,255,255)" stroke-width="1" opacity="0.023529411764705882" d="M 112.5 154 L 119 154.5 L 112.5 155 L 112.5 154 Z " /><path fill="rgb(255,255,255)" stroke="rgb(255,255,255)" stroke-width="1" opacity="0.023529411764705882" d="M 127.5 154 L 141 154.5 L 127.5 155 L 127.5 154 Z " /><path fill="rgb(255,255,255)" stroke="rgb(255,255,255)" stroke-width="1" opacity="0.023529411764705882" d="M 154.5 154 L 162 154.5 L 154.5 155 L 154.5 154 Z " /><path fill="rgb(255,255,255)" stroke="rgb(255,255,255)" stroke-width="1" opacity="0.023529411764705882" d="M 170.5 154 L 177 154.5 L 170.5 155 L 170.5 154 Z " /><path fill="rgb(255,255,255)" stroke="rgb(255,255,255)" stroke-width="1" opacity="0.023529411764705882" d="M 68.5 155 L 72 155.5 L 68.5 156 L 68.5 155 Z " /><path fill="rgb(255,255,255)" stroke="rgb(255,255,255)" stroke-width="1" opacity="0.023529411764705882" d="M 142.5 155 L 144 155.5 L 140.5 157 L 140.5 156 L 142.5 155 Z " /><path fill="rgb(255,255,255)" stroke="rgb(255,255,255)" stroke-width="1" opacity="0.023529411764705882" d="M 9.5 156 L 11 156.5 L 9 157 L 8.5 160 L 8 157.5 L 9.5 156 Z " /><path fill="rgb(255,255,255)" stroke="rgb(255,255,255)" stroke-width="1" opacity="0.023529411764705882" d="M 28.5 156 L 27.5 158 L 28.5 156 Z " /><path fill="rgb(255,255,255)" stroke="rgb(255,255,255)" stroke-width="1" opacity="0.023529411764705882" d="M 33.5 156 L 34.5 158 L 33.5 156 Z " /><path fill="rgb(255,255,255)" stroke="rgb(255,255,255)" stroke-width="1" opacity="0.023529411764705882" d="M 52.5 156 L 54 159.5 L 53 159.5 L 52.5 156 Z " /><path fill="rgb(255,255,255)" stroke="rgb(255,255,255)" stroke-width="1" opacity="0.023529411764705882" d="M 111 156 L 113 156.5 L 112 157.5 L 112 170.5 L 111 171.5 L 111.5 173 L 110 171.5 L 111 168.5 L 111 156 Z " /><path fill="rgb(255,255,255)" stroke="rgb(255,255,255)" stroke-width="1" opacity="0.023529411764705882" d="M 119.5 156 L 120 184.5 L 119 184.5 L 119.5 156 Z " /><path fill="rgb(255,255,255)" stroke="rgb(255,255,255)" stroke-width="1" opacity="0.023529411764705882" d="M 145.5 156 L 149 159.5 L 147.5 161 L 145 158.5 L 145.5 156 Z " /><path fill="rgb(255,255,255)" stroke="rgb(255,255,255)" stroke-width="1" opacity="0.023529411764705882" d="M 25.5 157 L 27 160.5 L 25 160.5 L 26 163.5 L 24 163.5 L 25 166.5 L 23 166.5 L 24 169.5 L 22 168.5 L 21.5 166 L 20 166.5 L 21.5 163 L 22.5 166 L 25.5 157 Z " /><path fill="rgb(255,255,255)" stroke="rgb(255,255,255)" stroke-width="1" opacity="0.023529411764705882" d="M 36.5 157 L 39.5 166 L 40.5 163 L 42 167.5 L 41 167.5 L 40.5 166 L 38.5 170 L 39 168.5 L 38.5 166 L 37 166.5 L 38 163.5 L 36 163.5 L 37 160.5 L 35 160.5 L 36.5 157 Z " /><path fill="rgb(255,255,255)" stroke="rgb(255,255,255)" stroke-width="1" opacity="0.023529411764705882" d="M 42.5 157 L 44 159.5 L 42 159.5 L 41.5 162 L 41 159.5 L 42.5 157 Z " /><path fill="rgb(255,255,255)" stroke="rgb(255,255,255)" stroke-width="1" opacity="0.023529411764705882" d="M 89.5 157 L 90 184.5 L 89 184.5 L 89.5 157 Z " /><path fill="rgb(255,255,255)" stroke="rgb(255,255,255)" stroke-width="1" opacity="0.023529411764705882" d="M 121.5 157 L 122 183.5 L 121 183.5 L 121.5 157 Z " /><path fill="rgb(255,255,255)" stroke="rgb(255,255,255)" stroke-width="1" opacity="0.023529411764705882" d="M 125.5 157 L 126 183.5 L 125 183.5 L 125.5 157 Z " /><path fill="rgb(255,255,255)" stroke="rgb(255,255,255)" stroke-width="1" opacity="0.023529411764705882" d="M 152.5 157 L 153 184.5 L 152 184.5 L 152.5 157 Z " /><path fill="rgb(255,255,255)" stroke="rgb(255,255,255)" stroke-width="1" opacity="0.023529411764705882" d="M 163.5 157 L 164 184.5 L 163 184.5 L 163.5 157 Z " /><path fill="rgb(255,255,255)" stroke="rgb(255,255,255)" stroke-width="1" opacity="0.023529411764705882" d="M 167.5 157 L 168 183.5 L 167 183.5 L 167.5 157 Z " /><path fill="rgb(255,255,255)" stroke="rgb(255,255,255)" stroke-width="1" opacity="0.023529411764705882" d="M 20.5 159 L 21 161.5 L 19.5 164 L 19 162.5 L 20.5 159 Z " /><path fill="rgb(255,255,255)" stroke="rgb(255,255,255)" stroke-width="1" opacity="0.023529411764705882" d="M 103.5 160 L 110 167.5 L 107 167.5 Q 109.5 166 106 164.5 L 105.5 163 Q 104.3 165.3 103 162.5 L 103.5 160 Z " /><path fill="rgb(255,255,255)" stroke="rgb(255,255,255)" stroke-width="1" opacity="0.023529411764705882" d="M 149.5 161 Q 151.9 163.1 151 168.5 L 149.5 171 L 148 167.5 L 149 167.5 L 149.5 169 L 150 163.5 L 148 163.5 L 149.5 161 Z " /><path fill="rgb(255,255,255)" stroke="rgb(255,255,255)" stroke-width="1" opacity="0.023529411764705882" d="M 11.5 162 L 12 163.5 L 11 166.5 L 13 166.5 L 11.5 170 L 10 164.5 L 11.5 162 Z " /><path fill="rgb(255,255,255)" stroke="rgb(255,255,255)" stroke-width="1" opacity="0.023529411764705882" d="M 50.5 163 L 52 166.5 L 50.5 170 L 49 166.5 L 51 166.5 L 50.5 163 Z " /><path fill="rgb(255,255,255)" stroke="rgb(255,255,255)" stroke-width="1" opacity="0.023529411764705882" d="M 54.5 163 L 55.5 165 L 54.5 163 Z " /><path fill="rgb(255,255,255)" stroke="rgb(255,255,255)" stroke-width="1" opacity="0.023529411764705882" d="M 68.5 163 L 70.5 164 L 72.5 163 L 72.5 164 L 69.5 165 L 68.5 163 Z " /><path fill="rgb(255,255,255)" stroke="rgb(255,255,255)" stroke-width="1" opacity="0.023529411764705882" d="M 85.5 163 Q 89.1 165.9 88 173.5 Q 85.9 181.4 79.5 185 L 77.5 186 L 78.5 184 L 80 183.5 L 79.5 182 L 80.5 183 L 84 179.5 L 83.5 178 L 85 178.5 L 84 176.5 L 86 176.5 L 85 173.5 L 87 173.5 L 86.5 167 L 85.5 169 L 85 167.5 L 86 164.5 L 84 164.5 L 85.5 163 Z " /><path fill="rgb(255,255,255)" stroke="rgb(255,255,255)" stroke-width="1" opacity="0.023529411764705882" d="M 139.5 163 L 139 164.5 Q 140.5 169.8 136 168 Q 133.9 162.8 138.5 164 L 139.5 163 Z " /><path fill="rgb(255,255,255)" stroke="rgb(255,255,255)" stroke-width="1" opacity="0.023529411764705882" d="M 74.5 164 L 76 167.5 Q 74.5 173 77 174.5 Q 75.3 178.7 73.5 176 L 72 175.5 L 75 173.5 Q 76.5 167.5 73.5 166 L 72 165.5 L 74.5 164 Z " /><path fill="rgb(255,255,255)" stroke="rgb(255,255,255)" stroke-width="1" opacity="0.023529411764705882" d="M 53.5 165 L 55 169.5 L 54 169.5 L 53.5 165 Z " /><path fill="rgb(255,255,255)" stroke="rgb(255,255,255)" stroke-width="1" opacity="0.023529411764705882" d="M 64.5 165 L 66.5 165 L 68 165.5 L 65 167.5 Q 63.5 173.5 66.5 175 L 68 175.5 L 65.5 177 L 64 173.5 Q 62.5 168 65 166.5 L 64.5 165 Z " /><path fill="rgb(255,255,255)" stroke="rgb(255,255,255)" stroke-width="1" opacity="0.023529411764705882" d="M 52.5 168 L 53 172.5 L 52 172.5 L 52.5 168 Z " /><path fill="rgb(255,255,255)" stroke="rgb(255,255,255)" stroke-width="1" opacity="0.023529411764705882" d="M 77.5 169 L 78 171.5 L 77 171.5 L 77.5 169 Z " /><path fill="rgb(255,255,255)" stroke="rgb(255,255,255)" stroke-width="1" opacity="0.023529411764705882" d="M 54.5 171 L 55 173.5 L 54 176.5 L 56 176.5 Q 54.5 179.5 53 176.5 L 54.5 171 Z " /><path fill="rgb(255,255,255)" stroke="rgb(255,255,255)" stroke-width="1" opacity="0.023529411764705882" d="M 101.5 171 L 103 174.5 L 103.5 176 Q 104.8 173.8 106 176.5 Q 103.5 178 107 179.5 L 107.5 181 Q 108.8 178.8 110 181.5 L 109.5 184 L 101.5 174 L 100.5 184 L 100 172.5 L 101.5 171 Z " /><path fill="rgb(255,255,255)" stroke="rgb(255,255,255)" stroke-width="1" opacity="0.023529411764705882" d="M 146.5 172 L 149 172.5 L 142.5 177 L 142.5 176 L 146 174.5 Q 143.8 173.3 146.5 172 Z " /><path fill="rgb(255,255,255)" stroke="rgb(255,255,255)" stroke-width="1" opacity="0.023529411764705882" d="M 14.5 173 L 14 174.5 L 14.5 177 L 16 176.5 L 14.5 180 L 13 174.5 L 14.5 173 Z " /><path fill="rgb(255,255,255)" stroke="rgb(255,255,255)" stroke-width="1" opacity="0.023529411764705882" d="M 29.5 173 L 31.5 174 L 33 173.5 L 32 176.5 L 34 176.5 L 33 179.5 L 35 179.5 L 34 182.5 L 36 182.5 L 35 184.5 L 37 184.5 L 36.5 186 L 44 186.5 L 36.5 187 Q 32 183.7 32 177 Q 29 175.8 30 179.5 L 25.5 187 L 18 186.5 L 26 185.5 L 25.5 184 L 27 184.5 L 26 182.5 L 28 182.5 L 27 179.5 L 29 179.5 L 28 176.5 L 30 176.5 L 29.5 173 Z " /><path fill="rgb(255,255,255)" stroke="rgb(255,255,255)" stroke-width="1" opacity="0.023529411764705882" d="M 47.5 173 L 49 176.5 L 47.5 180 L 46 176.5 L 48 176.5 L 47.5 173 Z " /><path fill="rgb(255,255,255)" stroke="rgb(255,255,255)" stroke-width="1" opacity="0.023529411764705882" d="M 135.5 175 L 141 175.5 L 135.5 176 L 135.5 175 Z " /><path fill="rgb(255,255,255)" stroke="rgb(255,255,255)" stroke-width="1" opacity="0.023529411764705882" d="M 69.5 176 L 71 176.5 L 67.5 178 L 67.5 177 L 69.5 176 Z " /><path fill="rgb(255,255,255)" stroke="rgb(255,255,255)" stroke-width="1" opacity="0.023529411764705882" d="M 178.5 176 L 186 176.5 L 178.5 177 L 178.5 176 Z " /><path fill="rgb(255,255,255)" stroke="rgb(255,255,255)" stroke-width="1" opacity="0.023529411764705882" d="M 136 177 L 141 177.5 L 137 178 L 136.5 185 L 136 177 Z " /><path fill="rgb(255,255,255)" stroke="rgb(255,255,255)" stroke-width="1" opacity="0.023529411764705882" d="M 56.5 178 L 59.5 183 L 61 182.5 L 60.5 185 L 55 179.5 L 56.5 178 Z " /><path fill="rgb(255,255,255)" stroke="rgb(255,255,255)" stroke-width="1" opacity="0.023529411764705882" d="M 187.5 178 L 188 184.5 L 187 184.5 L 187.5 178 Z " /><path fill="rgb(255,255,255)" stroke="rgb(255,255,255)" stroke-width="1" opacity="0.023529411764705882" d="M 45.5 179 L 47 183.5 L 46 183.5 L 45.5 179 Z " /><path fill="rgb(255,255,255)" stroke="rgb(255,255,255)" stroke-width="1" opacity="0.023529411764705882" d="M 67.5 185 Q 73.3 184.3 76 186.5 L 73.5 187 Q 72.3 184.7 67.5 186 L 64.5 187 L 64.5 186 L 67.5 185 Z " /><path fill="rgb(255,255,255)" stroke="rgb(255,255,255)" stroke-width="1" opacity="0.023529411764705882" d="M 91.5 186 L 99 186.5 L 91.5 187 L 91.5 186 Z " /><path fill="rgb(255,255,255)" stroke="rgb(255,255,255)" stroke-width="1" opacity="0.023529411764705882" d="M 112.5 186 L 119 186.5 L 112.5 187 L 112.5 186 Z " /><path fill="rgb(255,255,255)" stroke="rgb(255,255,255)" stroke-width="1" opacity="0.023529411764705882" d="M 127.5 186 L 135 186.5 L 127.5 187 L 127.5 186 Z " /><path fill="rgb(255,255,255)" stroke="rgb(255,255,255)" stroke-width="1" opacity="0.023529411764705882" d="M 154.5 186 L 162 186.5 L 154.5 187 L 154.5 186 Z " /><path fill="rgb(255,255,255)" stroke="rgb(255,255,255)" stroke-width="1" opacity="0.023529411764705882" d="M 170.5 186 L 186 186.5 L 170.5 187 L 170.5 186 Z " /><path fill="rgb(255,255,255)" stroke="rgb(255,255,255)" stroke-width="1" opacity="0.023529411764705882" d="M 68.5 187 L 72 187.5 L 68.5 188 L 68.5 187 Z " /><path fill="rgb(255,255,255)" stroke="rgb(255,255,255)" stroke-width="1" opacity="0.996078431372549" d="M 47.5 13 L 58.5 15 L 64 18.5 L 61 24 L 59 24.5 L 59.5 26 L 58 25.5 L 59 27.5 L 56 27.5 L 56.5 26 L 49.5 25 Q 48 27.5 42.5 26 L 33 32.5 Q 27.7 37.2 29 48.5 L 32 55.5 L 64 97.5 L 65.5 102 L 67 101.5 Q 64.5 103 68 104.5 L 68.5 106 L 70 105.5 Q 67.5 107 71 108.5 L 71.5 110 L 73.5 109 L 75 109.5 L 76 107.5 L 75.5 106 L 77 106.5 L 79 103.5 L 78.5 102 L 80 102.5 Q 80.3 97.8 83.5 96 L 85 95.5 L 84.5 94 Q 86.3 97.1 88 95.5 L 93 103.5 L 76 125.5 L 74 130 L 71 128.5 L 21 60.5 L 17 50.5 L 17 39.5 Q 19.6 26.6 28.5 20 L 37.5 15 L 47.5 13 Z M 65 105 L 64 112 L 69 112 L 65 105 Z M 80 107 L 76 112 L 80 112 L 80 107 Z " /><path fill="rgb(255,255,255)" stroke="rgb(255,255,255)" stroke-width="1" opacity="0.996078431372549" d="M 90.5 14 L 91.5 15 Q 101.6 13.4 107.5 16 L 109.5 16 Q 116.9 18.1 121 23.5 Q 127.3 30.2 129 41.5 L 128 45.5 L 129 47.5 L 125 59.5 L 105 86.5 L 119.5 108 L 121 107.5 Q 118.5 109 122 110.5 L 122.5 112 L 124 111.5 L 130 120.5 L 122.5 130 L 104 105.5 L 102.5 101 L 101 101.5 Q 103.5 100 100 98.5 L 99.5 97 L 98 97.5 L 98.5 96 L 96 94.5 L 94.5 90 L 93 90.5 Q 95.5 89 92 87.5 L 91.5 86 L 90 86.5 Q 92.5 85 89 83.5 L 86.5 80 Q 84.3 80.8 85 78.5 L 71 60.5 L 68 54.5 Q 65.7 47.8 67 37.5 Q 70.3 25.3 79.5 19 Q 83 15 91 15.5 L 90.5 14 Z M 93 26 L 86 30 L 79 41 Q 78 51 82 56 L 96 75 L 99 76 L 114 55 L 117 46 L 116 39 L 114 35 L 106 27 Q 101 25 93 26 Z M 91 80 L 92 81 L 91 85 L 93 84 Q 95 83 94 86 L 96 87 L 96 80 L 91 80 Z M 103 96 L 104 98 Q 105 95 103 96 Z M 113 103 Q 110 109 113 111 L 114 112 L 119 112 Q 120 109 117 110 L 113 103 Z " /><path fill="rgb(255,255,255)" stroke="rgb(255,255,255)" stroke-width="1" opacity="0.996078431372549" d="M 140.5 14 L 141.5 15 L 153.5 15 L 155 14.5 L 154.5 16 L 162.5 17 L 173 26.5 Q 178.8 33.7 179 46.5 L 177 55.5 L 171.5 64 L 170 64.5 L 170.5 66 L 169 65.5 L 168 69.5 L 159.5 81 L 158 80.5 L 157 84.5 L 135.5 113 L 132 110.5 L 127 103.5 L 155.5 66 L 157 65.5 L 156.5 64 L 158 64.5 L 160 61.5 L 159.5 60 L 161 60.5 L 166 50.5 L 166 38.5 L 157.5 28 L 152.5 26 L 141.5 25 L 141.5 27 L 139.5 26 L 136.5 27 L 137 25.5 L 136.5 24 L 135 24.5 L 135 22.5 L 132 17.5 L 133.5 18 L 135 17.5 L 134.5 16 L 136.5 17 L 141 15.5 L 140.5 14 Z M 144 16 L 141 17 L 139 17 L 137 20 L 140 24 L 142 23 Q 143 25 144 23 L 144 16 Z " /><path fill="rgb(255,255,255)" stroke="rgb(255,255,255)" stroke-width="1" opacity="0.996078431372549" d="M 69.5 156 L 75.5 157 L 82 161.5 L 85 168.5 L 85 172.5 L 84 176 Q 81.3 174.9 82 177.5 L 81.5 180 L 80 179.5 Q 81.1 182.8 78.5 182 Q 75.3 185.3 68.5 185 L 60.5 182 L 58 179.5 L 55 172.5 L 55 168.5 L 59 160 L 69.5 156 Z M 69 162 L 65 164 L 62 168 L 63 176 L 69 179 L 76 177 L 78 174 L 77 166 Q 75 161 69 162 Z " /><path fill="rgb(255,255,255)" stroke="rgb(255,255,255)" stroke-width="1" opacity="0.996078431372549" d="M 11 157 L 16.5 157 L 17 158.5 L 21 173.5 L 22.5 175 L 29.5 157 Q 33.3 156.3 34 158.5 L 39 175 Q 42.3 176.3 41 171.5 L 45 157 L 51 157 L 51 159.5 Q 45.8 170.6 44 184 L 37.5 184 L 36 182.5 L 32 168 Q 29 166.8 30 170.5 L 24.5 184 Q 19.3 185.3 18 182.5 L 11 157 Z " /><path fill="rgb(255,255,255)" stroke="rgb(255,255,255)" stroke-width="1" opacity="0.996078431372549" d="M 92 157 L 98.5 157 L 99 158.5 L 111.5 174 L 113 173.5 L 113 157 L 119 157 L 119 183.5 Q 118.8 184.8 112.5 184 L 100 167 L 98 167.5 L 98 184 L 92 184 L 92 157 Z " /><path fill="rgb(255,255,255)" stroke="rgb(255,255,255)" stroke-width="1" opacity="0.996078431372549" d="M 128 157 L 140.5 157 L 147 161.5 L 148 167.5 L 143.5 174 L 134 175 L 134 184 L 128 184 L 128 157 Z M 134 162 L 134 170 L 139 170 Q 142 169 141 163 L 134 162 Z " /><path fill="rgb(255,255,255)" stroke="rgb(255,255,255)" stroke-width="1" opacity="0.996078431372549" d="M 155 157 L 160.5 157 L 161 157.5 L 161 175.5 L 160 176.5 L 160 184 L 155 183.5 L 155 157 Z " /><path fill="rgb(255,255,255)" stroke="rgb(255,255,255)" stroke-width="1" opacity="0.996078431372549" d="M 170 157 L 175.5 157 L 176 157.5 L 176 180 L 184 180 L 184 183 L 170 184 L 170 157 Z " /></svg>