<svg xmlns="http://www.w3.org/2000/svg" viewBox="-40 -39 508 555"><path fill="#fff" d="M11.5 1H426v71l-3.2 2.8c-1.7 1.5-6.3 5.1-10.2 8s-11.3 8.6-16.5 12.5c-5.1 4-11.2 8.7-13.5 10.5-2.2 1.7-4.7 3.7-5.4 4.2-.6.6-1.6 1-2.2 1s-1.3.6-1.8 1.3c-.4.7-3.2 3-6.2 5.2s-9.6 6.9-14.5 10.5c-4.9 3.7-16.2 12-24.9 18.6-8.7 6.5-18.7 13.9-22.1 16.4s-9.5 7.1-13.6 10.3-11 8.4-15.4 11.7c-4.4 3.2-9.6 7-11.5 8.5-1.9 1.4-8.3 6.2-14.3 10.5-5.9 4.4-11 8.7-11.4 9.6-.6 1.1 0 2.2 1.7 3.6 1.4 1 9.4 7.2 17.9 13.6s22.3 16.6 30.6 22.7c8.4 6.1 17.2 12.6 19.6 14.6s8.1 6.1 12.7 9.2c4.5 3.2 8.4 5.3 8.7 4.7s.5-26.6.5-115l4.3-3.9c2.3-2.2 9.8-8.1 16.7-13.1 6.9-5.1 14.3-10.6 16.4-12.4 2.2-1.7 5-3.8 6.2-4.6 1.3-.8 8.5-6.2 16-12 7.6-5.8 17.8-13.5 22.8-17.2s9.8-7.2 10.6-7.7c1.3-.8 1.6 2.6 2.3 27.2.5 15.5.7 89.8.5 165-.2 89.5-.6 137.2-1.3 137.8-.6.5-17.6.8-79.1.4l-5-4c-2.7-2.3-6.3-4.9-7.9-6-1.6-1-6.4-4.4-10.5-7.6s-10.4-8.1-14-10.8c-3.6-2.8-9.6-7.3-13.5-10.1-3.9-2.7-8.3-6-9.9-7.2-1.7-1.3-9.1-7-16.5-12.8-7.5-5.8-17.2-13.1-21.6-16.2-4.4-3.2-17.1-12.6-28.2-21s-26.4-19.9-34-25.6c-7.6-5.6-15.1-11.3-16.8-12.5s-6.8-5.1-11.4-8.7c-4.7-3.6-10.4-7.9-12.7-9.5s-5.7-4.2-7.5-5.6c-1.9-1.4-13.3-9.9-25.4-19-12.1-9-22.5-16.8-23.2-17.4-.6-.5-6.4-4.8-12.8-9.5s-11.6-9.1-11.5-9.8c0-.6.8-1.6 1.7-2.1 1-.5 15.7-11.3 32.8-24 17.1-12.6 33-24.5 35.5-26.3s6.1-4.5 8-6.1c1.9-1.5 13.8-10.5 26.5-19.8s27.6-20.4 33.3-24.7c5.7-4.2 11.6-8.7 13-9.9 2.3-1.9 2.5-2.4 1.2-3.2-.9-.7-22.6-1-57.7-1.1-31 0-57.4.2-61.3 1v33c0 19.7-.4 34-1 35.5-.5 1.4-5.3 5.8-10.6 9.7-5.2 4-12.6 9.5-16.4 12.3-3.7 2.7-8.1 6.2-9.7 7.6-1.5 1.4-5 4.1-7.8 5.9-2.7 1.8-6.6 4.7-8.5 6.4s-4.6 3.9-6 4.8c-2.3 1.5-2.4 1.9-1 3.4.8 1 7.6 6.3 15 11.9s17.1 12.8 21.5 16.1 11.2 8.3 22 16.3l.8 7.8c.4 4.3.7 19.8.7 34.5 0 22.5.2 27 1.5 28.3s7.9 1.5 93 1.4l21.5 15.9c11.8 8.7 28.3 20.9 36.5 27 8.3 6.1 18.8 14 23.5 17.6s14.1 10.6 21 15.6 14.9 11 17.7 13.3c2.9 2.3 5 4.5 4.8 4.9-.3.5-70.9.8-157 .8-138.2 0-156.6-.2-157-1.5-.3-.8-.4-93.6-.4-206.3.1-112.6.3-205.5.5-206.5.2-.9 1.1-1.7 2-1.7.8 0 2.2-.7 3-1.5S8 7.4 8 6.7c0-.6.8-2.2 1.7-3.4z"/></svg>