<svg xmlns="http://www.w3.org/2000/svg" width="544" height="584" version="1.2" viewBox="0 0 544 584"><path d="M54.2 8.6c-.1.5 11 12.2 24.7 25.9C99.5 55.2 104 60.3 105.2 64c.9 2.5 15.2 43.4 31.8 91s30.6 87.1 31.1 87.8c.7.9 6.8 1.2 24.6 1.2 13.1 0 24.1-.3 24.5-.7.3-.5-.2-3.3-1.2-6.3s-4.4-12.9-7.6-22c-3.1-9.1-9.5-27.5-14.1-41-4.7-13.5-9.7-28.3-11.3-33-1.5-4.7-5.6-16.4-9-26-3.3-9.6-7.9-22.9-10.1-29.5-2.3-6.6-5.2-14.9-6.5-18.5-1.4-3.6-2.4-7.6-2.4-9s2.4-6.1 5.4-10.5c2.9-4.4 5.5-8.4 5.7-9 .2-.5 4.3-7 9.2-14.2C180.1 17 184 10.6 184 10s-4.3-1-10.8-1c-5.9 0-35-.3-64.8-.7-32.2-.4-54.1-.2-54.2.3m329.2 2.2c.4.9 4.3 7.3 8.5 14.2 4.3 6.9 10.6 16.8 13.9 22 5.4 8.3 6 9.9 5.4 12.8l-.7 3.3 51.9-.6c1.4-5 9.3-13.7 24.4-28.8 12.5-12.5 22.8-23.2 22.9-23.7.2-.6-23-1-63.4-1-60.2 0-63.6.1-62.9 1.8m-370.2 62c-1.8.1-3.2.8-3.2 1.5 0 .6 10.1 11.3 22.5 23.7l22.4 22.5c.1 139.5.1 191.3 0 205-.1 13.8-.2 26.6-.1 28.5 0 1.9 0 11.6.1 21.5s0 18.1-.1 18.2c-.2.1-.2 6.8 0 15 .1 8.1.2 16.2.2 17.8-.1 1.6-.2 4.5-.3 6.3-.2 2.8-3.2 6.2-22.6 25.5-16.9 16.8-22.2 22.6-21.7 24 .6 1.6 6.8 1.7 113.8 1.5 112.4-.3 113.3-.3 113.6-2.3.1-1.1-2-8.3-4.8-16s-5.7-16-6.5-18.5-2-6.2-2.7-8.3l-1.3-3.7c-18.6-.1-45-.1-70.8-.1l-46.7.1V303.5c205-.4 210.6-.5 211.8-2.2.7-1 1.9-3.8 2.7-6.3s3.2-9.7 5.4-16 4.6-13.3 5.4-15.5 1.8-5.4 2.1-7l.6-3c-175.3 0-226.6-.2-227-.5-.5-.3-.9-7.9-1-17 0-9.1-.1-38.7 0-65.8V121c6.2 0 8-.3 8-.7.1-.5-3.4-11.3-7.7-24.1L97.5 73c-5.4-.1-23.7-.2-44-.3-20.4-.1-38.5-.1-40.3.1m242.1.2-85.1.5c6.6 19.4 9 26.1 9.5 27.5.6 1.4 1.6 4.5 2.3 7s2.1 6.4 3.1 8.8l1.9 4.2h299.5C521.8 85.7 532 74.9 532 74.3c0-1-14.9-1.3-71.3-1.3-39.1-.1-82.2-.2-95.7-.3s-62.8 0-109.7.3m131 59.7c-.3 1-1.3 3.4-2.1 5.3s-2.5 6.7-3.8 10.5c-1.3 3.9-3.4 10.2-4.8 14-1.3 3.9-5.4 15.6-9.1 26-3.6 10.4-7.2 21-8 23.5-.7 2.5-3.2 9.7-5.5 16-2.2 6.3-7 20.1-10.5 30.5s-7 20.6-7.6 22.5c-.7 1.9-1.8 4.9-2.5 6.5s-1.7 4.6-2.2 6.5c-.6 1.9-3.3 9.9-6.1 17.8-2.8 7.8-4.8 14.2-4.4 14.2.5-.1.3.5-.4 1.2-.6.7-2.8 6.2-4.8 12.3-2.1 6.1-4.8 14.1-6.1 18s-2.8 7.9-3.3 9-2.1 5.6-3.5 10c-1.5 4.4-3.1 9.4-3.6 11s-3.6 10.6-7 20c-3.3 9.4-6.5 17.4-7 18q-1 1-2.4-.5c-.7-.8-2.5-5.1-3.9-9.5-1.5-4.4-4.5-13.2-6.7-19.5-2.3-6.3-6.3-18-9-26-2.6-8-7.4-21.7-10.5-30.5s-6.4-18.4-7.4-21.2l-1.6-5.3c-10.1-.1-20.9-.1-30.5-.1-9.6-.1-18.1-.1-18.8 0-.8.1-1 1.2-.6 3.9.3 2 .7 4.1.8 4.7s.5 1.6.9 2.3c.4.6.5 1.6.2 2.2s-.1 1 .5 1c.5 0 .8.9.5 2-.3 1.3.1 2.3 1.2 2.9 1.2.6 1.8 2.2 1.8 4.4 0 2 .4 3.2 1 2.9.5-.4.6.2.2 1.6-.5 1.5-.2 2.4.9 3 .9.4 1.5 1.9 1.5 3.5-.1 1.5.3 2.7.9 2.7.5 0 .8.4.5 1s-.1 1.2.5 1.5c.5.3 1 1.9 1 3.5s.4 3 1 3c.5 0 .8.7.5 1.5q-.5 1.5.7.8c.9-.6 1-.2.5 1.5-.4 1.3-.3 2.3.3 2.5.6.1 1.2.9 1.3 1.7.2.8.5 1.9.9 2.5.3.6 1.4 3.7 2.4 7 .9 3.3 1.8 6.2 1.9 6.5s.5 1.4.9 2.5c.5 1.1 1.9 5 3.2 8.8 1.3 3.7 3.5 9.7 4.8 13.5 1.3 3.7 3.7 10.5 5.4 15.2 1.6 4.7 4.8 14.1 7 21 2.3 6.9 5.7 17 7.7 22.5s4.6 13.3 5.8 17.3c1.2 3.9 2 7.4 1.8 7.7s.1.5.7.5c.7 0 1 .4.7 1s-.1 1 .5 1c.5 0 .8.6.6 1.3-.2.6.3 2.4 1 4 .8 1.5 1.2 2.7.9 2.7s.2 1 1 2.3c.8 1.2 1.2 2.6.8 3-.5.4-.1 1.2.7 1.7s1.5 2 1.5 3.2c0 1.3.4 2.9.8 3.6.4.6.4 1.2-.1 1.2-.4-.1 0 .6.8 1.5s1 1.6.5 1.6c-.6-.1-.5.3.2.7.6.4 1.9 3.4 2.9 6.7.9 3.3 1.8 7.2 2 8.8.2 1.5.8 2.7 1.4 2.7.5 0 2.2 3.9 3.7 8.8 1.4 4.8 2.9 9.2 3.3 9.7s1.1 2.6 1.5 4.5 1.7 5.6 2.9 8.3c1.4 3.1 2.7 4.7 3.8 4.7 1.2 0 2.3-1.5 3.4-4.7.9-2.7 2-5.7 2.5-6.8.4-1.1 1.5-3.8 2.4-6 .8-2.2 1.5-4.7 1.5-5.5s1.7-5.5 3.6-10.5c2-5 3.7-9.7 3.8-10.5s1.5-5.3 3.1-10 3.5-9.1 4.2-9.8c.7-.6 1.3-2.6 1.3-4.2s.9-5.4 2.1-8.2c1.1-2.9 3.4-9.1 5.1-13.8 1.6-4.7 3.3-9.9 3.8-11.5s3-8.9 5.5-16c2.6-7.1 5.1-14.6 5.6-16.5.6-1.9 1.4-4.4 2-5.5.5-1.1 5-13.9 10-28.5 4.9-14.6 9.4-27.9 9.9-29.5.4-1.6 2.3-7.1 4-12 1.8-4.9 5.3-14.6 7.7-21.5s4.8-13.9 5.3-15.5 3.6-10.9 7-20.5c3.3-9.6 8.3-24 11-32s7.6-22.2 10.9-31.5c3.2-9.3 6.4-18.3 7.1-20s1.6-4.3 2.1-6c.4-1.7 4-12.2 7.9-23.5s8.9-25.7 11-32 4.9-14.4 6.3-18c1.3-3.6 2.7-8.2 3-10.2l.7-3.8c-48 0-50.1.1-50.7 1.7M473.6 243l-11 11H406c-2.1 6.6-4.1 12.3-5.7 17s-3.7 10.8-4.7 13.5c-1 2.8-2.4 6.6-3.1 8.5s-1.5 5-1.9 6.8l-.6 3.2c13.6.3 30.1.3 45.5.2l28-.2c15.8 15.9 20.2 20.8 20 21.3-.3.4.2.5 1 .2s1.5-1.5 1.6-2.7c0-1.3.2-12 .3-23.8.2-11.8.6-21.9.9-22.5s.2-2.6-.3-4.5c-.4-1.9-.4-4.2 0-5 .5-.8.5-2.2 0-3-.4-.8-.8-6.9-.9-13.5 0-6.6 0-13.2-.1-14.7 0-1.6-.3-2.8-.8-2.8-.4 0-5.6 5-11.6 11M355 434.8l-11.5.3c-5.1 15-7.4 21.4-8.4 23.9-1.1 2.5-3.2 8.4-4.7 13.3-1.9 5.8-2.6 9-1.9 9.7.6.6 37.9.9 103.9.7l102.9-.2c-42.9-40.7-50.2-47.1-52.1-47.2-1.5-.2-28.4-.4-59.7-.5-31.4-.2-62.2-.2-68.5 0" style="opacity:1;fill:#fff"/></svg>