<svg xmlns="http://www.w3.org/2000/svg" width="512" height="330.816" viewBox="0 0 135.46666 87.528405"><path d="M25.938 87.423c-.827-.246-1.261-.805-3.127-4.022a897.712 897.712 0 0 0-3.049-5.215c-.717-1.213-2.281-3.885-3.477-5.938a5192 5192 0 0 0-4.157-7.126c-1.092-1.867-3.723-6.371-5.847-10.01a1518.32 1518.32 0 0 0-4.93-8.399C.07 44.571-.15 43.87.081 42.651c.224-1.185.645-2.097 1.661-3.603.466-.69 4.435-7.399 8.819-14.907C24.648.016 24.038 1.034 24.666.612c.423-.284.82-.387 1.493-.387 1.027 0 1.622.251 2.279.96.644.697.827 1.13.827 1.96 0 .782-.605 1.87-8.57 15.404-.577.98-1.473 2.507-1.99 3.393l-7.96 13.637c-1.572 2.694-2.858 4.947-2.858 5.006 0 .06 5.592.081 12.428.05l12.428-.06.579.397c.808.554 1.248 1.484 1.238 2.613-.013 1.486-.793 2.48-2.195 2.799-.352.08-5.856.155-12.23.165-9.467.017-11.606.062-11.676.246-.048.124.694 1.55 1.65 3.168a699.019 699.019 0 0 1 2.274 3.876c.295.513 1.188 2.04 1.983 3.393.795 1.354 2.897 4.942 4.67 7.975l6.725 11.497c4.163 7.118 4.182 7.154 4.182 7.93 0 .964-.766 2.078-1.781 2.588-.538.271-1.65.371-2.224.2zm12.488-.02c-1.29-.366-2.362-1.692-2.371-2.934-.004-.548.255-1.022 4.552-8.32a1262.26 1262.26 0 0 0 3.334-5.683c.295-.513 3.985-6.838 8.2-14.056l7.665-13.122-1.168-1.978c-.643-1.087-2.792-4.764-4.775-8.17a3828.85 3828.85 0 0 0-5.65-9.67 1100.978 1100.978 0 0 1-3.512-6.024c-.807-1.4-2.74-4.704-4.296-7.344-3.666-6.222-3.734-6.358-3.628-7.29.099-.882.809-1.855 1.664-2.282.741-.37 2.25-.389 2.846-.037.523.309.852.784 2.402 3.465.62 1.073 3.405 5.845 6.187 10.604 2.783 4.759 6.839 11.707 9.014 15.44 2.175 3.732 4.032 6.9 4.127 7.04.235.346.376.154 2.197-2.969l4.6-7.89c1.715-2.938 5.328-9.123 8.03-13.742 2.701-4.619 5.31-9.085 5.795-9.925C84.72.649 85.263.226 86.58.226c1.8 0 3.086 1.192 3.086 2.861 0 .944.55-.045-10.318 18.516-1.448 2.473-3.14 5.374-3.761 6.447-.62 1.073-2.86 4.907-4.977 8.52-2.117 3.613-3.849 6.647-3.849 6.742 0 .095 1.134 2.101 2.52 4.459 1.386 2.358 4.68 7.99 7.319 12.515 2.64 4.526 5.385 9.222 6.1 10.435 6.552 11.104 7.644 13.078 7.644 13.814 0 2.45-3.342 3.977-4.953 2.264-.243-.258-1.11-1.614-1.927-3.014L77.07 72.84a8272.238 8272.238 0 0 1-9.263-15.9c-2.395-4.125-4.44-7.503-4.542-7.507-.175-.006-.983 1.344-7.454 12.464a3045.927 3045.927 0 0 1-4.658 7.974c-1.15 1.96-3.805 6.503-5.901 10.095-2.096 3.593-3.891 6.633-3.99 6.756-.494.61-1.896.946-2.836.68zm69.354-.006c-1.17-.308-1.87-1.183-4.304-5.394a16647.4 16647.4 0 0 1-4.264-7.38 6064.938 6064.938 0 0 0-4.714-8.144c-1.515-2.613-3.727-6.43-4.914-8.483a4543.9 4543.9 0 0 0-4.132-7.123c-2.365-4.066-2.913-5.467-2.912-7.438.001-1.747.201-2.485 1.02-3.763.358-.56 5.433-9.225 11.277-19.257 5.844-10.031 10.839-18.506 11.1-18.832.801-1.006 1.909-1.584 3.033-1.583.572 0 1.193.117 1.513.283.747.388 1.644 1.346 2.232 2.382l5.148 9.097c3.85 6.806 9.094 16.055 15.292 26.977 2.134 3.76 2.32 4.179 2.312 5.226-.004.532-.106 1.234-.227 1.56-.12.327-3.08 5.366-6.578 11.198-3.498 5.833-8.757 14.613-11.687 19.512-5.182 8.665-6.172 10.124-7.357 10.84-.74.448-1.112.513-1.838.322zm1.916-11.429 6.351-10.846c5.49-9.378 7.096-12.115 10.676-18.204 1.102-1.875 1.786-3.208 1.725-3.366-.111-.29-2.468-4.522-8.206-14.738-5.93-10.558-6.615-11.782-8.956-15.988-1.207-2.168-2.243-3.943-2.303-3.945-.06-.002-.49.665-.957 1.482-1.27 2.22-3.027 5.25-4.701 8.101-.822 1.4-2.217 3.805-3.1 5.345-2.14 3.727-5.431 9.406-8.72 15.045-1.478 2.536-2.689 4.721-2.689 4.855 0 .133.448.998.996 1.92l3.202 5.41c1.214 2.054 3.498 5.91 5.075 8.569 1.578 2.66 4.584 7.752 6.68 11.317 2.098 3.565 3.887 6.461 3.976 6.436.09-.026.518-.653.951-1.393z" style="fill:#fff"/></svg>