<svg xmlns="http://www.w3.org/2000/svg" width="97" height="100"><g fill="#ffffff"><path d="M57.353 45.56a2 2 0 0 0-.543.215c-.278.141-.918.38-1.672.625-1.45.47-2.883.79-3.668.829-.114 0-.313.011-.426.023-.121.008-.617.027-1.102.039-.476.016-.968.023-1.09.035-.12.012-.511.016-.878.016-.364.008-.758.012-.891.02-.125.015-.535.019-.91.023-.371 0-.703.008-.742.008-.172.011-.797.03-1.555.05-.457.004-.937.02-1.066.024-.13.008-.532.012-.91.02-.368.007-.711.015-.747.019a30 30 0 0 1-.867.015c-.445.012-.847.016-.902.024-.051.004-.551.016-1.121.031-.567.004-1.043.016-1.055.024-.02 0-.418.015-.898.02-.473.007-.875.01-.88.019-.25.015-.491.02-.741.02-.395.003-.797.01-.883.015-.086.008-.485.015-.875.023q-1.131.02-2.262.055c-.363.004-.73.016-.809.02-.082 0-.41.011-.722.019-2.016.04-2.637.055-3.11.066-.289.008-.789.02-1.097.032-.317.004-.707.011-.875.015-.168.008-.52.012-.79.02-.28.008-.64.012-.82.02-.191.003-.699.019-1.156.027-.45.011-1.094.02-1.434.035-.593.02-1.851.05-2.792.066-.258 0-.61.016-.793.024-.18 0-.532.011-.782.015-.25 0-.773.016-1.164.028-1.562.043-3.187.074-4 .082a30 30 0 0 0-1.191.031c-.184.008-.684.027-1.117.035-.871.008-.95.004-1.57-.121-1.301-.262-2.141-.594-2.848-1.137-.375-.285-.493-.363-.657-.418-.363-.144-.652-.07-.789.196-.054.109-.058.12-.058.328 0 .164.008.27.043.386.058.227.097.31.289.606.07.094.129.191.187.289.012.023.051.07.07.11.044.074.157.245.903 1.406.195.304.355.55.355.554s.137.223.309.493c.355.542.809 1.242 1.04 1.613.093.14.179.281.206.32l.227.348c.093.16.203.328.234.383.04.05.168.25.297.445.121.203.234.383.258.41a1 1 0 0 0 .039.07l.285.453.523.813c.11.164.22.336.329.504l.3.469c.422.668.758 1.183.797 1.254.227.355.453.71.688 1.066 0 .012.285.46.656 1.039.043.066.21.313.363.555.7 1.086 1.094 1.597 1.563 2.054.68.66 1.168.672 1.316.032.024-.13.024-.184 0-.758-.047-.82-.035-.942.133-1.274.223-.464.707-.84 1.258-.984.218-.05.504-.062 2.472-.09a71 71 0 0 0 1.985-.043c.011-.004.48-.015 1.054-.027l1.09-.024c.043-.003.348-.015.684-.015.328 0 .73-.012.887-.016.152-.004.574-.02.937-.027.66-.012 1.223-.024 1.422-.04.059-.003.379-.011.715-.011s.738-.012.894-.02c.153-.007.649-.015 1.098-.023.457-.004.953-.016 1.113-.02.16-.007.594-.019.969-.019.367-.004.703-.02.734-.023l.985-.024c1.277-.023 1.832-.035 2.523-.058.93-.036 1.973-.051 3.446-.07.746-.012 1.597-.036 1.882-.04a99 99 0 0 1 1.782-.047c1.168-.027 1.273-.027 1.46 0 .641.098 1.188.492 1.473 1.059.125.262.133.394.14 1.113 0 .594.009.649.048.781.078.282.168.418.312.489.102.047.278.047.43 0 .344-.114.848-.567 1.308-1.176.083-.113.208-.274.286-.367.078-.082.168-.192.191-.235.035-.043.121-.152.2-.246.066-.086.167-.207.214-.265.05-.067.09-.125.098-.125l.086-.106c.039-.05.082-.097.082-.101.011-.008.035-.043.062-.079.016-.035.055-.078.078-.105.016-.02.063-.078.102-.121l.078-.094c.012-.004.086-.11.402-.52.075-.1.188-.242.246-.308.125-.148.122-.148.18-.23a2 2 0 0 1 .125-.157c.047-.054.133-.164.2-.254.066-.082.132-.168.144-.175l.14-.188a2 2 0 0 1 .157-.2c.054-.062.11-.128.16-.198.059-.086.14-.184.172-.223.031-.035.129-.16.215-.27.093-.12.203-.257.254-.316.191-.242.195-.242.52-.66.148-.191.292-.375.444-.563l.102-.125c.066-.093.137-.175.207-.261q.072-.105.16-.203l.153-.196c.082-.101.203-.265.28-.363.079-.094.204-.258.286-.36.078-.097.148-.19.152-.195l.153-.199.156-.195.133-.168c.066-.094.164-.203.203-.262.043-.05.094-.113.12-.144.063-.09.126-.168.192-.25l.27-.348c.082-.11.27-.34.418-.524.222-.292.515-.652.613-.765.027-.04.734-.934.957-1.211l.406-.535.387-.485.106-.132c.023-.024.101-.13.183-.227.074-.105.274-.348.434-.55.156-.208.343-.442.414-.536.066-.086.156-.2.199-.242a1 1 0 0 0 .164-.45.8.8 0 0 0-.012-.41c-.425-.437-.683-.484-.925-.417m-45.622 4.3.508.157c.328.105.864.265 1.157.37.156.044.421.133.59.18.296.098.456.149 1.43.453.218.075.483.157.573.184.09.024.457.145.817.258.355.113.718.226.808.254.27.082.535.164 1.297.41.399.137.887.289 1.082.344.422.125.64.195.645.218.015.012-.094.102-.25.211-.035.036-.086.07-.102.082-.094.075-.789.594-.969.727a1 1 0 0 0-.152.117c-.043.024-.2.145-.351.258l-.313.234a9 9 0 0 1-.309.227l-.113.09c-.066.05-.633.469-.754.566a2 2 0 0 0-.215.156c-.082.067-.175.133-.207.16-.039.028-.23.169-.422.32-.203.15-.402.302-.445.321-.105.07-.11.067-.222-.09l-.114-.172a1.1 1.1 0 0 0-.191-.253c-.02-.02-.04-.043-.04-.063a2 2 0 0 1-.136-.21c-.176-.243-.215-.306-.266-.36-.054-.074-.136-.196-.18-.25a9 9 0 0 0-.34-.48c-.066-.122-.1-.157-.132-.196-.039-.04-.07-.078-.07-.09 0-.008-.02-.035-.04-.055a6 6 0 0 0-.253-.347c-.336-.473-.387-.54-.426-.61l-.129-.175c-.203-.274-.238-.32-.258-.368q-.016-.051-.039-.05a17 17 0 0 0-.324-.453c-.219-.293-.234-.32-.234-.332 0-.016-.012-.04-.028-.047-.203-.262-.218-.29-.218-.301 0-.008-.028-.04-.047-.07q-.197-.264-.395-.54c-.05-.078-.133-.18-.172-.242a4 4 0 0 1-.18-.254 4 4 0 0 0-.136-.187c-.121-.219-.008-.192.265-.102m0 0"/><path d="M73.364.158c-3.004.156-5.523.75-8.57 2.028-.746.308-1.973.941-2.809 1.449a25.3 25.3 0 0 0-6.906 6.207c-2.25 2.926-3.816 6.273-4.52 9.691-.187.903-.257 1.438-.382 2.914-.227 2.692.043 5.535.762 7.946.402 1.324.746 2.28 1.19 3.246.083.175.688 1.363.747 1.46l.266.446c1.027 1.7 2.07 3.016 3.437 4.324 1.192 1.149 2.016 1.797 3.332 2.664.738.477.95.606 1.836 1.067a21 21 0 0 0 3.496 1.457c1.375.43 1.906.57 2.953.746 1.645.277 2.04.308 3.934.308.871 0 1.586.008 1.586.016s-.164.258-.375.562c-.344.485-.59.836-.996 1.368-.07.093-.192.265-.278.375-.628.879-.84 1.183-.976 1.37-.082.118-.3.415-.477.669-.351.5-.515.726-.742 1.027-.187.254-.754 1.027-1.195 1.645-.196.265-.399.554-.469.64-.07.09-.223.293-.344.453-.117.164-.386.535-.593.813-.211.285-.493.676-.637.887-.14.195-.371.53-.528.738-.156.199-.671.941-1.152 1.64l-1.015 1.45c-.25.324-.497.664-.688.933-.258.371-.441.625-.68.946q-1.088 1.454-2.148 2.925a79 79 0 0 1-1.195 1.684c-.153.207-.403.547-.543.754-.371.504-.711.98-1.016 1.387-.14.187-.355.488-.477.656-.234.344-.613.86-.89 1.23-.09.121-.305.43-.48.676-.184.258-.387.547-.47.66-.312.403-1.324 1.793-1.527 2.07-.113.16-.355.512-.547.786-.187.273-.445.625-.562.785a74 74 0 0 0-1.559 2.168c-.14.203-.457.644-.707.98q-.423.585-.836 1.176c-.422.602-.582.824-1.101 1.512a21 21 0 0 0-.485.648 63 63 0 0 1-1.214 1.711 88 88 0 0 0-1.438 2c-.148.223-.273.375-.293.367-.047-.004-.098-.074-1.34-1.828-.414-.59-1.101-1.558-1.512-2.148-.417-.582-1.019-1.434-1.332-1.875-.89-1.254-1.785-2.512-2.668-3.774l-1.363-1.918c-.664-.937-1.46-2.062-1.652-2.34L32.997 68.8 31.17 66.22c-.3-.418-.75-1.059-2.238-3.16-.239-.34-.63-.895-.88-1.239-.237-.343-.777-1.105-1.195-1.695-.421-.582-1.015-1.43-1.332-1.875-.605-.856-1.214-1.707-3.398-4.809-.742-1.039-1.543-2.175-1.785-2.52-.246-.343-.711-1.003-1.04-1.464l-2.581-3.64-1.23-1.75a41 41 0 0 0-1.239-1.712c-.078-.093-.46-.628-.852-1.191-.738-1.07-1.117-1.61-1.367-1.941l-.726-1.02c-.621-.89-.614-.883-.88-1.234a16 16 0 0 1-.413-.586 29 29 0 0 0-.414-.555 28 28 0 0 1-1.418-2.137q-.166-.293-.356-.582c-.238-.414-.46-.843-.652-1.28-.067-.142-.227-.509-.367-.813a16.5 16.5 0 0 1-.797-2.262 24 24 0 0 1-.461-2.305c-.156-.902-.156-3.422 0-4.426.14-.886.176-1.082.27-1.562.206-1.067.449-1.93.898-3.133.484-1.309 1.644-3.476 2.418-4.496.047-.074.226-.313.398-.543.176-.223.43-.55.563-.71.344-.415 1.457-1.587 1.699-1.798l.418-.36a16 16 0 0 1 5.453-3.16c.668-.226 2-.632 2.41-.718.711-.16 1.477-.3 2.125-.375.18-.027.403-.059.489-.078.09-.012.312-.028.511-.028.196 0 .516-.015.719-.043a7 7 0 0 1 1.473 0c.16.028.418.043.57.043.644 0 2.387.305 3.48.606.657.184 1.758.562 2.38.82.331.149 1.292.617 1.597.785.734.426 1.797 1.239 2.297 1.75.598.625.894.97 1.234 1.438 1.188 1.625 1.653 2.726 1.922 4.562.078.543.074 1.7-.02 2.22-.117.679-.269 1.25-.507 1.812-.7 1.683-1.774 3.03-3.48 4.359-.15.11-.31.242-.368.29a12.44 12.44 0 0 1-5.336 2.194c-.805.133-1.305.172-2.863.2-1.516.02-1.668.035-1.938.16-.144.078-.183.133-.183.285 0 .277.379.812 1.637 2.324a61 61 0 0 1 1.933 2.461c.45.598.606.8 1.188 1.559 1.058 1.367 2.976 3.87 3.14 4.105a65 65 0 0 0 1.313 1.711c.351.422 1.375 1.734 2.273 2.902.238.309.492.606.688.79l.312.3.184-.023c.37-.043.62-.219 1.496-1.078.652-.637 1.031-1.04 1.45-1.559l.378-.469c.133-.172.418-.55.633-.851.203-.297.523-.746.703-.996.723-.992 1.18-1.766 2.113-3.57.38-.747.73-1.434.762-1.524.047-.094.187-.422.316-.719.395-.883.707-1.797.938-2.73a12 12 0 0 1 .176-.676c.015-.07.03-.148.043-.223.066-.312.093-.48.23-1.23.023-.121.05-.309.063-.403.007-.085.035-.238.058-.32q.04-.17.04-.34c0-.105.023-.261.042-.359.028-.094.051-.27.051-.398 0-.13.02-.391.047-.583.066-.472.078-3.246.015-3.578a4 4 0 0 1-.066-.625 10 10 0 0 0-.121-1.066q-.03-.23-.066-.453a16 16 0 0 0-.106-.598 13 13 0 0 1-.082-.476 6 6 0 0 0-.094-.391c-.031-.129-.12-.453-.191-.738-.582-2.29-1.445-4.305-2.621-6.164-1.02-1.61-2.246-3.02-3.88-4.461-2.171-1.93-4.378-3.2-7.218-4.16-1.871-.637-3.762-.993-6.14-1.168-.942-.063-3.032-.012-4.434.117-1.066.101-1.961.246-3.137.508a24 24 0 0 0-5.285 1.867c-1.875.922-3.617 2.094-5.039 3.39a43 43 0 0 0-2.11 2.094 22.8 22.8 0 0 0-4.328 7.05 29 29 0 0 0-1.093 3.56c-.032.156-.063.312-.102.468-.12.532-.176.867-.27 1.594-.07.547-.093.855-.132 1.707a67 67 0 0 1-.07 1.129c-.04.36-.04.727-.008 1.094.02.125.047.574.058 1.004.02.43.047.918.075 1.07.023.16.046.355.046.434 0 .152.04.445.188 1.3.062.36.242 1.23.305 1.465.203.727.668 2.059 1.199 3.402.164.415.601 1.313.722 1.489.036.043.192.316.364.605.355.625.652 1.09.988 1.551.43.59.91 1.297 1 1.477.055.093.16.265.246.386l.738 1.035c.782 1.114 2.399 3.391 2.809 3.973l.738 1.024c.207.308.63.902.926 1.328.902 1.257 2.027 2.851 2.957 4.164.328.465.793 1.12 1.031 1.46.246.352.668.946.938 1.329s.594.832.707 1l.55.777c.192.266.606.852.934 1.313.324.449.742 1.05.934 1.32.191.273.433.621.543.77.11.152.351.492.547.769.195.273.605.871.937 1.324.32.45.758 1.07.973 1.38l.523.734c.078.101.344.48.586.832.25.347.664.933.914 1.293.254.355.653.917.875 1.246.227.328.582.836.785 1.113.204.289.485.672.614.867.136.195.484.691.781 1.094.285.41.68.96.867 1.226.93 1.34 1.16 1.657 2.297 3.246.465.645.945 1.329 1.45 2.047.171.254.609.871.96 1.368a895 895 0 0 1 4.715 6.691c.18.234.445.605.605.84.165.226.489.683.735 1.02.238.335.582.82.77 1.081.183.262.445.63.581.825.258.359.372.523 1.106 1.57.219.316.742 1.043 1.148 1.621.711.992 1.004 1.41 1.442 2.035a94.056 94.056 0 0 1 1.531 2.156c.266.383.531.746.59.829.055.078.328.468.61.867.28.402.538.761.577.8.04.04.227.29.422.567.637.887.813 1.086 1.098 1.273.152.106.183.11.39.11a1 1 0 0 0 .418-.086c.313-.153.493-.332.973-1.031.14-.2.426-.594.625-.864.195-.273.688-.965 1.082-1.531.395-.578.848-1.234 1.008-1.457.86-1.211 1.016-1.43 1.453-2.04.164-.214.445-.612.617-.886.18-.277.36-.547.403-.605.144-.176 1.058-1.477 1.62-2.29 1.239-1.785 1.45-2.097 1.817-2.585.215-.285.559-.774.785-1.102.227-.316.528-.746.676-.95.145-.202.715-1.023 1.262-1.823 1.11-1.61 2.011-2.907 2.61-3.75.21-.309.82-1.176 1.339-1.934.527-.758 1.027-1.484 1.125-1.613.266-.356 1.219-1.738 2.723-3.926 1.3-1.894 1.488-2.172 1.984-2.836.125-.168.578-.808 1-1.418.418-.617.922-1.328 1.11-1.598l.671-.953c.18-.254.492-.699.696-.976.195-.278.511-.735.691-1.004.18-.281.437-.656.566-.832l.848-1.23c.34-.485.75-1.075.918-1.301.16-.23.586-.832.934-1.348l.78-1.106c.079-.097.474-.675.891-1.28.418-.598.899-1.278 1.07-1.505q.581-.819 1.15-1.644c.46-.676.917-1.32 1-1.442.09-.113.402-.562.706-1 .297-.437.653-.953.797-1.148.23-.332.54-.781 1.086-1.598q.3-.44.617-.867c.219-.3.606-.851.867-1.226.258-.364.575-.82.715-1.004.395-.52.48-.649 2.172-3.102.242-.36.516-.742.606-.86.23-.304.828-1.163 1.285-1.866.219-.329.512-.77.664-.989l.543-.75c.87-1.238 1.945-3.25 2.426-4.562.074-.196.16-.43.199-.524.215-.488.957-3.066.957-3.312 0-.031.02-.149.043-.238.039-.176.058-.313.148-1.012.02-.176.059-.39.07-.477a1.7 1.7 0 0 0 .036-.347c0-.106.011-.262.031-.352.012-.078.039-.387.055-.68.015-.289.05-.629.074-.761.058-.344.058-1.75 0-2.153a9 9 0 0 1-.074-.699 18 18 0 0 0-.34-2.508c-.016-.101-.09-.39-.145-.652-.101-.48-.226-.961-.379-1.434q-.123-.376-.234-.758a9 9 0 0 0-.238-.683l-.344-.89c-.5-1.282-1.05-2.364-1.973-3.903a24.4 24.4 0 0 0-2.238-3.012A29 29 0 0 0 89.95 6.21c-.894-.809-1.3-1.145-1.969-1.64a21.2 21.2 0 0 0-5.785-3.106 23.3 23.3 0 0 0-6.07-1.258C75.774.17 73.716.14 73.364.162m2.176 4.57c.215.012.547.047.746.082.207.024.438.055.516.07.691.087 1.945.41 2.851.743 1.805.656 3.438 1.66 4.7 2.91a9.9 9.9 0 0 1 2.324 3.45c.789 1.925 1.12 3.308 1.285 5.37.055.618.059 2.485.02 3.04-.215 2.613-.598 4.488-1.387 6.796a27.4 27.4 0 0 1-3.961 7.551c-1.453 1.953-3.13 3.61-4.809 4.77a13.1 13.1 0 0 1-4.68 2.097c-1.117.274-1.703.348-2.761.348-.848 0-1.406-.047-2.043-.184-1.988-.414-3.867-1.336-5.54-2.73a20 20 0 0 1-1.702-1.668 14.2 14.2 0 0 1-1.918-2.86 11 11 0 0 1-.719-1.574c-.66-1.707-.984-3.23-1.121-5.226-.102-1.461-.113-1.836-.094-2.778.016-1.25.094-2.066.324-3.636.285-1.93.985-4.149 1.918-6.11 1.309-2.75 3.114-5.144 5.227-6.93a17 17 0 0 1 3.39-2.175 14.5 14.5 0 0 1 4.891-1.344q1.272-.076 2.543-.012m0 0"/><path d="M17.896 52.986c0-2.218-1.848-4.02-4.13-4.02-2.277 0-4.128 1.802-4.128 4.02 0 2.227 1.851 4.032 4.129 4.032 2.28 0 4.129-1.805 4.129-4.032m0 0"/></g></svg>