<svg xmlns="http://www.w3.org/2000/svg" xml:space="preserve" width="46" height="45" viewBox="0 0 46 45"><path fill="#fff" d="M44.7 12.4c-1.2-2.1-2.9-3.8-4.9-5.1-2.2-1.4-4.7-2.1-7.3-2.1-1 0-2.1.1-3 .3h-.1l-.1-.1-.1-.1c-1.2-1.6-2.7-2.9-4.4-3.8C23.9 1 23 .7 22 .4c-1-.2-2-.4-3.1-.4-1.7 0-3.4.3-5 1s-3 1.7-4.2 2.8C8.6 5 7.6 6.4 7 7.9c-.7 1.6-1 3.2-1 5 0 3.3 1.2 6.4 3.5 8.8 2.2 2.3 5.2 3.8 8.4 4h.2l-.1 4.4c0 .1 0 1.8-.7 3.8-.4 1.2-.9 2.3-1.5 3.1-.7 1-1.6 1.9-2.7 2.4 0 0-.1 0-.1.1v.1l2.6 4.6.1.1h.1c.6-.4 1.7-1.6 3.3-3.6.6-.8 1.6-2.1 2.7-5 .9-2.2 1-4.6 1-6.8v-.2H38c.1 0 .1-.1.1-.1v-5.3c0-.1-.1-.1-.1-.1H26.3l.5-.4c1.4-1.1 2.6-2.6 3.4-4.2.9-1.8 1.3-3.7 1.3-5.7 0-.8-.1-1.7-.2-2.5v-.2h.2c.3 0 .6-.1 1-.1 1.6 0 3 .5 4.4 1.5 1 .7 2.3 1.7 3.1 3.1 0 .1.1.1.2.1l4.4-2.2s.1 0 .1-.2zm-26.4 8.7H18c-2-.2-3.9-1.1-5.3-2.6s-2.2-3.5-2.2-5.6c0-1.1.2-2.2.6-3.2s1-1.9 1.8-2.6c.8-.8 1.6-1.4 2.6-1.8 1-.4 2.1-.6 3.2-.6 1.2 0 2.3.2 3.3.7 1 .4 1.9 1.1 2.6 1.8l.2.2-.2.2c-1.9 1.3-3.5 3-4.6 4.9-.6 1-1 2.1-1.3 3.3s-.5 2.4-.5 3.6l.1 1.7zm5.4-1.6-.4.3v-.5c0-1.4.3-2.8.9-4 .6-1.1 1.4-2.2 2.4-3l.3-.3v1c0 1.3-.3 2.7-1 3.9-.4.9-1.2 1.9-2.2 2.6z"/></svg>
