<svg xmlns="http://www.w3.org/2000/svg" viewBox="0 0 906.11 247.11"><path fill="#fff" d="M412.72 42.16c-9.14 13.61-38.05 13.49-51.61 7.34l-2.01 8c61.82 7.71 74.7 95.43 18.7 122.2-38.54 18.42-84.58-6.57-72.21-51.21 7.86-28.36 31.91-27.17 52.2-37.8 2.54-1.33 6.51-2.58 4.85-6.16-2.05-4.43-13.92-11.12-13.67-18.88-36.51.78-71.82 29.25-80.37 64.85-11.22 46.7 21.54 78.76 60.84 96.18 107.28 47.58 181.16-46.97 276.68-72.67 52.35-14.09 127.41-12.16 173.92 18.07 11.07 7.2 30.12 24.34 35.94 36.06 1.09 2.19 1.41 3.92 1.13 6.36-1.88.39-2.41-.93-3.41-2.08-8.19-9.35-13.45-18.72-23.57-27.43-40.45-34.82-118.54-36.74-168.22-25.19-90.38 21.02-161.66 103.77-260.98 84.39-41.69-8.13-86.08-37.41-98.08-79.92-15.29-54.2 32.04-104.93 85.26-106.77l1.93-11.9c-27.49-5.76-22.63-41.48 4.58-41.18 5.01.06 6.6 2.19 1.14 4.23-10.08 3.76-15.84 6.78-14.65 19.36.45 4.74 7.58 15.87 12 13.06 1.19-.76 6.62-9.06 9.48-11.59 10.42-9.23 28.5-16.24 42.07-11.03 9.14 3.51 13.66 15.39 8.08 23.71Zm-49.63 4.33c10.58 4.3 41.74.84 43.94-12.54 1.17-7.17-1.64-8.42-8.45-8.53-14.16-.21-28.3 9.39-35.49 21.07m29.65 35.37c-8.07-8.87-22.5-16.1-34.65-16.35-1.2 14.08 24.53 22.15 3.37 31.87-19 8.73-42.13 11.8-44.36 37.64-3.28 38.11 30.95 54.15 62.67 36.67 31.86-17.56 36.81-63.61 12.96-89.83Z"/><path fill="#fff" d="M562.09 51.5c-14.45-2.32-25.19 7.43-33.97 17.53-27.96 32.18-46.83 74.11-70.8 109.2-13.8 20.2-27.06 36.29-52.83 40.17-9.68 1.46-31.3 3.93-33.33-9.46-1.69-11.17 9.09-21.37 16.92-27.95 20.87-17.54 48.8-27.35 75.83-29.67l22.17-35.33-.48-1.48c-10.94 9.12-24.37 18.42-37.99 23.01-14.69 4.95-24.51 5.45-23.51-13.49 1.53-28.94 46.94-57.55 60.51-84.51 2.21-4.39 4.44-8.75 3.3-13.85-16.31-5.82-39.44-.52-53.15 10.01-7.97 6.12-18.28 15.63-11.5 26.16 1.88 2.92 7.7 5.69 7.86 6.17 1.59 4.91-7.23.8-8.92-.1-8.77-4.68-6.92-13.69-4.14-21.94 7.85-23.24 39.57-35.52 62.45-32.37 9.38 1.29 16.85 11.08 16.62 20.37-.58 23.02-47.05 59.26-60.44 79.63-2.31 3.52-7.82 12.23-6.49 16.26l1.54 1.5c8.14 2.68 26.53-6.48 34.03-10.68 12.17-6.83 24.31-17.02 33.31-27.69 13.21-15.67 29.73-48.46 53.51-46.46 2.89.24 9.58 1.25 9.5 4.98Zm-104 106.02c-22.32 3.42-47.09 13.24-64.01 28.48-6.78 6.11-21.68 24.08-4.4 26.43 29.84 4.05 54.01-33.56 68.41-54.9ZM212.59 90.51c-15.58 15.65-29.92 33.04-47.61 46.4-10 7.55-35.55 23.6-42.59 4.81-20.8-55.49 44.69-62.55 83-59.41 23.37-21.41 60.78-61.69 95.19-58.78 2.95.25 7.7.92 5.34 4.83-.24.39-5.97 3.06-7.84 4.64-8.56 7.28-19.64 22.23-26.4 31.6-2.22 3.08-11.86 16.15-12.57 18.43-.47 1.5.07 1.63 1.43 1.44 6.96-.97 13.68-2.67 20.55-3.96 3.18 3.37-6.84 7.57-9.2 8.29-4.47 1.37-17.06 1.44-18.85 3.41-10.14 17.3-19.65 35.06-26.97 53.78l-4.48 15.5c-9.59-9.29-2.06-24.48 2.01-34.97 2.16-5.56 5.07-11.94 7.63-17.37 2.92-6.21 7.41-12.16 8.86-18.64zm8.5-7h24.5c13.09-18.58 25.93-37.86 43.49-52.51.15-.77-.92-.61-1.5-.51-14.59 2.55-42.92 27.29-54.02 37.98-2.7 2.6-9.88 8.94-11.52 11.48-.8 1.23-1.23 1.99-.95 3.55Zm-24 6c-19.72.65-46.72 2.21-61.54 16.95-11.41 11.36-18.53 41.67 7.23 32.23 10.19-3.74 45.55-36.71 52.82-46.18.77-1 1.94-1.27 1.49-3M906.09 20.5c-2.07-.08-3.14-1.59-5.31-2.17-19.57-5.21-48.01 21.62-60.19 35.16-4.45 4.94-27.21 33.12-27.36 37.46-.34 9.55.91 16.14-1.85 26.34-2.25 8.31-10.17 21.6-20.31 18.78s-5.04-16.41-2.15-23.24c2.56-6.04 13.52-19.59 14.13-22.87 1.1-5.93-3.55-24.02-4.66-31.24-.98-6.38-1.16-12.86-2.3-19.2l-27.2 55.28c-10.9 18.44-29.41 45.63-53.4 45.6-9.28-.01-19.52-8.63-18.46-18.42.29-2.69 1.38-4.76 4.07-2.9 1.72 22.9 30 6.44 39.4-2.68 23.4-22.7 36.7-58.92 53.6-86.4l-40.2 5.8c-7.03 2.02-18.92 2.95-13.67 13.08.5.97 7.06 6.1 3.35 6.63-8.05 1.14-16.59-16.02-5.86-22.87 12.89-8.24 41.75-2.73 57.05-10.94 6.22-3.34 13.38-14.8 19.3-4.25-4.48.74-6.2 7.99-6.72 11.82-1.46 10.83 1.83 39.8 4.84 50.64.32 1.15.34 2.41 1.89 2.6 12.39-24.45 45.59-69.65 74.62-72.89 8.01-.89 17.97 1.24 17.39 10.88m-102 80.01c-2.66-.55-1.72.68-2.48 1.97-4.46 7.56-7.27 17.36-8.51 26.02 10-4.25 9.35-18.88 10.99-27.99"/><path fill="#fff" d="M694.09 20.51h-14.5c-1.49 0-8.78 2.48-10.76 3.24-15.39 5.87-25.93 21.08-25.73 37.76 1.73.45 2-.72 3-1.49 17.51-13.43 31.52-33.44 56.6-36.4 36.98-4.37 26.22 29.46 8.92 45.92-15.56 14.8-48.72 26.14-65.03 6.99-7.8 9.41-19.85 31.25-18.57 43.5s20.57 9.24 28.85 6.76c31.03-9.28 67.75-45 71.22-78.29h2.98c.04 1.89.85 3.64 1.01 5.51 3.37 38.21-54.19 85.77-90.54 83.54-7.64-.47-12.59-1.8-15.94-9.05-7.1-15.36-3.22-31.46 4.32-45.66 1.57-2.96 8.62-12.37 8.97-14.06.51-2.43-2.37-14.15-1.84-19.81 1.7-18.37 19.83-33.04 37.56-34.44 5.33-.42 18.07-.64 19.49 5.98Zm26.76 13.24c-1.92-.85-4.27-1.91-6.35-2.15-20.19-2.35-49.67 22-61.93 36.9-1.1 1.33-3.95 4.31-3.07 6.01 20.47 13.18 48.93.08 62.41-17.67 2.71-3.56 12.49-19.66 8.93-23.09ZM582.04 13.58l.04 2.9c-8.95 1.01-18.78 1.37-19.99 12.53-.91 8.41 1.03 13.23 7.5 18.5 7.77-18.98 32.67-29.9 52.32-24.32 10.24 2.91 15.45 15.39 10.03 24.68-7.49 12.81-34.49 15.91-47.08 11.38-2.58-.93-4.32-1.4-3.77-4.72 16.56 2.91 42.26 1.54 46.87-18.31-.68-2.72-6.79-4.42-9.37-4.7-23.67-2.59-45.53 16.36-46.51 40 11.77-2.8 40.63 6.84 27.02 22.51-11.81 13.6-22.53-1.67-30.03-11.08-15.85.63-35.05 9.28-41.16 24.89-3.35 8.57-.5 14.28 6.85 19.5 15.07 10.71 41.4 3.88 56.7-3.95 6.17-3.16 11.85-9.46 18.62-9.87 2.04 2.02-7.71 9.57-9.51 10.98-17.39 13.49-51.09 28.02-70.98 13.02-14.67-11.07-10.99-35.47-.01-48.01 8.29-9.47 23.9-16.81 36.52-16.99l.87-20.32c-25.01-14.59-14.55-46.5 15.07-38.61Zm12.91 78.8c.47-.3 1.21-3.31 1-4.17-1.18-4.92-16.61-6.36-20.86-5.69l7.96 6.52c2.26 1.33 9.75 4.72 11.89 3.34ZM65.09 94.51h-19.5c-3.19 0-13.81 3.36-17.18 4.82-34.78 15.03-19.11 62.69 18.37 49.37 36.88-13.11 62.32-81.6 99.38-107.62 3.77-2.65 19.96-12.21 23.64-12.4 1.37-.07 2.59 1.04 2.29 2.32-18.48 8.66-30.09 24.22-41.81 40.2-19.53 26.62-50.31 85.01-85.79 89.21-11.74 1.39-24.16-.36-31.9-9.88-3.74-4.6-11.46-19.06-12.23-24.77-4.08-30.25 28.42-38.22 52.23-36.23 3.29.28 12.25.89 12.52 4.98Z"/><path fill="#fff" d="M102.09 43.51c4.31 3.69-17.64 8.05-19.5 8.07-28.88.44-33.37-36.73-6.28-47.37 33.24-13.06 75.11 7.66 107.32 15.85 14.27-6.06 42.1-15.56 56.4-6.98 7.74 4.64 6.64 13.49-.59 18.25-33.47 22.04-112.73-34.27-157.33-18.3-11.51 4.12-25.5 18.03-10.17 27.12 9.73 5.77 19.53 3.88 30.14 3.36Zm137-20.02c.16-1.11.03-1.98-.49-2.99-5.17-9.98-39.66-3.2-48.51 1.5 15.98 3.93 32.98 6.32 49.01 1.49Z"/></svg>