<svg xmlns="http://www.w3.org/2000/svg" width="200" height="98" version="1.2" viewBox="0 0 807 394"><path d="M47.5 1.4c-3.3.7-9.8 3.3-14.5 5.7-5.4 2.8-10.6 6.6-14.5 10.4-3.4 3.3-7.8 8.9-9.9 12.5s-4.7 9.2-5.8 12.5S.6 51.9.3 56C0 60.8.4 66.2 1.4 71c.9 4.1 3.2 10.9 5.2 15 2.8 5.7 5.7 9.5 12.3 16 6.3 6.3 10.4 9.4 15.3 11.8 3.8 1.8 9.6 3.9 13 4.7 3.5.8 9.2 1.5 12.8 1.5s9.4-.7 13-1.6c3.6-.8 9.9-3.1 14-5.2 5.6-2.7 9.6-5.7 15.5-11.7 6-5.9 9-9.9 11.7-15.5 2.1-4.1 4.4-10.4 5.2-14 .9-3.6 1.6-9.4 1.6-13s-.7-9.4-1.6-13c-.8-3.6-3.2-9.7-5.2-13.5-2.4-4.6-6.1-9.5-11.1-14.5-5.3-5.2-9.7-8.6-14.6-10.9-3.8-1.9-10.2-4.3-14-5.3C70.6.8 64.4 0 60.5.1c-3.8 0-9.7.6-13 1.3m335.5.7c-4.1 1.1-10.4 3.6-14 5.6s-9.5 6.6-13.1 10.2-8.2 9.5-10.2 13.1-4.6 10.1-5.8 14.5c-1.7 6.5-2.1 9.7-1.6 17 .3 5.7 1.3 11.4 2.8 15.5 1.2 3.6 3.1 8.1 4.2 10s3.6 5.5 5.5 8 4.9 5.8 6.6 7.4c1.7 1.5 5.6 4.5 8.6 6.5 3 2.1 7.7 4.7 10.5 5.8 2.7 1.2 7.9 2.7 11.5 3.4 3.9.7 9.5 1 14 .6 4.1-.3 10-1.5 13-2.5 3-1.1 7.5-2.9 10-4.2 2.5-1.2 6.7-4.1 9.5-6.4 2.7-2.2 6.3-5.6 8-7.5 1.6-1.8 4.6-5.6 6.5-8.5 2-2.8 4.8-8.9 6.4-13.6 2.3-6.7 2.9-10.4 3-17.5 0-6.7-.5-10.9-2.2-16.3-1.2-3.9-3.9-10-5.9-13.4-2-3.5-6.4-9-9.7-12.3-3.4-3.3-9.2-7.7-13.1-9.7s-10.6-4.6-15-5.8c-4.6-1.1-11-2-15-2-3.9.1-10.4 1-14.5 2.1m347 112.8c-1.4.4-4.6 1.8-7 3.1-2.5 1.2-9.8 7.5-16.2 13.9-7.7 7.6-12.3 13.1-13.7 16.1-1.6 3.8-2 7.5-2.5 24-.3 10.7-.5 23.2-.5 27.7l-.1 8.3c-9.7-8.8-15.6-13.7-19.5-16.6S657 183 649 179.2s-18.3-8.7-23-10.9-11-4.8-14-5.9c-5-1.7-8.6-1.9-37.5-1.9h-32c-9.3 4.4-16 8.9-21 13-5 4-12.5 10.6-16.8 14.7-6.9 6.5-8.7 9.1-16.5 23.3-6.5 12-9.6 16.5-12.2 18.3-2.9 2-4.4 2.3-8.5 1.9-2.8-.3-6.1-1.4-7.5-2.5-1.4-1-3.4-3.4-4.5-5.3-1.7-2.8-2.1-5.8-2.5-17.9-.5-13.2-.7-14.9-3-18.7-1.4-2.3-7.2-9.2-13-15.3-7.2-7.7-12-12-15.5-13.6-4.9-2.4-5.5-2.5-26-2.2-19.2.3-21.3.5-25 2.4-2.2 1.2-9 7.3-15 13.5-9.4 9.7-11.3 12.1-12.3 16.1-.7 2.7-1.2 7-1.2 9.8v5c-19-17.8-20.4-18.7-37.5-27-9.9-4.8-20.9-9.9-24.5-11.3s-9.9-3.1-14-3.7c-4.9-.8-16.7-1.1-34-.8-18.7.3-27.5.9-30 1.8-1.9.7-6 2.9-9 4.8s-10 7.2-15.5 11.7-12.4 10.8-15.4 14.1c-2.9 3.2-7.3 9.5-9.6 13.9-2.4 4.4-5.9 10.9-7.9 14.5-1.9 3.6-4.5 7.3-5.8 8.3s-4.1 2-6.3 2.4c-2.8.4-5.1 0-7.9-1.3-2.6-1.3-4.8-3.4-6.5-6.4-2.3-4.1-2.6-5.8-3.1-19-.4-10.7-1-15.3-2.2-17.5-.9-1.7-6.3-8.2-12-14.5-7.8-8.6-11.7-12.2-15.8-14.3-5.4-2.7-5.7-2.7-25-2.7-15.9 0-20.5.3-25 1.7-4.7 1.5-7.3 3.6-17.8 13.8-8.4 8.2-13.1 13.6-14.8 17l-2.4 5v160c3.7 7.7 9.2 15 14.6 21.1 5.5 6.2 11 12.1 12.4 13.2s4.5 3 7 4.1c4.2 1.9 6.3 2.1 33.3 2.1H96l17-9h30l17 9c88.5 0 95.5-.2 98.8-1.6 2-.8 7.4-5.2 12-9.7 4.5-4.5 8.9-9.7 9.7-11.5 1.1-2.3 1.5-7.5 1.6-19 .1-12.4-.2-16.3-1.4-18.7-.8-1.6-4.6-6.1-8.4-10s-8.7-7.9-10.9-8.9c-3.4-1.7-5.9-1.9-19.9-1.8-10.4.1-17.3-.2-19.8-1.1-2.1-.6-4.9-2.3-6.2-3.7-1.2-1.4-5.5-8.1-9.6-15-6.9-11.7-7.4-12.9-7.4-18.5s.5-6.9 7.1-19c4-7.1 8.6-14.2 10.3-15.8 1.7-1.5 4.8-3 6.9-3.5 2-.4 10.2-.6 18.2-.6l14.5.2c12.4 6.4 21.9 12.6 29 17.9s17.7 14.4 23.5 20.2 14.7 15.4 19.8 21.3c5 6 10.3 12.5 11.6 14.5 2.4 3.7 2.5 4.6 2.9 24.3.4 16.3.8 21.3 2.1 24.5 1 2.2 4.2 6.9 7.3 10.5 3 3.6 8.5 9.6 12.2 13.5s8.5 7.9 10.7 9c3.6 1.8 6.3 2 30.9 2.3 18.7.2 28.2 0 31-.8 2.2-.7 6.5-2.7 9.5-4.6l5.5-3.4 30-.3 16 8.8c82.5.5 95.1.3 98.5-.7 3.3-.9 6.5-3.1 12.4-8.8 5-4.8 8.7-9.3 10.2-12.5 2.1-4.5 2.4-6.4 2.4-18.5 0-7.8-.6-15.2-1.3-17.5-.7-2.5-3.6-6.5-7.7-10.9-3.6-3.7-8.3-7.9-10.5-9.2-3.8-2.3-5-2.4-22.7-2.7-17.1-.2-18.9-.4-21.5-2.3-1.5-1.1-4.3-4.3-6.1-7s-5.7-9.2-8.7-14.4-5.8-11.1-6.1-13c-.5-3 .4-5.5 6.6-17.5 4-7.7 8-15 8.9-16.2.9-1.3 3.6-3.3 6.1-4.5 4.1-2.1 5.8-2.3 20-2.2 13.7.1 16.1.4 20.5 2.3 2.8 1.2 8.6 4.8 13 7.9 4.4 3 13.1 9.4 19.4 14.1 8.4 6.3 14.6 12.1 23.1 21.6 6.3 7.1 13.6 15.5 16.2 18.5 2.5 3 5.8 7.3 7.2 9.5 2.6 3.9 2.7 4.2 2.6 21.5 0 10.8.5 19.6 1.3 23 .7 3 2.4 7.1 3.8 9.1 1.3 1.9 6.7 8.4 11.9 14.2 7.5 8.5 10.8 11.4 15.5 13.8l6 2.9c44.1 0 50.1-.3 54.5-1.6 4.9-1.4 6.7-2.8 16.9-13.3 6.2-6.4 12.5-13.6 14-16.1l2.6-4.5c.4-163.8.1-204.4-.5-206.5-.5-1.9-2.3-5.5-3.9-8-1.7-2.5-7.2-8.8-12.3-14.2-7-7.2-10.8-10.3-15.3-12.5-5.8-2.7-6.5-2.8-24-3-9.9-.1-19.1.2-20.5.6" style="fill:#ffffff"/></svg>