<svg xmlns="http://www.w3.org/2000/svg" xml:space="preserve" width="400" height="160" overflow="hidden"><g fill="#FFF"><path d="M186.133 4.133c-21.2 8.6-38.533 26.134-67.4 68.2-9 13.134-9.266 12.667-3.533-5.866 2.6-8.334 5.933-20.534 7.467-27.134 3.6-15.8 7.333-24.8 12.066-29.4 7.4-7.133 3-8.333-6.133-1.733-7.467 5.333-15.4 15.4-37.933 47.8C59 101.6 38.2 116.733 20.133 107.4c-17.333-8.933-5-50.267 16.934-56.8 16.933-5.067 27 11.267 15.8 25.867-6.467 8.533-2.334 8.866 5.4.466C71.8 62.267 67.733 42.8 50.867 41.6c-36.067-2.6-65.8 62.933-36.134 79.6 19.134 10.733 41.4-5.4 73.867-53.533 18.533-27.534 21.467-31.134 17.467-21.6-1.2 2.8-4.8 14.866-8.134 26.8-5.6 20.466-9.6 31-14.933 39.4-4.6 7.333.133 6.2 10.6-2.534 8.333-6.866 17.667-18.533 34.933-43.6C136.533 54.6 146 42 149.667 38.2c7.666-8.067 7.066-6.4-2.4 6.467-13.534 18.466-22.8 36.933-26.534 52.933-4.666 19.733 8.134 27.267 23.2 13.667l5.067-4.6.867 5.4c1.4 8.733 9.4 10.2 21.266 3.866 5-2.666 5.067-2.666 7.267-.066 3.667 4.333 8.2 4.6 15.533.933 8.6-4.4 8.734-3.933 2.267 6.933-17.067 28.8-40.867 41.734-40.867 22.267 0-6.2-6.066-8.667-9.6-3.867-7.133 9.734 4.667 18.134 21.2 15.134 20.467-3.667 32.267-13.667 47-39.934 3.534-6.266 8.934-15.533 12.067-20.666 23.067-38.2 23.533-39.734 12.333-39.067-5.733.333-7.066.867-7.466 3.067-2.267 11.8-24.6 44.266-34 49.333-9.067 4.867-7.8-2.533 3.733-21.6 16.133-26.8 17.533-31.067 10.333-31.067-6.733.067-9.466 1.534-10.933 5.867-.733 2.4-4.4 9.067-8.133 14.867-3.667 5.866-9.067 15.266-11.934 20.866-5.333 10.4-11 15.534-15.4 13.867-3.666-1.4-1.733-7.067 7.6-22.133C190.8 60.6 191.8 57.333 182.267 57.333c-6.8.067-8.267.934-9.467 5.734-1 4.266-13.867 25.6-20.067 33.4-6.8 8.533-14.733 11.4-16.133 5.733-4.2-16.733 36.533-84.6 56.933-95 11-5.533 4.934-8.067-7.4-3.067"/><path d="M191.667 30.067c-6.4 3.533-6.667 12.6-.4 12.6 5 0 9-4.6 8.466-9.734-.466-4.933-2.8-5.733-8.066-2.866M269.333 57.8c-25.133 6.8-48.6 44.133-36.133 57.4 6.4 6.8 18.2 4.333 30.733-6.533 4.934-4.267 7.467-5.734 7.867-4.467 7.467 25 42.8 14.733 58.333-17 20.6-42.067-32-39.667-54.4 2.467-12.733 23.8-38.4 30.266-30.8 7.733 2.334-7 2.534-7.2 9.4-8.933C275.6 83.133 292.267 65 282.4 58.067c-3.467-2.4-5-2.467-13.067-.267m5.334 5.867c0 4-4.934 10.6-12.067 16.266-14.333 11.334-13.8 3.534.8-11.6 6.867-7.066 11.267-8.933 11.267-4.666M324 66.733c0 15.2-22.4 46.6-33.2 46.6-3.133 0-5.6-4.4-4.8-8.466 4.533-23.4 38-56.934 38-38.134"/><path d="M347.4 59c-.267.933-.867 3.133-1.267 5-.4 1.8-6.466 12.6-13.533 24-19 30.6-19.067 30.667-10.8 30.667 6.133 0 7.133-1.067 21.333-22.8 16.067-24.6 28.6-36.4 32.267-30.467.467.733-1.733 5.4-4.867 10.333-19.8 31.067-21.6 35.867-15.866 41.6 7 7 23-2.866 38.6-23.933 5.733-7.667 6.4-9.4 3.666-9.4-.933 0-4.8 4.467-8.6 9.867-9.066 13.066-19.4 20.8-21.266 16-.934-2.534 2.6-9.134 13.8-25.6 8.8-12.867 11-21.2 6.866-25.334-2.8-2.8-13.533-1.933-18.533 1.467-8.067 5.467-7.867 5.4-7 1l.8-4.067h-7.533c-4.867 0-7.734.6-8.067 1.667"/></g></svg>