<svg xmlns="http://www.w3.org/2000/svg" width="130px" height="50px" viewBox="0 0 131 50"><path d="M82.152 37.652c-.414.477-1.59.164-2.164.153-3.332-.078-6.71 0-10.015.062-1.016.024-2.114.278-3.153.34-1.64.098-3.48-.016-5.105.137-1.29.113-2.281 1.176-3.617 1.011-.828-1.98-.328-4.343-1.328-6.277-.04-.07-.102-.273-.227-.238-.098.027-.336.867-.473 1.078-.554.852-2.28 2.945-3.02 3.637-1.187 1.113-3.542 1.504-5.09 1.902-.85.211-1.276.516-2.241.45-2.39-.177-7.36-2.415-8.973-4.196-1.516-1.68-1.14-4.934-1.078-7.055.062-2.281.164-4.582.328-6.863.223-3.172 1.914-9.121.574-11.93a1.5 1.5 0 0 0-.277-.386c-.45-.426-2.04-1.239-2.664-1.567-.629-.324-1.203-.625-1.828-.863-1.09.426-2.278 1.004-3.215 1.691-.703.524-2.031 1.551-2.606 2.168-.652.688-1.238 1.614-1.875 2.356-1.953 2.265-4.007 4.32-5.207 7.152.063.75-.09 1.504-.035 2.254.063 1.016.395 2.07.52 3.11.418 3.433-.262 8.105 1.027 11.273.527 1.281 2.844 1.543 4.016 1.89.48.141.93.368 1.418.465l.136.574c-.722-.109-1.488.278-2.18.278-.687 0-1.476-.137-2.136-.137-1.566 0-3.203.262-4.785.137-.91-.074-1.899-.563-2.836-.727-.938-.16-1.902-.136-2.867-.222l-.074-.125c.25-.164.484-.38.75-.528.761-.441 3.652-1.543 3.84-2.343.124-.575-.16-1.489-.11-2.141.047-.652.402-1.418.512-2.106.273-1.754 0-3.293.015-5.027.008-1.727.52-3.418-.062-5.035-.692-1.89-2.43-3.32-3.656-4.875-1.567-1.977-2.817-4.195-4.282-6.2-1.578-2.152-3.093-2.378-5.406-3.394C2.34 7.371 2 7.11 1.653 6.97 1.187 6.78.585 6.695.097 6.582c-.313-.375.203-.535.527-.55 2.063-.048 4.094.124 6.184-.063 1.773-.164 3.418-.727 5.117-.926.527-.063 1.101-.027 1.601-.09.348-.035.703-.25 1.028-.312.086-.016.66-.079.687-.051.215.152.09.5-.097.652-.079.063-.715.45-.79.488-.93.399-.738.454-1.44.977-.704.527-1.188.602-1.938 1.293-.215.2-.454.176-.438.5.086 1.676 2.774 4.922 3.727 6.426.464.726.726 1.594 1.129 2.23.21.34.562.528.777.852.707.285 1.16-.278 1.601-.738 1.403-1.504 2.637-3.196 4.028-4.711 1.14-1.23 2.14-1.778 2.754-3.434.148-.402.449-.7.25-1.187-.164-.403-1.227-1.102-1.63-1.329-.296-.175-1.288-.5-1.273-.93.024-.699.7-.284 1.176-.312.66-.027 1.402-.351 2.078-.402 1.324-.098 2.754.125 4.106.078 1.351-.05 2.523-.215 3.89-.215 2.993.012 6.008.05 8.996.2 1.09.062 2.192.113 3.258.374.098.067.063.09.035.164-.109.34-1.113.668-1.476.942-.875.676-2.55 2.293-2.953 3.293-1.414 3.547-1.301 8.082-1.375 11.867-.04 2.164-.028 4.348.062 6.516.024.722.063 2.203.438 2.78.324.477 1.574 2.09 1.976 2.376.278.203.614.277.89.453.298.191.563.477.876.676.5.312 2.75 1.402 3.242 1.457 1.387.16 2.574-.465 3.719-1.18 1.547-.965 3.941-3.043 4.289-4.91.351-1.867.777-3.02.879-4.973.137-2.722.074-5.476.062-8.207 0-1.316-.113-2.078-.265-3.37-.137-1.204.187-2.38.05-3.548-.085-.699-1.039-2.09-1.539-2.629-.328-.351-.964-.625-.863-1.23.688-.336 1.438-.16 2.18-.211.785-.05 1.547-.336 2.289-.398 1.113-.102 2.363.046 3.488 0 .63-.028 1.332-.305 1.98-.063-.335 1.414-1.59 2.414-2.203 3.73-.414.88-.624 1.954-.949 2.883-.367 1.075-.851 1.852-.941 3.02-.125 1.629-.098 3.281-.274 4.91-.187 1.8-.699 3.32-.464 5.164.214 1.613.777 3.242 1.043 4.871.109.727.16 2.38.449 2.918.984 1.879 3.703 3.02 5.68 3.52.601.152 1.238.203 1.812.34.277.062.816.437.965.425.387-.035 1.078-.64 1.441-.84.653-.375 2.715-1.289 3.028-1.867.191-.336.316-2 .351-2.48.09-1.317-.074-2.356-.137-3.617-.039-.957.063-1.957 0-2.899-.05-.7-.238-1.437-.277-2.152-.125-2.344-.062-4.785-.125-7.13-.062-2.339.102-4.698-1.223-6.64-.566-.836-2.468-2.203-3.394-2.656-.754-.363-1.664-.336-1.738-1.43.086-.109.851 0 1.074 0 1.242-.023 2.515-.035 3.765-.062 1.754-.047 3.485-.285 5.23-.262h1.653c.102.504-.25.852-.32 1.317-.254 1.343-.328 2.894-.555 4.28-.187 1.095-.687 2.587-.59 3.65 0 .062.043.363.168.3.149-.062.637-.766.797-.941 2.68-2.856 4.871-6 8.324-7.942.25-.137.465-.375.715-.488 1-.461 2.79-.149 3.868-.113.453.011.988-.086 1.476-.051.766.05 2.203.539 2.75-.2.617-.827-.45-1.43-.394-2.28.074-1.364 2.238-2.192 3.378-2.391 1.137-.203 2.727-.125 3.602.715.727.699.3 2.054-.262 2.754-.261.312-.988.89-1.363 1.062-.89.402-1.602.105-1.992 1.305-.688 2.133.805 5.21 1.254 7.332.398 1.89.05 3.078-.09 4.922-.399 5.187-.762 10.398-.875 15.597-.074 3.422 0 6.817-.125 10.227-.05 1.3.703 3.054 1.988 3.508 1.05.359 3.793.312 4.41-.817.457-.855.707-2.62.582-3.57-.07-.516-.457-1.617-.91-1.918-.3-.2-1.578-.477-1.941-.477-.84 0-1.313 1.493-1.227 2.168.074.586.68 1.203 1.305 1.114.437-.063.976-.84 1.45-.438.589.492-1.09 1.192-1.438 1.328-.84.352-2.22.73-2.391-.586-.176-1.316.234-2.933.938-4.035.699-1.101 1.003-.992 2.164-.691 1.738.465 3.23 1.316 3.593 3.195.586 2.98-.14 5.063-2.777 6.59-2.441 1.414-5.957.625-7.75-1.504-1.164-1.39-1.961-3.984-2.453-5.75-.738-2.691-.528-6.09-.363-8.91.25-4.457.765-8.918 1-13.375.125-2.422.554-6.856-.586-8.95-.829-1.527-3.079-2.68-4.817-2.503-.465.05-2.781 1.039-3.27 1.304-1.261.7-1.702 1.352-2.59 2.391-.577.688-1.362 1.316-1.991 1.98-1.215 1.329-3.727 4.461-4.282 6.063-.285.84.055 1.68.118 2.469.273 3.054.222 6.199.472 9.27.051.616.203 1.991.414 2.542.114.278.801.48 1.063.617.55.313 2.191 1.114 2.555 1.414.152.126.152.278.238.364.199.199.953.55.676.863Zm0 0" style="stroke:none;fill-rule:nonzero;fill:#ac81cc;fill-opacity:1"/><path d="M131.336 36.953c.168.16-.098.7-.285.727-.125.011-.278-.063-.403-.078-1.25-.047-2.464.277-3.687.402-1.645.16-4.398.39-5.984.203-.426-.055-.551-.316-.364-.707.211-.437 1.063-1.125 1.426-1.59 1.016-1.289 1.664-2.77 1.715-4.433-1.414 1.402-2.84 2.78-4.402 4.035-2.895 2.304-7.36 5.023-10.97 2.64-3.124-2.066-6.116-7.804-6.519-11.488-.465-4.144 1.016-5.195 3.782-7.754 1.5-1.379 5.265-3.82 7.207-4.347 2.867-.774 5.859 1.19 8.074 2.843.511.387.965.887 1.511 1.242.09.047.59.399.579.165-.086-1.13-.528-1.907-.829-2.946-.914-3.133-.597-6.004-3.34-8.36-4.19-3.616-10.652-1.89-12.667 3.196-.348.89-.797 2.067.226 2.656 1.114.637 2.59 1.016 3.754.325.5-.297 1.895-1.676 2.004-2.227.277-1.293-1.379-1.203-2.191-.914-.61.223-.575.75.09.824.097.352-.028.5-.368.59-1.851.516-1.601-1.477-.375-2.117 1.043-.55 2.93-.414 3.645.64.402.575.414.91.164 1.54-1.117 2.82-4.645 3.859-7.371 2.843-2.73-1.011-2.582-4.984-1.418-7.062 1.629-2.899 4.883-3.535 7.937-3.899 4.528-.539 9.399-1.105 12.118 3.344.71 1.152 2.648 5.086 2.761 6.3.102 1.032 0 2.31 0 3.36.012 3.168.063 6.38-.41 9.532-.402 2.722-1.226 4.324-.766 7.242.102.59.438 1.101.954 1.394l4.367 1.84ZM114.004 16.18c-2.555.226-5.23 3.304-6.133 5.562-1.402 3.531-.875 6.227.563 9.582.812 1.906 2.28 4.774 4.757 3.535 2.254-1.129 4.743-3.093 6.606-4.75.89-.789 1.73-1.39 2.516-2.316.789-.926 1.242-1.316 1.015-2.57-.164-.977-1.363-4.157-1.965-4.899-1.25-1.539-5.37-4.332-7.37-4.144ZM23.703 18.059c2.602-.352 1.777 3.304.75 4.586-.902 1.125-2.828 1.777-3.426 0-.601-1.782.66-4.325 2.676-4.586M29.473 17.145c-.352.324-.899.324-1.313.109-1.375-.672-.39-3.067 1.05-2.254.653.363.802 1.645.263 2.145m0 0" style="stroke:none;fill-rule:nonzero;fill:#ac81cc;fill-opacity:1"/><path d="M113.266 27.68c.453-.035 1.125.101 1.539.3 2.277 1.141-.25 5.2-2.028 5.047-2.265-.187-2.265-5.097.489-5.359ZM118.11 26.93c1.816-.305 1.476 2.316-.188 1.828-1.102-.324-.875-1.656.187-1.828m0 0" style="stroke:none;fill-rule:nonzero;fill:#ac81cc;fill-opacity:1"/></svg>