<svg xmlns="http://www.w3.org/2000/svg" width="179" height="130"><path fill-rule="evenodd" d="M169.606 130.021a9.6 9.6 0 0 1-9.5-9.694v-.5a16 16 0 0 1-1.366 2.878 15.66 15.66 0 0 1-13.45 7.655c-8.712-.023-15.7-7.391-15.7-16.269V43.882c0-8.877 6.983-16.246 15.7-16.268a15.65 15.65 0 0 1 13.45 7.654 16 16 0 0 1 1.366 2.878v-8.355a2.5 2.5 0 0 1 2.47-2.52h14.056a2.5 2.5 0 0 1 2.469 2.521v90.536a9.6 9.6 0 0 1-9.495 9.693m-9.5-89.085c-.764-1.921-2.384-4.626-5.451-4.669a6.42 6.42 0 0 0-6.24 6.476v72.492a6.42 6.42 0 0 0 6.24 6.477c3.067-.043 4.687-2.748 5.45-4.669zm-44.664 89.246a9.51 9.51 0 0 1-9.41-9.606V42.588a6.43 6.43 0 0 0-6.24-6.488c-3.125.043-4.75 2.857-5.495 4.786v79.441a9.5 9.5 0 1 1-18.993 0V29.791a2.5 2.5 0 0 1 2.473-2.52H91.83a2.5 2.5 0 0 1 2.469 2.521v8.317a15.77 15.77 0 0 1 14.39-10.668c8.893-.245 16.166 7.219 16.166 16.3v76.838a9.51 9.51 0 0 1-9.41 9.603zm-68.6-5.206h23.435a1.584 1.584 0 0 1 0 3.168H27.726a3.863 3.863 0 0 1-3.632-5.014l26.904-89.521a2.51 2.51 0 0 0-2.356-3.258l-21.882-.042a1.466 1.466 0 0 1 0-2.931l40.84-.042a3.864 3.864 0 0 1 3.636 5.011l-26.76 89.371a2.512 2.512 0 0 0 2.366 3.258M10.922 22.295A11.034 11.034 0 0 1 .002 11.15 11.034 11.034 0 0 1 10.92 0a11.034 11.034 0 0 1 10.922 11.146 11.035 11.035 0 0 1-10.92 11.149m-7.028 4.976h14.055a2.5 2.5 0 0 1 2.469 2.521v90.536a9.5 9.5 0 1 1-18.993 0V29.791a2.5 2.5 0 0 1 2.469-2.52" fill="#fff"/></svg>