<svg xmlns="http://www.w3.org/2000/svg" width="120px" height="100px" viewBox="0 0 120 100"><path d="M63.676 13.55c-.305.052-.531.196-.715.446-.262.356-.332.895-.176 1.344.043.12.074.23.074.242s-.109.02-.25.02c-.746 0-1.242.355-1.355.976-.074.406.207.918.621 1.113.238.114.582.16 1.395.196.968.039 1.34.07 1.902.172.258.046.476.07.5.058.055-.031.066-.777.023-1.3-.086-1.06-.297-1.938-.586-2.419-.355-.601-.921-.937-1.433-.847M25.2 19.129c-.302.086-.509.25-.704.555-.437.671-.43 1.824.027 3.394.207.723.325.988.434.988.04 0 .195-.078.352-.171.441-.27.687-.383 1.613-.75 1.156-.457 1.355-.57 1.562-.88.141-.214.2-.44.184-.73-.012-.285-.082-.453-.266-.633-.351-.355-.933-.433-1.484-.191-.188.082-.191.078-.207-.27-.016-.355-.078-.57-.227-.78-.312-.458-.812-.661-1.285-.532m0 0" style="stroke:none;fill-rule:nonzero;fill:#ffffff;fill-opacity:1"/><path d="M1820.877 167.1c-22.06 3.333-38.904 8.668-57.487 18.003-20.455 10.535-32.354 19.204-48.664 35.74-15.375 15.47-26.738 31.606-37.166 52.41-22.193 44.409-32.22 92.685-32.22 155.364 0 37.34 2.941 62.145 14.706 126.025 21.926 117.89 27.407 167.099 27.407 242.714 0 65.613-3.476 112.422-15.642 216.309-6.818 58.544-14.439 88.817-30.08 119.89-10.161 20.137-18.584 32.406-31.82 45.609-33.422 33.34-72.326 47.075-141.98 50.01-16.042.8-54.412-.667-74.465-2.668-22.728-2.134-41.98-7.201-52.942-13.602-8.022-4.801-17.648-15.07-21.792-23.338-10.963-21.605-11.631-60.546-1.872-98.953 7.62-29.606 19.386-58.145 49.734-121.49 15.775-32.807 24.064-52.544 33.289-80.016 20.053-59.078 31.417-113.889 37.7-180.035 1.739-18.404 1.739-98.686 0-116.956-2.406-25.605-7.085-58.945-10.695-77.215-19.519-96.82-78.075-161.632-160.43-177.635-10.026-1.867-14.84-2.134-37.567-2.134-32.22 0-47.995 2.267-81.017 11.87-77.808 22.537-174.2 83.349-246.928 156.163-30.08 30.006-48.262 54.01-70.054 92.951-38.37 68.68-56.418 140.428-47.995 191.638 4.68 27.605 20.187 55.61 44.52 79.882 20.454 20.137 39.973 32.14 63.503 38.541 9.759 2.8 10.695 2.8 37.032 2.8 18.316.134 29.412-.266 34.492-1.2 52.942-9.468 104.146-39.207 143.852-83.616 16.846-18.804 26.204-31.873 41.578-57.478 10.027-16.803 35.161-56.678 52.407-83.083 5.08-8.001 12.166-18.804 15.509-24.005 21.658-33.606 36.631-55.077 42.38-60.811 5.481-5.468 6.684-6.268 9.492-6.002 6.684.667 4.412 7.469-8.556 26.806-20.856 31.072-60.696 106.687-60.696 115.222 0 1.867 1.337 6.001 2.807 9.335 6.952 14.803 10.16 29.74 10.16 48.01 0 35.873-9.491 70.413-25.4 92.951-9.626 13.47-31.418 31.606-52.006 43.342-20.054 11.336-37.835 17.737-69.52 25.205-46.792 10.802-72.327 19.604-100.001 34.007-48.931 25.738-78.61 60.945-91.044 107.754-5.749 21.87-7.754 55.744-4.546 77.482 4.813 31.606 25.402 64.946 54.68 88.284 64.306 51.343 185.03 84.95 408.829 113.488 17.38 2.268 52.808 6.802 78.61 10.002 85.83 10.803 131.82 18.404 168.585 27.872 37.7 9.736 60.428 20.938 69.386 34.54 4.813 7.469 7.487 15.87 8.155 26.54 1.07 16.936-3.342 28.538-14.572 39.34-27.942 26.405-83.558 36.407-162.168 29.072-67.514-6.267-127.274-18.803-263.105-55.477-68.85-18.67-112.835-28.272-153.879-34.14-18.315-2.534-64.706-3.6-80.214-1.734-51.338 5.868-89.173 29.34-108.692 67.48-11.096 21.604-15.508 39.074-20.053 79.216-2.54 22.67-3.744 30.005-10.027 58.278-7.487 34.006-8.423 39.74-8.289 55.477 0 17.47 1.738 25.872 7.888 38.408 3.877 7.734 6.283 10.935 12.834 17.47 9.225 9.202 16.31 13.736 27.674 17.87 13.37 4.667 26.739 6.801 45.455 7.468 16.98.533 61.632-.934 81.418-2.667 5.883-.534 29.012-1.467 51.605-2.134 92.782-2.8 167.382 2.534 299.603 21.604 24.465 3.468 48.129 6.802 52.407 7.335s16.177 2.134 26.47 3.467c55.082 7.602 110.029 11.203 144.254 9.602 21.524-1.067 32.22-2.534 49.065-6.934 37.3-9.602 66.979-26.406 93.45-53.077 36.765-37.208 60.963-87.35 76.07-157.365 7.487-34.54 11.097-69.213 14.172-130.025 7.486-154.963 17.914-234.179 46.658-352.602 9.76-40.275 34.225-119.09 67.781-218.443 17.781-52.543 20.188-60.145 30.08-93.485 5.482-18.27 16.846-62.545 19.787-76.948 3.61-16.803 3.075-26.005-2.139-38.941-3.743-9.202-26.07-42.675-53.075-79.616-5.214-7.2-11.899-16.136-14.573-20.003-5.214-7.068-31.818-42.542-45.722-60.946-12.567-16.67-15.776-22.937-14.305-27.472 1.47-4.667 8.824-.933 17.112 8.669 2.808 3.2 10.696 13.336 17.915 22.804 7.086 9.202 19.385 25.205 27.273 35.34s19.786 25.739 26.471 34.54c6.55 8.802 14.171 18.937 16.845 22.538 14.706 19.47 37.166 41.342 58.69 57.478 27.006 20.004 60.563 35.207 93.317 42.142 10.294 2.267 15.776 2.667 33.69 3.067 25.402.667 36.632-.4 50.803-5.201 22.06-7.202 37.3-17.203 57.488-37.34 24.732-24.939 37.433-47.077 43.583-76.149 2.54-12.136 2.54-50.01 0-65.48-8.69-51.61-33.69-111.488-68.049-162.965-15.776-23.47-25.802-35.34-51.872-61.078-36.23-35.607-65.242-59.345-106.82-86.95-25.134-16.804-38.77-24.672-64.038-37.341-37.567-19.07-75-32.54-104.413-37.607-26.203-4.535-60.696-5.868-80.081-3.068Zm376.074 296.99c10.963 3.068 23.53 14.003 31.417 27.473 9.894 16.403 17.113 46.409 20.054 82.55 1.47 17.87 1.07 43.34-.802 44.408-.802.4-8.289-.4-17.113-2-19.251-3.468-31.952-4.535-65.107-5.868-27.808-1.2-39.573-2.801-47.728-6.668-14.171-6.668-23.797-24.138-21.257-38.008 3.877-21.204 20.856-33.34 46.39-33.34 4.814 0 8.557-.266 8.557-.666s-1.07-4.135-2.54-8.269c-5.348-15.336-2.941-33.74 6.016-45.875 4.813-6.535 8.155-9.202 15.24-12.27 8.69-4 16.311-4.4 26.873-1.466ZM888.647 655.462c10.294 4.935 18.984 14.803 22.995 26.005 1.337 3.601 2.139 9.336 2.54 16.404.535 11.869.668 12.002 7.085 9.201 18.851-8.268 38.771-5.6 50.803 6.535 6.284 6.135 8.69 11.869 9.091 21.604.535 9.869-1.47 17.604-6.283 24.938-7.086 10.536-13.904 14.403-53.477 30.006-31.685 12.536-40.107 16.404-55.214 25.605-5.348 3.2-10.696 5.868-12.033 5.868-3.743 0-7.754-9.068-14.84-33.74-12.967-44.809-15.374-81.75-6.951-104.687 2.54-6.535 8.556-15.87 13.101-20.404 11.364-11.069 29.011-14.136 43.183-7.335Zm0 0" style="fill-rule:nonzero;fill:none;fill-opacity:1;stroke-width:1;stroke-linecap:butt;stroke-linejoin:miter;stroke:#fff4de;stroke-opacity:1;stroke-miterlimit:4" transform="scale(.02922 .0293)"/><path d="M3013.94 513.034c-8.958 2.133-20.723 6.934-32.488 13.335a2373 2373 0 0 1-22.46 12.536c-42.113 23.338-78.744 28.272-147.595 19.604-26.605-3.334-53.744-7.468-83.959-12.936-23.93-4.267-96.792-16.27-108.958-17.87-24.6-3.334-33.69-4-65.108-4.934-96.391-3.334-131.686-2.267-157.488 4.534-8.824 2.267-23.396 9.602-27.808 13.87-5.883 5.6-8.155 12.002-12.567 33.473-18.048 88.283-45.723 139.36-93.05 171.9-18.181 12.536-36.363 20.804-72.193 32.94-27.406 9.335-36.096 13.069-44.385 19.337-22.193 16.536-33.958 44.942-39.707 95.752-2.005 18.937-1.47 80.682 1.204 116.556 6.952 97.219 7.486 106.554 9.09 186.303 1.07 47.342 2.674 74.014 7.086 111.622 7.754 68.546 22.728 132.959 43.717 189.103 14.706 39.608 38.102 85.217 59.894 116.956 84.36 122.558 209.628 191.238 384.23 210.441 28.61 3.201 53.342 4.401 93.048 4.401 41.311 0 61.766-1.2 87.435-4.8 69.385-10.27 130.75-31.473 185.43-64.547 47.861-28.805 90.642-69.08 119.653-112.955 32.889-49.61 50.001-102.42 52.407-160.965 2.54-65.48-9.09-110.021-35.294-134.693-8.69-8.135-17.38-13.469-28.209-17.07-7.487-2.533-9.091-2.667-25.401-2.667-16.177 0-18.182.134-26.471 2.667-4.947 1.467-14.706 5.335-21.525 8.802-19.117 9.469-35.963 21.338-83.557 59.212-59.893 47.742-116.445 77.081-175.002 91.217-31.016 7.469-54.68 10.67-90.642 12.403-41.177 2-77.274-1.734-117.783-12.002-85.428-21.471-155.483-71.348-193.986-138.294-25.936-45.076-33.824-96.686-20.588-134.96 6.283-18.137 20.99-32.406 38.636-37.34 7.755-2.134 29.279-2.801 44.92-1.467 51.873 4.8 96.259 20.404 152.008 53.61 9.09 5.468 35.294 22.271 58.423 37.474 72.46 47.876 99.734 62.679 137.97 75.481 59.225 19.738 116.044 18.937 156.82-2.133 12.433-6.402 22.326-14.136 34.358-26.672 21.257-22.004 35.027-49.076 44.787-88.684 8.69-35.074 11.765-64.013 13.235-125.491.936-44.542-1.47-62.813-10.428-79.883-6.952-13.069-21.524-24.804-36.23-28.939-10.294-2.933-22.193-4-31.551-2.667-15.24 2-26.471 6.268-68.985 26.272-51.471 24.271-88.905 35.207-139.975 41.341-19.385 2.268-73.53 2.268-95.99 0-94.386-9.735-181.018-38.94-234.495-79.215-44.653-33.607-68.049-74.548-68.049-119.357 0-41.474 17.514-71.08 47.46-80.682 25-7.868 77.14-1.6 129.949 16.136 23.53 7.869 61.097 23.205 88.503 36.14 6.284 2.935 11.498 5.335 11.632 5.335.133 0 10.962 5.201 24.064 11.602 124.066 60.412 175.804 79.75 238.372 89.485 27.54 4.267 62.033 4.8 92.514 1.333 64.306-7.068 113.905-34.54 143.718-79.882 7.353-11.202 17.781-32.14 21.792-44.009 6.15-18.403 11.498-43.208 14.038-66.013 2.005-17.203 2.406-65.212.668-84.416-5.347-58.678-21.658-103.887-46.925-129.892-11.765-12.002-26.07-20.804-40.242-24.805-8.021-2.134-29.946-2.8-37.968-.933Zm0 0" style="fill-rule:nonzero;fill:none;fill-opacity:1;stroke-width:1;stroke-linecap:butt;stroke-linejoin:miter;stroke:#fff4de;stroke-opacity:1;stroke-miterlimit:4" transform="scale(.02922 .0293)"/><path d="M3363.408 1207.17c-17.914 3.866-35.428 14.802-47.059 29.205-11.364 14.003-16.979 25.738-21.658 44.008-2.54 10.002-2.808 12.27-2.808 30.673 0 21.604 1.471 31.206 7.22 48.41 8.289 24.938 27.808 52.01 44.653 62.012 17.647 10.535 37.3 13.602 56.15 8.668 15.375-4 33.156-16.137 44.252-29.873 25.268-32.006 30.615-77.215 14.706-125.624-.936-2.534-4.01-9.469-7.086-15.47-19.786-40.008-53.342-59.611-88.37-52.01ZM3694.027 1299.587c-16.577 2.667-34.626 10.269-52.54 22.138-12.033 7.868-34.76 30.54-44.386 43.875-3.61 5.201-9.626 15.336-13.235 22.538-11.097 22.404-14.707 38.007-14.84 62.545 0 20.938 2.54 32.407 10.962 48.943 16.712 32.673 48.53 50.41 82.488 46.01 23.396-3.068 44.386-12.937 67.648-31.74 22.193-17.87 42.514-45.743 51.739-70.414 11.898-32.406 12.3-63.212 1.069-91.351-10.16-25.072-31.15-44.676-54.947-51.077-7.353-1.867-25.803-2.667-33.958-1.467ZM3381.19 1488.69c-25.803 2.935-47.728 11.07-69.788 25.74-14.438 9.734-22.593 16.669-31.417 27.204-27.407 32.673-43.316 71.881-49.065 120.557-3.342 29.206-1.47 78.549 4.412 111.889 8.556 48.01 27.54 111.221 41.043 136.026 19.52 35.474 52.942 60.145 91.579 66.947 14.572 2.8 60.562 1.6 89.038-1.867 53.878-6.935 90.376-15.603 127.943-30.54 49.6-19.737 88.771-48.142 115.376-83.483 8.556-11.335 12.968-18.803 19.118-31.74 6.15-13.202 9.492-23.87 12.032-39.073 1.872-10.67 2.005-14.803 1.604-32.273-.668-27.206-3.476-39.341-14.572-62.012-6.818-13.603-13.37-22.805-23.53-32.94-21.925-21.871-47.594-33.74-78.61-36.674-14.707-1.334-26.872-.4-46.525 3.734-18.583 3.867-26.07 3.067-34.492-3.6-5.883-4.668-8.824-11.336-12.033-28.006-3.342-16.403-3.877-18.404-8.155-29.473-6.283-15.87-14.305-28.805-26.07-41.074-27.941-29.606-67.514-44.009-107.889-39.341ZM3879.457 1571.107c-32.086 4-60.16 16.67-79.546 36.007-25 24.805-35.161 59.345-26.07 88.017 8.022 25.338 28.075 42.808 58.423 50.81 11.097 2.934 12.7 2.934 31.685 3.067 23.396.134 32.086-.933 48.931-6.534 32.62-10.67 58.156-31.873 70.99-59.079 5.883-12.135 7.888-21.337 8.022-36.273 0-10.67-.401-14.403-2.273-20.804-2.674-9.469-6.15-16.67-11.096-22.672-15.108-18.67-34.894-28.672-63.771-32.54-13.37-1.733-20.99-1.733-35.295 0Zm0 0" style="fill-rule:nonzero;fill:none;fill-opacity:1;stroke-width:1;stroke-linecap:butt;stroke-linejoin:miter;stroke:#fad5e6;stroke-opacity:1;stroke-miterlimit:4" transform="scale(.02922 .0293)"/><path d="M3008.458 1900.771c-72.194 7.602-172.061 15.47-237.57 18.804-73.396 3.734-90.108 4-210.698 4-142.782 0-156.285.667-184.761 8.136-73.664 19.47-117.916 74.147-133.558 165.365-5.347 31.873-5.214 73.348.535 126.025.668 4.934 1.738 17.336 2.54 27.472.802 10.268 2.54 31.606 4.01 47.61 2.675 32.005 5.75 72.147 8.022 106.42.802 12.402 1.605 25.205 2.006 28.539.668 7.068 2.94 52.943 4.946 98.019 1.738 40.408 1.738 60.812 0 96.419-4.545 92.685-17.647 172.834-49.064 303.259-23.798 98.286-27.407 118.023-27.407 145.762 0 24.671 2.807 37.874 11.765 55.477 22.192 43.209 68.049 67.08 149.734 77.482 23.93 3.2 65.241 4.268 112.3 3.067 21.926-.666 44.654-1.467 50.67-2 29.546-2.667 35.294-3.2 52.54-5.468 73.53-10.268 127.81-27.872 167.516-54.277 28.342-19.07 45.99-38.007 59.359-64.28 10.16-19.736 14.439-35.473 16.31-60.811 2.006-28.006-1.07-52.81-9.09-72.681-10.83-26.539-32.488-45.876-62.702-56.144-10.695-3.468-29.278-6.135-54.412-7.869-35.83-2.267-48.664-3.467-63.638-6-53.744-8.936-93.049-27.74-123.397-59.079-36.23-37.34-54.947-84.15-61.23-154.43-1.872-21.07-1.605-73.081.534-95.485 12.968-136.694 64.974-254.317 147.328-333.532 52.14-50.01 117.381-82.55 184.896-92.018 73.129-10.002 135.028-.267 171.526 27.205 23.396 17.604 39.171 45.209 46.524 81.35 4.412 22.27 4.947 28.672 4.947 60.945-.134 29.605-.268 31.606-2.674 43.075-3.209 15.07-7.353 25.071-14.038 34.006-15.24 20.138-41.711 31.206-84.76 35.474-15.24 1.467-53.477 1.2-69.653-.533-29.279-3.068-59.627-9.336-99.333-20.404-75-21.071-94.787-24.805-122.996-23.738-24.733.933-42.113 6.267-62.033 19.07-19.652 12.67-37.166 37.34-45.455 63.479-8.69 27.605-10.562 72.68-4.545 107.621 3.208 19.204 11.363 41.475 20.588 56.811 14.171 23.605 36.23 43.342 59.092 53.21 21.257 9.202 37.834 11.87 67.781 11.07 42.113-.934 67.247-7.069 139.574-33.34 84.894-30.806 119.788-40.275 161.9-44.276 34.092-2.934 48.664.4 62.568 14.403 15.508 15.736 21.792 37.874 21.925 77.615 0 48.676-11.096 92.685-35.963 141.494-14.037 27.873-31.55 55.211-67.648 105.488-31.684 44.408-41.711 59.878-51.738 79.882-6.952 14.003-10.83 23.605-13.904 36.007-2.406 9.602-2.674 12.536-2.674 28.672 0 20.938 1.337 27.739 9.091 42.542 10.428 20.404 28.075 34.807 50.134 41.075 6.819 2 9.894 2.4 25.803 2.267 18.583-.134 21.39-.4 61.498-6.802 63.904-10.402 60.562-10.002 100.937-10.002 30.749 0 40.375.267 61.498 2.4 19.653 1.735 31.417 2.401 55.482 2.401 28.877.134 30.883 0 38.503-2.267 26.47-7.468 50.268-26.938 62.033-50.676 8.289-16.804 14.037-45.743 13.235-66.413-.668-15.203-2.807-21.338-10.695-29.206-6.284-6.268-8.556-7.068-32.487-10.802-45.723-7.468-80.75-20.537-109.894-41.208-10.428-7.468-23.664-19.47-23.664-21.604 0-3.334 10.963.8 40.509 15.47 41.31 20.403 69.386 28.405 95.59 27.071 11.898-.666 16.31-2.133 22.058-7.201l3.877-3.6h13.77c10.696 0 15.642-.4 22.327-2.001 21.123-5.335 41.845-18.804 63.904-41.608 32.22-33.207 52.541-67.614 60.696-102.42 1.337-5.868 1.605-12.136 1.738-29.606 0-22.404-.4-25.072-3.61-23.871-.802.4-3.475 4-6.015 8.001-2.407 4.134-4.68 7.602-5.214 7.602-.402 0-.402-3.334 0-7.335 1.47-11.87.935-33.34-.936-43.475-5.348-27.739-17.648-48.943-44.653-76.549-14.305-14.67-23.396-21.737-28.075-21.737-3.61 0-4.011 1.467-4.813 13.336-.401 8.535-1.204 11.869-2.808 10.402-.267-.267-1.604-4.668-2.941-9.735-3.075-11.603-6.417-17.737-13.503-24.939-9.76-9.868-18.984-16.003-31.551-20.937-4.01-1.467-5.481-1.734-6.15-.8-.535.667-2.941 5.868-5.214 11.735-4.946 12.67-8.556 19.204-15.642 28.54-5.481 7.334-12.567 14.402-14.305 14.402-1.337 0-1.337.267 1.07-8.802 2.807-10.002 3.075-21.337.535-23.87-1.605-1.735-2.006-1.735-9.894 1.066-19.652 6.668-44.652 21.07-62.3 35.874-13.904 11.602-32.62 32.273-43.984 48.41-11.765 16.802-14.706 16.402-10.963-1.468 2.005-9.735 5.749-18.804 12.032-28.805 6.15-9.736 22.06-29.74 28.878-36.408 2.54-2.4 4.545-4.934 4.545-5.6 0-.667-2.005-4.001-4.412-7.602-8.556-12.403-12.166-21.071-17.647-43.209-6.15-24.004-9.893-41.208-14.973-67.613-11.23-57.878-14.84-92.685-14.974-140.427 0-67.08 6.15-107.488 32.086-211.508 18.583-74.815 20.722-88.55 19.653-129.225-.535-18.937-.936-25.605-2.941-35.74-10.696-53.878-41.846-92.019-91.044-111.09-18.316-7.067-45.455-12.001-64.974-11.868-5.615.133-22.594 1.467-37.701 3.067ZM1692.4 1933.31c-71.258 6.802-135.43 32.674-207.222 83.484-15.91 11.202-57.755 44.542-70.723 56.277-2.54 2.268-12.032 10.403-20.99 18.004-9.09 7.735-21.123 18.137-27.005 23.071-49.199 42.008-76.873 58.412-99.2 58.412-7.887 0-12.299-2.4-15.374-8.402-1.604-3.334-2.005-6.535-2.272-17.87-.401-15.337.4-25.338 4.812-56.411 4.145-30.406 5.08-40.008 5.214-55.744.134-22.271-2.54-36.007-10.026-51.477-2.942-6.001-5.75-9.602-13.236-17.07-7.888-8.002-10.829-10.402-17.915-13.736-14.305-7.068-18.315-7.735-43.984-7.602-18.583 0-29.011.667-58.557 3.734-46.792 4.801-72.995 5.068-110.429 1.067-29.278-3.067-63.503-4.267-74.867-2.534-13.637 2.134-29.546 8.535-40.776 16.137-19.252 13.202-33.557 35.474-39.573 61.479-2.94 12.935-3.61 41.208-1.47 55.744 5.214 32.806 20.99 77.082 49.466 138.694 3.208 6.934 8.021 17.203 10.695 23.07 2.54 5.735 7.62 16.537 10.963 24.005 56.15 120.957 78.877 178.169 100.937 253.517 11.497 39.74 20.454 87.75 23.53 126.824 1.336 16.67 1.336 49.877 0 64.68-4.947 55.21-23.664 112.422-57.622 176.3-12.7 23.739-17.513 32.274-43.182 75.215-31.952 53.344-36.632 61.48-45.188 77.482-19.786 36.807-29.144 63.746-31.952 92.552-2.005 19.203 1.872 41.741 9.76 56.944 4.679 8.802 19.92 24.538 29.278 29.873 25.401 14.802 62.567 22.537 126.07 26.271 55.617 3.334 209.896 2.267 262.838-1.733 106.686-8.135 152.408-30.406 164.173-79.75 2.006-8.134 2.407-12.268 2.273-25.738 0-14.402-.267-16.803-2.808-24.938-5.347-17.47-14.037-32.406-31.55-53.877-11.9-14.803-20.99-24.671-51.472-55.61-44.653-45.476-58.423-60.013-76.739-82.017-31.284-37.474-55.75-76.148-70.188-110.688-7.486-18.004-15.508-46.142-19.251-67.347-2.273-12.535-2.674-18.537-3.075-44.942-.401-19.203-.134-36.007.535-45.075 8.422-106.688 39.973-205.107 89.172-277.521 25.936-38.274 57.086-68.28 90.108-87.084 29.813-16.936 67.514-26.005 99.867-24.004 59.894 3.734 88.905 17.87 104.547 50.943 9.492 20.537 12.567 37.874 13.102 79.215.668 41.475-1.07 66.147-7.754 106.021-8.557 51.61-21.257 96.286-51.472 181.502-34.76 98.42-46.658 141.094-53.877 193.905-7.754 56.01-5.615 117.356 5.615 164.032 9.492 39.34 27.273 76.281 50 104.553 54.546 67.214 143.585 98.82 259.362 91.485 75.402-4.8 141.98-37.874 187.702-93.618 44.119-53.744 69.921-122.29 79.28-210.441 2.138-20.404 3.074-69.214 1.604-84.95-5.08-51.077-22.728-85.75-50.67-98.953-9.892-4.8-16.443-6.401-26.203-6.268-16.578.267-32.888 7.468-50.535 22.538-4.01 3.334-16.578 15.336-28.21 26.672-32.219 31.606-46.791 41.741-71.658 50.143-13.904 4.534-21.791 5.868-40.91 6.535-50.267 1.733-82.22-10.403-100.803-38.141-15.374-23.338-16.444-63.88-2.673-105.087 8.823-26.139 32.888-64.946 61.631-99.487 2.14-2.4 8.824-10.535 14.974-18.003 6.15-7.335 16.043-19.07 21.925-26.005 5.883-6.801 15.107-17.604 20.455-23.738 84.894-99.22 127.675-181.369 143.585-276.054 15.508-92.018 3.877-168.3-34.493-226.31-39.171-58.812-103.477-95.886-177.007-101.887-11.631-.8-52.006-1.2-60.562-.267Zm0 0" style="fill-rule:nonzero;fill:none;fill-opacity:1;stroke-width:1;stroke-linecap:butt;stroke-linejoin:miter;stroke:#fff4de;stroke-opacity:1;stroke-miterlimit:4" transform="scale(.02922 .0293)"/><path d="M699.473 2373.93c-12.3 3.2-22.593 9.335-33.69 20.138-23.797 23.337-37.7 58.678-37.7 95.485-.134 25.738 5.614 44.542 19.384 63.079 10.83 14.536 24.199 24.538 39.44 29.739 7.085 2.4 9.492 2.667 21.524 2.667 15.107-.133 20.053-1.333 33.556-8.935 8.155-4.534 23.931-19.737 29.947-28.939 14.305-21.87 21.123-42.008 23.53-69.88 1.07-10.402.936-14.136-.401-24.405-4.278-31.34-17.514-53.877-40.776-69.347-16.845-11.335-35.562-14.67-54.814-9.602ZM393.989 2439.676c-10.562 1.2-18.049 3.601-28.61 8.669-15.241 7.601-27.808 21.337-34.626 38.54-5.08 12.27-6.685 23.339-6.017 42.676.669 25.738 4.279 39.874 15.642 63.345 25.268 51.477 69.386 81.883 115.109 79.35 13.235-.801 20.99-2.668 32.888-8.402 8.289-4.001 10.829-5.735 19.118-14.137 8.422-8.268 10.294-10.802 14.17-19.07 8.022-16.803 10.83-34.007 8.958-54.41-4.545-47.477-27.941-90.418-63.236-115.757-21.792-15.603-49.733-23.604-73.396-20.804ZM660.97 2633.981c-31.283 6.001-55.214 19.87-73.263 42.142-11.898 14.67-19.251 29.739-23.93 47.742-6.685 26.805-9.359 32.006-19.52 37.208-7.085 3.467-12.566 3.333-29.01-.934-28.61-7.335-52.541-6.668-76.873 2-42.514 15.203-70.322 49.21-79.68 96.953-2.54 13.469-2.273 42.675.535 55.877 4.412 20.004 10.963 35.74 22.861 54.01 8.69 13.203 13.235 18.938 27.14 32.94 20.053 20.405 38.636 33.474 67.647 47.743 44.386 21.738 93.05 35.207 158.023 44.142 21.792 2.934 54.28 3.6 65.51 1.334 38.369-7.868 70.588-32.807 87.567-68.014 12.433-25.871 26.471-65.479 34.894-98.952 9.893-38.808 13.636-67.213 13.904-101.487 0-32.406-3.21-53.343-12.701-82.15-18.85-57.344-59.894-96.818-113.504-108.954-11.364-2.667-39.573-3.6-49.6-1.6ZM176.606 2687.058c-37.567 7.201-60.294 31.206-62.032 65.613-.936 21.07 4.411 38.007 17.78 55.61 18.717 24.806 43.985 39.608 79.28 46.41 15.107 2.934 42.78 2.4 55.214-.934 44.386-12.269 65.375-50.676 51.338-94.151-11.097-34.407-44.787-61.88-87.702-71.481-10.294-2.4-43.717-2.934-53.878-1.067Zm0 0" style="fill-rule:nonzero;fill:none;fill-opacity:1;stroke-width:1;stroke-linecap:butt;stroke-linejoin:miter;stroke:#fad5e6;stroke-opacity:1;stroke-miterlimit:4" transform="scale(.02922 .0293)"/><path d="M52.59.02a9 9 0 0 0-.656.113c-2.106.437-3.805 1.347-5.293 2.84-1.02 1.027-1.762 2.14-2.356 3.535-.168.39-.45 1.187-.547 1.543-.023.094-.058.168-.074.168s-.121-.098-.238-.223c-.598-.629-1.477-1.309-2.29-1.773-2.171-1.246-4.906-1.645-7.609-1.106-2.55.508-5.379 1.848-7.914 3.754a25 25 0 0 0-3.175 2.809c-1.223 1.265-2.458 3.164-3.262 5.02-1.164 2.675-1.54 5.308-1.078 7.562.14.675.379 1.363.715 2.031.507 1.02 1.07 1.789 1.937 2.656.262.262.477.496.477.52 0 .027-.043.14-.09.25-.524 1.195-.825 3.195-.688 4.613.192 2.078.875 3.707 2.192 5.23.152.176.277.329.277.34 0 .016-.09.118-.207.23-.906.9-1.613 2.052-2.07 3.372-.274.789-.403 1.445-.57 2.824-.048.379-.098.649-.317 1.7-.371 1.745-.328 3.081.14 4.55.254.793.829 1.781 1.399 2.406.074.082.137.16.137.168s-.11.184-.25.383c-1.176 1.75-1.621 4.203-1.18 6.492.215 1.098.793 2.848 1.258 3.79.062.128.113.238.113.246 0 0-.148.007-.328.007-1.414.004-2.602.446-3.66 1.352a6.8 6.8 0 0 0-1.36 1.672c-.097.176-.187.316-.203.316-.011 0-.125-.07-.254-.156a7.1 7.1 0 0 0-2.785-1.14c-.304-.052-1.636-.052-1.914.003-1.41.274-2.441.824-3.3 1.774-.876.96-1.348 2.109-1.45 3.527-.035.48-.008 1.297.059 1.648.02.082.023.157.015.172-.003.012-.078.016-.156.004-.164-.012-.812.035-1.262.102-1.14.164-2.222.648-3.035 1.363-.824.727-1.422 1.738-1.636 2.785-.168.813-.122 2.215.097 2.942a6.15 6.15 0 0 0 1.582 2.605c1.012 1 2.285 1.64 3.856 1.934.34.062.531.078 1.125.097l.715.016.093.277c.403 1.176 1.446 2.598 2.606 3.563 1.918 1.594 4.324 2.535 7.746 3.027.789.117 1.465.16 2.156.14l.563-.011.027.117c.184.723.535 1.516.965 2.156 1.25 1.868 3.308 3.008 6.148 3.41.664.094 1.38.16 2.164.196.848.035 6.383.035 7.262 0 3.273-.14 5.453-.68 7.066-1.738l.364-.239.164.094c.797.465 2.183.992 3.277 1.25 1.317.305 2.422.426 3.82.426 2.676-.004 5.075-.652 7.133-1.934a14 14 0 0 0 2.051-1.601c.11-.106.207-.188.227-.18.011.004.171.14.347.297.66.59 1.239.977 2.067 1.383 1.894.933 4.035 1.328 7.172 1.332 1.59 0 2.707-.059 4.136-.219 2.215-.25 4.446-.836 5.946-1.562.168-.082.32-.153.34-.153.015 0 .152.074.304.164a7.7 7.7 0 0 0 2.863 1.028c.25.035.524.05 1.079.046.835 0 1.042-.02 2.296-.226 2.094-.348 2.2-.356 3.883-.219 2.094.164 3.051.153 4.035-.058a8.5 8.5 0 0 0 1.75-.63c1.93-.952 3.371-2.593 3.985-4.53.32-1.012.465-1.86.496-2.962.02-.601.027-.671.078-.738.371-.46.648-.828.789-1.035.797-1.144 1.305-2.492 1.508-4.004.086-.617.09-1.644.02-2.27-.325-2.734-1.641-4.976-3.829-6.511-.906-.64-1.699-1.024-2.82-1.371-.192-.059-.309-.11-.328-.145-.035-.066-.215-1.129-.293-1.738a12 12 0 0 1-.106-1.98c.043-1.391.188-2.258.75-4.512.192-.766.38-1.547.422-1.735.153-.718.309-1.742.309-2.046 0-.27-.016-.262.39-.262.989 0 2.84-.172 3.832-.356 2.227-.406 4.086-1.113 5.579-2.109 1.246-.836 2.27-1.875 2.96-3.008.188-.305.489-.898.614-1.203l.066-.156.106.023c.789.145 2.11.047 3.093-.234 1.915-.55 3.497-1.844 4.293-3.508.5-1.047.653-2.121.496-3.508a4.6 4.6 0 0 0-.496-1.625c-.914-1.789-2.726-2.902-4.996-3.066-.535-.043-.507-.024-.437-.285.144-.567.191-1.703.09-2.403-.153-1.105-.59-2.199-1.2-3.015-.343-.457-.968-1.04-1.457-1.364a7 7 0 0 0-1.3-.632c-1.309-.438-2.77-.371-4.149.191a7.5 7.5 0 0 0-1.527.836c-.11.078-.203.144-.219.144s-.09-.152-.168-.335c-.777-1.848-2.156-3.137-3.89-3.645-.52-.152-1.282-.227-1.864-.184a5.7 5.7 0 0 0-3.347 1.399c-.52.445-1.137 1.215-1.375 1.722-.051.106-.102.196-.114.204-.02.011-.222-.098-.644-.352-.035-.023-.031-.144.011-.773.07-1.04.07-3.149.004-3.63l-.05-.34.242-.214c1.91-1.73 3.066-4.027 3.469-6.902.117-.836.132-1.145.128-2.344 0-1.266-.039-1.824-.199-2.781-.449-2.657-1.547-4.79-3.156-6.117-1.375-1.137-2.816-1.692-4.531-1.739a6.3 6.3 0 0 0-1.645.133c-.847.176-1.555.45-2.523.992-.719.399-.7.39-1.406.332-.63-.054-2.25-.304-3.614-.558a78 78 0 0 0-2.234-.364c-1.203-.168-1.676-.199-3.653-.254-1.34-.039-2.359-.023-3.035.043-.242.028-.449.04-.46.032a3 3 0 0 1-.176-.301c-.2-.367-.61-1.04-.926-1.5a15.3 15.3 0 0 0-1.903-2.285C64.114 3.28 60.255 1.004 56.845.242 55.797.008 55.8.008 54.242 0a36 36 0 0 0-1.652.02m2.324 4.875c.719.085 1.059.16 1.754.382.871.282 2.035.817 2.906 1.336a22.3 22.3 0 0 1 3.082 2.235c.438.379 1.469 1.398 1.723 1.699 1.308 1.547 2.398 3.86 2.71 5.742.075.453.075 1.563 0 1.918-.116.55-.292.961-.64 1.484-.156.235-.324.434-.633.747-.59.59-1.035.882-1.68 1.093-.413.14-.741.172-1.484.153-.523-.012-.683-.024-.984-.09a7.2 7.2 0 0 1-2.727-1.235c-.629-.472-1.285-1.113-1.714-1.683l-.493-.66a128 128 0 0 0-.773-1.012c-.23-.297-.59-.766-.797-1.035-.21-.278-.441-.574-.523-.668-.243-.281-.457-.39-.5-.254-.043.133.05.316.418.805.406.539 1.183 1.578 1.336 1.785.078.113.273.375.425.586.79 1.082 1.442 2.062 1.551 2.332.152.379.168.648.063 1.14a41 41 0 0 1-.579 2.254c-.289.977-.359 1.2-.878 2.738-.98 2.91-1.696 5.22-1.98 6.399-.63 2.605-.95 4.562-1.173 7.191a90 90 0 0 0-.191 3.137c-.09 1.781-.196 2.797-.414 3.809-.574 2.687-1.664 4.472-3.356 5.507-.613.372-1.422.66-2.207.79-.57.093-1.808.105-2.804.027-.528-.04-1.73-.168-2.235-.238l-.773-.102c-.125-.016-.817-.113-1.532-.215-3.863-.558-6.042-.715-8.753-.633-.66.02-1.336.047-1.508.063-.578.05-1.883.094-2.38.078-.546-.02-.937-.082-1.327-.219a2 2 0 0 1-.809-.523 1.6 1.6 0 0 1-.375-.512c-.18-.367-.23-.613-.23-1.125-.004-.46.023-.629.242-1.625.183-.828.219-1.043.293-1.707.133-1.176.262-1.687.586-2.32.57-1.117 1.676-1.805 3.176-1.977.453-.054 1.808-.023 2.343.051 1.2.172 2.485.453 4.496 1 3.055.828 4.383 1.137 5.98 1.406 3.227.535 5.438.317 6.446-.633.328-.316.457-.656.426-1.152-.031-.473-.207-.836-.52-1.07-.851-.63-2.511-1.008-6.671-1.535-4.137-.524-4.813-.621-6.829-.985-1.718-.308-3.511-.765-4.652-1.183-1.137-.414-2.101-.922-2.762-1.45a4.85 4.85 0 0 1-1.23-1.484c-.309-.594-.41-1.07-.41-1.902 0-2.106.93-3.617 2.836-4.625.808-.422 1.554-.68 2.922-.996.925-.22 1.445-.407 2.03-.739.602-.343 1.24-.875 1.52-1.27.465-.66.743-1.671.743-2.722 0-.535-.094-.973-.297-1.406a1 1 0 0 1-.082-.274c0-.25 1.164-2.464 1.773-3.375.258-.386.367-.597.356-.695-.008-.066-.028-.082-.106-.09-.082-.008-.117.016-.277.176-.168.168-.606.797-1.239 1.781-.097.153-.304.47-.453.703a95 95 0 0 0-1.53 2.434c-.45.75-.724 1.133-1.216 1.684-1.16 1.3-2.656 2.172-4.203 2.449-.148.027-.473.039-1.008.035-.77 0-.797 0-1.082-.082-.687-.188-1.258-.54-1.855-1.129-1.196-1.191-1.567-2.453-1.254-4.27.312-1.84 1.308-3.956 2.625-5.574.504-.617 1.66-1.71 2.574-2.433 1.774-1.395 3.781-2.496 5.418-2.973.965-.281 1.426-.348 2.367-.348.664 0 .805.008 1.098.063 1.754.34 3.191 1.469 4.004 3.16.426.89.648 1.664.828 2.914.187 1.324.203 1.598.207 3.09 0 1.383-.016 1.652-.148 2.695a19.5 19.5 0 0 1-.516 2.707c-.371 1.465-.758 2.508-1.45 3.942-.222.465-.507 1.07-.632 1.347-.797 1.762-1.086 2.934-1.004 4.106.039.629.191 1.039.512 1.383.472.511 1.113.68 2.918.77 1.59.073 2.914-.087 3.851-.47a4.4 4.4 0 0 0 1.465-.984c.387-.387.633-.746.93-1.336.457-.91.68-1.797.879-3.512.355-3.043.457-4.414.457-6.336 0-2.214-.16-3.656-.801-7.109-.344-1.871-.43-2.598-.43-3.691 0-1.047.078-1.809.281-2.703.247-1.094.73-2.149 1.34-2.934.176-.227.621-.68.864-.879.593-.48 1.46-.906 2.175-1.059.621-.132 1.493-.168 2.18-.085m34.258 10.16c1.402.39 2.32 2.02 2.547 4.53.05.563.039 1.97-.02 2.474-.074.668-.23 1.394-.41 1.933-.117.348-.422.961-.637 1.29-.87 1.327-2.32 2.132-4.199 2.34-.89.1-1.898.085-2.703-.04-1.828-.285-3.34-.852-6.965-2.621-.383-.188-.7-.34-.703-.34s-.156-.07-.34-.156a28 28 0 0 0-2.586-1.059c-1.543-.52-3.066-.703-3.797-.472-.875.28-1.386 1.148-1.386 2.363 0 1.117.468 2.11 1.425 3.015 1.516 1.438 4.258 2.477 7.415 2.801.656.067 2.238.067 2.804 0 1.492-.18 2.586-.5 4.09-1.21 1.242-.587 1.57-.712 2.016-.77.273-.04.62-.008.922.078.43.121.855.465 1.058.848.262.5.332 1.035.305 2.34-.043 1.8-.133 2.648-.387 3.675-.2.813-.48 1.496-.832 2.024a5.5 5.5 0 0 1-.992 1.05c-1.184.895-3.078 1.032-5.07.368-1.118-.375-1.915-.809-4.032-2.211-2.062-1.364-2.93-1.84-4.058-2.227-.93-.32-2.028-.496-2.864-.457-.574.024-.87.129-1.183.418-.535.496-.762 1.379-.633 2.457.313 2.629 2.57 5.043 5.688 6.078.378.125 1.101.305 1.574.39 1.847.34 4.183.18 5.992-.405 1.453-.473 2.875-1.274 4.367-2.465 1.39-1.11 1.883-1.457 2.442-1.735.199-.101.484-.214.628-.257.243-.075.301-.079.774-.079.476 0 .523.004.742.079.316.105.57.261.824.5.766.722 1.106 2.027 1.032 3.945a9 9 0 0 1-1.532 4.715c-.847 1.285-2.097 2.465-3.496 3.308-1.851 1.121-4.133 1.832-6.394 1.996-.614.047-2.504.047-3.23 0-4.505-.28-8.087-1.718-10.622-4.25-1.137-1.136-1.98-2.324-2.73-3.851a18.3 18.3 0 0 1-1.434-4.028c-.484-2.09-.687-3.843-.742-6.363-.047-2.336-.063-2.61-.266-5.457-.078-1.05-.094-2.86-.035-3.414.168-1.488.512-2.32 1.16-2.805.242-.183.496-.293 1.297-.566a24 24 0 0 0 1-.363c2.121-.91 3.18-2.473 3.828-5.637.13-.629.196-.816.367-.98.13-.125.555-.34.813-.407.754-.199 1.785-.23 4.601-.133.918.028 1.184.047 1.903.145.355.047 2.484.398 3.183.523.883.16 1.676.282 2.454.38 2.011.253 3.082.109 4.312-.575.191-.105.484-.27.656-.367.344-.188.688-.328.95-.39.234-.055.874-.036 1.109.027m9.96 20.304c.684.145 1.317.7 1.723 1.524.16.316.2.422.297.746.207.715.227 1.539.055 2.219-.152.605-.55 1.234-.996 1.586-.793.62-1.691.695-2.512.203-.492-.293-1.062-1.086-1.304-1.817-.168-.504-.211-.785-.211-1.418 0-.539.007-.605.082-.898.136-.535.3-.879.632-1.29.547-.679 1.446-1.023 2.235-.855m9.794 2.75c.695.188 1.308.762 1.605 1.496.48 1.196.227 2.622-.672 3.82-.293.388-.55.66-.87.919-.68.55-1.294.84-1.977.93-1.274.163-2.395-.735-2.692-2.153a4 4 0 0 1-.039-.629c.004-.719.11-1.176.434-1.832.105-.21.281-.508.387-.66.28-.39.945-1.055 1.296-1.285.524-.348 1.051-.57 1.536-.649.238-.035.777-.011.992.043m-9.192 5.508a3.71 3.71 0 0 1 2.973 2.344c.125.324.14.383.238.863.094.489.18.684.352.82.246.196.465.22 1.008.106.574-.121.93-.148 1.36-.11.905.087 1.655.434 2.296 1.075.297.297.488.566.687.965.325.664.407 1.02.426 1.816.012.512.008.633-.047.945-.129.762-.414 1.41-.91 2.075-1.031 1.375-2.687 2.375-4.875 2.93-.715.183-1.277.284-2.234.41-.832.101-2.176.136-2.602.054-1.129-.2-2.105-.922-2.676-1.96-.394-.727-.949-2.579-1.199-3.985-.172-.977-.226-2.422-.129-3.278.168-1.425.633-2.574 1.434-3.53.258-.31.496-.512.918-.798.926-.617 1.973-.879 2.98-.742m14.649 2.403c.844.113 1.422.406 1.863.953.145.175.246.386.324.664.094.316.09.883-.004 1.222a2.74 2.74 0 0 1-.703 1.23c-.414.438-.918.75-1.535.95-.492.164-.746.195-1.43.191-.554-.003-.601-.003-.925-.09-.723-.195-1.2-.527-1.532-1.085-.414-.684-.34-1.707.176-2.48.563-.852 1.535-1.407 2.735-1.555.418-.051.64-.051 1.03 0M89.66 55.629c2.117.273 3.508 1.547 3.903 3.559.058.296.07.492.085 1.046.032 1.192-.03 1.594-.574 3.786-.758 3.046-.937 4.23-.937 6.195.004 1.398.11 2.418.437 4.113.149.774.258 1.277.438 1.98.16.649.265.903.515 1.266.07.106.13.203.13.223s-.06.094-.134.164c-.199.195-.664.781-.843 1.066a2.5 2.5 0 0 0-.352.844c-.11.524-.023.535.32.043a8.5 8.5 0 0 1 1.286-1.418c.515-.433 1.246-.855 1.82-1.05.23-.083.242-.083.289-.032.074.074.066.406-.016.7-.07.265-.07.257-.03.257.05 0 .257-.207.417-.422.207-.273.313-.465.457-.836a3 3 0 0 1 .152-.343c.02-.028.063-.02.18.023.367.144.637.324.922.613.207.211.305.39.395.73.039.15.078.278.085.286.047.043.07-.055.082-.305.024-.347.036-.39.141-.39.137 0 .402.207.82.636.79.809 1.149 1.43 1.305 2.242.055.297.07.926.027 1.274-.011.117-.011.215 0 .215.016 0 .082-.102.153-.223.074-.117.152-.223.176-.234.093-.035.105.043.105.699-.004.719-.02.844-.207 1.394-.398 1.176-1.586 2.672-2.625 3.313-.535.332-.914.437-1.512.437h-.402l-.113.106c-.168.148-.297.191-.645.21-.765.04-1.586-.194-2.793-.792-.863-.43-1.183-.55-1.183-.453 0 .062.386.414.691.633.852.605 1.875.988 3.21 1.207.7.109.767.132.95.316.23.23.293.41.313.856.023.605-.145 1.453-.387 1.945-.344.695-1.04 1.265-1.813 1.484-.222.067-.28.07-1.125.067-.703 0-1.046-.02-1.62-.07-.618-.063-.9-.071-1.798-.071-1.18 0-1.082-.012-2.949.293-1.172.187-1.254.195-1.797.2-.464.003-.554-.009-.754-.067a2.34 2.34 0 0 1-1.464-1.203c-.227-.434-.266-.633-.266-1.246 0-.473.008-.56.078-.84.09-.364.203-.645.406-1.055.293-.586.586-1.04 1.512-2.34 1.055-1.472 1.567-2.273 1.977-3.09.726-1.43 1.05-2.718 1.05-4.144-.003-1.164-.187-1.813-.64-2.274-.406-.41-.832-.507-1.828-.422-1.23.118-2.25.395-4.73 1.297-2.114.77-2.848.95-4.079.977-.504.016-.707.008-.933-.027-.833-.13-1.504-.446-2.055-.973-.559-.527-.91-1.102-1.156-1.89-.286-.884-.348-2.216-.165-3.247.188-1.047.735-1.949 1.461-2.422.582-.375 1.09-.53 1.813-.558.824-.032 1.402.078 3.594.695 1.16.324 2.047.508 2.902.598.473.05 1.59.058 2.035.015 1.258-.125 2.031-.449 2.477-1.039.195-.261.316-.554.41-.996.07-.336.074-.394.078-1.262 0-.945-.016-1.132-.144-1.785-.168-.824-.504-1.539-.954-2.02-.57-.609-1.496-1.038-2.57-1.183-1.254-.176-2.68-.078-3.957.258-2.89.773-5.32 2.91-6.898 6.062-.496 1-.868 1.993-1.168 3.137a16.5 16.5 0 0 0-.582 4.48c0 1.426.117 2.434.394 3.356.332 1.094.73 1.797 1.43 2.516.887.918 2.035 1.469 3.605 1.73.438.074.813.11 1.86.176.734.05 1.277.129 1.59.23 1.074.364 1.746 1.098 1.996 2.176.203.852.132 2.14-.153 2.895a4.75 4.75 0 0 1-1.3 1.867c-1.266 1.086-2.989 1.734-5.551 2.09-.504.066-.672.082-1.535.16-.176.016-.84.039-1.48.059-1.376.035-2.583.003-3.282-.09-2.387-.305-3.727-1.004-4.375-2.27-.262-.515-.344-.902-.344-1.625 0-.812.106-1.39.8-4.27.919-3.82 1.302-6.167 1.434-8.882.051-1.043.051-1.64 0-2.824-.058-1.32-.125-2.664-.144-2.871-.012-.098-.035-.473-.059-.836-.066-1.004-.156-2.18-.234-3.118a120 120 0 0 1-.117-1.394c-.024-.297-.055-.66-.074-.805-.168-1.543-.172-2.758-.016-3.691.41-2.399 1.496-3.938 3.273-4.637.602-.238 1.192-.355 2.055-.414.266-.02 1.895-.031 3.973-.031 3.523 0 4.011-.008 6.156-.117 1.914-.098 4.832-.329 6.941-.551.942-.102 1.266-.11 1.758-.047M51.22 56.637c2.148.175 4.027 1.261 5.172 2.984 1.12 1.7 1.46 3.934 1.007 6.629-.464 2.773-1.714 5.18-4.195 8.086l-.598.695-.64.762c-.18.219-.375.457-.438.527-.058.075-.242.305-.402.516-1.18 1.543-1.676 2.727-1.676 4.027 0 .63.114 1.075.356 1.45.543.812 1.476 1.167 2.945 1.117.559-.02.79-.059 1.195-.192.727-.246 1.153-.543 2.094-1.468.875-.86 1.129-1.067 1.547-1.262a1.8 1.8 0 0 1 1.133-.145c.414.094.843.395 1.152.801.36.48.621 1.297.715 2.246.043.461.016 1.89-.047 2.488-.184 1.735-.574 3.172-1.195 4.418-.852 1.7-2.012 2.907-3.528 3.672a8 8 0 0 1-3.078.817c-2.12.132-3.894-.172-5.398-.922-1.828-.918-3.11-2.617-3.64-4.82-.329-1.368-.391-3.165-.165-4.805.211-1.547.559-2.797 1.574-5.68.883-2.496 1.254-3.805 1.504-5.316.196-1.168.246-1.89.227-3.106-.016-1.21-.106-1.719-.383-2.32-.457-.969-1.305-1.383-3.055-1.492-.945-.059-2.047.207-2.918.703-2.261 1.289-4.047 4.246-4.867 8.074a16.6 16.6 0 0 0-.387 3.926c.012.773.024.95.09 1.316.11.621.344 1.446.563 1.973.422 1.012 1.137 2.144 2.05 3.242.536.645.938 1.07 2.243 2.402.89.907 1.156 1.196 1.504 1.63.511.628.765 1.066.922 1.578.074.238.082.308.082.73.004.394-.008.516-.067.754-.344 1.445-1.68 2.098-4.797 2.336-1.547.117-6.054.148-7.68.05-1.554-.093-2.538-.261-3.257-.558-.399-.168-.602-.3-.895-.602-.422-.425-.566-.742-.656-1.453a2.4 2.4 0 0 1-.016-.699c.082-.844.356-1.633.934-2.71.25-.47.387-.708 1.32-2.27.75-1.258.89-1.508 1.262-2.204.992-1.87 1.54-3.546 1.684-5.164.039-.433.039-1.406 0-1.894a20 20 0 0 0-.688-3.715c-.644-2.207-1.308-3.883-2.95-7.426-.097-.218-.245-.535-.32-.703-.078-.172-.218-.472-.312-.676-.832-1.804-1.293-3.101-1.445-4.062-.063-.426-.043-1.254.043-1.633.105-.457.265-.809.543-1.203.386-.543 1.09-.957 1.804-1.07.332-.051 1.332-.016 2.188.074 1.094.117 1.86.11 3.226-.031.864-.09 1.168-.11 1.711-.11.75-.004.868.016 1.286.223.207.098.293.168.523.402.219.219.3.324.387.5.218.453.297.856.293 1.508-.004.461-.032.742-.153 1.633-.129.91-.152 1.203-.14 1.652.011.461.054.59.226.703.18.125.633.07 1.059-.117.465-.207 1.219-.746 2.129-1.527.172-.145.523-.45.789-.676.262-.223.539-.46.613-.527.18-.164 1.02-.852 1.442-1.18 1.445-1.129 2.91-1.95 4.328-2.418a9.7 9.7 0 0 1 2.351-.496c.25-.027 1.43-.016 1.77.008m-29.875 12.87c.281.075.476.161.695.31.68.453 1.066 1.113 1.191 2.03.04.301.043.41.012.716-.07.816-.27 1.406-.687 2.046-.176.27-.637.715-.875.848-.395.223-.54.258-.98.262-.352 0-.423-.008-.63-.078-.445-.153-.836-.446-1.152-.871-.402-.543-.57-1.094-.566-1.848 0-.637.125-1.195.406-1.805.258-.562.746-1.133 1.195-1.387.414-.234.988-.324 1.39-.222m-8.824 2.028c1.554.375 2.804 2.02 2.984 3.926.055.598-.027 1.102-.262 1.594-.113.242-.168.316-.414.558-.242.246-.316.297-.558.414a2.2 2.2 0 0 1-.961.246c-1.336.075-2.625-.816-3.364-2.324-.332-.687-.437-1.101-.457-1.855-.011-.434-.008-.551.043-.79.11-.527.281-.859.633-1.214a1.6 1.6 0 0 1 .512-.375c.59-.29 1.148-.344 1.844-.18m8.242 5.664a4.34 4.34 0 0 1 2.347 1.426c.66.758 1.114 1.863 1.29 3.145.062.476.062 1.515 0 2.093-.176 1.535-.727 3.453-1.376 4.805a3.62 3.62 0 0 1-2.062 1.855c-.465.165-.672.188-1.36.172-1.074-.027-2.456-.257-3.73-.62-1.305-.376-2.504-.958-3.34-1.614-.254-.2-.836-.781-1.047-1.04a5 5 0 0 1-.988-2.038c-.082-.387-.09-1.242-.016-1.637.274-1.398 1.086-2.394 2.329-2.84.71-.254 1.41-.273 2.246-.058.48.125.64.129.847.027.297-.152.375-.305.57-1.09a3.55 3.55 0 0 1 .7-1.398c.527-.653 1.226-1.059 2.14-1.235.293-.058 1.118-.03 1.45.047M6.734 78.74c1.254.28 2.239 1.085 2.563 2.093.41 1.273-.203 2.398-1.5 2.758-.363.097-1.172.113-1.613.027-1.032-.199-1.77-.633-2.317-1.36-.39-.515-.547-1.01-.52-1.628.051-1.008.716-1.711 1.813-1.922.297-.055 1.274-.039 1.574.031m0 0" style="stroke:none;fill-rule:nonzero;fill:#ffffff;fill-opacity:1"/></svg>