<svg xmlns="http://www.w3.org/2000/svg" width="1052" height="248" viewBox="0 0 1052 248"><path fill="#fff" d="M48 6.518C-4.52 17.655 4.412 87.986 24.812 123c4.347 7.461 9.232 14.749 15.227 20.999 12.17 12.688 33.211 18.259 43.172 32.005 8.15 11.245 4.078 23.402 6.597 35.996 4.449 22.241 26.408 35.13 48.192 30.482 14.686-3.133 27.975-16.313 29.816-31.482 1.435-11.827-1.996-23.597 5.741-34 10.17-13.675 29.91-19.021 42.158-31.285 21.098-21.128 30.38-49.623 32.375-78.715 1.475-21.526-3.314-42.418-23.09-54.532C198.612-3.698 161.984 10.435 153.209 40c-1.672 5.634-2.665 11.45-2.67 17.36V98c-.923 11.252-11.974 21.957-23.539 20.8-14.341-1.435-18.89-12.278-20.332-24.061l-.164-37.545c-.05-5.584-.494-11.09-1.932-16.194C97.781 16.904 72.812 1.256 48 6.518M365 124v1c-26.002 6.727-54.107 10.519-75 29.174-28.446 25.399-17.789 69.392 16 84.514 9.23 4.13 19.85 5.051 30.559 5.04h122.247c7.59-.277 14.762-.103 22.194-.902 34.84-3.743 44.753-51.751 16-70.277-11.724-7.555-25.685-6.549-39-6.549h-65l41.34-15.935c4.024-1.55 7.616-3.387 10.656-5.279 11.878-10.164 12.435-30.169-.036-40.257C428.472 95.652 410.014 89.939 393 83h64c12.458 0 25.497 1.43 37-4.377 26.605-13.43 26.377-53.213 1-67.579-5.628-3.186-11.685-4.628-18.418-5.275H344.2c-6.372.194-13.878-.123-20.2.32C287.259 8.666 257.33 53.594 281.351 86c19.398 26.171 54.344 30.942 83.649 38m260 2c19.35 22.361 35.652 47.645 53.793 71 9.094 11.708 18.991 25.931 28.211 35.816 22.75 20.231 60.265 10.016 69.636-18.816 2.397-7.374 2.784-15.486 2.743-23.633V63.192c.224-10.85-.01-21.79-3.837-31.192-11.435-28.09-50.759-35.342-71.362-12.96C692.58 31.645 693 47.011 693 63v61l-21.373-27c-14.722-19.628-29.28-39.372-44-59C617.554 24.57 607.304 8.405 589 6.184c-21.764-2.64-42.912 8.897-48.841 30.816-1.294 4.783-1.713 9.716-1.834 15.034V189.33c-.191 12.418.624 25.135 6.779 34.671 20.22 31.324 74.288 20.88 79.31-17.672M914 6.468C896.614 9.725 883.04 25.634 881.174 43c-1.112 10.34 1.715 20.868-4.812 30-9.643 13.489-28.625 19.076-40.323 31.015-29.05 29.648-53.178 105.415-9.039 132.753 26.214 16.235 62.949 2.755 71.961-26.768 3.04-9.962 2.353-20.716 2.424-31.472l.164-24.634c.882-12.578 9.328-24.603 23.451-23.364 16.375 1.436 20.025 14.408 20.796 27.928v34.026c.15 6.986.918 13.917 3.294 20.516 8.329 23.136 32.773 33.539 55.91 29.674 24.04-4.016 38-26.788 38-49.674 0-32.298-8.49-63.844-31.09-87.999-11.76-12.573-31.218-18.187-41.121-32.005-7.46-10.408-2.998-24.817-5.804-34.996C959.923 14.65 936.592 2.234 914 6.468Z"/></svg>