<svg xmlns="http://www.w3.org/2000/svg" width="405.000000pt" height="389.000000pt" version="1.0" viewBox="0 0 405.000000 389.000000"><path d="M3 4.5c0 .2 20.5 35.7 45.6 78.7 25.2 43 45.9 79 46.1 79.9.3.9-4.8 10.6-11.5 22-11.5 19.6-62.8 107.5-73.9 126.7-3 5-5.6 9.9-5.9 10.7-.5 1.3 22.2 1.5 199.1 1.5 189.8 0 199.7-.1 199.1-1.8-.4-.9-8.1-14.3-17-29.7-68.6-117.7-74.9-128.8-73.8-130.6.6-1 9.3-15.9 19.3-33.1 10-17.2 23.7-40.8 30.4-52.3C393.4 20 402 5.1 402 4.6c0-.3-89.8-.6-199.5-.6S3 4.2 3 4.5zm51 32.6c24.4 43.3 59.1 104.6 64.4 113.8l6.1 10.6 36.8.3c30.7.2 36.7 0 36.7-1.2 0-.7-6.5-12.8-14.4-26.7C133 44.5 122 24.6 122.9 23.7c1.5-1.5 2.4-.4 8.3 10 3 5.4 14.7 26 25.8 45.8 41.3 73.1 44.7 79 45.6 78.9.7-.1 17.9-29.4 23.7-40.4 1.8-3.5 50.7-90 52.4-92.8L280 23h40.5c27 0 40.6.3 41 1 .4.6.1 1.7-.5 2.5-1.1 1.3-7.4 1.5-40.5 1.5h-39.3l-19.3 34.2c-10.6 18.9-27.3 48.5-37.1 65.8-9.8 17.3-17.8 32-17.8 32.7 0 1 7.7 1.3 38.6 1.3 36.2 0 38.5.1 38.2 1.7-.3 1.7-3.1 1.8-38.6 2.1-22.7.1-38.2.6-38.2 1.2 0 .7 18.5 33.9 41.5 74.5 3.4 6 11.5 20.4 18 32 6.5 11.5 12.7 22.2 13.7 23.7l1.9 2.8h39.5c21.7 0 39.4.2 39.4.4s.3 1.1.6 2c.6 1.4-3.4 1.6-40.7 1.6h-41.4l-21-37.3c-43.6-77.5-55.5-98.2-56.3-97.7-.6.5-13.3 22.7-59.1 103.7C130.6 295 125 304 123.8 304c-1 0-1.8-.3-1.8-.6s5.2-9.9 11.7-21.2c6.4-11.4 19.4-34.4 28.8-51.2 32.2-57.1 35.5-63 35.5-64 0-.7-12.5-1-36.9-1h-36.9l-18.4 32.7c-10.2 18.1-27.7 49.1-38.9 69C52.2 293.8 46 304 44.8 304c-1 0-1.8-.3-1.8-.6 0-.7 5.1-9.9 32.5-58.4 11.6-20.6 26.7-47.3 33.5-59.3l12.3-21.8-2.3-4.2c-2.3-4.2-32.3-57.4-60.9-108C49.8 37 43.2 24.5 43.6 23.9c1.3-2.1 3.2.2 10.4 13.2zM2.5 349.2c-.3.8-.4 9.5-.3 19.3l.3 18H5c2.4 0 2.5-.2 3-9l.5-9h19l.3 9.3c.3 9 .4 9.3 2.5 9 2.2-.3 2.2-.5 2.2-19.3 0-18.3-.1-19-2-19-1.8 0-2.1.8-2.5 7.5l-.5 7.5-9.7.3-9.7.3-.3-7.8c-.3-7.2-.5-7.8-2.6-8.1-1.2-.2-2.4.3-2.7 1zM89.3 349.2c-.6.7-1.9 4-3.1 7.3-1.1 3.3-3.9 11.1-6.1 17.4-2.3 6.2-4.1 11.8-4.1 12.2 0 .5 1.1.9 2.4.9 2.2 0 2.8-1.3 7.7-16 3-8.8 5.9-16 6.4-16 .6 0 3.4 7.2 6.3 16 5 14.8 5.6 16 7.8 16 1.3 0 2.4-.4 2.4-.9 0-1.7-12.1-35.5-13.2-36.8-1.3-1.7-5.2-1.7-6.5-.1zM152.5 349.2c-.3.8-.4 9.5-.3 19.3.3 17.7.3 18 2.5 18.3 2.2.3 2.2.2 2.5-15l.3-15.3 9.6 15c8.8 13.7 9.9 15 12.8 15.3l3.1.3-.2-19.3c-.3-18.5-.4-19.3-2.3-19.3s-2 .8-2.5 15l-.5 15-9.6-15c-8-12.6-10-15.1-12.2-15.3-1.6-.2-2.9.2-3.2 1zM226.5 349.3c-.3.7-.4 9.4-.3 19.2l.3 18h12c10.5 0 12-.2 12.3-1.7.3-1.5-.8-1.8-9.5-2l-9.8-.3-.3-6.7-.3-6.7 9.8-.3c9-.3 9.8-.5 9.8-2.3 0-1.8-.8-2-9.7-2.3l-9.8-.3V353h9.6c9.3 0 9.5-.1 9.2-2.3-.3-2.1-.7-2.2-11.6-2.5-8.6-.2-11.4 0-11.7 1.1zM293.6 349.5c-1.1 3.1.4 28.6 2 31.6 2.9 5.8 13.3 8.1 20.1 4.6 5.3-2.8 6.4-6.7 6.1-22.9-.3-13.5-.4-14.3-2.3-14.3s-2 .8-2.5 15.3c-.5 14.7-.6 15.5-2.9 17.3-2.3 1.9-7.4 2.5-10.5 1.3-3.3-1.2-4.1-4.8-4.6-19.4-.5-13.8-.6-14.5-2.6-14.8-1.3-.2-2.4.4-2.8 1.3zM365.7 348.7c-.4.3-.7 9.1-.7 19.5v18.9l2.3-.3c2.2-.3 2.2-.4 1.9-14.6-.1-7.8.1-14.2.6-14.2.4 0 3.3 6.4 6.3 14.2 4.4 11.7 5.8 14.4 7.5 14.6 1.3.2 2.4-.4 2.9-1.5.3-1 2.7-7.2 5.2-13.8 2.5-6.6 5-12.4 5.4-12.9.5-.6.9 5.4.9 13.8 0 14.7 0 14.7 2.3 14.4 2.2-.3 2.2-.4 2.2-19.3v-19l-2.6-.3c-1.4-.2-3 .3-3.6 1-.6.7-3.4 7.7-6.4 15.5-2.9 7.9-5.7 13.9-6.1 13.5-.4-.4-3-6.8-5.9-14.2-2.8-7.4-5.6-14.1-6.2-14.8-1-1.3-4.9-1.7-6-.5z"/></svg>