<svg xmlns="http://www.w3.org/2000/svg" xml:space="preserve" width="800" height="368.59601" viewBox="0 0 799.99996 368.59601"><defs><clipPath id="a" clipPathUnits="userSpaceOnUse"><path d="M0 0h800v368.596H0Z"/></clipPath></defs><g clip-path="url(#a)" style="fill:#fff" transform="matrix(1 0 0 -1 0 368.596)"><g style="fill:#fff"><path d="M0 0s-31.7-26.39-72.94-16.94v34.52c2.15.5 41.66 9.16 72.99-17.54zm24.07-.03c12.74 14.85 30.4 43.31 25.26 83.16H32.6s8.46-35.92-20.06-71.23c-41.65 33.5-83.28 23.18-85.48 22.6v48.63h-17.14V-83.14h17.14v48.22c2.31-.41 49.27-8.07 84.98 23.04 1.02-1.01 27.2-27.48 20.96-71.26h17.24C55.11-29.48 25.08-.97 24.07-.03" style="fill:#fff;fill-opacity:1;fill-rule:nonzero;stroke:none" transform="translate(90.08 189.196)"/></g><g style="fill:#fff"><path d="M0 0v-16.5h-437.13V0h123.76v198.44c-22.85-26.24-66.57-24.83-66.57-24.83v19.18c7.62-.28 44.57 1.98 66.57 32.72 22 30.75 17.2 62.28 17.2 62.28h22.29V0Z" style="fill:#fff;fill-opacity:1;fill-rule:nonzero;stroke:none" transform="translate(800 80.806)"/></g><path d="M296.307 80.811H0V64.31h296.307z" style="fill:#fff;fill-opacity:1;fill-rule:nonzero;stroke:none"/><g style="fill:#fff"><path d="M0 0v-17.7s-17.95 8.04-37.41-2.4c-19.04-10.21-23.37-28.66-24.8-40.01v-65.55H-78.5V2.54h16.29V-20C-36.34 10.48 0 0 0 0" style="fill:#fff;fill-opacity:1;fill-rule:nonzero;stroke:none" transform="translate(798.82 228.966)"/></g><g style="fill:#fff"><path d="M0 0c4.38 21.58 23.44 37.81 46.31 37.81S88.24 21.58 92.62 0Zm46.31 54.5c-35.28 0-63.89-28.61-63.89-63.89s28.61-63.89 63.89-63.89c26.62 0 49.43 16.28 59.03 39.43H86.77c-8.27-13.69-23.3-22.84-40.46-22.84-24.14 0-44.04 18.09-46.9 41.45h110.51c.18 1.93.28 3.88.28 5.85 0 35.28-28.61 63.89-63.89 63.89" style="fill:#fff;fill-opacity:1;fill-rule:nonzero;stroke:none" transform="translate(181.39 177.986)"/></g><g style="fill:#fff"><path d="M0 0c4.38 21.58 23.45 37.81 46.31 37.81 22.87 0 41.94-16.23 46.32-37.81Zm46.31 54.5c-35.28 0-63.88-28.61-63.88-63.89s28.6-63.89 63.88-63.89c26.62 0 49.43 16.28 59.03 39.43H86.78c-8.28-13.69-23.3-22.84-40.47-22.84-24.13 0-44.04 18.09-46.9 41.45h110.51c.18 1.93.28 3.88.28 5.85 0 35.28-28.6 63.89-63.89 63.89" style="fill:#fff;fill-opacity:1;fill-rule:nonzero;stroke:none" transform="translate(578.09 177.986)"/></g><g style="fill:#fff"><path d="M0 0c-25.75 0-46.62 20.87-46.62 46.62 0 25.75 20.87 46.62 46.62 46.62 25.74 0 46.62-20.87 46.62-46.62C46.62 20.87 25.74 0 0 0m0 109.93c-18.46 0-35.07-7.9-46.62-20.5v20.2h-16.64v-231.58h16.64V3.8C-35.06-8.79-18.46-16.69 0-16.69c34.96 0 63.31 28.35 63.31 63.31 0 34.97-28.35 63.31-63.31 63.31" style="fill:#fff;fill-opacity:1;fill-rule:nonzero;stroke:none" transform="translate(386.01 121.946)"/></g></g></svg>