<svg xmlns="http://www.w3.org/2000/svg" viewBox="52.5 -0.56 45 24.36"><g fill="#fff"><path d="M79.313.04c-.102.163-1.524 2.386-3.426 5.358-.453.704-.989 1.543-1.2 1.868-.203.324-.574.898-.816 1.277-.242.383-.746 1.164-1.117 1.746l-1.652 2.582c-.25.387-.504.785-.567.879a1 1 0 0 1-.12.176c-.005 0-.009-1.492-.009-3.313V7.301l-.18-.008c-.234-.016-16.472-.016-16.66-.004l-.144.012-.246.261c-.25.266-.676.711-1.551 1.625-1.164 1.215-1.352 1.41-1.352 1.426 0 .008 2.957.012 6.57.008 3.618-.004 6.65 0 6.739.008l.164.012v10.488h7.48l.176-.274c.16-.253.848-1.328 1.422-2.218.137-.219.469-.73.73-1.145l1.098-1.715c.34-.53.907-1.418 1.258-1.968.356-.551.8-1.25.996-1.555l.512-.797c.086-.129.305-.477.492-.766.184-.289.48-.754.656-1.027.438-.687 1.024-1.602 1.329-2.074l.25-.39.007 2.538.004 2.54.68.011c.375.008 4.191.012 8.48.008l7.801-.008.2-.203c.203-.215.722-.758 1.495-1.566.243-.254.567-.594.723-.75.367-.38.762-.801.762-.813 0-.008-3.02-.008-6.707-.004-3.688 0-6.723 0-6.742-.004-.036-.008-.036-.023-.032-4.437.004-2.438 0-4.45-.004-4.473L86.805 0h-7.47zM0 40.48v8.95h6.809v-2.27c0-1.246.007-2.273.015-2.281.004-.012.067-.07.137-.133.066-.062.191-.18.273-.262.153-.144 1-.957 1.582-1.507.172-.165.485-.461.692-.665.207-.203.387-.367.398-.367.028 0 .047.035 1.223 1.832l1.379 2.11c.324.5.965 1.484 1.426 2.191.464.707.859 1.3.878 1.317.032.03.708.035 13.641.035H42.06v-4.578H27.91v-2.2h11.016l.011-.14c.016-.157.012-4.375-.003-4.414-.004-.016-1.125-.02-5.516-.02H27.91l.008-1.976 6.656-.008c3.664-.008 6.676-.02 6.696-.024.03-.015.042-.004.066.047.016.035.137.235.262.445a1094 1094 0 0 1 3.16 5.145c.113.18.258.418.324.527.102.164.559.91 1.215 1.973.086.145.223.363.297.492l.14.227v4.504h6.844v-4.52l.117-.183c.067-.106.45-.72.86-1.368.402-.648.87-1.394 1.03-1.652a955 955 0 0 0 2.384-3.809c.27-.43.582-.925.695-1.109s.36-.57.543-.867c.184-.293.398-.637.477-.758.078-.125.175-.285.218-.355.051-.094.078-.125.09-.106.02.024.207.442.5 1.106l.828 1.875c.36.812 1.028 2.316 1.485 3.351l1.343 3.031c.282.633.59 1.329.684 1.547l.691 1.563c.286.644.625 1.41.75 1.699.133.29.243.531.254.54.012.007 1.813.015 4 .015h3.985l.133-.313c.07-.168.289-.68.48-1.14.195-.461.516-1.22.71-1.684.2-.461.497-1.168.669-1.566.168-.399.383-.91.476-1.137.098-.227.301-.707.454-1.07.156-.368.445-1.043.64-1.512l1.25-2.95c.301-.703.563-1.328.59-1.394l.453-1.074c.223-.524.457-1.07.516-1.215.426-1 .668-1.578.707-1.672.023-.058.05-.113.058-.125.012-.008.02 3.59.02 8.418v8.434h6.824l.008-13.328 3.559-.004c1.953-.004 3.851 0 4.214.004l.664.011V49.43h6.825l.004-6.664.007-6.664 1.926-.004c1.063-.004 2.125 0 2.363.004l.43.011v3.07c0 1.829.008 3.258.02 3.54.054 1.457.297 2.554.758 3.472a5.6 5.6 0 0 0 1.925 2.13c1.047.69 2.426 1.16 4.196 1.425 2.023.305 5.007.324 7.18.05 2.113-.265 3.753-.835 4.898-1.702.355-.27.75-.645 1.011-.965l.145-.176.004 1.234.004 1.239h6.8l.016-.621c.008-.344.012-1.696.008-3l-.008-2.38 4.082-.011c4.11-.008 4.356-.012 5.176-.078.953-.074 1.645-.223 2.246-.485 1.086-.464 1.856-1.164 2.367-2.144.414-.797.633-1.707.68-2.824.059-1.41-.191-2.684-.719-3.66a4.47 4.47 0 0 0-1.789-1.817c-.976-.547-2.078-.781-4.062-.86-.297-.01-3.977-.015-10.418-.015h-9.961l-.004 4.98c-.008 5.356-.004 5.075-.094 5.743-.129.93-.469 1.746-.93 2.222-.648.668-1.656.98-3.062.938-1.434-.043-2.352-.461-2.934-1.332-.3-.453-.511-1.07-.62-1.816-.106-.73-.106-.872-.106-6.047v-4.688H74.918l-.078.18c-.04.101-.403.957-.805 1.902-.402.942-.914 2.149-1.137 2.68-.226.531-.59 1.383-.804 1.894-.48 1.133-.535 1.262-.676 1.645-.32.875-.52 1.66-.711 2.824-.023.16-.05.305-.055.328-.007.035-.02.04-.086.04-.043 0-.086-.012-.093-.024a.7.7 0 0 1-.04-.172 15.7 15.7 0 0 0-1.128-4.012 378 378 0 0 0-1.086-2.441c-.082-.184-.215-.484-.301-.672l-.66-1.484c-.332-.735-.692-1.547-.801-1.797-.031-.07-.133-.301-.227-.508l-.168-.375-11.976-.008-.14.254a35 35 0 0 1-.313.54c-.09.16-.27.472-.403.698l-.46.805c-.125.215-.473.824-.778 1.348-.305.527-.695 1.21-.875 1.52-.18.308-.383.667-.457.796-.168.293-.328.563-.351.598-.028.043.058.183-.88-1.457-.214-.371-.456-.801-.542-.946-.086-.148-.344-.605-.578-1.011-.438-.766-.739-1.293-1.305-2.278-.18-.316-.363-.64-.41-.718l-.082-.149h-32.79l-.273.262c-.148.144-.703.683-1.226 1.195-.528.512-1.102 1.07-1.282 1.242-.175.172-.535.516-.793.766-.257.254-.695.676-.976.95-.277.269-.625.609-.774.75a76 76 0 0 1-1.574 1.515c-.008.004-.015-1.356-.015-3.336v-3.344H0zm21.078 2.27-.004 3.191-.195-.28-3.672-5.368c-.105-.152-.445-.656-.762-1.117-.316-.461-.64-.934-.722-1.051l-.141-.215.07-.055c.04-.03.137-.113.215-.18.504-.44.77-.671.828-.714.035-.031.145-.129.246-.215.235-.207.836-.726 1.332-1.156.215-.18.727-.621 1.141-.98 1.254-1.087 1.496-1.294 1.582-1.36l.078-.066.004 3.187c.004 1.754.004 4.625 0 6.379m119.43-7.195c.379.023.578.047.851.101.454.09.735.219.961.434.121.11.157.156.223.297.137.277.156.386.156.832.004.363 0 .394-.047.566-.093.371-.214.586-.457.828-.14.14-.191.184-.32.246a2 2 0 0 1-.621.176c-.184.028-.469.031-3.004.035l-2.8.008v-1.77l-.005-1.769h2.383c1.344 0 2.516.008 2.68.016m0 0"/></g></svg>