<svg xmlns="http://www.w3.org/2000/svg" width="445" height="337"><path fill="#fff" d="M3.906-.027H47.38l.242.242-.242 6.105-1.953 25.887-1.711 21.246-.977 12.945-.246 1.954-.488 8.304.976-1.953 2.688-6.351 2.687-5.372 2.688-6.351 8.789-20.27 3.664-8.546 4.152-9.524 1.711.242 8.79 2.93 10.746 3.664 5.863 2.2 5.125 1.706 9.281 3.176 2.2.734v.73l-4.153 4.153-1.711 1.953-3.66 3.664-1.711 1.954-2.93 2.93-1.71 1.956-2.688 2.684-2.684 3.422-2.933 2.93-1.707 1.953-4.641 4.64-1.953 1.711L67.89 78.61l-1.707 1.954-3.176 3.175-1.711 1.953-3.172 3.176-.246.977 2.687 2.93 3.418 3.417 1.711 1.954 4.395 4.398 1.71 1.953 2.442 2.442 1.711 1.953 5.371 5.375 1.711 1.953 2.195 2.199 1.711 1.953 1.954 1.953 2.199 2.688 2.195 2.441L95 129.406l3.664 3.907 2.2 2.199V136h.488l1.707 1.953 3.421 3.418 1.707 1.957 3.418 3.418 1.957 2.442v.488l-4.64.488-35.656 3.176-4.641.242-.977-1.219-3.175-5.863-3.176-5.617-3.172-5.86-3.176-5.617-3.664-6.594-3.906-7.082-3.176-5.617-2.2-4.152-2.44-4.152v-.489h-.489l.488 1.711.247 7.813.242 1.957.976 17.828 1.223 18.805.73 11.964-.242.243H.246L0 160.91l1.223-12.946 2.441-25.152.977-9.282 1.71-18.07 1.22-13.188.734-6.84L9.77 61.028l.976-10.257.488-4.399.243-3.66.246-1.223-.977-5.129-1.953-9.77-3.91-20.023L3.664.215zM394.898 175.32h.735l2.93 5.13 3.664 6.593 2.93 5.129 6.105 10.988 2.199 3.906 3.176 5.618 3.418 6.105 2.441 4.398 1.953 3.418-.242 1.22-3.176 4.398-3.176 4.152-3.417 4.637-5.13 6.84-3.417 4.64-2.934 3.906-3.418 4.641-3.906 5.129-1.711 1.953-2.442 2.93-.976.976-1.953-.488-23.692-2.684-12.941-.976-12.7-1.469-3.417-.488v42.25l-.246 5.375v4.64l-.243.243-3.664-.242-30.773-3.176-4.64-.489-.977-.246.246-2.93 3.176-19.78 3.906-23.446.976-5.371-.242-2.445-.734-6.102-3.906-31.75-2.446-20.027-.242-2.196 17.34-4.398 26.375-6.594 8.059-2.195 17.828-4.398 13.922-3.418zm-16.605 32.723-22.711 4.887-22.715 5.129-.488.73 1.465 16.61.246 1.464 22.71 1.707 14.165.977 3.422.246h4.394l3.176-7.082 2.93-6.594 1.222-2.93-.246-1.222-1.71-3.418-11.72 2.441-16.851 3.664-7.57 1.707-.246.977.734 3.91-3.664-.246-.977-.242-1.222-7.082 2.199-.246 29.305-6.348 8.058-1.71-.73-2.2-2.2-4.883zM108.676 179.715h.976l-.488 5.863-2.441 23.93-.977 8.793-1.223.246-58.609-3.91h-1.71l-.243 3.422-.246 9.035v14.898l8.305-.98 23.445-2.684 25.64-2.93.977.243v32.726l-.242.242h-3.176l-23.934-.73-27.84-1.469-3.175-.242v2.687l.976 20.512.489 12.7.246 3.91.488 11.476v3.664l-.488.242-20.028 1.711-21.98 1.711-1.219-.246 1.465-10.012 4.152-26.863 2.442-15.875 1.465-8.793.488-4.152-.73-7.57-1.711-17.583-2.2-21.98-1.218-12.7-.977-10.5v-3.417h13.43l5.863.242 23.2.488 7.081.246h15.63l16.609-2.687 12.94-2.2zM372.676 6.078h2.93l1.222.73.242.489v2.441l-1.953 5.864-9.77 26.375-5.124 13.675-3.91 10.012-2.442 6.106-10.988 29.308-1.223 3.418-1.223 4.64-.488 1.466v1.464l.98 1.954 1.22.976h1.71l2.196-1.465.734-.976 3.176-8.547 3.664-9.77 4.148-10.988 2.688-7.082 3.418-9.04 1.957-4.636 7.324-19.539 3.418-9.281 3.91-10.5 3.172-8.793.734-1.465 3.176.488.977.977v2.687l-1.711 4.883-4.152 11.48-2.684 7.083-3.176 8.547-3.664 9.77-2.441 6.347-1.465 3.422-2.688 7.082-7.328 19.535-1.465 3.664-1.464 4.152-1.465 3.418 1.71-.976 4.395-3.418 3.176-2.442 3.418-2.687 3.906-3.176 2.688-2.2 3.664-3.171 2.93-2.688 1.953-1.71 3.91-3.665 3.418-3.66 2.199-2.687 2.441-3.418 1.219-2.688.246-.734v-2.442l-.734-.73-2.196-.734-3.175-.489-.735-.73.735-1.223 1.222-.976 3.66-1.711 4.641-1.707 8.305-2.446 9.523-2.195 5.13-.976 3.663-.489h6.348l1.953.977.488.73-1.953 1.711-3.418 2.2-4.64 3.417-2.688 2.442-2.684 2.199-2.441 2.195-2.445 1.957-6.106 6.106-1.707 1.953-2.687 2.684-1.711 1.957-2.442 2.683-1.707 2.688-.734 2.441v3.418l3.176 20.516 2.195 14.898 1.223 7.57.734 5.13 1.465 5.37 1.953 3.907 1.465 1.957.976 1.218 4.153 2.93 1.465 1.711v1.465l-1.953 1.465-3.176.976-5.371.735-6.84.488-8.547.246h-12.945l-4.395-.246-2.93-.734-2.441-1.22-.734-.976.246-.976.976-1.223 2.93-2.2 2.441-2.194 2.2-3.422 1.218-2.93.489-2.195v-4.399l-2.442-14.164-2.683-15.14-.98-2.2-1.708-1.465-1.71-.73h-2.196l-2.2.977-3.906 2.93-5.129 3.906-4.64 3.417-3.176 2.446-2.2 1.707-2.44 1.953-4.395 4.398-2.441 3.176-2.446 4.149-1.707 4.152-1.222 4.152-.243 1.223v4.637l1.22 2.933 2.198 2.93.73 1.71-.241 1.466-1.465 1.707-2.442.976-3.664.735-4.394.488-12.946.734H298.68l-8.305-.488-4.152-.734-2.688-.977-1.219-1.223-.488-1.218.73-1.223 6.594-3.664 3.91-2.684 3.418-2.933 2.2-2.195 3.418-4.641 2.199-3.664 2.683-5.13 2.688-7.081 4.395-12.211 2.445-6.836 3.172-8.793 3.422-9.523 2.683-7.329 4.399-12.21 3.171-8.059 2.934-8.305 3.906-10.746.735-3.418v-5.129l-.98-1.953-1.708-1.465-2.687-.976-1.465-.246h-4.64l-2.93.246h-3.665l-.242-1.223 1.219-1.219 2.441-1.953 5.13-2.933 4.64-2.196 9.035-4.152 6.594-2.441 8.793-2.934 7.57-2.195zM272.059 32.941h1.464l.489 1.22 3.418 18.804 4.398 22.715 2.195 11.722 2.688 14.407.246.976v2.934l-3.176 7.082-4.394 9.523-2.688 5.86-2.199 4.886-4.64 10.012-2.93 6.594-1.711 3.664-2.93 6.348-.976.488-25.399-1.953-25.152-1.953-4.399-.489-.488-1.465-2.93-12.699-4.64-20.27-3.907-17.097-1.953-8.79v-.487l2.442.242 14.652 2.687 13.188 2.442 3.418.734.246.242.73 19.293.246 12.946 5.13.73-.247-4.394-.488-21.247 2.199.243 2.441.734.246.488.73 21.004v3.66l7.571.735h1.711l.242-1.465 4.153-11.723 3.422-9.77 2.683-7.57-.242-2.199-.977-7.324-2.445-16.117-1.953-13.192v-.976l-3.906.488-11.965.734h-1.469v9.524l-.488.246-3.418-1.223v-4.394l.488-7.328.488-.243 11.48-.976 8.06-.488-.489-2.934v-1.953l-24.668 1.953-1.707 17.586-.488.242-18.563-3.664-7.324-1.465-.734-.242.488-1.465 2.688-4.887 2.441-4.394 1.953-4.152 2.442-4.641 3.91-7.813 2.441-4.64.73-1.465.489-.488 26.133-1.957 23.687-1.707zM131.39 165.305h9.766l18.074.246 5.618.246.488.976-2.441 23.93-1.465 14.41-1.223 11.969-2.2 21.977-2.44 23.933-.977 9.281-.246 1.223 2.199-.246 17.828-3.906 8.793-1.465 6.836-1.223 12.457-2.687 6.836-1.465h.977l-.243 3.176-4.64 27.597-.489 2.442-.246.242-60.562.488h-11.723l-.488-26.129-.488-94.511-.246-10.012zM273.281 183.133h3.66l.735.246 3.176.242.976.488-.488 1.957.242 1.707.246.489v2.933l-.976 6.348-1.223 9.035-.73 2.2-.493.488h-1.953l-1.465-.246h-4.152l-3.172.246h-5.617l-.246 3.664.734 11.722.242.243.246 1.71.243 13.43.488 2.2v6.35l-.488 7.571-.73 8.79v4.886l.241.242-.242 2.934.242.73.246 4.153.243 11.964 2.199.489 1.953.488h1.71l3.173-.73h1.957l2.441 1.464.73.977-.976 10.012-.73 2.687-.489 4.64-1.71.49-14.653.241h-2.93l-1.953-.242-5.375-.246-.242-1.465-1.223.246-7.082.242H228.59l-2.2.489-.488-.489-3.664-.242-.976-.488-.246-.977.734-2.687v-2.688l.734-3.418.489-10.746 1.218-2.93.977-.245 6.105 2.445 1.465.488 5.13.977.245-7.082.977-16.852v-25.156l.242-4.64.488-1.466.489-5.37.98-11.235-3.664-.977-1.953-.976h-3.91l-2.442.242-.488-.488v-2.93l1.711-.242 2.93.242 1.71.977 3.419.488 1.953.246 1.222.73.243-4.148.246-1.71-5.13-.735-.976-.73-1.469.241-3.171-.73-2.442-.977h-6.351l-.243-.246-.492-8.793-.976-10.254v-.976l15.386-.735h11.723l12.945-.246h9.766zM131.39 51.012h49.333v10.504l-1.47.73-3.171 1.223-2.687 1.465-2.93 2.199L169 69.328l-1.465 3.418-.734 4.399v33.945l.734 4.152 1.465 3.664 2.195 2.93 2.688 2.2-.488-1.958-.977-3.172-.488-4.398V81.539l.488-3.664 1.219-3.172 1.71-2.933 2.688-2.684 3.176-1.953 2.684-.735 1.953-.488v-6.84l.246-.242h2.441l.246 1.219-.246 8.793-2.2.734-3.417 1.465-2.441 1.707-1.465 1.223-2.2 3.176-1.218 2.687-.977 4.883v33.457l.73 4.883.489 1.71 3.176.977 1.71.488.243 9.77-.242.488H131.39l-.246-1.222v-8.79l.488-.488 3.906-.976 3.422-1.711 2.195-1.953 1.469-2.442 1.219-3.664.488-3.664V75.68l-.73-4.153-1.47-3.906-1.218-1.223-1.953-1.71-2.93-1.708-4.64-1.71-.246-1.223V51.5zm0 0"/><path fill="#fff" d="M412.238 186.066h1.953l1.957 3.907 3.418 6.105 2.93 5.129 3.906 7.082 3.176 5.617 3.418 6.106 3.91 7.082 1.465 2.441-.734 1.711-2.684 4.152-2.2 3.418-3.175 4.883-2.2 3.418-1.706 2.688-2.688 4.152-2.93 4.64-5.863 8.794-1.464 1.953-2.442 3.664-2.687 4.148-6.348 9.77-.488.488-3.907-.488-51.042-8.059v18.317l-.247 33.457h-2.195l-35.168-3.418-1.71-.246-.243-3.665.242-.488 6.106.488 23.691 2.446 4.152.488.73.242V316.23l.247-42.734.977-.246 37.363 5.86 13.676 2.199 3.91.488 8.3-12.453 2.688-3.422 19.047-28.57 5.129-7.817-.242-1.71-3.176-5.86-2.2-3.906-2.93-5.375-8.546-15.387-2.93-5.371-2.93-5.13.243-.487zM107.945 49.547l1.953.246 3.907 1.219-1.465 1.953-2.442 2.445-1.71 1.953-2.442 2.442-1.71 1.953-1.22 1.465h-.488l-.488.976-2.688 2.442-1.953 1.71-2.93 3.176-2.199 2.442-2.441 3.176-2.688 2.93-.976 1.222-4.395 4.394-1.71 1.954-1.954 1.953-1.222 1.465.246.976 4.394 4.887 2.93 3.418 3.176 3.418 2.687 3.422 3.176 3.906 2.195 2.687 3.664 3.907 1.711 1.953 2.93 3.418 2.93 3.175 2.199 2.688 1.707 1.71 1.71 1.954 2.93 3.418 3.176 3.418 2.2 2.687 1.707 1.711 1.71 1.954 2.93 3.418 2.688 2.93 1.71 1.952 2.196 2.688v.488l-8.79.977-39.808 3.664h-2.93l-1.464-2.442-.98-1.222v-.489l8.304-.73 32.48-2.445 4.153-.243v-.488l-2.93-3.418-3.418-3.664-2.933-3.418-3.66-3.91-2.2-2.684-1.71-1.71-1.708-1.954-2.687-2.93-1.711-1.956-2.684-2.93-1.71-1.953-2.442-2.688-2.2-2.683-2.687-3.422-2.441-2.684-1.711-1.957-4.395-4.883-1.71-1.953-2.93-3.176-2.93-3.417-3.418-3.665-.246-1.464 2.687-2.688 1.711-1.953 2.196-2.441 2.687-2.93 1.711-1.957 2.195-2.442 2.688-2.93 6.348-7.327 3.664-3.907 2.441-2.687 1.71-1.953 3.419-3.66 1.71-1.957 2.2-2.442zM108.434 252.004h4.152l.488.242.242 27.356-1.464.242-22.711-.977-31.262-1.465-2.442-.246.247.489 2.195 19.292 2.687 22.715 1.465 12.7.246 2.687-7.328.488-14.41.489-23.934.976h-3.171v-4.887l.242-.488 42.496-.73-.246-3.91-3.176-27.594-2.93-25.156v-1.22l.735-.245 11.965.488 44.449 2.441 1.465.246-.247-.734v-22.957zM283.047 40.512h1.465l.488.976 1.71 10.012 2.93 15.875 3.665 20.27 2.441 13.675 1.465 8.305-.242 1.465-5.375 11.234-3.172 6.594-3.176 6.836-3.176 6.594-2.683 5.617-3.176 6.594-3.176 6.84-2.93 6.105-.246.242h-3.906l-47.133-3.66-4.64-.488-.489-1.711v-1.223l5.86.246 44.203 3.418 3.664.488.246-1.218 3.66-8.059 7.328-15.875 8.059-17.586 2.93-6.594 1.71-3.66.977-2.199-1.223-7.328-2.93-15.14-2.195-11.966-2.199-11.234-2.199-11.723-1.953-10.504v-.976zM440.078 57.363h2.934l2.195.73.246 1.466-2.441 1.71-3.664 2.442-3.907 2.687-1.957 1.465-3.171 2.688-1.711 1.707-1.954 1.71-5.37 5.376-.247.488h-.488l-.488.977-2.93 2.93-.246.488h-.488l-.489.976-3.906 4.152-1.953 2.442-1.469 3.176-.242 1.218v2.446l.488 1.707.489 3.906 3.418 21.98 2.445 15.141 1.219 8.063-1.22-.246-2.933-1.465-.976-4.395-2.688-16.363-2.195-13.922-2.93-17.828.242-2.684.977-2.687 1.71-2.442 2.196-2.445 7.086-7.57 1.707-1.707 1.711-1.953 3.418-3.422 1.953-1.707 2.93-2.446 2.687-1.953 4.399-3.418 3.66-2.441zM217.598 269.586l.734.246-1.465 10.258-2.687 17.34-1.465 10.011-.488.73h-5.618l-5.617-.241-11.48-.246-13.918-.489-12.211-.242-13.922-.488-9.035-.246-.246-.242v-4.153l.246-.246h7.57l32.48 1.223 25.887.976h2.2l.73-3.906 4.64-29.308 1.712-.489zM118.691 201.207h1.22l.245.977-1.465 17.093-.734 7.817-.242 2.199-.246.242h-2.442l-58.855-3.906-.488 8.3-3.422.489h-1.219v-7.082l.242-6.348.735-.246 13.187.977 47.867 3.176.242-4.395 1.223-13.434.488-5.129 2.196-.488zM170.707 174.832h4.398v2.93l-1.71 19.781-1.954 22.469-1.71 19.781-1.465 17.094-.73 7.57-.247.977-1.953.488h-2.441l.242-5.86 2.441-27.84 2.2-25.156 1.464-17.093 1.223-13.922zM363.883 118.66h2.445l1.707.735 1.953 1.464v.489l-2.441.73-3.176 2.2-4.64 3.417-3.419 2.446-2.683 2.195-3.664 3.664-2.442 3.418-2.687 5.129-1.465 4.398-.734 3.418v4.153l.976 2.441 2.93 4.395.246 1.71-.977 1.465-1.464 1.223-2.93.977-4.64.73-10.747.734H307.47l-5.86-.734-3.664-.977-1.465-.976-.734-.977 3.422.243 2.684.246 6.593.246h10.993l11.476-.735 5.863-.734 3.172-.977 1.223-.73.734-1.711-.246-1.953-.976-2.2-1.954-3.417-.488-1.711v-2.442l.977-4.882 2.687-7.817 1.953-3.176 2.196-2.683 3.422-3.422 3.906-2.93 3.418-2.441 4.398-3.176zM286.71 191.195l2.93.489v.976l-.488.73v1.954l.489.734v3.176l-.977 6.594-1.219 8.547-.734 2.199-.488.488h-2.2l-.73-.246h-4.887l-.73.246h-7.082v5.86l.488 9.523.242.246.246 1.707.242 12.7.735 4.152v4.886l-.735 10.5.247.735.488 6.836v10.011l-3.176-.242-.242-.246v-8.3l-.246-5.864-.242-3.176v-1.707l-.246-.488v-4.399l.488-5.613v-6.84l-.488-2.441v-8.059l-.243-5.375-.488-2.195-.246-.488-.242-6.598v-8.3l.242-.247h16.605l.977-4.883 1.469-10.988.242-1.223zM44.938 127.207l.488.246 2.683 5.617.977 3.907 1.957 15.14 2.195 17.34-.242.734h-42.25v-3.906l.242-.246 26.133.246 12.211.242-.246-.488-1.953-17.34-1.219-11.476zM282.07 298.895l2.442.242.488.246-.73 9.035-.489 3.418-.488 1.223-.246 4.394-.242.735-1.465.488h-16.121l-4.883-.489-6.352-.246-3.66-.488-1.465-.242-.488.242h-3.664l-2.687-.242-.489-.246-1.71.488-6.348.246-.735-.488-3.418-.246-.488-.242v-2.446l.977-.488.976.488h1.711l.73-.242h15.633l5.618.488 5.125.243 5.128.488.977.246h8.793l5.375-.488.242-1.223.246-3.906.977-3.176.488-5.617zM186.094 133.559l1.953.242.734.734v4.883l-.246 4.64-.73.247H140.18l-.977-.246v-2.93l46.649-.242V133.8zM422.008 157.246l1.222.488 1.22 1.223.976 1.223.488.976v1.953l-1.219 2.442-1.953 1.465-2.687.976-5.13.735-9.523.488-5.863.242h-8.547l-8.793-.488-3.418-.977-1.71-1.219v-.734l6.84.242h10.745l13.188-.488 7.324-.73 3.176-.977 2.199-1.711 1.219-2.441zM55.191 14.625l1.223 1.219 2.93 3.422-.242 1.953-3.91 10.988-4.395 12.211-.73 1.465h-.247l.246-2.442 3.418-19.535 1.465-9.039zm0 0"/></svg>