<svg xmlns="http://www.w3.org/2000/svg" viewBox="0 0 339.4 133.4"><path d="m216.54 9.53-27.5 9.62-12.25-.06c-11.54-.05-12.25.06-12.25 1.91 0 3.34 4.15 9.56 7.23 10.84 1.61.67 4.24 2.53 5.85 4.14 4.62 4.62 3.82 13.1-1.78 18.98-2.57 2.7-2.58 2.71-.69 5.38 5.57 7.85 5.5 7.65 5.19 15.42-.25 6.22-.94 8.84-4.05 15.36-3.76 7.89-5.92 11.02-15.25 22.14-7.59 9.05-9.82 13.07-9.01 16.27 1.41 5.61 2.12 5.46 12.83-2.67 5.6-4.26 12.22-9.12 14.69-10.79 4.95-3.35 19.05-9.31 22.04-9.31 2.23 0 3.96-2.82 3.96-6.46 0-2.43-5.25-13.95-8.88-19.48-.89-1.36-2.39-4.95-3.33-7.98-1.56-5.05-1.57-5.66-.12-7.27 2.03-2.24 3.32-1.45 3.32 2.03 0 3.05 2.48 7.16 4.32 7.16s13.5-11.73 15.35-15.37c.88-1.72 3.58-5.79 6.01-9.04 5.41-7.25 5.49-10.13.28-9.99-2.09.06-5.31 1.27-7.85 2.95-5.81 3.85-13.9 6.64-15.98 5.51-5-2.7-9.48-12.73-7.01-15.7 1.99-2.39 6.83-4.51 8.85-3.87 1.02.32 3.05 2.15 4.5 4.05 3.28 4.3 6.02 4.43 13.54.65C244.28 21 256.61 9.35 252.58 1.82c-1.88-3.52-7.13-2.39-36.03 7.72M35.39 9.1c-4.72 2.39-11.8 6.55-15.71 9.25C11.77 23.8 2.74 29.52 1.29 30c-.52.17-.04 1.88 1.06 3.78 1.1 1.91 4.35 8.78 7.22 15.27 4.29 9.72 5.11 12.45 4.61 15.49-.33 2.03-.11 5.05.5 6.72 1.01 2.78.48 4.26-6.43 18.01-9.17 18.24-9.36 18.83-6.92 21.27 1.59 1.59 4.07 2 15.66 2.58 16.11.81 17.05.47 16.11-5.85-1.22-8.11-3.42-34.94-2.93-35.72 1.02-1.65 5.19-.74 6.59 1.45 3.29 5.14 13.06 31.65 13.91 37.75.5 3.57 1.74 7.62 2.76 9l1.85 2.5h21.26c16.72 0 21.37-.28 21.77-1.32.85-2.2-7.35-9.7-25.43-23.26C47.13 78.36 37.81 68.8 38.73 62.64c.34-2.29 11.38-9.79 17.53-11.91 1.76-.61 3.47-1.94 3.79-2.97.65-2.04-2.16-11.69-3.67-12.62-2.48-1.54-7.17 1.64-17.54 11.87-6.19 6.11-11.5 10.86-11.79 10.57-.3-.29.59-4.09 1.98-8.43 1.38-4.34 3.19-10.43 4.02-13.52.94-3.51 3.86-9.13 7.76-14.92 7.93-11.78 9.01-13.73 8.25-14.96-1.19-1.92-5.13-.96-13.64 3.35m219.67 11.87c-2 2.85-1.97 5.27.11 8.79 2.79 4.72 8.48 6.45 10.27 3.12.74-1.39.43-3.26-1.21-7.25-1.22-2.96-2.67-5.71-3.22-6.11-1.88-1.38-4.39-.77-5.94 1.46m22.44-.94c0 .16.99 2.97 2.19 6.25 1.93 5.26 2.15 7.5 1.82 18.96-.78 27.43.3 48.53 2.67 52.32 1.9 3.04 13.18 10.16 16.1 10.17 1.26 0 2.57-.73 2.91-1.63.8-2.09-2.82-14.53-7.26-24.9-6.36-14.89-5.02-15.91 14.26-10.82 24.07 6.35 28.22 6.63 29.14 1.95.54-2.72-8.38-10.49-20.2-17.59-14.24-8.55-22.48-15.46-29.1-24.42-6.79-9.18-8.19-10.58-10.6-10.58-1.06 0-1.93.13-1.93.29M133.62 22.6c-.71 1.33-.27 4.6 1.59 11.75 3.12 11.98 3.14 13.06.36 18.63-1.77 3.54-2.01 5.05-1.28 7.83.77 2.93.18 5.56-3.92 17.45-2.65 7.7-4.83 14.31-4.83 14.68s2.58 1.4 5.74 2.27c3.16.88 7.23 2.26 9.03 3.07 2.94 1.32 3.35 1.31 3.89-.11.72-1.88-.27-20.84-1.28-24.41q-.7-2.49 1.44-.6c1.18 1.04 4.87 5.87 8.19 10.71 6.19 9.04 9.28 12.09 11.43 11.27 1.71-.66 5.73-10.74 5.02-12.6-.32-.84-3.68-3.48-7.46-5.85s-7.43-5.36-8.11-6.63c-1.09-2.04-.88-2.82 1.8-6.56 1.67-2.33 5.46-6.11 8.42-8.4 7.51-5.8 12.88-11.2 12.88-12.96 0-1.46-4.03-3.6-9.2-4.9-2.45-.62-2.89-.07-8.35 10.44-6.01 11.56-7.62 13.71-9.47 12.56-2.65-1.63-3.02-5.79-1.5-16.7.84-6.03 2.03-12.94 2.64-15.36 1.74-6.9 1.15-7.43-8.05-7.43-6.75 0-8.15.29-8.98 1.85m98.84 6.9c-.04.41-.02 3.45.05 6.75.18 8.57-2.4 24.44-7.08 43.5-5.29 21.55-5.85 27.04-3.04 29.85 2.85 2.85 4.37 2.12 14.2-6.85 4.52-4.12 10.52-9.23 13.34-11.34 11.79-8.84 12.81-11.1 6.88-15.13-5.79-3.93-7.58-3.41-15.87 4.63-4.07 3.94-7.73 6.83-8.14 6.42s-.73-3.53-.7-6.92c.05-6.59 2.7-12.72 14.67-33.96 2.73-4.84 4.73-9.38 4.46-10.1-.28-.72-4.03-2.73-8.34-4.46-7.97-3.21-10.28-3.74-10.42-2.39M73.9 34.96c-3.41 3.79-3.55 5.61-.78 10.34 2.02 3.44 3.32 4.53 5.99 5.03 1.88.35 4.09.38 4.92.06 2.25-.86 1.74-5.42-1.3-11.64-3.07-6.27-5.61-7.36-8.83-3.79m195.12 3.15c-2.76 1.28-6.81 2.91-9 3.61-5.68 1.82-6.19 2.59-3.81 5.81 6.9 9.34 9.17 20.92 7.19 36.73-1.08 8.6-1.03 9.17 1.13 12.8 1.36 2.29 2.88 3.68 3.84 3.49 3.2-.62 4.29-8.35 4.48-31.79.17-21.34.3-22.72 2.47-26.78 3.57-6.68 1.92-7.69-6.3-3.86m-147.18 5.1c-1.76.76-5.13 3.12-7.5 5.24s-6.08 4.66-8.24 5.65c-2.17.99-5.65 3.74-7.73 6.1-2.08 2.37-5.82 5.26-8.31 6.43s-4.52 2.37-4.52 2.67.64 1.78 1.42 3.29 1.97 7.45 2.63 13.2c1.39 11.95 2.75 16.42 7.06 23.13 5.16 8.04 13.94 11.79 27.67 11.81 13.54.02 17.82-4.24 14.72-14.66-2.43-8.19-3.89-8.6-17.06-4.77-8.03 2.33-10.54 1.57-14.19-4.3-5.46-8.77-5.71-10.23-2.81-16.35 1.41-2.97 3.68-6.94 5.06-8.8 1.37-1.87 2.5-4.65 2.5-6.18 0-3.56 3.96-6.49 10.96-8.1 6.06-1.4 10.04-5.34 10.04-9.95 0-2.45-.61-3.23-3.47-4.42-4.16-1.74-4.19-1.74-8.23.02m-57.9 5.92c-.3.77.5 3.58 1.78 6.25 2.35 4.92 2.37 5.11 2.81 34.51.02 1.33 10.41 5.84 11.33 4.92.5-.51.87-5.41.81-10.91-.11-10.59.69-13.53 5.44-20.11 1.36-1.89 2.32-3.91 2.13-4.5-.41-1.25-20.36-11.57-22.38-11.57-.76 0-1.62.63-1.92 1.4M293.07 53c-1.32 7.66-1.23 8.01 2.29 8.96 1.82.49 6.1.75 9.5.59l6.18-.3-4.5-2.66c-2.48-1.47-6.05-4.28-7.95-6.25s-3.79-3.59-4.2-3.59-1.01 1.46-1.32 3.25" style="fill:#ffffff;fill-rule:evenodd"/></svg>