<svg xmlns="http://www.w3.org/2000/svg" viewBox="0 0 499.38 169.5"><path fill="#fff" d="M378.38 145.1c-3.36 3.65-7.57 6.48-10.28 9.89l-10.53 13.3c-13.75-5.85-22.05-25.53-27.06-38.73-3.67-9.67-7.57-18.49-12.41-27.72-5.1-9.72 10.5-9.72-.22-23.55-13.4 10.8-9.47 10.45-10.05 23.61l-1.19 27.13c-.16 3.61.05 15.86 3.88 17.14 2.24.75 2.43-3.41 4.89-5.34.75-.59 2.99.22 3.69.86s.35 3.71-.36 4.41l-18.26 18.09c-.71.7-1.37 2.56-2.03 2.41-5.17-1.18-15.12-9.24-28.86-6.93-7.09 1.19-10.86 7.57-14.53 5.57-5.05-2.75 11.94-19.43 15.15-22.95 2.96-3.25 5.34-6.96 5.37-11.38l.27-40.99c.12-18.75 1.29-36.77-.64-55.55-.67-6.5-10.05-12.48-15.86-12.09-4.68.32-5.49 6.13-5.16 9.67l7.08 1c-.82 2.32-2.75 4.29-4.73 4.33-1.56.03-4.84-1.72-5.48-3.39-2.7-7.04-.29-16.31 5.91-20.68 4.94-3.48 8.95-6.8 13.1-11.17.79-.83 3.22-2.25 4.31-2.03 1.83.36 13.92 12.05 17.13 16.33l13.45-12.52c1.09 5.42-2.57 7.93-3.98 12.15-2.93 8.76-4.19 18.43-4.06 27.96l.55 41.75 3.8-1.75c.78-.36-.27-2.94-.22-4l1.04-25.02c.28-6.8 2.24-13.24 6.29-18.56 4.88-6.41 9.74-12.82 15.6-18.26L337.54 5.5c.87-.81 2.93-2.15 3.96-2.48 1.2-.39 2.82 2.65 3.79 3.56l16 15.16c-3.52 4.29-7.93 7.61-12.7 10.99l-5.42 6.72-9.59-9.39c-1.58-1.55-4.15-2.98-6.75-4.12-19.05 17.66-20.44 24.74-18.6 51.36 4-2 6.73-4.42 9.63-7.42l12.84-13.27 8.92 11.51 2.86 2.62c1.99 1.82-8.95 9.21-9.36 13.94 12.73 19.39 19.14 52.4 39.16 63.52 1.37-2.94 2.5-6.19 6.09-3.13Zm-76.76-2.79-.18-16.51.04-28.31c-8.22 1.25-1.63 18.9-5.49 28.57-2.03 5.09-5.73 8.6-8.25 13.48l13.88 2.78ZM128.43 145.11c-3.36 3.59-7.57 6.41-10.25 9.79l-10.62 13.39c-13.56-5.82-21.8-24.99-26.75-38.02-3.76-9.9-7.75-18.98-12.71-28.44s10.53-9.67-.21-23.56c-13.4 10.87-9.44 10.34-10.04 23.63l-1.21 27.13c-.16 3.64.08 15.79 3.87 17.16 2.18.79 2.48-3.41 4.89-5.35.74-.6 2.97.22 3.69.85s.38 3.7-.48 4.55l-18.17 18.03c-.69.69-1.35 2.5-2 2.34-5.32-1.28-15.17-9.23-28.85-6.91-6.9 1.17-10.95 7.57-14.5 5.55-5-2.85 12.01-19.51 15.12-22.88 4-4.32 5.71-8.5 5.47-14.45-1.23-30.73 2.8-65.46-.63-94.17-.71-5.98-9.69-11.25-14.89-11.52s-6.83 6.63-5.55 9.95l6.66.75c-.8 2.46-2.85 4.38-4.69 4.38-1.57 0-4.91-1.73-5.52-3.37-2.66-7.06-.3-16.32 5.92-20.69C11.91 9.79 15.97 6.46 20.1 2.1c.79-.84 3.2-2.32 4.27-2.04 2.09.55 13.79 11.9 17.14 16.27l13.6-12.59c.61 6.8-3.97 9.92-5.28 15.33-2.68 11.06-3.1 22.36-2.89 33.87l.6 32.77 3.76-1.8c.8-.38-.27-3.04-.23-3.95l1.07-25.06c.21-5 1.24-10.73 3.96-14.88 6.04-9.25 13-17.42 20.97-24.77L88.61 4.59c.71-.65 2.74-1.68 3.61-1.42s1.86 2.18 2.61 2.91l16.67 15.98c-4.22 4.23-8.21 7.37-12.89 10.76l-5.42 6.67-9.59-9.38c-1.58-1.55-4.16-2.98-6.77-4.11-19.09 17.83-20.37 24.54-18.59 51.39 4.66-2.34 7.71-5.42 11.13-8.96L80.7 56.68l9.37 12.01c.45.58 2.1 1.46 2.45 2.05 1.53 2.55-8.62 8.71-9.4 13.95 12.71 19.41 19.23 52.52 39.18 63.53 1.33-2.94 2.51-6.2 6.11-3.09Zm-76.91-2.82c.46-7.52-.19-12.13-.16-18.31l.11-26.5c-8.26 1.24-1.61 19.02-5.48 28.57-2.06 5.07-5.71 8.61-8.27 13.51l13.8 2.74ZM459.27 150.88l-20.15 18.15-17.03-16.86c3.72-3.78 6.94-7.77 6.97-13.18l.12-20.1c.03-4.81.83-9.49-1.04-14.1l-6.88-5.58 15.61-15.99c5.17 4.97 9.24 8.63 14.69 12.36 4.23 2.89-2.84 7.21-3.26 11.58-1.05 11.13-1.3 21.23-.99 32.26.13 4.44 2.84 9.45 6.31 11.6 1.81-.51 3.52-1.16 5.64-.15ZM209.25 150.92l-20.26 18.14-17.05-17.19c4.14-3.49 7.08-7.6 7.11-12.91l.13-21.03c.03-4.58 1.06-9.58-1.54-13.59l-6.39-5.12 15.59-16.06c5.17 5.01 8.75 8.37 14.18 11.98s-2.28 7.31-2.72 12.01c-1.04 11.15-1.31 21.24-.98 32.26.13 4.45 2.79 9.5 6.32 11.6 1.78-.48 3.53-1.2 5.62-.09ZM482.79 169.12c-2.96-1.09-4.89-4.67-7.34-6.63l-11.85-9.48c5.73-2.66 6.66-5.1 6.7-10.07l.29-30.8c.06-5.91-3.18-8.92-9.27-11.64l15.02-14.86c.63-.62 2.48-1.61 3.15-1.4s11.11 10.49 15.46 13.08c-2.95 2.76-5.43 6.15-5.69 10.15-.48 7.55-2.77 38.74 3.92 41.86 1.22.57 3.67.38 5.99.42 2.03 1.9-11.97 12.17-16.39 19.38ZM232.25 169.5c-3.67-3.35-5.78-6.28-8.84-8.73l-9.77-7.82c5.84-2.67 6.56-5.04 6.61-10.02l.31-30.81c.06-5.9-3.14-8.88-9.27-11.64l15.03-14.85c.62-.61 2.53-1.68 3.16-1.39.9.41 10.83 10.25 15.35 13.04-2.75 2.75-5.3 6.09-5.57 9.99-.49 7.01-2.72 39.64 3.82 41.92 1.47.52 3.78.46 7.27.84l-12.41 12.92zM151.15 165.49c-1.12 1.36-2.13 2.77-2.91 3.18-.93.48-3.06-1.19-3.74-2.05-8.72-11.05-12.17-7.84-14.68-14.32 4.96-1.93 5.84-4.81 5.88-9.37l.27-30.91c.1-11.85-12.57-8.88-7.08-14l15.64-14.6c5.46 5.75 9.76 9.35 15.88 13.78-2.72 2.74-5.43 5.94-5.69 9.66-.62 8.78-2.88 37.92 3.72 42.39 1.07.72 3.73.46 5.85.39 3.13.5-7.95 9.52-13.13 15.84ZM397.52 169.42c-3.75-3.51-5.99-6.59-9-8.94l-9.51-7.43c5.66-2.98 6.76-5.11 6.73-10.14-.06-10.02-.05-19.89.41-29.94.52-11.28-11.14-11.08-8.53-13.61l2.38-2.3 14.48-13.64c5.61 5.74 9.8 9.3 15.93 13.81-3.11 2.94-5.56 6.4-5.83 10.69-.48 7.57-2.54 38.18 3.8 41.21 1.42.68 3.96.51 7.41.96l-13.14 13.64-5.14 5.69ZM144.76 73.1 128.5 59.47l11.09-10.85c1.66-1.62 2.89-3.3 5.01-5.63l16.53 15.2-11.9 10.19zM478.97 71.57l-13.55-11.48c-1.23-2.55 10.77-10.07 15.15-17.1l16.6 15.32-12.57 10.62c-.72.6-1.78 2.61-2.18 3.16-.5.69-2.53.26-3.46-.52ZM394.78 73.11 378.5 59.42l8.63-8.28c2.6-2.49 4.46-4.83 7.42-8.17l16.59 15.23-11.88 10.17zM228.93 72.8l-15.79-13.35 10.71-10.49 5.43-5.91 16.4 15.03-12.18 10.58c-1.14.99-3.14 3.89-4.57 4.15ZM438.12 72.81l-15.35-13.44c-2.49-1.75 13.21-11.45 16.33-15.74l11.41 11.76c.58.59 2.29 1.57 2.1 2.21-.85 2.94-10.34 10-14.48 15.2ZM188.15 72.81l-15.38-13.45c-2.46-1.75 13.17-11.36 16.32-15.73l11.42 11.76c.6.62 2.24 1.57 2.09 2.21-.71 2.91-10.38 9.99-14.44 15.21Z"/></svg>