<svg xmlns="http://www.w3.org/2000/svg" width="148" height="50"><path fill="#fff" d="m147.8 25.773-4.866.04v16.351l5.066.012v6.886h-10.941V.977l10.937-.008.004 6.894-5.066.012-.004 10.973 4.855.039zm-50.827-6.898.004 6.906-4.899.016v23.266l-5.863.003V.98h10.96l-.003 6.875-5.094.032v10.972zm38.98.004.012 6.89-4.899.032-.007 23.265-5.844-.011V.98l10.941-.007.012 6.89-5.102.008v10.992zm-19.742 23.297.008 6.887-11.067-.004V.977l5.856.015v41.16zm7.152 6.87-5.851.017V.983l5.851-.004zM11.07 20.895l3.598 28.132-5.82.02-2.973-25.125-.043 25.101L0 49.035V.97L5.836.945l.035 21.29L8.848.948l5.78.024zM36.41 45.71c-1 2.836-3.582 4.375-6.472 4.285-2.817-.086-5.196-1.812-6.055-4.558-.344-1.106-.504-2.231-.567-3.438V30.129l5.856.004V40.16c.05.774.148 1.445.308 2.188.22.254.465.453.747.464.925.036.988-2.18.988-2.882 0-2.348-.203-4.61-.692-6.895-.55-2.59-1.613-4.867-3.117-7.015-2.172-3.094-4.277-6.055-4.281-10.043l-.008-8.036c0-1.18.242-2.316.574-3.402C24.56 1.73 27.06.02 29.937 0c2.875-.02 5.454 1.691 6.36 4.543.348 1.113.504 2.238.574 3.434l-.004 10.156h-5.851V10.02l-.239-2.196c-.21-.344-.43-.61-.777-.625-1.188-.039-1.059 3.188-1.016 4.082.188 4.059.762 5.938 3.047 9.297l2.364 3.477c2.042 3.004 2.69 8.668 2.687 12.265v5.364c0 1.375-.2 2.699-.672 4.027m15.55-3.25c-.1 3.977-2.366 7.402-6.585 7.531-2.813.09-5.316-1.351-6.371-4-.52-1.304-.711-2.644-.781-4.086l-.004-11.781h5.87l.005 9.918c.043.785.027 2.715.98 2.77 1.25.074 1.067-3.254 1.035-4.157-.093-2.547-.406-4.992-1.156-7.426-.601-1.953-1.55-3.64-2.707-5.312-2.035-2.938-4.172-5.895-4.176-9.7l-.02-8.394c0-1.203.25-2.383.626-3.484.93-2.73 3.41-4.34 6.23-4.34s5.387 1.7 6.297 4.516c.414 1.289.55 2.609.598 4.011v9.606h-5.867V9.906q-.078-1.078-.266-2.136c-.211-.282-.441-.543-.7-.567-1.144-.113-1.116 2.688-1.09 3.508.177 4.844.786 6.613 3.56 10.582.773 1.102 1.542 2.125 2.187 3.305 1.586 2.918 2.23 6.836 2.332 10.164.074 2.593.07 5.105.004 7.699M21.5 49.016l-5.875.023V.957H21.5zm0 0"/><path fill="#fff" d="M56.719 2.152c-.094.11-.102.114-.157.106-.03 0-.132-.04-.226-.078-.32-.14-.367-.14-.606.004-.289.171-.34.18-.734.128a3.6 3.6 0 0 0-.621-.039c-.344 0-.355.004-.555.055-.297.074-.394.07-.636-.012-.207-.074-.286-.086-.309-.039a1 1 0 0 0-.035.18c-.024.195-.028.207-.07.207a1 1 0 0 1-.215-.09c-.211-.105-.29-.117-.535-.09-.18.024-.297.047-.641.125-.406.094-.586.118-.828.118-.188 0-.227.003-.235.027q-.017.053.157.187c.25.2.312.297.191.309a.15.15 0 0 1-.098-.023 7 7 0 0 1-.375-.336c0-.004-.03.011-.062.03-.059.036-.082.036-.293.036-.156 0-.27-.008-.352-.027-.484-.11-.5-.11-.71-.012-.211.102-.372.277-.372.414 0 .102.086.23.168.25.098.023.207-.055.285-.21l.051-.095.078-.004a1 1 0 0 1 .2.02c.066.016.187.039.273.05.195.024.41.09.617.184.059.028.117.055.137.063.05.02.437.238.469.262.011.011.097.062.191.109.09.05.274.148.402.219q.36.19.485.191c.14 0 .347-.121.586-.34.172-.156.27-.207.426-.21.093 0 .097 0 .101.046.008.082-.027.16-.133.309a.7.7 0 0 0-.101.164c.004.02.035.023.133.027.14.004.234-.012.515-.094.18-.046.195-.05.57-.058.329-.008.387-.004.387.015 0 .012-.02.075-.039.137-.043.117-.05.188-.027.223q.048.072.394.11c.258.023.368.093.578.359.168.21.2.199.247-.102.027-.191.078-.309.164-.379.097-.082.218-.101.273-.047.047.047.031.121-.059.27-.074.133-.082.152-.046.234.027.067.09.11.14.094.02-.008.117-.094.219-.192l.187-.183h.09c.082 0 .09.004.106.043a.2.2 0 0 1 .004.09 1 1 0 0 1-.118.25c-.046.07-.07.164-.046.207.015.035.023.035.156.027.074-.004.215-.02.308-.035a.7.7 0 0 1 .258-.008c.09.02.313.121.446.207.164.106.23.047.34-.289a.5.5 0 0 1 .066-.133c.035-.031.035-.031.094 0 .043.024.093.09.21.262.196.293.192.29.438.242.219-.039.254-.039.355-.004.098.04.165.09.387.305.207.191.305.246.598.32.25.063.258.067.258.137 0 .078-.04.098-.285.133-.25.039-.262.043-.254.09.004.047.144.117.3.144.22.043.23.051.27.188.059.195.11.28.23.406.114.117.192.164.266.164.05 0 .066-.043.098-.227.015-.074.03-.156.043-.18.011-.038.02-.042.066-.03.055.011.246.093.356.148.05.023.097.074.175.187.137.196.348.434.434.493.047.03.098.05.195.062.074.012.156.035.188.047.03.016.14.098.246.187.101.09.207.172.234.184.086.047.227.047.469 0 .262-.047.351-.05.367-.016.012.04-.043.082-.25.188-.215.113-.308.18-.383.289-.05.074-.062.156-.027.18.008.008.11.015.223.02.242.011.242.011.398.226.16.222.277.347.453.476.266.203.477.43.692.762.05.074.152.188.285.313.113.105.258.257.32.34.063.078.164.199.23.269.13.14.165.203.208.348.039.125.074.171.12.171.016 0 .094-.019.169-.039.195-.058.199-.058.328.075.21.218.215.23.11.433-.06.114-.075.156-.075.219 0 .125.035.176.2.305.077.062.19.16.245.21.059.055.153.126.211.157.09.055.117.082.2.21.113.173.148.212.437.47.273.246.43.421.695.785.383.527.582.754.785.906.051.035.2.121.328.187q.231.12.403.254c.379.293.656.516.746.598s.308.332.48.55c.168.216.727.97.797 1.079.203.316.281.43.317.45.054.027.156.01.32-.056a.5.5 0 0 1 .187-.054l.051.004v.097c0 .051-.004.157-.008.227-.007.168-.02.16.235.195.18.02.23.047.304.16.063.098.106.192.211.48.125.349.176.427.493.774.23.258.324.383.453.63.05.1.113.202.136.226.043.047.043.047.098.023.027-.012.09-.047.145-.078.191-.125.3-.152.367-.086.02.024.094.156.164.3.168.337.234.427.437.583.278.21.328.262.496.484.227.301.274.34.641.52.438.219.445.23.805.89.125.235.25.403.336.461.027.016.133.059.234.094.285.098.29.102.637.52.215.261.285.324.433.406.27.148.32.21.493.594.109.246.18.355.257.398.032.02.121.04.254.055.114.012.227.031.254.039.063.02.102.086.23.422.13.332.141.344.419.437.254.082.34.13.402.196.07.082.172.289.234.492.07.215.11.297.157.32q.03.018.183.012c.23-.016.215-.028.446.351.144.239.175.266.406.38.148.07.238.124.316.195.121.105.168.128.36.183.164.043.175.059.234.266.105.394.113.406.336.472.21.063.277.09.316.125.032.036.102.188.2.438.062.16.109.234.152.238.097.016.219-.133.215-.265a.7.7 0 0 0-.035-.176c-.016-.059-.04-.14-.043-.18-.008-.07-.008-.074.03-.086.075-.02.216.063.391.227.122.117.125.148.028.246-.043.039-.074.082-.074.105 0 .082.168.211.37.285.215.079.25.102.25.149 0 .039.005.039.048-.024.027-.03.078-.085.117-.117.035-.031.117-.101.175-.156.125-.121.141-.168.09-.246-.066-.098-.37-.399-.437-.43-.102-.05-.168-.11-.168-.144 0-.043.086-.125.144-.133.04-.008.055-.027.082-.09.047-.113.184-.285.247-.312a.3.3 0 0 1 .101-.02c.074 0 .3-.047.422-.086.137-.043.14-.058.129-.281-.008-.176-.047-.309-.11-.38-.015-.015-.027-.038-.027-.05 0-.05-.18-.094-.207-.047-.012.012-.012.094-.008.203.008.145.004.192-.011.215-.043.059-.153-.004-.215-.125-.047-.086-.032-.289.031-.418.04-.09.04-.48 0-.82a7 7 0 0 1-.05-.598c-.013-.195-.024-.398-.032-.457a2 2 0 0 1-.016-.215.6.6 0 0 0-.101-.328 1.6 1.6 0 0 1-.145-.375 4 4 0 0 1-.035-.437q-.012-.34-.023-.29a3 3 0 0 0 .015.45c.012.215.024.48.024.59-.004.238-.043.55-.075.597-.027.036-.113.07-.132.051a.7.7 0 0 1 .011-.176c.024-.21.012-.57-.03-.902a3.5 3.5 0 0 1-.036-.496c0-.238-.043-.68-.082-.766-.012-.035-.02-.035-.145-.027-.156.008-.285.055-.32.121-.039.07-.055.223-.07.535-.024.43-.07.64-.156.711-.055.043-.172.047-.196 0-.043-.082-.094-.586-.094-.93 0-.261-.027-.515-.066-.636-.035-.117-.101-.219-.254-.402a2.4 2.4 0 0 1-.34-.54c-.12-.23-.16-.27-.273-.27-.137.005-.39.122-.516.243-.054.055-.062.07-.062.133 0 .086.058.207.219.437.12.18.132.223.09.309-.04.074-.133.172-.169.172-.02 0-.101-.067-.187-.149-.16-.152-.258-.218-.39-.265l-.083-.028-.008-.226a1.5 1.5 0 0 0-.043-.336c-.035-.102-.046-.121-.246-.336-.214-.23-.265-.3-.265-.363 0-.051.066-.121.242-.254.226-.172.293-.293.23-.43-.027-.066-.082-.066-.246-.008a.6.6 0 0 1-.183.043.7.7 0 0 1-.16-.136.6.6 0 0 0-.165-.137 1.1 1.1 0 0 0-.304.016c-.063.011-.07.007-.067-.016.004-.02.067-.07.137-.117.067-.047.129-.094.137-.106.02-.035-.016-.183-.063-.262-.09-.16-.273-.3-.691-.546-.281-.16-.375-.239-.613-.485-.164-.172-.223-.242-.266-.332a1.1 1.1 0 0 1-.105-.41c0-.07.007-.082.125-.18.027-.023.05-.05.05-.058 0-.012-.023-.04-.05-.063-.211-.183-.223-.199-.309-.465-.066-.21-.129-.324-.211-.378-.102-.067-.129-.024-.16.23a1 1 0 0 1-.027.172c-.028.07-.31-.031-.57-.207-.173-.117-.59-.563-.56-.594.005-.004.09-.027.188-.055.227-.054.25-.066.324-.128.07-.063.075-.122.008-.192-.039-.047-.055-.055-.125-.055a1 1 0 0 0-.219.063 2 2 0 0 1-.207.07l-.066.008-.086-.203a1 1 0 0 0-.129-.254l-.043-.047-.148.016c-.282.023-.301.02-.504-.086a2.3 2.3 0 0 0-.367-.156.8.8 0 0 1-.254-.11l-.094-.07c-.035-.027-.117-.031-.375-.016-.238.016-.238.016-.211-.101.031-.145.09-.207.195-.207.035 0 .172.03.305.066.2.055.438.098.828.152.098.012.117.004.102-.058a.3.3 0 0 0-.059-.102 4.4 4.4 0 0 0-.512-.379c-.101-.05-.191-.058-.402-.03a9 9 0 0 1-.285.03 2 2 0 0 0-.25.047c-.137.051-.184.055-.23.02a.63.63 0 0 1-.13-.278c-.015-.066-.015-.062.227-.285.082-.078.098-.097.098-.148s-.008-.059-.074-.094a1.6 1.6 0 0 0-.391-.11c-.106-.015-.11-.015-.14-.085-.016-.043-.052-.133-.075-.203-.055-.172-.094-.243-.14-.278a6 6 0 0 0-.262-.117c-.297-.121-.442-.207-.59-.348-.23-.218-.293-.347-.348-.738a2 2 0 0 0-.054-.27c-.024-.046-.149-.12-.258-.144a3 3 0 0 1-.207-.07c-.125-.047-.13-.051-.446-.371a5 5 0 0 1-.324-.344c0-.012.043-.106.094-.211.11-.207.16-.363.16-.46v-.063l-.059.007a.4.4 0 0 0-.12.047 3.3 3.3 0 0 0-.485.352.4.4 0 0 1-.129.09c-.02 0-.047-.028-.086-.098-.07-.121-.14-.191-.512-.5-.398-.332-.636-.562-1.27-1.223-.46-.48-.593-.57-.913-.609l-.149-.02.008-.078c.004-.043.016-.132.02-.191.015-.152.008-.16-.196-.137a.8.8 0 0 1-.16.012 1 1 0 0 1-.02-.14c-.027-.247-.077-.34-.214-.407-.082-.039-.098-.043-.27-.035l-.18.004v-.246c.005-.246.005-.25-.042-.332-.055-.102-.114-.149-.297-.25a3 3 0 0 1-.164-.102 1.2 1.2 0 0 1-.094-.2c-.098-.23-.148-.304-.258-.355-.101-.05-.187-.046-.351.008a.6.6 0 0 1-.18.035l-.086.004-.086-.133c-.117-.195-.172-.3-.195-.402-.035-.16-.086-.246-.196-.328-.152-.113-.27-.164-.386-.164-.102 0-.14.008-.446.117-.168.063-.23.078-.347.086-.14.008-.145.008-.254-.055-.063-.03-.149-.078-.188-.097l-.078-.043-.14.027q-.237.046-.239.012c0-.055.207-.406.246-.422.036-.012.145.05.254.148.254.223.477.254.563.082.039-.078.043-.175.012-.394q-.047-.287-.004-.32a.7.7 0 0 1 .168-.059c.171-.05.218-.07.27-.129.03-.031.034-.047.026-.105a.36.36 0 0 0-.148-.243.4.4 0 0 0-.094-.058.3.3 0 0 0-.086.058c-.148.118-.3.2-.382.207-.07.008-.079.004-.098-.035a.7.7 0 0 1-.043-.14c-.016-.082-.016-.098.004-.121.035-.032.207-.043.402-.02.078.008.145.012.145.012.011-.008-.157-.235-.192-.262a2 2 0 0 1-.25-.355q-.106-.194-.148-.192a1 1 0 0 0-.152.137c-.07.07-.2.176-.282.234-.078.055-.152.11-.156.121-.016.04.035.098.125.149.129.074.211.168.176.203-.028.027-.352.008-.492-.027-.172-.043-.227-.04-.348.035a.4.4 0 0 1-.148.058c-.043 0-.06-.011-.118-.093a.4.4 0 0 0-.109-.122 1 1 0 0 0-.227-.046c-.265-.04-.34-.063-.359-.118-.047-.12-.035-.168.043-.187.027-.008.152.004.281.023.324.051.531.043.68-.027.117-.055.172-.117.219-.25.086-.246.004-.336-.512-.531a.8.8 0 0 1-.203-.094c-.024-.02-.024-.035.004-.156.035-.172.035-.254 0-.29-.043-.042-.176-.023-.371.055-.239.094-.278.098-.375.028-.215-.153-.215-.153-.317-.153-.054 0-.168.008-.258.024-.285.043-.457.027-.527-.047a1 1 0 0 1-.113-.23c-.113-.286-.2-.391-.375-.47-.102-.042-.27-.034-.438.028-.172.063-.32.059-.539-.008a1.7 1.7 0 0 0-.289-.058c-.12-.008-.152-.004-.437.074-.184.05-.325.047-.547-.016-.305-.082-.348-.07-.516.149-.055.07-.11.136-.12.144-.036.02-.126-.027-.302-.156-.16-.117-.273-.188-.308-.188a.4.4 0 0 0-.102.051c-.133.082-.21.059-.398-.12-.075-.067-.14-.122-.16-.122s-.07.043-.133.113m7.39 6.457c.168.07.454.47.555.778.047.14.05.175.02.203-.07.058-.25-.063-.403-.266-.152-.203-.308-.547-.308-.683 0-.051.007-.055.043-.055.02 0 .062.008.093.023m2.114.7c.066.027.132.109.195.238.055.113.129.332.137.402.004.067-.028.067-.207.016-.184-.05-.235-.043-.348.078a1 1 0 0 0-.11.133.16.16 0 0 1-.16.082c-.043-.004-.046-.008-.054-.102-.008-.05-.012-.16-.016-.234 0-.219-.02-.262-.144-.395a.6.6 0 0 1-.11-.132c0-.02.176-.063.469-.11a.9.9 0 0 1 .348.024m6.468 3.757c.094.07.18.27.153.348-.02.047-.13.027-.266-.043a1 1 0 0 1-.152-.094c-.024-.027-.024-.035.004-.105a.4.4 0 0 1 .07-.117c.04-.043.047-.043.094-.032a.4.4 0 0 1 .097.043m-.617.762c.04.04.074.18.074.29 0 .085-.003.105-.035.124-.07.051-.265.02-.34-.05-.062-.055-.043-.122.067-.258.047-.063.098-.114.105-.121.043-.016.106-.008.13.015m-3.27.414c.196.094.583.387.704.54.144.179.219.378.152.406-.035.015-.156-.028-.246-.086-.184-.122-.586-.579-.7-.793-.058-.118-.042-.13.09-.067m3.548.278c.015.023.054.093.082.156.058.125.129.222.257.37.094.106.137.173.122.188-.028.032-.622-.25-.797-.375-.09-.066-.153-.156-.153-.222 0-.02.02-.043.051-.059a1 1 0 0 1 .34-.101c.055 0 .074.007.098.043m1.246 1.023c.039.016.148.082.246.148.094.063.21.133.258.157.097.047.105.07.039.199l-.043.09.035.172c.047.234.047.257-.012.257-.055 0-.07-.023-.144-.238-.082-.25-.122-.312-.313-.512-.16-.171-.21-.238-.21-.289 0-.023.07-.015.144.016m1.097.312c.075.067.172.34.172.47 0 .038-.008.05-.039.058-.074.015-.098 0-.117-.102-.027-.125-.047-.152-.168-.273-.11-.11-.125-.153-.066-.176.054-.023.18-.008.218.023m.22.727c.093.043.194.09.222.098.129.054.207.172.16.23-.027.031-.082.031-.238-.012-.176-.043-.293-.097-.325-.144a.43.43 0 0 1-.035-.227c.012-.035.031-.03.215.055m3.108 1.582c.067.078.13.2.118.227-.008.023-.079.03-.422.05l-.164.012v-.039c0-.05.043-.086.136-.117.114-.04.145-.063.176-.133.04-.086.082-.086.156 0M55 14.547c-.008.012-.004.062.004.113a7 7 0 0 1 .031.598c.008.277.02.527.024.558.007.032.02.16.03.29.102.921.321 1.765.653 2.511.04.09.094.219.13.29.151.323.144.34-.048.1a5.4 5.4 0 0 0-.574-.62c-.254-.23-.73-.606-.773-.606-.012 0-.012.035-.008.09.011.113.234.934.336 1.238.082.25.28.758.414 1.055.011.027.062.148.117.266.05.117.246.527.437.91.344.703.399.816.606 1.332.117.289.152.367.246.574.031.063.082.176.117.254.192.438.274.582.64 1.117.157.23.24.38.216.38-.04 0-.16-.106-.344-.294-.465-.48-.746-.762-.766-.762-.008 0-.097.094-.191.207-.25.305-.274.34-.274.375 0 .043.047.09.137.133.047.024.07.051.078.078a2 2 0 0 1-.004.309 2 2 0 0 0-.004.418c.036.371.2 1.23.293 1.539.047.156.094.21.223.258.05.02.125.047.16.062.125.043.14.067.192.262.023.102.05.2.062.227.024.046.055.058.477.203.285.093.336.12.351.156.016.05-.023.055-.246.02-.281-.047-.297-.043-.312.066-.024.219 0 .504.058.633.055.133.14.195.324.25.118.035.133.047.133.101 0 .047-.05.102-.191.211l-.055.043.031.059c.016.031.09.125.16.21.192.227.208.255.208.344 0 .063-.008.086-.04.11-.046.043-.18.039-.32 0-.164-.05-.21-.047-.277.015-.063.06-.332.45-.356.52-.03.074.008.094.403.2.672.179.781.23.933.425.09.125.121.184.13.25l.003.05-.422.009c-.52.011-.476.007-.476.046 0 .04.16.278.3.446.063.074.114.144.11.16-.008.035-.203.027-.418-.016a3 3 0 0 0-.281-.039c-.149-.015-.157 0-.07.102.093.097.386.21.566.21.113 0 .238.028.254.06.004.015.015.081.023.152.004.07.02.144.031.172.036.062.125.105.254.125.137.02.356.078.375.101.008.012.02.04.02.063l.004.035h-.258c-.3 0-.29-.004-.445.191q-.1.122-.098.168c0 .035.039.082.223.258.14.137.23.234.246.273a.57.57 0 0 1 0 .317c-.024.113-.024.129.023.129.035 0 .078-.059.137-.192.043-.097.074-.129.129-.129.039 0 .523.149.574.172.05.028.055.07.023.192-.066.289-.191.43-.593.695-.364.242-.461.348-.551.613-.043.133-.047.2-.012.23a1 1 0 0 0 .211.032c.356.027.52.086.797.29.227.16.312.198.555.233a1 1 0 0 1 .234.051c.035.031.07.172.086.356.012.12.023.183.04.199.022.023.12.027.8.027l.773.004-.004.047a2 2 0 0 1-.043.176c-.023.066-.046.16-.05.203-.008.078-.004.086.046.144.032.032.11.09.18.133.113.067.125.082.133.125.004.067-.023.16-.129.403-.09.21-.172.453-.172.504 0 .02.012.042.024.054.011.008.328.094.703.184.375.094.707.18.734.187l.055.016-.008.148a.5.5 0 0 1-.074.286c-.063.128-.09.164-.32.394-.368.371-.504.55-.532.707-.023.125.055.164.301.149.207-.012.379-.055.563-.149.23-.113.43-.273.82-.648.219-.211.289-.262.336-.246.023.011.027.027.02.175-.024.364-.075.43-.634.844-.273.2-.457.356-.488.414-.047.094.02.164.16.16.157 0 .274-.062.559-.289.23-.187.309-.23.379-.215.027.004.125.043.215.082.156.067.175.07.304.07.141 0 .184-.007.47-.073.097-.024.237-.043.312-.051.148-.008.308.015.324.05.015.044-.027.137-.133.301-.125.192-.27.434-.289.489q-.034.082.137.23c.168.149.183.149.336-.02.148-.171.21-.203.449-.218.207-.016.55.05.926.172.226.074.265.097.277.168.008.03.004.16-.008.28-.023.278-.008.345.11.54.125.203.113.234-.118.453-.218.207-.199.223.27.242.266.008.289.008.324-.02.02-.019.067-.116.117-.253.102-.262.149-.36.18-.371.043-.016.164.043.223.113.086.102.222.316.289.453.054.11.058.137.058.242a.6.6 0 0 1-.035.215c-.12.352-.148.434-.148.488 0 .082.043.114.152.114.164-.004.371-.13.582-.348.117-.121.184-.23.262-.422.02-.05.027-.058.054-.047.02.004.165.106.325.223.699.508 1.324.95 1.367.965.074.031.086.012.226-.387.047-.137.118-.332.157-.437a.7.7 0 0 1 .086-.2c.07-.027.187.098.285.301.187.395.195.41.277.485.106.097.238.14.426.14.234 0 .414-.055.746-.21.11-.052.234-.102.277-.11.09-.016.192.015.317.098.09.058.324.292.484.484.238.277.29.289.508.101.148-.128.168-.136.352-.113.265.035.515.078 1.175.207 1.032.207 1.098.219 1.496.242.313.016.543 0 .653-.046.097-.043.191-.149.273-.301a1 1 0 0 1 .09-.157c.043-.039.176-.027.324.024.203.07.211.07.27-.055.07-.148.113-.285.113-.355 0-.078-.027-.102-.223-.188-.761-.332-1.367-.633-1.468-.726-.075-.075-.07-.114.011-.137.047-.008.121-.004.301.023l.442.067c.109.015.273.043.359.055.09.015.2.023.246.023l.086-.008v-.078c0-.187-.129-.332-.379-.43-.133-.05-.21-.05-.426 0-.39.094-.703.14-.847.13-.082-.009-.141-.032-.356-.141-.332-.172-.34-.172-.855-.094a7 7 0 0 1-.739.062 2 2 0 0 1-.304-.023c-.082-.012-.16-.024-.18-.024-.059 0-.047.051.043.184.05.074.094.152.094.176.004.039-.004.047-.051.062-.086.02-.41.004-.438-.023a1.6 1.6 0 0 1-.117-.297 13 13 0 0 1-.11-.309c-.03-.082-.042-.085-.355-.062-.53.031-.644.035-.656.02a4 4 0 0 1-.035-.2 1 1 0 0 0-.039-.195c-.035-.035-.172.144-.293.387-.059.12-.078.148-.11.148a.7.7 0 0 1-.16-.09c-.187-.129-.214-.14-.398-.129-.09 0-.223.016-.3.032-.11.02-.153.023-.184.011a.9.9 0 0 1-.145-.164c-.137-.195-.191-.234-.328-.254a9 9 0 0 0-.633-.015c-.289 0-.59-.008-.668-.016a3 3 0 0 1-.402-.058 1 1 0 0 1-.05-.18c-.063-.301-.161-.445-.376-.547-.156-.074-.27-.086-.527-.063-.297.028-.356.024-.473-.015-.336-.113-1.824-1.137-2.617-1.801-.348-.293-.895-.86-1.406-1.46-.168-.196-.34-.395-.383-.45-.047-.05-.184-.211-.305-.356a19 19 0 0 0-.379-.445c-.09-.101-.23-.27-.316-.371-.262-.305-.512-.566-1.133-1.195l-.594-.602-.02-.094c-.019-.086-.015-.105.016-.23.02-.074.043-.172.043-.211.012-.113 0-.117-.28-.117-.188 0-.243-.004-.259-.024-.054-.058-.168-.457-.32-1.117a2 2 0 0 0-.078-.265c-.043-.086-.09-.122-.274-.192-.152-.058-.257-.113-.277-.148-.023-.047-.02-.149.008-.293.043-.196.058-.196-.39 0a1 1 0 0 1-.239.086c-.055.004-.055.004-.05-.051a.7.7 0 0 1 .05-.184c.07-.172.062-.218-.047-.383-.047-.07-.121-.171-.16-.226-.129-.164-.223-.309-.223-.344 0-.015.004-.027.008-.027.04 0 .168.066.328.172.25.16.309.187.457.226.258.067.383.02.336-.12-.023-.071-.055-.087-.312-.161-.25-.07-.332-.113-.332-.168 0-.035.02-.043.175-.098.204-.07.247-.093.29-.183a.4.4 0 0 1 .058-.094.14.14 0 0 0 .027-.078c0-.07-.101-.274-.23-.465s-.164-.23-.203-.23a1 1 0 0 0-.172.074c-.176.094-.277.11-.387.055q-.121-.06-.12-.2c0-.05.003-.054.058-.066a.9.9 0 0 0 .27-.078c.073-.051.038-.149-.141-.39a.8.8 0 0 1-.11-.177c0-.027.02-.03.219-.035.207-.004.219-.008.219-.035 0-.035-.012-.043-.438-.246-.254-.121-.394-.203-.508-.305-.03-.027-.046-.047-.035-.05.016 0 .102.027.196.054.09.031.351.106.582.164.523.137.52.133.543.133.039 0 .136-.105.367-.402.129-.172.25-.317.262-.328.039-.036.101-.004.277.136.176.145.43.317.531.364.082.039.121.023.234-.106.122-.133.125-.133.403-.055.105.032.265.067.36.082.09.012.167.028.175.032a.4.4 0 0 1 .05.12c.083.286.145.294.333.048.054-.07.12-.149.156-.176.242-.2.66-.242 1.309-.129.382.07.992.195 1.007.207.012.016-.003.078-.175.727a12 12 0 0 0-.246 1.261c-.043.282-.09.582-.106.672a2 2 0 0 0-.016.406c.016.383.075.614.293 1.133.149.348.266.633.461 1.117.696 1.72.793 1.918 1.028 2.082.093.063.394.204.687.32l.43.177c.133.058.312.12.402.14.094.024.168.047.176.05.004.005 0 .024-.012.044-.02.035-.093.094-.425.328a.9.9 0 0 0-.18.152c-.008.043.172.22.406.391.574.438 1.125.676 1.93.848.285.062 1.469.27 1.918.336.683.105 1.09.015 2.18-.47.933-.421 1.515-.773 2.042-1.23.172-.152.637-.62.864-.875.18-.199.265-.312.36-.46.038-.06.077-.11.089-.11s.207.184.43.41c.226.227.539.524.691.66.152.137.309.286.344.325.105.117.226.312.379.617.265.535.445.789.847 1.203.332.344.641.59 1.035.84.239.152.391.261.426.316s.035.176 0 .34c-.035.148-.035.21-.004.27.016.023.137.14.274.257.312.27.597.567.812.844.332.426.465.672.657 1.203.062.172.14.38.168.453.125.309.289.524.515.684.2.14.195.133.211.375.008.117.024.23.035.266a1 1 0 0 0 .13.152c.112.105.23.254.374.469.238.359.496.66.805.949.273.25.265.238.265.418l-.003.148.027-.078a.7.7 0 0 1 .074-.137c.106-.12.125-.183.133-.414.012-.3-.004-.675-.04-.793a2.6 2.6 0 0 0-.226-.574 4 4 0 0 1-.187-.398 8 8 0 0 0-.414-.84c-.266-.469-.324-.57-.442-.758-.265-.43-.879-1.34-1.37-2.035a74.937 74.937 0 0 0-1.352-1.875 123 123 0 0 1-1.711-2.34c-.207-.289-.5-.719-.77-1.125-.289-.433-.41-.633-.71-1.137a5 5 0 0 0-.165-.257c-.062-.075-.156-.122-.34-.176a1 1 0 0 1-.183-.067c-.035-.039-.067-.148-.114-.363a6 6 0 0 0-.261-.91c-.074-.156-.082-.16-.348-.203a1 1 0 0 1-.203-.04c-.055-.046-.07-.316-.027-.542.047-.274.183-.59.257-.59.051 0 .215.187.633.703.063.078.149.184.192.234.402.47 1.441 1.84 1.992 2.625.484.696 1.2 1.805 1.27 1.97.023.066.023.073-.102.234-.106.14-.117.191-.063.304.047.11.184.246.266.27.059.02.074.015.133-.016.289-.152.316-.406.113-1.058-.074-.23-.11-.418-.09-.457a.3.3 0 0 1 .078-.075c.125-.093.102-.136-.09-.199-.207-.07-.316-.156-.468-.36q-.27-.362-.41-.984c-.047-.21-.07-.273-.122-.32-.042-.039-.171-.086-.359-.133-.191-.05-.277-.086-.324-.136-.074-.086-.063-.106.129-.18.11-.047.222-.113.262-.164.03-.035.023-.04-.211-.168-.457-.25-.715-.516-1.332-1.371-.297-.414-.364-.492-.63-.77-.21-.219-.269-.297-.234-.328.008-.012.059-.023.117-.035q.223-.041.223-.106c0-.07-.066-.101-.469-.218-.48-.133-.738-.235-.761-.293a1 1 0 0 1 0-.223c.011-.191.007-.195-.032-.266-.062-.109-.171-.222-.378-.398a6 6 0 0 0-.688-.508c-.223-.137-.215-.12-.113-.387.125-.324.187-.59.207-.902.015-.195 0-.21-.117-.144-.106.054-.426.37-.59.582a2 2 0 0 1-.16.187c-.008.008-.043-.004-.075-.027a70 70 0 0 1-1.722-1.395c-.422-.351-.438-.367-.442-.426-.008-.066-.004-.07.102-.52a54 54 0 0 0 .445-2.034c.031-.223.031-.621 0-.653-.062-.062-.2.07-.418.407-.3.465-.601 1.015-.715 1.304a9 9 0 0 0-.195.594c-.016.063-.035.106-.05.106-.094.02-.778-.79-1.032-1.22-.176-.296-.21-.323-.574-.448-.387-.137-.5-.196-.914-.473-.274-.184-.41-.285-1-.762-.57-.453-.742-.59-.977-.758-.277-.195-.367-.289-.48-.468-.114-.184-.16-.235-.239-.258a3 3 0 0 0-.308-.031c-.14-.008-.29-.02-.328-.024a1.3 1.3 0 0 1-.328-.09c-.012-.011-.02-.047-.02-.086 0-.062.004-.07.043-.082.023-.004.152.008.297.036.265.042.348.042.375-.012.039-.07.004-.262-.063-.309-.062-.054-.199-.074-.507-.086-.262-.008-.32-.015-.36-.039a1.5 1.5 0 0 1-.207-.226c-.207-.258-.36-.407-.508-.477-.152-.074-.25-.094-.476-.078-.153.008-.188.004-.188-.016 0-.011.012-.101.024-.199.015-.098.027-.23.023-.3l-.004-.126-.324-.007c-.379-.012-.324.019-.488-.282-.133-.25-.18-.308-.274-.36-.105-.058-.199-.073-.554-.093-.286-.015-.465-.047-.512-.082-.027-.023-.024-.16.004-.27.047-.171.008-.226-.313-.468-.476-.352-1.14-.7-1.527-.793-.133-.031-.16-.02-.215.098-.09.18-.215.558-.219.644v.078l.164.047c.11.027.2.063.25.098.047.03.211.175.364.324.156.148.32.293.363.328.047.035.172.14.281.238.106.102.27.243.364.32.093.079.207.176.25.22.117.113.87.68 1.367 1.035.824.59 2.152 1.464 3.699 2.44a158 158 0 0 1 1.152.735c.106.067.422.278.707.47.91.605 1.14.753 1.782 1.128q1.007.597 1.238.75l.133.09-.008.07c-.012.082-.215.64-.313.852-.136.304-.34.582-.46.629-.044.02-.06.02-.118-.008a.9.9 0 0 1-.308-.328c-.032-.086-.04-.246-.02-.637.008-.188.008-.191-.035-.223-.031-.027-.05-.031-.149-.023a.6.6 0 0 0-.351.156c-.043.04-.172.184-.285.32-.356.418-.45.485-.676.485a.44.44 0 0 1-.242-.051 1.15 1.15 0 0 1-.367-.344 5 5 0 0 1-.223-.39c-.164-.313-.215-.395-.324-.528-.121-.144-.38-.336-.938-.691-.41-.262-.672-.488-.898-.77q-.212-.264-.254-.476a1.6 1.6 0 0 1-.004-.324c.012-.293 0-.352-.098-.45-.129-.129-.441-.246-.664-.246-.11 0-.203.028-.226.063-.024.039.015.105.125.222.172.18.27.344.343.59.043.145.125.614.118.653-.008.027-.024.035-.051.035-.102 0-.18-.094-.336-.399-.156-.304-.238-.406-.41-.488q-.085-.042-.121-.031a.6.6 0 0 0-.153.113c-.066.066-.12.106-.14.102a.8.8 0 0 1-.14-.172c-.196-.297-.497-.68-.626-.801-.246-.234-.516-.352-.918-.406a.8.8 0 0 1-.191-.043c-.024-.024-.149-.242-.422-.723-.324-.578-.39-.777-.531-1.574-.102-.606-.211-.922-.438-1.3-.086-.145-.21-.294-.246-.294-.082 0-.156.086-.195.23-.055.196-.082.942-.051 1.31.012.097.023.487.031.87.012.61.02.711.047.832.063.266.14.48.266.73.066.138.086.192.058.192-.082 0-.562-.484-.86-.86a2.7 2.7 0 0 1-.312-.519 3.3 3.3 0 0 1-.234-.672c-.234-.875-.434-1.343-.8-1.867-.227-.328-.509-.644-.571-.644-.031 0-.031.004-.004.105.04.125.223.969.293 1.34.148.758.23 1.172.266 1.348q.074.333.015.422c-.02.035-.035.039-.101.039-.11 0-.211-.067-.422-.274-.371-.37-.61-.722-1.203-1.785l-.625-1.102a38 38 0 0 1-.786-1.421c-.117-.223-.28-.532-.363-.684l-.25-.484a7 7 0 0 0-.238-.422c-.07-.121-.184-.328-.25-.457-.14-.262-.188-.32-.211-.258m18.695 12.957c.453.3.758.527.98.726.434.391.72.665.727.7a.2.2 0 0 1-.011.09c-.032.082-.313.597-.375.699-.082.117-.286.324-.36.36-.086.038-.23.026-.34-.028-.171-.09-.484-.38-.648-.606-.254-.343-.313-.636-.313-1.62 0-.438.004-.516.024-.516.012 0 .156.09.316.195m-4.515 1.543c.222.058.343.144.508.367.21.285.363.777.363 1.172 0 .277-.067.418-.242.535a.6.6 0 0 1-.18.09q-.218.06-.867.055c-.5-.008-.492-.008-.567-.164-.152-.309-.207-.664-.191-1.235.008-.34.023-.43.094-.554.078-.13.3-.247.543-.282.164-.023.41-.015.539.016m6.898.562c.063.04.313.286.356.352q.068.107-.067.086c-.082-.012-.164-.055-.289-.152q-.142-.114-.144-.262c0-.051.003-.059.043-.059.027 0 .07.016.101.035m.957 1.004c.024.02.106.11.184.207.125.149.195.22.43.426.078.067.058.086-.09.086q-.122 0-.157.023c-.02.012-.074.086-.125.157-.113.175-.164.218-.254.218-.078 0-.086-.007-.128-.199a2.4 2.4 0 0 1-.008-.683c.008-.051.027-.133.035-.18.02-.098.043-.11.113-.055m-16.738.367a.7.7 0 0 1 .129.036c.023.02.023.093 0 .12-.07.071-.43-.046-.43-.14 0-.027.012-.031.102-.031.054 0 .144.008.199.015m0 0"/></svg>