<svg xmlns="http://www.w3.org/2000/svg" width="74px" height="82px" viewBox="0 0 74 82"><path d="M57.371.031a19.9 19.9 0 0 0-4.598 1.086 26 26 0 0 0-4.793 2.356c-1.55.968-3.25 2.27-4.707 3.597-.878.797-2.37 2.336-3.066 3.157-.055.07-.215.257-.355.421-.137.165-.301.364-.368.442-.527.66-.668.84-.879 1.11a60 60 0 0 0-1.492 2.093c-1.66 2.516-2.855 4.789-3.933 7.48a40 40 0 0 0-1.492 4.504 55 55 0 0 0-.497 2.2c-.093.492-.132.613-.199.613-.012 0-.027-.145-.039-.32-.05-.954-.11-1.477-.3-2.641-.298-1.805-.696-3.223-1.325-4.723-.144-.343-.633-1.3-.848-1.668-.699-1.187-1.69-2.383-2.601-3.133-1.637-1.343-3.246-2.066-5.324-2.386-.727-.114-1.813-.149-2.649-.082-2.02.16-4.16.855-6.218 2.027-1.333.762-2.805 1.898-4 3.094a20 20 0 0 0-1.81 2.043c-.476.62-.573.754-.983 1.355-1.575 2.309-2.778 4.88-3.649 7.79C.82 31.862.5 33.355.234 35.144c-.18 1.199-.254 2.628-.23 4.43.02 1.34.043 1.921.125 2.687.055.558.059.578.195 1.43.426 2.644 1.207 5.054 2.356 7.269.855 1.644 1.972 3.227 3.304 4.7.278.3 1.512 1.562 1.907 1.94.207.2.55.528.757.735.211.2.625.574.922.832.297.254.66.57.809.7.766.667 2.691 2.206 4.668 3.726.113.086.437.34.723.558 1.543 1.207 1.793 1.407 2.386 1.903.215.18.465.39.563.468a82.074 82.074 0 0 0 .879.758c.16.133.43.383.601.547l.711.668c.406.379.672.649 1.313 1.324.48.508.601.637.785.86.086.097.242.28.351.402.407.45 1.22 1.484 1.844 2.352.75 1.039 1.645 2.46 2.235 3.562l.316.586c.047.086.105.16.125.164.027.008.078-.055.152-.18.059-.105.38-.613.7-1.129.66-1.042.925-1.468 1.523-2.421.223-.36.5-.805.621-.993l.418-.664.61-.964c.222-.352.5-.782.609-.961.11-.18.414-.657.668-1.055.258-.402.566-.887.683-1.07.117-.188.344-.54.496-.782.157-.246.489-.761.73-1.144.837-1.32.907-1.434 1.235-1.93.184-.273.406-.613.492-.754.192-.304 1.082-1.683 1.79-2.77a230.339 230.339 0 0 1 1.508-2.312c.261-.398.605-.918.761-1.152a452 452 0 0 1 2.984-4.485 283 283 0 0 1 2.02-2.96c1.098-1.586 2.07-2.961 2.523-3.567.055-.074.246-.332.422-.574.32-.441.446-.602 1.074-1.41.18-.23.418-.535.524-.676a7 7 0 0 1 .406-.473c.309-.32.234-.32-.168.004-.11.09-.344.266-.523.395-.309.222-1.442 1.043-2.219 1.605-.203.145-.715.528-1.14.852l-1.153.875c-.352.265-1.402 1.086-1.941 1.511-1.028.817-1.618 1.29-2.098 1.692-.309.262-.79.656-1.063.887q-.737.61-1.48 1.265c-.137.121-.418.364-.617.535-.336.29-.73.649-2.446 2.211-1.058.97-3.574 3.48-4.593 4.59-.672.723-.903.977-1.137 1.242-.14.16-.332.371-.422.47-.086.1-.273.312-.41.472l-.484.566c-.13.153-.301.356-.387.453l-.367.442q-.304.362-.696.87c-.14.184-.27.31-.27.259 0-.02.048-.121.102-.22.184-.339.387-.698.606-1.093.121-.215.336-.605.488-.871.145-.266.371-.672.496-.902.13-.227.332-.594.45-.805.117-.219.32-.578.449-.809.129-.23.32-.57.425-.754.25-.445.582-1.015.735-1.277.066-.117.246-.426.394-.691.145-.266.328-.59.407-.715.21-.36.843-1.453 1.015-1.758.086-.152.266-.457.399-.68.136-.222.375-.629.53-.898.54-.926 1.114-1.898 1.575-2.656.254-.418.563-.934.688-1.149a207 207 0 0 1 1.718-2.824c.036-.05.2-.32.368-.602.171-.277.488-.792.71-1.144l.805-1.29A325 325 0 0 1 42 39.564l.84-1.305a397 397 0 0 1 4.187-6.278c.176-.25.446-.644.602-.87l1.195-1.735c.121-.18.27-.39.328-.469.059-.078.27-.375.47-.664.198-.285.64-.91.98-1.379.34-.476.699-.976.8-1.12.325-.45 1.442-1.973 2.098-2.852.82-1.102 2.59-3.434 2.875-3.793.324-.407.754-.957 1.191-1.52a51 51 0 0 1 1.332-1.644c.082-.094.153-.176.153-.192 0-.039-.153.063-.434.297-.156.129-.488.379-.734.559a161 161 0 0 0-6.961 5.261 130 130 0 0 0-3.527 2.895l-1.157.984c-.183.16-.523.453-.75.657-.222.199-.558.5-.746.664-.562.492-.976.878-2.605 2.386-.957.883-3.364 3.27-4.301 4.27-.324.34-.695.734-.828.87-.461.49-.91.985-1.453 1.606-.137.157-.387.434-.551.621-.168.188-.39.446-.5.579-.106.129-.309.363-.445.523a81 81 0 0 0-1.637 1.988c-.313.395-.461.555-.461.493 0-.047.27-.516.957-1.653.32-.531.75-1.242.95-1.578a122 122 0 0 1 2.023-3.27c.12-.187.445-.683.718-1.105a242 242 0 0 1 4.868-7.137c.28-.394.628-.882.773-1.082 1.07-1.5 3.79-5.12 4.648-6.207.102-.125.348-.437.547-.695s.43-.555.512-.652c.082-.102.363-.457.629-.797.266-.336.578-.723.691-.86.121-.14.336-.406.489-.601a97 97 0 0 1 1.535-1.871c.172-.207.445-.535.601-.73.157-.192.387-.47.512-.614.121-.14.32-.367.434-.508.527-.629 1.043-1.234 1.28-1.508.15-.164.38-.43.517-.59.539-.632 1.222-1.417 1.476-1.699.399-.437.531-.59 1.078-1.215.274-.312.59-.664.696-.78.113-.118.28-.306.378-.419.184-.21.555-.617 1.22-1.344.202-.218.53-.585.73-.804.195-.223.465-.516.597-.653.13-.136.336-.359.457-.496.121-.132.364-.398.54-.586.175-.187.363-.386.413-.445.094-.105.122-.168.075-.168-.016 0-.164-.027-.332-.062C60.832.03 60.602.012 59.023 0c-.996-.004-1.406.004-1.652.031m0 0" style="stroke:none;fill-rule:nonzero;fill:#ffffff;fill-opacity:1"/><path d="M63.422.82c-.047.055-.137.164-.2.243-.109.144-.171.222-.882 1.117-.55.695-.735.925-.969 1.222-.11.137-.363.461-.566.72l-1.211 1.562c-.485.609-1.067 1.367-1.653 2.148-.464.621-.484.645-.726.961a509 509 0 0 0-2.192 2.906c-.16.215-.484.656-.718.98-.239.321-.582.79-.766 1.04-.187.25-.437.597-.562.77-.122.171-.348.48-.497.69-.148.208-.5.696-.777 1.09-.277.391-.574.797-.656.899-.145.176-.172.227-.133.227.008 0 .098-.082.2-.18.32-.305 1.34-1.074 2.284-1.715 2.786-1.898 6.368-3.918 10.688-6.012 1.52-.742 3.598-1.707 4.746-2.203.223-.098.55-.242.734-.32.368-.16.422-.176.438-.13.012.032-.09.15-.676.75-.18.185-.48.509-.668.716-.187.207-.457.5-.601.652-.286.297-.836.899-1.145 1.25l-.39.43c-.11.113-.31.336-.446.492-.137.156-.39.438-.562.625-.293.32-.633.703-.868.98l-.34.391c-.128.149-.285.324-.343.395-.055.066-.238.277-.406.468-.168.192-.399.457-.512.59a42.86 42.86 0 0 0-.836.984c-.203.243-.418.493-.477.56-.148.16-.562.648-.863 1.015-.133.164-.351.426-.484.586-.254.304-.637.77-.985 1.187-.203.246-.691.848-1.191 1.469l-.738.91c-.477.59-.649.809-.953 1.203-.086.114-.27.348-.407.52-.261.32-.43.543-.812 1.039-.117.16-.305.394-.406.523a88 88 0 0 0-1.27 1.653c-.223.297-.492.648-.598.78-.105.138-.324.423-.48.642-.16.214-.434.578-.602.808-.175.227-.437.578-.586.781-.144.2-.414.563-.597.805-.18.242-.621.848-.98 1.344-.356.496-.813 1.125-1.012 1.402-.204.274-.567.781-.805 1.117-.238.34-.59.836-.778 1.102-.187.266-.546.773-.796 1.133l-.559.793-.496.718c-.219.313-.531.766-.695 1a445 445 0 0 0-4.707 7.036c-.137.21-.23.355-.934 1.425-.172.262-.41.637-.531.832-.125.2-.418.653-.653 1.012-.55.824-1.062 1.633-1.046 1.645.003.004.152-.2.332-.453a61 61 0 0 1 1.312-1.805c.094-.121.438-.57.758-1 .324-.434.766-1.012.984-1.29.793-1.015 1.211-1.55 1.48-1.886.15-.187.317-.406.376-.484.207-.274 2.636-3.282 3.203-3.961a210 210 0 0 1 2.594-3.07l.382-.446c.297-.351.793-.918 1.055-1.215.137-.156.344-.39.457-.523.457-.531.84-.969.98-1.117a92 92 0 0 0 1.18-1.313c.137-.152.399-.445.59-.652.906-.992 1.059-1.156 1.348-1.473.168-.183.508-.55.754-.808s.629-.668.855-.91c.223-.247.664-.712.98-1.032.317-.32.844-.875 1.176-1.223.332-.351.852-.89 1.157-1.199.304-.304 1.007-1.027 1.566-1.601 1.133-1.168 2.125-2.121 2.16-2.086.024.02-.14.215-.414.496-.426.445-.922 1-1.379 1.543a97 97 0 0 1-1.383 1.598 32 32 0 0 0-.433.507c-.11.133-.293.356-.414.496s-.285.336-.36.43a141.133 141.133 0 0 0-1.324 1.574c-.11.133-.418.516-.695.844-.274.336-.586.715-.695.852-.106.132-.395.484-.641.785-.668.816-2.086 2.586-2.516 3.133-.062.078-.222.285-.36.457-.14.172-.362.457-.5.636-.14.18-.347.446-.46.586l-.465.602c-.281.367-.887 1.152-1.195 1.55-.535.692-2.649 3.516-3.133 4.18-.152.215-.328.45-.379.52a69 69 0 0 0-1.246 1.707c-.332.484-.59.836-.754 1.027-.144.176-.176.223-.129.223.008 0 .137-.102.278-.234.406-.372 1.734-1.313 2.753-1.961a46 46 0 0 1 2.637-1.567l.774-.433c.972-.543 3.547-1.844 5.101-2.575a85 85 0 0 1 3.684-1.652c.898-.383.98-.418 1.066-.402.055.007-.008.078-.414.488a48 48 0 0 0-1.52 1.617c-.156.176-.433.48-.613.676-.68.73-1.324 1.437-1.797 1.984-.128.149-.3.34-.382.426-.348.379-1.93 2.215-2.567 2.977-.441.523-.687.82-1.015 1.207-.32.382-.621.746-.926 1.129-.094.117-.293.363-.446.546-.152.184-.347.426-.433.54l-.734.917c-.317.391-.692.86-.825 1.032-.136.18-.332.422-.43.547-.16.207-.562.722-1.527 1.996l-.55.715c-.102.136-.25.335-.333.44-.078.11-.328.45-.558.759-.234.308-.543.726-.695.933-.153.203-.332.453-.407.551a270 270 0 0 0-2.988 4.172c-.187.27-.586.844-.89 1.277-1.325 1.891-4.672 6.891-5.684 8.489-.227.363-.403.632-.969 1.504-.176.28-.445.703-.602.937-.152.242-.464.719-.695 1.063-.504.753-.48.714-.418.664a6 6 0 0 0 .328-.403c.723-.949.746-.976 1.04-1.316a36.552 36.552 0 0 1 1.426-1.629c.14-.145.429-.453.644-.691a60 60 0 0 1 2.347-2.344 116 116 0 0 1 1.649-1.512c.125-.105.308-.27.406-.363.106-.094.328-.29.5-.43s.438-.367.59-.496a62 62 0 0 1 1.426-1.184c.203-.164.476-.386.605-.496.133-.11 1.035-.832 2.008-1.601 3.98-3.157 5.918-4.707 6.598-5.274l1.152-.965a95 95 0 0 0 1.586-1.355 84 84 0 0 0 .934-.82c.382-.344.796-.711.91-.813.12-.101.359-.32.543-.492.18-.168.629-.582.996-.922.89-.816 4.031-3.945 4.597-4.578 1.578-1.766 2.086-2.363 2.934-3.453 2.094-2.684 3.914-5.531 5.25-8.215.355-.71.977-2.047 1.156-2.473 1.051-2.53 1.739-4.68 2.25-7.058.278-1.297.512-2.875.59-4.012.016-.219.043-.582.063-.809.039-.554.043-2.523 0-3.152-.094-1.379-.16-1.945-.348-3.035-.395-2.262-1.2-4.543-2.25-6.344C70.89 6.477 70.53 5.95 70 5.293c-.723-.895-1.113-1.3-1.996-2.063a14.7 14.7 0 0 0-2.996-1.94c-.57-.27-1.332-.571-1.45-.571-.023 0-.085.047-.136.101m0 0" style="stroke:none;fill-rule:nonzero;fill:#ffffff;fill-opacity:1"/></svg>