<svg width="200" height="200" version="1.1" xmlns="http://www.w3.org/2000/svg" desc="Created with imagetracer.js version 1.2.6" ><path  fill="#fff"  stroke="#fff" stroke-width="1" opacity="0" d="M 0 0 L 75.5 0 L 80.5 1 Q 82 -1.5 87.5 0 L 87.5 1 L 81.5 1 L 62.5 7 L 59.5 6 L 59.5 7 L 61 7.5 L 54.5 11 L 54.5 9 L 50 11.5 L 50.5 13 L 48.5 12 L 47.5 15 L 47.5 13 L 42 16.5 Q 44.3 17.8 41.5 19 L 41.5 17 L 39 18.5 L 40 19.5 L 36.5 23 L 37.5 20 L 34 22.5 L 35 23.5 L 23 35.5 Q 5.2 54.7 0.5 87 L 0 81.5 L 1 76.5 L 0 75.5 L 0 0 Z M 74 1 L 74 2 L 76 2 L 74 1 Z M 70 2 L 70 3 L 73 3 L 70 2 Z M 22 35 L 20 38 L 22 37 L 22 35 Z M 6 61 L 5 64 L 6 64 L 6 61 Z M 4 66 L 3 69 L 4 69 L 4 66 Z M 3 69 L 2 72 L 3 72 L 3 69 Z M 2 72 L 1 76 L 2 76 L 2 72 Z " /><path  fill="#fff"  stroke="#fff" stroke-width="1" opacity="0" d="M 112.5 0 L 123.5 1 L 124.5 0 L 200 0 L 200 75.5 L 199 79.5 Q 201.5 81 200 86.5 L 199 86.5 L 199 81.5 L 196 69.5 L 187 49.5 Q 178 34.5 165 23.5 Q 167.8 21.7 163.5 20 L 162 20.5 L 163.5 23 L 160 19.5 Q 162.3 18.3 159.5 17 L 158 17.5 L 158.5 19 L 155.5 14 L 152.5 13 L 152.5 15 L 151.5 12 L 149.5 13 L 148.5 10 L 147 10.5 L 147.5 12 L 145 10.5 L 147 9.5 L 143.5 8 L 143.5 10 L 139 7.5 L 141 6.5 L 138.5 6 L 136.5 7 Q 127.1 1.4 112.5 1 L 112.5 0 Z M 125 1 L 125 2 L 127 2 L 125 1 Z M 128 2 L 128 3 L 131 3 L 128 2 Z M 179 35 L 178 37 L 180 38 L 179 35 Z M 195 61 L 194 64 L 195 64 L 195 61 Z M 197 66 L 196 69 L 197 69 L 197 66 Z M 198 69 L 197 72 L 198 72 L 198 69 Z M 199 73 L 198 76 L 199 76 L 199 73 Z " /><path  fill="#fff"  stroke="#fff" stroke-width="1" opacity="0" d="M 96.5 11 L 113 12 L 113.5 14 L 118.5 13 L 129 16.5 L 126 17.5 L 129.5 18 L 131.5 17 L 139 20.5 L 137 21.5 L 142.5 24 L 142.5 22 L 146 24.5 L 144.5 24 L 143 24.5 L 147.5 27 L 147.5 25 L 149.5 29 L 151 28.5 L 150.5 27 L 153.5 32 L 155 31.5 L 153.5 29 L 158.5 36 L 160 35.5 L 158.5 33 Q 173.7 45.8 182 65.5 L 188 86.5 L 189 105.5 L 188 106.5 L 188 113.5 L 186 123.5 L 176 146.5 Q 168.1 159.6 156.5 169 L 157.5 166 L 154 168.5 Q 156.8 170.2 152.5 172 L 152.5 170 L 150 171.5 Q 152.3 172.8 149.5 174 L 149.5 172 L 147 173.5 Q 149.3 174.8 146.5 176 L 146.5 174 L 144 175.5 L 144.5 177 L 142.5 176 L 142.5 178 L 140.5 177 L 139.5 180 L 136.5 181 L 133.5 180 L 133.5 181 L 135 181.5 L 114.5 188 L 92.5 189 L 76.5 186 L 69 182.5 Q 69.8 180.3 67.5 181 L 67.5 183 L 65 181.5 L 67 180.5 L 64.5 180 L 63 180.5 Q 65.3 179.3 62.5 178 L 59.5 179 L 58.5 176 L 55.5 177 L 54.5 174 L 53 174.5 L 53.5 176 L 51.5 172 L 50 172.5 L 50.5 174 L 48.5 170 L 47 170.5 L 47.5 172 L 43.5 166 L 42 166.5 L 42.5 168 L 32.5 157 L 34 157.5 L 32.5 155 L 31.5 156 L 28 152.5 Q 18.7 140.3 14 123.5 L 12 114.5 L 12 106.5 L 11 105.5 L 11 94.5 L 12 93.5 L 13 81.5 L 18 65.5 Q 26.6 46.1 41.5 33 L 38.5 38 L 44 33.5 L 43 32.5 L 46.5 29 L 45.5 32 L 49 29.5 Q 46.8 28.3 49.5 27 L 49.5 29 L 52 27.5 Q 49.8 26.2 52.5 25 L 52.5 27 L 57 24.5 L 55.5 24 L 54 24.5 L 57.5 22 L 57.5 24 L 63 21.5 L 61 20.5 L 63.5 19 L 63.5 21 L 68 19.5 L 65 18.5 L 69.5 17 L 73.5 18 L 73.5 17 L 71 16.5 L 81.5 13 L 85.5 13 L 86.5 14 L 95.5 14 L 95.5 13 L 87 12.5 L 95.5 12 L 96.5 11 Z M 104 13 L 104 14 L 112 14 L 104 13 Z M 83 14 L 83 15 L 86 15 L 83 14 Z M 115 14 L 115 15 L 118 15 L 115 14 Z M 78 15 L 78 16 L 82 16 L 78 15 Z M 119 15 L 119 16 L 123 16 L 119 15 Z M 133 19 L 133 20 L 135 20 L 133 19 Z M 36 40 L 34 43 L 36 42 L 36 40 Z M 129 40 L 129 41 L 134 41 L 129 40 Z M 124 41 L 124 42 L 128 42 L 124 41 Z M 136 41 L 136 42 L 139 42 L 136 41 Z M 53 42 L 53 43 L 56 43 L 53 42 Z M 120 42 L 120 43 L 122 43 L 120 42 Z M 130 42 L 120 44 L 115 47 L 115 46 L 114 45 L 112 49 L 112 48 L 111 47 Q 108 48 110 50 Q 101 56 98 69 L 98 84 L 103 95 L 112 104 L 111 105 L 114 106 L 114 104 L 125 109 Q 140 111 147 105 L 147 107 L 150 106 Q 152 105 150 104 L 157 96 L 156 88 Q 152 86 155 85 L 153 83 L 153 85 L 150 83 L 144 84 L 138 89 L 138 87 L 126 89 L 136 89 L 136 90 Q 127 92 124 89 L 126 88 L 123 86 L 123 88 Q 117 84 116 77 Q 117 67 124 63 L 124 65 L 129 64 L 127 63 L 130 61 L 137 63 L 132 64 L 139 65 L 139 63 L 142 67 L 141 68 L 144 69 L 143 68 L 145 68 L 152 68 L 157 63 L 156 54 L 153 51 L 154 50 L 152 48 L 152 50 Q 148 48 150 46 L 148 47 L 148 46 L 146 44 L 146 46 L 140 44 L 142 43 L 142 42 L 139 43 L 130 42 Z M 49 44 L 49 46 L 44 54 L 44 99 L 46 104 L 46 106 L 50 108 L 50 106 L 51 107 L 96 107 L 98 108 L 99 105 L 98 107 L 100 107 L 101 105 Q 99 103 102 102 L 102 95 L 99 91 L 99 88 L 97 89 L 95 88 L 65 88 L 95 87 L 65 86 L 65 50 L 64 88 L 63 51 L 62 49 Q 58 47 61 46 L 59 44 L 59 46 L 55 44 L 52 45 L 49 44 Z M 44 49 L 43 53 L 44 53 L 44 49 Z M 43 53 L 42 99 L 43 99 L 43 53 Z M 159 55 L 158 63 L 159 63 L 159 55 Z M 20 65 L 19 68 L 20 68 L 20 65 Z M 98 65 L 97 68 L 98 68 L 98 65 Z M 181 65 L 180 68 L 181 68 L 181 65 Z M 155 66 L 153 68 L 155 68 L 155 66 Z M 97 68 L 96 74 L 97 74 L 97 68 Z M 145 69 L 145 70 L 152 70 L 145 69 Z M 18 70 L 17 73 L 18 73 L 18 70 Z M 119 70 L 118 75 L 119 75 L 119 70 Z M 17 73 L 16 77 L 17 77 L 17 73 Z M 184 73 L 183 77 L 184 77 L 184 73 Z M 16 77 L 15 81 L 16 81 L 16 77 Z M 119 77 L 118 81 L 119 81 L 119 77 Z M 185 77 L 184 81 L 185 81 L 185 77 Z M 97 78 L 96 84 L 97 84 L 97 78 Z M 15 81 L 14 86 L 15 86 L 15 81 Z M 147 81 L 147 82 L 149 82 L 147 81 Z M 186 81 L 185 86 L 186 86 L 186 81 Z M 144 82 L 144 83 L 146 83 L 144 82 Z M 98 84 L 97 87 L 98 87 L 98 84 Z M 140 85 L 139 87 L 141 86 L 140 85 Z M 14 86 L 13 94 L 14 94 L 14 86 Z M 187 86 L 186 94 L 187 94 L 187 86 Z M 159 89 L 158 96 L 159 96 L 159 89 Z M 188 94 L 187 105 L 188 105 L 188 94 Z M 13 95 L 12 106 L 13 106 L 13 95 Z M 104 96 L 104 102 L 105 99 L 104 96 Z M 44 99 L 43 102 L 44 102 L 44 99 Z M 106 99 L 108 102 L 109 102 L 106 99 Z M 155 100 L 153 102 L 155 102 L 155 100 Z M 14 106 L 13 114 L 14 114 L 14 106 Z M 187 106 L 186 114 L 187 114 L 187 106 Z M 52 108 L 52 109 L 96 109 L 52 108 Z M 121 109 L 121 110 L 124 110 L 121 109 Z M 139 109 L 139 110 L 141 110 L 139 109 Z M 126 110 L 126 111 L 136 111 L 126 110 Z M 47 111 L 47 112 L 52 112 L 47 111 Z M 97 111 L 97 112 L 104 112 L 97 111 Z M 149 111 L 149 112 L 154 112 L 149 111 Z M 45 112 L 44 115 L 44 114 L 43 113 Q 40 114 42 116 L 40 119 L 41 128 L 62 155 L 61 154 L 60 156 Q 61 158 63 156 L 66 161 L 69 164 L 68 165 L 71 166 L 70 165 L 72 165 Q 77 167 79 164 L 78 166 L 80 166 Q 82 165 80 164 L 92 148 L 96 144 L 97 145 L 98 143 L 97 143 L 99 140 L 101 141 Q 102 138 104 143 L 103 142 L 102 144 Q 103 146 105 144 L 117 161 L 120 164 L 119 165 L 122 166 L 121 165 L 123 165 Q 128 167 130 164 L 129 166 L 131 166 Q 133 165 131 164 L 134 160 Q 137 155 139 157 L 138 155 L 153 135 L 157 131 L 158 132 L 159 130 L 157 130 L 160 126 Q 162 118 158 117 L 159 115 L 157 113 L 157 115 L 156 112 L 154 113 L 147 112 L 146 115 L 146 114 L 145 113 Q 142 114 144 116 L 141 121 L 138 124 L 137 123 L 135 126 L 137 126 L 126 140 L 108 118 L 110 118 L 110 117 Q 109 114 108 116 L 108 115 L 105 112 L 105 114 L 104 113 Q 97 111 96 114 L 96 113 L 95 112 Q 90 114 93 116 L 75 140 L 56 117 L 57 115 L 55 113 L 55 115 L 54 112 L 52 113 L 45 112 Z M 15 114 L 14 119 L 15 119 L 15 114 Z M 186 114 L 185 119 L 186 119 L 186 114 Z M 39 118 L 38 126 L 39 126 L 39 118 Z M 162 118 L 161 126 L 162 126 L 162 118 Z M 61 119 L 60 121 L 62 122 L 61 119 Z M 16 120 L 15 123 L 16 123 L 16 120 Z M 185 120 L 184 123 L 185 123 L 185 120 Z M 184 123 L 183 127 L 184 127 L 184 123 Z M 17 124 L 16 127 L 17 127 L 17 124 Z M 18 127 L 17 130 L 18 130 L 18 127 Z M 183 127 L 182 130 L 183 130 L 183 127 Z M 19 130 L 18 133 L 19 133 L 19 130 Z M 182 130 L 181 133 L 182 133 L 182 130 Z M 74 136 L 73 138 L 75 139 L 74 136 Z M 127 136 L 125 139 L 127 138 L 127 136 Z M 48 137 L 47 139 L 49 140 L 48 137 Z M 95 146 L 93 149 L 95 148 L 95 146 Z M 168 155 L 166 158 L 168 157 L 168 155 Z M 72 166 L 72 167 L 77 167 L 72 166 Z M 123 166 L 123 167 L 129 167 L 123 166 Z M 138 178 L 137 180 L 140 179 L 138 178 Z M 128 182 L 128 183 L 130 183 L 128 182 Z M 77 184 L 77 185 L 80 185 L 77 184 Z M 121 184 L 121 185 L 124 185 L 121 184 Z M 81 185 L 81 186 L 84 186 L 81 185 Z M 117 185 L 117 186 L 120 186 L 117 185 Z M 86 186 L 86 187 L 92 187 L 86 186 Z M 109 186 L 109 187 L 115 187 L 109 186 Z M 94 187 L 94 188 L 107 188 L 94 187 Z " /><path  fill="#fff"  stroke="#fff" stroke-width="1" opacity="0" d="M 45.5 15 L 44.5 17 L 45.5 15 Z " /><path  fill="#fff"  stroke="#fff" stroke-width="1" opacity="0" d="M 154.5 15 L 155.5 17 L 154.5 15 Z " /><path  fill="#fff"  stroke="#fff" stroke-width="1" opacity="0" d="M 0.5 113 Q 7.8 156.7 37 178.5 Q 34.3 180.3 38.5 182 L 40 181.5 L 38.5 179 L 41.5 184 L 43 183.5 L 42.5 182 L 44.5 186 L 46 185.5 L 45.5 184 L 47.5 188 L 49 187.5 L 48.5 186 L 52 188.5 L 50.5 188 L 49 188.5 L 52.5 190 L 54 189.5 Q 51.8 190.8 54.5 192 L 57.5 191 L 58.5 194 L 62.5 193 L 68.5 196 L 85 199.5 L 80.5 200 L 76.5 199 L 75.5 200 L 0 200 L 0 124.5 L 1 119.5 Q -1.6 117.9 0.5 113 Z M 2 124 L 1 128 L 2 128 L 2 124 Z M 3 128 L 2 131 L 3 131 L 3 128 Z M 4 131 L 3 134 L 4 134 L 4 131 Z M 25 167 L 24 169 L 31 174 L 25 167 Z M 32 174 Q 30 177 33 176 L 32 174 Z M 64 195 L 64 196 L 66 196 L 64 195 Z M 69 197 L 69 198 L 72 198 L 69 197 Z M 73 198 L 73 199 L 75 199 L 73 198 Z " /><path  fill="#fff"  stroke="#fff" stroke-width="1" opacity="0" d="M 199.5 113 L 200 119.5 L 199 123.5 L 200 124.5 L 200 200 L 125.5 200 L 120.5 199 L 115.5 200 L 115.5 199 L 119.5 199 L 133.5 195 L 136.5 196 L 136.5 195 L 135 194.5 L 140.5 192 L 140.5 193 L 139 193.5 L 141.5 194 L 147 190.5 L 146.5 189 L 149.5 190 L 150.5 188 L 148.5 189 L 149.5 187 L 151.5 186 L 151.5 188 L 154 186.5 Q 151.8 185.2 154.5 184 L 154.5 186 L 157 184.5 Q 154.8 183.3 157.5 182 L 157.5 184 L 160 182.5 Q 157.3 180.7 161.5 179 L 161.5 181 L 164 179.5 L 163 178.5 L 179 162.5 Q 195 143.5 199.5 113 Z M 199 124 L 198 128 L 199 128 L 199 124 Z M 198 128 L 197 131 L 198 131 L 198 128 Z M 197 131 L 196 134 L 197 134 L 197 131 Z M 175 168 L 168 176 L 175 170 L 175 168 Z M 129 197 L 129 198 L 132 198 L 129 197 Z M 126 198 L 126 199 L 128 199 L 126 198 Z " /><path  fill="#fff"  stroke="#fff" stroke-width="1" opacity="0.08627450980392157" d="M 76.5 0 L 84 1.5 L 81.5 2 L 76.5 1 L 73 2.5 L 75 3.5 L 73.5 4 L 69.5 3 L 69.5 4 L 71 4.5 L 69.5 5 L 67 3.5 L 76.5 0 Z " /><path  fill="#fff"  stroke="#fff" stroke-width="1" opacity="0.08627450980392157" d="M 88.5 0 L 93 0.5 L 88.5 1 L 88.5 0 Z " /><path  fill="#fff"  stroke="#fff" stroke-width="1" opacity="0.08627450980392157" d="M 107.5 0 L 112 0.5 L 107.5 1 L 107.5 0 Z " /><path  fill="#fff"  stroke="#fff" stroke-width="1" opacity="0.08627450980392157" d="M 119.5 0 L 123.5 0 L 133 3.5 L 129.5 5 L 129.5 4 L 131 3.5 L 127.5 3 L 126 3.5 L 126.5 2 L 119.5 1 L 116.5 2 L 116.5 1 L 119.5 0 Z " /><path  fill="#fff"  stroke="#fff" stroke-width="1" opacity="0.08627450980392157" d="M 64.5 4 L 68 5.5 L 66.5 6 L 64.5 5 L 64.5 7 L 62.5 6 L 62.5 8 L 59.5 7 L 59.5 9 L 57.5 8 L 57.5 10 L 55.5 9 L 55.5 11 L 54 10.5 L 53.5 12 L 52 11.5 L 50.5 14 L 48.5 15 L 47 14.5 L 45.5 17 L 44 16.5 L 42.5 19 L 41 18.5 L 38.5 22 Q 37.3 19.8 36 22.5 L 23.5 36 L 22 35.5 L 21 37.5 Q 23.7 39.3 19.5 41 L 18 40.5 L 19 42.5 L 16 43.5 L 17 45.5 L 14 46.5 L 15 48.5 L 12.5 52 L 11 51.5 L 12 53.5 L 10 53.5 L 11 55.5 L 9 55.5 L 10 57.5 L 8 57.5 L 9 60.5 L 7.5 63 L 6.5 61 L 6 63.5 L 7 65.5 L 5.5 68 L 4.5 66 L 4 68.5 L 5 70.5 L 4 70.5 L 3.5 69 L 2 75.5 L 3 79.5 L 2 79.5 L 1.5 76 L 1 80.5 L 2 84.5 L 1 84.5 L 0 76.5 Q 10.2 40.2 36.5 20 Q 48.4 9.9 64.5 4 Z " /><path  fill="#fff"  stroke="#fff" stroke-width="1" opacity="0.08627450980392157" d="M 134.5 4 Q 163.3 14.2 180 36.5 Q 192.1 50.9 198 71.5 L 197 71.5 L 196.5 69 L 195.5 71 L 195 69.5 L 196 66.5 L 195 66.5 L 194.5 68 L 194 66.5 L 195 64.5 L 193 64.5 L 194 61.5 L 192 61.5 L 193 59.5 L 191 59.5 L 192 57.5 L 190 57.5 L 191 55.5 L 189 55.5 L 190 53.5 L 188 53.5 L 189 51.5 L 187 51.5 L 188 49.5 L 185 48.5 L 186 46.5 L 184 46.5 L 184 44.5 L 183.5 43 Q 182.2 45.3 181 42.5 L 182 40.5 Q 180 42.2 178 38.5 L 178 36.5 L 177.5 35 L 176.5 36 L 173 32.5 L 174 31.5 L 170.5 28 L 169.5 29 L 164 23.5 L 162.5 21 Q 160.7 23.7 159 19.5 L 158.5 18 Q 157.3 20.3 156 17.5 L 154.5 15 L 153 15.5 L 152.5 14 Q 151.3 16.3 150 13.5 L 149.5 12 L 148 12.5 L 147.5 11 L 146 11.5 L 146.5 10 L 144.5 11 L 143.5 9 L 142 9.5 L 142.5 8 L 140.5 9 L 140.5 7 L 137.5 8 L 137.5 6 L 135.5 7 L 135.5 5 L 132.5 6 L 132.5 5 L 134.5 4 Z " /><path  fill="#fff"  stroke="#fff" stroke-width="1" opacity="0.08627450980392157" d="M 89.5 11 L 96 11.5 L 89.5 12 L 89.5 11 Z " /><path  fill="#fff"  stroke="#fff" stroke-width="1" opacity="0.08627450980392157" d="M 104.5 11 L 110 11.5 L 104.5 12 L 104.5 11 Z " /><path  fill="#fff"  stroke="#fff" stroke-width="1" opacity="0.08627450980392157" d="M 83.5 12 L 96 13.5 L 77.5 16 L 75 14.5 L 76.5 14 L 81.5 15 L 86 13.5 Q 82.7 13.6 83.5 12 Z " /><path  fill="#fff"  stroke="#fff" stroke-width="1" opacity="0.08627450980392157" d="M 113 12 L 116 12.5 L 114 13.5 L 122.5 15 L 124.5 14 L 124.5 15 L 118.5 16 L 113 13.5 L 113 12 Z " /><path  fill="#fff"  stroke="#fff" stroke-width="1" opacity="0.08627450980392157" d="M 103.5 13 L 112 13.5 L 103.5 14 L 103.5 13 Z " /><path  fill="#fff"  stroke="#fff" stroke-width="1" opacity="0.08627450980392157" d="M 69.5 16 L 73.5 17 L 75.5 16 L 75.5 17 Q 50.9 23.9 36 40.5 Q 26.2 51.2 20 65.5 Q 14.5 77.5 13.5 94 L 12 82.5 L 13 82.5 L 13.5 86 L 14 81.5 L 13 78.5 L 14 78.5 L 14.5 81 L 15 77.5 L 14 74.5 L 15 74.5 L 15.5 77 L 16 73.5 L 15 71.5 L 16 71.5 L 16.5 73 L 17 70.5 L 16.5 69 L 18 69.5 L 17 66.5 L 18 66.5 L 18.5 68 L 19 65.5 L 18.5 64 L 20 64.5 L 19 61.5 L 22 60.5 L 21 58.5 L 23 58.5 L 22 56.5 L 24 56.5 L 23 54.5 L 26 53.5 L 25 51.5 L 28 50.5 L 27 48.5 L 30 47.5 L 29 45.5 Q 31.5 40.7 34 42.5 L 37 38.5 Q 34.8 37.3 37.5 36 L 38.5 37 L 42 33.5 L 45.5 29 L 47 29.5 L 48.5 27 L 50 27.5 L 51.5 25 L 53 25.5 L 54.5 23 L 56.5 24 L 56.5 22 L 58 22.5 L 58.5 21 L 60 21.5 L 60.5 20 L 62.5 21 L 62.5 19 L 64 19.5 L 64.5 18 L 67.5 19 L 67.5 18 L 66 17.5 L 67.5 17 L 69.5 18 L 69.5 16 Z " /><path  fill="#fff"  stroke="#fff" stroke-width="1" opacity="0.08627450980392157" d="M 124.5 16 L 128.5 17 L 130.5 16 L 130.5 18 L 133.5 17 L 133.5 18 L 132 18.5 L 134.5 19 L 136 18.5 L 135.5 20 L 137.5 19 L 137.5 21 L 139.5 20 L 140.5 22 L 142 21.5 L 142.5 23 L 144 22.5 L 143.5 24 L 145.5 23 L 147.5 26 Q 148.8 23.7 150 26.5 L 150.5 28 Q 151.8 25.8 153 28.5 L 154.5 31 Q 156.3 28.3 158 32.5 L 166.5 43 Q 168.3 40.3 170 44.5 L 170 46.5 L 170.5 48 Q 171.8 45.7 173 48.5 Q 171 52 169 47.5 L 159.5 36 L 142.5 24 L 129.5 18 L 126.5 18 L 124.5 16 Z " /><path  fill="#fff"  stroke="#fff" stroke-width="1" opacity="0.08627450980392157" d="M 128.5 40 L 134 40.5 L 123.5 42 L 123.5 41 L 128.5 40 Z " /><path  fill="#fff"  stroke="#fff" stroke-width="1" opacity="0.08627450980392157" d="M 135.5 41 L 142 42.5 L 137.5 44 L 137.5 43 L 139 42.5 Q 134.6 42.9 135.5 41 Z " /><path  fill="#fff"  stroke="#fff" stroke-width="1" opacity="0.08627450980392157" d="M 52.5 42 Q 60.8 42.8 64 48.5 L 65 50.5 L 65 86 L 94.5 86 L 97 87 L 96 78.5 L 97 78.5 L 97.5 84 L 98.5 81 L 99 83.5 L 98 86.5 L 99 86.5 L 99.5 85 L 100 86.5 L 99 90.5 L 100.5 93 L 96 89.5 L 96.5 88 L 94.5 89 L 63.5 89 L 64 87.5 L 63.5 50 L 62.5 52 L 62 50.5 L 63 48.5 Q 61 50.2 59 46.5 L 58.5 45 L 57 45.5 L 57.5 44 L 52.5 43 L 52.5 44 L 55 44.5 L 52.5 45 L 50.5 44 L 50.5 46 L 46.5 49 Q 45.3 46.8 44 49.5 L 45 53.5 L 45 98.5 L 44 101.5 L 45 101.5 L 45.5 100 L 46 101.5 L 45 103.5 Q 46.8 101.9 48.5 105 L 53 106.5 L 48.5 108 Q 43.5 105 42 98.5 L 42 53.5 L 43 49.5 L 48.5 44 L 52.5 42 Z M 44 53 L 43 99 L 44 99 L 44 53 Z M 66 87 L 66 88 L 95 88 L 66 87 Z " /><path  fill="#fff"  stroke="#fff" stroke-width="1" opacity="0.08627450980392157" d="M 119.5 42 L 125 43.5 L 122.5 44 L 119.5 43 L 119.5 44 L 121 44.5 L 119.5 45 L 117.5 44 L 117.5 46 L 115.5 45 L 115.5 47 L 114 46.5 L 112.5 49 L 111 48.5 L 104.5 56 L 103 55.5 L 104 57.5 L 101 58.5 L 102 60.5 L 100 60.5 L 101 63.5 L 100 63.5 L 99.5 62 L 98.5 64 L 98 62.5 Q 102.3 52.8 110.5 47 L 119.5 42 Z " /><path  fill="#fff"  stroke="#fff" stroke-width="1" opacity="0.08627450980392157" d="M 129.5 42 L 133 42.5 L 129.5 43 L 129.5 42 Z " /><path  fill="#fff"  stroke="#fff" stroke-width="1" opacity="0.08627450980392157" d="M 143.5 43 L 142.5 45 L 141 44.5 L 143.5 43 Z " /><path  fill="#fff"  stroke="#fff" stroke-width="1" opacity="0.08627450980392157" d="M 145.5 44 L 157 52.5 L 155.5 54 L 152 50.5 L 150.5 48 Q 149.3 50.3 148 47.5 L 147.5 46 L 146 46.5 L 145.5 45 L 144 45.5 L 145.5 44 Z " /><path  fill="#fff"  stroke="#fff" stroke-width="1" opacity="0.08627450980392157" d="M 172.5 51 L 175 51.5 L 174 53.5 L 177 54.5 L 176 56.5 L 178 56.5 L 177 58.5 L 179 58.5 L 178 60.5 L 180 60.5 L 179 62.5 L 181 62.5 L 180 64.5 L 182 64.5 L 181 67.5 L 182 67.5 L 182.5 66 L 183 67.5 L 181.5 70 L 172.5 51 Z " /><path  fill="#fff"  stroke="#fff" stroke-width="1" opacity="0.08627450980392157" d="M 157.5 54 Q 160.8 55.8 159 62.5 L 155 68 L 151.5 70 L 144.5 70 L 138.5 65 L 130 62.5 L 131.5 62 L 136.5 63 L 138 62.5 L 138.5 64 L 139.5 63 L 143 66.5 L 143.5 68 L 145.5 67 L 145.5 68 L 144 68.5 L 151.5 69 L 151.5 68 L 150 67.5 L 152.5 66 Q 154.2 68.8 156 64.5 L 156 62.5 L 156.5 61 L 157.5 63 L 158 55.5 L 157 55.5 L 156.5 57 L 156 55.5 L 157.5 54 Z " /><path  fill="#fff"  stroke="#fff" stroke-width="1" opacity="0.08627450980392157" d="M 126 61 L 129 61.5 L 127 62.5 L 129 63.5 Q 122.5 64 120 68.5 L 119 74.5 L 117.5 76 L 118 74.5 L 117 69.5 L 119 69.5 L 118 67.5 L 122.5 63 L 124 63.5 L 124.5 62 L 126 62.5 L 126 61 Z " /><path  fill="#fff"  stroke="#fff" stroke-width="1" opacity="0.08627450980392157" d="M 133.5 61 L 136 61.5 L 133.5 62 L 133.5 61 Z " /><path  fill="#fff"  stroke="#fff" stroke-width="1" opacity="0.08627450980392157" d="M 97.5 65 L 99 70.5 L 98 70.5 L 97.5 68 L 96.5 74 L 96 68.5 L 97.5 65 Z " /><path  fill="#fff"  stroke="#fff" stroke-width="1" opacity="0.08627450980392157" d="M 116.5 71 L 117 73.5 L 116 73.5 L 116.5 71 Z " /><path  fill="#fff"  stroke="#fff" stroke-width="1" opacity="0.08627450980392157" d="M 182.5 71 L 183.5 73 L 185 72.5 L 184 76.5 L 185 76.5 L 185.5 75 L 186 76.5 L 185 80.5 L 186 80.5 L 186.5 78 L 187 80.5 L 186 85.5 L 187 85.5 L 187.5 83 L 188 85.5 Q 185.2 87.3 187 93.5 L 188 93.5 L 188.5 89 L 189 93.5 L 188 94.5 L 187.5 105 L 186 86.5 L 182.5 71 Z " /><path  fill="#fff"  stroke="#fff" stroke-width="1" opacity="0.08627450980392157" d="M 198.5 73 L 200 79.5 L 199 79.5 L 198.5 76 L 197.5 78 L 197 76.5 L 198.5 73 Z " /><path  fill="#fff"  stroke="#fff" stroke-width="1" opacity="0.08627450980392157" d="M 116.5 77 L 117 79.5 L 116 79.5 L 116.5 77 Z " /><path  fill="#fff"  stroke="#fff" stroke-width="1" opacity="0.08627450980392157" d="M 118.5 77 Q 118.8 83.2 122.5 86 Q 126.5 89.5 135.5 88 L 143.5 82 L 148.5 81 L 148.5 82 L 146 82.5 L 149.5 83 L 151.5 82 L 158 87.5 L 159 95.5 L 158 95.5 L 157.5 89 L 156.5 91 L 156 89.5 L 157 87.5 Q 155 89.2 153 85.5 L 152.5 84 L 151 84.5 L 151.5 83 L 146.5 84 L 143.5 83 L 143.5 84 L 145 84.5 L 141.5 87 L 139.5 87 L 138 87.5 L 138.5 89 L 137 88.5 L 136.5 90 L 135.5 89 L 126.5 89 L 125 89.5 L 125.5 88 L 123.5 89 L 122.5 87 Q 120.8 89.8 119 85.5 L 120 83.5 L 117 82.5 L 118.5 77 Z " /><path  fill="#fff"  stroke="#fff" stroke-width="1" opacity="0.08627450980392157" d="M 198.5 81 L 199 83.5 L 198 83.5 L 198.5 81 Z " /><path  fill="#fff"  stroke="#fff" stroke-width="1" opacity="0.08627450980392157" d="M 0.5 87 L 1 92.5 L 0 92.5 L 0.5 87 Z " /><path  fill="#fff"  stroke="#fff" stroke-width="1" opacity="0.08627450980392157" d="M 199.5 87 L 200 91.5 L 199 91.5 L 199.5 87 Z " /><path  fill="#fff"  stroke="#fff" stroke-width="1" opacity="0.08627450980392157" d="M 11.5 88 L 12 93.5 L 11 93.5 L 11.5 88 Z " /><path  fill="#fff"  stroke="#fff" stroke-width="1" opacity="0.08627450980392157" d="M 128.5 90 L 134 90.5 L 128.5 91 L 128.5 90 Z " /><path  fill="#fff"  stroke="#fff" stroke-width="1" opacity="0.08627450980392157" d="M 103.5 94 L 105 97.5 Q 104.3 99.8 106.5 99 L 113 103.5 L 113.5 105 L 115 104.5 L 114.5 106 L 116.5 105 L 116.5 107 L 118.5 106 L 118.5 108 L 122.5 107 L 122.5 108 L 120 108.5 L 123.5 109 L 127.5 108 L 127.5 109 L 120.5 110 Q 110.7 106.3 104.5 99 L 99.5 107 L 95.5 109 L 51.5 109 L 51.5 108 L 96 107.5 L 94 106.5 L 97.5 105 L 99 105.5 Q 98.3 103.3 100.5 104 L 101 101.5 L 101.5 100 L 102.5 102 L 104 95.5 L 103.5 94 Z " /><path  fill="#fff"  stroke="#fff" stroke-width="1" opacity="0.08627450980392157" d="M 12.5 95 L 15 118.5 L 14 118.5 L 12.5 106 L 11.5 112 L 11 106.5 L 12 105.5 L 12.5 95 Z " /><path  fill="#fff"  stroke="#fff" stroke-width="1" opacity="0.08627450980392157" d="M 155.5 97 L 158 97.5 L 155 102 L 142.5 109 L 142.5 108 L 144 107.5 L 143.5 106 L 145.5 107 L 145.5 105 L 147 105.5 L 147.5 104 L 149 104.5 L 152.5 100 Q 154.2 102.8 156 98.5 L 155.5 97 Z " /><path  fill="#fff"  stroke="#fff" stroke-width="1" opacity="0.08627450980392157" d="M 0.5 106 L 1 112.5 L 0 112.5 L 0.5 106 Z " /><path  fill="#fff"  stroke="#fff" stroke-width="1" opacity="0.08627450980392157" d="M 186.5 106 L 188 117.5 L 187 117.5 L 186.5 114 L 185.5 119 L 185 114.5 L 186.5 106 Z " /><path  fill="#fff"  stroke="#fff" stroke-width="1" opacity="0.08627450980392157" d="M 188.5 106 L 189 110.5 L 188 110.5 L 188.5 106 Z " /><path  fill="#fff"  stroke="#fff" stroke-width="1" opacity="0.08627450980392157" d="M 134.5 108 L 141 109.5 L 138.5 110 L 134.5 109 L 134.5 108 Z " /><path  fill="#fff"  stroke="#fff" stroke-width="1" opacity="0.08627450980392157" d="M 199.5 108 L 200 112.5 L 199 112.5 L 199.5 108 Z " /><path  fill="#fff"  stroke="#fff" stroke-width="1" opacity="0.08627450980392157" d="M 125.5 110 L 136 110.5 L 125.5 111 L 125.5 110 Z " /><path  fill="#fff"  stroke="#fff" stroke-width="1" opacity="0.08627450980392157" d="M 46.5 111 L 51.5 111 L 58 115.5 L 74.5 137 L 94.5 112 L 103.5 111 L 110 116.5 L 125.5 137 L 144.5 113 Q 147.2 110.2 153.5 111 L 160 115.5 Q 163.4 118.1 162 125.5 L 130.5 166 L 122.5 167 L 115 160.5 L 100.5 141 L 98 142.5 L 79.5 166 L 74 164.5 Q 80.1 164.1 82.5 160 L 84 160.5 L 83 158.5 Q 85 154.8 87 156.5 L 86 154.5 Q 88 150.8 90 152.5 L 89 150.5 Q 91 146.8 93 148.5 L 92 146.5 L 97 142.5 Q 94.3 140.8 98.5 139 Q 103.3 138.3 104 141.5 L 103.5 143 L 107 145.5 L 107 147.5 L 107.5 149 Q 109.3 146.3 111 150.5 L 110 152.5 Q 112 150.8 114 154.5 L 113 156.5 Q 115 154.8 117 158.5 L 116 160.5 Q 118.5 158.7 121 163.5 L 121.5 165 L 123.5 164 L 123.5 165 L 122 165.5 L 128.5 166 L 128.5 165 L 127 164.5 L 128.5 164 L 130 164.5 L 133.5 160 L 135 160.5 L 136 158.5 Q 133.3 156.8 137.5 155 L 139 154.5 Q 136.3 152.8 140.5 151 L 142 151.5 L 141 149.5 Q 143 145.8 145 147.5 L 144 145.5 Q 146 141.8 148 143.5 L 147 141.5 Q 149 137.8 151 139.5 L 152 137.5 Q 149.8 136.3 152.5 135 L 154 135.5 L 155 133.5 Q 152.3 131.7 156.5 130 L 158 129.5 Q 155.8 128.3 158.5 127 L 160 127.5 L 159 125.5 L 161 125.5 L 160.5 118 L 159.5 120 L 159 118.5 L 159 116.5 L 158.5 115 L 157 115.5 L 156.5 114 L 154.5 114 L 153 113.5 L 153.5 112 L 148 112.5 L 148.5 114 L 146.5 115 L 145 114.5 L 144.5 116 L 143 115.5 L 142 117.5 Q 144.3 118.8 141.5 120 L 140 119.5 L 139 121.5 Q 141.8 123.3 137.5 125 L 136 125.5 Q 138.8 127.3 134.5 129 L 133 128.5 L 134 130.5 Q 132 134.2 130 132.5 L 131 134.5 Q 129 138.2 127 136.5 L 128 138.5 Q 126 143 124 139.5 L 125 137.5 Q 123 139.2 121 135.5 L 122 133.5 L 118 131.5 L 118 129.5 L 117.5 128 Q 115.8 130.8 114 126.5 L 115 124.5 Q 113 126.2 111 122.5 L 112 120.5 Q 110 122.2 108 118.5 L 108.5 117 L 102 113.5 L 104 112.5 L 96.5 112 L 96.5 113 L 98 113.5 L 92.5 117 L 91 116.5 L 92 118.5 Q 90 122.2 88 120.5 L 89 122.5 Q 87 126.2 85 124.5 L 86 126.5 Q 84 130.2 82 128.5 L 83 130.5 Q 81 134.2 79 132.5 L 80 134.5 L 74.5 141 Q 70.3 139.2 73 137.5 L 72.5 136 Q 70.8 138.8 69 134.5 L 70 132.5 Q 68 134.2 66 130.5 L 67 128.5 Q 65 130.2 63 126.5 L 64 124.5 Q 62 126.2 60 122.5 L 60 120.5 L 59.5 119 Q 57.7 121.8 56 117.5 L 57 115.5 L 55 115.5 L 54.5 114 L 52.5 114 L 50 113.5 L 52 112.5 L 46.5 112 L 46.5 113 L 48 113.5 L 44.5 115 L 43 114.5 L 42.5 116 L 41 115.5 L 42 117.5 L 40.5 120 L 39.5 118 L 39 125.5 L 40 125.5 L 40.5 124 L 41 125.5 L 40 127.5 L 43 128.5 L 42 130.5 Q 44.5 128.7 47 133.5 L 46 135.5 Q 48 133.8 50 137.5 L 49 139.5 Q 51 137.8 53 141.5 L 52 143.5 Q 54 141.8 56 145.5 L 55 147.5 Q 57 145.8 59 149.5 L 58 151.5 Q 60 149.8 62 153.5 L 61.5 155 L 66 158.5 L 65 160.5 Q 67.5 158.7 70 163.5 L 70.5 165 L 72.5 164 L 72.5 165 L 71 165.5 L 77 166.5 L 71.5 167 L 64 160.5 L 39 127.5 L 38 118.5 L 42.5 113 L 46.5 111 Z " /><path  fill="#fff"  stroke="#fff" stroke-width="1" opacity="0.08627450980392157" d="M 1.5 115 L 2 118.5 L 1 123.5 L 2 123.5 L 2.5 121 L 3 123.5 L 2 127.5 L 3 127.5 L 3.5 125 L 5 130.5 L 4 133.5 L 5 133.5 L 5.5 132 L 6 133.5 L 4.5 136 Q 0.4 129.6 0 119.5 L 1.5 115 Z M 4 128 L 3 131 L 4 131 L 4 128 Z " /><path  fill="#fff"  stroke="#fff" stroke-width="1" opacity="0.08627450980392157" d="M 12.5 115 L 13 117.5 L 12 117.5 L 12.5 115 Z " /><path  fill="#fff"  stroke="#fff" stroke-width="1" opacity="0.08627450980392157" d="M 198.5 116 L 199 118.5 L 198 118.5 L 198.5 116 Z " /><path  fill="#fff"  stroke="#fff" stroke-width="1" opacity="0.08627450980392157" d="M 13.5 120 L 14 122.5 L 13 122.5 L 13.5 120 Z " /><path  fill="#fff"  stroke="#fff" stroke-width="1" opacity="0.08627450980392157" d="M 15.5 120 L 16 122.5 L 15 122.5 L 15.5 120 Z " /><path  fill="#fff"  stroke="#fff" stroke-width="1" opacity="0.08627450980392157" d="M 184.5 120 L 185 122.5 L 184 126.5 L 185 128.5 L 184 128.5 L 183.5 127 L 183 129.5 L 184 131.5 L 183 131.5 L 182.5 130 L 182 132.5 L 182.5 134 L 181 133.5 L 182 135.5 L 180 135.5 L 181 138.5 L 177.5 144 L 176 143.5 L 177 145.5 L 175 145.5 L 176 147.5 L 173 148.5 L 174 150.5 L 171 151.5 L 172 153.5 Q 170 157.2 168 155.5 L 167 157.5 L 168 158.5 L 158.5 168 Q 157.3 165.8 156 168.5 L 153.5 172 L 152 171.5 L 150.5 174 L 149 173.5 L 147.5 176 L 146 175.5 L 144.5 178 L 140.5 180 L 138.5 179 L 138.5 181 L 136.5 180 L 136.5 182 L 133.5 183 L 131 181.5 Q 152.4 173.4 166 157.5 L 176.5 142 L 178 142.5 L 177 139.5 Q 182.7 131.7 184.5 120 Z " /><path  fill="#fff"  stroke="#fff" stroke-width="1" opacity="0.08627450980392157" d="M 199.5 120 L 200 123.5 L 195.5 136 L 194 132.5 L 195 132.5 L 195.5 134 L 196 131.5 L 195 129.5 L 196 129.5 L 196.5 131 L 197 128.5 L 196 126.5 L 197 126.5 L 197.5 128 L 198 124.5 L 197 122.5 L 198 122.5 L 198.5 124 L 199.5 120 Z " /><path  fill="#fff"  stroke="#fff" stroke-width="1" opacity="0.08627450980392157" d="M 16.5 124 Q 24 150.5 42.5 166 Q 53.4 176.4 69 181 L 69.5 183 L 71.5 182 L 71.5 183 L 70 183.5 L 72.5 184 L 74.5 183 L 74.5 184 L 73 184.5 L 75.5 185 L 79.5 184 L 84 185.5 L 77.5 187 L 77.5 186 L 80 185.5 L 76.5 185 L 73.5 186 L 68 184 L 67.5 182 L 65.5 183 L 54 176.5 L 53.5 175 L 51.5 175 L 43 168.5 L 42.5 167 L 41.5 168 L 31 157.5 L 28 153.5 L 29 151.5 Q 27 153.2 25 149.5 L 24 147.5 L 25 145.5 L 22 144.5 L 17 133.5 L 18 130.5 L 17 130.5 L 16.5 132 L 16 130.5 L 17 127.5 L 16 127.5 L 15.5 129 L 15 127.5 L 16.5 124 Z " /><path  fill="#fff"  stroke="#fff" stroke-width="1" opacity="0.08627450980392157" d="M 5.5 137 L 6.5 139 L 7.5 137 L 8 138.5 L 7 140.5 L 9 140.5 L 8 142.5 L 10 142.5 L 9 144.5 L 11 144.5 L 10 146.5 L 12 146.5 L 11 148.5 L 14 149.5 L 22 162.5 L 38.5 180 Q 40 177.5 41.5 181 L 50 186.5 L 49.5 188 L 51.5 187 L 65 193.5 L 63 194.5 L 65.5 195 L 67.5 194 L 71 195.5 L 68 196.5 L 71.5 197 L 73.5 196 L 73.5 197 L 72 197.5 L 75 198.5 L 72.5 199 L 50.5 190 L 31 176 Q 32.1 173.3 29.5 174 L 13 153.5 L 14 151.5 L 11 150.5 L 5 138.5 L 5.5 137 Z " /><path  fill="#fff"  stroke="#fff" stroke-width="1" opacity="0.08627450980392157" d="M 194.5 137 L 195 138.5 Q 185.4 160.9 168.5 176 Q 150.5 194 120.5 200 L 117 198.5 L 119.5 198 L 124.5 199 L 128 197.5 L 126 196.5 L 127.5 196 L 131.5 197 L 131.5 196 L 129 195.5 L 136.5 193 L 138.5 194 L 138.5 192 L 140.5 193 L 140.5 191 L 148.5 187 L 150.5 188 L 150.5 186 L 152 186.5 L 153.5 184 L 155 184.5 L 156.5 182 L 158 182.5 L 160.5 179 L 162 179.5 L 165.5 175 L 166.5 176 L 175 167.5 L 174 166.5 L 178.5 162 L 180 162.5 L 179 160.5 Q 181 156.8 183 158.5 L 182 156.5 L 185 155.5 L 184 153.5 L 187 152.5 L 186 150.5 L 188 150.5 L 187 148.5 L 189 148.5 L 188 146.5 L 190 146.5 L 189 144.5 L 191 144.5 L 190 142.5 L 192 142.5 L 191 140.5 L 193 140.5 L 192 138.5 L 194 138.5 L 194.5 137 Z " /><path  fill="#fff"  stroke="#fff" stroke-width="1" opacity="0.08627450980392157" d="M 127.5 182 L 132 183.5 L 127.5 185 L 125 183.5 L 127.5 182 Z M 128 183 L 128 184 L 130 184 L 128 183 Z " /><path  fill="#fff"  stroke="#fff" stroke-width="1" opacity="0.08627450980392157" d="M 120.5 184 L 126 185.5 L 124.5 186 L 120.5 185 L 120.5 186 L 123 186.5 L 120.5 187 L 116 185.5 L 120.5 184 Z " /><path  fill="#fff"  stroke="#fff" stroke-width="1" opacity="0.08627450980392157" d="M 85.5 186 L 92 186.5 L 81.5 188 L 81.5 187 L 85.5 186 Z " /><path  fill="#fff"  stroke="#fff" stroke-width="1" opacity="0.08627450980392157" d="M 108.5 186 Q 115.3 185.3 119 187.5 L 115.5 188 Q 114 185.5 108.5 187 L 108.5 186 Z " /><path  fill="#fff"  stroke="#fff" stroke-width="1" opacity="0.08627450980392157" d="M 93.5 187 L 107 187.5 L 93.5 188 L 93.5 187 Z " /><path  fill="#fff"  stroke="#fff" stroke-width="1" opacity="0.08627450980392157" d="M 86.5 188 L 92 188.5 L 86.5 189 L 86.5 188 Z " /><path  fill="#fff"  stroke="#fff" stroke-width="1" opacity="0.08627450980392157" d="M 108.5 188 L 113 188.5 L 108.5 189 L 108.5 188 Z " /><path  fill="#fff"  stroke="#fff" stroke-width="1" opacity="0.08627450980392157" d="M 96.5 189 L 103 189.5 L 96.5 190 L 96.5 189 Z " /><path  fill="#fff"  stroke="#fff" stroke-width="1" opacity="0.08627450980392157" d="M 76.5 197 L 79 197.5 L 76.5 198 L 76.5 197 Z " /><path  fill="#fff"  stroke="#fff" stroke-width="1" opacity="0.08627450980392157" d="M 80.5 198 L 84 198.5 L 76.5 200 L 76.5 199 L 80.5 198 Z " /><path  fill="#fff"  stroke="#fff" stroke-width="1" opacity="0.08627450980392157" d="M 85.5 199 L 92 199.5 L 85.5 200 L 85.5 199 Z " /><path  fill="#fff"  stroke="#fff" stroke-width="1" opacity="0.08627450980392157" d="M 109.5 199 L 115 199.5 L 109.5 200 L 109.5 199 Z " /><path  fill="#fff"  stroke="#fff" stroke-width="1" opacity="0.9647058823529412" d="M 37.5 22 L 38 23.5 L 31.5 29 L 37.5 22 Z " /><path  fill="#fff"  stroke="#fff" stroke-width="1" opacity="0.9647058823529412" d="M 42.5 30 L 42 31.5 L 38.5 36 L 37 35.5 L 40 34 L 42.5 30 Z " /><path  fill="#fff"  stroke="#fff" stroke-width="1" opacity="0.9647058823529412" d="M 28.5 31 L 28 32.5 L 26 35.5 L 23 37 L 19 44.5 L 21 45.5 L 20 48 L 25 46 L 25 44 Q 28.8 45.5 28 42.5 L 29 42.5 L 29.5 44 L 31 41.5 L 29 40.5 L 30.5 40 L 32.5 40 L 35 38.5 L 35.5 37 L 36 38.5 L 31 42 L 25.5 51 L 23 51.5 L 25 52.5 L 19 61.5 L 12 82.5 Q 13.2 87.3 11 88.5 L 11 111.5 Q 17.4 148.6 41.5 168 Q 53.7 178.8 70.5 185 L 86.5 189 L 102.5 190 L 103.5 189 L 112.5 189 L 122.5 187 L 134.5 183 L 141.5 179 L 143 179.5 Q 142.3 177.3 144.5 178 L 155.5 171 L 156 172.5 L 152.5 176 L 146 178.5 L 148 179 Q 146.8 183.6 149.5 185 L 150 183 L 152 182.5 Q 149.8 181.3 152.5 180 L 159 180.5 L 154.5 184 L 153 183.5 L 151.5 186 L 150 185.5 Q 150.8 187.8 148.5 187 L 137.5 193 L 121.5 198 L 109.5 199 L 108.5 200 L 92.5 200 L 91.5 199 L 84.5 199 L 74.5 197 L 50.5 187 Q 33.6 177.4 22 162.5 Q 11.2 149.3 5 131.5 L 1 114.5 L 0 93.5 L 4 71.5 L 9 58.5 Q 16.3 42.3 28.5 31 Z M 20 50 Q 19 53 22 52 Q 23 49 20 50 Z M 21 53 Q 19 56 22 55 L 21 53 Z " /><path  fill="#fff"  stroke="#fff" stroke-width="1" opacity="0.9647058823529412" d="M 51.5 45 L 53.5 46 L 55 45.5 L 53.5 48 L 51 47 L 51.5 45 Z " /><path  fill="#fff"  stroke="#fff" stroke-width="1" opacity="0.9647058823529412" d="M 56.5 45 L 59 46.5 L 56 47 L 56.5 45 Z " /><path  fill="#fff"  stroke="#fff" stroke-width="1" opacity="0.9647058823529412" d="M 47.5 48 L 48 49.5 L 45.5 54 L 46 50.5 L 47.5 48 Z " /><path  fill="#fff"  stroke="#fff" stroke-width="1" opacity="0.9647058823529412" d="M 60.5 49 Q 63.1 48.2 62 51.5 L 63 52.5 L 63 89 L 77.5 89 L 78 91 L 69 92 L 69 96 L 76 96 L 76 100 L 84 100 L 84 103.5 L 83.5 105 L 94.5 105 L 95 103.5 Q 96.2 101 100 102 L 100.5 94 L 102 96.5 L 101 101.5 L 98.5 105 L 96.5 106 Q 95 103.5 93.5 107 L 53.5 107 L 46 102.5 L 45 99.5 L 45 55 L 47.5 54 L 48 55.5 L 47 56.5 L 47 70.5 L 48 76 Q 54 74 52 80 L 58 80 L 58 87.5 L 59.5 87 Q 62.1 87.8 61 84.5 L 60 80.5 L 60 78.5 L 61 75.5 L 61 50.5 L 60.5 49 Z " /><path  fill="#fff"  stroke="#fff" stroke-width="1" opacity="0.9647058823529412" d="M 98 71 L 100 71.5 L 99 73.5 Q 101.2 74.8 98.5 76 L 98 73.5 L 98 71 Z " /><path  fill="#fff"  stroke="#fff" stroke-width="1" opacity="0.9647058823529412" d="M 55.5 76 L 56 78.5 L 55 78.5 L 55.5 76 Z " /><path  fill="#fff"  stroke="#fff" stroke-width="1" opacity="0.9647058823529412" d="M 98.5 77 Q 101.2 78.3 99 79.5 L 98.5 81 L 98.5 77 Z " /><path  fill="#fff"  stroke="#fff" stroke-width="1" opacity="0.9647058823529412" d="M 117.5 84 L 119 84.5 L 116.5 86 L 117.5 84 Z " /><path  fill="#fff"  stroke="#fff" stroke-width="1" opacity="0.9647058823529412" d="M 88.5 89 L 90.5 90 L 92 89.5 Q 91.3 91.8 87.5 91 L 88.5 89 Z " /><path  fill="#fff"  stroke="#fff" stroke-width="1" opacity="0.9647058823529412" d="M 79.5 90 L 86 90.5 L 79.5 91 L 79.5 90 Z " /><path  fill="#fff"  stroke="#fff" stroke-width="1" opacity="0.9647058823529412" d="M 97.5 90 L 98 92 L 100 92.5 L 98.5 93 L 97.5 90 Z " /><path  fill="#fff"  stroke="#fff" stroke-width="1" opacity="0.9647058823529412" d="M 105.5 96 Q 108.8 94.9 108 97.5 L 110 100.5 L 105.5 96 Z " /><path  fill="#fff"  stroke="#fff" stroke-width="1" opacity="0.9647058823529412" d="M 119 105 Q 122 104 121 107 Q 118 108 119 105 Z " /><path  fill="#fff"  stroke="#fff" stroke-width="1" opacity="0.9647058823529412" d="M 48.5 113 L 56 116.5 L 72 137.5 L 71.5 139 L 74.5 141 L 94.5 115 L 96.5 114 L 97.5 116 L 98 113 Q 103.6 111.1 102 116 Q 99 114.8 100 118.5 L 100 120.5 L 100 124 L 108.5 124 L 110 122.5 L 107.5 119 L 111 121.5 L 115 127.5 L 113 131.5 L 116 132 L 116.5 129 L 124 138.5 L 122.5 139 L 120 137.5 L 121 139.5 L 119 138.5 L 118 135 L 112 136 L 110 140 Q 113.7 138.8 112 144 L 118.5 144 L 119 145.5 L 121.5 146 Q 125.3 145 124 148 L 128 148 L 128 152 L 134.5 152 L 136.5 153 L 143 145.5 L 142.5 144 L 144 144.5 L 151.5 135 L 151 136.5 L 144 147 Q 141.3 145.9 142 148.5 L 129.5 164 L 124.5 165 L 117 159.5 L 101 137 Q 98.3 135.9 99 138.5 L 79.5 163 L 73.5 165 L 66 159.5 L 43 129.5 Q 40 126.5 40 120.5 L 43.5 115 L 48.5 113 Z M 93 118 L 93 121 Q 97 122 96 120 L 93 118 Z M 92 121 L 90 123 Q 89 125 92 124 L 92 121 Z M 111 123 L 111 126 Q 114 125 111 123 Z M 108 128 Q 106 133 110 132 L 111 130 Q 112 127 108 128 Z M 132 156 L 132 159 L 134 158 Q 135 155 132 156 Z " /><path  fill="#fff"  stroke="#fff" stroke-width="1" opacity="0.9647058823529412" d="M 103.5 114 L 108 117.5 L 105.5 119 L 104.5 116 Q 101.7 116.7 103.5 114 Z " /><path  fill="#fff"  stroke="#fff" stroke-width="1" opacity="0.9647058823529412" d="M 144.5 116 L 143.5 118 L 144.5 116 Z " /><path  fill="#fff"  stroke="#fff" stroke-width="1" opacity="0.9647058823529412" d="M 157.5 116 L 159 118.5 L 158 118.5 L 157.5 116 Z " /><path  fill="#fff"  stroke="#fff" stroke-width="1" opacity="0.9647058823529412" d="M 140.5 121 L 141 122.5 L 140 125 L 137.5 126 L 140 122.5 L 140.5 121 Z " /><path  fill="#fff"  stroke="#fff" stroke-width="1" opacity="0.9647058823529412" d="M 136.5 127 L 138 127.5 L 134.5 130 L 136.5 127 Z " /><path  fill="#fff"  stroke="#fff" stroke-width="1" opacity="0.9647058823529412" d="M 156.5 129 L 154.5 132 L 156.5 129 Z " /><path  fill="#fff"  stroke="#fff" stroke-width="1" opacity="0.9647058823529412" d="M 133.5 131 L 131.5 134 L 133.5 131 Z " /><path  fill="#fff"  stroke="#fff" stroke-width="1" opacity="0.9647058823529412" d="M 130 135 L 132 135.5 L 128.5 138 L 128.5 137 Q 131.1 137.7 130 135 Z " /><path  fill="#fff"  stroke="#fff" stroke-width="1" opacity="0.9647058823529412" d="M 127.5 139 L 129 139.5 L 127 142.5 L 127.5 144 L 125.5 144 L 124 143.5 L 126 142.5 Q 123.2 140.8 127.5 139 Z " /><path  fill="#fff"  stroke="#fff" stroke-width="1" opacity="0.9647058823529412" d="M 170.5 155 L 170 156.5 L 159.5 169 L 156.5 170 L 157.5 168 L 168 158.5 L 170.5 155 Z " /><path  fill="#fff"  stroke="#fff" stroke-width="1" opacity="0.9647058823529412" d="M 177.5 161 L 179 161.5 L 176.5 163 L 177.5 161 Z " /><path  fill="#fff"  stroke="#fff" stroke-width="1" opacity="0.9647058823529412" d="M 173.5 167 L 166.5 175 L 166 173.5 L 171 169.5 Q 170.3 167.3 172.5 168 L 173.5 167 Z " /><path  fill="#fff"  stroke="#fff" stroke-width="1" opacity="0.9647058823529412" d="M 164.5 174 L 165 175.5 L 160.5 179 L 154 176.5 L 160.5 176 L 162.5 176 Q 165 176.7 164.5 174 Z " /><path  fill="#fff"  stroke="#fff" stroke-width="1" opacity="0.9725490196078431" d="M 93.5 0 L 115.5 1 L 134.5 6 L 154.5 16 L 173 31.5 Q 185.4 44.6 193 62.5 L 198 78.5 L 198 84.5 L 200 92.5 L 200 107.5 L 199 108.5 L 199 115.5 L 197 125.5 L 188 148 Q 185 146.8 186 150.5 L 178.5 161 L 176 162.5 L 177 163.5 L 172.5 168 Q 170.3 167.3 171 169.5 L 166 173.5 L 165.5 175 L 164 174.5 Q 164.8 176.8 162.5 176 L 160.5 176 L 154 176.5 L 160 178 L 159.5 180 L 152.5 180 L 151.5 183 Q 149.3 182.3 150 184.5 L 150.5 186 Q 146.8 184.5 148 179 L 145.5 180 L 146.5 178 Q 153.1 177.1 156 172.5 L 155.5 171 L 154 171.5 L 159.5 169 L 166 162.5 L 172 152 L 174 152 Q 172.9 149.3 175.5 150 L 176 147.5 L 186 126.5 L 189 110.5 L 189 89.5 Q 182.1 49.9 155.5 30 Q 142.6 19.4 124.5 14 L 109.5 11 L 89.5 11 L 63.5 18 L 52.5 24 L 42.5 32 Q 41.3 29.8 40 32.5 Q 40.8 34.8 38.5 34 L 37 37 Q 34.3 35.9 35 38.5 L 31 41.5 L 31.5 43 L 30 42.5 L 29.5 44 L 28.5 42 L 28 44 L 25 44 Q 26.1 46.7 23.5 46 L 24 47.5 L 23.5 49 L 22.5 47 L 20 48 L 21 45.5 L 19 44.5 L 23 37 L 26 35.5 L 28 32.5 L 30.5 29 L 38 23.5 L 38.5 22 L 40 22.5 Q 38.9 19.2 41.5 20 L 47.5 15 L 60.5 8 L 75.5 3 Q 81.6 3.6 84.5 1 L 92.5 1 L 93.5 0 Z " /><path  fill="#fff"  stroke="#fff" stroke-width="1" opacity="0.9725490196078431" d="M 125.5 43 Q 147.7 41.8 156 54.5 L 157 60.5 L 153.5 66 L 146.5 68 L 135.5 61 L 126.5 61 L 118 67.5 Q 114.5 71.5 116 80.5 L 118 83.5 L 117.5 85 L 120.5 87 L 124.5 90 L 134.5 92 L 135 90 L 145.5 84 L 150.5 84 L 155 87.5 L 157 94.5 L 155 99 L 144.5 106 L 138.5 108 L 128.5 109 L 124 108 L 123.5 106 L 121 107 Q 122.1 104.3 119.5 105 L 117.5 106 L 115.5 103 L 113.5 103 L 110.5 101 L 108 96 L 104 94.5 L 100 87.5 L 99 79.5 L 99 73.5 L 100 71.5 L 99 68.5 L 100 64 L 102 63.5 L 101 61.5 L 111.5 49 L 125.5 43 Z " /><path  fill="#fff"  stroke="#fff" stroke-width="1" opacity="0.9725490196078431" d="M 52.5 45 L 54.5 46 L 56 45.5 Q 55.1 48.5 59.5 47 L 61 50.5 L 61 75.5 L 60 78.5 L 60 80.5 L 61 87 L 58.5 88 L 58 80 L 52 80 Q 54 74 48 76 L 48 71.5 L 47 70.5 L 47 56.5 L 48 54.5 L 46.5 55 L 45 54.5 L 45.5 52 L 47 52.5 L 49.5 46 L 53.5 48 L 54 46 L 52.5 45 Z M 56 76 L 55 79 L 56 79 L 56 76 Z " /><path  fill="#fff"  stroke="#fff" stroke-width="1" opacity="0.9725490196078431" d="M 20 50 Q 23 49 22 52 Q 19 53 20 50 Z " /><path  fill="#fff"  stroke="#fff" stroke-width="1" opacity="0.9725490196078431" d="M 20.5 53 L 21.5 55 Q 18.7 55.7 20.5 53 Z " /><path  fill="#fff"  stroke="#fff" stroke-width="1" opacity="0.9725490196078431" d="M 16.5 61 L 17.5 63 L 16.5 61 Z " /><path  fill="#fff"  stroke="#fff" stroke-width="1" opacity="0.9725490196078431" d="M 78 89 L 88 89.5 L 87.5 91 L 91 90.5 L 89 89.5 L 90.5 89 L 92.5 89 Q 96.3 88.3 97 90.5 L 97.5 92 L 99 91.5 L 98.5 93 L 101 93.5 L 100 94.5 L 100 102 Q 96.2 101 95 103.5 L 96 105.5 L 94.5 105 L 83 104.5 L 84 100 L 76 100 L 76 96 L 69 96 L 69 92 L 78 91 L 78 89 Z M 80 90 L 80 91 L 86 91 L 80 90 Z " /><path  fill="#fff"  stroke="#fff" stroke-width="1" opacity="0.9725490196078431" d="M 61.5 90 L 62.5 92 L 61.5 90 Z " /><path  fill="#fff"  stroke="#fff" stroke-width="1" opacity="0.9725490196078431" d="M 101.5 97 L 102 99.5 L 101 99.5 L 101.5 97 Z " /><path  fill="#fff"  stroke="#fff" stroke-width="1" opacity="0.9725490196078431" d="M 77.5 103 L 78.5 105 L 77.5 103 Z " /><path  fill="#fff"  stroke="#fff" stroke-width="1" opacity="0.9725490196078431" d="M 150.5 113 L 157 115 L 160 120.5 L 160 123.5 L 159 126 L 157 126.5 L 158 127.5 L 154 131.5 Q 154.8 133.8 152.5 133 L 152.5 135 L 148 138.5 L 142 146.5 L 142.5 148 L 141 147.5 L 136.5 153 L 128 152 L 128 148 L 124 148 Q 125.3 145 121.5 146 L 119 145.5 L 118.5 144 L 112 144 L 112 140 Q 109 141 110 138 L 112 138 Q 110.9 135.3 113.5 136 L 118 134.5 L 117 132.5 L 118 132.5 L 119 134.5 L 118 136.5 L 119.5 139 L 120.5 137 L 125 140.5 L 126.5 143 L 129 139.5 L 128.5 138 L 130 137.5 L 129.5 136 Q 130.8 138.3 132 135.5 L 131 134.5 L 134 131.5 L 135.5 129 L 138 127.5 Q 135.8 126.2 138.5 125 Q 140.8 125.8 140 123.5 L 141 120 Q 143.7 121.1 143 118.5 L 145 115 L 150.5 113 Z " /><path  fill="#fff"  stroke="#fff" stroke-width="1" opacity="0.9725490196078431" d="M 102.5 114 L 103 116 L 108 118.5 L 107 119.5 L 112 124.5 L 110.5 126 L 109.5 123 L 108.5 124 L 100 124 L 99 119.5 L 100 116 Q 102.8 117 102.5 114 Z " /><path  fill="#fff"  stroke="#fff" stroke-width="1" opacity="0.9725490196078431" d="M 95.5 117 L 96 119.5 Q 96.8 122.5 93 121 Q 91.5 117.3 94.5 118 L 95.5 117 Z " /><path  fill="#fff"  stroke="#fff" stroke-width="1" opacity="0.9725490196078431" d="M 91.5 121 L 92 124 Q 89.3 125.1 90 122.5 L 91.5 121 Z " /><path  fill="#fff"  stroke="#fff" stroke-width="1" opacity="0.9725490196078431" d="M 112.5 126 L 116 128 Q 118.1 133.2 113.5 132 L 114 130.5 L 112.5 126 Z " /><path  fill="#fff"  stroke="#fff" stroke-width="1" opacity="0.9725490196078431" d="M 108 128 Q 111.8 126.5 111 129.5 L 110 132 Q 106.3 133.2 108 128 Z " /><path  fill="#fff"  stroke="#fff" stroke-width="1" opacity="0.9725490196078431" d="M 105.5 138 L 108 141.5 L 106 142.5 L 106 140.5 L 105.5 138 Z " /><path  fill="#fff"  stroke="#fff" stroke-width="1" opacity="0.9725490196078431" d="M 132 156 Q 134.7 154.9 134 157.5 L 132 158.5 L 132 156 Z " /><path  fill="#fff"  stroke="#fff" stroke-width="1" opacity="0.9725490196078431" d="M 129.5 161 L 128.5 163 L 129.5 161 Z " /><path  fill="#fff"  stroke="#fff" stroke-width="1" opacity="0.9725490196078431" d="M 139.5 182 L 138.5 184 L 139.5 182 Z " /></svg>