<svg fill="white" xmlns="http://www.w3.org/2000/svg" viewBox="0 0 266 266"><path d="M58.5 208.721c4.439-3.998 9.67-10.76 16.805-21.721 2.256-3.467 6.027-13.079 7.104-18.11 1.21-5.65.768-30.63-.583-32.981-6.743-11.733-16.022-16.36-25.155-12.545-4.86 2.03-8.963 7.326-8.169 10.544.783 3.174 1.678 4.151 4.117 4.498 2.705.384 6.432 6.337 6.165 9.844-.222 2.921-4.662 7.756-7.11 7.744-3.39-.016-8.792-2.345-9.798-4.225-.63-1.18-1.198-5.13-1.261-8.778-.097-5.59.295-7.252 2.49-10.562 3.836-5.783 8.487-9.972 14.222-12.81 9.74-4.82 23.43-1.824 33.048 7.232 2.965 2.792 3.994 3.297 4.382 2.149.757-2.237 11.135-11.758 15.946-14.627 5.616-3.351 14.255-4.286 17.848-1.932 4.217 2.763 5.703 7.668 4.905 16.186-.613 6.54-.49 7.423 1.123 8.042 1.378.529 2.778-.485 5.849-4.237 10.464-12.784 20.044-19.888 25.381-18.82 4.655.93 6.382 4.354 6.306 12.498-.073 7.784-1.368 13.392-7.085 30.677-5.01 15.148-5.668 19.203-3.982 24.529 3.085 9.744 8.805 13.625 20.137 13.662 3.677.012 7.852-.422 9.277-.964 5.925-2.252 16.984-14.979 20.868-24.014 4.479-10.417 7.055-23.847 6.345-33.065-.64-8.3-4.73-24.96-7.766-31.63-1.05-2.307-1.909-4.467-1.909-4.799 0-1.996-15.575-22.742-18.531-24.683-.567-.373-2.592-2.053-4.5-3.734s-3.738-3.064-4.066-3.073c-.328-.009-1.678-.979-3-2.155-3.573-3.18-25.442-13.532-32.903-15.574-4.784-1.309-9.933-1.757-19.5-1.697-14.111.089-20.78 1.447-32.343 6.59-7.729 3.436-8.98 3.584-3.657.433 14.927-8.839 40.225-11.423 60.25-6.155 20.23 5.322 31.63 11.936 47.053 27.303 6.216 6.193 11.027 11.705 10.69 12.25-.336.544-.205.989.292.989 1.761 0 11.145 21.653 13.652 31.5 4.828 18.97 2.699 42.26-5.344 58.471-4.313 8.692-12.638 20.58-16.449 23.487-5.754 4.389-15.339 7.727-22.097 7.695-3.326-.016-7.007-.246-8.18-.511-7.036-1.59-16.085-9.33-18.964-16.22-1.891-4.526-1.773-16.334.232-23.268.9-3.11 2.961-8.557 4.581-12.105 6.317-13.836 10.17-37.196 6.374-38.653-2.539-.974-7.949 2.769-16.44 11.373-9.208 9.333-9.996 10.764-13.637 24.776-3.005 11.567-3.395 27.79-.937 38.955 3.528 16.025 3.6 15.027-1.067 14.843-3.156-.124-4.545-.821-6.643-3.334-2.455-2.941-2.704-4.119-3.348-15.843-.534-9.725-.347-14.175.806-19.166.826-3.575 1.747-8.075 2.046-10 .3-1.925 1.45-7.325 2.558-12 1.368-5.77 2.056-12.353 2.144-20.5.139-12.85-.346-15.434-2.929-15.615-5.8-.407-10.175 1.875-17.804 9.288-8.783 8.534-8.53 8.046-6.747 13.012.853 2.373 1.804 8.4 2.116 13.392.482 7.745.25 9.922-1.588 14.831-2.27 6.067-4.984 11.753-6.011 12.592-.337.275-1.286 1.848-2.11 3.495-4.027 8.048-28.703 29.486-35.817 31.115-2.344.538-2.052.047 2.318-3.889zm46.07-44.608c-.909-1.47 2.337-3.606 3.585-2.358.589.589.768 1.56.399 2.158-.81 1.31-3.223 1.432-3.984.2zm86.402-13.647c-.91-1.096-1.046-2.125-.414-3.127 1.32-2.092 2.543-2.127 3.816-.108.835 1.324.723 2.1-.477 3.3-1.425 1.426-1.693 1.42-2.925-.065zM105 148.073c0-1.43.642-2.073 2.073-2.073s1.97.539 1.739 1.739c-.502 2.606-3.812 2.897-3.812.334Zm35.412-48.442c-.75-1.956.272-3.631 2.217-3.631.981 0 1.398.76 1.19 2.172-.387 2.637-2.593 3.581-3.407 1.459zm36.968-.083c-.697-1.815.315-3.548 2.072-3.548 1.825 0 2.644 2.504 1.27 3.878-1.523 1.523-2.674 1.41-3.342-.33zm-86.47-5.156c-1.134-1.367-1.047-1.819.582-3.01 1.647-1.204 2.119-1.2 3.35.03 1.65 1.652.89 4.588-1.188 4.588-.775 0-2.01-.724-2.744-1.608Zm36.785-9.745c-.699-1.82.097-2.647 2.545-2.647 1.273 0 1.795.578 1.572 1.739-.422 2.191-3.375 2.843-4.117.908z"/></svg>