<svg xmlns="http://www.w3.org/2000/svg" viewBox="0 0 266 266"><path fill="#fff" d="M39.17 222v-1.04h3.193c4.49-1.728 9.892-4.885 12.387-7.26l3.25-3.092V62.27l-2.234-2.885c-3.964-5.118-5.348-6.355-9.343-8.348L42.5 49.08l33-.04 33-.04v173h-35zm66.703-86.699V50.548c-1.102 0-6.956 5.27-9.675 8.837L94 62.27v73.46c0 73.445 0 73.462 2.139 76.465 1.975 2.774 7.982 7.094 9.734 7.102zM152.251 222v-1.04h3.077c4.741-1.808 9.336-4.356 12.422-7.276l3.25-3.076V62.27l-2.234-2.885c-3.964-5.118-5.348-6.355-9.343-8.348L155.5 49.08l33-.04 33-.04v173h-35.032zm66.466-86.935V50.673c-1.102 0-6.8 5.145-9.519 8.712L207 62.27v73.46c0 73.445 0 73.462 2.139 76.465 1.975 2.774 7.826 6.858 9.578 6.867zm-77.872 25.857c-3.208-.466-5.21-1.726-7.293-3.315-1.88-1.434-4.37-2.607-5.535-2.607-2.371 0-5.36-.942-7.442-2.839-1.192-1.086-1.803-2.648-2.55-4.114-1.476-2.892-2.234-3.88-4.277-4.137 0 0-1.224.142-1.714.037-.583-.125-1.05-.505-1.05-.505l2.474-2.163c1.467-1.283 3.361-1.862 3.966-2.424.511-.475-.109-.975-.546-1.502-.365-.44-.845-1.287-.82-2.32.066-2.691 1.454-6.706 3.322-9.633 1.079-1.69 3.264-3.585 5.676-4.62 1.466-.63 3.977-1.055 5.401-1.044 1.473.012 2.95-.687 4.084-1.413 1.69-1.081 5.81-1.522 10.134-1.475 2.073.022 4.45-.069 6.116.262 1.13.224 2.56.942 3.235 1.29 4.011 2.075 6.974 6.224 6.974 9.3 0 2.618 1.502 5.945 3.656 8.1 1.554 1.553 2.543 3.44 2.26 5.624-.18 1.387-.74 2.408-1.66 4.047-1.254 2.23-2.807 4.529-3.19 4.529-.381 0-1.383 1.352-2.068 3.005-1.646 3.974-7.02 9.087-9.8 8.93-2.645-.25-7.064-.68-9.353-1.013zm13.2-2.204c1.884-2.125 4.955-5.928 4.955-7.586 0-1.176-1.78-1.322-10.25-.843-9.416.534-9.936 1.18-12.923-.827-1.788-1.202-4.085-3.75-4.396-4.712-.736-2.276-1.66-2.213-3.178.217-.826 1.323-.932 2.748-.321 4.353 1.232 3.241 8.696 9.445 11.933 9.975 5.723.936 12.944.82 14.18-.577zm-26.638-7.22c-1.017-1.552-1.544-3.38-1.22-5.366.169-1.03.699-1.969 1.228-3.215.405-.954.158-1.643-.622-1.734-.71-.082-2.703-.426-4.428-.763-1.777-.348-4.129-.081-5.43.615-1.987 1.063-2.09 1.378-.769 2.347.443.324 1.275 1.034 1.896 1.9.557.777.903 1.68 1.35 2.543.95 1.839 3.142 3.946 4.903 4.711 4.496 1.956 4.953 1.802 3.092-1.038zm35.612-5.249c1.09-1.385 1.981-3.886 1.981-5.558l-.086-2.91-2.164 1.92c-4.137 3.671-6.163 4.674-13.56 4.321-2.878-.137-4.815-1.445-5.948-1.353-1.569.126-2.07 2.128-2.025 3.383.009.267.047.595.164.853.13.287.337.5.282.66-.133.388-.924.37-1.047.416-.36.134-.747-1.15-1.93-3.832-1.975-4.477-5.098-7.63-6.623-6.688-2.008 1.241-1.059 4.948 2.102 8.21l3.165 3.264c-.018-.018 6.925.16 10.193-.118.579-.049 1.66-.526 1.66-.526 1.709-.022 2.655-.239 4.374.062.725.127 1.065.558 1.596.55 1.72-.023 2.824.038 4.09-.034 1.494-.085 3.776-1.708 3.776-2.62zm-2.916-6.858c2.181-2.322 2.203-2.526.623-5.84-3.038-6.37-4.775-6.272-11.154.631-3.114 3.37-5.305 6.478-4.867 6.906.925.906 7.808 1.572 10.966 1.06 1.194-.193 3.188-1.434 4.432-2.757zm-17.771 1.944c.365-.366-.396-2.503-1.692-4.75-.652-1.13-1.563-2.175-2.115-3.432-.545-1.243-.734-2.7-.92-3.47-.998-4.152-4.017-3.212-4.403 1.372-.121 1.438-.45 2.996.078 4.027.513 1.003 1.861 1.478 3.164 2.918 1.266 1.4 2.06 3.26 2.855 3.898 1.25 1 2.238.232 3.033-.563zm-12.353-2.482c.467-.815.149-1.995-1.031-2.37-2.236-.71-3.755-2.824-3.883-5.282-.1-1.89.51-3.981 1.76-6.016.338-.552.85-1.056 1.274-1.595 2-2.543 2.043-2.59.05-2.59-.813 0-1.56.277-2.381.695-2.174 1.106-4.324 3.404-5.76 6.14-1.497 2.853-2.222 6.173-1.578 8.742.47 1.87.539 2.2 3.979 2.51 1.133.102 2.701-.089 3.837.01 1.204.105 1.953.497 2.276.547 1.008-.118 1.119-.2 1.457-.79zM147 132.512c0-1.26-2.813-4.155-3.307-3.404-.142.215-.816 1.125-1.497 2.02-.935 1.23-.97 2.333-.14 4.5l1.1 2.872 1.922-2.36c1.057-1.3 1.922-2.932 1.922-3.628Zm-15.089-3.394c.108-1.085 1.044-1.556 1.129-2.027.098-.544-.557-.766-.798-.864-.45-.183-1.257-1.144-1.275-2.06-.044-2.187-2.103-.314-3.289 2.26-.587 1.273-.764 2.815-.764 3.93 0 3.662.687 4.643 3.148 4.643.637 0 1.47-.103 1.758-1.077.302-1.014-.071-3.174.091-4.805zM154 124.707c0-1.244-.685-3.24-1.521-4.434-1.375-1.962-2.257-2.14-9.114-1.847-7.682.329-9.316 1.152-9.35 4.707-.008.899.888 1.87 1.992 2.158 1.255.329 2.238 1.683 2.625 3.617.459 2.295 1.303 3.401 1.985 3.038.32-.171.299-1.079.604-1.873.362-.944.726-1.303.74-1.786.025-.853-.504-1.016-1.625-.586-1.119.43-1.427.256-.941-.531.917-1.484 4.855-1.52 6.318-.057 2.683 2.683 4.396-1.715 2.291-6.066-.332-.686-2.36-2.02-3.284-2.72-.66-.5-.371-.53-.257-.444.136.1 1.311.04 2.584.877.661.436 1.734 1.655 2.017 1.98 2.431 2.79 2.515 5.535.436 7.26-.825.685-1.487 2.202-1.47 3.372.026 1.922.316 1.812 3-1.138 1.633-1.796 2.97-4.283 2.97-5.527Zm5.132 1.14c-.508-1.336-1.675-3.053-2.593-3.815-1.502-1.247-1.638-1.092-1.355 1.541.175 1.62 1.208 3.448 2.314 4.095 2.526 1.477 2.78 1.194 1.634-1.82z"/></svg>