<svg width="109" height="122" version="1.1" xmlns="http://www.w3.org/2000/svg" viewBox="-40 -40 189 202" desc="Created with imagetracer.js version 1.2.6" ><path  fill="#fff"  stroke="#fff" stroke-width="1" opacity="0.984313725490196" d="M 24.5 7 L 25 9.5 L 24 9.5 L 24.5 7 Z " /><path  fill="#fff"  stroke="#fff" stroke-width="1" opacity="0.984313725490196" d="M 53.5 13 L 56 13.5 L 53.5 14 L 53.5 13 Z " /><path  fill="#fff"  stroke="#fff" stroke-width="1" opacity="0.984313725490196" d="M 25.5 17 L 26 20 L 24 19.5 L 25.5 17 Z " /><path  fill="#fff"  stroke="#fff" stroke-width="1" opacity="0.984313725490196" d="M 36.5 20 L 43.5 20 L 44 21.5 L 40.5 27 L 39 22 L 36.5 20 Z " /><path  fill="#fff"  stroke="#fff" stroke-width="1" opacity="0.984313725490196" d="M 66.5 21 L 66 22.5 L 66 24 Q 69.8 22.5 69 25.5 L 66.5 27 L 63 25.5 L 64 22 L 66.5 21 Z " /><path  fill="#fff"  stroke="#fff" stroke-width="1" opacity="0.984313725490196" d="M 58.5 22 L 59.5 24 Q 56.7 24.7 58.5 22 Z " /><path  fill="#fff"  stroke="#fff" stroke-width="1" opacity="0.984313725490196" d="M 80.5 22 L 82 22.5 L 82 24.5 L 81.5 27 L 81 24 L 79 23.5 L 80.5 22 Z " /><path  fill="#fff"  stroke="#fff" stroke-width="1" opacity="0.984313725490196" d="M 87.5 23 L 88 25.5 Q 88.7 28.1 86 27 L 87.5 23 Z " /><path  fill="#fff"  stroke="#fff" stroke-width="1" opacity="0.984313725490196" d="M 51.5 24 L 55 26.5 L 51.5 27 Q 48.5 25.5 51.5 24 Z " /><path  fill="#fff"  stroke="#fff" stroke-width="1" opacity="0.984313725490196" d="M 61.5 27 L 65 27.5 L 61.5 28 L 61.5 27 Z " /><path  fill="#fff"  stroke="#fff" stroke-width="1" opacity="0.984313725490196" d="M 7.5 31 L 8 33 L 6 32.5 L 7.5 31 Z " /><path  fill="#fff"  stroke="#fff" stroke-width="1" opacity="0.984313725490196" d="M 52.5 31 L 57 32.5 L 53.5 33 L 52.5 31 Z " /><path  fill="#fff"  stroke="#fff" stroke-width="1" opacity="0.984313725490196" d="M 4.5 34 L 3.5 36 L 4.5 34 Z " /><path  fill="#fff"  stroke="#fff" stroke-width="1" opacity="0.984313725490196" d="M 52 34 L 54 34.5 L 52.5 37 L 52 34 Z " /><path  fill="#fff"  stroke="#fff" stroke-width="1" opacity="0.984313725490196" d="M 104 40 L 107 41.5 L 106.5 43 L 105.5 41 L 104 41.5 L 104 40 Z " /><path  fill="#fff"  stroke="#fff" stroke-width="1" opacity="0.984313725490196" d="M 84 42 Q 87 41 86 44 L 88.5 44 L 91 49 L 88.5 50 L 88 46 L 84 43.5 L 84 42 Z " /><path  fill="#fff"  stroke="#fff" stroke-width="1" opacity="0.984313725490196" d="M 64.5 44 L 65 46.5 L 64 46.5 L 64.5 44 Z " /><path  fill="#fff"  stroke="#fff" stroke-width="1" opacity="0.984313725490196" d="M 2.5 48 Q 7.3 46.7 6 50 Q 2.2 50.8 2.5 48 Z " /><path  fill="#fff"  stroke="#fff" stroke-width="1" opacity="0.984313725490196" d="M 13.5 56 L 16 57.5 L 14.5 57 L 13.5 56 Z " /><path  fill="#fff"  stroke="#fff" stroke-width="1" opacity="0.984313725490196" d="M 87.5 56 L 88.5 58 Q 85.7 58.7 87.5 56 Z " /><path  fill="#fff"  stroke="#fff" stroke-width="1" opacity="0.984313725490196" d="M 81.5 58 L 82 60.5 L 81 60.5 L 81.5 58 Z " /><path  fill="#fff"  stroke="#fff" stroke-width="1" opacity="0.984313725490196" d="M 65.5 59 L 67.5 62 L 65.5 59 Z " /><path  fill="#fff"  stroke="#fff" stroke-width="1" opacity="0.984313725490196" d="M 83.5 60 L 86 61.5 L 84.5 62 L 83.5 60 Z " /><path  fill="#fff"  stroke="#fff" stroke-width="1" opacity="0.984313725490196" d="M 52.5 64 L 54 66.5 L 52 65.5 L 52.5 64 Z " /><path  fill="#fff"  stroke="#fff" stroke-width="1" opacity="0.984313725490196" d="M 28.5 67 Q 31.8 65.9 31 68.5 L 27.5 74 L 27 68.5 L 28.5 67 Z " /><path  fill="#fff"  stroke="#fff" stroke-width="1" opacity="0.984313725490196" d="M 62.5 72 L 63 73.5 L 61 74.5 L 62.5 72 Z " /><path  fill="#fff"  stroke="#fff" stroke-width="1" opacity="0.984313725490196" d="M 82.5 72 L 83 74 L 80 73.5 L 82.5 72 Z " /><path  fill="#fff"  stroke="#fff" stroke-width="1" opacity="0.984313725490196" d="M 88.5 76 L 91 77.5 L 89.5 78 L 88.5 76 Z " /><path  fill="#fff"  stroke="#fff" stroke-width="1" opacity="0.984313725490196" d="M 80.5 77 L 85 79.5 L 84.5 82 Q 78.7 83.7 80 80 L 82 79.5 L 80.5 77 Z " /><path  fill="#fff"  stroke="#fff" stroke-width="1" opacity="0.984313725490196" d="M 104.5 78 L 105.5 80 Q 102.7 80.7 104.5 78 Z " /><path  fill="#fff"  stroke="#fff" stroke-width="1" opacity="0.984313725490196" d="M 76.5 79 Q 79.1 78.2 78 81.5 L 77 81.5 L 76.5 79 Z " /><path  fill="#fff"  stroke="#fff" stroke-width="1" opacity="0.984313725490196" d="M 30.5 82 L 32 84.5 L 32 86.5 L 31.5 88 L 31 86 L 29 85.5 L 30.5 82 Z " /><path  fill="#fff"  stroke="#fff" stroke-width="1" opacity="0.984313725490196" d="M 49.5 82 L 50 85 L 48 84.5 L 49.5 82 Z " /><path  fill="#fff"  stroke="#fff" stroke-width="1" opacity="0.984313725490196" d="M 1 86 L 7 86 L 7 88 L 1 88 L 1 86 Z " /><path  fill="#fff"  stroke="#fff" stroke-width="1" opacity="0.984313725490196" d="M 82.5 86 L 81.5 88 L 80 87.5 L 82.5 86 Z " /><path  fill="#fff"  stroke="#fff" stroke-width="1" opacity="0.984313725490196" d="M 9.5 90 L 8.5 92 L 9.5 90 Z " /><path  fill="#fff"  stroke="#fff" stroke-width="1" opacity="0.984313725490196" d="M 48.5 91 L 49.5 93 L 48.5 91 Z " /><path  fill="#fff"  stroke="#fff" stroke-width="1" opacity="0.984313725490196" d="M 81.5 92 L 82 94.5 Q 82.7 97.1 80 96 L 81.5 92 Z " /><path  fill="#fff"  stroke="#fff" stroke-width="1" opacity="0.984313725490196" d="M 13.5 93 L 16 94.5 L 13 95 L 13.5 93 Z " /><path  fill="#fff"  stroke="#fff" stroke-width="1" opacity="0.984313725490196" d="M 104 96 L 106 96.5 L 104 97.5 L 104 96 Z " /><path  fill="#fff"  stroke="#fff" stroke-width="1" opacity="0.984313725490196" d="M 85 102 Q 88 100.8 87 104.5 L 85 103.5 L 85 102 Z " /><path  fill="#fff"  stroke="#fff" stroke-width="1" opacity="0.984313725490196" d="M 26 103 Q 29.3 101.9 28 106 Q 24.7 107.1 26 103 Z " /><path  fill="#fff"  stroke="#fff" stroke-width="1" opacity="0.984313725490196" d="M 51.5 104 Q 54.5 105.5 51.5 107 L 51.5 104 Z " /><path  fill="#fff"  stroke="#fff" stroke-width="1" opacity="0.984313725490196" d="M 69.5 104 Q 73.3 103 72 106 Q 67.9 104.3 69 108.5 L 68 108.5 Q 67.3 104.8 69.5 104 Z " /><path  fill="#fff"  stroke="#fff" stroke-width="1" opacity="0.984313725490196" d="M 89.5 104 L 92 105.5 L 89.5 107 Q 86.5 105.5 89.5 104 Z " /><path  fill="#fff"  stroke="#fff" stroke-width="1" opacity="0.984313725490196" d="M 27.5 108 L 30 108.5 L 27.5 109 L 27.5 108 Z " /><path  fill="#fff"  stroke="#fff" stroke-width="1" opacity="0.984313725490196" d="M 69.5 113 L 71 117.5 L 69 116.5 L 69.5 113 Z " /><path  fill="#fff"  stroke="#fff" stroke-width="1" opacity="0.984313725490196" d="M 44.5 115 L 45 117 Q 42.3 115.9 43 118.5 L 42 118.5 L 44.5 115 Z " /><path  fill="#fff"  stroke="#fff" stroke-width="1" opacity="0.9058823529411765" d="M 45.5 27 L 49 27.5 L 45.5 28 L 45.5 27 Z " /><path  fill="#fff"  stroke="#fff" stroke-width="1" opacity="0.9058823529411765" d="M 32.5 49 L 33 52 L 31 51.5 L 32.5 49 Z " /><path  fill="#fff"  stroke="#fff" stroke-width="1" opacity="0.9058823529411765" d="M 4.5 51 L 6.5 54 L 4.5 51 Z " /><path  fill="#fff"  stroke="#fff" stroke-width="1" opacity="0.00392156862745098" d="M 56.5 114 L 59 114.5 L 56.5 115 L 56.5 114 Z " /><path  fill="#fff"  stroke="#fff" stroke-width="1" opacity="0.9450980392156862" d="M 15.5 27 L 14.5 29 L 15.5 27 Z " /><path  fill="#fff"  stroke="#fff" stroke-width="1" opacity="0.9450980392156862" d="M 100.5 73 L 101.5 75 L 100.5 73 Z " /><path  fill="#fff"  stroke="#fff" stroke-width="1" opacity="0.9450980392156862" d="M 72.5 91 L 73.5 93 L 72.5 91 Z " /><path  fill="#fff"  stroke="#fff" stroke-width="1" opacity="0.9450980392156862" d="M 86.5 98 L 85.5 100 L 86.5 98 Z " /><path  fill="#fff"  stroke="#fff" stroke-width="1" opacity="0.9450980392156862" d="M 57.5 111 L 64 111.5 L 57.5 112 L 57.5 111 Z " /><path  fill="#fff"  stroke="#fff" stroke-width="1" opacity="0.00784313725490196" d="M 87.5 1 L 88.5 3 L 87.5 1 Z " /><path  fill="#fff"  stroke="#fff" stroke-width="1" opacity="0.00784313725490196" d="M 44.5 16 L 48 16.5 L 44.5 17 L 44.5 16 Z " /><path  fill="#fff"  stroke="#fff" stroke-width="1" opacity="0.00784313725490196" d="M 63.5 16 L 67 16.5 L 63.5 17 L 63.5 16 Z " /><path  fill="#fff"  stroke="#fff" stroke-width="1" opacity="0.00784313725490196" d="M 72.5 17 L 75 18.5 L 73.5 18 L 72.5 17 Z " /><path  fill="#fff"  stroke="#fff" stroke-width="1" opacity="0.00784313725490196" d="M 78.5 18 L 79.5 20 L 78.5 18 Z " /><path  fill="#fff"  stroke="#fff" stroke-width="1" opacity="0.00784313725490196" d="M 3.5 31 L 4 32.5 L 2 33.5 L 3.5 31 Z " /><path  fill="#fff"  stroke="#fff" stroke-width="1" opacity="0.00784313725490196" d="M 19.5 44 L 20.5 46 L 19.5 44 Z " /><path  fill="#fff"  stroke="#fff" stroke-width="1" opacity="0.00784313725490196" d="M 93.5 49 L 92.5 51 L 93.5 49 Z " /><path  fill="#fff"  stroke="#fff" stroke-width="1" opacity="0.00784313725490196" d="M 25.5 51 L 28 52.5 L 26.5 52 L 25.5 51 Z " /><path  fill="#fff"  stroke="#fff" stroke-width="1" opacity="0.00784313725490196" d="M 33.5 53 L 34.5 55 L 33.5 53 Z " /><path  fill="#fff"  stroke="#fff" stroke-width="1" opacity="0.00784313725490196" d="M 5.5 55 Q 7.8 54.3 7 56.5 L 5.5 55 Z " /><path  fill="#fff"  stroke="#fff" stroke-width="1" opacity="0.00784313725490196" d="M 9 57 L 11 57.5 L 9 58.5 L 9 57 Z " /><path  fill="#fff"  stroke="#fff" stroke-width="1" opacity="0.00784313725490196" d="M 17.5 62 L 20 62.5 L 17.5 63 L 17.5 62 Z " /><path  fill="#fff"  stroke="#fff" stroke-width="1" opacity="0.00784313725490196" d="M 37.5 66 L 39 67.5 L 38.5 70 Q 34 68 37.5 66 Z " /><path  fill="#fff"  stroke="#fff" stroke-width="1" opacity="0.00784313725490196" d="M 38.5 73 L 37.5 75 L 38.5 73 Z " /><path  fill="#fff"  stroke="#fff" stroke-width="1" opacity="0.00784313725490196" d="M 104.5 74 L 105.5 76 L 104.5 74 Z " /><path  fill="#fff"  stroke="#fff" stroke-width="1" opacity="0.00784313725490196" d="M 74.5 75 L 75 77.5 L 74 77.5 L 74.5 75 Z " /><path  fill="#fff"  stroke="#fff" stroke-width="1" opacity="0.00784313725490196" d="M 85.5 77 L 86.5 79 L 85.5 77 Z " /><path  fill="#fff"  stroke="#fff" stroke-width="1" opacity="0.00784313725490196" d="M 92.5 81 L 93.5 83 Q 90.7 83.7 92.5 81 Z " /><path  fill="#fff"  stroke="#fff" stroke-width="1" opacity="0.00784313725490196" d="M 93.5 91 L 92.5 93 L 93.5 91 Z " /><path  fill="#fff"  stroke="#fff" stroke-width="1" opacity="0.00784313725490196" d="M 88.5 95 L 87.5 97 L 86 96.5 L 88.5 95 Z " /><path  fill="#fff"  stroke="#fff" stroke-width="1" opacity="0.00784313725490196" d="M 22.5 96 L 24.5 97 Q 26.3 94.3 28 98.5 L 23.5 97 L 22.5 96 Z " /><path  fill="#fff"  stroke="#fff" stroke-width="1" opacity="0.00784313725490196" d="M 108.5 97 L 107.5 99 L 108.5 97 Z " /><path  fill="#fff"  stroke="#fff" stroke-width="1" opacity="0.00784313725490196" d="M 51.5 101 L 59 101.5 L 51.5 102 L 51.5 101 Z " /><path  fill="#fff"  stroke="#fff" stroke-width="1" opacity="0.00784313725490196" d="M 12.5 105 L 15 106.5 L 13.5 107 L 12.5 105 Z " /><path  fill="#fff"  stroke="#fff" stroke-width="1" opacity="0.00784313725490196" d="M 48.5 112 L 47.5 114 L 48.5 112 Z " /><path  fill="#fff"  stroke="#fff" stroke-width="1" opacity="0.00784313725490196" d="M 59.5 114 L 64 114.5 L 59.5 115 L 59.5 114 Z " /><path  fill="#fff"  stroke="#fff" stroke-width="1" opacity="0.00784313725490196" d="M 66.5 120 L 67.5 122 L 66.5 120 Z " /><path  fill="#fff"  stroke="#fff" stroke-width="1" opacity="0.027450980392156862" d="M 99.5 2 L 101 4.5 L 99 3.5 L 99.5 2 Z " /><path  fill="#fff"  stroke="#fff" stroke-width="1" opacity="0.027450980392156862" d="M 14.5 3 L 14 4.5 L 13.5 8 L 13 4.5 L 14.5 3 Z " /><path  fill="#fff"  stroke="#fff" stroke-width="1" opacity="0.027450980392156862" d="M 86.5 4 L 87 6.5 L 86 6.5 L 86.5 4 Z " /><path  fill="#fff"  stroke="#fff" stroke-width="1" opacity="0.027450980392156862" d="M 27.5 5 L 28 7.5 L 27 7.5 L 27.5 5 Z " /><path  fill="#fff"  stroke="#fff" stroke-width="1" opacity="0.027450980392156862" d="M 52.5 6 L 62 6.5 L 52.5 7 L 52.5 6 Z " /><path  fill="#fff"  stroke="#fff" stroke-width="1" opacity="0.027450980392156862" d="M 15.5 8 L 16 9.5 L 14.5 15 L 14 10.5 L 15.5 8 Z " /><path  fill="#fff"  stroke="#fff" stroke-width="1" opacity="0.027450980392156862" d="M 63.5 8 L 64 10.5 L 62 11.5 L 63.5 8 Z " /><path  fill="#fff"  stroke="#fff" stroke-width="1" opacity="0.027450980392156862" d="M 49.5 10 L 50 14.5 L 49 14.5 L 49.5 10 Z " /><path  fill="#fff"  stroke="#fff" stroke-width="1" opacity="0.027450980392156862" d="M 85.5 10 L 86 12.5 L 85 12.5 L 85.5 10 Z " /><path  fill="#fff"  stroke="#fff" stroke-width="1" opacity="0.027450980392156862" d="M 99.5 10 L 100 12.5 L 99 12.5 L 99.5 10 Z " /><path  fill="#fff"  stroke="#fff" stroke-width="1" opacity="0.027450980392156862" d="M 28.5 11 L 29 13.5 L 28 13.5 L 28.5 11 Z " /><path  fill="#fff"  stroke="#fff" stroke-width="1" opacity="0.027450980392156862" d="M 64.5 12 L 65 15.5 L 64 15.5 L 64.5 12 Z " /><path  fill="#fff"  stroke="#fff" stroke-width="1" opacity="0.027450980392156862" d="M 16.5 14 L 17 15.5 L 15.5 21 L 15 16.5 L 16.5 14 Z " /><path  fill="#fff"  stroke="#fff" stroke-width="1" opacity="0.027450980392156862" d="M 84.5 16 L 85 18.5 L 84 18.5 L 84.5 16 Z " /><path  fill="#fff"  stroke="#fff" stroke-width="1" opacity="0.027450980392156862" d="M 98.5 16 L 99 18.5 L 98 18.5 L 98.5 16 Z " /><path  fill="#fff"  stroke="#fff" stroke-width="1" opacity="0.027450980392156862" d="M 37.5 17 L 47 18.5 L 43.5 19 Q 42.2 16.8 37.5 18 L 37.5 17 Z " /><path  fill="#fff"  stroke="#fff" stroke-width="1" opacity="0.027450980392156862" d="M 67.5 17 L 72 17.5 L 62.5 19 L 62.5 18 L 67.5 17 Z " /><path  fill="#fff"  stroke="#fff" stroke-width="1" opacity="0.027450980392156862" d="M 32.5 18 L 37 19.5 L 35.5 20 L 32.5 19 L 32.5 18 Z " /><path  fill="#fff"  stroke="#fff" stroke-width="1" opacity="0.027450980392156862" d="M 75.5 18 L 78 18.5 L 74.5 20 L 75.5 18 Z " /><path  fill="#fff"  stroke="#fff" stroke-width="1" opacity="0.027450980392156862" d="M 80.5 19 L 82 19.5 L 78.5 21 L 78.5 20 L 80.5 19 Z " /><path  fill="#fff"  stroke="#fff" stroke-width="1" opacity="0.027450980392156862" d="M 17.5 21 L 17 22.5 L 16.5 27 L 15.5 24 L 14.5 26 L 12.5 26 L 10.5 27 L 11.5 25 L 17.5 21 Z " /><path  fill="#fff"  stroke="#fff" stroke-width="1" opacity="0.027450980392156862" d="M 97.5 21 L 99.5 28 Q 101 25.5 102.5 29 L 106 31.5 L 105.5 34 L 100.5 28 L 98.5 28 L 97 27.5 L 97.5 21 Z " /><path  fill="#fff"  stroke="#fff" stroke-width="1" opacity="0.027450980392156862" d="M 8.5 27 L 9.5 29 Q 7.8 26.3 6 30.5 L 4.5 33 L 4 30.5 L 5.5 29 L 8.5 27 Z " /><path  fill="#fff"  stroke="#fff" stroke-width="1" opacity="0.027450980392156862" d="M 50.5 29 L 50 30.5 L 51 32.5 L 49 31.5 L 50.5 29 Z " /><path  fill="#fff"  stroke="#fff" stroke-width="1" opacity="0.027450980392156862" d="M 41.5 30 L 44 30.5 L 41.5 31 L 41.5 30 Z " /><path  fill="#fff"  stroke="#fff" stroke-width="1" opacity="0.027450980392156862" d="M 64 30 L 69 30.5 L 65 31 L 63.5 34 L 64 32.5 L 64 30 Z " /><path  fill="#fff"  stroke="#fff" stroke-width="1" opacity="0.027450980392156862" d="M 96.5 30 L 97 32.5 L 96 32.5 L 96.5 30 Z " /><path  fill="#fff"  stroke="#fff" stroke-width="1" opacity="0.027450980392156862" d="M 72.5 31 L 75 31.5 L 72.5 32 L 72.5 31 Z " /><path  fill="#fff"  stroke="#fff" stroke-width="1" opacity="0.027450980392156862" d="M 81.5 31 L 82 35.5 L 81 35.5 L 80 33.5 L 81.5 31 Z " /><path  fill="#fff"  stroke="#fff" stroke-width="1" opacity="0.027450980392156862" d="M 48.5 33 L 49 37.5 L 47.5 43 L 47 38.5 L 48.5 33 Z " /><path  fill="#fff"  stroke="#fff" stroke-width="1" opacity="0.027450980392156862" d="M 1.5 34 L 0.5 36 L 1.5 34 Z " /><path  fill="#fff"  stroke="#fff" stroke-width="1" opacity="0.027450980392156862" d="M 65.5 34 L 66 37.5 L 65 37.5 L 65.5 34 Z " /><path  fill="#fff"  stroke="#fff" stroke-width="1" opacity="0.027450980392156862" d="M 107.5 34 Q 110.5 35.5 107.5 37 L 107.5 34 Z " /><path  fill="#fff"  stroke="#fff" stroke-width="1" opacity="0.027450980392156862" d="M 16.5 37 L 19 37.5 L 16 39 L 15.5 41 L 15 39.5 L 16.5 37 Z " /><path  fill="#fff"  stroke="#fff" stroke-width="1" opacity="0.027450980392156862" d="M 66.5 39 L 67 43.5 L 65 44.5 L 66.5 39 Z " /><path  fill="#fff"  stroke="#fff" stroke-width="1" opacity="0.027450980392156862" d="M 80.5 39 L 81 41.5 L 80 41.5 L 80.5 39 Z " /><path  fill="#fff"  stroke="#fff" stroke-width="1" opacity="0.027450980392156862" d="M 19.5 40 L 20 42.5 L 19 42.5 L 19.5 40 Z " /><path  fill="#fff"  stroke="#fff" stroke-width="1" opacity="0.027450980392156862" d="M 33.5 40 L 34 42.5 L 33 42.5 L 33.5 40 Z " /><path  fill="#fff"  stroke="#fff" stroke-width="1" opacity="0.027450980392156862" d="M 95.5 40 L 95 41.5 L 93.5 47 L 93 45.5 L 95.5 40 Z " /><path  fill="#fff"  stroke="#fff" stroke-width="1" opacity="0.027450980392156862" d="M 46.5 44 L 47 48.5 L 45.5 51 L 45 49.5 L 46.5 44 Z " /><path  fill="#fff"  stroke="#fff" stroke-width="1" opacity="0.027450980392156862" d="M 79.5 44 L 80 47.5 L 79 47.5 L 79.5 44 Z " /><path  fill="#fff"  stroke="#fff" stroke-width="1" opacity="0.027450980392156862" d="M 15.5 45 L 19.5 48 L 20.5 46 L 22 49.5 L 20.5 49 L 18.5 48 L 17 48.5 L 15.5 45 Z " /><path  fill="#fff"  stroke="#fff" stroke-width="1" opacity="0.027450980392156862" d="M 34.5 45 L 35 48.5 L 34 48.5 L 34.5 45 Z " /><path  fill="#fff"  stroke="#fff" stroke-width="1" opacity="0.027450980392156862" d="M 67.5 45 L 68 48.5 L 67 48.5 L 67.5 45 Z " /><path  fill="#fff"  stroke="#fff" stroke-width="1" opacity="0.027450980392156862" d="M 96.5 47 L 108 47.5 L 96.5 48 L 96.5 47 Z " /><path  fill="#fff"  stroke="#fff" stroke-width="1" opacity="0.027450980392156862" d="M 0.5 49 L 2 51.5 L 1 51.5 L 0.5 49 Z " /><path  fill="#fff"  stroke="#fff" stroke-width="1" opacity="0.027450980392156862" d="M 68.5 50 L 69 54.5 L 67 55.5 L 68.5 50 Z " /><path  fill="#fff"  stroke="#fff" stroke-width="1" opacity="0.027450980392156862" d="M 78.5 50 L 79 53.5 L 78 53.5 L 78.5 50 Z " /><path  fill="#fff"  stroke="#fff" stroke-width="1" opacity="0.027450980392156862" d="M 32.5 52 L 37 53.5 L 34.5 54 L 32.5 52 Z " /><path  fill="#fff"  stroke="#fff" stroke-width="1" opacity="0.027450980392156862" d="M 92.5 52 L 93 54.5 L 92 54.5 L 92.5 52 Z " /><path  fill="#fff"  stroke="#fff" stroke-width="1" opacity="0.027450980392156862" d="M 3.5 53 L 4.5 55 L 3.5 53 Z " /><path  fill="#fff"  stroke="#fff" stroke-width="1" opacity="0.027450980392156862" d="M 38.5 54 Q 42.3 53.3 43 55.5 L 41.5 55 Q 37.5 55.8 38.5 54 Z " /><path  fill="#fff"  stroke="#fff" stroke-width="1" opacity="0.027450980392156862" d="M 90.5 55 Q 93 56 92 60.5 L 91 60.5 L 90.5 55 Z " /><path  fill="#fff"  stroke="#fff" stroke-width="1" opacity="0.027450980392156862" d="M 7.5 56 L 8.5 58 L 7.5 56 Z " /><path  fill="#fff"  stroke="#fff" stroke-width="1" opacity="0.027450980392156862" d="M 69.5 56 L 71 59.5 L 69 60.5 L 69.5 56 Z " /><path  fill="#fff"  stroke="#fff" stroke-width="1" opacity="0.027450980392156862" d="M 77.5 57 L 78 59.5 L 77 59.5 L 77.5 57 Z " /><path  fill="#fff"  stroke="#fff" stroke-width="1" opacity="0.027450980392156862" d="M 10.5 58 L 13 58.5 L 13.5 60 L 15 59.5 Q 13.8 62.3 12.5 60 L 10.5 58 Z " /><path  fill="#fff"  stroke="#fff" stroke-width="1" opacity="0.027450980392156862" d="M 72.5 60 L 78 61.5 L 76 62.5 Q 76.9 59.5 72.5 61 L 71 61.5 L 72.5 60 Z " /><path  fill="#fff"  stroke="#fff" stroke-width="1" opacity="0.027450980392156862" d="M 20.5 63 L 25 64.5 L 23.5 65 L 20.5 64 L 20.5 63 Z " /><path  fill="#fff"  stroke="#fff" stroke-width="1" opacity="0.027450980392156862" d="M 55.5 65 Q 57.8 64.3 57 66.5 L 58 71.5 L 56 71.5 L 55.5 76 L 55 71.5 L 56 66.5 L 55.5 65 Z " /><path  fill="#fff"  stroke="#fff" stroke-width="1" opacity="0.027450980392156862" d="M 90.5 65 L 94 66.5 L 92.5 67 L 90.5 66 L 89 66.5 L 90.5 65 Z " /><path  fill="#fff"  stroke="#fff" stroke-width="1" opacity="0.027450980392156862" d="M 42.5 67 L 43 70.5 L 42 75.5 L 42.5 77 Q 40 76 41 71.5 L 42 69 L 39 68.5 L 42.5 67 Z " /><path  fill="#fff"  stroke="#fff" stroke-width="1" opacity="0.027450980392156862" d="M 95.5 67 L 96.5 69 L 95.5 67 Z " /><path  fill="#fff"  stroke="#fff" stroke-width="1" opacity="0.027450980392156862" d="M 25.5 68 L 25 69.5 L 24.5 74 L 24 69.5 L 25.5 68 Z " /><path  fill="#fff"  stroke="#fff" stroke-width="1" opacity="0.027450980392156862" d="M 98.5 69 L 104 73.5 L 100.5 71 L 98.5 69 Z " /><path  fill="#fff"  stroke="#fff" stroke-width="1" opacity="0.027450980392156862" d="M 38.5 70 L 39 72.5 L 38 72.5 L 38.5 70 Z " /><path  fill="#fff"  stroke="#fff" stroke-width="1" opacity="0.027450980392156862" d="M 26.5 73 L 27 74.5 L 25.5 80 L 25 75.5 L 26.5 73 Z " /><path  fill="#fff"  stroke="#fff" stroke-width="1" opacity="0.027450980392156862" d="M 58.5 73 L 59 76.5 L 58 76.5 L 58.5 73 Z " /><path  fill="#fff"  stroke="#fff" stroke-width="1" opacity="0.027450980392156862" d="M 72.5 73 L 75.5 74 L 77 73.5 L 77 75 L 73 75 L 73 77.5 L 75 84.5 L 73 83.5 L 72.5 73 Z " /><path  fill="#fff"  stroke="#fff" stroke-width="1" opacity="0.027450980392156862" d="M 39.5 75 Q 41.8 76.8 41 81.5 L 40 81.5 L 39.5 75 Z " /><path  fill="#fff"  stroke="#fff" stroke-width="1" opacity="0.027450980392156862" d="M 106.5 76 Q 109.5 77.5 106.5 79 L 106.5 76 Z " /><path  fill="#fff"  stroke="#fff" stroke-width="1" opacity="0.027450980392156862" d="M 54.5 77 L 55 81.5 L 53.5 87 L 53 82.5 L 54.5 77 Z " /><path  fill="#fff"  stroke="#fff" stroke-width="1" opacity="0.027450980392156862" d="M 60.5 77 L 60 78.5 L 59.5 83 L 59 78.5 L 60.5 77 Z " /><path  fill="#fff"  stroke="#fff" stroke-width="1" opacity="0.027450980392156862" d="M 87.5 77 L 88.5 79 L 90 78.5 L 91.5 81 Q 93.3 78.3 95 82.5 L 94.5 85 L 92.5 81 Q 91 83.5 89.5 80 Q 86.5 79.1 88 83.5 L 87 83.5 L 87.5 77 Z " /><path  fill="#fff"  stroke="#fff" stroke-width="1" opacity="0.027450980392156862" d="M 27.5 80 L 27 81.5 L 26.5 86 L 26 81.5 L 27.5 80 Z " /><path  fill="#fff"  stroke="#fff" stroke-width="1" opacity="0.027450980392156862" d="M 0.5 83 L 9 83.5 L 0.5 84 L 0.5 83 Z " /><path  fill="#fff"  stroke="#fff" stroke-width="1" opacity="0.027450980392156862" d="M 13.5 85 L 14 89.5 L 13 89.5 L 13.5 85 Z " /><path  fill="#fff"  stroke="#fff" stroke-width="1" opacity="0.027450980392156862" d="M 27.5 87 L 30 98.5 L 28.5 98 L 27 97.5 L 28 92.5 Q 25.6 91.2 27.5 87 Z " /><path  fill="#fff"  stroke="#fff" stroke-width="1" opacity="0.027450980392156862" d="M 51.5 87 Q 54 88 53 92.5 L 50.5 103 L 50 98.5 L 52 88.5 L 51.5 87 Z " /><path  fill="#fff"  stroke="#fff" stroke-width="1" opacity="0.027450980392156862" d="M 86.5 87 L 87 89.5 L 86 89.5 L 86.5 87 Z " /><path  fill="#fff"  stroke="#fff" stroke-width="1" opacity="0.027450980392156862" d="M 62.5 88 L 62 89.5 L 61.5 93 L 61 89.5 L 62.5 88 Z " /><path  fill="#fff"  stroke="#fff" stroke-width="1" opacity="0.027450980392156862" d="M 94.5 90 L 95 91.5 L 89.5 95 L 89.5 94 L 94 91.5 L 94.5 90 Z " /><path  fill="#fff"  stroke="#fff" stroke-width="1" opacity="0.027450980392156862" d="M 14.5 91 L 23 95.5 L 21.5 96 L 15.5 93 L 14.5 91 Z " /><path  fill="#fff"  stroke="#fff" stroke-width="1" opacity="0.027450980392156862" d="M 85.5 91 L 86 96.5 L 84 97.5 L 85.5 91 Z " /><path  fill="#fff"  stroke="#fff" stroke-width="1" opacity="0.027450980392156862" d="M 63.5 93 L 62.5 95 L 63.5 93 Z " /><path  fill="#fff"  stroke="#fff" stroke-width="1" opacity="0.027450980392156862" d="M 106.5 97 L 107 99.5 L 104.5 102 Q 102.3 102.8 103 100.5 L 106.5 97 Z " /><path  fill="#fff"  stroke="#fff" stroke-width="1" opacity="0.027450980392156862" d="M 2.5 98 L 4.5 98 L 7 100.5 L 8.5 103 L 10 102.5 L 9.5 104 L 11.5 105 L 13 104.5 Q 11.8 107.3 10.5 105 Q 4.5 102.5 2.5 98 Z " /><path  fill="#fff"  stroke="#fff" stroke-width="1" opacity="0.027450980392156862" d="M 63.5 100 L 64 103.5 L 62.5 103 L 60 102.5 L 63 102 L 63.5 100 Z " /><path  fill="#fff"  stroke="#fff" stroke-width="1" opacity="0.027450980392156862" d="M 101.5 103 L 100.5 105 L 98.5 106 L 97.5 104 L 99.5 104 L 101.5 103 Z " /><path  fill="#fff"  stroke="#fff" stroke-width="1" opacity="0.027450980392156862" d="M 95.5 105 L 96.5 107 L 95.5 105 Z " /><path  fill="#fff"  stroke="#fff" stroke-width="1" opacity="0.027450980392156862" d="M 93.5 106 L 94.5 108 L 93.5 106 Z " /><path  fill="#fff"  stroke="#fff" stroke-width="1" opacity="0.027450980392156862" d="M 19.5 107 L 20 109 L 23.5 108 L 22.5 110 L 18 108.5 L 19.5 107 Z " /><path  fill="#fff"  stroke="#fff" stroke-width="1" opacity="0.027450980392156862" d="M 90.5 107 L 93 108.5 L 91.5 109 L 90.5 107 Z " /><path  fill="#fff"  stroke="#fff" stroke-width="1" opacity="0.027450980392156862" d="M 87.5 108 L 90 109.5 L 88.5 110 L 87.5 108 Z " /><path  fill="#fff"  stroke="#fff" stroke-width="1" opacity="0.027450980392156862" d="M 26.5 109 L 25.5 111 L 24 110.5 L 26.5 109 Z " /><path  fill="#fff"  stroke="#fff" stroke-width="1" opacity="0.027450980392156862" d="M 82.5 109 L 83 111.5 L 82 111.5 L 82.5 109 Z " /><path  fill="#fff"  stroke="#fff" stroke-width="1" opacity="0.027450980392156862" d="M 84.5 109 L 85.5 111 Q 82.7 111.7 84.5 109 Z " /><path  fill="#fff"  stroke="#fff" stroke-width="1" opacity="0.027450980392156862" d="M 59.5 112 L 66 112 L 66 114.5 L 65 114.5 Q 65.6 111.8 59.5 113 L 59.5 112 Z " /><path  fill="#fff"  stroke="#fff" stroke-width="1" opacity="0.027450980392156862" d="M 80.5 113 Q 83 114 82 118.5 L 81 118.5 L 80.5 113 Z " /><path  fill="#fff"  stroke="#fff" stroke-width="1" opacity="0.027450980392156862" d="M 47.5 114 L 48 116.5 L 47 116.5 L 47.5 114 Z " /><path  fill="#fff"  stroke="#fff" stroke-width="1" opacity="0.027450980392156862" d="M 53.5 114 L 56 114.5 L 53.5 115 L 53.5 114 Z " /><path  fill="#fff"  stroke="#fff" stroke-width="1" opacity="0.027450980392156862" d="M 67.5 115 L 66.5 117 L 67.5 115 Z " /><path  fill="#fff"  stroke="#fff" stroke-width="1" opacity="0.027450980392156862" d="M 33.5 119 L 34 121.5 L 33 121.5 L 33.5 119 Z " /><path  fill="#fff"  stroke="#fff" stroke-width="1" opacity="0.027450980392156862" d="M 79.5 119 L 81 121.5 L 80 121.5 L 79.5 119 Z " /><path  fill="#fff"  stroke="#fff" stroke-width="1" opacity="0.027450980392156862" d="M 2.5 120 L 1.5 122 L 2.5 120 Z " /><path  fill="#fff"  stroke="#fff" stroke-width="1" opacity="0" d="M 0 0 L 11.5 0 L 12 3.5 L 13 3.5 L 13.5 0 L 19 33.5 L 21 39.5 L 21 44.5 L 23 50.5 L 22 50.5 L 21.5 49 L 19.5 50 L 17.5 46 L 16 46.5 L 16.5 48 L 13 42.5 L 15.5 38 L 15 39.5 L 15.5 41 Q 17.3 37.3 19 40.5 L 19.5 45 L 20 39.5 L 18.5 37 L 17 37.5 Q 19.3 36.2 18 31.5 L 17 30.5 L 16.5 22 L 15.5 25 L 13.5 24 L 12.5 27 L 10.5 28 L 10.5 26 L 8 27.5 Q 10.8 29.3 6.5 31 L 6.5 29 L 4 30.5 L 4.5 32 Q 3.3 29.8 2 32.5 L 2.5 34 L 4 33.5 L 0.5 39 L 0 36.5 L 0 34.5 L 0 0 Z M 14 4 L 13 10 L 14 10 L 14 4 Z M 15 10 L 14 16 L 15 16 L 15 10 Z M 16 16 L 15 22 L 16 22 L 16 16 Z M 21 45 L 19 49 L 21 49 L 21 45 Z " /><path  fill="#fff"  stroke="#fff" stroke-width="1" opacity="0" d="M 25.5 0 L 26.5 3 L 27 0 L 86.5 0 L 87 1.5 L 88 1.5 L 88.5 0 L 89 1.5 L 88 2.5 L 86 20.5 L 84 25.5 L 84 31.5 L 79 61 L 74.5 62 L 74.5 61 L 76 60.5 L 72.5 60 L 72.5 62 L 70 60.5 L 72 59.5 L 70 59 L 69.5 55 L 68.5 61 L 63 30 Q 54 31.1 49 29 L 49.5 32 L 50.5 30 L 51 31.5 L 47 49.5 L 47 54.5 L 45.5 57 L 45 55 L 42 55.5 L 42.5 57 L 38 55.5 L 42 54.5 L 37.5 54 L 35.5 55 L 35.5 54 L 37 53.5 L 35.5 51 L 34.5 53 L 33 50.5 L 29 21.5 L 25 4.5 L 25.5 0 Z M 87 3 L 86 7 L 87 7 L 87 3 Z M 28 5 L 27 9 L 28 9 L 28 5 Z M 53 6 L 53 7 L 62 7 L 53 6 Z M 52 8 L 51 16 L 50 11 L 49 11 Q 52 19 44 16 L 44 17 L 63 16 L 62 11 L 62 8 L 52 8 Z M 64 8 L 63 11 L 64 11 L 64 8 Z M 86 9 L 85 13 L 86 13 L 86 9 Z M 29 10 L 28 15 L 29 15 L 29 10 Z M 65 11 L 64 16 L 64 17 L 67 17 L 65 16 L 65 11 Z M 85 15 L 84 19 L 85 19 L 85 15 Z M 30 16 L 29 20 L 30 20 L 30 16 Z M 36 17 L 36 18 L 43 18 L 36 17 Z M 68 17 L 68 18 L 74 18 L 68 17 Z M 32 18 L 32 19 L 35 19 L 32 18 Z M 44 18 L 43 19 L 30 20 L 31 29 L 31 31 L 32 32 L 34 30 L 45 29 L 46 28 L 61 28 L 62 29 L 64 28 L 74 31 L 71 32 L 75 32 L 76 30 L 81 32 L 80 34 L 82 37 Q 81 28 84 22 L 80 21 L 83 20 L 80 18 Q 75 17 74 19 Q 68 21 67 18 L 44 18 Z M 40 30 L 40 31 L 45 31 L 40 30 Z M 64 30 L 65 33 L 65 31 L 70 31 L 64 30 Z M 35 31 L 35 32 L 37 32 L 35 31 Z M 49 32 L 48 38 L 49 38 L 49 32 Z M 77 32 L 77 33 L 79 33 L 77 32 Z M 33 33 L 32 39 L 33 39 L 33 33 Z M 66 33 L 65 39 L 66 39 L 66 33 Z M 48 38 L 47 43 L 48 43 L 48 38 Z M 34 39 L 33 45 L 34 45 L 34 39 Z M 67 39 L 66 44 L 67 44 L 67 39 Z M 81 39 L 80 43 L 81 43 L 81 39 Z M 47 43 L 46 49 L 47 49 L 47 43 Z M 68 44 L 67 50 L 68 50 L 68 44 Z M 80 44 L 79 48 L 80 48 L 80 44 Z M 35 45 L 34 50 L 35 50 L 35 45 Z M 46 49 L 45 55 L 46 55 L 46 49 Z M 69 50 L 68 55 L 69 55 L 69 50 Z M 79 50 L 78 54 L 79 54 L 79 50 Z M 78 56 L 77 60 L 78 60 L 78 56 Z " /><path  fill="#fff"  stroke="#fff" stroke-width="1" opacity="0" d="M 100.5 0 L 101.5 4 L 102 0 L 108.5 0 L 109 0.5 L 109 34.5 L 109 36.5 L 108.5 39 L 106 34.5 L 107 32.5 L 104 31.5 Q 106.7 29.7 102.5 28 L 101 28.5 L 102.5 31 L 99.5 26 Q 96.1 26.9 98 21.5 L 97 21.5 L 97 29.5 L 95 40.5 L 96 46 L 109 46.5 L 96 47.5 L 109 48 L 109 77.5 L 108 79.5 L 109 81.5 L 108 81.5 Q 106.5 75 101 72.5 Q 103.3 71.3 100.5 70 L 98.5 71 L 97.5 68 L 96 68.5 L 96.5 70 L 94 68.5 L 96 67.5 L 92.5 66 L 92.5 68 L 90 66.5 L 92 65.5 L 89 63.5 L 100.5 0 Z M 101 4 L 100 10 L 101 10 L 101 4 Z M 100 10 L 99 15 L 100 15 L 100 10 Z M 99 15 L 98 21 L 99 21 L 99 15 Z M 95 41 L 93 46 L 94 50 L 95 46 L 95 41 Z M 93 50 L 92 56 L 93 56 L 93 50 Z M 92 56 L 91 62 L 92 62 L 92 56 Z " /><path  fill="#fff"  stroke="#fff" stroke-width="1" opacity="0" d="M 75.5 19 L 79 19.5 L 75.5 20 L 75.5 19 Z " /><path  fill="#fff"  stroke="#fff" stroke-width="1" opacity="0" d="M 0.5 46 L 6 54.5 Q 3.7 55.8 6.5 57 L 8 56.5 L 7.5 55 L 9.5 59 L 11.5 58 L 11.5 60 L 13.5 59 L 13.5 61 L 16.5 62 L 16.5 60 L 21 62.5 L 20.5 64 L 23 63.5 L 22.5 62 L 37 66.5 L 34.5 67 L 31.5 66 L 28.5 65 Q 27 67.5 25.5 64 Q 20.9 62.6 23 68.5 L 24 68.5 L 24.5 65 L 35 121.5 L 34 121.5 L 33.5 119 L 33 122 L 4.5 122 L 3.5 121 Q 1.7 123.7 0 119.5 L 0 117.5 L 0 96.5 L 1 95.5 L 0 93.5 L 1 93.5 L 6 100.5 Q 3.7 101.8 6.5 103 L 8 102.5 L 7.5 101 L 9.5 105 L 11 104.5 L 10.5 103 L 11.5 106 L 14.5 105 L 15.5 108 L 18.5 107 L 18.5 108 L 17 108.5 L 19.5 109 L 21.5 108 L 21.5 109 L 20 109.5 L 25.5 111 L 25.5 110 L 23 109.5 L 25.5 109 L 31 110 L 30 101.5 L 28 98.5 L 30 98.5 L 28.5 92 L 28 97 L 26 97.5 L 26.5 99 L 25.5 96 L 19.5 94 L 19.5 96 L 16 93.5 Q 18.8 91.7 14.5 90 L 14 91.5 L 14.5 93 Q 11 90.7 12 85 L 0 84.5 L 12 83.5 L 0 83 L 0 50.5 L 1 49.5 L 0.5 46 Z M 18 62 L 18 63 L 20 63 L 18 62 Z M 25 69 L 24 75 L 25 75 L 25 69 Z M 26 75 L 25 81 L 26 81 L 26 75 Z M 27 81 L 26 86 L 27 86 L 27 81 Z M 14 85 L 13 90 L 14 90 L 14 85 Z M 28 86 L 27 92 L 28 92 L 28 86 Z M 32 110 L 26 112 L 31 112 L 32 113 L 32 110 Z M 33 113 L 32 119 L 33 119 L 33 113 Z " /><path  fill="#fff"  stroke="#fff" stroke-width="1" opacity="0" d="M 27.5 51 L 30 52 L 29.5 54 Q 27.8 50.9 26 52.5 L 27.5 51 Z " /><path  fill="#fff"  stroke="#fff" stroke-width="1" opacity="0" d="M 31.5 52 L 33.5 55 L 31 54 L 31.5 52 Z " /><path  fill="#fff"  stroke="#fff" stroke-width="1" opacity="0" d="M 56.5 60 L 58 62.5 L 62 88.5 L 67 110.5 L 67 115.5 L 69 121.5 L 66.5 122 L 47.5 122 L 47 118.5 L 46 118.5 L 45.5 122 L 45 118.5 L 55.5 66 Q 54.9 70.6 57.5 72 L 58 67.5 Q 54.8 65.3 56.5 60 Z M 56 71 L 55 77 L 56 77 L 56 71 Z M 59 72 L 58 78 L 59 78 L 59 72 Z M 55 77 L 54 82 L 55 82 L 55 77 Z M 60 78 L 59 83 L 60 83 L 60 78 Z M 54 82 L 53 88 L 54 88 L 54 82 Z M 61 83 L 60 89 L 61 89 L 61 83 Z M 53 88 L 52 93 L 53 93 L 53 88 Z M 62 89 L 61 94 L 62 94 L 62 89 Z M 52 93 L 51 98 L 52 98 L 52 93 Z M 63 94 L 62 99 L 63 99 L 63 94 Z M 51 98 L 49 112 L 49 113 L 65 113 L 65 116 L 66 116 L 64 109 L 64 99 L 63 101 L 60 103 L 51 103 L 59 102 L 51 101 L 51 98 Z M 48 113 L 47 118 L 48 118 L 48 113 Z M 50 114 L 50 115 L 64 115 L 50 114 Z M 67 116 L 66 121 L 67 121 L 67 116 Z " /><path  fill="#fff"  stroke="#fff" stroke-width="1" opacity="0" d="M 77.5 62 L 81.5 63 L 82.5 62 L 86.5 64 L 89 65.5 L 87.5 66 L 77.5 63 L 77.5 62 Z " /><path  fill="#fff"  stroke="#fff" stroke-width="1" opacity="0" d="M 38.5 66 L 42 67.5 L 39 68.5 L 42 69 L 42.5 71 L 43.5 67 L 44 70.5 L 40.5 88 L 39 85.5 L 38 74.5 L 36 68.5 L 39 67.5 L 38.5 66 Z M 39 69 L 38 74 L 39 74 L 39 69 Z M 42 71 L 41 76 L 42 76 L 42 71 Z M 40 75 L 40 82 L 41 82 Q 42 76 40 75 Z " /><path  fill="#fff"  stroke="#fff" stroke-width="1" opacity="0" d="M 71 72 L 76 73.5 L 73.5 74 L 72 73.5 L 72.5 78 L 73.5 75 L 74.5 78 L 75.5 75 L 76 78.5 L 73.5 89 L 71 72 Z M 74 78 L 73 84 L 74 84 L 74 78 Z " /><path  fill="#fff"  stroke="#fff" stroke-width="1" opacity="0" d="M 77.5 74 Q 79.8 73.3 79 75.5 L 77.5 74 Z " /><path  fill="#fff"  stroke="#fff" stroke-width="1" opacity="0" d="M 83.5 76 Q 85.8 75.3 85 77.5 L 83.5 76 Z " /><path  fill="#fff"  stroke="#fff" stroke-width="1" opacity="0" d="M 86.5 79 L 87.5 85 L 88.5 80 L 90.5 81 L 90.5 79 L 93.5 84 Q 94.8 81.7 96 84.5 L 97 88.5 L 93.5 94 L 95 91.5 L 94.5 90 L 91 93.5 Q 93.3 94.8 90.5 96 L 88.5 97 L 88.5 95 L 86.5 96 L 85.5 91 L 84 97.5 L 85.5 97 L 87 97.5 L 85 98 L 82 113.5 L 83 113.5 L 83.5 110 L 84.5 112 L 88 110.5 L 85 109.5 L 87.5 109 L 90.5 110 L 90.5 109 L 89 108.5 L 90.5 108 L 92.5 109 L 92.5 107 L 94.5 108 L 94.5 106 L 96.5 107 L 96.5 105 L 98.5 106 L 99.5 103 L 99.5 105 L 102 103.5 Q 99.8 102.3 102.5 101 L 102.5 103 L 105 101.5 L 104 100.5 L 107 97.5 L 108.5 94 L 109 95.5 L 108 97.5 L 109 98.5 L 109 119 L 107 119.5 L 108 121.5 L 105.5 122 L 81.5 122 L 81 120.5 L 80 120.5 L 79.5 122 L 79 120.5 L 86.5 79 Z M 87 85 L 86 91 L 87 91 L 87 85 Z M 82 114 L 81 120 L 82 120 L 82 114 Z " /><path  fill="#fff"  stroke="#fff" stroke-width="1" opacity="0.6666666666666666" d="M 53.5 8 Q 60.3 6.2 62 9.5 L 61.5 11 L 61 9 L 53.5 9 L 52.5 10 L 53.5 8 Z " /><path  fill="#fff"  stroke="#fff" stroke-width="1" opacity="0.6666666666666666" d="M 97.5 9 L 98 11.5 L 97 11.5 L 97.5 9 Z " /><path  fill="#fff"  stroke="#fff" stroke-width="1" opacity="0.6666666666666666" d="M 96.5 15 L 97 17.5 L 96 17.5 L 96.5 15 Z " /><path  fill="#fff"  stroke="#fff" stroke-width="1" opacity="0.6666666666666666" d="M 39.5 19 L 43 19.5 L 39.5 20 L 39.5 19 Z " /><path  fill="#fff"  stroke="#fff" stroke-width="1" opacity="0.6666666666666666" d="M 67.5 19 L 71 19.5 L 67.5 20 L 67.5 19 Z " /><path  fill="#fff"  stroke="#fff" stroke-width="1" opacity="0.6666666666666666" d="M 74.5 20 L 77 20.5 L 74.5 21 L 74.5 20 Z " /><path  fill="#fff"  stroke="#fff" stroke-width="1" opacity="0.6666666666666666" d="M 95.5 21 L 96 23.5 L 95 23.5 L 95.5 21 Z " /><path  fill="#fff"  stroke="#fff" stroke-width="1" opacity="0.6666666666666666" d="M 58.5 27 L 61 27.5 L 58.5 28 L 58.5 27 Z " /><path  fill="#fff"  stroke="#fff" stroke-width="1" opacity="0.6666666666666666" d="M 81.5 27 L 82 29.5 L 81 29.5 L 81.5 27 Z " /><path  fill="#fff"  stroke="#fff" stroke-width="1" opacity="0.6666666666666666" d="M 94.5 27 L 95 29.5 L 94 29.5 L 94.5 27 Z " /><path  fill="#fff"  stroke="#fff" stroke-width="1" opacity="0.6666666666666666" d="M 98.5 28 L 97.5 30 L 98.5 28 Z " /><path  fill="#fff"  stroke="#fff" stroke-width="1" opacity="0.6666666666666666" d="M 52.5 30 L 60 30.5 L 51.5 32 L 52.5 30 Z " /><path  fill="#fff"  stroke="#fff" stroke-width="1" opacity="0.6666666666666666" d="M 6.5 31 L 4.5 34 L 6.5 31 Z " /><path  fill="#fff"  stroke="#fff" stroke-width="1" opacity="0.6666666666666666" d="M 102.5 31 L 105.5 35 L 102.5 31 Z " /><path  fill="#fff"  stroke="#fff" stroke-width="1" opacity="0.6666666666666666" d="M 50.5 35 L 51 37.5 L 50 37.5 L 50.5 35 Z " /><path  fill="#fff"  stroke="#fff" stroke-width="1" opacity="0.6666666666666666" d="M 63.5 36 L 64 38.5 L 63 38.5 L 63.5 36 Z " /><path  fill="#fff"  stroke="#fff" stroke-width="1" opacity="0.6666666666666666" d="M 15.5 37 L 13.5 40 L 15.5 37 Z " /><path  fill="#fff"  stroke="#fff" stroke-width="1" opacity="0.6666666666666666" d="M 21.5 39 L 22 41.5 L 21 41.5 L 21.5 39 Z " /><path  fill="#fff"  stroke="#fff" stroke-width="1" opacity="0.6666666666666666" d="M 49.5 41 L 50 43.5 L 49 43.5 L 49.5 41 Z " /><path  fill="#fff"  stroke="#fff" stroke-width="1" opacity="0.6666666666666666" d="M 108.5 41 L 109 44.5 L 108 44.5 L 108.5 41 Z " /><path  fill="#fff"  stroke="#fff" stroke-width="1" opacity="0.6666666666666666" d="M 91.5 44 L 92 46.5 L 91 46.5 L 91.5 44 Z " /><path  fill="#fff"  stroke="#fff" stroke-width="1" opacity="0.6666666666666666" d="M 22.5 45 L 23 47.5 L 22 47.5 L 22.5 45 Z " /><path  fill="#fff"  stroke="#fff" stroke-width="1" opacity="0.6666666666666666" d="M 65.5 47 L 66 49.5 L 65 49.5 L 65.5 47 Z " /><path  fill="#fff"  stroke="#fff" stroke-width="1" opacity="0.6666666666666666" d="M 90.5 50 L 91 52.5 L 90 52.5 L 90.5 50 Z " /><path  fill="#fff"  stroke="#fff" stroke-width="1" opacity="0.6666666666666666" d="M 47.5 52 L 48 54.5 L 47 54.5 L 47.5 52 Z " /><path  fill="#fff"  stroke="#fff" stroke-width="1" opacity="0.6666666666666666" d="M 7.5 54 L 8.5 56 L 7.5 54 Z " /><path  fill="#fff"  stroke="#fff" stroke-width="1" opacity="0.6666666666666666" d="M 56.5 56 Q 58.8 55.3 58 57.5 L 56.5 56 Z " /><path  fill="#fff"  stroke="#fff" stroke-width="1" opacity="0.6666666666666666" d="M 67.5 59 L 69 61.5 L 67 60.5 L 67.5 59 Z " /><path  fill="#fff"  stroke="#fff" stroke-width="1" opacity="0.6666666666666666" d="M 43.5 74 L 44 76.5 L 43 76.5 L 43.5 74 Z " /><path  fill="#fff"  stroke="#fff" stroke-width="1" opacity="0.6666666666666666" d="M 84.5 78 L 86 80.5 L 85 80.5 L 84.5 78 Z " /><path  fill="#fff"  stroke="#fff" stroke-width="1" opacity="0.6666666666666666" d="M 28.5 80 L 29 82.5 L 28 82.5 L 28.5 80 Z " /><path  fill="#fff"  stroke="#fff" stroke-width="1" opacity="0.6666666666666666" d="M 93.5 80 L 95.5 83 L 93.5 80 Z " /><path  fill="#fff"  stroke="#fff" stroke-width="1" opacity="0.6666666666666666" d="M 71.5 81 L 72 83.5 L 71 83.5 L 71.5 81 Z " /><path  fill="#fff"  stroke="#fff" stroke-width="1" opacity="0.6666666666666666" d="M 51.5 82 L 52 84.5 L 51 84.5 L 51.5 82 Z " /><path  fill="#fff"  stroke="#fff" stroke-width="1" opacity="0.6666666666666666" d="M 41.5 85 L 42 87.5 L 41 87.5 L 41.5 85 Z " /><path  fill="#fff"  stroke="#fff" stroke-width="1" opacity="0.6666666666666666" d="M 0.5 86 L 1 90.5 L 0 90.5 L 0.5 86 Z " /><path  fill="#fff"  stroke="#fff" stroke-width="1" opacity="0.6666666666666666" d="M 29.5 86 L 30 88.5 L 29 88.5 L 29.5 86 Z " /><path  fill="#fff"  stroke="#fff" stroke-width="1" opacity="0.6666666666666666" d="M 39.5 89 L 41 91.5 L 39 92 L 39.5 89 Z " /><path  fill="#fff"  stroke="#fff" stroke-width="1" opacity="0.6666666666666666" d="M 83.5 90 L 84 92.5 L 83 92.5 L 83.5 90 Z " /><path  fill="#fff"  stroke="#fff" stroke-width="1" opacity="0.6666666666666666" d="M 12.5 91 L 14.5 94 L 12.5 91 Z " /><path  fill="#fff"  stroke="#fff" stroke-width="1" opacity="0.6666666666666666" d="M 96.5 91 L 93.5 95 L 96.5 91 Z " /><path  fill="#fff"  stroke="#fff" stroke-width="1" opacity="0.6666666666666666" d="M 3.5 96 L 7.5 101 L 3.5 96 Z " /><path  fill="#fff"  stroke="#fff" stroke-width="1" opacity="0.6666666666666666" d="M 82.5 96 L 83 98.5 L 82 98.5 L 82.5 96 Z " /><path  fill="#fff"  stroke="#fff" stroke-width="1" opacity="0.6666666666666666" d="M 106.5 96 L 102.5 101 L 106.5 96 Z " /><path  fill="#fff"  stroke="#fff" stroke-width="1" opacity="0.6666666666666666" d="M 31.5 97 L 32 99.5 L 31 99.5 L 31.5 97 Z " /><path  fill="#fff"  stroke="#fff" stroke-width="1" opacity="0.6666666666666666" d="M 81.5 102 L 82 104.5 L 81 104.5 L 81.5 102 Z " /><path  fill="#fff"  stroke="#fff" stroke-width="1" opacity="0.6666666666666666" d="M 51.5 103 L 59 103.5 L 51.5 104 L 51.5 103 Z " /><path  fill="#fff"  stroke="#fff" stroke-width="1" opacity="0.6666666666666666" d="M 50.5 105 L 51 107.5 L 50 107.5 L 50.5 105 Z " /><path  fill="#fff"  stroke="#fff" stroke-width="1" opacity="0.6666666666666666" d="M 34.5 113 L 35 115.5 L 34 115.5 L 34.5 113 Z " /><path  fill="#fff"  stroke="#fff" stroke-width="1" opacity="0.6666666666666666" d="M 35.5 118 L 36 120.5 L 35 120.5 L 35.5 118 Z " /><path  fill="#fff"  stroke="#fff" stroke-width="1" opacity="0.24705882352941178" d="M 88.5 4 L 89 6.5 L 88 6.5 L 88.5 4 Z " /><path  fill="#fff"  stroke="#fff" stroke-width="1" opacity="0.24705882352941178" d="M 51.5 10 L 52 13.5 L 51 13.5 L 51.5 10 Z " /><path  fill="#fff"  stroke="#fff" stroke-width="1" opacity="0.24705882352941178" d="M 62.5 12 L 63 15.5 L 62 15.5 L 62.5 12 Z " /><path  fill="#fff"  stroke="#fff" stroke-width="1" opacity="0.24705882352941178" d="M 17.5 18 L 18 20.5 L 17 20.5 L 17.5 18 Z " /><path  fill="#fff"  stroke="#fff" stroke-width="1" opacity="0.24705882352941178" d="M 96.5 18 L 97 20.5 L 96 20.5 L 96.5 18 Z " /><path  fill="#fff"  stroke="#fff" stroke-width="1" opacity="0.24705882352941178" d="M 71.5 19 L 74 19.5 L 71.5 20 L 71.5 19 Z " /><path  fill="#fff"  stroke="#fff" stroke-width="1" opacity="0.24705882352941178" d="M 8.5 29 L 7.5 31 L 8.5 29 Z " /><path  fill="#fff"  stroke="#fff" stroke-width="1" opacity="0.24705882352941178" d="M 19.5 30 L 20 32.5 L 19 32.5 L 19.5 30 Z " /><path  fill="#fff"  stroke="#fff" stroke-width="1" opacity="0.24705882352941178" d="M 81.5 30 L 80.5 32 L 81.5 30 Z " /><path  fill="#fff"  stroke="#fff" stroke-width="1" opacity="0.24705882352941178" d="M 17.5 33 L 18 36.5 L 17 36.5 L 17.5 33 Z " /><path  fill="#fff"  stroke="#fff" stroke-width="1" opacity="0.24705882352941178" d="M 3.5 34 L 2.5 36 L 3.5 34 Z " /><path  fill="#fff"  stroke="#fff" stroke-width="1" opacity="0.24705882352941178" d="M 49.5 38 L 50 40.5 L 49 40.5 L 49.5 38 Z " /><path  fill="#fff"  stroke="#fff" stroke-width="1" opacity="0.24705882352941178" d="M 64.5 39 L 65 41.5 L 64 41.5 L 64.5 39 Z " /><path  fill="#fff"  stroke="#fff" stroke-width="1" opacity="0.24705882352941178" d="M 21.5 42 L 22 44.5 L 21 44.5 L 21.5 42 Z " /><path  fill="#fff"  stroke="#fff" stroke-width="1" opacity="0.24705882352941178" d="M 48.5 44 L 49 46.5 L 48 46.5 L 48.5 44 Z " /><path  fill="#fff"  stroke="#fff" stroke-width="1" opacity="0.24705882352941178" d="M 32.5 45 L 33 47.5 L 32 47.5 L 32.5 45 Z " /><path  fill="#fff"  stroke="#fff" stroke-width="1" opacity="0.24705882352941178" d="M 97.5 45 L 106 45.5 L 97.5 46 L 97.5 45 Z " /><path  fill="#fff"  stroke="#fff" stroke-width="1" opacity="0.24705882352941178" d="M 47.5 49 L 48 51.5 L 47 51.5 L 47.5 49 Z " /><path  fill="#fff"  stroke="#fff" stroke-width="1" opacity="0.24705882352941178" d="M 80.5 50 L 81 52.5 L 80 52.5 L 80.5 50 Z " /><path  fill="#fff"  stroke="#fff" stroke-width="1" opacity="0.24705882352941178" d="M 3.5 51 L 6.5 55 L 3.5 51 Z " /><path  fill="#fff"  stroke="#fff" stroke-width="1" opacity="0.24705882352941178" d="M 46.5 55 L 47 58 L 44 57.5 L 46 57 L 46.5 55 Z " /><path  fill="#fff"  stroke="#fff" stroke-width="1" opacity="0.24705882352941178" d="M 67.5 56 L 68 58.5 L 67 58.5 L 67.5 56 Z " /><path  fill="#fff"  stroke="#fff" stroke-width="1" opacity="0.24705882352941178" d="M 56.5 57 L 58 60.5 L 57 60.5 L 56.5 57 Z " /><path  fill="#fff"  stroke="#fff" stroke-width="1" opacity="0.24705882352941178" d="M 39.5 66 L 42 66.5 L 39.5 67 L 39.5 66 Z " /><path  fill="#fff"  stroke="#fff" stroke-width="1" opacity="0.24705882352941178" d="M 100.5 72 L 102.5 75 L 100.5 72 Z " /><path  fill="#fff"  stroke="#fff" stroke-width="1" opacity="0.24705882352941178" d="M 53.5 73 L 54 75.5 L 53 75.5 L 53.5 73 Z " /><path  fill="#fff"  stroke="#fff" stroke-width="1" opacity="0.24705882352941178" d="M 104.5 76 L 105.5 78 L 104.5 76 Z " /><path  fill="#fff"  stroke="#fff" stroke-width="1" opacity="0.24705882352941178" d="M 42.5 77 L 43 79.5 L 42 79.5 L 42.5 77 Z " /><path  fill="#fff"  stroke="#fff" stroke-width="1" opacity="0.24705882352941178" d="M 71.5 78 L 72 80.5 L 71 80.5 L 71.5 78 Z " /><path  fill="#fff"  stroke="#fff" stroke-width="1" opacity="0.24705882352941178" d="M 39.5 86 L 41 89.5 L 39 88.5 L 39.5 86 Z " /><path  fill="#fff"  stroke="#fff" stroke-width="1" opacity="0.24705882352941178" d="M 84.5 87 L 85 89.5 L 84 89.5 L 84.5 87 Z " /><path  fill="#fff"  stroke="#fff" stroke-width="1" opacity="0.24705882352941178" d="M 92.5 94 L 91.5 96 L 92.5 94 Z " /><path  fill="#fff"  stroke="#fff" stroke-width="1" opacity="0.24705882352941178" d="M 49.5 95 L 50 97.5 L 49 97.5 L 49.5 95 Z " /><path  fill="#fff"  stroke="#fff" stroke-width="1" opacity="0.24705882352941178" d="M 64.5 96 L 65 98.5 L 64 98.5 L 64.5 96 Z " /><path  fill="#fff"  stroke="#fff" stroke-width="1" opacity="0.24705882352941178" d="M 48.5 100 L 49 102.5 L 48 102.5 L 48.5 100 Z " /><path  fill="#fff"  stroke="#fff" stroke-width="1" opacity="0.24705882352941178" d="M 101.5 101 L 100.5 103 L 101.5 101 Z " /><path  fill="#fff"  stroke="#fff" stroke-width="1" opacity="0.24705882352941178" d="M 64.5 109 L 65 111.5 L 64 111.5 L 64.5 109 Z " /><path  fill="#fff"  stroke="#fff" stroke-width="1" opacity="0.24705882352941178" d="M 33.5 110 L 34 112.5 L 33 112.5 L 33.5 110 Z " /><path  fill="#fff"  stroke="#fff" stroke-width="1" opacity="0.24705882352941178" d="M 52.5 112 L 59 112.5 L 52.5 113 L 52.5 112 Z " /><path  fill="#fff"  stroke="#fff" stroke-width="1" opacity="0.996078431372549" d="M 16 0 L 24 0 L 24 5.5 L 24 7.5 L 25 10.5 L 23 11.5 L 26 12.5 L 25.5 16 L 24 15.5 L 25 18.5 L 24.5 20 Q 27.1 20.8 26 17.5 L 27 17.5 L 26 24 L 28 24.5 L 28 31.5 L 30 34.5 L 31 45.5 L 32 48 L 28 48 L 28 42 L 23 42 L 23 40.5 L 24 37.5 L 23 34.5 L 24 32 Q 17.6 34.1 20 27 L 22 26.5 L 19 24.5 L 18 17.5 Q 20.5 16 17 14.5 L 16 4.5 L 17 2.5 L 16 0 Z " /><path  fill="#fff"  stroke="#fff" stroke-width="1" opacity="0.996078431372549" d="M 92 0 Q 97.2 -1.7 96 2 L 92 4.5 L 93.5 5 L 95 4.5 Q 93.3 9.3 97.5 8 L 96 10.5 L 95.5 19 L 95 16 L 87.5 17 L 88 15.5 L 89 4.5 L 90.5 3 L 92 3.5 L 92 0 Z " /><path  fill="#fff"  stroke="#fff" stroke-width="1" opacity="0.996078431372549" d="M 59 11 L 62 12.5 Q 63 16.3 60 15 L 59 11 Z " /><path  fill="#fff"  stroke="#fff" stroke-width="1" opacity="0.996078431372549" d="M 52 12 L 57 12.5 L 53 13 L 52.5 15 L 52 12 Z " /><path  fill="#fff"  stroke="#fff" stroke-width="1" opacity="0.996078431372549" d="M 57.5 19 L 59 19.5 L 57 20.5 L 58 22.5 L 56 22.5 Q 56.8 25.1 53.5 24 L 52 24.5 L 54.5 21 L 57.5 19 Z " /><path  fill="#fff"  stroke="#fff" stroke-width="1" opacity="0.996078431372549" d="M 62.5 19 L 65 19.5 L 63 25.5 L 67.5 27 L 69 24.5 Q 66.8 23.3 69.5 22 L 71 27.5 L 69.5 28 L 67.5 28 L 62 25.5 Q 64.3 24.3 61.5 23 L 58.5 25 L 58.5 24 L 60 23.5 L 59.5 22 L 62.5 23 L 63 21.5 L 62.5 19 Z " /><path  fill="#fff"  stroke="#fff" stroke-width="1" opacity="0.996078431372549" d="M 88.5 19 L 90 21.5 L 89 23.5 L 90 25.5 L 88 26.5 L 87.5 23 L 86 23.5 L 88.5 19 Z " /><path  fill="#fff"  stroke="#fff" stroke-width="1" opacity="0.996078431372549" d="M 44 20 L 49 20.5 L 45 21.5 L 47 22.5 L 45 23.5 L 51 24.5 L 44.5 27 L 42 26 Q 43.1 28.7 40.5 28 L 41 26.5 L 44 20 Z " /><path  fill="#fff"  stroke="#fff" stroke-width="1" opacity="0.996078431372549" d="M 38.5 22 L 40 25.5 L 38 26 L 37.5 28 L 37 26.5 L 38.5 22 Z " /><path  fill="#fff"  stroke="#fff" stroke-width="1" opacity="0.996078431372549" d="M 72 22 L 75 22 Q 73.8 25 77.5 24 L 79.5 25 L 81 24.5 Q 81.8 27.1 78.5 26 L 72 24 L 72 22 Z " /><path  fill="#fff"  stroke="#fff" stroke-width="1" opacity="0.996078431372549" d="M 76.5 22 L 80 22.5 L 76.5 23 L 76.5 22 Z " /><path  fill="#fff"  stroke="#fff" stroke-width="1" opacity="0.996078431372549" d="M 33.5 23 L 34 27.5 L 33 27.5 L 32 24.5 L 33.5 23 Z " /><path  fill="#fff"  stroke="#fff" stroke-width="1" opacity="0.996078431372549" d="M 14.5 27 L 14 28.5 Q 12.5 32.9 15.5 32 L 15 33.5 L 15 37.5 L 11.5 42 Q 8.9 41.3 10 44 Q 13 42.8 12 46.5 L 11.5 48 Q 13.8 48.8 13 46.5 L 14 46.5 Q 13.3 48.8 15.5 48 L 21 51.5 L 20 55 L 22.5 54 Q 24.5 58 26.5 54 Q 28.8 53.3 28 55.5 L 25 56.5 Q 25.5 59.5 18.5 58 L 15.5 59 L 14.5 56 L 11.5 57 L 6 52.5 L 6.5 51 L 4 50.5 L 6 50 Q 7.2 46.3 2 48 L 2 44.5 L 1 41 L 4 39.5 L 3.5 38 L 6 39.5 L 5.5 41 L 10 42 Q 11 39 8 40 L 8 37.5 L 9 34 L 6 33.5 L 10 32 L 10.5 29 L 12.5 30 L 12.5 28 L 14.5 27 Z M 7 44 Q 6 47 10 46 Q 11 43 7 44 Z M 20 56 L 20 57 L 24 57 L 20 56 Z " /><path  fill="#fff"  stroke="#fff" stroke-width="1" opacity="0.996078431372549" d="M 85 27 Q 88 26 87 29 Q 84 30 85 27 Z " /><path  fill="#fff"  stroke="#fff" stroke-width="1" opacity="0.996078431372549" d="M 52.5 32 L 56.5 34 L 60.5 32 L 63 34.5 L 63 44.5 L 64 50 L 62 50.5 L 66 52.5 L 65.5 56 L 64.5 54 L 61 56.5 L 63.5 58 L 65.5 57 L 67 59.5 L 66.5 62 L 62.5 63 L 60.5 62 L 59 62.5 L 58 60.5 L 60 60.5 L 59.5 55 L 57.5 55 L 55 56.5 L 55 64.5 L 53.5 66 L 53.5 64 L 50 64 L 50 60 Q 47 61.3 48 57.5 L 48 55.5 L 50.5 39 L 51.5 41 L 53.5 40 L 55.5 41 L 57 38.5 L 57 36.5 Q 57.8 33.9 54.5 35 L 53 35.5 L 53.5 34 Q 50.5 33.1 52 37.5 L 51 37.5 Q 50 33 52.5 32 Z " /><path  fill="#fff"  stroke="#fff" stroke-width="1" opacity="0.996078431372549" d="M 90.5 32 L 93 33.5 L 88.5 34 L 88.5 33 L 90.5 32 Z " /><path  fill="#fff"  stroke="#fff" stroke-width="1" opacity="0.996078431372549" d="M 102.5 32 L 104 33.5 L 104.5 42 Q 106.3 38.3 108 41.5 L 107.5 45 L 106.5 41 Q 103.8 42.3 106 43.5 L 105.5 45 Q 104.3 41.8 98.5 43 L 97 43.5 L 98 39.5 L 97 33 L 102.5 32 Z " /><path  fill="#fff"  stroke="#fff" stroke-width="1" opacity="0.996078431372549" d="M 84.5 33 L 87 33.5 L 84 35.5 L 84.5 33 Z " /><path  fill="#fff"  stroke="#fff" stroke-width="1" opacity="0.996078431372549" d="M 4.5 35 L 6 35.5 L 3.5 37 L 4.5 35 Z " /><path  fill="#fff"  stroke="#fff" stroke-width="1" opacity="0.996078431372549" d="M 86 36 L 88 36.5 L 86 37.5 L 86 36 Z " /><path  fill="#fff"  stroke="#fff" stroke-width="1" opacity="0.996078431372549" d="M 84.5 37 L 91 46.5 L 90 46.5 L 88.5 44 Q 84.3 45.3 86 40.5 L 83 39.5 L 84.5 37 Z " /><path  fill="#fff"  stroke="#fff" stroke-width="1" opacity="0.996078431372549" d="M 91.5 37 L 93 37.5 L 88.5 39 L 88.5 38 L 91.5 37 Z " /><path  fill="#fff"  stroke="#fff" stroke-width="1" opacity="0.996078431372549" d="M 84.5 44 L 88 46 L 87.5 50 L 84.5 44 Z " /><path  fill="#fff"  stroke="#fff" stroke-width="1" opacity="0.996078431372549" d="M 23 46 L 27 47.5 L 25 48.5 L 24.5 47 L 23 47.5 L 23 46 Z " /><path  fill="#fff"  stroke="#fff" stroke-width="1" opacity="0.996078431372549" d="M 29.5 50 L 32 50.5 L 29.5 51 L 29.5 50 Z " /><path  fill="#fff"  stroke="#fff" stroke-width="1" opacity="0.996078431372549" d="M 85.5 54 L 90 54.5 L 88.5 57 L 85.5 56 L 84 55.5 L 85.5 54 Z " /><path  fill="#fff"  stroke="#fff" stroke-width="1" opacity="0.996078431372549" d="M 29.5 56 L 34 56.5 L 32 57 Q 30.4 61.9 36 60 L 36.5 56 L 43 59.5 L 41 60.5 L 40.5 59 L 39.5 64 L 35.5 63 L 31.5 64 L 24 62 L 26.5 58 L 29.5 56 Z " /><path  fill="#fff"  stroke="#fff" stroke-width="1" opacity="0.996078431372549" d="M 69.5 62 L 72 63.5 Q 71.3 66.1 74 65 L 74.5 63 L 80 65 Q 77.6 72.1 84 70 Q 82.8 67 86.5 68 Q 87.8 65.7 89 68.5 L 88 73 Q 94.6 74.7 96.5 71 L 100 73.5 L 100 76 Q 102.7 74.9 102 77.5 L 104 77.5 Q 105.2 82.1 100 80 L 100 84 Q 105.2 82.3 104 86 Q 100.3 84.8 102 90 Q 105 89 104 92 Q 100.3 90.8 102 96 L 98 96 Q 99.3 93 95.5 94 L 95.5 93 Q 98.1 93.8 97 90.5 L 98 85.5 L 95.5 81 L 94 80.5 L 96.5 79 L 100 80 L 100 76 L 91.5 76 L 89.5 77 L 83 74.5 Q 85.3 73.3 82.5 72 L 79.5 73 L 76.5 72 L 69 71 L 70 73.5 L 68 74.5 L 71 79.5 L 73 90.5 L 72 93.5 Q 70.8 98.1 76 96 Q 73.9 90.8 78.5 92 L 80 96 L 82.5 95 L 81.5 97 L 80 97.5 L 82 98.5 L 80 99.5 L 81 101.5 L 80 104.5 Q 82.3 105.8 79.5 107 L 76 106 Q 77.1 102.7 73 104 Q 74.8 108.5 69.5 107 L 69.5 106 Q 73.3 107 72 104 L 68 105.5 L 68.5 109 L 70 108.5 L 68.5 115 L 67 104.5 L 68 100 L 65 98.5 L 64 89.5 L 65 86 Q 62.3 87.1 63 84.5 L 64 83.5 L 62 79.5 L 62.5 78 L 63.5 80 L 64 74.5 L 62.5 72 L 61 72.5 L 60 67 L 62 66.5 L 59 64.5 L 64.5 64 L 70 65 L 69.5 62 Z M 65 80 L 63 82 L 65 82 L 65 80 Z M 68 92 Q 66 97 70 96 Q 72 91 68 92 Z " /><path  fill="#fff"  stroke="#fff" stroke-width="1" opacity="0.996078431372549" d="M 53.5 67 L 54 69.5 L 53 72 L 50 73.5 Q 48.7 79.3 52 80.5 L 49 82 L 48 84.5 L 50 85.5 L 47 86 Q 45.1 83.3 46 76.5 L 47 74.5 L 46 72 L 49 70.5 L 48 68 L 52 68 L 52 69.5 L 53 69.5 L 53.5 67 Z M 48 78 L 48 81 Q 51 80 48 78 Z " /><path  fill="#fff"  stroke="#fff" stroke-width="1" opacity="0.996078431372549" d="M 31.5 68 L 35 68.5 L 34.5 70 L 36 70.5 Q 32.4 71.9 33 77.5 L 34 77.5 L 35.5 75 L 37 79.5 L 35.5 79 L 34 79 L 34 83 L 31.5 83 L 29 82.5 L 30.5 80 L 32 79.5 L 30 78.5 L 32 78 L 32 74 L 30.5 74 L 30.5 73 L 34 72 Q 35.1 69.3 32.5 70 L 31.5 68 Z " /><path  fill="#fff"  stroke="#fff" stroke-width="1" opacity="0.996078431372549" d="M 52.5 73 L 53 75.5 L 52 75.5 L 52.5 73 Z " /><path  fill="#fff"  stroke="#fff" stroke-width="1" opacity="0.996078431372549" d="M 78 79 L 81 79.5 L 80 82 Q 76.7 83.1 78 79 Z " /><path  fill="#fff"  stroke="#fff" stroke-width="1" opacity="0.996078431372549" d="M 106.5 82 L 107.5 84 L 106.5 82 Z " /><path  fill="#fff"  stroke="#fff" stroke-width="1" opacity="0.996078431372549" d="M 31.5 85 L 31 86.5 Q 33.6 87.9 33 92.5 L 30 90.5 Q 29 86 31.5 85 Z " /><path  fill="#fff"  stroke="#fff" stroke-width="1" opacity="0.996078431372549" d="M 7.5 86 L 8 87.5 L 4 89 Q 2.3 95.1 5.5 97 L 9 98.5 Q 9.8 100.8 7.5 100 Q 1.4 96.4 1 88 L 7 88 L 7.5 86 Z " /><path  fill="#fff"  stroke="#fff" stroke-width="1" opacity="0.996078431372549" d="M 10.5 86 L 12 91.5 L 9 92.5 L 8.5 94 L 7 90 L 10 88.5 L 10.5 86 Z " /><path  fill="#fff"  stroke="#fff" stroke-width="1" opacity="0.996078431372549" d="M 78 86 L 82 86.5 L 80 87.5 L 80.5 89 L 78 88 L 78 86 Z " /><path  fill="#fff"  stroke="#fff" stroke-width="1" opacity="0.996078431372549" d="M 107.5 86 L 107 87.5 L 108 89.5 L 106 88.5 L 107.5 86 Z " /><path  fill="#fff"  stroke="#fff" stroke-width="1" opacity="0.996078431372549" d="M 47 88 Q 51.5 86.3 50 91.5 L 48 95.5 L 48 99.5 L 46 112 L 40 112 L 40 108 Q 34 110 36 104 L 44 104 L 44 96 Q 47.7 97.5 47 94.5 L 49 91.5 L 47 91 L 47 88 Z " /><path  fill="#fff"  stroke="#fff" stroke-width="1" opacity="0.996078431372549" d="M 107.5 92 L 106.5 94 L 107.5 92 Z " /><path  fill="#fff"  stroke="#fff" stroke-width="1" opacity="0.996078431372549" d="M 11 94 L 17 95.5 Q 15.6 98.3 11 97 L 11 94 Z " /><path  fill="#fff"  stroke="#fff" stroke-width="1" opacity="0.996078431372549" d="M 88.5 98 L 89 104 L 87 103.5 L 88.5 98 Z " /><path  fill="#fff"  stroke="#fff" stroke-width="1" opacity="0.996078431372549" d="M 22.5 99 L 26 100.5 L 26.5 102 L 27.5 100 L 29 102.5 L 26 103 Q 24.5 106.7 27.5 106 L 30 107.5 L 28.5 108 L 26.5 107 L 24 108 L 25 102.5 L 22.5 99 Z " /><path  fill="#fff"  stroke="#fff" stroke-width="1" opacity="0.996078431372549" d="M 10 100 L 12 100.5 L 11.5 103 L 10 100 Z " /><path  fill="#fff"  stroke="#fff" stroke-width="1" opacity="0.996078431372549" d="M 13.5 103 L 17 104.5 L 15.5 105 L 13.5 103 Z " /><path  fill="#fff"  stroke="#fff" stroke-width="1" opacity="0.996078431372549" d="M 56.5 104 L 58.5 105 L 61.5 104 L 64 110.5 L 57.5 111 L 54 105.5 L 56.5 104 Z " /><path  fill="#fff"  stroke="#fff" stroke-width="1" opacity="0.996078431372549" d="M 85.5 104 L 86 106 L 89 106.5 L 84.5 108 L 85 106.5 L 85.5 104 Z " /><path  fill="#fff"  stroke="#fff" stroke-width="1" opacity="0.996078431372549" d="M 35.5 115 L 38 116 L 39.5 120 L 40 116 L 44 117.5 L 43.5 122 L 42.5 117 L 42 122 L 36 122 L 36 118.5 L 35.5 115 Z " /><path  fill="#fff"  stroke="#fff" stroke-width="1" opacity="0.996078431372549" d="M 77.5 116 Q 80.3 117.3 78 118.5 Q 79.3 123.3 76 122 L 77 118 L 75 117.5 L 77.5 116 Z " /><path  fill="#fff"  stroke="#fff" stroke-width="1" opacity="0.996078431372549" d="M 94.5 2 Q 97.1 1.3 96 4 L 92.5 5 L 91.5 3 Q 93 5.5 94.5 2 Z " /><path  fill="#fff"  stroke="#fff" stroke-width="1" opacity="0.996078431372549" d="M 54.5 10 L 57 11.5 L 53.5 12 L 54.5 10 Z " /><path  fill="#fff"  stroke="#fff" stroke-width="1" opacity="0.996078431372549" d="M 89 16 L 95 16 L 95 18.5 L 95 20.5 Q 95.8 28.8 92.5 33 L 90.5 32 L 88 33 Q 86.7 37.1 90 36 Q 89 33 92 34 L 93 36.5 L 91.5 36 L 87 38.5 L 86 42 L 84 41.5 L 88 36.5 L 86.5 33 L 85 33.5 Q 84.2 30.5 88 32 L 88 29.5 L 87 28.5 L 90 25.5 L 89 22.5 L 90 20.5 L 89 16 Z " /><path  fill="#fff"  stroke="#fff" stroke-width="1" opacity="0.996078431372549" d="M 48.5 19 Q 50 21.5 55.5 20 L 57 19.5 L 53 22.5 Q 52.2 25.5 56 24 L 56.5 22 L 57.5 24 Q 54.9 23.3 56 26 L 53 26 Q 54.3 23 50.5 24 L 45 21.5 L 49 20.5 L 48.5 19 Z " /><path  fill="#fff"  stroke="#fff" stroke-width="1" opacity="0.996078431372549" d="M 68 20 Q 70.7 18.9 70 21.5 L 68 22.5 L 68 20 Z " /><path  fill="#fff"  stroke="#fff" stroke-width="1" opacity="0.996078431372549" d="M 73.5 20 L 76 21 Q 74.8 24 78.5 23 L 79.5 25 L 75 24 L 73.5 20 Z " /><path  fill="#fff"  stroke="#fff" stroke-width="1" opacity="0.996078431372549" d="M 35.5 21 L 35 22.5 Q 33.9 25.8 36.5 25 L 38 24.5 L 36.5 29 L 34 28 L 35 25.5 L 34 22.5 L 35.5 21 Z " /><path  fill="#fff"  stroke="#fff" stroke-width="1" opacity="0.996078431372549" d="M 61.5 23 L 63 26.5 L 60 24.5 L 61.5 23 Z " /><path  fill="#fff"  stroke="#fff" stroke-width="1" opacity="0.996078431372549" d="M 19.5 26 L 22 26.5 L 19.5 27 L 19.5 26 Z " /><path  fill="#fff"  stroke="#fff" stroke-width="1" opacity="0.996078431372549" d="M 79.5 26 L 80.5 28 L 79.5 26 Z " /><path  fill="#fff"  stroke="#fff" stroke-width="1" opacity="0.996078431372549" d="M 71.5 27 L 74 27.5 Q 71.9 30.8 71.5 27 Z " /><path  fill="#fff"  stroke="#fff" stroke-width="1" opacity="0.996078431372549" d="M 15.5 28 L 16 32 L 14 31.5 L 15.5 28 Z " /><path  fill="#fff"  stroke="#fff" stroke-width="1" opacity="0.996078431372549" d="M 22.5 34 L 23.5 36 Q 20.7 36.7 22.5 34 Z " /><path  fill="#fff"  stroke="#fff" stroke-width="1" opacity="0.996078431372549" d="M 54.5 35 Q 58.3 34 57 37 L 53 38.5 L 51.5 41 L 51 38.5 L 54.5 35 Z " /><path  fill="#fff"  stroke="#fff" stroke-width="1" opacity="0.996078431372549" d="M 4.5 36 Q 7.1 35.3 6 38 L 8 38 L 8 41 L 5 40.5 Q 7.3 39.3 4.5 38 L 3 37.5 L 4.5 36 Z " /><path  fill="#fff"  stroke="#fff" stroke-width="1" opacity="0.996078431372549" d="M 22 42 L 24 42.5 L 22 43.5 L 22 42 Z " /><path  fill="#fff"  stroke="#fff" stroke-width="1" opacity="0.996078431372549" d="M 99.5 43 L 104 43.5 L 99.5 44 L 99.5 43 Z " /><path  fill="#fff"  stroke="#fff" stroke-width="1" opacity="0.996078431372549" d="M 84.5 45 Q 88.8 47.8 88 54 L 83.5 55 L 81 54.5 L 81 51.5 L 84.5 45 Z " /><path  fill="#fff"  stroke="#fff" stroke-width="1" opacity="0.996078431372549" d="M 12.5 46 L 13 48 L 11 47.5 L 12.5 46 Z " /><path  fill="#fff"  stroke="#fff" stroke-width="1" opacity="0.996078431372549" d="M 27.5 46 L 28 48 L 32 48 L 32 49.5 L 29.5 50 Q 24.8 51.2 27.5 46 Z " /><path  fill="#fff"  stroke="#fff" stroke-width="1" opacity="0.996078431372549" d="M 62.5 50 L 66 50.5 L 62.5 51 L 62.5 50 Z " /><path  fill="#fff"  stroke="#fff" stroke-width="1" opacity="0.996078431372549" d="M 28.5 55 L 27.5 57 L 26 56.5 L 28.5 55 Z " /><path  fill="#fff"  stroke="#fff" stroke-width="1" opacity="0.996078431372549" d="M 59.5 55 L 60 60.5 L 59 60.5 L 58 56.5 L 59.5 55 Z " /><path  fill="#fff"  stroke="#fff" stroke-width="1" opacity="0.996078431372549" d="M 19.5 56 L 24 56.5 L 19.5 57 L 19.5 56 Z " /><path  fill="#fff"  stroke="#fff" stroke-width="1" opacity="0.996078431372549" d="M 40.5 63 L 39.5 65 L 40.5 63 Z " /><path  fill="#fff"  stroke="#fff" stroke-width="1" opacity="0.996078431372549" d="M 42.5 63 L 43.5 65 L 42.5 63 Z " /><path  fill="#fff"  stroke="#fff" stroke-width="1" opacity="0.996078431372549" d="M 80 65 L 87 67.5 L 84 68 Q 85.2 71.7 80 70 L 80 65 Z " /><path  fill="#fff"  stroke="#fff" stroke-width="1" opacity="0.996078431372549" d="M 33.5 70 L 35 72.5 L 33 71.5 L 33.5 70 Z " /><path  fill="#fff"  stroke="#fff" stroke-width="1" opacity="0.996078431372549" d="M 45.5 70 L 46 73.5 L 45 75.5 L 46 77.5 L 45 77.5 L 44 72.5 L 45.5 70 Z " /><path  fill="#fff"  stroke="#fff" stroke-width="1" opacity="0.996078431372549" d="M 51.5 72 L 52 79.5 L 50 78.5 Q 48.8 73.3 51.5 72 Z " /><path  fill="#fff"  stroke="#fff" stroke-width="1" opacity="0.996078431372549" d="M 91.5 72 L 95 72.5 L 91.5 73 L 91.5 72 Z " /><path  fill="#fff"  stroke="#fff" stroke-width="1" opacity="0.996078431372549" d="M 30 74 Q 33.7 72.8 32 78 L 28 77.5 L 30 77 L 30 74 Z " /><path  fill="#fff"  stroke="#fff" stroke-width="1" opacity="0.996078431372549" d="M 62 76 Q 65 75 64 78 Q 61 79 62 76 Z " /><path  fill="#fff"  stroke="#fff" stroke-width="1" opacity="0.996078431372549" d="M 92 76 Q 97.6 73.8 96 79.5 L 96.5 83 L 95.5 80 L 92 78.5 L 92 76 Z " /><path  fill="#fff"  stroke="#fff" stroke-width="1" opacity="0.996078431372549" d="M 47.5 78 L 49.5 81 L 47 80.5 L 47.5 78 Z " /><path  fill="#fff"  stroke="#fff" stroke-width="1" opacity="0.996078431372549" d="M 108.5 86 L 109 89.5 L 107 88.5 L 108.5 86 Z " /><path  fill="#fff"  stroke="#fff" stroke-width="1" opacity="0.996078431372549" d="M 77.5 88 Q 80.8 86.9 80 89.5 L 79 92 Q 74.1 90.4 76 96 L 72 96 L 72 93 Q 74.7 94.1 74 91.5 L 75 89 L 77.5 88 Z " /><path  fill="#fff"  stroke="#fff" stroke-width="1" opacity="0.996078431372549" d="M 4 89 L 6.5 90 L 8.5 89 L 8.5 90 Q 5.9 89.2 7 92.5 L 7 94.5 L 6.5 97 L 6 95 L 4 95 L 4 89 Z " /><path  fill="#fff"  stroke="#fff" stroke-width="1" opacity="0.996078431372549" d="M 10.5 91 L 11 92.5 L 9 93.5 L 10.5 91 Z " /><path  fill="#fff"  stroke="#fff" stroke-width="1" opacity="0.996078431372549" d="M 68 92 Q 71.7 90.8 70 96 Q 66.3 97.2 68 92 Z " /><path  fill="#fff"  stroke="#fff" stroke-width="1" opacity="0.996078431372549" d="M 107.5 93 L 107 94.5 L 106.5 96 L 106 94.5 L 107.5 93 Z " /><path  fill="#fff"  stroke="#fff" stroke-width="1" opacity="0.996078431372549" d="M 10.5 95 L 12 100 Q 8.2 101.5 9 98.5 L 8.5 97 Q 11 97.7 10.5 95 Z " /><path  fill="#fff"  stroke="#fff" stroke-width="1" opacity="0.996078431372549" d="M 16.5 96 L 20 97.5 L 19.5 100 Q 14.7 101.3 16 98 L 18 97.5 L 16.5 96 Z " /><path  fill="#fff"  stroke="#fff" stroke-width="1" opacity="0.996078431372549" d="M 89 97 L 95 97.5 Q 92.8 98.7 95.5 100 L 99 101.5 L 97.5 101 L 94 101.5 L 94 103.5 L 93.5 105 L 93 103 L 89 103 L 89 97 Z " /><path  fill="#fff"  stroke="#fff" stroke-width="1" opacity="0.996078431372549" d="M 21 98 L 23 98.5 L 21 99.5 L 21 98 Z " /><path  fill="#fff"  stroke="#fff" stroke-width="1" opacity="0.996078431372549" d="M 80.5 99 Q 82.8 98.3 82 100.5 L 80.5 99 Z " /><path  fill="#fff"  stroke="#fff" stroke-width="1" opacity="0.996078431372549" d="M 87.5 99 L 88 100.5 L 86 101.5 L 87.5 99 Z " /><path  fill="#fff"  stroke="#fff" stroke-width="1" opacity="0.996078431372549" d="M 66 100 Q 69.3 98.9 68 103 Q 64.7 104.1 66 100 Z " /><path  fill="#fff"  stroke="#fff" stroke-width="1" opacity="0.996078431372549" d="M 73 104 L 76 104 Q 74.8 107 78.5 106 Q 81 107 80 111.5 L 79 116 L 77 116.5 L 77.5 118 L 74 116 L 72.5 110 L 72 112 Q 69 113.3 70 109.5 L 73 108.5 L 73 106.5 L 73 104 Z " /><path  fill="#fff"  stroke="#fff" stroke-width="1" opacity="0.996078431372549" d="M 20.5 106 Q 24.9 104.5 24 107.5 L 22.5 107 Q 19.5 107.5 20.5 106 Z " /><path  fill="#fff"  stroke="#fff" stroke-width="1" opacity="0.996078431372549" d="M 28.5 106 L 27.5 108 L 26 107.5 L 28.5 106 Z " /><path  fill="#fff"  stroke="#fff" stroke-width="1" opacity="0.996078431372549" d="M 33.5 106 L 36 106.5 L 33.5 107 L 33.5 106 Z " /><path  fill="#fff"  stroke="#fff" stroke-width="1" opacity="0.996078431372549" d="M 72.5 119 L 70.5 122 L 70 120 L 72.5 119 Z " /><path  fill="#fff"  stroke="#fff" stroke-width="1" opacity="0.26666666666666666" d="M 51.5 15 L 54 15.5 L 51.5 16 L 51.5 15 Z " /><path  fill="#fff"  stroke="#fff" stroke-width="1" opacity="0.26666666666666666" d="M 56.5 15 L 61 15.5 L 56.5 16 L 56.5 15 Z " /><path  fill="#fff"  stroke="#fff" stroke-width="1" opacity="0.26666666666666666" d="M 52.5 18 L 62 18.5 L 52.5 19 L 52.5 18 Z " /><path  fill="#fff"  stroke="#fff" stroke-width="1" opacity="0.26666666666666666" d="M 85.5 21 L 86 23.5 L 85 23.5 L 85.5 21 Z " /><path  fill="#fff"  stroke="#fff" stroke-width="1" opacity="0.26666666666666666" d="M 51.5 27 L 56 27.5 L 51.5 28 L 51.5 27 Z " /><path  fill="#fff"  stroke="#fff" stroke-width="1" opacity="0.26666666666666666" d="M 29.5 28 L 30 30.5 L 29 30.5 L 29.5 28 Z " /><path  fill="#fff"  stroke="#fff" stroke-width="1" opacity="0.26666666666666666" d="M 0.5 41 L 1 43.5 L 0 43.5 L 0.5 41 Z " /><path  fill="#fff"  stroke="#fff" stroke-width="1" opacity="0.26666666666666666" d="M 14.5 46 L 15.5 48 L 14.5 46 Z " /><path  fill="#fff"  stroke="#fff" stroke-width="1" opacity="0.26666666666666666" d="M 30.5 54 L 33 54.5 L 30.5 55 L 30.5 54 Z " /><path  fill="#fff"  stroke="#fff" stroke-width="1" opacity="0.26666666666666666" d="M 97.5 70 L 98.5 72 L 97.5 70 Z " /><path  fill="#fff"  stroke="#fff" stroke-width="1" opacity="0.26666666666666666" d="M 61.5 80 L 62 82.5 L 61 82.5 L 61.5 80 Z " /><path  fill="#fff"  stroke="#fff" stroke-width="1" opacity="0.26666666666666666" d="M 0.5 85 L 11.5 85 L 12 88.5 L 11 88.5 L 10.5 86 L 0.5 86 L 0.5 85 Z " /><path  fill="#fff"  stroke="#fff" stroke-width="1" opacity="0.26666666666666666" d="M 47.5 105 L 48 107.5 L 47 107.5 L 47.5 105 Z " /><path  fill="#fff"  stroke="#fff" stroke-width="1" opacity="0.26666666666666666" d="M 46.5 110 L 47 112.5 L 46 112.5 L 46.5 110 Z " /><path  fill="#fff"  stroke="#fff" stroke-width="1" opacity="0.996078431372549" d="M 24.5 15 L 25.5 17 Q 22.7 17.7 24.5 15 Z " /><path  fill="#fff"  stroke="#fff" stroke-width="1" opacity="0.996078431372549" d="M 49.5 19 L 56 19.5 L 49.5 20 L 49.5 19 Z " /><path  fill="#fff"  stroke="#fff" stroke-width="1" opacity="0.996078431372549" d="M 35 22 Q 38.7 20.5 38 23.5 L 35 25 L 35 22 Z " /><path  fill="#fff"  stroke="#fff" stroke-width="1" opacity="0.996078431372549" d="M 47.5 22 L 50 23.5 L 47 24 L 47.5 22 Z " /><path  fill="#fff"  stroke="#fff" stroke-width="1" opacity="0.996078431372549" d="M 56 24 L 62 26.5 L 56 27 L 56 24 Z " /><path  fill="#fff"  stroke="#fff" stroke-width="1" opacity="0.996078431372549" d="M 48.5 25 L 49.5 27 L 47 26.5 L 48.5 25 Z " /><path  fill="#fff"  stroke="#fff" stroke-width="1" opacity="0.996078431372549" d="M 72.5 25 Q 77.8 23.8 79 26.5 Q 80.5 30.9 77.5 30 L 74.5 28 L 73 28.5 L 74 26 L 72.5 25 Z " /><path  fill="#fff"  stroke="#fff" stroke-width="1" opacity="0.996078431372549" d="M 42 26 Q 45 25 44 28 Q 41 29 42 26 Z " /><path  fill="#fff"  stroke="#fff" stroke-width="1" opacity="0.996078431372549" d="M 85 29 Q 88.7 27.5 88 30.5 L 85 32 L 85 29 Z " /><path  fill="#fff"  stroke="#fff" stroke-width="1" opacity="0.996078431372549" d="M 6 34 Q 9.7 32.8 8 38 Q 4.3 39.2 6 34 Z " /><path  fill="#fff"  stroke="#fff" stroke-width="1" opacity="0.996078431372549" d="M 88 34 L 92 36 L 92.5 34 L 93 35.5 L 90 37.5 Q 90.7 34.9 88 36 L 88 34 Z " /><path  fill="#fff"  stroke="#fff" stroke-width="1" opacity="0.996078431372549" d="M 21.5 35 L 23 38 Q 19.5 39.1 21.5 35 Z " /><path  fill="#fff"  stroke="#fff" stroke-width="1" opacity="0.996078431372549" d="M 54.5 37 L 57 38.5 L 55.5 41 L 53 39.5 L 54.5 37 Z " /><path  fill="#fff"  stroke="#fff" stroke-width="1" opacity="0.996078431372549" d="M 106.5 37 L 108 40.5 L 106 39.5 L 106.5 37 Z " /><path  fill="#fff"  stroke="#fff" stroke-width="1" opacity="0.996078431372549" d="M 87.5 38 L 92 39 Q 92.8 42.8 89.5 44 Q 85.9 42.1 87.5 38 Z " /><path  fill="#fff"  stroke="#fff" stroke-width="1" opacity="0.996078431372549" d="M 83.5 44 L 84 46.5 L 82.5 49 L 82 45.5 L 83.5 44 Z " /><path  fill="#fff"  stroke="#fff" stroke-width="1" opacity="0.996078431372549" d="M 82 55 L 86 56 Q 85 59 88 58 L 88 61.5 L 86.5 61 L 82 57.5 L 82 55 Z " /><path  fill="#fff"  stroke="#fff" stroke-width="1" opacity="0.996078431372549" d="M 41.5 63 Q 44.5 64.5 41.5 66 Q 39.3 66.8 40 64.5 L 41.5 63 Z " /><path  fill="#fff"  stroke="#fff" stroke-width="1" opacity="0.996078431372549" d="M 31.5 69 L 33 72 L 30 72 Q 31.3 76.1 28 75 Q 27 71.2 29.5 70 L 31.5 69 Z " /><path  fill="#fff"  stroke="#fff" stroke-width="1" opacity="0.996078431372549" d="M 92 69 L 96 70 Q 97.3 73.7 91.5 72 L 92 70.5 L 92 69 Z " /><path  fill="#fff"  stroke="#fff" stroke-width="1" opacity="0.996078431372549" d="M 45 74 Q 48 73 47 76 Q 44 77 45 74 Z " /><path  fill="#fff"  stroke="#fff" stroke-width="1" opacity="0.996078431372549" d="M 28 78 Q 31 76.8 30 80.5 L 28 79.5 L 28 78 Z " /><path  fill="#fff"  stroke="#fff" stroke-width="1" opacity="0.996078431372549" d="M 76 83 Q 79 82 78 85 Q 75 86 76 83 Z " /><path  fill="#fff"  stroke="#fff" stroke-width="1" opacity="0.996078431372549" d="M 79 84 L 82 84.5 L 79 86 L 79 84 Z " /><path  fill="#fff"  stroke="#fff" stroke-width="1" opacity="0.996078431372549" d="M 9.5 86 L 9 87.5 L 8.5 89 L 8 87.5 L 9.5 86 Z " /><path  fill="#fff"  stroke="#fff" stroke-width="1" opacity="0.996078431372549" d="M 49 86 L 51 86.5 L 49 87.5 L 49 86 Z " /><path  fill="#fff"  stroke="#fff" stroke-width="1" opacity="0.996078431372549" d="M 82.5 88 Q 85.1 87.3 84 90 L 79.5 91 L 80.5 89 L 82.5 88 Z " /><path  fill="#fff"  stroke="#fff" stroke-width="1" opacity="0.996078431372549" d="M 11.5 92 Q 14.1 91.3 13 94 L 10 95.5 Q 10.7 98.5 7 97 Q 5.3 92.9 9.5 94 L 11.5 92 Z " /><path  fill="#fff"  stroke="#fff" stroke-width="1" opacity="0.996078431372549" d="M 101 96 Q 105.5 94.5 104 99 L 101 97.5 L 101 96 Z " /><path  fill="#fff"  stroke="#fff" stroke-width="1" opacity="0.996078431372549" d="M 94.5 101 Q 98.3 100.3 99 102.5 L 94.5 104 L 94.5 101 Z " /><path  fill="#fff"  stroke="#fff" stroke-width="1" opacity="0.996078431372549" d="M 20.5 103 Q 23.5 102.2 22 106 Q 16.8 107.7 18 104 L 20.5 103 Z " /><path  fill="#fff"  stroke="#fff" stroke-width="1" opacity="0.996078431372549" d="M 71.5 107 L 72 109.5 L 71 109.5 L 71.5 107 Z " /><path  fill="#fff"  stroke="#fff" stroke-width="1" opacity="0.996078431372549" d="M 51 109 L 57 111.5 L 52.5 112 L 51 109 Z " /><path  fill="#fff"  stroke="#fff" stroke-width="1" opacity="0.996078431372549" d="M 71.5 112 Q 74.8 110.9 74 113.5 L 72.5 113 L 71.5 112 Z " /><path  fill="#fff"  stroke="#fff" stroke-width="1" opacity="0.996078431372549" d="M 69.5 119 L 72 119.5 L 69.5 120 L 69.5 119 Z " /><path  fill="#fff"  stroke="#fff" stroke-width="1" opacity="0.996078431372549" d="M 96 0 L 98 0.5 L 98 8 Q 93.5 9.8 95 4.5 L 96 0 Z " /><path  fill="#fff"  stroke="#fff" stroke-width="1" opacity="0.996078431372549" d="M 53.5 9 Q 58.8 7.8 60 10.5 L 59 12.5 L 60 15 L 53 14.5 L 57 12.5 Q 58.3 8.3 53.5 10 L 53.5 9 Z " /><path  fill="#fff"  stroke="#fff" stroke-width="1" opacity="0.996078431372549" d="M 23.5 11 L 24.5 13 L 23.5 11 Z " /><path  fill="#fff"  stroke="#fff" stroke-width="1" opacity="0.996078431372549" d="M 87 17 Q 89.7 15.9 89 18.5 L 87 19.5 L 87 17 Z " /><path  fill="#fff"  stroke="#fff" stroke-width="1" opacity="0.996078431372549" d="M 44.5 19 L 48 19.5 L 44.5 20 L 44.5 19 Z " /><path  fill="#fff"  stroke="#fff" stroke-width="1" opacity="0.996078431372549" d="M 59.5 19 L 62 20 Q 63.3 23.3 58.5 22 L 57.5 20 L 59.5 19 Z " /><path  fill="#fff"  stroke="#fff" stroke-width="1" opacity="0.996078431372549" d="M 65.5 20 Q 68.8 18.9 68 21.5 L 65.5 22 L 64 21.5 L 65.5 20 Z " /><path  fill="#fff"  stroke="#fff" stroke-width="1" opacity="0.996078431372549" d="M 71.5 20 L 74 21.5 L 72 22 Q 70.9 24.7 73.5 24 L 73.5 25 L 72 25.5 L 74 26.5 L 70 27 Q 68.5 21.6 71.5 20 Z " /><path  fill="#fff"  stroke="#fff" stroke-width="1" opacity="0.996078431372549" d="M 32.5 21 L 35 21.5 Q 32.9 24.8 32.5 21 Z " /><path  fill="#fff"  stroke="#fff" stroke-width="1" opacity="0.996078431372549" d="M 76.5 21 L 79 21.5 L 76.5 22 L 76.5 21 Z " /><path  fill="#fff"  stroke="#fff" stroke-width="1" opacity="0.996078431372549" d="M 26.5 22 L 27.5 24 L 26.5 22 Z " /><path  fill="#fff"  stroke="#fff" stroke-width="1" opacity="0.996078431372549" d="M 80.5 26 L 81 28.5 L 80.5 31 L 79 27.5 L 80.5 26 Z " /><path  fill="#fff"  stroke="#fff" stroke-width="1" opacity="0.996078431372549" d="M 98.5 29 L 101 30 L 102 32.5 L 98 33 L 98.5 29 Z " /><path  fill="#fff"  stroke="#fff" stroke-width="1" opacity="0.996078431372549" d="M 54.5 31 L 59.5 32 L 62 31 L 61.5 33 L 59.5 33 L 54.5 34 L 54.5 33 L 57 32.5 Q 53.7 32.6 54.5 31 Z " /><path  fill="#fff"  stroke="#fff" stroke-width="1" opacity="0.996078431372549" d="M 20.5 32 Q 25.3 30.7 24 34 Q 20.2 34.8 20.5 32 Z " /><path  fill="#fff"  stroke="#fff" stroke-width="1" opacity="0.996078431372549" d="M 15 33 Q 18 31.8 17 35.5 L 15 36.5 L 15 33 Z " /><path  fill="#fff"  stroke="#fff" stroke-width="1" opacity="0.996078431372549" d="M 8.5 34 L 9 36.5 L 8 36.5 L 8.5 34 Z " /><path  fill="#fff"  stroke="#fff" stroke-width="1" opacity="0.996078431372549" d="M 86.5 34 L 87 35.5 L 85.5 38 L 84.5 36 Q 87 36.7 86.5 34 Z " /><path  fill="#fff"  stroke="#fff" stroke-width="1" opacity="0.996078431372549" d="M 104 35 L 106 35 L 106 40 L 104 40 L 104 35 Z " /><path  fill="#fff"  stroke="#fff" stroke-width="1" opacity="0.996078431372549" d="M 23.5 36 L 24 37.5 L 23 40.5 L 22.5 42 L 21 38.5 L 23 38 L 23.5 36 Z " /><path  fill="#fff"  stroke="#fff" stroke-width="1" opacity="0.996078431372549" d="M 2.5 38 Q 5.5 39.5 2.5 41 L 2.5 38 Z " /><path  fill="#fff"  stroke="#fff" stroke-width="1" opacity="0.996078431372549" d="M 63.5 39 L 64 44.5 L 63 44.5 L 63.5 39 Z " /><path  fill="#fff"  stroke="#fff" stroke-width="1" opacity="0.996078431372549" d="M 84.5 39 L 85 41 L 83 40.5 L 84.5 39 Z " /><path  fill="#fff"  stroke="#fff" stroke-width="1" opacity="0.996078431372549" d="M 8 40 L 10 40 L 12 44 Q 9 43 10 46 L 7 46 L 7 44 Q 11.1 45.3 10 42 Q 7 43 8 40 Z " /><path  fill="#fff"  stroke="#fff" stroke-width="1" opacity="0.996078431372549" d="M 24.5 42 Q 29.8 40.3 28 45.5 L 25.5 47 L 23 43.5 L 24.5 42 Z " /><path  fill="#fff"  stroke="#fff" stroke-width="1" opacity="0.996078431372549" d="M 91.5 42 L 92 44 L 90 43.5 L 91.5 42 Z " /><path  fill="#fff"  stroke="#fff" stroke-width="1" opacity="0.996078431372549" d="M 99.5 44 L 105 44.5 L 99.5 45 L 99.5 44 Z " /><path  fill="#fff"  stroke="#fff" stroke-width="1" opacity="0.996078431372549" d="M 88 50 Q 91.7 48.8 90 54 Q 86.3 55.2 88 50 Z " /><path  fill="#fff"  stroke="#fff" stroke-width="1" opacity="0.996078431372549" d="M 20 52 L 24 53.5 L 23.5 55 L 21.5 55 Q 18.5 55.7 20 52 Z " /><path  fill="#fff"  stroke="#fff" stroke-width="1" opacity="0.996078431372549" d="M 82.5 54 L 82 55.5 L 83 60.5 L 82 60.5 L 81.5 58 L 80.5 60 L 80 56.5 L 82.5 54 Z " /><path  fill="#fff"  stroke="#fff" stroke-width="1" opacity="0.996078431372549" d="M 47.5 55 Q 50.3 56.3 48 57.5 L 48 60 L 50 60 L 50 64 Q 53 62.8 52 66.5 L 53 69.5 L 52 69.5 Q 52.6 66.8 46.5 68 L 46.5 69 L 49 70.5 L 46 72 L 45 66.5 L 42.5 63 Q 38.8 64.3 40 60.5 Q 42.2 62.2 44.5 58 Q 48.5 59.1 47.5 55 Z " /><path  fill="#fff"  stroke="#fff" stroke-width="1" opacity="0.996078431372549" d="M 62.5 55 L 66 56.5 L 62.5 58 Q 59.5 56.5 62.5 55 Z " /><path  fill="#fff"  stroke="#fff" stroke-width="1" opacity="0.996078431372549" d="M 25.5 56 L 27.5 57 L 29 56.5 Q 26.2 61.5 18 60 L 18 58 L 24.5 58 L 25.5 56 Z " /><path  fill="#fff"  stroke="#fff" stroke-width="1" opacity="0.996078431372549" d="M 32 57 Q 37.6 55.1 36 60 Q 30.4 61.9 32 57 Z " /><path  fill="#fff"  stroke="#fff" stroke-width="1" opacity="0.996078431372549" d="M 58.5 57 L 59 59.5 L 58 59.5 L 58.5 57 Z " /><path  fill="#fff"  stroke="#fff" stroke-width="1" opacity="0.996078431372549" d="M 60 62 Q 63 61 62 64 Q 59 65 60 62 Z " /><path  fill="#fff"  stroke="#fff" stroke-width="1" opacity="0.996078431372549" d="M 64 62 Q 68.6 60.8 70 63.5 Q 70.9 66.9 65.5 65 L 64 62 Z " /><path  fill="#fff"  stroke="#fff" stroke-width="1" opacity="0.996078431372549" d="M 35.5 63 Q 39.9 61.5 39 64.5 L 36.5 65 L 35.5 63 Z " /><path  fill="#fff"  stroke="#fff" stroke-width="1" opacity="0.996078431372549" d="M 73.5 63 L 74 65 L 72 64.5 L 73.5 63 Z " /><path  fill="#fff"  stroke="#fff" stroke-width="1" opacity="0.996078431372549" d="M 89.5 68 L 92 69.5 L 91 73 Q 86.5 74.8 88 69.5 L 89.5 68 Z " /><path  fill="#fff"  stroke="#fff" stroke-width="1" opacity="0.996078431372549" d="M 34.5 73 Q 36.8 72.3 36 74.5 L 33.5 78 L 33 74.5 L 34.5 73 Z " /><path  fill="#fff"  stroke="#fff" stroke-width="1" opacity="0.996078431372549" d="M 62 74 Q 65 73 64 76 L 61.5 77 L 62 75.5 L 62 74 Z " /><path  fill="#fff"  stroke="#fff" stroke-width="1" opacity="0.996078431372549" d="M 100.5 74 L 104 76.5 L 102 77.5 Q 102.7 74.9 100 76 L 100 80 L 106 80 L 106 82.5 L 108 85.5 L 106 88.5 L 109 90.5 Q 105.3 91.8 106 96 L 102 94.5 L 102 92 Q 105 93 104 90 Q 100.3 91.2 102 86 Q 105 87 104 84 L 100 84 Q 102.1 78.8 97.5 80 L 96 76 Q 100.8 77.7 100.5 74 Z " /><path  fill="#fff"  stroke="#fff" stroke-width="1" opacity="0.996078431372549" d="M 44.5 76 L 47 86 L 49 86.5 L 47 90.5 L 48 93.5 L 47 96 L 44 96 L 44 104 L 36.5 104 Q 37.3 107 33 106 L 32 93.5 L 33 89.5 L 32 83 Q 35.3 84.1 34 80 L 36.5 80 L 38 81.5 L 39 93 Q 42.7 94.3 41 88.5 L 42 83 L 44 83 L 44.5 76 Z " /><path  fill="#fff"  stroke="#fff" stroke-width="1" opacity="0.996078431372549" d="M 77 77 Q 80.4 76.3 81.5 79 L 83 78.5 Q 81.7 81.3 80.5 79 Q 75.7 80.3 77 77 Z " /><path  fill="#fff"  stroke="#fff" stroke-width="1" opacity="0.996078431372549" d="M 63.5 78 L 65 82 L 63 81.5 L 63 79.5 L 63.5 78 Z " /><path  fill="#fff"  stroke="#fff" stroke-width="1" opacity="0.996078431372549" d="M 50.5 82 L 51 85.5 L 50 85.5 L 50.5 82 Z " /><path  fill="#fff"  stroke="#fff" stroke-width="1" opacity="0.996078431372549" d="M 78 82 L 85 82.5 L 84 88 L 82 87.5 L 82.5 86 L 81 85.5 L 81.5 84 Q 78.2 82.9 79 85.5 L 76.5 89 Q 73.5 89.9 75 85.5 L 76.5 86 L 78 86 L 78 82 Z " /><path  fill="#fff"  stroke="#fff" stroke-width="1" opacity="0.996078431372549" d="M 63 86 Q 66 84.8 65 88.5 L 63 87.5 L 63 86 Z " /><path  fill="#fff"  stroke="#fff" stroke-width="1" opacity="0.996078431372549" d="M 7.5 88 L 6.5 90 L 7.5 88 Z " /><path  fill="#fff"  stroke="#fff" stroke-width="1" opacity="0.996078431372549" d="M 80.5 90 Q 85.1 88.7 83 94.5 L 82 94.5 L 81.5 92 L 79 93 L 80.5 90 Z " /><path  fill="#fff"  stroke="#fff" stroke-width="1" opacity="0.996078431372549" d="M 96.5 94 Q 99.1 93.3 98 96 L 101 96 Q 99.5 99.7 102.5 99 L 102.5 100 Q 99.2 98.9 100 101.5 L 97.5 100 L 94 98.5 L 94 96.5 Q 93.3 94.3 95.5 95 L 96.5 94 Z " /><path  fill="#fff"  stroke="#fff" stroke-width="1" opacity="0.996078431372549" d="M 4.5 95 Q 6.8 94.3 6 96.5 L 4.5 95 Z " /><path  fill="#fff"  stroke="#fff" stroke-width="1" opacity="0.996078431372549" d="M 12 97 L 18 97.5 L 16 98 Q 14.9 101.5 22.5 100 Q 26 101.3 25 106 L 22 106 Q 23.5 102.2 20.5 103 L 15.5 104 L 12 103 L 12 97 Z " /><path  fill="#fff"  stroke="#fff" stroke-width="1" opacity="0.996078431372549" d="M 20.5 97 L 19.5 99 L 20.5 97 Z " /><path  fill="#fff"  stroke="#fff" stroke-width="1" opacity="0.996078431372549" d="M 28.5 103 L 29 105.5 L 28 105.5 L 28.5 103 Z " /><path  fill="#fff"  stroke="#fff" stroke-width="1" opacity="0.996078431372549" d="M 89.5 103 L 93 103.5 L 92.5 106 L 89.5 104 L 86.5 106 L 87.5 104 L 89.5 103 Z " /><path  fill="#fff"  stroke="#fff" stroke-width="1" opacity="0.996078431372549" d="M 52.5 104 Q 55.1 103.2 54 106.5 L 56 109.5 L 53.5 110 L 51 109 L 50.5 112 L 50 109.5 L 53 105.5 L 52.5 104 Z " /><path  fill="#fff"  stroke="#fff" stroke-width="1" opacity="0.996078431372549" d="M 34 107 L 40 108 L 40 112 Q 46 110 44 116 Q 38.4 113.8 40 119.5 L 38 118.5 L 38 116 Q 35 117.3 36 113.5 Q 32.8 112 34 107 Z " /><path  fill="#fff"  stroke="#fff" stroke-width="1" opacity="0.996078431372549" d="M 69.5 107 Q 71.8 106.3 71 108.5 L 69.5 107 Z " /><path  fill="#fff"  stroke="#fff" stroke-width="1" opacity="0.996078431372549" d="M 69.5 112 L 74 114.5 Q 73.3 116.8 75.5 116 L 75 117.5 L 75.5 119 L 77 118.5 L 76 122 L 72 122 L 72 120.5 L 72.5 119 Q 69.9 119.8 71 116.5 L 69.5 112 Z " /></svg>