<svg width="152" height="40" version="1.1" xmlns="http://www.w3.org/2000/svg" desc="Created with imagetracer.js version 1.2.6" ><path fill="rgb(0,0,0)" stroke="rgb(0,0,0)" stroke-width="1" opacity="0" d="M 0 0 L 83.5 0 L 84.5 1 L 98.5 1 L 99.5 0 L 140.5 0 L 142.5 1 Q 144 -1.5 149.5 0 L 152 0.5 L 152 2.5 L 151 7.5 L 152 8.5 L 152 40 L 114 39.5 L 120 36.5 L 118 35.5 L 120.5 34 L 120.5 36 L 123 34.5 L 122 33.5 L 132 23.5 L 136.5 17 L 136.5 19 L 142 16.5 L 140 15.5 L 146.5 11 L 145.5 14 L 150 10.5 L 149 8.5 Q 152 7.5 151 2.5 Q 149.5 -0.5 143.5 1 L 140.5 3 L 140.5 1 L 138 2.5 L 139 3.5 L 134.5 8 L 132 6.5 L 134 9.5 L 129.5 15 L 129.5 13 L 125.5 14 L 125 11.5 L 126 8.5 L 125.5 7 Q 128.3 8.3 126 9.5 Q 124.7 13.7 129.5 12 L 133 9.5 L 128.5 4 L 126.5 3 L 115.5 3 L 112.5 4 L 112.5 3 L 127 1.5 L 114.5 1 L 108 4.5 L 109.5 5 L 111 4.5 L 107.5 7 L 107.5 5 L 105 6.5 L 106 7.5 L 102 11.5 L 101 18.5 L 103.5 22 L 101.5 22 L 100 22.5 L 104.5 23 L 106.5 23 Q 116.6 24.6 122.5 22 L 122.5 23 L 120 23.5 L 122.5 25 L 125.5 21 L 125 22.5 L 121.5 27 L 121.5 25 L 118 27.5 Q 120.3 28.8 117.5 30 L 117.5 28 L 115 29.5 Q 117.3 30.8 114.5 32 L 114 29.5 L 115 27.5 L 113 26.5 L 112.5 31 L 111 25.5 L 113.5 25 L 120 24.5 L 110.5 24 L 108.5 24 Q 96.8 22.8 91.5 28 L 91.5 26 Q 88.9 25.2 90 28.5 L 87.5 34 L 87 31.5 L 87.5 30 L 86 30 L 85.5 32 L 80.5 32 L 74 30 Q 72.9 27.3 75.5 28 L 76.5 25 L 78.5 24 L 77.5 26 L 76 26.5 L 78.5 27 L 81 25.5 Q 78.8 24.3 81.5 23 L 84.5 22 L 84.5 23 L 83 23.5 L 85.5 24 L 88 23 L 87.5 21 L 86 21.5 L 89 17.5 L 85.5 16 L 82.5 18 L 82.5 16 L 80 17.5 L 80.5 19 L 77.5 18 L 77.5 19 L 79 19.5 L 75.5 21 L 75.5 20 L 77 19.5 L 73.5 19 L 73.5 21 L 67 16 L 67.5 14 L 70.5 15 L 75 12.5 L 73 11.5 Q 79.1 7.6 88.5 7 L 89.5 10 L 92 9.5 L 91.5 8 L 98 10.5 L 94 11.5 L 98.5 12 L 101 7.5 Q 101.8 2.8 98.5 2 Q 87.8 0.2 81.5 3 L 77.5 2 L 76.5 4 L 79.5 3 L 79.5 4 L 72.5 7 L 72.5 5 L 69 6.5 L 71 7.5 L 68.5 9 L 68.5 7 L 53 15.5 Q 55.3 16.8 52.5 18 L 50.5 19 L 51.5 17 L 53 16.5 L 50.5 16 L 44 20.5 L 45.5 21 L 47 20.5 L 43.5 23 L 43.5 21 L 37 24.5 L 38.5 25 L 40 24.5 Q 30.5 31.5 17.5 35 L 7.5 35 Q 5.3 34.3 6 30.5 L 9 28.5 L 8.5 30 L 11 28.5 L 11 26.5 Q 12.3 22.3 7.5 24 L 6 24.5 L 6.5 23 L 4 24.5 L 5 25.5 L 1 29.5 L 0.5 31 L 0 29.5 L 0 27.5 L 0 0 Z M 82 1 L 82 2 L 84 2 L 82 1 Z M 103 4 L 102 7 L 103 7 L 103 4 Z M 86 8 L 86 9 L 89 9 L 86 8 Z M 82 9 L 82 10 L 85 10 L 82 9 Z M 79 10 L 79 11 L 81 11 L 79 10 Z M 100 13 L 99 18 L 100 18 L 100 13 Z M 86 14 L 86 15 L 88 15 L 86 14 Z M 71 16 L 72 18 Q 73 15 71 16 Z M 90 17 L 90 19 L 92 18 L 90 17 Z M 8 22 L 8 23 L 11 23 L 8 22 Z M 98 23 L 98 24 L 100 24 L 98 23 Z M 2 25 L 2 27 L 4 26 L 2 25 Z M 35 25 L 34 27 L 37 26 L 35 25 Z M 131 26 L 124 34 L 131 28 L 131 26 Z M 26 29 Q 24 32 27 31 L 26 29 Z M 8 30 L 7 34 L 17 34 L 14 32 L 8 33 L 8 30 Z M 22 31 L 22 32 L 24 32 L 22 31 Z M 19 32 L 19 33 L 21 33 L 19 32 Z " /><path fill="rgb(0,0,0)" stroke="rgb(0,0,0)" stroke-width="1" opacity="0" d="M 145.5 5 L 146 6.5 L 142 9.5 Q 145.1 7.8 143.5 6 L 145 6.5 L 145.5 5 Z " /><path fill="rgb(0,0,0)" stroke="rgb(0,0,0)" stroke-width="1" opacity="0" d="M 118.5 7 L 124 7.5 L 118 8.5 L 124 9 L 123 11.5 L 123.5 13 L 121.5 12 L 121 14.5 L 122 17.5 Q 119 20.5 111.5 19 L 110.5 16 Q 107.9 16.8 109 13.5 L 108 13.5 L 107.5 15 L 107 13.5 L 110 11.5 L 109.5 13 L 115 10.5 L 113 9.5 L 115.5 8 L 115.5 10 L 118 9.5 Q 115.8 8.3 118.5 7 Z M 120 14 L 119 16 L 118 17 L 111 18 L 120 18 L 120 14 Z " /><path fill="rgb(0,0,0)" stroke="rgb(0,0,0)" stroke-width="1" opacity="0" d="M 141.5 7 L 141 8.5 L 138.5 12 L 140 9.5 L 141.5 7 Z " /><path fill="rgb(0,0,0)" stroke="rgb(0,0,0)" stroke-width="1" opacity="0" d="M 58.5 13 L 57.5 15 L 58.5 13 Z " /><path fill="rgb(0,0,0)" stroke="rgb(0,0,0)" stroke-width="1" opacity="0" d="M 65.5 15 L 65 16.5 Q 64 22.5 68 23.5 L 65.5 25 L 66 23.5 L 64.5 21 L 63 23.5 Q 65.3 24.8 62.5 26 L 62.5 24 L 60 24.5 Q 62.3 25.8 59.5 27 Q 48.2 28.2 40.5 33 L 41.5 31 L 46 29.5 L 45.5 28 L 48.5 29 L 48.5 28 L 47 27.5 L 47.5 25 L 50.5 26 L 51.5 24 L 49.5 25 L 50.5 23 L 52.5 22 L 52.5 24 L 57 21.5 L 56.5 20 L 58.5 21 L 59.5 18 L 61.5 17 L 60.5 19 L 59 19.5 L 61.5 20 L 63 19.5 L 63.5 21 L 64 17.5 L 63.5 16 L 65.5 15 Z M 57 25 L 57 26 L 59 26 L 57 25 Z M 54 26 L 54 27 L 56 27 L 54 26 Z M 50 27 L 50 28 L 53 28 L 50 27 Z " /><path fill="rgb(0,0,0)" stroke="rgb(0,0,0)" stroke-width="1" opacity="0" d="M 107.5 16 L 108.5 18 L 107.5 16 Z " /><path fill="rgb(0,0,0)" stroke="rgb(0,0,0)" stroke-width="1" opacity="0" d="M 73.5 26 L 72.5 28 L 71 27.5 L 73.5 26 Z " /><path fill="rgb(0,0,0)" stroke="rgb(0,0,0)" stroke-width="1" opacity="0" d="M 43.5 27 L 42.5 29 L 40.5 30 L 41.5 28 L 43.5 27 Z " /><path fill="rgb(0,0,0)" stroke="rgb(0,0,0)" stroke-width="1" opacity="0" d="M 99.5 28 L 107 28.5 L 105 29 Q 103.2 33.9 109.5 32 L 110.5 34 L 102.5 33 L 102.5 34 L 108 34.5 L 100.5 36 L 98 34.5 L 101 33.5 L 96 32.5 L 101.5 30 L 104 31.5 Q 105.3 26.9 99.5 29 L 99.5 28 Z " /><path fill="rgb(0,0,0)" stroke="rgb(0,0,0)" stroke-width="1" opacity="0" d="M 72.5 29 L 72.5 31 L 86 33.5 L 79.5 34 L 67 30.5 L 72.5 29 Z " /><path fill="rgb(0,0,0)" stroke="rgb(0,0,0)" stroke-width="1" opacity="0" d="M 96.5 29 L 98 29.5 L 95 31.5 L 94.5 34 L 94 31.5 L 96.5 29 Z " /><path fill="rgb(0,0,0)" stroke="rgb(0,0,0)" stroke-width="1" opacity="0" d="M 32.5 33 L 33 35.5 L 33.5 37 L 34 34 L 38.5 33 L 38.5 34 L 35 35 L 34 38.5 L 34.5 40 L 32.5 40 Q 24.2 41.2 19.5 39 L 15.5 40 L 15.5 39 L 28.5 35 L 28.5 36 L 27 36.5 L 29.5 37 L 32 35.5 L 30 34.5 L 32.5 33 Z M 23 38 L 23 39 L 25 39 L 23 38 Z " /><path fill="rgb(0,0,0)" stroke="rgb(0,0,0)" stroke-width="1" opacity="0" d="M 55.5 33 Q 62.3 32.3 66 34.5 L 62.5 35 Q 61 32.5 55.5 34 L 55.5 33 Z " /><path fill="rgb(0,0,0)" stroke="rgb(0,0,0)" stroke-width="1" opacity="0" d="M 51.5 34 L 50.5 36 L 49 35.5 L 51.5 34 Z " /><path fill="rgb(0,0,0)" stroke="rgb(0,0,0)" stroke-width="1" opacity="0" d="M 0.5 35 L 3 38.5 L 0 40 L 1 37.5 L 0.5 35 Z " /><path fill="rgb(0,0,0)" stroke="rgb(0,0,0)" stroke-width="1" opacity="0" d="M 55.5 35 L 65.5 36 L 67.5 38 L 68.5 36 L 67 35.5 L 68.5 35 Q 75.2 38.8 85.5 39 Q 87 36.5 92.5 38 L 96 39.5 L 93.5 40 Q 92.2 37.8 87.5 39 Q 86.2 41.2 81.5 40 L 76.5 39 L 75.5 40 L 45.5 40 L 45.5 39 L 48 37.5 L 47.5 36 L 51.5 37 L 55.5 35 Z M 70 37 L 70 38 L 72 38 L 70 37 Z M 73 38 L 73 39 L 76 39 L 73 38 Z " /><path fill="rgb(0,0,0)" stroke="rgb(0,0,0)" stroke-width="1" opacity="0" d="M 116.5 36 L 115.5 38 L 114 37.5 L 116.5 36 Z " /><path fill="rgb(0,0,0)" stroke="rgb(0,0,0)" stroke-width="1" opacity="0" d="M 107.5 39 L 110 39.5 L 107.5 40 L 107.5 39 Z " /><path fill="rgb(242,246,246)" stroke="rgb(242,246,246)" stroke-width="1" opacity="0.13725490196078433" d="M 99.5 3 L 101 6.5 L 100 6.5 L 99.5 3 Z " /><path fill="rgb(242,246,246)" stroke="rgb(242,246,246)" stroke-width="1" opacity="0.13725490196078433" d="M 128.5 4 L 130.5 7 L 128.5 4 Z " /><path fill="rgb(242,246,246)" stroke="rgb(242,246,246)" stroke-width="1" opacity="0.13725490196078433" d="M 137.5 5 L 135.5 8 L 137.5 5 Z " /><path fill="rgb(242,246,246)" stroke="rgb(242,246,246)" stroke-width="1" opacity="0.13725490196078433" d="M 130.5 10 L 129.5 12 L 130.5 10 Z " /><path fill="rgb(242,246,246)" stroke="rgb(242,246,246)" stroke-width="1" opacity="0.13725490196078433" d="M 108.5 11 L 107.5 13 L 108.5 11 Z " /><path fill="rgb(242,246,246)" stroke="rgb(242,246,246)" stroke-width="1" opacity="0.13725490196078433" d="M 64.5 15 L 65.5 17 L 64.5 15 Z " /><path fill="rgb(242,246,246)" stroke="rgb(242,246,246)" stroke-width="1" opacity="0.13725490196078433" d="M 87.5 16 L 88.5 18 L 87.5 16 Z " /><path fill="rgb(242,246,246)" stroke="rgb(242,246,246)" stroke-width="1" opacity="0.13725490196078433" d="M 123.5 17 L 122.5 19 L 121 18.5 L 123.5 17 Z " /><path fill="rgb(242,246,246)" stroke="rgb(242,246,246)" stroke-width="1" opacity="0.13725490196078433" d="M 135.5 17 L 134.5 19 L 135.5 17 Z " /><path fill="rgb(242,246,246)" stroke="rgb(242,246,246)" stroke-width="1" opacity="0.13725490196078433" d="M 102.5 19 L 103.5 21 L 102.5 19 Z " /><path fill="rgb(242,246,246)" stroke="rgb(242,246,246)" stroke-width="1" opacity="0.13725490196078433" d="M 130.5 24 L 129.5 26 L 130.5 24 Z " /><path fill="rgb(242,246,246)" stroke="rgb(242,246,246)" stroke-width="1" opacity="0.13725490196078433" d="M 123.5 25 L 122.5 27 L 123.5 25 Z " /><path fill="rgb(242,246,246)" stroke="rgb(242,246,246)" stroke-width="1" opacity="0.13725490196078433" d="M 102.5 27 L 105 27.5 L 102.5 28 L 102.5 27 Z " /><path fill="rgb(242,246,246)" stroke="rgb(242,246,246)" stroke-width="1" opacity="0.13725490196078433" d="M 64.5 29 L 67 30.5 L 65.5 31 L 64.5 29 Z " /><path fill="rgb(242,246,246)" stroke="rgb(242,246,246)" stroke-width="1" opacity="0.13725490196078433" d="M 10.5 35 L 14 35.5 L 10.5 36 L 10.5 35 Z " /><path fill="rgb(242,246,246)" stroke="rgb(242,246,246)" stroke-width="1" opacity="0.13725490196078433" d="M 82.5 38 L 85 38.5 L 82.5 39 L 82.5 38 Z " /><path fill="rgb(249,251,251)" stroke="rgb(249,251,251)" stroke-width="1" opacity="0.796078431372549" d="M 128.5 5 L 129.5 7 L 128.5 5 Z " /><path fill="rgb(249,251,251)" stroke="rgb(249,251,251)" stroke-width="1" opacity="0.796078431372549" d="M 138.5 5 L 136.5 8 L 138.5 5 Z " /><path fill="rgb(249,251,251)" stroke="rgb(249,251,251)" stroke-width="1" opacity="0.796078431372549" d="M 126.5 6 L 127.5 8 L 126.5 6 Z " /><path fill="rgb(249,251,251)" stroke="rgb(249,251,251)" stroke-width="1" opacity="0.796078431372549" d="M 105.5 14 L 106 16.5 L 105 16.5 L 105.5 14 Z " /><path fill="rgb(249,251,251)" stroke="rgb(249,251,251)" stroke-width="1" opacity="0.796078431372549" d="M 129.5 24 L 128.5 26 L 129.5 24 Z " /><path fill="rgb(249,251,251)" stroke="rgb(249,251,251)" stroke-width="1" opacity="0.796078431372549" d="M 107.5 25 L 108 27 L 103 26.5 L 107.5 25 Z " /><path fill="rgb(249,251,251)" stroke="rgb(249,251,251)" stroke-width="1" opacity="0.796078431372549" d="M 124.5 25 L 123.5 27 L 124.5 25 Z " /><path fill="rgb(249,251,251)" stroke="rgb(249,251,251)" stroke-width="1" opacity="0.796078431372549" d="M 97.5 26 L 98.5 28 L 97.5 26 Z " /><path fill="rgb(249,251,251)" stroke="rgb(249,251,251)" stroke-width="1" opacity="0.796078431372549" d="M 94.5 29 L 93.5 31 L 94.5 29 Z " /><path fill="rgb(249,251,251)" stroke="rgb(249,251,251)" stroke-width="1" opacity="0.796078431372549" d="M 1.5 31 L 2 33.5 L 1 33.5 L 1.5 31 Z " /><path fill="rgb(249,251,251)" stroke="rgb(249,251,251)" stroke-width="1" opacity="0.796078431372549" d="M 4.5 31 L 5 33.5 L 4 33.5 L 4.5 31 Z " /><path fill="rgb(249,251,251)" stroke="rgb(249,251,251)" stroke-width="1" opacity="0.796078431372549" d="M 82.5 35 L 87 35.5 L 82.5 36 L 82.5 35 Z " /><path fill="rgb(249,251,251)" stroke="rgb(249,251,251)" stroke-width="1" opacity="0.796078431372549" d="M 2.5 36 L 3.5 38 L 2.5 36 Z " /><path fill="rgb(249,251,251)" stroke="rgb(249,251,251)" stroke-width="1" opacity="0.796078431372549" d="M 103.5 36 L 106 36.5 L 103.5 37 L 103.5 36 Z " /><path fill="rgb(249,251,251)" stroke="rgb(249,251,251)" stroke-width="1" opacity="0.796078431372549" d="M 81.5 37 L 87 37.5 L 81.5 38 L 81.5 37 Z " /><path fill="rgb(202,205,208)" stroke="rgb(202,205,208)" stroke-width="1" opacity="0.047058823529411764" d="M 131.5 13 L 130.5 15 L 131.5 13 Z " /><path fill="rgb(202,205,208)" stroke="rgb(202,205,208)" stroke-width="1" opacity="0.047058823529411764" d="M 106.5 15 L 108 17.5 L 106 16.5 L 106.5 15 Z " /><path fill="rgb(202,205,208)" stroke="rgb(202,205,208)" stroke-width="1" opacity="0.047058823529411764" d="M 121.5 16 L 122.5 18 L 121.5 16 Z " /><path fill="rgb(252,254,254)" stroke="rgb(252,254,254)" stroke-width="1" opacity="0.00784313725490196" d="M 84.5 0 L 98.5 0 L 100 1.5 L 98 2.5 L 98.5 1 Q 86.9 -0.4 81 2 L 80.5 4 L 78.5 3 L 76.5 4 L 77.5 2 L 84.5 0 Z " /><path fill="rgb(252,254,254)" stroke="rgb(252,254,254)" stroke-width="1" opacity="0.00784313725490196" d="M 141.5 0 L 143 0.5 L 140 2.5 L 138.5 5 L 137.5 4 L 134 7.5 L 134.5 9 L 132.5 10 Q 129.8 8.8 132 7.5 L 128.5 3 L 126.5 4 L 126.5 2 L 115 2.5 L 115.5 4 L 113 2.5 L 114.5 1 L 126.5 1 L 133.5 7 L 141.5 0 Z " /><path fill="rgb(252,254,254)" stroke="rgb(252,254,254)" stroke-width="1" opacity="0.00784313725490196" d="M 150.5 0 Q 153.5 1.5 150.5 3 Q 147.5 1.5 150.5 0 Z " /><path fill="rgb(252,254,254)" stroke="rgb(252,254,254)" stroke-width="1" opacity="0.00784313725490196" d="M 111.5 2 L 112 4.5 L 109.5 5 L 107 6.5 L 106.5 8 L 105.5 7 L 100.5 12 L 98.5 12 L 94.5 12 Q 91.5 9 85.5 9 L 76.5 12 L 75.5 10 L 77.5 11 L 85 8.5 L 84.5 7 L 89.5 9 Q 91 6.5 92.5 10 L 97.5 11 L 99.5 10 Q 100.8 12.3 102 9.5 L 100.5 7 L 102.5 9 L 106.5 5 L 111.5 2 Z " /><path fill="rgb(252,254,254)" stroke="rgb(252,254,254)" stroke-width="1" opacity="0.00784313725490196" d="M 101.5 3 L 103 6.5 L 102 6.5 L 101.5 3 Z " /><path fill="rgb(252,254,254)" stroke="rgb(252,254,254)" stroke-width="1" opacity="0.00784313725490196" d="M 73.5 4 L 76 5.5 L 74.5 5 L 73 5.5 L 73.5 7 L 71.5 7 L 64 10 L 63.5 12 L 61.5 12 Q 59.3 11.3 60 13.5 Q 58.3 11.9 56.5 15 Q 54.3 14.3 55 16.5 L 52.5 17 L 50 18.5 L 49.5 20 L 48 19.5 L 47.5 21 L 45.5 21 L 25 31 L 25.5 29 L 27.5 29 L 73.5 4 Z " /><path fill="rgb(252,254,254)" stroke="rgb(252,254,254)" stroke-width="1" opacity="0.00784313725490196" d="M 144.5 5 L 145 6.5 L 139 11.5 L 142.5 6 L 144 6.5 L 144.5 5 Z " /><path fill="rgb(252,254,254)" stroke="rgb(252,254,254)" stroke-width="1" opacity="0.00784313725490196" d="M 150.5 6 Q 153.5 7.5 150.5 9 L 150.5 6 Z " /><path fill="rgb(252,254,254)" stroke="rgb(252,254,254)" stroke-width="1" opacity="0.00784313725490196" d="M 117.5 7 Q 118.7 9.2 123.5 8 Q 124.8 5.8 126 8.5 L 125 11.5 Q 125.8 13.8 129.5 13 L 131 12.5 Q 129.3 16.8 127.5 14 L 125.5 13 L 121.5 15 L 121.5 12 L 124 10.5 Q 124.6 7.8 118.5 9 L 109 13 Q 107.5 16.8 110.5 16 Q 112 18.5 117.5 17 L 119.5 14 L 121 18.5 L 119.5 18 L 111.5 18 L 110.5 19 L 107 15.5 L 108 14.5 L 110.5 11 Q 112.8 11.8 112 9.5 L 113.5 10 L 115 9.5 L 114.5 8 Q 116 10.5 117.5 7 Z " /><path fill="rgb(252,254,254)" stroke="rgb(252,254,254)" stroke-width="1" opacity="0.00784313725490196" d="M 148.5 9 L 150 10.5 L 146.5 14 L 136 19 Q 132.2 27.9 124.5 34 L 116.5 39 L 110 40 L 110.5 38 L 113 39 L 113.5 37 L 115.5 38 Q 125.8 33.3 132 24.5 L 131.5 23 L 133 23.5 L 137.5 16 L 139 16.5 L 139.5 15 L 141.5 16 L 144 14.5 L 143.5 13 Q 145.2 15.8 147 11.5 L 148.5 9 Z " /><path fill="rgb(252,254,254)" stroke="rgb(252,254,254)" stroke-width="1" opacity="0.00784313725490196" d="M 70.5 12 L 72.5 12 L 75 12.5 L 68.5 15 L 68.5 14 Q 71 14.7 70.5 12 Z " /><path fill="rgb(252,254,254)" stroke="rgb(252,254,254)" stroke-width="1" opacity="0.00784313725490196" d="M 99.5 13 L 100 17.5 L 99 17.5 L 99.5 13 Z " /><path fill="rgb(252,254,254)" stroke="rgb(252,254,254)" stroke-width="1" opacity="0.00784313725490196" d="M 85.5 14 L 88 14.5 L 82 17.5 L 81.5 19 L 80 18.5 L 79.5 20 L 77.5 19 L 74.5 21 Q 72.8 17.9 71 19.5 L 72 18.5 L 70.5 16 Q 72.8 15.3 72 17.5 L 74 17.5 L 73.5 19 L 79.5 18 L 85.5 14 Z " /><path fill="rgb(252,254,254)" stroke="rgb(252,254,254)" stroke-width="1" opacity="0.00784313725490196" d="M 62.5 17 Q 65.5 16.1 64 20.5 L 66 23.5 L 61.5 26 L 60 24.5 L 64 22.5 L 62.5 19 L 47 27.5 L 48.5 28 L 58.5 25 L 58.5 26 L 53 27.5 L 53.5 29 L 49.5 28 L 46 29.5 L 46.5 31 L 43.5 30 L 41 31.5 L 41.5 33 L 39.5 33 L 34 34 L 35 38.5 Q 33.5 41.5 32 38.5 L 33 35.5 L 31.5 36 L 19.5 40 L 19.5 39 L 25 37.5 L 24.5 36 L 26.5 37 L 29 36 L 29.5 34 L 31.5 35 L 31.5 33 L 33.5 33 Q 35.8 33.8 35 31.5 L 37 31.5 L 37.5 30 L 39 30.5 L 39.5 29 L 41.5 29 L 44 27.5 L 44.5 26 L 46 26.5 L 46.5 25 L 48 25.5 L 48.5 24 L 50.5 24 L 52 23.5 L 51.5 22 L 53.5 22 Q 55.8 22.8 55 20.5 L 57 20.5 L 57.5 19 L 59.5 19 L 62.5 17 Z " /><path fill="rgb(252,254,254)" stroke="rgb(252,254,254)" stroke-width="1" opacity="0.00784313725490196" d="M 90 17 L 92 17.5 Q 90 22 88 18.5 L 90 18.5 L 90 17 Z " /><path fill="rgb(252,254,254)" stroke="rgb(252,254,254)" stroke-width="1" opacity="0.00784313725490196" d="M 100.5 19 Q 102.7 23.2 105 21.5 Q 105.9 24.9 100.5 23 L 97.5 24 L 97.5 23 L 102 21.5 L 100.5 19 Z " /><path fill="rgb(252,254,254)" stroke="rgb(252,254,254)" stroke-width="1" opacity="0.00784313725490196" d="M 85.5 21 L 88 21.5 Q 88.8 23.8 86.5 23 L 74 28 Q 72.9 30.7 75.5 30 L 82 32.5 L 79.5 33 L 72.5 31 L 70.5 32 L 70.5 31 L 72 30.5 L 66 29.5 Q 67.3 26.8 68.5 29 Q 70.8 29.8 70 27.5 L 71.5 28 L 75.5 25 L 77.5 26 L 77.5 24 L 81.5 24 L 85 23 L 85.5 21 Z " /><path fill="rgb(252,254,254)" stroke="rgb(252,254,254)" stroke-width="1" opacity="0.00784313725490196" d="M 123 21 L 125 21.5 L 119.5 29 Q 118.3 26.8 117 29.5 L 116.5 31 Q 115.3 28.7 114 31.5 L 113.5 33 L 112 32.5 L 111.5 34 L 110 31.5 L 113 30.5 L 112.5 26 Q 111.2 28.3 110 25.5 L 110.5 24 L 119.5 24 L 119.5 22 L 123 23 L 123 21 Z M 114 25 L 115 28 L 114 29 L 115 30 L 120 26 L 114 25 Z " /><path fill="rgb(252,254,254)" stroke="rgb(252,254,254)" stroke-width="1" opacity="0.00784313725490196" d="M 7.5 22 L 11 22.5 L 7.5 23 L 0.5 29 L 2 26.5 Q 1.3 24.3 3.5 25 L 7.5 22 Z " /><path fill="rgb(252,254,254)" stroke="rgb(252,254,254)" stroke-width="1" opacity="0.00784313725490196" d="M 94.5 24 L 97 25.5 L 95.5 25 L 90.5 28 L 90 26 L 94.5 24 Z " /><path fill="rgb(252,254,254)" stroke="rgb(252,254,254)" stroke-width="1" opacity="0.00784313725490196" d="M 10.5 26 L 11 28.5 L 9.5 30 Q 6.5 29.2 8 33 L 13.5 32 L 17 33.5 L 7.5 34 L 6.5 35 L 7 33.5 L 7 30.5 L 10.5 26 Z " /><path fill="rgb(252,254,254)" stroke="rgb(252,254,254)" stroke-width="1" opacity="0.00784313725490196" d="M 88.5 28 L 89.5 30 L 88.5 28 Z " /><path fill="rgb(252,254,254)" stroke="rgb(252,254,254)" stroke-width="1" opacity="0.00784313725490196" d="M 98.5 28 L 104 29 L 103.5 32 L 100.5 30 L 96 32.5 L 101 33.5 L 97.5 35 L 95 34 L 96.5 30 Q 99 30.7 98.5 28 Z " /><path fill="rgb(252,254,254)" stroke="rgb(252,254,254)" stroke-width="1" opacity="0.00784313725490196" d="M 86 30 L 88 30.5 L 86.5 34 L 83 32.5 L 86 32 L 86 30 Z " /><path fill="rgb(252,254,254)" stroke="rgb(252,254,254)" stroke-width="1" opacity="0.00784313725490196" d="M 21.5 31 L 24 31.5 L 21 32.5 L 21.5 34 L 18 32.5 L 21.5 31 Z " /><path fill="rgb(252,254,254)" stroke="rgb(252,254,254)" stroke-width="1" opacity="0.00784313725490196" d="M 54.5 33 Q 56 35.5 61.5 34 L 63 33.5 L 62.5 35 L 66.5 34 L 67 36 L 69.5 35 L 69.5 37 L 75.5 38 L 77 37.5 L 76.5 39 L 81 39.5 L 76.5 40 L 68.5 37 Q 67 39.5 65.5 36 L 55.5 35 L 42 40 L 42.5 38 L 44 38.5 L 44.5 37 L 46 37.5 L 46.5 36 L 48 36.5 L 48.5 35 L 50.5 36 Q 52.3 32.9 54 34.5 L 54.5 33 Z " /><path fill="rgb(252,254,254)" stroke="rgb(252,254,254)" stroke-width="1" opacity="0.00784313725490196" d="M 102.5 33 Q 109.5 31.5 109 34.5 L 107.5 34 Q 101.5 35.2 102.5 33 Z " /><path fill="rgb(252,254,254)" stroke="rgb(252,254,254)" stroke-width="1" opacity="0.00784313725490196" d="M 1.5 36 L 2.5 39 L 4 38.5 Q 4.8 40.8 2.5 40 Q -2 38 1.5 36 Z " /><path fill="rgb(252,254,254)" stroke="rgb(252,254,254)" stroke-width="1" opacity="0.00784313725490196" d="M 87.5 39 L 93 39.5 L 87.5 40 L 87.5 39 Z " /><path fill="rgb(249,250,250)" stroke="rgb(249,250,250)" stroke-width="1" opacity="0.9725490196078431" d="M 148.5 2 L 149.5 4 L 148.5 2 Z " /><path fill="rgb(249,250,250)" stroke="rgb(249,250,250)" stroke-width="1" opacity="0.9725490196078431" d="M 86.5 3 L 90 4.5 L 87.5 5 L 86.5 3 Z " /><path fill="rgb(249,250,250)" stroke="rgb(249,250,250)" stroke-width="1" opacity="0.9725490196078431" d="M 141.5 3 L 144 4.5 L 138.5 9 L 142 4.5 L 141.5 3 Z " /><path fill="rgb(249,250,250)" stroke="rgb(249,250,250)" stroke-width="1" opacity="0.9725490196078431" d="M 124.5 5 L 127 5.5 L 124.5 6 L 124.5 5 Z " /><path fill="rgb(249,250,250)" stroke="rgb(249,250,250)" stroke-width="1" opacity="0.9725490196078431" d="M 114.5 6 L 117 6.5 L 111.5 8 L 111.5 7 L 114.5 6 Z " /><path fill="rgb(249,250,250)" stroke="rgb(249,250,250)" stroke-width="1" opacity="0.9725490196078431" d="M 147.5 6 L 148.5 8 Q 147.3 5.8 146 8.5 L 146.5 10 L 144 10.5 L 144.5 12 L 143 10.5 L 147.5 6 Z " /><path fill="rgb(249,250,250)" stroke="rgb(249,250,250)" stroke-width="1" opacity="0.9725490196078431" d="M 109.5 8 L 109 9.5 L 108.5 11 L 108 9.5 L 109.5 8 Z " /><path fill="rgb(249,250,250)" stroke="rgb(249,250,250)" stroke-width="1" opacity="0.9725490196078431" d="M 105.5 9 L 104.5 11 L 105.5 9 Z " /><path fill="rgb(249,250,250)" stroke="rgb(249,250,250)" stroke-width="1" opacity="0.9725490196078431" d="M 137.5 10 L 137 11.5 L 136.5 14 L 136 11.5 L 137.5 10 Z " /><path fill="rgb(249,250,250)" stroke="rgb(249,250,250)" stroke-width="1" opacity="0.9725490196078431" d="M 64.5 12 L 65.5 14 L 64.5 12 Z " /><path fill="rgb(249,250,250)" stroke="rgb(249,250,250)" stroke-width="1" opacity="0.9725490196078431" d="M 140.5 12 L 143 12.5 Q 142.3 14.8 138.5 14 L 138.5 13 L 140.5 12 Z " /><path fill="rgb(249,250,250)" stroke="rgb(249,250,250)" stroke-width="1" opacity="0.9725490196078431" d="M 122.5 15 L 123.5 17 L 122.5 15 Z " /><path fill="rgb(249,250,250)" stroke="rgb(249,250,250)" stroke-width="1" opacity="0.9725490196078431" d="M 68.5 17 L 67.5 19 L 68.5 17 Z " /><path fill="rgb(249,250,250)" stroke="rgb(249,250,250)" stroke-width="1" opacity="0.9725490196078431" d="M 102.5 17 L 103.5 19 L 102.5 17 Z " /><path fill="rgb(249,250,250)" stroke="rgb(249,250,250)" stroke-width="1" opacity="0.9725490196078431" d="M 106.5 19 L 105.5 21 L 106.5 19 Z " /><path fill="rgb(249,250,250)" stroke="rgb(249,250,250)" stroke-width="1" opacity="0.9725490196078431" d="M 50.5 20 L 53 20.5 L 47.5 24 L 48 22.5 Q 47.3 20.3 49.5 21 L 50.5 20 Z " /><path fill="rgb(249,250,250)" stroke="rgb(249,250,250)" stroke-width="1" opacity="0.9725490196078431" d="M 80.5 20 L 81.5 22 L 80 21.5 L 79.5 23 L 78.5 21 L 80.5 20 Z " /><path fill="rgb(249,250,250)" stroke="rgb(249,250,250)" stroke-width="1" opacity="0.9725490196078431" d="M 110.5 20 L 113 20.5 L 110.5 21 L 110.5 20 Z " /><path fill="rgb(249,250,250)" stroke="rgb(249,250,250)" stroke-width="1" opacity="0.9725490196078431" d="M 129.5 20 Q 131.8 19.3 131 21.5 L 129.5 20 Z " /><path fill="rgb(249,250,250)" stroke="rgb(249,250,250)" stroke-width="1" opacity="0.9725490196078431" d="M 67.5 21 L 68.5 23 L 67.5 21 Z " /><path fill="rgb(249,250,250)" stroke="rgb(249,250,250)" stroke-width="1" opacity="0.9725490196078431" d="M 74.5 22 L 71.5 26 L 64 28 Q 62.9 25.3 65.5 26 L 68.5 24 Q 70 26.5 71.5 23 L 74.5 22 Z " /><path fill="rgb(249,250,250)" stroke="rgb(249,250,250)" stroke-width="1" opacity="0.9725490196078431" d="M 45.5 23 L 46 25 L 43 24.5 L 45.5 23 Z " /><path fill="rgb(249,250,250)" stroke="rgb(249,250,250)" stroke-width="1" opacity="0.9725490196078431" d="M 39.5 26 L 40.5 28 L 39.5 26 Z " /><path fill="rgb(249,250,250)" stroke="rgb(249,250,250)" stroke-width="1" opacity="0.9725490196078431" d="M 96.5 27 L 95.5 29 L 96.5 27 Z " /><path fill="rgb(249,250,250)" stroke="rgb(249,250,250)" stroke-width="1" opacity="0.9725490196078431" d="M 110.5 28 L 111 29.5 L 108.5 31 L 108.5 30 Q 111 30.7 110.5 28 Z " /><path fill="rgb(249,250,250)" stroke="rgb(249,250,250)" stroke-width="1" opacity="0.9725490196078431" d="M 125.5 28 L 123.5 31 L 125.5 28 Z " /><path fill="rgb(249,250,250)" stroke="rgb(249,250,250)" stroke-width="1" opacity="0.9725490196078431" d="M 34.5 29 L 37 29.5 L 32.5 32 L 32 30 L 34.5 29 Z " /><path fill="rgb(249,250,250)" stroke="rgb(249,250,250)" stroke-width="1" opacity="0.9725490196078431" d="M 61 29 L 63 29.5 L 61 30.5 L 61 29 Z " /><path fill="rgb(249,250,250)" stroke="rgb(249,250,250)" stroke-width="1" opacity="0.9725490196078431" d="M 47.5 31 L 51 32.5 L 47 33.5 L 47.5 35 L 44 32.5 L 45.5 32 L 47 32.5 L 47.5 31 Z " /><path fill="rgb(249,250,250)" stroke="rgb(249,250,250)" stroke-width="1" opacity="0.9725490196078431" d="M 68.5 32 L 70 32.5 L 67.5 34 L 68.5 32 Z " /><path fill="rgb(249,250,250)" stroke="rgb(249,250,250)" stroke-width="1" opacity="0.9725490196078431" d="M 115.5 32 L 118 33.5 L 116.5 34 L 115.5 32 Z " /><path fill="rgb(249,250,250)" stroke="rgb(249,250,250)" stroke-width="1" opacity="0.9725490196078431" d="M 73.5 33 L 74 35.5 L 73 35.5 L 73.5 33 Z " /><path fill="rgb(249,250,250)" stroke="rgb(249,250,250)" stroke-width="1" opacity="0.9725490196078431" d="M 39.5 34 L 46 35.5 L 40.5 38 L 37 35.5 L 38.5 36 L 40 35.5 L 39.5 34 Z " /><path fill="rgb(249,250,250)" stroke="rgb(249,250,250)" stroke-width="1" opacity="0.9725490196078431" d="M 93.5 34 L 92.5 36 L 93.5 34 Z " /><path fill="rgb(249,250,250)" stroke="rgb(249,250,250)" stroke-width="1" opacity="0.9725490196078431" d="M 87.5 35 L 88.5 37 L 86.5 37 L 85 36.5 L 87.5 35 Z " /><path fill="rgb(249,250,250)" stroke="rgb(249,250,250)" stroke-width="1" opacity="0.9725490196078431" d="M 9.5 36 L 15 36.5 L 9.5 37 L 9.5 36 Z " /><path fill="rgb(249,250,250)" stroke="rgb(249,250,250)" stroke-width="1" opacity="0.9725490196078431" d="M 97.5 38 L 100 38.5 L 97.5 39 L 97.5 38 Z " /><path fill="rgb(244,247,247)" stroke="rgb(244,247,247)" stroke-width="1" opacity="0.3607843137254902" d="M 119.5 6 L 125 6.5 L 119.5 7 L 119.5 6 Z " /><path fill="rgb(244,247,247)" stroke="rgb(244,247,247)" stroke-width="1" opacity="0.3607843137254902" d="M 141.5 6 L 140.5 8 L 141.5 6 Z " /><path fill="rgb(244,247,247)" stroke="rgb(244,247,247)" stroke-width="1" opacity="0.3607843137254902" d="M 145.5 7 L 143.5 10 L 145.5 7 Z " /><path fill="rgb(244,247,247)" stroke="rgb(244,247,247)" stroke-width="1" opacity="0.3607843137254902" d="M 95.5 9 L 98 9.5 L 95.5 10 L 95.5 9 Z " /><path fill="rgb(244,247,247)" stroke="rgb(244,247,247)" stroke-width="1" opacity="0.3607843137254902" d="M 104.5 9 L 103.5 11 L 104.5 9 Z " /><path fill="rgb(244,247,247)" stroke="rgb(244,247,247)" stroke-width="1" opacity="0.3607843137254902" d="M 145.5 11 L 144.5 13 L 145.5 11 Z " /><path fill="rgb(244,247,247)" stroke="rgb(244,247,247)" stroke-width="1" opacity="0.3607843137254902" d="M 101.5 14 L 102 17.5 L 101 17.5 L 101.5 14 Z " /><path fill="rgb(244,247,247)" stroke="rgb(244,247,247)" stroke-width="1" opacity="0.3607843137254902" d="M 127.5 15 L 130 15.5 L 127.5 16 L 127.5 15 Z " /><path fill="rgb(244,247,247)" stroke="rgb(244,247,247)" stroke-width="1" opacity="0.3607843137254902" d="M 68.5 16 L 69.5 18 L 68.5 16 Z " /><path fill="rgb(244,247,247)" stroke="rgb(244,247,247)" stroke-width="1" opacity="0.3607843137254902" d="M 124.5 17 L 123.5 19 L 124.5 17 Z " /><path fill="rgb(244,247,247)" stroke="rgb(244,247,247)" stroke-width="1" opacity="0.3607843137254902" d="M 113.5 19 L 117 19.5 L 113.5 20 L 113.5 19 Z " /><path fill="rgb(244,247,247)" stroke="rgb(244,247,247)" stroke-width="1" opacity="0.3607843137254902" d="M 66.5 21 L 67.5 23 L 66.5 21 Z " /><path fill="rgb(244,247,247)" stroke="rgb(244,247,247)" stroke-width="1" opacity="0.3607843137254902" d="M 125.5 23 L 124.5 25 L 125.5 23 Z " /><path fill="rgb(244,247,247)" stroke="rgb(244,247,247)" stroke-width="1" opacity="0.3607843137254902" d="M 103.5 24 L 106 24.5 L 103.5 25 L 103.5 24 Z " /><path fill="rgb(244,247,247)" stroke="rgb(244,247,247)" stroke-width="1" opacity="0.3607843137254902" d="M 128.5 26 L 123.5 32 L 128.5 26 Z " /><path fill="rgb(244,247,247)" stroke="rgb(244,247,247)" stroke-width="1" opacity="0.3607843137254902" d="M 3.5 27 L 2.5 29 L 3.5 27 Z " /><path fill="rgb(244,247,247)" stroke="rgb(244,247,247)" stroke-width="1" opacity="0.3607843137254902" d="M 91.5 28 L 89.5 31 L 91.5 28 Z " /><path fill="rgb(244,247,247)" stroke="rgb(244,247,247)" stroke-width="1" opacity="0.3607843137254902" d="M 63.5 29 L 64.5 31 Q 61.7 31.7 63.5 29 Z " /><path fill="rgb(244,247,247)" stroke="rgb(244,247,247)" stroke-width="1" opacity="0.3607843137254902" d="M 57.5 32 L 61 32.5 L 57.5 33 L 57.5 32 Z " /><path fill="rgb(244,247,247)" stroke="rgb(244,247,247)" stroke-width="1" opacity="0.3607843137254902" d="M 14.5 35 L 17 35.5 L 14.5 36 L 14.5 35 Z " /><path fill="rgb(244,247,247)" stroke="rgb(244,247,247)" stroke-width="1" opacity="0.3607843137254902" d="M 7.5 39 L 12 39.5 L 7.5 40 L 7.5 39 Z " /><path fill="rgb(244,247,247)" stroke="rgb(244,247,247)" stroke-width="1" opacity="0.3607843137254902" d="M 99.5 39 L 104 39.5 L 99.5 40 L 99.5 39 Z " /><path fill="rgb(252,254,254)" stroke="rgb(252,254,254)" stroke-width="1" opacity="0.9921568627450981" d="M 145.5 2 Q 149.5 1.5 150 4.5 L 148 9 L 146 8.5 Q 148.8 7.4 148 4 Q 139.9 2.5 138 8.5 L 136 14 L 139 14.5 L 133 17 L 131.5 21 L 129.5 20 L 131 22.5 L 127 26.5 Q 127.8 28.8 125.5 28 L 120 32.5 L 119.5 31 L 118.5 34 L 116.5 33 L 116.5 35 L 109.5 38 L 100.5 39 L 90.5 36 L 87 36.5 Q 91 35.1 90 30 L 95.5 27 L 92.5 31 L 91 31.5 L 93 32 Q 91.5 35.8 94.5 35 Q 97.4 38.6 105.5 37 L 122 29 Q 120.9 26.3 123.5 27 L 127 24.5 Q 124.5 23 128 21.5 Q 128.9 18.5 124.5 20 L 124.5 19 L 127 17.5 L 123 15.5 L 124.5 15 Q 125.7 17.3 130.5 16 L 133 12 L 135 11.5 L 134 10.5 L 140.5 4 L 145.5 2 Z " /><path fill="rgb(252,254,254)" stroke="rgb(252,254,254)" stroke-width="1" opacity="0.9921568627450981" d="M 88.5 3 L 97.5 3 L 100 5.5 L 99 8 L 95.5 9 Q 92 4.5 82.5 6 L 71.5 10 L 56.5 19 L 52.5 20 L 52.5 19 L 74.5 7 Q 80.6 7.6 82.5 4 L 86.5 4 L 89.5 5 L 89.5 4 L 88.5 3 Z " /><path fill="rgb(252,254,254)" stroke="rgb(252,254,254)" stroke-width="1" opacity="0.9921568627450981" d="M 118.5 4 L 126 4.5 L 123.5 6 Q 115.1 4.6 111 7.5 L 111.5 9 L 109.5 10 L 108 9.5 L 104 16.5 L 112.5 21 L 122.5 19 L 123 21 Q 117.4 22.9 107.5 22 L 104 20 L 102 14.5 L 107.5 8 L 118.5 4 Z " /><path fill="rgb(252,254,254)" stroke="rgb(252,254,254)" stroke-width="1" opacity="0.9921568627450981" d="M 127.5 5 Q 130.5 5.5 130 9.5 L 128 10.5 L 127.5 5 Z " /><path fill="rgb(252,254,254)" stroke="rgb(252,254,254)" stroke-width="1" opacity="0.9921568627450981" d="M 144.5 10 L 146 10.5 L 142.5 12 L 142.5 11 L 144.5 10 Z " /><path fill="rgb(252,254,254)" stroke="rgb(252,254,254)" stroke-width="1" opacity="0.9921568627450981" d="M 66 17 L 70 19.5 Q 69.3 21.8 71.5 21 L 74.5 23 L 76 22.5 L 74.5 25 L 73 24.5 L 73.5 23 L 69.5 25 L 66 19.5 L 66 17 Z " /><path fill="rgb(252,254,254)" stroke="rgb(252,254,254)" stroke-width="1" opacity="0.9921568627450981" d="M 84.5 18 Q 88.3 17 87 20 L 80.5 22 L 81.5 20 L 84.5 18 Z " /><path fill="rgb(252,254,254)" stroke="rgb(252,254,254)" stroke-width="1" opacity="0.9921568627450981" d="M 47.5 22 L 46.5 24 L 47.5 22 Z " /><path fill="rgb(252,254,254)" stroke="rgb(252,254,254)" stroke-width="1" opacity="0.9921568627450981" d="M 8.5 25 L 9 27 L 4 30.5 L 5 34.5 L 4.5 36 L 14.5 37 Q 15.8 34.8 20.5 36 L 31.5 31 L 30.5 33 Q 21.2 38.2 7.5 39 L 2 35.5 L 2 30.5 L 6.5 26 L 8.5 25 Z " /><path fill="rgb(252,254,254)" stroke="rgb(252,254,254)" stroke-width="1" opacity="0.9921568627450981" d="M 42.5 25 L 44 25.5 L 36.5 29 L 36.5 28 L 42.5 25 Z " /><path fill="rgb(252,254,254)" stroke="rgb(252,254,254)" stroke-width="1" opacity="0.9921568627450981" d="M 102.5 25 L 105 25.5 L 97.5 28 L 98.5 26 L 102.5 25 Z " /><path fill="rgb(252,254,254)" stroke="rgb(252,254,254)" stroke-width="1" opacity="0.9921568627450981" d="M 108.5 26 L 111 27.5 L 109.5 27 L 108.5 26 Z " /><path fill="rgb(252,254,254)" stroke="rgb(252,254,254)" stroke-width="1" opacity="0.9921568627450981" d="M 61.5 27 Q 65.3 26 64 29 Q 59.9 27.7 61 31 L 73 33 Q 74.1 35.7 71.5 35 L 62.5 32 L 52.5 32 L 50.5 32 L 48 31.5 L 61.5 27 Z " /><path fill="rgb(252,254,254)" stroke="rgb(252,254,254)" stroke-width="1" opacity="0.9921568627450981" d="M 46.5 32 L 50 33.5 L 38 36.5 L 40 37.5 L 36 39 Q 34.5 35.2 37.5 36 L 46.5 32 Z " /><path fill="rgb(252,254,254)" stroke="rgb(252,254,254)" stroke-width="1" opacity="0.9921568627450981" d="M 74 34 L 80.5 36 L 82.5 36 L 85 36.5 L 77.5 37 L 74 36 L 74 34 Z " /><path fill="rgb(247,249,250)" stroke="rgb(247,249,250)" stroke-width="1" opacity="0.596078431372549" d="M 88.5 2 L 96 2.5 L 88.5 3 L 88.5 2 Z " /><path fill="rgb(247,249,250)" stroke="rgb(247,249,250)" stroke-width="1" opacity="0.596078431372549" d="M 120.5 3 L 123 3.5 L 120.5 4 L 120.5 3 Z " /><path fill="rgb(247,249,250)" stroke="rgb(247,249,250)" stroke-width="1" opacity="0.596078431372549" d="M 85.5 6 L 89 6.5 L 85.5 7 L 85.5 6 Z " /><path fill="rgb(247,249,250)" stroke="rgb(247,249,250)" stroke-width="1" opacity="0.596078431372549" d="M 99.5 7 L 98.5 9 L 99.5 7 Z " /><path fill="rgb(247,249,250)" stroke="rgb(247,249,250)" stroke-width="1" opacity="0.596078431372549" d="M 147.5 9 L 146.5 11 L 147.5 9 Z " /><path fill="rgb(247,249,250)" stroke="rgb(247,249,250)" stroke-width="1" opacity="0.596078431372549" d="M 66.5 16 L 66 17.5 L 65.5 20 L 65 17.5 L 66.5 16 Z " /><path fill="rgb(247,249,250)" stroke="rgb(247,249,250)" stroke-width="1" opacity="0.596078431372549" d="M 106.5 17 L 107.5 19 L 106.5 17 Z " /><path fill="rgb(247,249,250)" stroke="rgb(247,249,250)" stroke-width="1" opacity="0.596078431372549" d="M 125.5 17 L 124.5 19 L 125.5 17 Z " /><path fill="rgb(247,249,250)" stroke="rgb(247,249,250)" stroke-width="1" opacity="0.596078431372549" d="M 70.5 19 L 71.5 21 L 70.5 19 Z " /><path fill="rgb(247,249,250)" stroke="rgb(247,249,250)" stroke-width="1" opacity="0.596078431372549" d="M 117.5 19 L 120 19.5 L 117.5 20 L 117.5 19 Z " /><path fill="rgb(247,249,250)" stroke="rgb(247,249,250)" stroke-width="1" opacity="0.596078431372549" d="M 124.5 20 L 127 20.5 L 124.5 21 L 124.5 20 Z " /><path fill="rgb(247,249,250)" stroke="rgb(247,249,250)" stroke-width="1" opacity="0.596078431372549" d="M 109.5 22 L 116 22.5 L 109.5 23 L 109.5 22 Z " /><path fill="rgb(247,249,250)" stroke="rgb(247,249,250)" stroke-width="1" opacity="0.596078431372549" d="M 68.5 23 L 67.5 25 L 68.5 23 Z " /><path fill="rgb(247,249,250)" stroke="rgb(247,249,250)" stroke-width="1" opacity="0.596078431372549" d="M 110.5 26 L 109.5 28 L 110.5 26 Z " /><path fill="rgb(247,249,250)" stroke="rgb(247,249,250)" stroke-width="1" opacity="0.596078431372549" d="M 7.5 27 L 6.5 29 L 7.5 27 Z " /><path fill="rgb(247,249,250)" stroke="rgb(247,249,250)" stroke-width="1" opacity="0.596078431372549" d="M 120.5 28 L 119.5 30 L 120.5 28 Z " /><path fill="rgb(247,249,250)" stroke="rgb(247,249,250)" stroke-width="1" opacity="0.596078431372549" d="M 54.5 32 L 57 32.5 L 54.5 33 L 54.5 32 Z " /><path fill="rgb(247,249,250)" stroke="rgb(247,249,250)" stroke-width="1" opacity="0.596078431372549" d="M 100.5 36 L 103 36.5 L 100.5 37 L 100.5 36 Z " /></svg>