<svg xmlns="http://www.w3.org/2000/svg" id="Layer_1" version="1.1" viewBox="0 0 383 289.1"><defs><style>.st0{fill:#fff}</style></defs><path d="m118 0 3 1c.9 2.2 1.7 4.4 2.4 6.7l.7 2.1 2.1 6.9 1.5 4.8c1 3.2 2 6.5 3 9.8 2.1 6.8 4.1 13.5 6.2 20.3l1.1 3.6c2.4 7.6 4.8 15.2 7.4 22.7 1 2.9 1.7 5.1 1.7 8.2h89l2-9c.6-2.1 1.3-4.3 2-6.4l1.2-3.6 1.2-3.8 1.3-4c1.1-3.5 2.3-6.9 3.4-10.4s2.3-6.9 3.4-10.4l6.3-18.9c.9-2.6 1.7-5.2 2.5-7.8l.7-2.1c.6-1.9 1.2-3.9 1.8-5.8l1.2-2.9 2.9-1c3.9 11.9 7.7 23.9 11.6 35.8 3.1 9.7 6.3 19.5 9.4 29.2l1.1 3.3c.9 2.7 1.8 5.5 2.6 8.2l.7 2.3q1.6 5 1.6 7.2h90c-1.2 3.5-1.9 3.9-4.8 5.9l-2.4 1.7-2.7 1.8-5.5 3.8-2.8 1.9c-4 2.8-7.9 5.6-11.8 8.4l-2.2 1.6-4.4 3.2c-3.8 2.8-7.7 5.5-11.5 8.3l-2.2 1.6c-6.8 4.9-13.7 9.8-20.5 14.7.6 5.3 1.8 10.1 3.5 15.2l.8 2.4c.5 1.7 1.1 3.4 1.7 5 .9 2.6 1.7 5.3 2.6 7.9l9 27 1.7 5c1.1 3.1 2.1 6.3 3.2 9.4l1.5 4.3 1.3 3.7c.7 3 .9 4.3-.2 7.1-4.7-2.6-8.9-5.3-13.1-8.6-4.5-3.5-9-6.9-13.6-10.2l-1.7-1.2-3.6-2.6c-3.6-2.5-7.1-5.1-10.6-7.6l-2.3-1.6c-4.1-3-8.2-6-12.3-9.1-.9-.6-1.7-1.3-2.6-2-1.7-1.3-3.3-2.5-5-3.8l-2.3-1.7-2-1.5q-1.9-1.1-3.9-.8c-2.2.9-3.9 2.1-5.9 3.5l-2.3 1.7-2.4 1.8c-6.7 5-13.4 9.8-20.3 14.5-6.4 4.3-12.6 8.9-18.7 13.6-4.3 3.3-8.6 6.6-13 9.8l-2.3 1.8-2.2 1.6-2 1.5q-1.9.9-3.9.7c-2.2-.9-3.9-1.9-5.8-3.3l-2.2-1.6-2.3-1.7-2.4-1.8c-5.9-4.3-11.7-8.7-17.6-13.1-4.8-3.6-9.6-7.1-14.5-10.6-5.1-3.6-10.1-7.3-15.1-11-1.2-.9-2.3-1.7-3.5-2.5-1.6-1.2-3.2-2.4-4.8-3.7q-2.7-1.8-5.2-1.2c-3.8 2.4-7.5 4.9-11.1 7.6-1.6 1.2-3.2 2.4-4.9 3.6l-2.4 1.8c-3.1 2.2-6.1 4.4-9.2 6.6-12.1 8.6-24 17.4-35.8 26.4q-4.9 3.7-9.2 3.7c1.5-6.3 3.4-12.5 5.4-18.6l1-3.1c.7-2.1 1.4-4.3 2.1-6.4 1.1-3.3 2.2-6.7 3.3-10q5.7-17.6 8.4-25.6c.9-2.8 1.9-5.7 2.8-8.5l1-2.9c1.1-3.3 1.9-6.2 2.1-9.6-1.9-3.8-5.3-5.6-8.8-7.9-1.6-1.1-3.1-2.1-4.7-3.2l-2.4-1.6c-3.4-2.3-6.6-4.7-9.9-7.1l-1.9-1.4c-3-2.2-6.1-4.5-9.1-6.7l-3.6-2.7-1.8-1.3c-3.6-2.7-7.3-5.2-11.1-7.8l-2.6-1.8c-1.7-1.1-3.4-2.3-5.2-3.4l-2.4-1.6-2.1-1.4q-1.6-1.4-2.6-4.4l-3-1v-1l90-1L98.7 59l2.6-8q6.45-19.5 12.3-39l.9-3.1.8-2.7c.8-2.3 1.7-4.3 2.8-6.4" class="st0"/><path d="M103 213c7.1.6 13.9 2 20.9 3.6l3.4.8c2.3.5 4.7 1.1 7 1.6 3.6.8 7.1 1.7 10.7 2.5l6.9 1.6 3.2.7c6.7 1.6 13.3 3.3 19.9 5.1-1.6 6.4-3.1 12.7-5 19l3-1c4.3-1.2 8.4-1.4 12.8-1.4h2.4c8.2.2 14.6 2.7 21.9 6.4l.8-2.2c1.1-2.7 2.3-5.1 3.7-7.7l1.5-2.8 1.6-2.9 1.6-3c3.8-6.9 7.6-13.7 11.7-20.5 6.7.7 13.2 2.1 19.7 3.6l3.4.8c3.5.8 7.1 1.6 10.6 2.5l7.1 1.6 6.9 1.6 3.2.7c7 1.6 14.1 3.4 21.1 5.1-1.7 7.6-4.3 14.7-7 22l2.3-.7c12.3-3.2 25.1-4.6 36.7 1.7 8.4 5.7 12.3 12.4 15 22v15H244c1-4.8 2.6-8.5 4.8-12.8l1.1-2.2c1.2-2.3 2.4-4.7 3.6-7s2.4-4.7 3.6-7.1c.7-1.5 1.5-2.9 2.2-4.4 1.6-3.1 2.9-6.1 3.7-9.5q-2.2-1.3-5-2c-4.1 1.9-6 4-8.2 7.9l-1.7 3-1.8 3.2-3.7 6.5-1.8 3.3c-2.5 4.4-5 8.7-7.6 13l-1.3 2.1q-2.8 4.8-3.9 5.9c-1.5 0-2.9.1-4.4.1H115.9c1.1-3.3 2.2-6.6 3.7-9.8l1-2 1-2.1 1.1-2.2c2.7-5.7 5.6-11.3 8.8-16.7 2.2-4 3.1-7.5 3.5-12.1-4.6.3-7.4.8-10.6 4.2-3.3 4.2-5.7 9.1-8.2 13.8-5 9.1-10 18.1-15.2 27.1H13c1.8-12.5 7.7-26.6 18.1-34.6 11.3-7.8 22.4-9.7 35.9-8.4 4.2 1 8 2.3 12 4l3 1 8.1-14.6 12.9-23.4" class="st0"/></svg>