<svg xmlns="http://www.w3.org/2000/svg" width="404" height="144" version="1.2" viewBox="0 0 404 144"><path fill="#fff" d="M333 18v16c30.2 0 33.9.3 33.6 1.3-.3.6-7.9 17.5-17 37.5L333 109v31c50.8 0 66.5.2 67.8.5l2.2.5v-33l-33.8-.5 33.8-74V2h-70z"/><path fill="#fff" fill-rule="evenodd" d="M2 2h38.5l8.3 15c4.5 8.2 8.2 15.5 8.2 16 0 .6-4 1-20 1v106H2zm78 0h36v138l-39.2-.5-8.3-15c-4.5-8.3-8.1-15.3-7.9-15.8.2-.4 4.7-.7 19.4-.7zm47 0h70v32h-38v21h38v32h-38v21h38v32h-70zm74.6 0 38.9-.1 11.6 18.3c6.4 10.1 23.9 37.6 38.9 61.3s29.5 46.5 37 58.5l-38.5.1-5.6-8.8c-3.1-4.8-22.2-34.9-42.4-66.8S204 5.5 203.2 4.2zm87.7 0H328l-4.9 7.8c-2.7 4.3-7.2 11.5-15.1 24.2h-18.5c-10.2 0-18.7-.3-19-.7-.2-.4 3.9-7.6 9.2-16zm-67.2 106h18.4c10.2 0 18.7.3 18.9.7.2.5-3.9 7.7-18.9 31.4L202 140l1.3-2.3c.8-1.2 5.3-8.4 10.1-16z"/></svg>