<svg xmlns="http://www.w3.org/2000/svg" width="2048" height="844.03" viewBox="0 0 97.06 40"><path d="M93.25 21.68h3.81V40h-3.81zM86.26 0h3.81v18.24h-3.81z" style="fill:#fff"/><path d="M93.25 14.83V0h3.81v18.24h-3.81v3.44L90.07 25v15h-3.81V21.68h3.81v-3.44zM62.58 21.68h3.81V40h-3.81zM69.56 0h3.81v18.24h-3.81z" style="fill:#fff"/><path d="M66.38 14.83V0h-3.8v18.24h3.8v3.44L69.56 25v15h3.81V21.68h-3.81v-3.44zM48.53 0h3.81v40h-3.81zM34.4 0l-5.33 3.96L23.73 0h-3.81v40h3.81V4.49l3.49 2.59V40h3.81V6.99l3.37-2.5V40h3.81V0zM7.37 0v2.69L3.81 0H0v40h3.81V4.62l3.56 2.66V40h3.74V0z" style="fill:#fff"/></svg>