<svg xmlns="http://www.w3.org/2000/svg" width="2835.44" height="937.71" viewBox="0 0 2835.44 937.71"><path d="M1521.65 47.88h95.08v885.05h-95.08zm1313.79 225.51-25.16-8.22c-33.31 91.43-155.5 301.82-275.39 454.92-95.55 117.75-185.58 202.28-232.62 170.35-44.66-33.65-42.18-143.23 16.19-324.62 43.93-119.1 107.89-274.98 232.12-406.86 42.94-42.2 73.81-55.78 91.76-53.82 32.11.6 57.71 23.93 53.17 73.34-46.34-9.49-74.54 18.3-74.31 56.53 1.77 28.79 21.57 52.37 55.65 53.07 28.39-.52 49.73-17.86 64.71-48.87 8.87-20.9 12.85-38.81 12.63-60.75-1.64-28.75-12.25-93.86-63.4-106.71-74.32-22.94-172.31 40.7-275.69 191.42 5.54-127.67-33.93-207.47-107.13-215.39-65.6-4.51-122.89 48.84-179.36 164.4q-15.86 31.81-33.5 70.07l40.38 14.58c29.92-58.86 95.66-219 169.79-210.12 70.69 8.2 55.47 136.47-30.09 378.61-110.23 283.23-261.52 459.56-354.23 436.09-43.39-7.17-76.86-44.27-83.83-91.23-3.58-36.74.65-97.83 32.73-126.14 12.59 11.55 78.71 21.12 89.44-44.06 2.63-24.49-22.13-60.18-54.1-60.39-37.4-2.86-70.09 30.94-87.39 98.55-10.95 46.74-12.47 92.97-5.34 135.14 6.34 31.28 33.38 116.85 111.95 118.37 93.13 9.74 195.36-75.94 298.28-258.92q2.86-.82 3.87 1.39c-44.6 115.39-32.51 219.49 27.5 250.06 42.38 20.07 117.68 18.65 241.5-115.2 169.01-187.82 269.44-383.64 339.87-535.59m-800.26 660.17h108.04l-31.18-75.21c-25.35 26.33-52.86 48-82.3 66zm46.06-150.27-131.05-312.05 184.4-423.72h-111.04l-128.28 298.51-121.06-298.51h-111.39l176.44 423.58-200.17 462.46h109.22l48.89-111.31c-16.63-71.57-.95-260.6 107.31-260.16 75.42 5.17 99.42 101.37 31.51 138.4l67.61 160.29c28.14-22.22 55.11-46.32 77.61-77.49m-629.72 150.27-121.4-921.23-227.07 654.68-153.73-461.07c-47.18 56.35-84.04 122.29-120.07 186.57l-79.84 541.05h100.9l68.28-531.37 182.39 531.37 188.49-532.31 61.4 532.31zM920.15 116.79 884.63 14.85l-27.57 185.43c20.09-28.17 39.96-56.44 63.09-83.49M560.17 937.37l-39.14.34c61.29-203.49 20.11-448.47 38.61-653.38-46.64 106.12-80.61 180.84-99.43 220.22-79.57 163.02-176.77 321.15-263.65 385.97C106.92 968.85 2.64 937.56.01 871.87c-.61-33.15 19.52-57.72 52.31-59.15 56.18-5.87 67.94 53.14 58.51 72.06 130.91-29.19 304.86-332.2 482.69-788.49C618.99 31.94 647.75-.47 689.6.01c-88.58 225.95-25.19 364.62-51.88 651.12 33.24-71.59 74.75-163.3 122.55-253.87C866.87 195.3 1001.98-2.99 1111.7 11.12c102.5 12.97 96.43 188.73-55.19 242.57q2.12-17.57 2.4-39.13c45.77-38.32 58.08-108.76 31.07-126.97-29.5-20.12-107.73 37.2-184.03 148.5-118.5 168.95-248.71 457.18-345.78 701.28" style="fill:#fff"/></svg>