<svg width="200" height="41" version="1.1" xmlns="http://www.w3.org/2000/svg" desc="Created with imagetracer.js version 1.2.6" ><path fill="rgb(254,254,254)" stroke="rgb(254,254,254)" stroke-width="1" opacity="1" d="M 7.5 0 L 8.5 5 L 9 2 L 14.5 3 L 16 2.5 L 10.5 16 L 9.5 13 L 9 16 Q 5.3 17.4 7 11.5 L 6 11.5 L 5.5 16 L 5 10.5 L 7.5 0 Z M 8 5 L 7 11 L 8 11 L 8 5 Z M 12 7 L 11 10 L 12 10 L 12 7 Z M 11 10 L 10 13 L 11 13 L 11 10 Z " /><path fill="rgb(254,254,254)" stroke="rgb(254,254,254)" stroke-width="1" opacity="1" d="M 9.5 0 L 15 0.5 L 9.5 1 L 9.5 0 Z " /><path fill="rgb(254,254,254)" stroke="rgb(254,254,254)" stroke-width="1" opacity="1" d="M 192 2 L 194 2 L 194 8 L 192 8 L 192 2 Z " /><path fill="rgb(254,254,254)" stroke="rgb(254,254,254)" stroke-width="1" opacity="1" d="M 195.5 2 L 196 7.5 L 195 7.5 L 195.5 2 Z " /><path fill="rgb(254,254,254)" stroke="rgb(254,254,254)" stroke-width="1" opacity="1" d="M 15.5 10 L 16 11.5 L 14.5 14 L 14 12.5 L 15.5 10 Z " /><path fill="rgb(255,255,255)" stroke="rgb(255,255,255)" stroke-width="1" opacity="0.996078431372549" d="M 8.5 0 Q 9.8 2.3 14.5 1 L 16 0.5 L 15 2.5 L 15.5 4 L 14 3.5 L 13 6.5 L 13.5 8 L 12 7.5 L 11 12.5 L 11.5 14 L 10 13.5 L 11 17.5 L 9 17.5 L 8.5 21 L 8 17.5 Q 9.5 8.5 14 2.5 L 9 2 L 3 37 Q 7.6 38.3 9 35.5 L 9 30.5 L 11 23.5 Q 8.7 22.3 11.5 21 L 13 24.5 L 11 24.5 Q 9.7 29.3 12 30.5 L 10 30.5 Q 8.8 35.3 11 36.5 L 9 36.5 L 8.5 39 L 3.5 38 L 2 38.5 L 1 34.5 L 3 34.5 L 2 27.5 L 3 27.5 L 3.5 29 L 5 17.5 L 4 15.5 L 5 15.5 L 5.5 17 L 8.5 0 Z " /><path fill="rgb(255,255,255)" stroke="rgb(255,255,255)" stroke-width="1" opacity="0.996078431372549" d="M 23.5 0 L 26.5 1 Q 31.3 2.3 32.5 0 L 33.5 2 L 35 1.5 L 36.5 7 L 38 6.5 L 36 12.5 L 35 24.5 L 35.5 26 L 34 25.5 Q 32.7 30.2 35 31.5 L 33 31.5 Q 31.8 36.2 34 37.5 L 31.5 39 L 26.5 38 L 25 38.5 L 27 20.5 L 26.5 19 L 28 19.5 L 27 11.5 L 28 8.5 L 25 7.5 L 24.5 6 L 21.5 7 L 19 6 L 17.5 9 L 16.5 7 L 18 7.5 L 19 5.5 L 18.5 4 L 21 2.5 L 21.5 1 L 23 1.5 L 23.5 0 Z M 25 2 L 22 4 L 26 5 L 30 11 L 26 34 L 26 37 L 32 37 L 34 19 L 36 12 L 35 5 Q 32 1 25 2 Z M 29 11 L 28 14 L 29 14 L 29 11 Z " /><path fill="rgb(255,255,255)" stroke="rgb(255,255,255)" stroke-width="1" opacity="0.996078431372549" d="M 176.5 0 L 179.5 1 L 192.5 1 L 193.5 0 L 196 0.5 Q 193.5 4 195 11.5 L 196 11.5 L 196.5 10 L 197 11.5 L 196 12.5 L 196 21.5 L 197 21.5 L 197.5 20 L 198 21.5 L 197 22.5 L 197 31.5 L 198 31.5 L 198.5 30 L 199 31.5 L 197.5 39 Q 196 36.5 190.5 38 L 189 38.5 L 189.5 31 L 190 37 L 197 37 L 197 33.5 L 196 32.5 L 194 2 L 178.5 2 L 177 3.5 L 162 36.5 L 170 37 L 170 34.5 L 174 28 L 186.5 28 L 187 30 L 175.5 30 L 172 32.5 L 173 34.5 L 171 34.5 L 169.5 39 Q 167.8 36.2 161.5 38 L 160 38.5 L 162 34.5 L 161.5 33 L 163 33.5 L 162 31.5 L 164 31.5 L 167 23.5 L 166.5 22 L 168 22.5 L 167 20.5 L 169 20.5 L 171 14.5 L 170.5 13 L 172 13.5 L 171 11.5 L 173 11.5 L 176 3.5 L 175.5 2 L 177 2.5 L 176.5 0 Z " /><path fill="rgb(255,255,255)" stroke="rgb(255,255,255)" stroke-width="1" opacity="0.996078431372549" d="M 183 5 L 187 5.5 L 184 6.5 L 187 7.5 L 183 8 L 183 5 Z " /><path fill="rgb(255,255,255)" stroke="rgb(255,255,255)" stroke-width="1" opacity="0.996078431372549" d="M 53.5 7 Q 55 9.5 60.5 8 L 63.5 7 L 65.5 9 L 71 12.5 L 70 14.5 L 72 14.5 L 71 19.5 L 73 23.5 L 72 23.5 L 71.5 22 L 71 27.5 L 71.5 29 L 70 28.5 L 69 31.5 L 69.5 33 L 65 36.5 L 64.5 38 L 63 37.5 L 62.5 39 L 60 38 L 59.5 40 L 58.5 39 L 49.5 39 Q 48 41.5 46.5 38 L 43 35.5 L 42.5 34 L 41 34.5 L 42 32.5 L 41 31.5 L 41 20.5 L 40 19.5 L 42 19.5 L 44 14.5 L 43.5 13 L 45 13.5 L 46.5 10 Q 48 12.5 49.5 9 L 54 8.5 L 53.5 7 Z M 55 9 L 49 11 Q 43 14 42 22 Q 40 30 43 34 L 50 38 Q 61 40 66 35 L 69 31 L 71 21 L 69 14 Q 66 7 55 9 Z " /><path fill="rgb(255,255,255)" stroke="rgb(255,255,255)" stroke-width="1" opacity="0.996078431372549" d="M 122.5 7 Q 124 9.5 129.5 8 L 132.5 7 L 139 11.5 L 138 13.5 L 140 13.5 L 139 14.5 L 139 22.5 L 139.5 24 L 137.5 25 L 136.5 24 L 119 23.5 L 130 23 L 130.5 21 L 131 23 L 138 23 L 138 14.5 L 135.5 11 Q 131.8 7.7 123.5 9 Q 116.9 9.9 114 14.5 L 112 18.5 L 111 29.5 L 112 33.5 L 115.5 37 Q 120.2 39.3 128.5 38 L 135 33.5 L 129.5 32 Q 128.3 36.3 121.5 35 L 117 30.5 L 117 25.5 L 118 25.5 L 118.5 31 L 120 30.5 Q 117.8 31.7 120.5 33 L 122 32.5 L 122 34 L 126 34 L 126.5 32 L 127.5 33 L 130.5 30 L 133 30.5 L 132.5 32 L 136.5 31 L 136 32.5 L 134 35.5 L 134.5 37 Q 133.3 34.8 132 37.5 L 131.5 39 L 129.5 38 L 119.5 40 L 117.5 40 L 114.5 37 L 113 37.5 Q 113.8 35.3 111.5 36 L 111 33.5 L 110.5 31 L 109 31.5 L 112 16.5 L 111.5 15 L 113 15.5 L 114 13.5 Q 111.8 12.3 114.5 11 L 115.5 12 L 118.5 9 Q 123 10.3 122.5 7 Z " /><path fill="rgb(255,255,255)" stroke="rgb(255,255,255)" stroke-width="1" opacity="0.996078431372549" d="M 164.5 7 L 166 9.5 L 164 9.5 L 163 18.5 L 163.5 20 L 161 19.5 L 162 16.5 L 163 10.5 L 162 10.5 L 158 17.5 L 160 18.5 L 156 20.5 Q 156.8 22.8 154.5 22 L 153 24.5 L 153.5 26 L 152 25.5 L 153 31.5 L 152 31.5 L 151.5 30 L 151 35.5 L 151.5 37 L 150 36.5 L 149.5 39 Q 148.3 36.8 143.5 38 L 142 38.5 L 141 34.5 L 143 34.5 Q 144.3 29.7 142 28.5 L 144 28.5 L 143 23.5 L 145 23.5 Q 146.3 18.8 144 17.5 L 146 17.5 Q 147.2 12.8 145 11.5 L 147 11.5 L 147.5 8 L 152.5 9 L 154 8.5 L 152.5 18 L 152 11.5 L 152.5 10 Q 147.1 8.1 148 11.5 L 143 37 Q 148.4 38.5 150 35.5 L 151 25.5 L 153 21 L 155 20.5 Q 152.8 19.2 155.5 18 L 158 16.5 L 160 12.5 L 159.5 11 L 164.5 7 Z " /><path fill="rgb(255,255,255)" stroke="rgb(255,255,255)" stroke-width="1" opacity="0.996078431372549" d="M 78.5 8 L 81.5 9 Q 86.2 10.3 87.5 8 L 89 11.5 L 87 11.5 L 88 16.5 L 86 16.5 Q 84.7 21.3 87 22.5 L 85 22.5 Q 83.3 29.3 86.5 31 L 89.5 32 L 91 31.5 L 90.5 34 L 85.5 38 L 78.5 40 L 75 37.5 L 76 36.5 L 77 21.5 L 76.5 20 L 78 20.5 Q 79.3 15.8 77 14.5 L 79 14.5 L 78.5 8 Z M 80 10 L 77 28 L 77 37 L 79 38 Q 86 39 88 35 L 84 30 L 84 23 L 86 16 L 86 10 L 80 10 Z " /><path fill="rgb(255,255,255)" stroke="rgb(255,255,255)" stroke-width="1" opacity="0.996078431372549" d="M 99.5 8 Q 100.8 10.3 105.5 9 L 107 8.5 L 108 13.5 L 106 13.5 L 107 19.5 L 106 19.5 L 105.5 18 L 105 23.5 L 105.5 25 L 104 24.5 Q 102.8 29.3 105 30.5 L 103 30.5 L 104 36.5 L 103 36.5 L 102.5 35 L 101.5 39 Q 100.3 36.8 95.5 38 Q 94.3 40.3 93 37.5 L 95 37 L 96.5 31 L 97 32.5 L 96 37 L 101 37 L 101 35.5 L 106 10 L 100.5 10 L 100 11.5 L 98 17.5 L 98 23.5 L 95 30 L 92.5 31 L 92 29 L 95 27.5 L 94.5 26 L 96 26.5 L 95 22.5 L 97 22.5 Q 98.3 17.7 96 16.5 L 98 16.5 L 97 10.5 L 98 10.5 L 98.5 12 L 99.5 8 Z " /><path fill="rgb(255,255,255)" stroke="rgb(255,255,255)" stroke-width="1" opacity="0.996078431372549" d="M 180 8 L 182 8.5 L 181 10.5 L 181.5 12 L 180 11.5 L 181 14.5 L 179 14.5 L 178 18.5 L 178.5 20 L 177 19.5 L 175.5 24 L 175 22.5 L 180 8 Z " /><path fill="rgb(255,255,255)" stroke="rgb(255,255,255)" stroke-width="1" opacity="0.996078431372549" d="M 188.5 8 L 189 23.5 L 188 23.5 L 188.5 8 Z " /><path fill="rgb(255,255,255)" stroke="rgb(255,255,255)" stroke-width="1" opacity="0.996078431372549" d="M 125.5 11 Q 131.1 11.5 133 15.5 L 132.5 22 L 131.5 15 L 130 15.5 L 130.5 14 L 127 13.5 L 127.5 12 Q 124.2 10.9 125 13.5 Q 122.5 11.7 120 16.5 L 121 18.5 L 119 18.5 L 118.5 22 L 118 18.5 L 123.5 12 L 125.5 11 Z " /><path fill="rgb(255,255,255)" stroke="rgb(255,255,255)" stroke-width="1" opacity="0.996078431372549" d="M 56.5 12 Q 62.1 12.5 64 16.5 L 65 22.5 L 63 29.5 L 58.5 34 L 53.5 35 L 48 30.5 L 47 26.5 L 49 18.5 L 53.5 13 L 56.5 12 Z M 54 14 L 54 16 L 51 17 L 52 19 L 50 19 L 51 22 L 50 21 L 49 31 L 51 30 L 50 32 L 52 32 L 54 32 L 58 33 L 60 32 Q 62 31 60 30 L 62 30 L 64 23 L 64 18 L 63 22 L 62 22 L 63 17 Q 61 13 54 14 Z M 54 33 L 54 34 L 57 34 L 54 33 Z " /><path fill="rgb(255,255,255)" stroke="rgb(255,255,255)" stroke-width="1" opacity="0.996078431372549" d="M 14.5 14 L 13.5 16 L 14.5 14 Z " /><path fill="rgb(255,255,255)" stroke="rgb(255,255,255)" stroke-width="1" opacity="0.996078431372549" d="M 177.5 25 L 187 25.5 L 177.5 26 L 177.5 25 Z " /><path fill="rgb(255,255,255)" stroke="rgb(255,255,255)" stroke-width="1" opacity="0.996078431372549" d="M 74.5 32 L 75 34.5 L 74 34.5 L 74.5 32 Z " /><path fill="rgb(0,0,0)" stroke="rgb(0,0,0)" stroke-width="1" opacity="0" d="M 0 0 L 4 0 L 4 1.5 L 5 1.5 L 5.5 0 L 6 2.5 L 4 8.5 L 4 14.5 L 0.5 33 L 0 26.5 L 1 21.5 L 0 20.5 L 0 0 Z M 4 3 L 3 8 L 4 8 L 4 3 Z M 3 8 L 2 14 L 3 14 L 3 8 Z M 2 15 L 1 20 L 2 20 L 2 15 Z " /><path fill="rgb(0,0,0)" stroke="rgb(0,0,0)" stroke-width="1" opacity="0" d="M 20.5 0 L 16.5 5 L 18 2.5 Q 17.3 0.3 19.5 1 L 20.5 0 Z " /><path fill="rgb(0,0,0)" stroke="rgb(0,0,0)" stroke-width="1" opacity="0" d="M 35.5 0 L 37.5 0 L 172.5 0 L 173 1.5 L 174 1.5 L 174.5 0 L 175 1.5 L 167.5 17 L 166 16.5 L 167 19.5 L 156.5 41 L 134 40.5 L 134 38.5 L 137 35.5 L 139 31.5 L 137.5 30 L 130 28.5 L 133.5 28 L 136.5 29 L 139 28 L 139.5 31 L 140 27 L 122 26.5 L 139.5 26 L 141 24.5 L 142 17.5 Q 141 10.5 136 7.5 L 136.5 6 L 133.5 7 L 132.5 6 L 121.5 6 L 119.5 7 L 117.5 6 L 116.5 9 L 116.5 7 L 114 8.5 L 115 9.5 L 111.5 13 L 111 10.5 L 110.5 9 L 110 13.5 L 110 15.5 Q 106.8 21.3 108 31.5 Q 109.3 37.3 114 39.5 L 112.5 41 L 88.5 41 L 88 38.5 L 90.5 36 L 92 35.5 L 92 33.5 L 92.5 32 L 93 35.5 L 92 40 L 103.5 40 L 104 37.5 L 108 15 L 110 14.5 L 109 9.5 L 110 7 L 97.5 7 L 97 9.5 Q 94 16 94 25.5 L 91.5 29 L 92 27.5 L 91.5 26 L 89 27.5 L 88.5 24 L 88 29 L 90 29.5 L 88.5 30 Q 86 29 87 24.5 L 90 7 L 78.5 7 L 77 8.5 L 73 34.5 L 75 41 L 65 40.5 L 65.5 38 L 67.5 39 L 70 34.5 L 74 24.5 L 74 17.5 L 70 10.5 L 72 10.5 L 69.5 7 L 68 7.5 L 68.5 9 L 66.5 5 L 64 5.5 L 66 6.5 L 64.5 7 L 63.5 6 L 52.5 6 L 50.5 7 L 48.5 6 L 48.5 8 L 46.5 7 L 47 8.5 L 41 14.5 L 40.5 16 L 39 15.5 L 40 18.5 L 37 27.5 L 37 32.5 L 38 32.5 L 38.5 28 Q 38.9 36.6 45 39.5 L 43.5 41 L 0.5 41 L 0.5 40 L 10.5 40 L 11 38.5 L 15 15.5 L 19.5 8 L 19.5 10 L 24 10 L 24 17.5 L 25 17.5 L 25 9.5 L 24 8.5 L 26 9.5 L 26 17.5 L 22 40 L 33.5 40 L 35 38.5 L 35 33.5 L 39 14.5 L 39 6.5 L 35.5 0 Z M 53 4 L 53 5 L 64 5 L 53 4 Z M 122 4 L 122 5 L 133 5 L 122 4 Z M 164 4 L 163 7 L 161 6 Q 158 7 160 9 L 159 8 Q 156 7 157 11 L 159 11 L 156 16 L 155 16 L 156 14 L 156 7 L 145 7 L 141 29 Q 143 34 140 33 L 140 35 L 139 40 L 152 40 L 156 24 L 157 27 L 157 25 Q 158 22 163 23 L 164 24 Q 165 20 161 22 L 161 21 L 165 22 L 167 6 L 164 6 L 167 5 L 164 4 Z M 79 5 L 79 6 L 90 6 L 79 5 Z M 98 5 L 98 6 L 109 6 L 98 5 Z M 146 5 L 146 6 L 156 6 L 146 5 Z M 41 6 L 40 14 L 42 13 L 41 6 Z M 169 6 L 167 12 L 168 15 L 170 11 L 169 6 Z M 171 6 L 170 9 L 171 9 L 171 6 Z M 92 7 L 91 12 L 92 12 L 92 7 Z M 144 7 L 143 10 L 144 10 L 144 7 Z M 76 8 L 75 13 L 76 13 L 76 8 Z M 95 10 L 94 15 L 95 15 L 95 10 Z M 141 11 L 142 16 L 143 16 Q 145 10 141 11 Z M 18 12 L 17 15 L 18 15 L 18 12 Z M 74 12 L 74 17 L 75 17 Q 76 13 74 12 Z M 91 13 L 90 18 L 91 18 L 91 13 Z M 17 15 L 16 20 L 17 20 L 17 15 Z M 94 15 L 93 21 L 94 21 L 94 15 Z M 24 18 L 23 24 L 24 24 L 24 18 Z M 90 19 L 89 24 L 90 24 L 90 19 Z M 16 20 L 15 26 L 16 26 L 16 20 Z M 93 21 L 92 26 L 93 26 L 93 21 Z M 23 25 L 22 30 L 23 30 L 23 25 Z M 15 26 L 14 32 L 15 32 L 15 26 Z M 156 27 L 155 33 L 156 33 L 156 27 Z M 22 31 L 21 36 L 22 36 L 22 31 Z M 107 31 L 107 38 L 108 35 L 107 31 Z M 14 32 L 13 38 L 14 38 L 14 32 Z M 37 33 L 36 39 L 37 39 L 37 33 Z M 155 33 L 154 38 L 155 38 L 155 33 Z M 139 34 L 137 37 L 138 39 L 139 39 L 139 34 Z M 21 36 L 20 40 L 21 40 L 21 36 Z M 42 37 L 41 39 L 44 40 L 42 37 Z M 91 37 L 89 39 L 91 40 L 91 37 Z M 157 37 L 156 40 L 157 40 L 157 37 Z " /><path fill="rgb(0,0,0)" stroke="rgb(0,0,0)" stroke-width="1" opacity="0" d="M 197.5 0 L 198.5 8 L 199.5 0 L 200 7.5 L 199 8.5 L 199 18.5 L 200 19.5 L 200 27.5 L 199 27.5 L 197.5 0 Z " /><path fill="rgb(0,0,0)" stroke="rgb(0,0,0)" stroke-width="1" opacity="0" d="M 185.5 9 L 186 22.5 L 185 22.5 L 185.5 9 Z " /><path fill="rgb(0,0,0)" stroke="rgb(0,0,0)" stroke-width="1" opacity="0" d="M 183.5 10 L 184 12.5 L 183 14.5 L 184 21 L 180.5 20 L 179.5 23 L 179 20.5 L 183.5 10 Z M 183 15 L 182 18 L 183 18 L 183 15 Z " /><path fill="rgb(0,0,0)" stroke="rgb(0,0,0)" stroke-width="1" opacity="0" d="M 126.5 14 L 128 19 L 124 19 L 124 17.5 L 123 17.5 L 121.5 21 L 121 19.5 L 123 15 L 125 15.5 L 124.5 17 Q 127.4 17.7 126.5 14 Z " /><path fill="rgb(0,0,0)" stroke="rgb(0,0,0)" stroke-width="1" opacity="0" d="M 128.5 15 Q 131 16 130 20.5 L 129 20.5 L 128.5 15 Z " /><path fill="rgb(0,0,0)" stroke="rgb(0,0,0)" stroke-width="1" opacity="0" d="M 54.5 16 L 54 17.5 L 54.5 19 L 59 18 L 59.5 26 L 60 17.5 L 59.5 16 L 61 17.5 L 61 25.5 L 57.5 31 L 57.5 29 Q 50.3 31.3 53 23.5 L 52 23.5 Q 50.5 29 53 30.5 L 51 29.5 L 52 19.5 L 54.5 16 Z M 54 19 L 53 23 L 54 23 L 54 19 Z M 59 26 L 58 29 L 59 29 L 59 26 Z " /><path fill="rgb(0,0,0)" stroke="rgb(0,0,0)" stroke-width="1" opacity="0" d="M 123.5 20 L 128 20.5 L 123.5 21 L 123.5 20 Z " /><path fill="rgb(0,0,0)" stroke="rgb(0,0,0)" stroke-width="1" opacity="0" d="M 181.5 22 L 184 22.5 L 181.5 23 L 181.5 22 Z " /><path fill="rgb(0,0,0)" stroke="rgb(0,0,0)" stroke-width="1" opacity="0" d="M 120.5 26 Q 120.3 30.3 123 31.5 L 120 29.5 L 120.5 26 Z " /><path fill="rgb(0,0,0)" stroke="rgb(0,0,0)" stroke-width="1" opacity="0" d="M 122.5 28 L 128 28 L 128 30.5 L 127 30.5 L 126.5 29 L 123.5 30 L 122.5 28 Z " /><path fill="rgb(0,0,0)" stroke="rgb(0,0,0)" stroke-width="1" opacity="0" d="M 175.5 32 L 175 33.5 L 175.5 35 Q 177.2 32.2 183.5 34 L 185 34.5 L 185.5 32 L 187 40 L 200 40.5 L 172 41 Q 172 35.2 175.5 32 Z M 175 35 L 174 38 L 175 38 L 175 35 Z M 186 37 L 185 40 L 186 40 L 186 37 Z " /><path fill="rgb(0,0,0)" stroke="rgb(0,0,0)" stroke-width="1" opacity="0" d="M 177.5 32 L 184 32.5 L 177.5 33 L 177.5 32 Z " /><path fill="rgb(0,0,0)" stroke="rgb(0,0,0)" stroke-width="1" opacity="0" d="M 63.5 39 L 62.5 41 L 61 40.5 L 63.5 39 Z " /><path fill="rgb(0,0,0)" stroke="rgb(0,0,0)" stroke-width="1" opacity="0" d="M 86.5 39 L 85.5 41 L 86.5 39 Z " /><path fill="rgb(0,0,0)" stroke="rgb(0,0,0)" stroke-width="1" opacity="0" d="M 132.5 39 L 131.5 41 L 130 40.5 L 132.5 39 Z " /><path fill="rgb(0,0,0)" stroke="rgb(0,0,0)" stroke-width="1" opacity="0" d="M 159.5 40 L 171 40.5 L 159.5 41 L 159.5 40 Z " /><path fill="rgb(255,255,255)" stroke="rgb(255,255,255)" stroke-width="1" opacity="0.00392156862745098" d="M 63.5 4 L 64.5 6 L 63.5 4 Z " /><path fill="rgb(255,255,255)" stroke="rgb(255,255,255)" stroke-width="1" opacity="0.00392156862745098" d="M 163 4 L 165 4.5 L 163 5.5 L 163 4 Z " /><path fill="rgb(255,255,255)" stroke="rgb(255,255,255)" stroke-width="1" opacity="0.00392156862745098" d="M 135 6 L 137 6.5 L 135 7.5 L 135 6 Z " /><path fill="rgb(255,255,255)" stroke="rgb(255,255,255)" stroke-width="1" opacity="0.00392156862745098" d="M 160.5 6 Q 163.1 5.3 162 8 L 159 8.5 L 159.5 10 L 157 8.5 L 160.5 6 Z " /><path fill="rgb(255,255,255)" stroke="rgb(255,255,255)" stroke-width="1" opacity="0.00392156862745098" d="M 69.5 7 L 72 10.5 L 70 9.5 L 69.5 7 Z " /><path fill="rgb(255,255,255)" stroke="rgb(255,255,255)" stroke-width="1" opacity="0.00392156862745098" d="M 111.5 7 L 112 8.5 L 110 9.5 L 111.5 7 Z " /><path fill="rgb(255,255,255)" stroke="rgb(255,255,255)" stroke-width="1" opacity="0.00392156862745098" d="M 115.5 7 L 117 7.5 L 114.5 9 L 115.5 7 Z " /><path fill="rgb(255,255,255)" stroke="rgb(255,255,255)" stroke-width="1" opacity="0.00392156862745098" d="M 198.5 7 Q 200.8 7.8 200 11.5 L 199 11.5 L 198.5 8 L 197 8.5 L 198.5 7 Z " /><path fill="rgb(255,255,255)" stroke="rgb(255,255,255)" stroke-width="1" opacity="0.00392156862745098" d="M 2.5 8 L 3 10.5 L 2 10.5 L 2.5 8 Z " /><path fill="rgb(255,255,255)" stroke="rgb(255,255,255)" stroke-width="1" opacity="0.00392156862745098" d="M 20.5 8 L 22.5 9 L 24 8.5 L 21.5 10 L 20.5 8 Z " /><path fill="rgb(255,255,255)" stroke="rgb(255,255,255)" stroke-width="1" opacity="0.00392156862745098" d="M 170.5 8 L 170 9.5 L 168.5 12 L 168 9 L 170.5 8 Z " /><path fill="rgb(255,255,255)" stroke="rgb(255,255,255)" stroke-width="1" opacity="0.00392156862745098" d="M 140.5 10 L 143 11.5 L 141.5 12 L 140.5 10 Z " /><path fill="rgb(255,255,255)" stroke="rgb(255,255,255)" stroke-width="1" opacity="0.00392156862745098" d="M 18.5 11 L 17.5 13 L 18.5 11 Z " /><path fill="rgb(255,255,255)" stroke="rgb(255,255,255)" stroke-width="1" opacity="0.00392156862745098" d="M 24.5 11 L 25 13.5 L 24 13.5 L 24.5 11 Z " /><path fill="rgb(255,255,255)" stroke="rgb(255,255,255)" stroke-width="1" opacity="0.00392156862745098" d="M 73.5 12 L 74.5 14 Q 71.7 14.7 73.5 12 Z " /><path fill="rgb(255,255,255)" stroke="rgb(255,255,255)" stroke-width="1" opacity="0.00392156862745098" d="M 17.5 14 L 16.5 16 L 17.5 14 Z " /><path fill="rgb(255,255,255)" stroke="rgb(255,255,255)" stroke-width="1" opacity="0.00392156862745098" d="M 183.5 14 L 182.5 16 L 183.5 14 Z " /><path fill="rgb(255,255,255)" stroke="rgb(255,255,255)" stroke-width="1" opacity="0.00392156862745098" d="M 55.5 16 L 57.5 17 L 59 16.5 L 56.5 18 L 55.5 16 Z " /><path fill="rgb(255,255,255)" stroke="rgb(255,255,255)" stroke-width="1" opacity="0.00392156862745098" d="M 16.5 18 L 17 19.5 L 15 20.5 L 16.5 18 Z " /><path fill="rgb(255,255,255)" stroke="rgb(255,255,255)" stroke-width="1" opacity="0.00392156862745098" d="M 23.5 18 L 24 20.5 L 23 20.5 L 23.5 18 Z " /><path fill="rgb(255,255,255)" stroke="rgb(255,255,255)" stroke-width="1" opacity="0.00392156862745098" d="M 59.5 18 L 60 22.5 L 59 22.5 L 59.5 18 Z " /><path fill="rgb(255,255,255)" stroke="rgb(255,255,255)" stroke-width="1" opacity="0.00392156862745098" d="M 181.5 19 L 180.5 21 L 181.5 19 Z " /><path fill="rgb(255,255,255)" stroke="rgb(255,255,255)" stroke-width="1" opacity="0.00392156862745098" d="M 93.5 20 L 93 21.5 L 92.5 23 L 92 21.5 L 93.5 20 Z " /><path fill="rgb(255,255,255)" stroke="rgb(255,255,255)" stroke-width="1" opacity="0.00392156862745098" d="M 159.5 21 L 163 22.5 L 160.5 23 L 159.5 21 Z " /><path fill="rgb(255,255,255)" stroke="rgb(255,255,255)" stroke-width="1" opacity="0.00392156862745098" d="M 15.5 24 L 16 25.5 L 14 26.5 L 15.5 24 Z " /><path fill="rgb(255,255,255)" stroke="rgb(255,255,255)" stroke-width="1" opacity="0.00392156862745098" d="M 92.5 25 L 90.5 28 L 92.5 25 Z " /><path fill="rgb(255,255,255)" stroke="rgb(255,255,255)" stroke-width="1" opacity="0.00392156862745098" d="M 156.5 25 L 157 26.5 L 155 27.5 L 156.5 25 Z " /><path fill="rgb(255,255,255)" stroke="rgb(255,255,255)" stroke-width="1" opacity="0.00392156862745098" d="M 53 29 L 57 29 L 57 30.5 L 55.5 30 L 53.5 31 L 53 29 Z " /><path fill="rgb(255,255,255)" stroke="rgb(255,255,255)" stroke-width="1" opacity="0.00392156862745098" d="M 160.5 29 L 161 30.5 L 159 31.5 L 160.5 29 Z " /><path fill="rgb(255,255,255)" stroke="rgb(255,255,255)" stroke-width="1" opacity="0.00392156862745098" d="M 14.5 30 L 15 31.5 L 13 32.5 L 14.5 30 Z " /><path fill="rgb(255,255,255)" stroke="rgb(255,255,255)" stroke-width="1" opacity="0.00392156862745098" d="M 125.5 30 L 127 30.5 L 123.5 32 L 123.5 31 L 125.5 30 Z " /><path fill="rgb(255,255,255)" stroke="rgb(255,255,255)" stroke-width="1" opacity="0.00392156862745098" d="M 155.5 30 L 156 32.5 L 155 32.5 L 155.5 30 Z " /><path fill="rgb(255,255,255)" stroke="rgb(255,255,255)" stroke-width="1" opacity="0.00392156862745098" d="M 106.5 31 L 107.5 33 Q 104.7 33.7 106.5 31 Z " /><path fill="rgb(255,255,255)" stroke="rgb(255,255,255)" stroke-width="1" opacity="0.00392156862745098" d="M 37.5 32 L 36.5 34 L 37.5 32 Z " /><path fill="rgb(255,255,255)" stroke="rgb(255,255,255)" stroke-width="1" opacity="0.00392156862745098" d="M 71.5 34 L 67.5 39 L 66.5 37 Q 71 37.5 71.5 34 Z " /><path fill="rgb(255,255,255)" stroke="rgb(255,255,255)" stroke-width="1" opacity="0.00392156862745098" d="M 107.5 34 L 108.5 36 L 107 35.5 L 106.5 38 L 106 35.5 L 107.5 34 Z " /><path fill="rgb(255,255,255)" stroke="rgb(255,255,255)" stroke-width="1" opacity="0.00392156862745098" d="M 175.5 34 L 174.5 36 L 175.5 34 Z " /><path fill="rgb(255,255,255)" stroke="rgb(255,255,255)" stroke-width="1" opacity="0.00392156862745098" d="M 20.5 36 L 21 38.5 L 20 38.5 L 20.5 36 Z " /><path fill="rgb(255,255,255)" stroke="rgb(255,255,255)" stroke-width="1" opacity="0.00392156862745098" d="M 40.5 36 L 43 39.5 L 41 38.5 L 40.5 36 Z " /><path fill="rgb(255,255,255)" stroke="rgb(255,255,255)" stroke-width="1" opacity="0.00392156862745098" d="M 154.5 36 L 155 37.5 L 153.5 40 L 153 38.5 L 154.5 36 Z " /><path fill="rgb(255,255,255)" stroke="rgb(255,255,255)" stroke-width="1" opacity="0.00392156862745098" d="M 36.5 37 L 37 38.5 L 35 39.5 L 36.5 37 Z " /><path fill="rgb(255,255,255)" stroke="rgb(255,255,255)" stroke-width="1" opacity="0.00392156862745098" d="M 72.5 37 L 73.5 39 L 72.5 37 Z " /><path fill="rgb(255,255,255)" stroke="rgb(255,255,255)" stroke-width="1" opacity="0.00392156862745098" d="M 185.5 37 L 186 39.5 L 185 39.5 L 185.5 37 Z " /><path fill="rgb(255,255,255)" stroke="rgb(255,255,255)" stroke-width="1" opacity="0.00392156862745098" d="M 89.5 38 L 87.5 41 L 89.5 38 Z " /><path fill="rgb(255,255,255)" stroke="rgb(255,255,255)" stroke-width="1" opacity="0.00392156862745098" d="M 138.5 38 L 137.5 40 L 138.5 38 Z " /><path fill="rgb(255,255,255)" stroke="rgb(255,255,255)" stroke-width="1" opacity="0.00392156862745098" d="M 64.5 39 L 65 41 L 63 40.5 L 64.5 39 Z " /><path fill="rgb(255,255,255)" stroke="rgb(255,255,255)" stroke-width="1" opacity="0.00392156862745098" d="M 133 39 L 135 39.5 L 133 40.5 L 133 39 Z " /><path fill="rgb(255,255,255)" stroke="rgb(255,255,255)" stroke-width="1" opacity="0.00392156862745098" d="M 156.5 39 L 159 40.5 L 157.5 41 L 156.5 39 Z " /><path fill="rgb(255,255,255)" stroke="rgb(255,255,255)" stroke-width="1" opacity="0.803921568627451" d="M 196.5 6 L 197 9.5 L 196 9.5 L 196.5 6 Z " /><path fill="rgb(255,255,255)" stroke="rgb(255,255,255)" stroke-width="1" opacity="0.803921568627451" d="M 161.5 8 L 160.5 10 L 161.5 8 Z " /><path fill="rgb(255,255,255)" stroke="rgb(255,255,255)" stroke-width="1" opacity="0.803921568627451" d="M 116.5 9 L 115.5 11 L 116.5 9 Z " /><path fill="rgb(255,255,255)" stroke="rgb(255,255,255)" stroke-width="1" opacity="0.803921568627451" d="M 14.5 11 L 15.5 13 L 14.5 11 Z " /><path fill="rgb(255,255,255)" stroke="rgb(255,255,255)" stroke-width="1" opacity="0.803921568627451" d="M 13.5 14 L 14.5 16 L 13.5 14 Z " /><path fill="rgb(255,255,255)" stroke="rgb(255,255,255)" stroke-width="1" opacity="0.803921568627451" d="M 123.5 14 L 121.5 17 L 123.5 14 Z " /><path fill="rgb(255,255,255)" stroke="rgb(255,255,255)" stroke-width="1" opacity="0.803921568627451" d="M 60.5 15 L 61.5 17 L 60.5 15 Z " /><path fill="rgb(255,255,255)" stroke="rgb(255,255,255)" stroke-width="1" opacity="0.803921568627451" d="M 140.5 16 L 141 20.5 L 140 20.5 L 140.5 16 Z " /><path fill="rgb(255,255,255)" stroke="rgb(255,255,255)" stroke-width="1" opacity="0.803921568627451" d="M 197.5 16 L 198 19.5 L 197 19.5 L 197.5 16 Z " /><path fill="rgb(255,255,255)" stroke="rgb(255,255,255)" stroke-width="1" opacity="0.803921568627451" d="M 10.5 18 L 11 20.5 L 10 20.5 L 10.5 18 Z " /><path fill="rgb(255,255,255)" stroke="rgb(255,255,255)" stroke-width="1" opacity="0.803921568627451" d="M 12.5 18 L 14 20.5 L 12 19.5 L 12.5 18 Z " /><path fill="rgb(255,255,255)" stroke="rgb(255,255,255)" stroke-width="1" opacity="0.803921568627451" d="M 39.5 23 L 40 29.5 L 39 29.5 L 39.5 23 Z " /><path fill="rgb(255,255,255)" stroke="rgb(255,255,255)" stroke-width="1" opacity="0.803921568627451" d="M 75.5 23 L 76 25.5 L 75 25.5 L 75.5 23 Z " /><path fill="rgb(255,255,255)" stroke="rgb(255,255,255)" stroke-width="1" opacity="0.803921568627451" d="M 198.5 26 L 199 29.5 L 198 29.5 L 198.5 26 Z " /><path fill="rgb(255,255,255)" stroke="rgb(255,255,255)" stroke-width="1" opacity="0.803921568627451" d="M 74.5 29 L 75 31.5 L 74 31.5 L 74.5 29 Z " /><path fill="rgb(255,255,255)" stroke="rgb(255,255,255)" stroke-width="1" opacity="0.803921568627451" d="M 86.5 29 L 87.5 31 L 86.5 29 Z " /><path fill="rgb(255,255,255)" stroke="rgb(255,255,255)" stroke-width="1" opacity="0.803921568627451" d="M 59.5 30 L 58.5 32 L 59.5 30 Z " /><path fill="rgb(255,255,255)" stroke="rgb(255,255,255)" stroke-width="1" opacity="0.803921568627451" d="M 1.5 31 L 2 33.5 L 1 33.5 L 1.5 31 Z " /><path fill="rgb(255,255,255)" stroke="rgb(255,255,255)" stroke-width="1" opacity="0.803921568627451" d="M 122.5 32 L 126 32.5 L 122.5 33 L 122.5 32 Z " /><path fill="rgb(255,255,255)" stroke="rgb(255,255,255)" stroke-width="1" opacity="0.803921568627451" d="M 187.5 33 L 188 39 L 198.5 39 L 199 37.5 L 200 37.5 L 199.5 40 L 188.5 40 Q 185.4 38.4 187.5 33 Z " /><path fill="rgb(255,255,255)" stroke="rgb(255,255,255)" stroke-width="1" opacity="0.803921568627451" d="M 68.5 34 L 66.5 37 L 68.5 34 Z " /><path fill="rgb(255,255,255)" stroke="rgb(255,255,255)" stroke-width="1" opacity="0.803921568627451" d="M 136.5 34 L 135.5 36 L 136.5 34 Z " /><path fill="rgb(255,255,255)" stroke="rgb(255,255,255)" stroke-width="1" opacity="0.803921568627451" d="M 89.5 35 L 87.5 38 L 89.5 35 Z " /><path fill="rgb(255,255,255)" stroke="rgb(255,255,255)" stroke-width="1" opacity="0.803921568627451" d="M 0.5 37 L 1 39 L 9.5 39 L 10 37.5 L 11 37.5 L 9.5 40 L 0.5 40 L 0.5 37 Z " /><path fill="rgb(255,255,255)" stroke="rgb(255,255,255)" stroke-width="1" opacity="0.803921568627451" d="M 103.5 37 L 104 38.5 L 102.5 40 L 93.5 40 L 93.5 39 L 102.5 39 L 103.5 37 Z " /><path fill="rgb(255,255,255)" stroke="rgb(255,255,255)" stroke-width="1" opacity="0.803921568627451" d="M 151.5 37 L 152 38.5 L 150.5 40 L 140 40 L 140.5 38 L 141.5 39 L 151 39 L 151.5 37 Z " /><path fill="rgb(255,255,255)" stroke="rgb(255,255,255)" stroke-width="1" opacity="0.803921568627451" d="M 33.5 38 L 32.5 40 L 23 39.5 L 32.5 39 L 33.5 38 Z " /><path fill="rgb(255,255,255)" stroke="rgb(255,255,255)" stroke-width="1" opacity="0.803921568627451" d="M 159.5 39 L 171 39.5 L 159.5 40 L 159.5 39 Z " /><path fill="rgb(255,255,255)" stroke="rgb(255,255,255)" stroke-width="1" opacity="0.803921568627451" d="M 51.5 40 L 57 40.5 L 51.5 41 L 51.5 40 Z " /><path fill="rgb(255,255,255)" stroke="rgb(255,255,255)" stroke-width="1" opacity="0.803921568627451" d="M 79.5 40 L 82 40.5 L 79.5 41 L 79.5 40 Z " /><path fill="rgb(255,255,255)" stroke="rgb(255,255,255)" stroke-width="1" opacity="0.803921568627451" d="M 120.5 40 L 126 40.5 L 120.5 41 L 120.5 40 Z " /><path fill="rgb(255,255,255)" stroke="rgb(255,255,255)" stroke-width="1" opacity="1" d="M 26.5 0 L 32 0.5 L 26.5 1 L 26.5 0 Z " /><path fill="rgb(255,255,255)" stroke="rgb(255,255,255)" stroke-width="1" opacity="1" d="M 177.5 0 L 177 1.5 L 177.5 3 L 178.5 2 L 192 2 L 192 7.5 Q 195.3 6.5 194 12.5 L 195 13.5 L 195.5 22 L 196 12.5 L 195 8.5 L 196 8.5 L 199 38.5 L 198 38.5 L 196.5 22 L 196 32.5 L 197 37 L 190 37 L 190 31.5 L 189 31.5 L 188.5 39 L 188 31 L 175 30.5 L 187 30 L 186.5 28 L 174 28 L 173 30.5 L 173 32.5 L 170.5 39 L 170 37 L 162.5 37 L 161.5 36 L 161 38 L 169 38.5 L 161.5 39 L 159 38.5 L 177.5 0 Z M 183 5 L 183 9 L 177 24 L 187 24 L 187 7 L 184 7 L 187 6 L 183 5 Z M 175 7 L 174 10 L 175 10 L 175 7 Z M 180 8 L 181 11 L 182 9 L 180 8 Z M 189 8 L 188 24 L 189 24 L 189 8 Z M 180 11 L 179 14 L 180 14 L 180 11 Z M 179 14 L 177 17 L 178 19 L 179 17 L 179 14 Z M 170 18 L 169 21 L 170 21 L 170 18 Z M 177 19 L 176 22 L 177 22 L 177 19 Z M 178 25 L 178 26 L 187 26 L 178 25 Z M 166 27 L 164 30 L 165 32 L 166 30 L 166 27 Z M 171 34 L 170 37 L 171 37 L 171 34 Z " /><path fill="rgb(255,255,255)" stroke="rgb(255,255,255)" stroke-width="1" opacity="1" d="M 179.5 0 L 192 0.5 L 179.5 1 L 179.5 0 Z " /><path fill="rgb(255,255,255)" stroke="rgb(255,255,255)" stroke-width="1" opacity="1" d="M 20.5 2 L 19.5 4 L 20.5 2 Z " /><path fill="rgb(255,255,255)" stroke="rgb(255,255,255)" stroke-width="1" opacity="1" d="M 24.5 2 Q 31.9 0.6 34.5 4 L 35.5 2 Q 38.8 5.2 38 12.5 L 33.5 37 L 32.5 31 L 32 37 L 26 37 L 26 33.5 L 25 33.5 L 24.5 39 L 24 32.5 L 28 11.5 L 26 7.5 Q 28.3 6.3 25.5 5 L 22 3.5 L 24.5 2 Z M 36 4 L 35 7 L 36 7 L 36 4 Z M 37 7 L 36 12 L 37 12 L 37 7 Z M 29 8 L 29 14 L 30 14 L 29 8 Z M 36 12 L 35 18 L 36 18 L 36 12 Z M 29 14 L 28 20 L 29 20 L 29 14 Z M 35 18 L 34 25 L 35 25 L 35 18 Z M 28 20 L 27 27 L 28 27 L 28 20 Z M 34 25 L 33 31 L 34 31 L 34 25 Z M 27 27 L 26 33 L 27 33 L 27 27 Z " /><path fill="rgb(255,255,255)" stroke="rgb(255,255,255)" stroke-width="1" opacity="1" d="M 18.5 5 L 20.5 6 L 22.5 5 L 22.5 6 L 19.5 7 L 18 6.5 L 16.5 10 L 16 8.5 L 18.5 5 Z " /><path fill="rgb(255,255,255)" stroke="rgb(255,255,255)" stroke-width="1" opacity="1" d="M 54.5 7 L 61 7.5 L 54 8.5 L 62.5 9 L 62.5 7 L 63.5 10 Q 68.5 9.5 69 13.5 L 69.5 15 L 70.5 13 L 73 21.5 Q 70.8 22.8 72 27.5 L 69.5 32 Q 68.3 29.8 67 32.5 L 67.5 34 L 69 33.5 L 65 36.5 L 65.5 35 L 60 37.5 L 62 38.5 L 60.5 39 L 59.5 38 L 49.5 38 L 43.5 34 L 43 35.5 L 44.5 38 Q 37.8 33.8 40 20.5 L 45.5 11 L 45 12.5 L 45.5 14 L 48.5 9 L 48.5 11 L 54 9.5 L 50 8.5 L 54.5 7 Z M 57 12 L 54 13 Q 49 15 52 17 Q 49 21 50 31 L 50 33 L 53 34 L 52 33 L 54 33 L 58 32 L 57 34 L 59 34 Q 61 33 59 32 L 61 30 L 63 22 L 62 17 L 62 15 L 57 12 Z M 71 15 L 70 20 L 71 20 L 71 15 Z M 43 17 L 41 21 L 42 32 L 42 22 L 43 21 L 43 17 Z M 50 18 L 49 21 L 50 21 L 50 18 Z M 65 18 L 64 23 L 65 23 L 65 18 Z M 72 20 L 70 22 L 71 28 L 72 22 L 72 20 Z M 49 21 L 47 27 L 48 31 L 49 31 L 49 21 Z M 64 23 L 62 28 L 63 30 L 64 28 L 64 23 Z M 70 28 L 69 31 L 70 31 L 70 28 Z M 54 34 L 54 35 L 57 35 L 54 34 Z " /><path fill="rgb(255,255,255)" stroke="rgb(255,255,255)" stroke-width="1" opacity="1" d="M 123.5 7 L 130 7.5 L 123.5 8 L 123.5 7 Z " /><path fill="rgb(255,255,255)" stroke="rgb(255,255,255)" stroke-width="1" opacity="1" d="M 131.5 7 L 132.5 10 L 135.5 11 L 134.5 8 Q 141.8 10.7 140 22.5 L 139 22.5 L 138.5 14 L 138 23 L 131 23 L 131 15.5 L 129.5 12 L 125.5 13 L 123.5 12 Q 125.2 14.2 121 16.5 L 120 22 L 130 22.5 L 119 23.5 L 137 24.5 L 119 25 Q 117.5 30.8 121 32.5 Q 118.8 33.8 121.5 35 Q 126.8 36.3 128 33.5 Q 125.3 31.7 129.5 30 L 129.5 32 L 132 31.5 L 131.5 30 L 137 32.5 L 132.5 38 L 132.5 36 L 129 37.5 L 131 38.5 Q 128 41.5 120.5 40 L 120.5 39 L 129 38.5 L 115.5 37 L 115.5 39 L 112.5 34 Q 111.2 36.3 110 33.5 L 109 22.5 Q 110.8 13.3 117.5 9 L 117.5 11 Q 123.1 8.1 132 8.5 L 131.5 7 Z M 126 11 L 126 12 L 128 12 L 126 11 Z M 133 15 L 132 22 L 133 22 L 133 15 Z M 112 18 L 111 23 L 112 23 L 112 18 Z M 119 18 L 118 22 L 119 22 L 119 18 Z M 111 23 L 111 34 L 112 34 L 111 23 Z M 118 25 L 117 31 L 118 31 L 118 25 Z M 133 32 Q 132 34 135 33 L 136 34 Q 137 31 133 32 Z " /><path fill="rgb(255,255,255)" stroke="rgb(255,255,255)" stroke-width="1" opacity="1" d="M 165.5 7 L 166 8.5 L 163.5 19 L 162.5 14 L 161 17.5 Q 163.3 18.8 160.5 20 L 156.5 21 L 157.5 19 L 160 18.5 L 157.5 17 L 156 17.5 L 159.5 12 Q 160.8 14.3 162 11.5 L 161.5 10 L 160 10.5 L 163 8.5 L 163 10.5 L 163.5 14 L 165.5 7 Z " /><path fill="rgb(255,255,255)" stroke="rgb(255,255,255)" stroke-width="1" opacity="1" d="M 81.5 8 L 87 8.5 L 81.5 9 L 81.5 8 Z " /><path fill="rgb(255,255,255)" stroke="rgb(255,255,255)" stroke-width="1" opacity="1" d="M 88.5 8 L 89 10.5 L 86 22.5 L 86 29.5 L 88 33.5 L 88.5 35 L 90 34.5 Q 87.6 40.1 79.5 40 L 79.5 39 Q 85.3 39.8 87 36.5 L 85.5 36 Q 83.8 38.8 78.5 38 L 77 36.5 L 76.5 27 L 75.5 37 L 75 26.5 L 78.5 10 L 79.5 15 L 80 10 L 86 10 L 86 15.5 L 87 15.5 L 88.5 8 Z M 79 15 L 78 21 L 79 21 L 79 15 Z M 86 16 L 85 22 L 86 22 L 86 16 Z M 78 21 L 77 27 L 78 27 L 78 21 Z M 85 22 L 84 30 L 85 30 L 85 22 Z " /><path fill="rgb(255,255,255)" stroke="rgb(255,255,255)" stroke-width="1" opacity="1" d="M 98.5 8 L 99.5 12 L 100 10 L 106 10 L 106 12.5 L 107 12.5 L 107.5 8 L 108 12.5 L 102.5 39 L 101.5 35 L 101 37 L 96 37 L 96 33.5 L 95 33.5 L 94.5 37 L 94 32.5 L 94.5 31 L 93 30.5 L 95 30 L 94.5 28 L 93 28.5 L 95 26.5 L 98.5 8 Z M 99 12 L 98 17 L 99 17 L 99 12 Z M 106 13 L 105 18 L 106 18 L 106 13 Z M 98 17 L 96 24 L 97 27 L 98 24 L 98 17 Z M 105 18 L 104 24 L 105 24 L 105 18 Z M 104 24 L 103 30 L 104 30 L 104 24 Z M 103 30 L 102 35 L 103 35 L 103 30 Z " /><path fill="rgb(255,255,255)" stroke="rgb(255,255,255)" stroke-width="1" opacity="1" d="M 100.5 8 L 106 8.5 L 100.5 9 L 100.5 8 Z " /><path fill="rgb(255,255,255)" stroke="rgb(255,255,255)" stroke-width="1" opacity="1" d="M 119.5 8 L 122 8.5 L 119.5 9 L 119.5 8 Z " /><path fill="rgb(255,255,255)" stroke="rgb(255,255,255)" stroke-width="1" opacity="1" d="M 146.5 8 L 147.5 12 L 148 10 L 153.5 11 L 154.5 8 L 155 11.5 Q 152.8 12.8 154 17.5 L 154.5 21 Q 152.3 20.3 153 22.5 L 155 22.5 L 153 25.5 L 152 35.5 L 150.5 39 L 149.5 36 L 143 37 L 142.5 35 L 141.5 39 L 141 35.5 L 146.5 8 Z M 153 11 L 152 18 L 153 18 L 153 11 Z M 147 12 L 145 19 L 146 24 L 147 19 L 147 12 Z M 145 24 L 143 30 L 144 35 L 145 30 L 145 24 Z M 152 25 L 151 30 L 152 30 L 152 25 Z M 151 30 L 150 36 L 151 36 L 151 30 Z " /><path fill="rgb(255,255,255)" stroke="rgb(255,255,255)" stroke-width="1" opacity="1" d="M 148.5 8 L 153 8.5 L 148.5 9 L 148.5 8 Z " /><path fill="rgb(255,255,255)" stroke="rgb(255,255,255)" stroke-width="1" opacity="1" d="M 67.5 9 L 69.5 12 L 67.5 9 Z " /><path fill="rgb(255,255,255)" stroke="rgb(255,255,255)" stroke-width="1" opacity="1" d="M 54.5 14 L 60 14.5 L 54.5 15 L 54.5 14 Z " /><path fill="rgb(255,255,255)" stroke="rgb(255,255,255)" stroke-width="1" opacity="1" d="M 5.5 16 L 7.5 16 L 9.5 17 L 11 16.5 L 10 20.5 L 11.5 24 L 12.5 20 L 13 23.5 L 9.5 39 L 8.5 36 L 3 37 L 2.5 35 L 1.5 39 L 1 35.5 L 2 34.5 L 4 17.5 L 5.5 16 Z M 6 17 L 5 23 L 6 23 L 6 17 Z M 9 17 L 8 21 L 9 21 L 9 17 Z M 5 23 L 4 29 L 5 29 L 5 23 Z M 11 24 L 10 30 L 11 30 L 11 24 Z M 4 29 L 3 35 L 4 35 L 4 29 Z M 10 30 L 9 36 L 10 36 L 10 30 Z " /><path fill="rgb(255,255,255)" stroke="rgb(255,255,255)" stroke-width="1" opacity="1" d="M 13.5 16 L 14 18.5 L 13 18.5 L 13.5 16 Z " /><path fill="rgb(255,255,255)" stroke="rgb(255,255,255)" stroke-width="1" opacity="1" d="M 91.5 30 L 92 31.5 Q 90.8 34.3 89.5 32 L 88 31.5 L 89.5 31 L 91 31.5 L 91.5 30 Z " /><path fill="rgb(255,255,255)" stroke="rgb(255,255,255)" stroke-width="1" opacity="1" d="M 122.5 33 L 126 33.5 L 122.5 34 L 122.5 33 Z " /><path fill="rgb(255,255,255)" stroke="rgb(255,255,255)" stroke-width="1" opacity="1" d="M 3.5 38 L 8 38.5 L 3.5 39 L 3.5 38 Z " /><path fill="rgb(255,255,255)" stroke="rgb(255,255,255)" stroke-width="1" opacity="1" d="M 26.5 38 L 31 38.5 L 26.5 39 L 26.5 38 Z " /><path fill="rgb(255,255,255)" stroke="rgb(255,255,255)" stroke-width="1" opacity="1" d="M 76.5 38 L 77.5 40 L 76.5 38 Z " /><path fill="rgb(255,255,255)" stroke="rgb(255,255,255)" stroke-width="1" opacity="1" d="M 95.5 38 L 101 38.5 L 95.5 39 L 95.5 38 Z " /><path fill="rgb(255,255,255)" stroke="rgb(255,255,255)" stroke-width="1" opacity="1" d="M 143.5 38 L 149 38.5 L 143.5 39 L 143.5 38 Z " /><path fill="rgb(255,255,255)" stroke="rgb(255,255,255)" stroke-width="1" opacity="1" d="M 190.5 38 L 197 38.5 L 190.5 39 L 190.5 38 Z " /><path fill="rgb(255,255,255)" stroke="rgb(255,255,255)" stroke-width="1" opacity="1" d="M 49.5 39 L 59 39.5 L 49.5 40 L 49.5 39 Z " /><path fill="rgb(255,255,255)" stroke="rgb(255,255,255)" stroke-width="1" opacity="0.09411764705882353" d="M 196.5 0 L 197 2.5 L 196 2.5 L 196.5 0 Z " /><path fill="rgb(255,255,255)" stroke="rgb(255,255,255)" stroke-width="1" opacity="0.09411764705882353" d="M 16.5 3 L 17.5 5 L 16.5 3 Z " /><path fill="rgb(255,255,255)" stroke="rgb(255,255,255)" stroke-width="1" opacity="0.09411764705882353" d="M 21.5 7 L 24 7.5 L 21.5 8 L 21.5 7 Z " /><path fill="rgb(255,255,255)" stroke="rgb(255,255,255)" stroke-width="1" opacity="0.09411764705882353" d="M 115.5 9 L 112.5 13 L 115.5 9 Z " /><path fill="rgb(255,255,255)" stroke="rgb(255,255,255)" stroke-width="1" opacity="0.09411764705882353" d="M 26.5 10 L 27 14.5 L 26 14.5 L 26.5 10 Z " /><path fill="rgb(255,255,255)" stroke="rgb(255,255,255)" stroke-width="1" opacity="0.09411764705882353" d="M 197.5 10 L 198 12.5 L 197 12.5 L 197.5 10 Z " /><path fill="rgb(255,255,255)" stroke="rgb(255,255,255)" stroke-width="1" opacity="0.09411764705882353" d="M 38.5 11 L 39 13.5 L 38 13.5 L 38.5 11 Z " /><path fill="rgb(255,255,255)" stroke="rgb(255,255,255)" stroke-width="1" opacity="0.09411764705882353" d="M 56.5 15 L 59 15.5 L 56.5 16 L 56.5 15 Z " /><path fill="rgb(255,255,255)" stroke="rgb(255,255,255)" stroke-width="1" opacity="0.09411764705882353" d="M 11 16 L 13 16.5 L 11 17.5 L 11 16 Z " /><path fill="rgb(255,255,255)" stroke="rgb(255,255,255)" stroke-width="1" opacity="0.09411764705882353" d="M 73.5 17 L 74 23.5 L 73 23.5 L 73.5 17 Z " /><path fill="rgb(255,255,255)" stroke="rgb(255,255,255)" stroke-width="1" opacity="0.09411764705882353" d="M 61.5 18 L 62 22.5 L 61 22.5 L 61.5 18 Z " /><path fill="rgb(255,255,255)" stroke="rgb(255,255,255)" stroke-width="1" opacity="0.09411764705882353" d="M 160.5 20 L 164 20.5 L 160.5 21 L 160.5 20 Z " /><path fill="rgb(255,255,255)" stroke="rgb(255,255,255)" stroke-width="1" opacity="0.09411764705882353" d="M 198.5 20 L 199 22.5 L 198 22.5 L 198.5 20 Z " /><path fill="rgb(255,255,255)" stroke="rgb(255,255,255)" stroke-width="1" opacity="0.09411764705882353" d="M 120.5 30 L 121.5 32 L 120.5 30 Z " /><path fill="rgb(255,255,255)" stroke="rgb(255,255,255)" stroke-width="1" opacity="0.09411764705882353" d="M 199.5 30 L 200 32.5 L 199 32.5 L 199.5 30 Z " /><path fill="rgb(255,255,255)" stroke="rgb(255,255,255)" stroke-width="1" opacity="0.09411764705882353" d="M 53.5 31 L 57 31.5 L 53.5 32 L 53.5 31 Z " /><path fill="rgb(255,255,255)" stroke="rgb(255,255,255)" stroke-width="1" opacity="0.09411764705882353" d="M 175.5 31 L 185.5 31 L 187 32.5 L 185.5 32 L 175.5 32 L 174.5 33 L 175.5 31 Z " /><path fill="rgb(255,255,255)" stroke="rgb(255,255,255)" stroke-width="1" opacity="0.09411764705882353" d="M 68.5 35 L 67.5 37 L 68.5 35 Z " /><path fill="rgb(255,255,255)" stroke="rgb(255,255,255)" stroke-width="1" opacity="0.09411764705882353" d="M 136.5 35 L 133.5 39 L 136.5 35 Z " /><path fill="rgb(255,255,255)" stroke="rgb(255,255,255)" stroke-width="1" opacity="0.09411764705882353" d="M 22.5 37 L 23 39.5 L 22 39.5 L 22.5 37 Z " /><path fill="rgb(255,255,255)" stroke="rgb(255,255,255)" stroke-width="1" opacity="0.011764705882352941" d="M 198.5 2 L 199 6.5 L 198 6.5 L 198.5 2 Z " /><path fill="rgb(255,255,255)" stroke="rgb(255,255,255)" stroke-width="1" opacity="0.011764705882352941" d="M 3.5 4 L 4 7.5 L 3 7.5 L 3.5 4 Z " /><path fill="rgb(255,255,255)" stroke="rgb(255,255,255)" stroke-width="1" opacity="0.011764705882352941" d="M 54.5 4 L 63 4.5 L 54.5 5 L 54.5 4 Z " /><path fill="rgb(255,255,255)" stroke="rgb(255,255,255)" stroke-width="1" opacity="0.011764705882352941" d="M 123.5 4 L 132 4.5 L 123.5 5 L 123.5 4 Z " /><path fill="rgb(255,255,255)" stroke="rgb(255,255,255)" stroke-width="1" opacity="0.011764705882352941" d="M 50.5 5 L 53 6.5 L 51.5 6 L 50.5 5 Z " /><path fill="rgb(255,255,255)" stroke="rgb(255,255,255)" stroke-width="1" opacity="0.011764705882352941" d="M 78.5 5 L 90 5.5 L 78.5 6 L 78.5 5 Z " /><path fill="rgb(255,255,255)" stroke="rgb(255,255,255)" stroke-width="1" opacity="0.011764705882352941" d="M 98.5 5 L 109 5.5 L 98.5 6 L 98.5 5 Z " /><path fill="rgb(255,255,255)" stroke="rgb(255,255,255)" stroke-width="1" opacity="0.011764705882352941" d="M 119.5 5 L 122 6.5 L 120.5 6 L 119.5 5 Z " /><path fill="rgb(255,255,255)" stroke="rgb(255,255,255)" stroke-width="1" opacity="0.011764705882352941" d="M 146.5 5 L 156 5.5 L 146.5 6 L 146.5 5 Z " /><path fill="rgb(255,255,255)" stroke="rgb(255,255,255)" stroke-width="1" opacity="0.011764705882352941" d="M 162.5 5 L 163.5 7 L 162.5 5 Z " /><path fill="rgb(255,255,255)" stroke="rgb(255,255,255)" stroke-width="1" opacity="0.011764705882352941" d="M 171.5 5 L 172.5 7 L 171.5 5 Z " /><path fill="rgb(255,255,255)" stroke="rgb(255,255,255)" stroke-width="1" opacity="0.011764705882352941" d="M 48.5 6 L 49.5 8 L 48.5 6 Z " /><path fill="rgb(255,255,255)" stroke="rgb(255,255,255)" stroke-width="1" opacity="0.011764705882352941" d="M 67.5 6 L 70 9.5 L 69 9.5 L 67.5 7 L 66 7.5 L 67.5 6 Z " /><path fill="rgb(255,255,255)" stroke="rgb(255,255,255)" stroke-width="1" opacity="0.011764705882352941" d="M 117.5 6 L 118.5 8 L 117.5 6 Z " /><path fill="rgb(255,255,255)" stroke="rgb(255,255,255)" stroke-width="1" opacity="0.011764705882352941" d="M 40.5 7 L 41.5 12 L 46 8.5 L 41 13.5 L 41.5 15 L 40 11.5 L 40.5 7 Z " /><path fill="rgb(255,255,255)" stroke="rgb(255,255,255)" stroke-width="1" opacity="0.011764705882352941" d="M 137.5 7 L 139.5 10 L 137.5 7 Z " /><path fill="rgb(255,255,255)" stroke="rgb(255,255,255)" stroke-width="1" opacity="0.011764705882352941" d="M 91.5 8 L 92 10.5 L 91 10.5 L 91.5 8 Z " /><path fill="rgb(255,255,255)" stroke="rgb(255,255,255)" stroke-width="1" opacity="0.011764705882352941" d="M 19.5 9 L 21 9.5 L 18.5 11 L 19.5 9 Z " /><path fill="rgb(255,255,255)" stroke="rgb(255,255,255)" stroke-width="1" opacity="0.011764705882352941" d="M 23.5 9 Q 25.8 8.3 25 10.5 L 23.5 9 Z " /><path fill="rgb(255,255,255)" stroke="rgb(255,255,255)" stroke-width="1" opacity="0.011764705882352941" d="M 113.5 9 L 111 12.5 L 111.5 14 L 110 10.5 Q 111.8 12.1 113.5 9 Z " /><path fill="rgb(255,255,255)" stroke="rgb(255,255,255)" stroke-width="1" opacity="0.011764705882352941" d="M 183.5 9 L 185 10.5 L 185 22.5 L 183.5 22 L 180 21.5 L 184 21 L 184 14.5 L 183 13.5 L 184 10.5 L 183.5 9 Z " /><path fill="rgb(255,255,255)" stroke="rgb(255,255,255)" stroke-width="1" opacity="0.011764705882352941" d="M 75.5 10 L 77 13.5 L 75 12.5 L 75.5 10 Z " /><path fill="rgb(255,255,255)" stroke="rgb(255,255,255)" stroke-width="1" opacity="0.011764705882352941" d="M 166.5 10 Q 170.8 11.8 168 13.5 L 169 15.5 L 167 14.5 L 166.5 10 Z " /><path fill="rgb(255,255,255)" stroke="rgb(255,255,255)" stroke-width="1" opacity="0.011764705882352941" d="M 94.5 12 L 95 14.5 L 94 14.5 L 94.5 12 Z " /><path fill="rgb(255,255,255)" stroke="rgb(255,255,255)" stroke-width="1" opacity="0.011764705882352941" d="M 141.5 12 Q 144.5 11.1 143 15.5 L 143.5 17 L 141.5 12 Z " /><path fill="rgb(255,255,255)" stroke="rgb(255,255,255)" stroke-width="1" opacity="0.011764705882352941" d="M 199.5 12 L 200 16.5 L 199 16.5 L 199.5 12 Z " /><path fill="rgb(255,255,255)" stroke="rgb(255,255,255)" stroke-width="1" opacity="0.011764705882352941" d="M 24.5 14 L 26 18.5 L 24 17.5 L 24.5 14 Z " /><path fill="rgb(255,255,255)" stroke="rgb(255,255,255)" stroke-width="1" opacity="0.011764705882352941" d="M 74.5 14 L 75 16.5 L 74 16.5 L 74.5 14 Z " /><path fill="rgb(255,255,255)" stroke="rgb(255,255,255)" stroke-width="1" opacity="0.011764705882352941" d="M 39.5 15 L 40.5 17 L 39.5 15 Z " /><path fill="rgb(255,255,255)" stroke="rgb(255,255,255)" stroke-width="1" opacity="0.011764705882352941" d="M 124.5 16 L 123.5 18 L 124.5 16 Z " /><path fill="rgb(255,255,255)" stroke="rgb(255,255,255)" stroke-width="1" opacity="0.011764705882352941" d="M 128.5 16 L 129 20.5 L 127.5 20 L 122.5 21 L 122 19 L 128 19 L 128.5 16 Z " /><path fill="rgb(255,255,255)" stroke="rgb(255,255,255)" stroke-width="1" opacity="0.011764705882352941" d="M 1.5 17 L 2 19.5 L 1 19.5 L 1.5 17 Z " /><path fill="rgb(255,255,255)" stroke="rgb(255,255,255)" stroke-width="1" opacity="0.011764705882352941" d="M 93.5 17 L 94 19.5 L 93 19.5 L 93.5 17 Z " /><path fill="rgb(255,255,255)" stroke="rgb(255,255,255)" stroke-width="1" opacity="0.011764705882352941" d="M 141.5 17 L 142 19.5 L 141 19.5 L 141.5 17 Z " /><path fill="rgb(255,255,255)" stroke="rgb(255,255,255)" stroke-width="1" opacity="0.011764705882352941" d="M 180.5 17 L 181.5 19 L 180.5 17 Z " /><path fill="rgb(255,255,255)" stroke="rgb(255,255,255)" stroke-width="1" opacity="0.011764705882352941" d="M 89.5 19 L 90 21.5 L 89 21.5 L 89.5 19 Z " /><path fill="rgb(255,255,255)" stroke="rgb(255,255,255)" stroke-width="1" opacity="0.011764705882352941" d="M 164.5 20 L 165 21.5 L 163.5 24 L 163 22.5 L 164.5 20 Z " /><path fill="rgb(255,255,255)" stroke="rgb(255,255,255)" stroke-width="1" opacity="0.011764705882352941" d="M 15.5 21 L 16 23.5 L 15 23.5 L 15.5 21 Z " /><path fill="rgb(255,255,255)" stroke="rgb(255,255,255)" stroke-width="1" opacity="0.011764705882352941" d="M 157.5 21 L 160 22.5 L 157 23 L 157.5 21 Z " /><path fill="rgb(255,255,255)" stroke="rgb(255,255,255)" stroke-width="1" opacity="0.011764705882352941" d="M 0.5 23 L 1 25.5 L 0 25.5 L 0.5 23 Z " /><path fill="rgb(255,255,255)" stroke="rgb(255,255,255)" stroke-width="1" opacity="0.011764705882352941" d="M 52.5 23 L 53 29.5 L 52 29.5 L 52.5 23 Z " /><path fill="rgb(255,255,255)" stroke="rgb(255,255,255)" stroke-width="1" opacity="0.011764705882352941" d="M 59.5 23 L 61 26.5 L 59 25.5 L 59.5 23 Z " /><path fill="rgb(255,255,255)" stroke="rgb(255,255,255)" stroke-width="1" opacity="0.011764705882352941" d="M 87.5 23 Q 90 24.2 89 28 L 91.5 27 L 91 28.5 L 90.5 30 L 88 29 L 87.5 23 Z " /><path fill="rgb(255,255,255)" stroke="rgb(255,255,255)" stroke-width="1" opacity="0.011764705882352941" d="M 155.5 23 L 156.5 25 L 155.5 23 Z " /><path fill="rgb(255,255,255)" stroke="rgb(255,255,255)" stroke-width="1" opacity="0.011764705882352941" d="M 162.5 25 L 163.5 27 L 162.5 25 Z " /><path fill="rgb(255,255,255)" stroke="rgb(255,255,255)" stroke-width="1" opacity="0.011764705882352941" d="M 22.5 26 L 23 29.5 L 22 29.5 L 22.5 26 Z " /><path fill="rgb(255,255,255)" stroke="rgb(255,255,255)" stroke-width="1" opacity="0.011764705882352941" d="M 121.5 26 L 122.5 27 L 139.5 27 L 141 26.5 L 133.5 30 L 133.5 28 L 122.5 28 L 122 30 L 125 30.5 L 122.5 31 Q 119.8 29.8 121.5 26 Z " /><path fill="rgb(255,255,255)" stroke="rgb(255,255,255)" stroke-width="1" opacity="0.011764705882352941" d="M 14.5 27 L 15 29.5 L 14 29.5 L 14.5 27 Z " /><path fill="rgb(255,255,255)" stroke="rgb(255,255,255)" stroke-width="1" opacity="0.011764705882352941" d="M 37.5 28 L 38 31.5 L 37 31.5 L 37.5 28 Z " /><path fill="rgb(255,255,255)" stroke="rgb(255,255,255)" stroke-width="1" opacity="0.011764705882352941" d="M 58.5 28 L 58.5 31 Q 55.5 29.5 58.5 28 Z " /><path fill="rgb(255,255,255)" stroke="rgb(255,255,255)" stroke-width="1" opacity="0.011764705882352941" d="M 13.5 33 L 14 35.5 L 13 35.5 L 13.5 33 Z " /><path fill="rgb(255,255,255)" stroke="rgb(255,255,255)" stroke-width="1" opacity="0.011764705882352941" d="M 21.5 33 L 22 35.5 L 21 35.5 L 21.5 33 Z " /><path fill="rgb(255,255,255)" stroke="rgb(255,255,255)" stroke-width="1" opacity="0.011764705882352941" d="M 106 33 L 108 33.5 L 106 34.5 L 106 33 Z " /><path fill="rgb(255,255,255)" stroke="rgb(255,255,255)" stroke-width="1" opacity="0.011764705882352941" d="M 154.5 33 L 155 35.5 L 154 35.5 L 154.5 33 Z " /><path fill="rgb(255,255,255)" stroke="rgb(255,255,255)" stroke-width="1" opacity="0.011764705882352941" d="M 175.5 33 L 185 33.5 L 175.5 34 L 175.5 33 Z " /><path fill="rgb(255,255,255)" stroke="rgb(255,255,255)" stroke-width="1" opacity="0.011764705882352941" d="M 36.5 34 L 37 36.5 L 36 36.5 L 36.5 34 Z " /><path fill="rgb(255,255,255)" stroke="rgb(255,255,255)" stroke-width="1" opacity="0.011764705882352941" d="M 138.5 34 L 139 37.5 L 138 37.5 L 138.5 34 Z " /><path fill="rgb(255,255,255)" stroke="rgb(255,255,255)" stroke-width="1" opacity="0.011764705882352941" d="M 91.5 35 L 92.5 37 L 91.5 35 Z " /><path fill="rgb(255,255,255)" stroke="rgb(255,255,255)" stroke-width="1" opacity="0.011764705882352941" d="M 89.5 36 L 91 39.5 L 90 39.5 L 89.5 36 Z " /><path fill="rgb(255,255,255)" stroke="rgb(255,255,255)" stroke-width="1" opacity="0.011764705882352941" d="M 109.5 36 L 112.5 40 L 109.5 36 Z " /><path fill="rgb(255,255,255)" stroke="rgb(255,255,255)" stroke-width="1" opacity="0.011764705882352941" d="M 157.5 36 L 158.5 38 L 157.5 36 Z " /><path fill="rgb(255,255,255)" stroke="rgb(255,255,255)" stroke-width="1" opacity="0.011764705882352941" d="M 136.5 37 L 135.5 39 L 136.5 37 Z " /><path fill="rgb(255,255,255)" stroke="rgb(255,255,255)" stroke-width="1" opacity="0.011764705882352941" d="M 42.5 38 Q 44.3 41.1 46 39.5 L 44.5 41 L 42.5 38 Z " /><path fill="rgb(255,255,255)" stroke="rgb(255,255,255)" stroke-width="1" opacity="0.011764705882352941" d="M 66.5 38 L 65.5 40 L 66.5 38 Z " /><path fill="rgb(255,255,255)" stroke="rgb(255,255,255)" stroke-width="1" opacity="0.011764705882352941" d="M 87.5 38 L 88 39.5 L 86 40.5 L 87.5 38 Z " /><path fill="rgb(255,255,255)" stroke="rgb(255,255,255)" stroke-width="1" opacity="0.43137254901960786" d="M 20.5 1 L 18.5 4 L 20.5 1 Z " /><path fill="rgb(255,255,255)" stroke="rgb(255,255,255)" stroke-width="1" opacity="0.43137254901960786" d="M 35.5 1 L 36.5 3 L 35.5 1 Z " /><path fill="rgb(255,255,255)" stroke="rgb(255,255,255)" stroke-width="1" opacity="0.43137254901960786" d="M 196.5 3 L 197 5.5 L 196 5.5 L 196.5 3 Z " /><path fill="rgb(255,255,255)" stroke="rgb(255,255,255)" stroke-width="1" opacity="0.43137254901960786" d="M 54.5 6 L 62 6.5 L 54.5 7 L 54.5 6 Z " /><path fill="rgb(255,255,255)" stroke="rgb(255,255,255)" stroke-width="1" opacity="0.43137254901960786" d="M 123.5 6 L 131 6.5 L 123.5 7 L 123.5 6 Z " /><path fill="rgb(255,255,255)" stroke="rgb(255,255,255)" stroke-width="1" opacity="0.43137254901960786" d="M 165.5 6 L 166.5 8 L 165.5 6 Z " /><path fill="rgb(255,255,255)" stroke="rgb(255,255,255)" stroke-width="1" opacity="0.43137254901960786" d="M 78.5 7 L 89.5 7 L 90 9.5 L 89 9.5 L 88.5 8 L 78.5 8 L 78.5 7 Z " /><path fill="rgb(255,255,255)" stroke="rgb(255,255,255)" stroke-width="1" opacity="0.43137254901960786" d="M 97.5 7 L 109 7.5 L 97.5 8 L 97.5 7 Z " /><path fill="rgb(255,255,255)" stroke="rgb(255,255,255)" stroke-width="1" opacity="0.43137254901960786" d="M 146.5 7 L 156 7.5 L 146.5 8 L 145.5 9 L 146.5 7 Z " /><path fill="rgb(255,255,255)" stroke="rgb(255,255,255)" stroke-width="1" opacity="0.43137254901960786" d="M 18.5 8 L 16.5 11 L 18.5 8 Z " /><path fill="rgb(255,255,255)" stroke="rgb(255,255,255)" stroke-width="1" opacity="0.43137254901960786" d="M 38.5 8 L 39 10.5 L 38 10.5 L 38.5 8 Z " /><path fill="rgb(255,255,255)" stroke="rgb(255,255,255)" stroke-width="1" opacity="0.43137254901960786" d="M 67.5 8 L 68.5 10 L 67.5 8 Z " /><path fill="rgb(255,255,255)" stroke="rgb(255,255,255)" stroke-width="1" opacity="0.43137254901960786" d="M 137.5 9 L 138.5 11 L 137.5 9 Z " /><path fill="rgb(255,255,255)" stroke="rgb(255,255,255)" stroke-width="1" opacity="0.43137254901960786" d="M 186.5 9 L 187 22.5 Q 185.3 25.8 178.5 24 L 178.5 23 L 186 23 L 186.5 9 Z " /><path fill="rgb(255,255,255)" stroke="rgb(255,255,255)" stroke-width="1" opacity="0.43137254901960786" d="M 45.5 10 L 43.5 13 L 45.5 10 Z " /><path fill="rgb(255,255,255)" stroke="rgb(255,255,255)" stroke-width="1" opacity="0.43137254901960786" d="M 159.5 10 L 158.5 12 L 159.5 10 Z " /><path fill="rgb(255,255,255)" stroke="rgb(255,255,255)" stroke-width="1" opacity="0.43137254901960786" d="M 197.5 13 L 198 15.5 L 197 15.5 L 197.5 13 Z " /><path fill="rgb(255,255,255)" stroke="rgb(255,255,255)" stroke-width="1" opacity="0.43137254901960786" d="M 154.5 15 L 156 17.5 L 154 18 L 154.5 15 Z " /><path fill="rgb(255,255,255)" stroke="rgb(255,255,255)" stroke-width="1" opacity="0.43137254901960786" d="M 53.5 16 L 52.5 18 L 53.5 16 Z " /><path fill="rgb(255,255,255)" stroke="rgb(255,255,255)" stroke-width="1" opacity="0.43137254901960786" d="M 130.5 17 L 131 19.5 L 130 19.5 L 130.5 17 Z " /><path fill="rgb(255,255,255)" stroke="rgb(255,255,255)" stroke-width="1" opacity="0.43137254901960786" d="M 143.5 18 L 144 20.5 L 143 20.5 L 143.5 18 Z " /><path fill="rgb(255,255,255)" stroke="rgb(255,255,255)" stroke-width="1" opacity="0.43137254901960786" d="M 120.5 20 L 121.5 21 L 130 21.5 L 121.5 22 L 120.5 20 Z " /><path fill="rgb(255,255,255)" stroke="rgb(255,255,255)" stroke-width="1" opacity="0.43137254901960786" d="M 13.5 21 L 14 23.5 L 13 23.5 L 13.5 21 Z " /><path fill="rgb(255,255,255)" stroke="rgb(255,255,255)" stroke-width="1" opacity="0.43137254901960786" d="M 106.5 21 L 107 23.5 L 106 23.5 L 106.5 21 Z " /><path fill="rgb(255,255,255)" stroke="rgb(255,255,255)" stroke-width="1" opacity="0.43137254901960786" d="M 156.5 21 L 155.5 23 L 156.5 21 Z " /><path fill="rgb(255,255,255)" stroke="rgb(255,255,255)" stroke-width="1" opacity="0.43137254901960786" d="M 108.5 23 L 109 30.5 L 108 30.5 L 108.5 23 Z " /><path fill="rgb(255,255,255)" stroke="rgb(255,255,255)" stroke-width="1" opacity="0.43137254901960786" d="M 198.5 23 L 199 25.5 L 198 25.5 L 198.5 23 Z " /><path fill="rgb(255,255,255)" stroke="rgb(255,255,255)" stroke-width="1" opacity="0.43137254901960786" d="M 50.5 24 L 51 29.5 L 50 29.5 L 50.5 24 Z " /><path fill="rgb(255,255,255)" stroke="rgb(255,255,255)" stroke-width="1" opacity="0.43137254901960786" d="M 86.5 25 L 87 28.5 L 86 28.5 L 86.5 25 Z " /><path fill="rgb(255,255,255)" stroke="rgb(255,255,255)" stroke-width="1" opacity="0.43137254901960786" d="M 120.5 25 L 140 25.5 L 120 26 L 119.5 29 L 119 26.5 L 120.5 25 Z " /><path fill="rgb(255,255,255)" stroke="rgb(255,255,255)" stroke-width="1" opacity="0.43137254901960786" d="M 12.5 27 L 13 29.5 L 12 29.5 L 12.5 27 Z " /><path fill="rgb(255,255,255)" stroke="rgb(255,255,255)" stroke-width="1" opacity="0.43137254901960786" d="M 35.5 28 L 36 30.5 L 35 30.5 L 35.5 28 Z " /><path fill="rgb(255,255,255)" stroke="rgb(255,255,255)" stroke-width="1" opacity="0.43137254901960786" d="M 92.5 28 L 91.5 30 L 92.5 28 Z " /><path fill="rgb(255,255,255)" stroke="rgb(255,255,255)" stroke-width="1" opacity="0.43137254901960786" d="M 128.5 30 L 127.5 32 L 128.5 30 Z " /><path fill="rgb(255,255,255)" stroke="rgb(255,255,255)" stroke-width="1" opacity="0.43137254901960786" d="M 11.5 33 L 12 35.5 L 11 35.5 L 11.5 33 Z " /><path fill="rgb(255,255,255)" stroke="rgb(255,255,255)" stroke-width="1" opacity="0.43137254901960786" d="M 199.5 33 L 200 36.5 L 199 36.5 L 199.5 33 Z " /><path fill="rgb(255,255,255)" stroke="rgb(255,255,255)" stroke-width="1" opacity="0.43137254901960786" d="M 34.5 34 L 35 36.5 L 34 36.5 L 34.5 34 Z " /><path fill="rgb(255,255,255)" stroke="rgb(255,255,255)" stroke-width="1" opacity="0.43137254901960786" d="M 41.5 35 L 44.5 39 L 41.5 35 Z " /><path fill="rgb(255,255,255)" stroke="rgb(255,255,255)" stroke-width="1" opacity="0.43137254901960786" d="M 140.5 35 L 141 37.5 L 140 37.5 L 140.5 35 Z " /><path fill="rgb(255,255,255)" stroke="rgb(255,255,255)" stroke-width="1" opacity="0.43137254901960786" d="M 111.5 36 L 112.5 38 L 111.5 36 Z " /><path fill="rgb(255,255,255)" stroke="rgb(255,255,255)" stroke-width="1" opacity="0.43137254901960786" d="M 75.5 38 L 76.5 40 L 75.5 38 Z " /><path fill="rgb(255,255,255)" stroke="rgb(255,255,255)" stroke-width="1" opacity="0.43137254901960786" d="M 86.5 38 L 85.5 40 L 86.5 38 Z " /></svg>