<svg xmlns="http://www.w3.org/2000/svg" xml:space="preserve" width="222.225px" height="51px" x="0px" y="0px" viewBox="0 0 222.225 51"><g fill="#FFF"><g fill-rule="evenodd" clip-rule="evenodd"><path d="M4.235 16.13zm48.22-12.77a5.119 5.119 0 0 0-.438-.557l13.205 18.906A6255.604 6255.604 0 0 1 52.455 3.36zm-10.23.169c.007.21.015.42.015.63V3.058c-.019.14-.023.298-.015.471zM140.124 48.06l-.199.583a4.175 4.175 0 0 1-.104.28l.303-.863z"/></g><path d="M180.336 2.751c-9.646.822-17.042 6.542-18.98 16.901-.814 4.353-.638 8.683-.037 13.043a8.93 8.93 0 0 1-.49-.958 14.215 14.215 0 0 1-.295-.7 6447.19 6447.19 0 0 1-2.646-6.866l-.255-.656a5396.816 5396.816 0 0 0-7.713-19.934 1.954 1.954 0 0 0-.137-.284L148.696.5l-1.209 3.114-.044.114-17.196 44.281-.21.538-.093.247-.663 1.706h9.988l.552-1.577.303-.863 8.62-24.596 9.472 27.036h9.898l-3.055-7.86-.078-.199c-.283-.745-.567-1.485-.851-2.227 2.653 3.402 5.867 5.904 9.818 7.566 6.095 2.565 12.453 2.616 18.824 2.543v.033h4.987v-6.052c0-.973-.008-1.964-.008-2.985-1.36 0-2.51.03-3.66-.007a48.012 48.012 0 0 0-1.319-.029c-3.729-.078-7.481.003-11.155-.487-5.439-.726-9.361-3.84-10.61-9.342-.623-2.75-.76-5.753-.424-8.558.987-8.27 8.182-12.884 17.933-11.727v10.275h9.343V10.48h22.187V2.751h-39.71zM148.744 23.46l-.004-.003c.008-.015.012-.03.019-.044l-.015.047z"/><path d="M200.745 19.568h9.384V50.5h-9.384zM136.741 14.084c-.586-4.423-2.65-7.578-5.941-9.56-1.275-.767-2.731-1.36-4.359-1.78-3.026-.782-6.085-.984-9.155-.984h-13.205v2.919c-.019.741-.007 1.481 0 2.226v4.117h.936c.214.055.468.077.767.07 1.946-.037 3.896-.07 5.845-.07 1.304 0 2.606.015 3.91.051 2.801.081 5.646.115 8.385.634 2.396.45 3.615 2.499 3.626 4.928.012 2.156-1.061 3.833-3.343 4.529-1.492.457-3.129.604-4.702.604-10.677.015-21.35-.044-32.026-.081-.582-.004-1.161 0-1.732 0V10.771h13.551V1.76H73.716v1.497a4.112 4.112 0 0 0-.03.619c.011.874.022 1.744.03 2.617v4.279h.026c.011 3.715.003 7.434.007 11.152.007 3.77.004 7.544.004 11.863-.697-.929-1.065-1.389-1.404-1.872-2.374-3.402-4.75-6.804-7.127-10.205L52.017 2.803l-.011-.011-.719-1.032h-9.048v2.4c.029 1.238.007 2.502 0 3.929v.45c-2.44-2.123-4.946-3.734-7.511-4.847-.036-.015-.073-.029-.106-.044a30.718 30.718 0 0 0-.538-.225 21.99 21.99 0 0 0-.903-.335 21.402 21.402 0 0 0-2.679-.767c-.169-.041-.343-.074-.516-.107a10.371 10.371 0 0 0-.579-.103c-.155-.025-.306-.051-.46-.073a11.014 11.014 0 0 0-.524-.07 26.909 26.909 0 0 0-1.503-.129 22.871 22.871 0 0 0-2.363.008c-.14.003-.28.015-.417.025a24.489 24.489 0 0 0-3.91.612c-.188.044-.376.089-.564.141a32.37 32.37 0 0 0-1.128.32 13.84 13.84 0 0 0-.567.181 28.56 28.56 0 0 0-1.139.398 23.393 23.393 0 0 0-8.389 6.015c-.088.1-.177.199-.261.298a3.4 3.4 0 0 0-.122.14c-.125.147-.25.299-.376.45l-.144.181a24.019 24.019 0 0 0-1.703 2.436c-.077.125-.155.25-.229.379a22.3 22.3 0 0 0-.612 1.106 24.156 24.156 0 0 0-.763 1.603c-.085.195-.169.394-.251.593a24.47 24.47 0 0 0-.951 2.866 22.081 22.081 0 0 0-.317 1.331 18.17 18.17 0 0 0-.176.94c-.026.14-.048.28-.07.42a24.862 24.862 0 0 0-.268 2.797c-.008.158-.011.317-.015.475-.004.125-.007.247-.007.373v.103c.003 1.202.085 2.403.24 3.59l.044.32c1.574 10.44 9.516 18.68 19.556 20.28.022.004.044.008.07.011 4.802.631 9.789-.188 14.111-2.376a.168.168 0 0 1 .037-.02c3.899-2.078 7.165-5.267 9.413-9.157h6.018V18.654l2.797 3.999 16.367 23.374.339.489 1.666 2.403c.088.125.178.243.265.354l.859 1.228h25.29v-9.25H85.76V30.735h18.401v.339h-.081v19.363h9.413V31.074c2.487 0 4.695.022 6.898-.004 3.683-.044 7.234-.774 10.353-2.775 5.19-3.331 6.771-8.321 5.997-14.211zM33.052 39.658c-7.504 4.879-17.417 1.477-20.469-6.918-1.662-4.57-1.64-9.166.24-13.662 2.495-5.963 7.64-8.918 14.303-8.344 5.893.508 10.478 4.721 11.948 11.071.343 1.485.45 3.025.597 4.061-.24 5.919-1.884 10.71-6.619 13.792z"/><path d="M30.052 26.405c-.037 2.462-2.186 4.481-4.699 4.415-2.499-.066-4.485-2.17-4.43-4.695.055-2.502 2.16-4.478 4.703-4.415 2.505.062 4.462 2.141 4.426 4.695z"/></g></svg>