<svg xmlns="http://www.w3.org/2000/svg" xml:space="preserve" stroke-miterlimit="10" style="fill-rule:nonzero;clip-rule:evenodd;stroke-linecap:round;stroke-linejoin:round" viewBox="0 0 445.91 100"><g fill="#fefffe" fill-rule="evenodd"><path d="M186.093.5c-.159 15.493-7.136 26.842-20.929 34.046-5.249 2.394-10.751 3.573-16.507 3.538 12.366-4.607 22.437-12.222 30.214-22.845A57.054 57.054 0 0 0 186.093.5Z" opacity="0.899"/><path d="M34.58 26.44c16.664-.098 28.7 7.272 36.11 22.108 6.605 19.882 1.152 35.456-16.36 46.721-12.248 5.922-24.334 5.627-36.257-.884C4.15 85.161-1.5 72.24 1.123 55.622 3.942 43.646 10.87 34.95 21.905 29.535 26 27.804 30.226 26.772 34.58 26.44Zm2.063 12.38c10.472.6 17.99 5.612 22.55 15.034 3.874 11.76.976 21.438-8.695 29.035-8.66 5.284-17.405 5.48-26.235.59-10.218-7.269-13.51-16.947-9.875-29.036 4.3-9.655 11.719-14.863 22.255-15.623Z" opacity="0.971"/><path d="M108.568 26.735a54.579 54.579 0 0 1 3.832 3.095l43.184 40.236c.147-7.27.197-14.541.147-21.813h12.086c.049 17 0 33.997-.147 50.996l-46.869-43.332a3048.736 3048.736 0 0 0-.147 42.447h-12.086v-71.63Z" opacity="0.97"/><path d="M209.38 27.62h47.458v12.085h-35.372v17.391h17.686v12.086h-17.686v17.097h35.372v12.085H209.38V27.62Z" opacity="0.973"/><path d="M293.98 27.62h7.074c-.05 14.738 0 29.477.148 44.215 1.418 9.463 6.673 15.703 15.77 18.718 11.98 2.435 20.773-1.74 26.382-12.528a27.082 27.082 0 0 0 1.474-5.306c.147-15.033.197-30.066.147-45.1h7.37c.05 14.051 0 28.102-.148 42.153-.539 11.929-6.09 20.625-16.654 26.087-13.639 5.297-25.38 2.595-35.226-8.106-3.782-4.722-5.845-10.126-6.19-16.213a3264.13 3264.13 0 0 1-.147-43.92Z" opacity="0.944"/><path d="M403.34 27.62h39.795v7.074a914.304 914.304 0 0 0-39.795.442c-5.633 1.953-8.678 5.933-9.138 11.938.593 6.339 3.933 10.416 10.023 12.233 8.554.023 17.102.22 25.645.59 7.413 1.91 12.374 6.479 14.886 13.707 2.146 9.706-.949 17.223-9.285 22.55a19.149 19.149 0 0 1-6.191 2.063c-13.264.147-26.529.197-39.794.147V91.29c12.873.05 25.742 0 38.615-.148 6.403-1.49 9.843-5.52 10.317-12.085-.58-6.665-4.118-10.791-10.612-12.38l-23.876-.295c-8.923-1.653-14.376-6.91-16.36-15.77-1.144-9.556 2.444-16.68 10.759-21.372a33.42 33.42 0 0 1 5.011-1.62Z" opacity="0.954"/></g></svg>