<svg xmlns="http://www.w3.org/2000/svg" width="149px" height="40px" viewBox="0 0 148 40"><path d="M34.445 35.824c-.675.457-1.648.473-2.414.473h-1.894v2.48h-2.5V31.72h4.812c.242 0 .485 0 .73.02.817.05 1.528.245 1.926 1.046.106.227.247.594.247 1.188 0 .351-.036 1.277-.907 1.851m-1.703-2.164c-.172-.297-.469-.332-.781-.332h-1.824v1.379h1.633c.296 0 .437 0 .574-.035.312-.086.488-.313.488-.645a.67.67 0 0 0-.09-.367M39.363 38.777v-4.734c-.539.176-.695.246-1.633.316l.016-1.433a3.7 3.7 0 0 0 1.043-.227c.59-.226.867-.472 1.164-.683h1.738v6.761ZM51.176 38.777V36.07h-3.074v2.707h-2.52V31.72h2.535v2.57h3.059v-2.57h2.535v7.058ZM62.102 38.777l-.383-1.152h-2.676l-.383 1.152h-2.762l3.024-7.058h2.867l3.04 7.058Zm-1.739-5.082-.797 2.39H61.2ZM72.297 38.777l-1.457-2.566h-1.32v2.566H67V31.72h5.16c.938 0 1.84.07 2.414.96.121.212.364.63.364 1.278 0 .332-.07 1.273-.954 1.762-.175.105-.296.16-.66.246l1.754 2.812Zm.02-5.152c-.176-.246-.454-.297-.715-.297H69.52v1.293h1.89c.469 0 .73-.055.887-.246a.65.65 0 0 0 .14-.402c-.019-.051-.019-.207-.12-.348M85.395 38.777v-4.523l-1.668 4.523H81.78l-1.648-4.488v4.488h-2.45V31.72h3.337l1.77 4.613 1.772-4.613h3.317v7.058ZM98.145 38.234c-.364.246-.73.422-1.145.543-.402.121-1.027.246-2.016.246-1.496 0-2.398-.332-2.953-.664a3.1 3.1 0 0 1-.886-.754c-.747-.906-.782-1.832-.782-2.27 0-1.78.938-2.67 1.528-3.054.593-.402 1.46-.77 3.023-.789.313 0 .625 0 .938.035 1.859.16 2.726.891 3.214 1.59a3.77 3.77 0 0 1 .641 2.133c-.016.61-.137 2.023-1.562 2.984m-1.668-4.68a1.8 1.8 0 0 0-.676-.402c-.176-.05-.364-.105-.746-.105-.332 0-.59.035-.907.16-.832.348-1.195 1.203-1.195 2.059 0 .12.016.488.137.855.418 1.258 1.547 1.348 1.98 1.348.121 0 .575 0 .938-.176.781-.352 1.094-1.258 1.094-2.043.02-.91-.364-1.469-.625-1.695M107.84 38.777l-3.336-3.773v3.773h-2.484V31.72h2.085l3.352 3.722V31.72h2.465v7.058ZM117.707 36.68v2.097h-2.504V36.68l-3.215-4.961h2.938l1.527 2.812 1.531-2.812h2.899ZM83.242 0v28.227H64.828V0Zm0 0" style="stroke:none;fill-rule:nonzero;fill:#fff;fill-opacity:1"/><path d="M21.906 0 0 40h18.762L37.07 6.55h3.856L29.098 28.228h18.465L62.988 0ZM129.309 40h18.761L126.164 0h-18.762l5.926 10.828h-3.855L103.566 0H85.082l15.426 28.227h18.465l-5.907-10.829h3.856Zm0 0" style="stroke:none;fill-rule:nonzero;fill:#fff;fill-opacity:1"/></svg>