<svg xmlns="http://www.w3.org/2000/svg" width="1229.412" height="697" viewBox="0 0 1229.412 697"><path d="m1358.938 645.184-44.215 236.444h-205.23L1202 1191H938.279L870.82 960.63 937 918l-111 23 46 250H390.426l191.282-85.105-20.992-370.259 249.24-.664L746 513h797.312m-470.418 221.748h90.805l9.419-33.273 74.889-20.548h-193.934M529 1371l24.855 49H436l20.433-13.649-70.691-123.455L313.9 1251h257.26l50.695 120m67.353-103.435 23.395 90.308-27.921 15.359 84.709-18.391L757.612 1420H654.699l-70.272-169h135.746m225.774 12.946L976 1420h-85.808l-14.224-84.838-34.2-13.321 20.88 20.712-6.966 77.447H770.2l26.214-169H966.2m93.497 122.91 34.802-122.91h99.808l-79.78 169H989l-30.016-146.884L992 1251h56.652l-3.032 123-9.547 21.855M1431.13 1251l-43.679 34.63-15.197 23.617h-116.96l-6.294 13.057h116.16l-18.29 33.816h-107.972L1234 1370h105.131l-18.68 34.996L1336.64 1420H1129.8l78.102-169M490.5 1308l18.79 26H546l-10.464-15.536L562.2 1308Z" style="display:inline;fill:#fff;fill-opacity:1;stroke:none" transform="translate(-313.9 -513)"/></svg>
