<svg xmlns="http://www.w3.org/2000/svg" viewBox="166.8239 172.2979 99.9228 107.9547"><path d="M0 0c-.22 0-.44.005-.658.015v29.623c.218.009.438.014.658.014 8.271 0 14.975-6.638 14.975-14.826S8.271 0 0 0m0 38.441h-9.625V-.247c-2.26.115-16.927.374-28.688-11.269-14.467-14.324-12.71-31.009-12.71-31.009h8.788s-.897 31.694 32.551 33.558h.059v-33.558h8.967v33.736H0c13.173 0 23.852 10.573 23.852 23.615 0 13.043-10.679 23.615-23.852 23.615" style="fill:#fff;fill-opacity:1;fill-rule:nonzero;stroke:none" transform="matrix(1.33333 0 0 -1.33333 234.944 223.553)"/></svg>