<svg xmlns="http://www.w3.org/2000/svg" xml:space="preserve" width="431.4422mm" height="211.89969mm" viewBox="0 0 431.4422 211.89969"><path d="M10.761 129.236c-7.402-.291-24.191-1.803-34.792-3.134-13.42-1.684-21.818-4.38-29.36-9.424-4.798-3.21-10.116-9.035-13.179-14.438-.687-1.213-1.33-2.206-1.427-2.207-.097 0-1.704.97-3.572 2.16-15.956 10.154-37.035 18.26-55.915 21.502-11.592 1.99-23.008 2.264-32.94.79-15.186-2.256-29.176-9.26-38.896-19.473-11.424-12.005-17.422-26.116-18.255-42.948-.153-3.097.164-10.093.554-12.196l.152-.818-4.586-.186c-5.766-.234-7.02-.404-15.301-2.072-10.462-2.108-12.978-1.946-16.176 1.042-2.059 1.923-3.172 3.762-6.913 11.424-9.567 19.591-11.12 22.704-13.286 26.618-4.663 8.429-9.971 16.863-13.468 21.4-2.655 3.444-6.755 7.58-9.773 9.856-3.186 2.403-7.63 4.62-11.16 5.568-2.332.626-3.15.712-6.88.725-4.801.018-6.223-.265-9.79-1.943-4.292-2.02-7.948-5.63-10.07-9.941-1.367-2.78-1.877-4.609-2.25-8.07-.802-7.43 1.328-16.724 6.577-28.707 2.44-5.572 12.385-25.369 16.082-32.015 7.218-12.977 12.93-21.94 21.889-34.347 8.919-12.351 12.343-17.94 19.888-32.46 11.051-21.268 12.102-23.206 17.28-31.882 7.456-12.495 12.884-19.077 18.976-23.012 4.19-2.706 7.343-3.678 11.906-3.67 6.657.014 10.747 2.122 18.435 9.506 7.129 6.845 8.268 7.407 14.505 7.147 2.11-.088 5.377-.276 7.26-.417 8.316-.624 21.931 1.581 30.444 4.931 10.778 4.242 18.205 11.74 21.842 22.051.334.946.641 1.765.684 1.82.042.056 1.36-.264 2.93-.71 7.363-2.092 13.333-2.963 20.3-2.96 10.544.002 20.796 1.471 30.708 4.4 6.698 1.98 15.382 5.712 20.494 8.81 1.23.745 2.387 1.297 2.57 1.227.183-.07.752-.959 1.263-1.975 3.774-7.493 11.125-17.813 16.628-23.341 11.808-11.863 26.45-16.927 34.329-11.87 2.366 1.517 3.975 3.981 4.635 7.098.477 2.248.477 7.13 0 10.357A1997.284 1997.284 0 0 1 .537-29.614c-.445 2.837-.867 5.695-.938 6.35l-.129 1.19L.22-23c7.083-8.743 15.614-17.603 21.871-22.716C33.226-54.814 43.53-57.278 50.467-52.5c3.76 2.59 5.189 6.462 4.718 12.791-.132 1.769-.174 3.216-.093 3.216.08 0 .85-.864 1.712-1.919 2.318-2.837 6.8-7.392 9.6-9.756 4.337-3.662 9.933-7.295 12.36-8.026 4.6-1.384 9.312-.253 12.595 3.025 4.162 4.155 4.444 8.9 1.15 19.321-.667 2.11-1.93 6.337-2.806 9.393C82.2 1.714 71.996 32.655 65.795 48.041 59.926 62.6 53.008 75.49 46.774 83.479c-.675.864-1.136 1.645-1.025 1.736.11.09 1.392.626 2.847 1.189 3.568 1.38 9.562 4.43 12.308 6.264 3.218 2.147 6.065 4.68 8.07 7.177 10.584 13.185 1.556 24.607-22.098 27.96-7.542 1.068-12.241 1.361-23.151 1.444-5.82.044-11.655.038-12.965-.013zm24.077-9.38c4.71-.309 11.582-1.11 14.817-1.726 6.88-1.31 13.272-4.458 14.558-7.168.387-.816.405-1.109.127-2.039-.754-2.519-3.274-5.296-7.144-7.874C54.31 99.127 47.06 95.59 42.7 93.976l-3.779-1.398-2.042 1.789c-5.528 4.842-11.287 8.152-16.594 9.534-2.568.67-8.828.689-11.192.035-4.585-1.268-7.92-3.371-10.836-6.833-5.315-6.311-6.07-13.466-1.834-17.37 2.33-2.147 5.09-3.084 9.046-3.069 4.873.019 17.19 2.054 25.664 4.24 5.721 1.477 5.265 1.544 7.173-1.04 7.614-10.308 14.95-24.42 21.175-40.736 5.53-14.492 14.374-41.736 20.62-63.52 4.32-15.063 4.645-16.369 4.799-19.245.122-2.297.084-2.576-.443-3.241-.468-.59-.792-.728-1.706-.728-2.252 0-8.638 4.514-14.211 10.048-7.28 7.227-12.302 14.639-19.545 28.844C44.987-.852 44.709-.51 42.326-.51c-2.551 0-4.974-2.014-4.974-4.135 0-.398.767-2.993 1.704-5.768.937-2.775 2.18-6.772 2.762-8.883 1.997-7.232 4.336-19.142 4.366-22.225.03-3.197-1.287-4.364-4.728-4.19-1.654.083-2.261.268-4.4 1.341-1.365.685-4.03 2.379-5.922 3.763C19.97-32.435 11.655-23.54-1.185-6.035-4.118-2.036-6.036.335-6.609.673c-1.27.747-3.5.713-4.771-.073-1.096-.678-2.068-2.414-2.068-3.696 0-.457.36-2.566.802-4.688 3.053-14.678 6.575-36.725 6.795-42.525.166-4.404-.027-5.265-1.337-5.943-2.498-1.291-9.982 1.106-15.567 4.986-5.641 3.92-10.218 8.84-15.465 16.625-2.503 3.712-5.14 8.204-6.872 11.704L-46.1-20.9l3.45 3.514C-32.964-7.518-27.303 4.21-25.308 18.54c.547 3.922.46 15.477-.145 19.447-2.058 13.504-8.212 27.137-17.497 38.76-4.563 5.712-10.835 12.073-16.191 16.419l-1.376 1.116.63 1.243c1.364 2.691 4.061 6.33 6.478 8.74 7.563 7.54 18.15 11.65 35.066 13.613 3.893.451 18.707 1.55 26.855 1.992 9.217.5 18.594.495 26.326-.013zm-169.333-4.32c14.72-1.971 28.674-6.31 43.392-13.493 14.327-6.993 23.156-13.09 32.572-22.494 10.454-10.44 17.008-20.63 21.021-32.679 2.226-6.682 3.155-12.417 3.155-19.467 0-6.688-.82-12.047-2.777-18.124-2.4-7.452-6.108-13.57-11.765-19.408-8.678-8.953-20.527-15.229-35.52-18.812-8.275-1.977-13.982-2.628-23.09-2.634-6.694-.004-7.37.04-10.716.705-1.965.39-5.18 1.162-7.144 1.714l-3.572 1.004-.17 3.965c-.352 8.187-1.996 14.655-5.683 22.347-7.999 16.688-23.763 32.02-42.036 40.882-8.637 4.188-16.825 6.814-26.698 8.56l-3.994.708-.34 1.85c-.503 2.73-.717 12.216-.347 15.367.924 7.855 3.477 15.355 7.494 22.016 7.204 11.947 17.9 20.633 30.812 25.026 4.992 1.698 8.817 2.507 16.224 3.432 2.243.28 16.131-.056 19.182-.465zm-24.342-25.282c-2.686-1.111-5.16-9.719-5.16-17.958 0-9.995 2.698-18.64 7.681-24.618 1.68-2.014 7.752-6.772 10.18-7.974.872-.432 2.123-.821 2.777-.864.787-.052 1.809-.426 3.01-1.102 6.243-3.515 13.324-4.405 20.823-2.615l1.74.415 1.303-.928c4.07-2.898 9.108-4.03 13.195-2.966 2.753.717 5.104 2.147 7.58 4.61 1.867 1.858 2.493 2.704 3.505 4.736.678 1.361 1.232 2.634 1.232 2.829 0 .195.138.44.308.544.23.143.264-.714.133-3.45-.02-2.707-.368-5.415 2.705-5.44 1.165 0 1.092-.057 7.552 5.91 1.234 1.14 2.368 1.996 2.52 1.902.755-.466.007-4.136-1.42-6.97-4.878-9.686-16.604-14.274-27.134-10.615-2.57.892-2.924.926-3.987.376-1.698-.878-1.99-3.098-.584-4.42.906-.85 3.685-1.84 6.876-2.45 3.618-.69 9.37-.464 12.634.499 4.822 1.422 8.98 3.865 12.501 7.344 7.114 7.028 9.286 16.946 4.714 21.518-1.329 1.329-2.961 1.854-4.47 1.437-.956-.264-3.252-2.013-4.79-3.65-.428-.455-.919-.827-1.091-.827-.174 0-.388.56-.48 1.257-.229 1.724-1.496 4.296-2.828 5.741-1.83 1.985-4.108 2.246-5.897.675-1.111-.976-1.636-2.208-2.14-5.027-.597-3.342-2.044-6.092-4.352-8.268-2.194-2.07-4.064-2.896-6.577-2.905-1.56-.005-4.83.915-4.83 1.36 0 .096.592.618 1.317 1.159 3.74 2.792 5.873 7.702 5.059 11.644-.46 2.222-1.164 3.485-2.904 5.203-2.184 2.156-4.072 2.991-7.083 3.132-1.789.083-2.763 0-3.733-.323-5.479-1.82-7.34-10.352-3.78-17.33.434-.85.506-1.22.284-1.442-.197-.198-1.716-.3-4.453-.3-3.65 0-4.407.078-6.231.642-1.142.353-2.135.795-2.207.982-.072.187.35.91.937 1.607 2.984 3.54 3.724 9.05 1.795 13.369-1.358 3.04-4.077 5.763-6.686 6.693-.563.2-1.856.37-2.875.376-6.095.037-10.303-6.2-8.697-12.894l.173-.72-.722.661c-1.178 1.08-3.049 4.1-4.028 6.501-2.04 5.002-2.899 10.36-2.65 16.518.185 4.564.83 7.854 2.141 10.905.523 1.217.95 2.482.95 2.811 0 1.014-.782 2.181-1.728 2.576-1.007.421-1.342.44-2.108.124zm18.279-32.57c2.867-1.772 4.076-6.404 2.485-9.523-.54-1.06-2.208-2.898-2.628-2.898-.385 0-2.56 2.62-3.292 3.966-.931 1.71-1.572 4.332-1.351 5.524.36 1.941 1.776 3.439 3.277 3.464.347.006 1.026-.234 1.509-.532zm26.51-4.1c.542-.226 1.369-.783 1.84-1.238 2.545-2.464 1.384-6.333-2.749-9.158-1.338-.916-1.612-.767-2.663 1.448-.78 1.64-.982 2.41-1.08 4.105-.136 2.351.37 4.169 1.352 4.857.729.51 2.056.505 3.3-.014zm-196.165 59.95c7.217-1.846 13.33-7.342 20.257-18.214 7.603-11.934 15.085-25.705 20.659-38.026 4.411-9.752 6.534-13.338 9.793-16.546 2.349-2.311 5.235-3.964 8.096-4.636 2.965-.697 7.966-.39 13.064.8 11.216 2.62 20.915 3.072 31.669 1.474 15.236-2.265 29.621-8.482 41.62-17.988 3.416-2.706 10.283-9.564 13.05-13.032 11.848-14.85 15.993-29.903 11.786-42.801-1.464-4.487-3.509-7.771-6.762-10.862-4.309-4.093-9.813-6.875-17.244-8.718-6.78-1.682-12.277-1.99-28.214-1.583-4.668.119-6.058-.12-9.329-1.603-3-1.36-5.346-3.17-10.133-7.816-4.18-4.056-4.943-4.679-6.947-5.672-2.004-.993-2.51-1.13-4.59-1.245-1.98-.108-2.56-.04-3.788.45-3.691 1.469-7.928 5.38-12.617 11.649-6.752 9.025-12.163 18.437-23.196 40.349-6.656 13.219-9.04 17.235-16.523 27.833-15.798 22.374-25.026 37.555-34.71 57.098-7.879 15.898-9.883 20.686-11.522 27.517-1.63 6.797-1.432 11.057.715 15.308 1.514 3 4.884 5.808 7.788 6.49 1.806.424 4.927.324 7.078-.226zM19.621 94.7c1.09-.287 2.714-.872 3.61-1.3 2.054-.98 5.39-3.177 5.39-3.549 0-.155-.685-.422-1.522-.593l-7.253-1.498c-9.51-1.968-15.734-2.492-16.811-1.414-1.114 1.113 1.49 5.314 4.323 6.974 3.68 2.157 7.627 2.601 12.263 1.38z" style="fill:#fff;stroke-width:.264583" transform="translate(336.686 82.621)"/></svg>