<svg xmlns="http://www.w3.org/2000/svg" viewBox="0 0 500.39 446.28"><path fill="#fff" d="M240.64 175.24c38.35 16.47 72.11 27.23 101.85 56.68 14.03 13.89 25.59 29.33 30.33 48.69 4.87 19.92 1.15 38.51-9.88 55.66-8.99 13.98-20.07 26.14-33.29 36.27-3.81 2.92-10.96 6.79-15.1 4.04s5.26-30.7-21.02-60.73c-19-21.7-51.62-46.59-76.38-61.37l-45.12-26.93c-19.79-11.81-39.86-25.77-56.29-41.83-7.26-7.1-14.04-13.84-20.38-21.81-16.44-20.69-29.17-43.64-33.93-69.78-4.03-22.14-3.78-49.83 10.69-68.21C82.13 13.2 97.28 5.27 113.19 2.25c39.06-7.42 81.99 7.79 110.03 34.88 9.48 9.16 15.72 19.39 22.69 32.11 22.38-34.92 55.71-59.3 96.25-66.9C352.64.37 362.51-.6 373.45.44c31.07 2.95 61.21 15.86 83.69 37.76 11.64 11.34 20.45 24.77 27.82 38.96 22.03 42.41 19.58 87.2-1.57 129.32-10 19.92-22.99 37.47-38.74 52.95-2.74 2.69-9.13 3.81-11.46.98-4.25-5.16 11.45-53.6-17.97-104.1-17-29.18-47.04-48.75-80.8-51.07-19.37-1.33-36.6 3.56-53.06 13.31-20.79 12.32-34.73 32.96-40.73 56.7Zm-18.66-8.7c8.62-21.42 8.75-42.43 3.33-63.58-6.46-18.46-20.4-33.62-38.32-41.33-11.13-4.04-23.06-4.43-32.57 2.95-6.46 5.01-7.48 13.74-7.27 21.82 6.68 36.55 43.92 62.92 74.83 80.14"/><path fill="#fff" d="M284.38 346.2c22.05 37.76 11.97 74.46-23.65 98.77-3.81 2.6-10.35 1.26-12.13-3.51-7.2-19.3-18.3-36.03-32.97-50.64-9.55-9.5-18.91-18.19-30.04-25.9-46.64-32.32-95.33-67.3-133.75-109.18C21.53 222.72-2.56 181.8.22 135.09c1.81-30.5 13.85-59.24 32.77-82.78 1.47-1.83 5.02-2.98 6.78-3.16 2.18-.22 5.89 1.75 6.69 3.7 2.73 6.65-.84 12.15-.94 18.64-.47 29.66 8.35 58.49 23.5 84.04 20.92 35.27 56.1 62.61 90.4 84.48 30.44 19.41 59.8 39.24 87.62 62.1 14.79 13.24 27.41 27.09 37.34 44.1Z"/></svg>