<svg xmlns="http://www.w3.org/2000/svg" id="_레이어_2" viewBox="0 0 55.35 18.91"><defs><style>.cls-1{fill:#fff}</style></defs><g id="_레이어_1-2"><g id="b"><path d="m14.43 18.91-3.35-7.1a6.404 6.404 0 0 0 3.65-2.26c.9-1.17 1.37-2.62 1.32-4.09.03-1.01-.23-2.02-.73-2.9a4.801 4.801 0 0 0-2.09-1.9C12.22.2 11.13-.02 10.02 0H2.65L0 18.91h5.13l.95-6.81h.03l2.97 6.81h5.35ZM6.62 8.32l.59-4.16h1.86c.51-.03 1.01.13 1.4.45.34.35.52.82.49 1.31.03.65-.22 1.28-.68 1.74-.51.46-1.18.7-1.86.66h-1.8ZM17.75 0 15.1 18.91h5.13L22.88 0h-5.13ZM26.31 18.91 28.96 0h-5.13l-2.65 18.91h5.13ZM41.68 4.11 42.25 0H29.9l-.59 4.32h6.4L27.85 14.8l-.57 4.11h12.35l.59-4.32h-6.35l7.81-10.48ZM54.76 4.32 55.35 0H43.22l-2.65 18.91h12.16l.59-4.32H46.3l.46-3.24h5.48l.59-4.16h-5.48l.41-2.86h7Z" class="cls-1"/></g></g></svg>