<svg xmlns="http://www.w3.org/2000/svg" width="254.000000pt" height="261.000000pt" version="1.0" viewBox="0 0 254.000000 261.000000"><path fill="#fff" d="M4.7 4.7c-.3 1-.5 24.9-.6 53.2-.2 41.1.1 51.6 1.1 52.2.7.5 3.9.9 7 .9H18l.2-47.3.3-47.2 17.8-.3c19.5-.3 23.9.4 28.8 4.5 7.2 6.1 8 18.2 1.6 25.2-4.1 4.5-9.3 6.1-19.9 6.1-5.4 0-9.8.3-9.8.8 0 .4 9.2 9.9 20.5 21.2S78 94.8 78 95.2s-1.3 2.9-3 5.6c-1.6 2.7-4.2 8-5.7 11.8-2.4 6.3-2.7 8.1-2.6 19.9 0 11.6.3 13.7 2.7 20C76 169.7 88.5 182 106.5 189c5.1 2 7.8 2.4 18.5 2.4 14.3.1 19-1.1 30.8-7.4l7.6-4.1 16.3 16.3 16.3 16.3-18.7 18.8-18.7 18.7 4.4 4.5c2.4 2.5 4.9 4.5 5.4 4.5.6 0 19.9-19 42.9-42.2l41.8-42.1-4.3-4.4c-2.3-2.3-4.7-4.3-5.3-4.3-.5 0-9.1 8.1-19 18s-18.3 18-18.8 18-8.1-7.2-16.9-16l-16-16 2.1-3.3c9.2-14.2 12.7-30.6 9.7-45.2-3.3-16-12.4-29.8-25.6-38.7-8.3-5.6-15-8.1-25.5-9.7-13.4-2.1-29.4 1.9-42.7 10.6L88 85.5 78.4 76c-5.2-5.2-9.9-10.2-10.4-11.1-.7-1.2.3-2.4 4-5.2 9.6-7.2 14.6-20.9 11.7-32-3-11.3-9.5-18.9-19.7-22.8C59.5 3.2 56 3 32.1 3 7.3 3 5.1 3.1 4.7 4.7m141 85.8c16.7 8.3 26.3 23.6 26.3 42 0 13.1-3.8 22.4-13.2 32.2-18.1 18.8-47.3 19-65.8.4-18.3-18.3-18.2-47.4.3-65.5 5.9-5.8 14.5-11 21.2-12.7 1.7-.5 7.6-.7 13.2-.5 9.6.3 10.8.5 18 4.1"/></svg>