<svg xmlns="http://www.w3.org/2000/svg" width="150px" height="100px" viewBox="0 0 150 100"><path d="M16.348.074c.043.332.109 1.008.132 1.364.02.234.051.597.07.8.02.207.048.532.06.727.015.191.038.488.054.656.031.348.055.617.078.988.008.145.028.41.043.59.02.18.047.535.063.793.015.254.047.633.066.844s.05.527.063.703c.03.41.117 1.48.168 2.02.02.23.046.554.058.718.016.164.043.485.063.715s.047.574.062.762c.012.191.035.496.05.68.036.382.071.796.095 1.12.007.122.027.364.047.544.015.175.043.523.058.777.016.25.043.594.063.762.015.168.043.488.058.718.016.223.047.61.067.852.023.242.05.625.062.848s.04.558.055.746l.055.687c.035.547.05.719.09 1.082.019.192.05.512.066.72.031.323.031.382.015.42-.027.052-.074.083-.562.38q-.687.42-1.438.918l-.617.402c-.633.406-1.27.817-1.531.988-.156.106-.375.25-.484.317-.442.277-.774.492-1.965 1.262l-.746.476c-.153.098-.356.23-.45.293a16 16 0 0 1-.472.305l-.574.37c-.157.099-.399.25-.543.333-.415.246-.665.406-1.274.816-.316.211-.703.47-.86.567-.16.101-.39.254-.515.336s-.371.238-.543.347l-.676.434c-.203.133-.515.332-.695.445-.375.238-1.066.68-1.324.848-.094.066-.352.23-.57.371-.395.254-.665.43-1.391.906-.504.328-.59.387-.746.465-.067.04-.13.074-.133.078-.008.016.102.07.36.188.34.148.683.32 1.105.547.492.265.844.441 1.265.636.172.078.5.246.73.371.235.125.708.368 1.056.543.347.172.738.375.87.45.13.074.637.328 1.13.566a57 57 0 0 1 1.312.656c.227.121.418.223.422.223.02 0 .719.351.957.48.121.067.496.258.836.426.34.164.957.477 1.371.684.414.21 1.082.547 1.488.754.41.203.934.468 1.168.593.235.121.594.309.801.407.203.101.734.367 1.176.59.445.222.976.484 1.18.585.207.102.5.25.656.336.156.082.515.266.805.407 1.39.687 1.386.683 1.41.777l.156.945c.086.496.18 1.063.215 1.258.168.95.297 1.7.36 2.066.038.223.093.54.124.7a69 69 0 0 0 .219 1.246c.074.402.215 1.23.402 2.363.203 1.242.192 1.176.305 1.813.055.32.125.718.156.886.035.168.09.477.125.684.035.21.078.484.098.613.129.754.148.903.144 1.004-.007.164-.027.2-.465.895-.109.171-.25.406-.316.515a27 27 0 0 1-.398.64c-.153.243-.368.587-.477.766l-.41.649c-.113.172-.344.543-.512.812-.168.274-.355.57-.41.657-.152.23-.7 1.109-1.023 1.632-.262.434-.496.801-1.047 1.672-.14.223-.38.61-.535.864l-.38.613c-.054.086-.195.312-.312.504-.12.191-.332.531-.472.746-.274.426-.622.98-.883 1.414-.09.148-.235.375-.317.504-.175.273-.55.871-.758 1.215-.164.265-.32.504-.445.672-.09.12-.113.171-.097.199.011.015.222.125.242.125.015 0 1.265.617 3.14 1.558.918.457 1.676.832 1.684.832.012 0 .918.454 4.437 2.211 1.051.528 2.157 1.079 2.457 1.227.301.148.852.426 1.227.613.371.192.777.399.898.457.122.059.504.25.852.426s.758.383.914.457l2.133 1.063c3.52 1.761 4.941 2.468 5.191 2.585.137.063.399.192.586.29.184.093.535.273.782.394.246.125.59.297.761.383.77.394 1.586.8 1.707.848.172.066.324.074.594.03.238-.042.879-.167 1.309-.253.691-.145 1.535-.3 2.101-.399.32-.054.805-.14 1.07-.195.27-.055.723-.144 1.016-.2l1.895-.366c.097-.02.43-.082.738-.133.305-.055.715-.133.914-.176.656-.14 1.32-.265 3.113-.597.543-.102 1.352-.254 1.793-.34.88-.176 1.852-.364 2.5-.48.227-.044.606-.114.844-.161s.621-.121.852-.164.68-.129.996-.191c.32-.063.87-.165 1.226-.227s.852-.156 1.098-.207c1.015-.207 2.297-.441 2.547-.473.203-.023.383.024 1.152.301.195.07.64.227.988.34.633.21 1.715.586 2.2.762.144.054.562.199.93.32.366.125.863.297 1.097.383s.805.285 1.27.441c.464.16 1.078.371 1.363.477.543.199.758.273 1.422.492.222.074.578.195.785.27.496.18 1.617.57 2.18.761.242.082.644.223.89.309.914.324 1.414.504 1.719.605.172.059.394.14.5.18.508.184 1.152.398 1.285.43.14.03.16.035.273.015.246-.035.45-.094 1.52-.43.785-.25.91-.285 1.52-.456.273-.075.675-.192.898-.262.41-.121.625-.184.953-.278.293-.082 2.18-.628 2.48-.718 1.008-.301 1.692-.5 2.196-.64.633-.177.691-.196 1.289-.384.223-.07.539-.164.7-.21.16-.044.495-.141.75-.212.25-.07.706-.207 1.01-.3.938-.286.86-.266.938-.246.035.011.098.035.14.05.122.059 1.49.84 1.946 1.114.235.14.524.312.645.379.465.269 1.426.835 2.238 1.324.477.289.922.55 1.57.922.746.433.957.558.97.586.01.027-.013.074-.165.402a32 32 0 0 0-.484 1.105c-.082.211-.207.493-.649 1.504-.172.39-.426.977-.531 1.242-.07.172-.227.54-.426.997-.066.144-.176.406-.246.578-.195.488-.234.574-.45 1.054-.108.246-.273.618-.358.832-.09.207-.235.559-.329.774-.09.215-.191.449-.218.52-.09.23-.278.656-.43.995a35 35 0 0 0-.54 1.27 3 3 0 0 0-.108.27c-.004.019.058.011.21-.024.067-.016.31-.062.532-.105.226-.04.531-.102.68-.13.144-.03.382-.081.523-.109.144-.027.394-.078.555-.113.164-.031.628-.121 1.027-.2.402-.073.926-.175 1.16-.226.234-.05.574-.117.762-.152l1.18-.23c.46-.09 1.074-.208 1.351-.258.281-.051.852-.16 1.266-.246.414-.082 1.05-.204 1.414-.274.644-.121.765-.14 1.53-.305.58-.12.63-.132 1.15-.222.273-.047.699-.125.945-.176l.988-.2 2.293-.448c.117-.02.3-.055.41-.075.352-.07.356-.07 1.117.184a133 133 0 0 1 1.899.629c.125.043.566.195.98.34.414.14.922.312 1.125.386.207.075.535.184.73.246.2.067.548.184.782.266.46.168 1.043.363 2.57.879.934.313 1.13.379 1.696.574.207.07.675.239.777.281.055.02.328.114 1.875.645.215.078.394.133.398.125a181.246 181.246 0 0 1 .215-1.473c.125-.789.246-1.601.414-2.754.051-.347.125-.835.168-1.082.121-.757.223-1.394.281-1.8.063-.47.122-.825.153-.97.054-.23.125-.335.492-.714.137-.144.312-.328.39-.406l.45-.473c.172-.18.394-.418.5-.527.328-.344.441-.461.804-.844.399-.43.649-.672.739-.727.137-.078.332-.105 1.41-.199.441-.035 1.078-.09 1.418-.12.34-.028.988-.079 1.445-.114s.946-.07 1.09-.086c.285-.023.871-.07 1.39-.106.192-.011.544-.039.786-.058.242-.024.62-.055.844-.07.375-.028.937-.079 1.535-.13.136-.011.39-.03.566-.038.203-.016.32-.028.32-.036 0-.011-.101-.128-.226-.261-.285-.313-.8-.914-1.762-2.067-.347-.414-.57-.68-.898-1.047-.227-.257-.29-.328-.57-.668a89 89 0 0 0-1.477-1.71c-.195-.215-.242-.282-.242-.317 0-.05.027-.101.683-1.144.137-.22.309-.493.383-.606.367-.566.637-.988.844-1.316.414-.66.625-.989.785-1.23.29-.427.48-.727 1.02-1.618.14-.227.378-.605.527-.836.258-.39.383-.59.789-1.25.246-.402.668-1.066 1.074-1.687.09-.133.278-.43.414-.657.145-.226.309-.492.375-.593.063-.102.219-.348.344-.551.125-.2.3-.473.387-.602.511-.785.566-.879.574-1.023.012-.113-.047-.403-.29-1.504-.085-.39-.194-.887-.237-1.094-.043-.21-.118-.55-.165-.754a90 90 0 0 1-.375-1.773c-.066-.313-.136-.66-.16-.766-.203-.902-.425-1.937-.539-2.511-.047-.231-.11-.532-.14-.668-.028-.141-.106-.493-.168-.786a80 80 0 0 0-.192-.879 23 23 0 0 1-.117-.554c-.027-.117-.082-.375-.125-.574-.148-.68-.207-.961-.43-2.067-.09-.437-.132-.64-.3-1.347a62 62 0 0 1-.188-.88 30 30 0 0 0-.187-.874 49 49 0 0 1-.141-.664c-.023-.118-.07-.34-.105-.497a77 77 0 0 1-.239-1.105c-.039-.176-.097-.469-.136-.648s-.122-.594-.192-.915c-.066-.324-.144-.71-.18-.863a272 272 0 0 1-.496-2.3 87 87 0 0 0-.37-1.81l-.173-.777c-.043-.199-.125-.574-.183-.832-.055-.261-.137-.617-.172-.793-.04-.175-.125-.574-.191-.882l-.352-1.645a5 5 0 0 0-.082-.351c-.043-.122-.137-.192-.524-.399l-.792-.437c-.297-.164-.696-.383-.883-.489a25 25 0 0 1-.98-.562c-.153-.09-.337-.2-.415-.242-.582-.325-1.25-.7-1.488-.836-.16-.094-.414-.235-.567-.317-.148-.082-.664-.375-1.14-.644-1.594-.914-1.75-1-2.711-1.54a23 23 0 0 1-.633-.363 34 34 0 0 0-1.012-.582c-.41-.226-1.214-.68-1.582-.89-.14-.082-.449-.254-.675-.383-.23-.125-.793-.445-1.25-.703-2.079-1.184-2.524-1.434-2.653-1.469a.35.35 0 0 0-.18-.008c-.05.008-.476.125-.94.258-.466.133-.915.262-.993.281-.625.172-1.48.41-1.766.493-.632.18-1.218.34-1.894.527l-1.227.34c-.304.09-.77.218-1.035.293-.547.148-.918.254-1.227.347-.117.035-.378.114-.578.168s-.484.137-.629.18c-.46.133-1.19.328-1.324.355-.242.047-.277.043-1.508-.207-.625-.125-1.71-.343-2.414-.488-.703-.14-1.52-.308-1.812-.37-.293-.063-1.024-.216-1.629-.337-.602-.121-1.29-.262-1.523-.312-.442-.094-1.29-.266-1.993-.399-.226-.043-.59-.117-.808-.164-.621-.129-2.18-.441-2.465-.492-.14-.027-.293-.055-.336-.07l-.078-.02-.2-.402c-.199-.403-.398-.782-.75-1.438-.1-.191-.296-.57-.425-.84-.227-.457-.45-.894-1.024-2.02a31 31 0 0 1-.359-.714c-.066-.133-.234-.473-.379-.758-.144-.285-.387-.765-.535-1.066s-.332-.668-.414-.809a20 20 0 0 1-.555-1.082c-.097-.199-.246-.496-.328-.656a54 54 0 0 1-.707-1.395 14 14 0 0 0-.277-.558 91 91 0 0 1-.719-1.41c-.3-.59-.672-1.317-.824-1.61a70 70 0 0 1-.547-1.082c-.29-.582-.61-1.215-.863-1.691q-.245-.468-.309-.688a.3.3 0 0 0-.04-.093c-.015-.004-.155.273-.233.476-.032.082-.133.332-.23.555-.09.223-.235.566-.313.762-.188.48-.524 1.296-.75 1.824-.098.234-.223.523-.27.64-.129.317-.262.633-.426 1.008-.078.184-.183.418-.226.524-.371.867-.5 1.18-.742 1.793-.157.386-.329.808-.387.937a121.031 121.031 0 0 1-.668 1.586c-.188.434-.66 1.563-.852 2.035-.097.242-.254.617-.351.836-.188.418-.235.535-.5 1.195-.192.477-.375.915-.614 1.461a47 47 0 0 0-.523 1.293l-.02.059-1.96-.008-.067-.191c-.055-.16-.18-.496-.527-1.395-.07-.183-.317-.875-.317-.883 0-.03-.355-.98-.507-1.359a63 63 0 0 1-.711-1.867c-.13-.348-.305-.824-.391-1.063-.09-.234-.207-.547-.258-.691a40 40 0 0 0-.316-.856c-.364-.949-.38-.992-.676-1.8-.07-.18-.203-.547-.305-.813-.101-.27-.238-.648-.308-.84a30 30 0 0 0-.489-1.304c-.117-.305-.285-.75-.37-.985a63 63 0 0 0-.329-.867c-.094-.246-.215-.562-.27-.71-.054-.145-.187-.513-.3-.817-.113-.301-.223-.606-.25-.676l-.043-.129-.059.106c-.074.132-.793 1.21-1.066 1.593-.11.153-.313.45-.457.657l-.399.578c-.078.109-.34.492-.582.851-.449.672-.8 1.18-1.109 1.617l-.43.614c-.136.195-.34.492-.453.652-.113.164-.355.523-.543.8-.61.915-.847 1.263-.87 1.274a3 3 0 0 1-.368-.078c-.371-.094-.906-.2-1.32-.262-.352-.054-.356-.054-.356-.066 0-.047.055-.465.082-.652.086-.535.211-1.391.266-1.868.035-.28.129-.972.207-1.535.082-.562.168-1.175.191-1.363.024-.187.07-.52.098-.73.031-.215.094-.668.14-1.008.044-.34.106-.758.137-.93.028-.172.051-.32.051-.332s-.012-.012-.05 0c-.071.031-.594.16-1.098.277l-.856.2c-.222.054-.8.187-1.277.296-.477.11-1.125.262-1.438.336-1.191.29-3.535.836-4.797 1.121-.171.04-.625.145-1.003.239-1.247.3-1.813.426-1.942.426-.09 0-.129-.024-.45-.243a53 53 0 0 0-1.573-1.043 47 47 0 0 1-1.45-.964 34 34 0 0 0-1.195-.793c-.433-.266-.742-.47-1.765-1.176-.387-.266-.864-.578-.97-.63-.1-.054-.1-.054-.597.102-.277.086-.46.141-1.676.489-.254.078-.613.18-.797.238a135 135 0 0 1-1.882.543c-.172.05-.434.129-.586.172a64 64 0 0 1-1.117.328c-.465.137-.957.281-1.098.32-.137.043-.309.094-.379.114-.375.109-.96.28-1.266.375-.187.058-.64.191-1.004.296l-1.074.313c-.535.164-1.117.328-1.312.375-.2.05-.32.05-.422 0-.07-.031-.692-.379-1.317-.734a18 18 0 0 0-.496-.282c-.125-.066-.449-.254-.722-.41-.496-.285-1.035-.59-1.742-.984a194 194 0 0 1-3.082-1.746c-.528-.305-1.223-.692-2.172-1.211l-.707-.399a68.983 68.983 0 0 1-1.469-.852c-.442-.26-1.098-.628-2.64-1.487a44 44 0 0 1-.747-.422c-.113-.067-.363-.211-.555-.317-.191-.11-.359-.203-.367-.207a13 13 0 0 0-.472-.262L17.73.762a55 55 0 0 0-.648-.371c-.148-.086-.316-.18-.367-.211a3 3 0 0 0-.34-.176c-.035-.008-.035-.008-.027.07m21.488 73.453c.074.047.2.168.2.2q0 .018-.212-.086c-.117-.055-.215-.106-.226-.106-.035 0-.012-.027.027-.031.105-.016.156-.012.21.023m69.387 5.676c.058.063 0 .11-.063.05-.035-.03-.035-.034-.012-.054.036-.027.043-.023.075.004m0 0" style="stroke:none;fill-rule:nonzero;fill:#ffffff;fill-opacity:1"/><path d="M24.45 13.969c.007.168.038.367.12.808.063.336.114.645.157.946.02.152.046.34.058.418.012.074.035.234.055.351.035.227.078.488.187 1.156.04.227.094.563.125.743.028.18.067.402.082.496.032.164.102.597.145.875.012.078.039.254.062.39.02.133.047.313.063.395.012.086.062.39.113.68.137.804.278 1.652.371 2.257.067.43.219 1.325.282 1.684.105.59.117.691.09.715a1 1 0 0 1-.204.094 45 45 0 0 0-1.597.793c-.102.05-.356.183-.563.289-.871.445-1.09.558-1.5.785-.238.125-.82.426-1.293.66-.476.238-.957.48-1.074.547-.23.125-2.758 1.39-3.352 1.68-.27.128-.382.195-.433.242-.055.05-.063.066-.043.074.023.015.39.039 1.047.07.257.012.597.031.754.047.328.023.835.059 1.265.082.16.008.57.035.914.063.344.023.79.05.996.058.328.016.621.031 1.461.094.121.008.36.02.528.031.164.008.488.028.714.043.227.02.645.047.926.063.285.015.657.039.824.054.688.051.946.067 1.27.082.191.008.531.028.758.043l.414.024.008.039a75.61 75.61 0 0 0 .473 2.922c.03.16.07.398.093.535.02.133.063.402.098.594.117.668.207 1.234.281 1.754.016.082.07.39.133.687.055.293.113.613.125.707.047.348.062.387.12.328.044-.047.286-.422 1.02-1.594.176-.28.391-.625.48-.761.29-.446.513-.793.712-1.121.316-.508.594-.95.695-1.106.485-.742.649-1.004 1.36-2.144.886-1.414 1.066-1.7 1.222-1.907.09-.117.133-.152.223-.175.129-.036.86-.141 1.148-.168.106-.008.344-.036.528-.059.183-.023.375-.05.425-.055.098-.011.797-.097 1.438-.183.223-.028.48-.059.57-.067l.446-.054.496-.063c.117-.012.363-.039.543-.066l.492-.063c.094-.008.324-.035.511-.058.192-.024.383-.047.43-.055.192-.02 1.149-.133 1.52-.184.222-.027.476-.058.562-.066.09-.012.313-.035.496-.063.184-.023.38-.046.434-.054.055-.004.246-.031.426-.055.18-.023.441-.058.578-.074.14-.016.387-.047.547-.067.16-.023.41-.046.554-.054.243-.016.422-.035.489-.055.093-.031-.059-.125-.477-.305-.113-.046-.41-.18-.664-.296a48 48 0 0 0-1.27-.579l-.539-.246a33 33 0 0 0-1.058-.468c-.3-.13-1.383-.606-1.68-.747a70 70 0 0 0-1.238-.539 11 11 0 0 1-.52-.234 30 30 0 0 0-1.117-.512 2 2 0 0 1-.226-.105c0-.008.05-.082.113-.168.058-.082.219-.324.351-.535.133-.211.395-.614.579-.89.183-.282.457-.696.601-.927l.461-.71c.285-.438.492-.758.637-1.005.07-.117.375-.585.68-1.039.3-.457.66-1 .792-1.214l.352-.559c.059-.098.23-.355.375-.574.145-.215.39-.598.547-.844.16-.25.371-.578.473-.727.195-.289.28-.441.28-.496 0-.027-.007-.03-.042-.023-.024.008-.164.07-.317.14-.148.07-.324.145-.394.172-.262.106-.684.293-1.395.625-.316.145-1.445.653-2.03.91-.415.18-.614.27-1.27.57l-.875.392c-.512.226-.907.402-1.196.539-.148.07-.445.207-.664.3-.219.098-.539.243-.715.32-.379.169-.78.352-1.035.473-.101.047-.304.14-.449.203-.145.067-.367.165-.488.223-.418.195-1.164.527-1.235.55-.066.028-.07.024-.152-.015a3 3 0 0 1-.309-.238c-.246-.215-.289-.254-.73-.602-.168-.132-.488-.39-.715-.57a23 23 0 0 0-.664-.527 69 69 0 0 1-1.387-1.102c-.984-.789-1.175-.945-1.894-1.512-.336-.27-.38-.3-.676-.53a29 29 0 0 1-.602-.477c-.168-.137-.375-.305-.457-.375-.086-.067-.222-.176-.304-.239l-.215-.168a64 64 0 0 1-.555-.468c-.09-.082-.098-.07-.086.12m0 0" style="stroke:none;fill-rule:nonzero;fill:none;fill-opacity:1"/><path d="M50.172 17.773c0 .079.043.235.223.801.246.774.34 1.074.472 1.524.063.215.16.53.219.703.059.176.11.351.113.39l.008.075-.215.09c-.426.175-.926.39-1.887.812-.085.039-.292.129-.457.207-.16.074-.351.16-.421.188-.274.113-1.368.597-1.844.816-.332.152-.387.187-.38.23.009.04.044.051.298.07.199.02.386.048 2.129.294.644.093 1.34.195 1.543.23.343.055.574.09 1.41.211l.418.055a.6.6 0 0 1 .133.02c.007.003.113.195.234.421.117.227.3.567.402.758.106.187.305.574.45.852.144.28.32.62.394.753a42 42 0 0 0 .352.649c.148.258.422.785.472.906.032.074.063.14.075.145.039.011.124-.184.312-.72l.2-.57c.155-.445.366-1.058.534-1.57l.368-1.09c.105-.324.234-.703.277-.843l.082-.258.129.008c.074.004.258.03.41.054.156.028.559.086.89.133.337.047.712.102.833.121.12.02.55.086.957.145s.949.14 1.203.183c.496.082.57.09.586.055.011-.035-.07-.101-.305-.242-.125-.078-.414-.254-.644-.399-.23-.14-.547-.332-.704-.425a398.973 398.973 0 0 0-2.273-1.367c-.254-.153-.313-.196-.313-.227a1 1 0 0 1 .067-.156c.11-.203.281-.563.355-.735.02-.05.086-.199.145-.332.105-.23.203-.453.344-.777.035-.09.117-.266.18-.398.183-.375.257-.567.25-.637 0-.035-.153-.012-.368.058-.234.075-3.05.922-3.375 1.016a3 3 0 0 1-.285.066c-.078 0-.246-.093-.89-.496a72 72 0 0 0-1.981-1.21c-.188-.114-.45-.27-.578-.356q-.365-.233-.496-.262c-.047-.008-.051-.008-.051.031m0 0" style="stroke:none;fill-rule:nonzero;fill:none;fill-opacity:1"/><path d="M72.895 27.559a4 4 0 0 0-.149.242c-.058.094-.219.34-.355.539-.313.469-.938 1.426-1.172 1.8-.192.31-.324.508-1.055 1.618a52 52 0 0 0-.64.984c-.36.578-.61.969-1.313 2.012-.328.488-.695 1.078-.707 1.133-.008.062.047.289.363 1.5.235.89.434 1.668.551 2.156.039.164.125.492.191.73.067.243.172.649.239.91.062.258.164.657.226.883l.18.696c.035.156.137.558.219.898.086.34.187.738.222.887.04.144.145.562.239.93.421 1.652.625 2.445.77 2.964.054.204.1.399.109.442.007.094.03.078-.372.258-.156.07-.402.187-.546.254-.141.07-.352.167-.465.222-.114.051-.364.172-.555.266s-.395.191-.445.215a.4.4 0 0 0-.102.058c-.016.028.05.059.32.16.282.106.426.172.465.215.043.055.114.196.23.457.06.14.122.282.13.305.007.023.097.254.199.512.098.258.297.765.441 1.133.14.363.313.789.375.945.239.562.723 1.808.922 2.36.16.444.297.796.465 1.198.078.184.207.5.285.7.082.203.164.41.188.464.058.145.05.176-.13.497-.198.363-.53.988-.695 1.32a66 66 0 0 1-.793 1.523c-.066.125-.472.875-.644 1.2-.031.058-.191.363-.356.683-.168.313-.335.64-.382.723-.078.14-.22.414-.711 1.367-.117.227-.219.418-.227.43-.02.023-.476.898-.617 1.183-.184.367-.508.98-.707 1.328-.32.567-.422.809-.379.883a2 2 0 0 0 .211.176l.402.316c.118.094.313.246.434.336.125.094.316.239.43.328a273 273 0 0 0 2.742 2.149l.625.488c.808.63.879.668 1.82 1.02.215.078.559.207.762.28.207.08.719.274 1.137.435.418.164.921.355 1.117.43.195.07.453.167.57.21.117.047.363.14.55.211a70.375 70.375 0 0 0 2.27.86c.563.206 2.09.777 2.211.828.125.054.153.046.551-.192.656-.39 1.379-.824 1.512-.898.086-.051.437-.266.785-.48a50 50 0 0 1 1.508-.903c.078-.047.289-.172.465-.281.32-.203.988-.602 1.75-1.055 2.28-1.355 2.32-1.379 2.32-1.477 0-.05-.031-.191-.281-1.214-.114-.465-.22-.903-.235-.973-.015-.074-.09-.375-.16-.672l-.191-.805c-.032-.144-.098-.418-.14-.609a43 43 0 0 1-.255-1.086 58 58 0 0 0-.156-.664c-.078-.312-.09-.379-.07-.39a3 3 0 0 1 .164-.079c.375-.164.668-.293 1.05-.469.45-.203.606-.265.68-.285.047-.007.05-.004.106.098.07.125.34.527.605.895.11.148.293.414.41.578.117.168.309.433.422.59s.32.44.457.64c.27.387.621.879.95 1.324.234.325.542.782.921 1.352.145.219.281.414.305.433.035.032.047.036.14.024a2.4 2.4 0 0 0 .329-.063c.293-.07 1.515-.347 2.226-.5.13-.03.574-.132.985-.23.41-.098.925-.219 1.148-.27.684-.152.996-.222 1.445-.328.239-.054.614-.136.832-.187.215-.047.454-.106.524-.121.222-.051.898-.192 1.324-.274.59-.113.547-.101.547-.16 0-.086-.164-.703-.434-1.64-.152-.532-.25-.899-.433-1.579-.086-.32-.215-.808-.29-1.082-.074-.28-.187-.703-.25-.949-.1-.387-.199-.738-.613-2.234-.05-.18-.125-.446-.16-.594-.043-.145-.113-.422-.164-.61l-.199-.753a75 75 0 0 0-.23-.856c-.16-.593-.297-1.097-.41-1.539-.212-.847-.286-1.101-.329-1.14a1.4 1.4 0 0 0-.332-.125c-.187-.059-1.332-.422-1.527-.489-.16-.054-.711-.23-1.242-.398a90 90 0 0 1-.946-.305c-.367-.12-.886-.289-1.156-.37-.266-.087-.734-.24-1.043-.337-.305-.101-.71-.23-.906-.289l-.828-.27c-.758-.25-1.23-.398-1.567-.496a8 8 0 0 1-.32-.097c-.016-.02-.035-.008.844-.39.277-.118.597-.259.715-.313l1.132-.512c.106-.05.317-.145 1.153-.512.277-.12.68-.3.898-.398.442-.196.723-.332.723-.352a1 1 0 0 0-.055-.133c-.062-.136-.144-.375-.488-1.441-.137-.43-.297-.914-.352-1.074a58 58 0 0 1-.574-1.828c-.09-.305-.242-.785-.336-1.07l-.328-1.005-.516-1.617a49 49 0 0 1-.25-.785c-.07-.23-.18-.559-.238-.726-.137-.372-.152-.426-.387-1.188a36 36 0 0 0-.304-.934 47 47 0 0 1-.465-1.46c-.05-.168-.211-.672-.36-1.114-.144-.445-.292-.918-.335-1.054-.118-.403-.621-1.973-1.157-3.606-.093-.289-.222-.684-.28-.875-.161-.527-.263-.832-.274-.832-.02 0-.118.156-.282.457-.222.402-.507.902-.671 1.18-.075.125-.207.351-.29.496-.222.398-.5.887-.699 1.223-.32.539-.46.789-.605 1.05-.09.164-.215.395-.281.512s-.184.324-.262.465c-.078.137-.242.422-.367.633-.332.566-.434.742-.637 1.113-.102.184-.23.406-.281.496-.055.086-.262.45-.465.809-.45.78-.551.96-.762 1.316-.09.152-.27.465-.398.695-.192.352-.368.66-.711 1.266a.4.4 0 0 1-.075.102l-.035.035h-2.453c-1.351 0-2.469-.008-2.484-.012-.02-.008-.047-.074-.094-.207a10 10 0 0 0-.144-.406l-.184-.48a51 51 0 0 0-.582-1.493 51 51 0 0 1-.703-1.738c-.106-.254-.496-1.23-.695-1.735-.11-.27-.262-.652-.34-.843l-.368-.93c-.34-.879-.89-2.27-1.503-3.797a91 91 0 0 1-.38-.969c-.269-.722-.507-1.293-.59-1.406-.019-.023-.042-.043-.05-.043-.012 0-.039.027-.062.063m0 0" style="stroke:none;fill-rule:nonzero;fill:none;fill-opacity:1"/><path d="M42.895 33.668a1 1 0 0 0-.133.055c-.078.039-.39.28-.606.468-.218.188-.574.473-.945.762-.133.102-.344.27-.469.371-.125.106-.41.328-.633.496-.222.172-.609.48-.859.68l-.602.48c-.078.063-.343.274-.586.465-.242.196-.699.559-1.011.809-.317.25-.707.562-.871.695-.16.13-.45.352-.633.489-.184.14-.418.32-.516.402l-.41.332c-.125.101-.32.266-.434.363-.234.2-.394.328-.953.754-.43.332-.539.418-1.02.809-.355.293-.859.687-1.401 1.101-.2.153-.512.399-.7.555-.441.363-.726.59-.918.738-.207.153-.277.219-.277.262s.094.32.336 1.02c.101.292.273.78.375 1.085.105.305.234.692.293.856l.176.504c.043.113.144.41.234.656.195.535.535 1.48.7 1.938.206.593.745 2.199.796 2.39l.05.188h4.895c2.899 0 5.032.007 5.223.015.563.024.734.067 1.39.36.16.07.43.187.598.257.43.18 1.555.664 1.938.836.176.082.492.215.7.301.206.086.55.235.765.328l.539.235c.086.03.336.14.554.238.782.344 1.043.453 1.278.531.027.008.047.02.047.028l-.434.44c-.434.442-.918.97-1.137 1.24-.125.155-.152.179-.218.179-.059 0-.707-.098-1.2-.18-.226-.035-.668-.11-.984-.156-.312-.05-.766-.125-1.004-.168a58 58 0 0 0-1.453-.246c-.602-.094-1.715-.281-2.809-.473-.328-.058-.379-.066-.632-.066-.23 0-.301.004-.434.035-.578.125-.832.184-1.21.277-.466.114-.692.164-1.4.313-.261.055-.64.137-.847.183-.203.047-.55.122-.766.168-.437.09-.492.102-1.492.329l-1.078.234c-.453.098-.61.133-.727.176-.18.07-.218.129-.55.945-.094.23-.278.676-.41.992-.133.313-.286.68-.34.817-.114.28-.153.367-.407.93l-.226.511c-.113.262-.402.96-.492 1.18-.055.136-.196.468-.317.742a76 76 0 0 0-1.066 2.547c-.324.8-.375.918-.504 1.18-.066.132-.117.25-.117.261 0 .04.215.164.582.324.11.051.34.157.512.239.484.23 1.996.91 3.054 1.37.418.188.7.313 1.903.864l.793.36c.234.101 1.44.652 1.656.753l.441.2a65.468 65.468 0 0 1 1.316.586c.583.257 1.313.59 1.594.718 1.141.524 1.262.563 1.625.551.192-.008.785-.074 1.457-.164.121-.016.453-.059.739-.09.285-.035.73-.09.988-.125a73 73 0 0 1 1.266-.137l.484-.05c.203-.024.437-.051.527-.063a51 51 0 0 1 1.157-.129c.054-.008.207-.023.343-.039.133-.012.367-.039.524-.062.156-.02.422-.055.593-.075.172-.023.434-.054.579-.078.347-.047.957-.12 1.304-.16.149-.016.375-.043.5-.058.25-.032.782-.094 1.508-.176.695-.078 1.121-.125 1.461-.168.168-.02.523-.063.793-.09.266-.031.527-.063.578-.07s.2-.024.328-.04c.13-.011.41-.042.621-.066.215-.027.473-.055.575-.062.097-.008.296-.032.441-.047.91-.102 1.098-.125 1.238-.145l1.5-.191c.653-.078.684-.086.742-.145.082-.09.274-.441.649-1.187.11-.219.226-.453.266-.52.242-.437.542-1.008.82-1.558.316-.625.414-.817.566-1.07.176-.305.735-1.364 1.164-2.215.203-.403.414-.81.489-.954.023-.039.12-.218.218-.394.094-.176.22-.402.27-.504.055-.102.133-.25.176-.328.109-.2.39-.738.625-1.195.105-.211.199-.391.203-.399.008-.008.047-.082.086-.16s.144-.273.23-.434c.09-.16.297-.562.465-.89.3-.598.398-.778.77-1.45.285-.515.304-.562.261-.66-.008-.02-.101-.27-.21-.554-.114-.285-.27-.684-.348-.891s-.227-.594-.328-.863a51 51 0 0 0-.34-.883c-.274-.672-.313-.77-.395-1.008-.207-.59-.273-.742-.351-.832-.098-.105-.254-.172-1.133-.48-.82-.29-.938-.328-1.04-.336l-.081-.012-.953.473c-.52.261-1.051.527-1.176.597l-.707.38c-.832.448-1.356.722-2.032 1.062-.64.32-.765.386-1.203.629-.488.27-1.765.902-1.882.93-.047.011-.075 0-.434-.208-.14-.078-.34-.191-.441-.242-.098-.055-.454-.25-.782-.434-.332-.187-.71-.398-.847-.472a68.608 68.608 0 0 0-1.812-1.02 41 41 0 0 1-.747-.422c-.164-.101-.516-.3-.773-.445-.262-.148-.614-.348-.786-.45a79 79 0 0 0-.996-.546c-.379-.2-.8-.43-.945-.508-.258-.144-.344-.195-1.074-.625-1.117-.66-1.406-.824-1.926-1.094q-.776-.399-.812-.441c-.024-.027.039-.113.226-.309.082-.082.336-.363.57-.625.657-.722.786-.859.817-.859.055 0 .344.106 1.187.441.832.329 1.032.407 1.348.524.54.2 1.2.457 2.023.781.801.32 1.153.457 1.668.656.145.055.512.2.813.32.613.243 1.133.446 1.668.645.195.078.394.153.433.168.13.055.614.246.778.301.21.074.265.078.402.031.133-.043.602-.254 1.285-.582l.473-.222c.004 0 .648-.317 1.43-.707.78-.387 1.656-.82 1.945-.958.289-.14.84-.406 1.223-.597.656-.32 1.093-.528 1.113-.528.008 0 .246-.117.539-.257.664-.325.812-.399 1.219-.586.605-.282 1.422-.692 1.472-.739.028-.027.051-.062.051-.078 0-.03-.086-.379-.43-1.718l-.312-1.25c-.094-.395-.219-.883-.27-1.082a78 78 0 0 1-.445-1.739c-.203-.863-.562-2.273-.668-2.656-.027-.105-.148-.566-.265-1.031l-.31-1.219a20 20 0 0 1-.14-.555 1.5 1.5 0 0 0-.062-.222c-.024-.051-.047-.055-.418-.075-.156-.011-.434-.027-.625-.039-.395-.027-.871-.054-1.602-.097-.281-.02-.625-.043-.758-.055-.718-.062-.738-.066-1.68-.121-.21-.016-.452-.031-.542-.04a62.309 62.309 0 0 1-1.629-.129l-.602-.046-.851-.058a20 20 0 0 0-.531-.04c-.274-.02-.711-.05-1.196-.093-.453-.035-.883-.07-1.05-.082-.07-.004-.27-.02-.442-.032-.172-.011-.395-.027-.496-.03a75 75 0 0 1-1.363-.09 24 24 0 0 0-.532-.04 53 53 0 0 1-1.203-.082A6 6 0 0 0 47.82 34l-.73-.055a92 92 0 0 0-1.758-.129 67 67 0 0 1-1.996-.16 1.2 1.2 0 0 0-.441.012M101.957 37.156a3 3 0 0 0-.113.239l-.281.617c-.106.222-.329.722-.497 1.105-.171.38-.382.852-.472 1.043-.207.442-.278.594-.48 1.059-.09.207-.262.593-.376.855a16 16 0 0 0-.277.656c-.195.52-.547 1.747-.59 2.047-.031.215.004.352.336 1.317.195.558.262.742.469 1.281.176.45.3.805.508 1.426.242.73.421 1.261.691 2.004.352.984.43 1.187.477 1.23a.6.6 0 0 0 .187.094c.219.082 1.262.414 1.887.605.676.203.949.293 1.004.332.02.016.054.059.074.098.016.04.113.375.207.754.18.719.238.934.512 1.906l.187.672c.012.04.09.348.176.684.191.746.262 1.011.445 1.664.082.273.188.664.239.86.234.917.574 2.187.687 2.57.043.144.137.492.215.777.074.285.176.66.226.832q.182.64.282 1.039c.03.121.132.492.23.828.094.336.254.918.352 1.29.215.843.488 1.862.566 2.128.086.281.234.844.399 1.473.148.586.347 1.285.394 1.394.035.078.008.067.442.16.164.035.527.118.808.184l2.25.52c1.137.261 1.086.253 1.25.163.207-.117 1.02-.703 1.613-1.164.23-.18 1.086-.824 1.508-1.136a72 72 0 0 0 1.113-.825l.047-.046-.011-.528a31 31 0 0 0-.024-.836 68 68 0 0 1-.031-1.488 75 75 0 0 0-.027-1.602c-.008-.23-.024-.914-.032-1.515a84 84 0 0 0-.03-1.48c-.009-.212-.02-.887-.032-1.5a135 135 0 0 0-.031-1.633c-.016-.598-.02-1.739 0-1.762a.5.5 0 0 1 .16-.07 21 21 0 0 0 1.37-.473c.227-.086.302-.106.317-.094.02.024.13.332.645 1.863.27.801.535 1.582.59 1.73.148.419.25.716.632 1.872.196.582.399 1.184.454 1.34.05.156.191.558.3.894.364 1.086.739 2.172 1.051 3.04a57 57 0 0 1 1.027 3.074c.016.058.04.12.051.132.012.016.125.055.301.106.324.09.805.238 1.3.41.192.067.587.195.876.281.289.09.812.254 1.164.368 1.023.335 1.355.44 1.914.613.289.086.715.222.953.3.234.083.45.145.473.145.078 0 .41-.266 1.129-.914.59-.531.703-.629.882-.785.09-.074.25-.215.36-.313.11-.097.262-.226.336-.289.074-.066.281-.238.457-.39.176-.149.367-.313.426-.364s.257-.23.449-.398c.187-.168.449-.398.586-.512.133-.113.336-.285.449-.386s.328-.29.476-.422c.153-.13.426-.371.61-.532.183-.164.445-.394.578-.511.137-.117.313-.274.398-.352.082-.074.274-.242.426-.37.336-.286.672-.603.73-.688l.044-.063-.028-.094-.07-.242-.137-.457c-.05-.172-.148-.488-.218-.7-.141-.425-.157-.48-.305-1a33 33 0 0 0-.496-1.585c-.133-.402-.332-1.016-.446-1.36a86 86 0 0 0-.664-1.949 40 40 0 0 1-.535-1.593c-.058-.192-.14-.446-.183-.567s-.102-.297-.137-.387c-.031-.093-.11-.308-.172-.48a74 74 0 0 1-.516-1.441c-.129-.368-.265-.766-.414-1.184-.152-.422-.332-.95-.632-1.828a267 267 0 0 0-1.254-3.633l-.262-.754c-.086-.262-.211-.625-.274-.808-.128-.375-.27-.68-.39-.84-.203-.266-.754-.778-1.754-1.614-.145-.12-.324-.277-.406-.347-.477-.422-.64-.567-.75-.668-.07-.063-.239-.219-.38-.344l-.359-.32c-.058-.051-.187-.164-.293-.254s-.261-.23-.355-.313c-.094-.078-.262-.226-.375-.324-.2-.172-.305-.27-.918-.84a23 23 0 0 0-1.195-1.05 58 58 0 0 1-1-.864 25 25 0 0 0-.883-.761.23.23 0 0 0-.11-.04c-.027 0-.156.04-.28.086-.43.157-1.188.418-1.458.5-.336.106-.742.246-1.375.48-.625.231-.957.349-1.886.657-.7.234-.954.328-.977.363-.004.008.148.164.344.344s.672.637 1.054 1.012c1.774 1.73 2.012 1.96 2.551 2.453q.68.622 1.653 1.578c.207.207.546.535.75.727.207.195.414.394.464.449.285.308.391.539.68 1.469.059.195.168.523.246.734.074.207.29.844.48 1.41.188.567.395 1.18.462 1.367.066.184.203.594.3.907.2.62.805 2.418 1.098 3.238.219.629.289.851.289.898 0 .032-.016.043-.094.075-.05.023-.207.07-.347.113-.508.14-1.207.36-1.41.433a2 2 0 0 1-.27.086c-.059.008-.066 0-.117-.05a2 2 0 0 1-.192-.282c-.078-.12-.195-.312-.265-.425-.07-.118-.192-.313-.27-.446-.414-.683-.89-1.46-1.086-1.765a46 46 0 0 1-.52-.832c-.16-.27-.421-.688-.573-.93-.372-.586-.45-.719-.555-.91-.051-.086-.18-.301-.293-.48-.11-.177-.258-.419-.328-.536-.07-.113-.184-.3-.254-.406a74 74 0 0 1-.758-1.223c-.398-.644-.535-.824-.848-1.117q-.324-.3-.625-.535c-.101-.078-.265-.215-.367-.297-.097-.086-.238-.2-.305-.254-.066-.055-.23-.195-.363-.312-.137-.118-.351-.301-.48-.407a12 12 0 0 1-.403-.343c-.093-.082-.27-.235-.394-.34-.125-.102-.344-.29-.48-.41a12 12 0 0 0-.473-.407c-.121-.101-.29-.246-.375-.32-.082-.074-.25-.223-.371-.328a32 32 0 0 1-.457-.395 30 30 0 0 0-.528-.445 28 28 0 0 1-1.324-1.113c-.117-.106-.293-.258-.394-.348s-.305-.266-.45-.383c-.144-.125-.343-.293-.433-.375-.094-.082-.243-.215-.336-.289-.09-.074-.281-.238-.422-.363-.445-.387-.582-.477-.844-.55a27 27 0 0 0-1.43-.29 134.573 134.573 0 0 1-1.648-.34c-.39-.078-.91-.187-1.156-.242s-.844-.176-1.324-.273c-.485-.094-.993-.2-1.137-.227-.602-.129-1.727-.363-1.883-.39-.223-.04-.262-.04-.293.007m0 0" style="stroke:none;fill-rule:nonzero;fill:none;fill-opacity:1"/><path d="M122.508 71.879c-.067.05-.082.07-.254.324-.086.125-.258.367-.379.54-.121.175-.332.48-.473.679-.261.387-.515.75-1.011 1.433-.164.227-.418.594-.567.817-.152.223-.324.48-.39.57-.067.094-.262.387-.438.649-.441.66-.683.988-.766 1.043-.062.043-.37.086-1.109.164a537.723 537.723 0 0 1-3.117.328l-.621.066c-.156.02-.406.047-.559.063l-.594.062-.53.051c-.118.012-.298.031-.403.039a91 91 0 0 0-2.172.238c-.105.012-.379.04-.602.067-.222.023-.464.05-.539.054a9 9 0 0 0-.847.098c-.016.008-.028.031-.028.055 0 .039.04.07.196.156.129.074.64.39.894.555.301.191.852.539 1.324.828.235.144.622.39.86.543.5.32 1.305.828 1.789 1.125.183.113.547.34.805.504.261.164.55.34.64.394.203.117.242.149.227.2-.004.015-.082.16-.172.32-.188.328-.461.82-.586 1.062-.106.2-.297.543-.43.781-.054.094-.25.458-.437.81a25 25 0 0 1-.508.917c-.09.156-.2.344-.242.422l-.25.45a38 38 0 0 0-.489.89c-.011.027-.117.219-.226.43-.23.433-.469.863-.543.976a.9.9 0 0 0-.117.242l-.012.043.07-.008c.082-.015.176-.058.504-.25.133-.078.489-.277.79-.445.3-.168.753-.422 1.007-.566.25-.145.664-.383.922-.528.254-.144.547-.312.645-.37l.496-.274c.171-.094.441-.242.593-.332.153-.09.524-.301.82-.469a86 86 0 0 0 1.563-.895c.29-.175.422-.246.477-.246.02 0 .144.07.285.164.133.09.418.274.629.41.21.133.722.47 1.14.747.415.277.985.652 1.266.832.281.175.723.465.98.64.262.172.672.446.915.602.242.156.644.422.894.586.547.36.621.406.664.422l.035.008-.011-.157a2 2 0 0 0-.024-.222 110.024 110.024 0 0 0-.348-1.836c-.082-.414-.187-.95-.226-1.188a36 36 0 0 0-.164-.84c-.09-.445-.133-.652-.399-2.02-.101-.51-.19-.98-.199-1.042-.02-.14-.039-.117.258-.317.117-.078.379-.261.578-.402.195-.14.496-.351.664-.469s.442-.312.61-.433.496-.36.734-.528c.426-.296.563-.394.773-.546.407-.293 1.168-.844 1.23-.891.044-.031.216-.156.388-.277.172-.118.472-.336.664-.477.191-.145.437-.328.547-.406.246-.18 1.328-.95 1.597-1.137.61-.418 1.09-.773 1.258-.934.14-.136.133-.14-.238-.097-.168.02-.461.05-.653.07-.191.02-.48.055-.64.07-.555.063-.86.09-1.145.114-.156.015-.34.03-.406.039-.066.008-.18.02-.254.023-.07.004-.332.031-.578.055l-.61.058c-.085.008-.296.028-.46.047-.543.051-.926.09-1.188.114a166 166 0 0 0-2.262.222c-.472.043-.652.063-.816.082-.102.012-.191.024-.2.024-.019 0-.023-.043-.058-.696-.011-.226-.035-.546-.047-.714l-.035-.567c-.012-.14-.023-.328-.031-.41a12 12 0 0 1-.031-.434 13 13 0 0 0-.032-.441c-.007-.09-.02-.273-.027-.406-.016-.239-.039-.598-.086-1.258-.015-.18-.031-.434-.039-.559a2 2 0 0 0-.023-.25c-.012-.023-.043-.02-.09.02m0 0" style="stroke:none;fill-rule:nonzero;fill:none;fill-opacity:1"/><path d="M131.996 79.703c-.012.027.012.309.04.469.026.164.105.59.163.914l.067.375c.011.066.05.266.086.445.074.387.078.364-.114.469-.066.04-.285.172-.496.305a72 72 0 0 1-1.308.797c-.332.195-.5.32-.465.355.02.016 1.406-.012 1.656-.031.113-.008.3-.02.426-.024l.226-.011-.007.363c-.028 1.039-.032 1.457-.008 1.457.058 0 .18-.082.27-.176.113-.12.456-.527.792-.937.555-.676.848-1.004.934-1.035.02-.012.164-.012.363 0 .547.023 2.059.042 2.074.03.004-.007-.011-.034-.039-.066-.047-.043-.86-.57-1.222-.793-.223-.132-.391-.25-.399-.277-.012-.039.07-.203.297-.582.113-.184.285-.469.383-.633.097-.164.222-.37.277-.46.11-.177.2-.348.192-.356-.016-.016-.32.101-.555.21a11 11 0 0 0-.488.243c-.52.277-1.243.625-1.368.652-.12.028-.136.016-.406-.289-.094-.105-.3-.332-.46-.504a90 90 0 0 1-.755-.812c-.074-.082-.144-.125-.156-.098m0 0" style="stroke:none;fill-rule:nonzero;fill:none;fill-opacity:1"/></svg>