<svg xmlns="http://www.w3.org/2000/svg" width="179" height="80"><path fill="#fff" d="M63.79.05c-2.028.364-3.356 1.294-4.18 2.93-.489.98-.79 1.875-2.282 6.833-.183.605-.46 1.507-.617 2-.152.492-.328 1.042-.383 1.226-.05.188-.266.863-.476 1.512-.204.644-.461 1.445-.563 1.77-.25.808-.473 1.277-.598 1.277s-.187-.036-.957-.512a36 36 0 0 0-1.507-.863c-3.72-2.024-7.157-3.207-11.391-3.918-2.125-.36-3.492-.47-6.05-.461-2.11 0-2.173.004-4.266.222-1.286.133-3.461.524-5.055.903-4.188 1-9.293 3.023-12.078 4.785-1.817 1.152-4.305 3.191-6.153 5.043C3.402 26.633.93 31.007.238 35.16c-.289 1.723-.316 4.496-.074 6.586.293 2.527 1.363 5.098 3.402 8.145.149.226.27.464.27.539 0 .07-.215.55-.473 1.074-1.031 2.055-1.414 3.672-1.414 5.941.004 2.602.453 4.508 1.621 6.848 1.27 2.531 3.555 5.312 6.176 7.504 1.418 1.183 2.031 1.621 3.899 2.754 2.742 1.672 6.414 3.187 9.855 4.066 2.64.676 5.234 1.102 7.559 1.235.296.02.605.043.687.05.629.078 3.137.141 4.8.114 2.056-.032 3.333-.114 5.161-.32 5.906-.688 11.219-2.512 15.543-5.34.715-.465 1.008-.626 1.156-.626.059 0 .547.22 1.078.485a36.7 36.7 0 0 0 8.461 2.969c1.645.359 3.18.57 4.625.644 3.864.195 7.34-.2 10.207-1.156 1.43-.48 2.559-1.02 4.153-1.988.343-.215.687-.387.757-.387.075 0 .266.09.434.2 1.137.73 3.582 1.85 5.317 2.448 2.101.711 4.718 1.274 6.75 1.45 1.765.152 4.996.105 6.597-.106 2.813-.363 5.567-1.086 8-2.098.543-.23 2.293-1.12 3.086-1.582.348-.199.692-.363.762-.363s.324.117.57.254c.848.488 2.063 1.008 3.68 1.578 1.23.434 2.597.777 3.91.977 1.895.293 4.652.254 6.41-.098 2.598-.504 4.758-1.57 7.266-3.578.363-.285.715-.547.789-.574.105-.04.293.035 1.332.562 1.398.707 1.863.918 3.488 1.547 3.692 1.445 7.094 2.262 10.254 2.461 1.313.086 3.703.031 4.7-.105 3.41-.465 5.882-1.383 8.448-3.137 2.125-1.457 3.864-3.274 5.508-5.778.88-1.335 1.532-2.542 1.996-3.68 1.524-3.702 1.993-6.296 1.993-10.968 0-4.465-.317-6.66-1.563-10.93-1.215-4.168-2.879-7.984-5.402-12.379-1.735-3-3.801-5.68-6.614-8.539-1.441-1.468-2.921-2.738-4.761-4.082-1.926-1.414-4.371-2.703-6.602-3.48-2.305-.813-5.101-1.211-7.367-1.055-1.918.125-3.09.434-4.656 1.235-1.477.746-2.395 1.449-3.739 2.836-.753.777-1.05 1.054-1.14 1.054-.067 0-.336-.094-.602-.203-3.355-1.441-6.238-2.238-8.902-2.469-.957-.082-3.879-.082-4.645.004-1.445.153-2.703.43-4.035.88-2.957 1-5.504 2.73-7.43 5.062-.581.707-.73.824-.859.68-.086-.102-.578-1.075-.765-1.528-.56-1.324-2.391-5.012-3.204-6.445-1.312-2.317-1.906-3.317-2.793-4.711-2.12-3.348-2.953-4.309-4.304-4.996-1.114-.563-2.668-.809-3.703-.59-1.922.41-3.391 1.547-4.192 3.242-.937 1.973-2.82 8.176-3.82 12.559-.34 1.464-.613 2.714-.7 3.152-.28 1.375-.761 4.27-.991 5.914-.196 1.437-.254 1.7-.38 1.68-.085-.016-.636-.813-.933-1.336-.098-.176-.602-1.047-1.125-1.93-.52-.887-1.168-2.02-1.445-2.512-.274-.492-.668-1.183-.867-1.535-.204-.355-.516-.906-.7-1.23a5504.48 5504.48 0 0 0-2.457-4.3L77.055 15.6c-.39-.692-.774-1.356-.84-1.485a217 217 0 0 0-1.395-2.46 233 233 0 0 1-1.793-3.122c-.41-.719-1.011-1.793-1.343-2.383-1.782-3.175-2.149-3.738-2.907-4.504C68.125.996 67.563.645 66.72.36c-.922-.312-2.176-.441-2.93-.308m1.226 5.942c.074.117.226.371.336.57.28.516 3.859 6.801 3.906 6.864.027.023.305.523.62 1.101.325.578.72 1.27.872 1.535.156.266.496.868.754 1.333.262.464.648 1.14.867 1.511.215.364.473.805.563.973.375.68 1.093 1.957 1.207 2.137.066.105.328.554.57.996.64 1.144 2.441 4.297 2.617 4.574.082.129.356.61.613 1.074.426.774 1.38 2.43 2.082 3.637 1.391 2.383 2.688 3.664 3.95 3.894.914.168 4.03-.007 5.683-.312.88-.164 1.282-.363 1.453-.734.141-.282.332-1.516.442-2.72.222-2.612.605-5.413 1.039-7.577.61-3.051.976-4.637 1.64-7.121.47-1.743.665-2.383 1.516-5.02.649-2.012 1.027-2.953 1.195-2.984.079-.016.16.09 1.254 1.636.332.47.907 1.368 1.832 2.86.504.812 1.328 2.265 2.008 3.535.137.266.387.726.547 1.023.863 1.618 2.676 5.528 3.473 7.504.218.532.449 1.11.52 1.282.777 1.914 2.19 6.035 2.71 7.886.48 1.711.543 1.969.485 2.028-.028.03-.504.062-1.118.078-1.984.043-3.14.175-3.957.453-.465.16-.683.332-.882.719-.133.253-.16.351-.153.66 0 .261.028.418.106.566.254.5.46.559 2.52.746 1.452.133 2.648.281 3.265.414.96.196 2.07.594 3.074 1.102 1.293.644 2.137 1.254 3.184 2.297.765.765 1.25 1.367 2.007 2.484.586.875.77 1.094 1.063 1.23.203.102.289.114.683.094.856-.054 1.227-.441 1.227-1.3 0-1.149-.91-2.715-2.504-4.325-1.129-1.136-1.945-1.824-3.219-2.683-.789-.543-.988-.719-1.25-1.074-.382-.551-.593-1.07-1.023-2.536-.453-1.57-.55-2.035-.55-2.722 0-.567.023-.727.179-1.383.52-2.106 1.3-3.957 2.312-5.48 1.028-1.547 1.973-2.508 3.399-3.446 1.445-.953 3.258-1.7 4.773-1.965.758-.136 4.324-.136 5.184 0 1.367.215 3.75.895 5.031 1.438.777.332 2.477 1.183 3.242 1.617.75.43 2.223 1.406 2.907 1.918.832.625.882.668 1.44 1.137 1.513 1.27 3.09 2.789 4.087 3.933.289.336.707.817.93 1.07a68 68 0 0 1 1.648 2.032c1.477 1.87 3.574 5.097 4.77 7.324.203.379.464.867.578 1.074a84 84 0 0 1 1.25 2.512l.367.793c.117.25.27.59.344.742.398.89.746 1.54.906 1.703.457.453 1.246.364 1.89-.222.586-.543.579-.856-.101-2.528-1.324-3.258-3.402-7.074-5.563-10.219-.918-1.335-2.859-3.863-3.675-4.789-1.774-2.007-2.82-3.074-4.813-4.902-.683-.633-1.2-1.066-2.23-1.875-.203-.156-.344-.305-.344-.363 0-.266.894-1.692 1.523-2.422.762-.883 2.141-1.781 3.383-2.207.774-.266 1.137-.309 2.367-.277 1.907.046 3.176.324 5.02 1.09a20 20 0 0 1 3.64 1.956c1.79 1.196 2.938 2.172 4.797 4.051 2.993 3.043 5.215 6.219 7.375 10.559.618 1.234.77 1.57 1.375 2.996 1.328 3.148 2.5 7.121 2.868 9.703.328 2.281.398 4.047.261 6.07-.156 2.293-.332 3.38-.793 4.922-.687 2.305-1.828 4.512-3.25 6.293-.554.7-1.57 1.707-2.242 2.238-2.105 1.657-3.937 2.434-6.687 2.844-.891.13-4.157.133-5.082 0-2.262-.324-4.348-.875-6.801-1.804-1.461-.551-3.336-1.438-5.5-2.594-.633-.34-.61-.262-.336-1.121.555-1.766.785-2.993.898-4.785.157-2.594-.16-5.305-.879-7.54-.582-1.793-1.199-2.578-2.039-2.578-.496.008-1.066.27-1.25.582-.183.305-.097 1.047.262 2.246.102.348.266.891.356 1.211.195.649.398 1.79.476 2.672.117 1.239.055 3.914-.101 4.867-.227 1.336-.833 2.856-1.59 3.985-.688 1.023-2.04 2.34-3.172 3.094-2 1.32-4 1.804-6.957 1.68-1.75-.079-2.914-.352-4.903-1.137-.957-.387-3.027-1.391-3.066-1.497-.023-.05.14-.32.453-.738 1.988-2.683 2.73-4.605 3.004-7.691.14-1.645-.094-3.848-.477-4.41-.3-.454-.687-.606-1.363-.54-.445.044-.754.2-.894.465-.102.192-.106.297-.121 1.614-.02 2.246-.118 3.382-.399 4.543-.652 2.73-2.41 5.129-5.129 6.992-1.535 1.058-2.867 1.722-4.683 2.34-1.649.558-3.196.898-5.426 1.18-1.258.163-4.89.152-6.125-.016-1.695-.235-3.727-.778-5.469-1.477-1.226-.484-3.871-1.875-4.101-2.148-.137-.164-.086-.293.418-1.043 1.265-1.88 1.91-3.39 2.324-5.453.21-1.059.254-1.582.254-3.047 0-1.172-.02-1.492-.11-2.094-.281-1.79-.672-3.094-1.281-4.36-.559-1.132-1.059-1.78-1.602-2.077-.273-.149-.37-.176-.652-.172-.422 0-.793.16-1.062.453-.254.273-.332.515-.305.945.02.387.187.758.934 2.106.453.82.687 1.398.863 2.085.23.938.262 1.211.254 2.446-.004 1.262-.032 1.48-.332 2.87-.457 2.09-1.36 3.825-2.938 5.661a12 12 0 0 1-1.96 1.828c-2.196 1.64-3.977 2.356-7.012 2.805-1.918.281-4.887.308-6.75.05-1.942-.265-4.442-.921-6.18-1.613a159 159 0 0 1-3.34-1.437c-.41-.192-.422-.207-.387-.34.016-.082.235-.492.485-.91.765-1.3 1.02-1.977 1.02-2.695 0-.348-.016-.41-.141-.59-.293-.403-.684-.614-1.239-.664-.547-.051-.707.047-1.554.941-2.258 2.387-3.504 3.484-5.364 4.703-2.683 1.75-5.425 2.945-8.758 3.805-1.636.422-3.949.82-5.644.973-1.543.144-2.29.175-4.598.175-3.043.004-4.23-.062-6.433-.379-5.016-.722-9.809-2.515-13.586-5.086-2.168-1.48-4.41-3.652-5.637-5.46-.945-1.395-1.734-3.184-1.934-4.38-.109-.663-.125-2.597-.015-3.124.289-1.473 1.394-3.246 2.7-4.332 1.124-.938 2.366-1.625 3.839-2.122 2.066-.699 2.953-.812 6.258-.808 2.886.004 3.738.066 5.668.406 1.61.281 2.113.395 4.218.914 1.579.395 2.305.492 2.59.348.25-.125.52-.613.52-.942 0-.656-.45-1.214-1.336-1.664-1.606-.808-5.129-1.832-7.473-2.168-1.41-.199-2.043-.234-4.058-.23-2.133 0-3.051.074-4.594.36a25.5 25.5 0 0 0-5.215 1.597c-.352.156-.84.36-1.086.457-.426.164-.465.168-.578.098-.164-.11-1.106-1.48-1.629-2.364-1.144-1.945-1.68-3.425-1.867-5.195-.082-.758-.09-2.746-.008-3.406.207-1.633.691-3.113 1.574-4.774.5-.933 1.516-2.414 2.39-3.472.665-.805 2.642-2.782 3.477-3.477.711-.597 2.141-1.68 2.81-2.137 1.827-1.253 4.597-2.515 8.019-3.656.796-.265 1.316-.422 3.113-.898 1.219-.328 3.355-.711 4.75-.856.98-.101 4.633-.113 5.898-.02 3.153.235 6.473 1.09 9.5 2.438 1.86.832 3.926 2.035 5.36 3.121.152.118.336.254.406.313 1.582 1.191 3.043 2.863 4.031 4.61 1.008 1.784 1.653 4.335 1.496 5.898-.176 1.625-.633 2.972-1.437 4.164-.297.433-1.317 1.648-1.516 1.793-.055.039-.285.234-.504.43-1.023.89-2.469 1.64-3.98 2.054-1.551.426-2.774.582-4.824.625-2.766.05-4.348-.101-7.457-.734-1.899-.383-2.954-.66-4.88-1.274-2.609-.84-3.527-.914-3.98-.312-.195.25-.223.543-.082.906.414 1.105 1.27 1.676 3.945 2.629 1.313.465 2.645.848 4.793 1.387 1.93.476 3.125.64 5.508.746 1.371.066 3.219.023 4.653-.106 1.707-.156 3.601-.64 5.125-1.316.898-.395 1.156-.488 1.32-.453.2.047.879.62 1.707 1.441.871.86 1.484 1.649 2.2 2.836.773 1.277 1.144 2.215 1.62 4.125.153.586.324 1.188.387 1.32.266.563.582.727 1.305.692 1.02-.051 1.324-.543 1.199-1.906-.195-2.145-.844-4.036-2.106-6.13-.82-1.374-1.629-2.437-2.808-3.702-.461-.493-.653-.739-.653-.82 0-.079.07-.188.192-.302.105-.093.328-.296.492-.453.715-.656 1.594-1.851 2.082-2.836.461-.91.828-2.105.965-3.097.105-.766.094-3.02-.02-3.72-.172-1.1-.535-2.401-1.03-3.655-.364-.922-1.231-2.563-1.743-3.282-.316-.445-.324-.37.156-1.832.453-1.378.738-2.289 1.156-3.699.141-.465.344-1.129.45-1.484.113-.352.316-1.008.457-1.457.14-.453.34-1.11.441-1.461.274-.902.375-1.23.844-2.742.23-.73.484-1.559.566-1.844.64-2.176 1.324-4.223 1.559-4.625.148-.25.183-.238.426.113m0 0"/></svg>