<svg xmlns="http://www.w3.org/2000/svg" xml:space="preserve" x="0px" y="0px" viewBox="0 0 836 341.3"><path d="M387.8 271.3c11-11.9 21.2-22.9 31.5-33.9l-.6-.6c-6.1 4.8-12.2 9.5-18.2 14.3-27 21.7-54 43.3-81.1 65-3.5 2.8-7.1 5.5-10.5 8.4-1.9 1.7-3.6 1.8-5.9.9-31-11.1-62-22.2-93.1-33.2-1.7-.6-3.4-1.2-5.4-1.9-1.8 2.3-3.6 4.4-5.3 6.6-6.3 8.3-12.6 16.8-19 25.1-1.3 1.6-3 3.2-4.8 4.1-9.1 4.8-18.3 9.5-27.6 14-1.9.9-4.6 1.3-6.7.9-50.5-9.5-91.4-33.9-119.2-77.9C5.6 237.4-2.1 209 .5 178.5c2.7-32.7 17-59.9 41.7-81.4 22-19.1 47.9-30.2 75.9-37 30.7-7.4 61.9-8.5 93.3-7.4h3.1v-15c22.1-11 44-21.8 65.6-32.6 5.3 3.1 7.3 7.1 5.6 12.8-1.9 6.4-.9 12.6 1.1 19 5.3 16.8 10 33.8 15.1 50.7 1.1 3.7 1.2 7.1 0 10.7-1.2 3.4-2.2 6.9-3.6 11.5 22.2-7.3 43.2-14.3 64.4-21.2 2.9 2.9 4.9 5.8 3.8 9.8-1.1 4.3.7 7.6 3.3 10.9 12.7 16.2 25.3 32.5 38.1 49-2.3 5.7-4.6 11.3-6.9 16.9.3.2.5.4.8.6 28.5-23.3 57-46.7 85.4-70-.3-1.6-.5-2.7-.8-3.8-1.1-5 .5-7.5 5.6-8.4 7.5-1.4 15.1-2.6 22.6-3.9 1.6-.3 3.3-.5 5.4-.9 4.8 7.8 9.8 15.7 14.7 23.6.3-.1.6-.3.9-.4-9.8-35.3-19.7-70.5-29.6-105.7 2.7-2.3 5.1-4.2 7.7-6.3 6.2 3.6 12.1 6.9 18 10.3 36.3 21.3 72.6 42.6 109 63.7 5.6 3.3 9.6 7 11.9 13.6 9.4 26.2 19.6 52 29.6 78 .6 1.5 1.3 2.9 2.5 5.3 2.7-9.8 5.1-18.6 7.5-27.4 1.7-6.3 3.3-12.6 4.9-18.8.6-2.5 1.7-4.4 3.9-6 5.6-3.9 11.1-7.9 16.4-12.2 2.2-1.8 4.2-1.6 6.5-1.1 16.6 3.4 33.3 6.7 49.9 10.1 17.4 3.5 34.9 7.1 52.3 10.6 6.1 1.2 11.2 9 9.6 15-4.1 15.9-8.5 31.8-12.6 47.8-.6 2.4-1.9 3.6-3.9 4.7-4.7 2.4-9.4 4.9-14.2 7.3-3 1.5-4.8 3.5-5.5 7-3.9 17.4-8.1 34.6-12.2 52-.1.6 0 1.3 0 2.7 2.3-.7 4.2-1.3 6.2-1.8 3.5-1 5.1.3 4.6 3.9-.6 4.8-1.4 9.6-2.3 14.3-.2 1.1-1.3 2.3-2.3 3.1-16.9 14-33.9 27.9-50.9 41.9-1.8 1.5-3.4 1.6-5.5 1.1-6.7-1.7-13.5-3.4-20.9-5.2v-78.7c-.4-.1-.7-.2-1.1-.4-.6 1-1.4 1.9-1.8 2.9-4.8 10.6-9.7 21.2-14.3 31.9-1.1 2.6-2.7 3.8-5.4 4.4-9.5 1.9-9.5 2-15.8-5.4-6.2-7.3-12.5-14.6-19.2-21.7 6.8 25.2 14.8 50 22.5 75.5-3.8 1.9-7.3 4.1-11.2 5.5-1.6.6-3.9-.1-5.6-.8-17.7-7.7-35.4-15.5-53-23.3-1.2-.5-2.4-1.1-3.7-1.6-14.4-6.3-14.4-6.2-29.4-2.3-28.8 7.5-57.7 14.9-86.4 22.5-3.6.9-6.2.2-9.2-1.8-25.6-17.4-51.3-34.6-77.1-51.8-1.8-1.2-4.2-1.8-6.5-2.2-3.2-.8-6.6-.9-11.2-1.3m-277-33.8c5.3 2.1 10.1 3.8 14.8 6 3.3 1.6 5.8.9 8.6-1.2 18.6-13.4 37.3-26.7 56-40.1 29.7-21.1 59.3-42.3 89-63.4 3-2.1 5.9-4.3 8.8-6.4-25.3 11.2-49.6 23.9-73.3 37.7-15.2 8.9-30.1 18.3-45.2 27.4-1.5.9-3.6 1.9-5 1.4-5.5-1.7-10.9-3.9-16.5-6.1 12-28.5 26.5-55.1 41.4-81.6-34.3 37.1-60.5 78.8-78.6 126.3m469.9 11.9c-9.6-25-18.7-48.6-28-72.8-1.9 1.4-3.3 2.2-4.6 3.2-12 9.3-24.3 18.2-35.8 28-6.7 5.7-13.1 7.6-21.6 5.1-6.7-2-13.9-2.5-20.9-3.7-.1.3-.3.7-.4 1 30.4 23.2 60.9 46.4 91.3 69.6.2-.2.4-.4.6-.7-5.7-9.3-11.3-18.6-16.8-27.7 6.3-9.9 3.1-8.8 14.1-6.7 7 1.4 14 3 22.1 4.7M216.3 271c.2.2.4.5.6.7 4.7-3 9.4-5.9 14-8.9 18.9-12.2 37.7-24.4 56.6-36.5 1.8-1.1 4.3-1.6 6.5-1.6 3.3 0 6.7.3 9.9 1.1 5.4 1.3 10.1.3 14.6-2.8 4-2.8 8.3-5.1 12.3-7.6-16.4-16.4-32.3-32.3-48.7-48.6-21.9 34.6-43.9 69.4-65.8 104.2" style="fill:#fff"/></svg>