<svg width="274" height="48" version="1.1" xmlns="http://www.w3.org/2000/svg" desc="Created with imagetracer.js version 1.2.6" ><path fill="rgb(253,253,253)" stroke="rgb(253,253,253)" stroke-width="1" opacity="0.8549019607843137" d="M 105.5 4 L 106 8.5 L 104 9.5 L 105.5 4 Z " /><path fill="rgb(253,253,253)" stroke="rgb(253,253,253)" stroke-width="1" opacity="0.8549019607843137" d="M 24.5 6 L 28 6.5 L 24.5 7 L 24.5 6 Z " /><path fill="rgb(253,253,253)" stroke="rgb(253,253,253)" stroke-width="1" opacity="0.8549019607843137" d="M 54.5 6 L 58 6.5 L 54.5 7 L 54.5 6 Z " /><path fill="rgb(253,253,253)" stroke="rgb(253,253,253)" stroke-width="1" opacity="0.8549019607843137" d="M 99.5 6 L 100.5 8 L 99.5 6 Z " /><path fill="rgb(253,253,253)" stroke="rgb(253,253,253)" stroke-width="1" opacity="0.8549019607843137" d="M 197.5 6 L 223 6.5 L 197.5 7 L 197.5 6 Z " /><path fill="rgb(253,253,253)" stroke="rgb(253,253,253)" stroke-width="1" opacity="0.8549019607843137" d="M 9.5 11 L 7.5 14 L 9.5 11 Z " /><path fill="rgb(253,253,253)" stroke="rgb(253,253,253)" stroke-width="1" opacity="0.8549019607843137" d="M 37.5 13 L 45 13.5 L 37.5 14 L 37.5 13 Z " /><path fill="rgb(253,253,253)" stroke="rgb(253,253,253)" stroke-width="1" opacity="0.8549019607843137" d="M 124.5 13 L 167 13.5 L 124.5 14 L 124.5 13 Z " /><path fill="rgb(253,253,253)" stroke="rgb(253,253,253)" stroke-width="1" opacity="0.8549019607843137" d="M 94.5 14 L 95.5 16 L 94.5 14 Z " /><path fill="rgb(253,253,253)" stroke="rgb(253,253,253)" stroke-width="1" opacity="0.8549019607843137" d="M 97.5 16 L 98.5 18 L 97.5 16 Z " /><path fill="rgb(253,253,253)" stroke="rgb(253,253,253)" stroke-width="1" opacity="0.8549019607843137" d="M 100.5 18 L 101.5 20 L 100.5 18 Z " /><path fill="rgb(253,253,253)" stroke="rgb(253,253,253)" stroke-width="1" opacity="0.8549019607843137" d="M 103.5 20 L 104.5 22 L 103.5 20 Z " /><path fill="rgb(253,253,253)" stroke="rgb(253,253,253)" stroke-width="1" opacity="0.8549019607843137" d="M 32.5 24 L 33.5 26 L 32.5 24 Z " /><path fill="rgb(253,253,253)" stroke="rgb(253,253,253)" stroke-width="1" opacity="0.8549019607843137" d="M 123.5 25 L 124 34.5 L 123 34.5 L 123.5 25 Z " /><path fill="rgb(253,253,253)" stroke="rgb(253,253,253)" stroke-width="1" opacity="0.8549019607843137" d="M 7.5 26 L 10.5 30 L 7.5 26 Z " /><path fill="rgb(253,253,253)" stroke="rgb(253,253,253)" stroke-width="1" opacity="0.8549019607843137" d="M 35.5 26 L 39 26.5 L 35.5 27 L 35.5 26 Z " /><path fill="rgb(253,253,253)" stroke="rgb(253,253,253)" stroke-width="1" opacity="0.8549019607843137" d="M 43.5 26 L 47 26.5 L 43.5 27 L 43.5 26 Z " /><path fill="rgb(253,253,253)" stroke="rgb(253,253,253)" stroke-width="1" opacity="0.8549019607843137" d="M 74.5 26 L 71.5 30 L 74.5 26 Z " /><path fill="rgb(253,253,253)" stroke="rgb(253,253,253)" stroke-width="1" opacity="0.8549019607843137" d="M 213.5 30 L 214.5 31 L 248 31.5 L 214.5 32 L 213.5 30 Z " /><path fill="rgb(253,253,253)" stroke="rgb(253,253,253)" stroke-width="1" opacity="0.8549019607843137" d="M 172.5 31 L 206 31.5 L 172.5 32 L 172.5 31 Z " /><path fill="rgb(253,253,253)" stroke="rgb(253,253,253)" stroke-width="1" opacity="0.8549019607843137" d="M 169.5 32 L 170 34.5 L 169 34.5 L 169.5 32 Z " /><path fill="rgb(253,253,253)" stroke="rgb(253,253,253)" stroke-width="1" opacity="0.8549019607843137" d="M 22.5 33 L 25 33.5 L 22.5 34 L 22.5 33 Z " /><path fill="rgb(253,253,253)" stroke="rgb(253,253,253)" stroke-width="1" opacity="0.8549019607843137" d="M 57.5 33 L 60 33.5 L 57.5 34 L 57.5 33 Z " /><path fill="rgb(253,253,253)" stroke="rgb(253,253,253)" stroke-width="1" opacity="0.8549019607843137" d="M 31.5 34 L 51 34.5 L 31.5 35 L 31.5 34 Z " /><path fill="rgb(253,253,253)" stroke="rgb(253,253,253)" stroke-width="1" opacity="0.8549019607843137" d="M 123.5 36 L 170 36.5 L 123.5 37 L 123.5 36 Z " /><path fill="rgb(0,0,0)" stroke="rgb(0,0,0)" stroke-width="1" opacity="0" d="M 0 0 L 92 0.5 L 72 1 L 71.5 10 L 70.5 2 L 69.5 7 L 61.5 4 L 54.5 4 L 54.5 6 L 53.5 5 L 28.5 5 Q 27 7.5 21.5 6 L 21.5 5 L 28 4.5 L 20.5 4 L 10 8.5 Q 12.3 9.8 9.5 11 L 9.5 9 L 7 10.5 L 7 12.5 L 4 20.5 L 6 26.5 L 9 29.5 Q 6.8 30.8 9.5 32 L 11 31.5 L 10.5 30 L 11.5 33 L 18.5 35 L 18.5 34 L 16 33.5 L 18.5 33 L 23 34.5 L 19 35.5 L 24.5 36 L 24.5 34 L 25.5 35 L 56.5 35 L 63.5 33 L 63.5 35 Q 69 35.5 71 32.5 Q 68.8 31.3 71.5 30 L 71.5 32 L 74 30.5 Q 71.5 29 75 27.5 L 76.5 25 L 78.5 25 L 93 24.5 L 79 23.5 L 93 23 L 93.5 15 L 94.5 23 L 96 17.5 L 95.5 16 L 97.5 20 L 99 19.5 L 98.5 18 L 100.5 22 L 102 21.5 L 101.5 20 Q 105.2 22 103.5 24 L 105.5 23 L 119.5 23 L 119.5 24 L 105 24.5 L 120 25 L 120.5 37 L 121.5 23 L 122 37 L 170.5 37 Q 171.5 37 171 32.5 L 172 32.5 L 172.5 37 L 173 34 L 207 33.5 L 173 32.5 L 207 32 L 208.5 24 L 210.5 31 L 211 26.5 L 209 18.5 L 210 18.5 L 212 30.5 L 213.5 32 L 248 32.5 L 213 33.5 L 249 34 L 250 26.5 L 256 9.5 L 256 5 L 231.5 5 L 231 8.5 L 229.5 17 L 228.5 9 L 227 14.5 L 229 20.5 L 228 20.5 L 224 6 L 197.5 6 L 196.5 5 L 193 20 Q 189.3 21.4 191 15.5 L 189 5 L 164.5 5 L 163 6.5 L 165 12.5 L 164 12.5 L 163.5 10 L 162.5 11 L 127 11 L 126.5 1 L 125.5 13 L 125 1 L 104.5 1 Q 103.3 1.3 104 7.5 L 103 7.5 L 102.5 2 L 101.5 5 L 99.5 4 L 99.5 6 L 97.5 2 L 94.5 1 L 94.5 3 Q 91.5 1.5 94.5 0 L 273.5 0 L 274 0.5 L 274 48 L 0.5 48 L 0 47.5 L 0 0 Z M 29 3 L 29 4 L 54 4 L 29 3 Z M 165 3 L 165 4 L 188 4 L 165 3 Z M 232 3 L 232 4 L 256 4 L 232 3 Z M 198 4 L 198 5 L 224 5 L 198 4 Z M 230 5 L 229 9 L 230 9 L 230 5 Z M 258 5 L 257 10 L 258 10 L 258 5 Z M 191 6 L 190 10 L 191 10 L 191 6 Z M 195 6 L 194 9 L 195 9 L 195 6 Z M 163 7 L 162 10 L 163 10 L 163 7 Z M 227 8 L 226 11 L 227 11 L 227 8 Z M 194 9 L 193 13 L 194 13 L 194 9 Z M 192 10 L 192 17 L 193 17 L 192 10 Z M 257 10 L 256 13 L 257 13 L 257 10 Z M 256 13 L 255 16 L 256 16 L 256 13 Z M 4 15 L 3 19 L 4 19 L 4 15 Z M 255 17 L 254 20 L 255 20 L 255 17 Z M 254 20 L 253 23 L 254 23 L 254 20 Z M 4 21 L 3 25 L 4 25 L 4 21 Z M 253 23 L 252 26 L 253 26 L 253 23 Z M 252 26 L 251 30 L 252 30 L 252 26 Z M 209 29 L 208 32 L 209 32 L 209 29 Z M 58 35 L 58 36 L 63 36 L 58 35 Z M 26 36 L 26 37 L 57 37 L 26 36 Z M 124 38 L 124 39 L 170 39 L 124 38 Z " /><path fill="rgb(0,0,0)" stroke="rgb(0,0,0)" stroke-width="1" opacity="0" d="M 56.5 5 L 61 5.5 L 56.5 6 L 56.5 5 Z " /><path fill="rgb(0,0,0)" stroke="rgb(0,0,0)" stroke-width="1" opacity="0" d="M 127.5 12 L 163 12.5 L 127.5 13 L 127.5 12 Z " /><path fill="rgb(0,0,0)" stroke="rgb(0,0,0)" stroke-width="1" opacity="0" d="M 40.5 14 L 44 14.5 L 40.5 15 L 40.5 14 Z " /><path fill="rgb(0,0,0)" stroke="rgb(0,0,0)" stroke-width="1" opacity="0" d="M 34.5 15 L 34 16.5 L 34.5 19 L 35 17 L 43.5 16 L 47 17 Q 48.5 22.4 45.5 24 L 36.5 24 L 35 22.5 L 34.5 21 L 34 23.5 L 34.5 25 L 32 19.5 L 34.5 15 Z " /><path fill="rgb(0,0,0)" stroke="rgb(0,0,0)" stroke-width="1" opacity="0" d="M 47.5 15 Q 50.8 16.8 49 23.5 L 47 24.5 Q 49.7 22.8 48 16.5 L 47.5 15 Z " /><path fill="rgb(0,0,0)" stroke="rgb(0,0,0)" stroke-width="1" opacity="0" d="M 165.5 21 L 166 28.5 L 165 28.5 L 165.5 21 Z " /><path fill="rgb(0,0,0)" stroke="rgb(0,0,0)" stroke-width="1" opacity="0" d="M 168.5 23 L 171 30.5 L 170 30.5 L 168.5 26 L 167 26.5 L 168.5 23 Z " /><path fill="rgb(0,0,0)" stroke="rgb(0,0,0)" stroke-width="1" opacity="0" d="M 38.5 25 L 44 25.5 L 38.5 26 L 38.5 25 Z " /><path fill="rgb(254,254,254)" stroke="rgb(254,254,254)" stroke-width="1" opacity="0.996078431372549" d="M 73 2 L 80 2 L 80 12 L 76 12 L 76 4.5 L 75 4.5 L 74.5 12 L 73 9.5 L 74 6.5 L 73 2 Z " /><path fill="rgb(254,254,254)" stroke="rgb(254,254,254)" stroke-width="1" opacity="0.996078431372549" d="M 88 2 Q 93.2 0.3 92 4 Q 86.8 5.7 88 2 Z " /><path fill="rgb(254,254,254)" stroke="rgb(254,254,254)" stroke-width="1" opacity="0.996078431372549" d="M 106.5 3 L 107 5.5 L 106 5.5 L 106.5 3 Z " /><path fill="rgb(254,254,254)" stroke="rgb(254,254,254)" stroke-width="1" opacity="0.996078431372549" d="M 29.5 6 L 51 6.5 L 29.5 7 L 29.5 6 Z " /><path fill="rgb(254,254,254)" stroke="rgb(254,254,254)" stroke-width="1" opacity="0.996078431372549" d="M 165 6 L 187 6.5 L 167 7.5 L 184 8 L 184 15.5 L 183.5 16 L 128 16 L 128 31.5 L 126 32 L 125.5 22 L 124.5 32 L 123 21.5 L 124 15 L 128.5 14 L 167 13.5 L 165 6 Z M 168 9 L 167 12 L 168 12 L 168 9 Z " /><path fill="rgb(254,254,254)" stroke="rgb(254,254,254)" stroke-width="1" opacity="0.996078431372549" d="M 232 6 L 248 7 L 248 16 L 233 16 L 232.5 13 L 231.5 16 L 231 10.5 L 232 6 Z M 237 7 L 237 8 L 240 8 L 237 7 Z M 234 8 L 233 13 L 234 13 L 234 8 Z " /><path fill="rgb(254,254,254)" stroke="rgb(254,254,254)" stroke-width="1" opacity="0.996078431372549" d="M 23.5 7 L 28 7.5 L 23.5 8 L 23.5 7 Z " /><path fill="rgb(254,254,254)" stroke="rgb(254,254,254)" stroke-width="1" opacity="0.996078431372549" d="M 54.5 7 L 60 7.5 L 54.5 8 L 54.5 7 Z " /><path fill="rgb(254,254,254)" stroke="rgb(254,254,254)" stroke-width="1" opacity="0.996078431372549" d="M 200.5 7 L 204 7.5 L 200.5 8 L 200.5 7 Z " /><path fill="rgb(254,254,254)" stroke="rgb(254,254,254)" stroke-width="1" opacity="0.996078431372549" d="M 199.5 9 Q 205.8 7.1 204 12 L 200 12 L 200 10.5 L 199.5 9 Z " /><path fill="rgb(254,254,254)" stroke="rgb(254,254,254)" stroke-width="1" opacity="0.996078431372549" d="M 252.5 10 Q 254.8 9.3 254 11.5 L 252.5 10 Z " /><path fill="rgb(254,254,254)" stroke="rgb(254,254,254)" stroke-width="1" opacity="0.996078431372549" d="M 10.5 11 L 12 11.5 L 9.5 13 L 10.5 11 Z " /><path fill="rgb(254,254,254)" stroke="rgb(254,254,254)" stroke-width="1" opacity="0.996078431372549" d="M 47.5 11 L 50 15.5 L 47 13.5 L 47.5 11 Z " /><path fill="rgb(254,254,254)" stroke="rgb(254,254,254)" stroke-width="1" opacity="0.996078431372549" d="M 37.5 12 L 36.5 14 L 35 13.5 L 37.5 12 Z " /><path fill="rgb(254,254,254)" stroke="rgb(254,254,254)" stroke-width="1" opacity="0.996078431372549" d="M 98.5 12 Q 101.5 11.1 100 15.5 L 99.5 18 L 95 14.5 L 98.5 12 Z " /><path fill="rgb(254,254,254)" stroke="rgb(254,254,254)" stroke-width="1" opacity="0.996078431372549" d="M 188.5 15 L 189 20.5 L 187 21.5 L 188.5 15 Z " /><path fill="rgb(254,254,254)" stroke="rgb(254,254,254)" stroke-width="1" opacity="0.996078431372549" d="M 195.5 15 L 196 18 L 200 20 L 200 24 L 194.5 25 L 193 21.5 L 194 21.5 L 194.5 23 L 195 20.5 L 194 18.5 L 195.5 15 Z " /><path fill="rgb(254,254,254)" stroke="rgb(254,254,254)" stroke-width="1" opacity="0.996078431372549" d="M 208.5 15 L 209 18.5 L 207 19.5 L 208 17.5 Q 205.8 16.3 208.5 15 Z " /><path fill="rgb(254,254,254)" stroke="rgb(254,254,254)" stroke-width="1" opacity="0.996078431372549" d="M 210.5 15 L 213 18.5 L 211.5 21 L 210.5 15 Z " /><path fill="rgb(254,254,254)" stroke="rgb(254,254,254)" stroke-width="1" opacity="0.996078431372549" d="M 225.5 15 L 228 23.5 L 217 24 L 217 20 L 224 20 L 224 16.5 L 225.5 15 Z " /><path fill="rgb(254,254,254)" stroke="rgb(254,254,254)" stroke-width="1" opacity="0.996078431372549" d="M 6.5 16 L 7.5 18 Q 8.6 15.3 12 16 Q 14.1 21.2 9.5 20 Q 7.8 22.8 6 18.5 L 6.5 16 Z " /><path fill="rgb(254,254,254)" stroke="rgb(254,254,254)" stroke-width="1" opacity="0.996078431372549" d="M 31.5 16 L 32 17.5 L 30.5 20 L 30 17.5 L 31.5 16 Z " /><path fill="rgb(254,254,254)" stroke="rgb(254,254,254)" stroke-width="1" opacity="0.996078431372549" d="M 50.5 17 Q 52.8 16.3 52 18.5 L 50.5 17 Z " /><path fill="rgb(254,254,254)" stroke="rgb(254,254,254)" stroke-width="1" opacity="0.996078431372549" d="M 105.5 19 L 105.5 21 L 108 21.5 L 105.5 22 Q 102.5 20.5 105.5 19 Z " /><path fill="rgb(254,254,254)" stroke="rgb(254,254,254)" stroke-width="1" opacity="0.996078431372549" d="M 72 20 Q 77.6 17.8 76 23.5 L 72.5 28 L 72 25.5 L 72 20 Z " /><path fill="rgb(254,254,254)" stroke="rgb(254,254,254)" stroke-width="1" opacity="0.996078431372549" d="M 78 20 Q 81 19 80 22 Q 77 23 78 20 Z " /><path fill="rgb(254,254,254)" stroke="rgb(254,254,254)" stroke-width="1" opacity="0.996078431372549" d="M 169.5 20 L 170 22 L 172 22.5 L 170.5 23 L 169.5 20 Z " /><path fill="rgb(254,254,254)" stroke="rgb(254,254,254)" stroke-width="1" opacity="0.996078431372549" d="M 50.5 21 Q 52.8 20.3 52 22.5 L 50 23.5 L 50.5 21 Z " /><path fill="rgb(254,254,254)" stroke="rgb(254,254,254)" stroke-width="1" opacity="0.996078431372549" d="M 144.5 21 L 145.5 23 Q 142.7 23.7 144.5 21 Z " /><path fill="rgb(254,254,254)" stroke="rgb(254,254,254)" stroke-width="1" opacity="0.996078431372549" d="M 231.5 21 L 232 22.5 L 229.5 24 L 231.5 21 Z " /><path fill="rgb(254,254,254)" stroke="rgb(254,254,254)" stroke-width="1" opacity="0.996078431372549" d="M 148.5 22 Q 154.2 20.4 152 26 L 148 26 L 148 24.5 Q 145.8 23.3 148.5 22 Z " /><path fill="rgb(254,254,254)" stroke="rgb(254,254,254)" stroke-width="1" opacity="0.996078431372549" d="M 189.5 22 L 192 23.5 L 190.5 23 L 188.5 24 L 189.5 22 Z " /><path fill="rgb(254,254,254)" stroke="rgb(254,254,254)" stroke-width="1" opacity="0.996078431372549" d="M 173 24 Q 177.9 22.4 176 28 L 172 27.5 L 173 24 Z " /><path fill="rgb(254,254,254)" stroke="rgb(254,254,254)" stroke-width="1" opacity="0.996078431372549" d="M 249.5 24 L 248.5 26 L 249.5 24 Z " /><path fill="rgb(254,254,254)" stroke="rgb(254,254,254)" stroke-width="1" opacity="0.996078431372549" d="M 34.5 26 L 35.5 28 L 34.5 26 Z " /><path fill="rgb(254,254,254)" stroke="rgb(254,254,254)" stroke-width="1" opacity="0.996078431372549" d="M 11.5 27 L 16 28.5 L 10.5 29 L 11.5 27 Z " /><path fill="rgb(254,254,254)" stroke="rgb(254,254,254)" stroke-width="1" opacity="0.996078431372549" d="M 40.5 27 L 46 27.5 L 40.5 28 L 40.5 27 Z " /><path fill="rgb(254,254,254)" stroke="rgb(254,254,254)" stroke-width="1" opacity="0.996078431372549" d="M 148.5 27 L 152 27.5 L 148.5 28 L 148.5 27 Z " /><path fill="rgb(254,254,254)" stroke="rgb(254,254,254)" stroke-width="1" opacity="0.996078431372549" d="M 213.5 27 L 214.5 29 L 215.5 27 L 224 28.5 L 215 29.5 L 224 30.5 L 215.5 31 Q 211.9 29.9 213.5 27 Z " /><path fill="rgb(254,254,254)" stroke="rgb(254,254,254)" stroke-width="1" opacity="0.996078431372549" d="M 64 28 L 70 28.5 L 64 30 L 64 28 Z " /><path fill="rgb(254,254,254)" stroke="rgb(254,254,254)" stroke-width="1" opacity="0.996078431372549" d="M 181.5 28 L 182 30 L 186 30.5 L 179.5 31 L 179.5 30 Q 182 30.7 181.5 28 Z " /><path fill="rgb(254,254,254)" stroke="rgb(254,254,254)" stroke-width="1" opacity="0.996078431372549" d="M 205.5 28 L 206 29.5 L 204 30.5 L 205.5 28 Z " /><path fill="rgb(254,254,254)" stroke="rgb(254,254,254)" stroke-width="1" opacity="0.996078431372549" d="M 144.5 29 L 145.5 31 L 144.5 29 Z " /><path fill="rgb(254,254,254)" stroke="rgb(254,254,254)" stroke-width="1" opacity="0.996078431372549" d="M 14.5 30 L 17 31.5 L 15.5 31 L 14.5 30 Z " /><path fill="rgb(254,254,254)" stroke="rgb(254,254,254)" stroke-width="1" opacity="0.996078431372549" d="M 20.5 30 L 23 30.5 L 20.5 31 L 20.5 30 Z " /><path fill="rgb(254,254,254)" stroke="rgb(254,254,254)" stroke-width="1" opacity="0.996078431372549" d="M 29 30 Q 33.1 28.7 32 32 Q 27.9 33.3 29 30 Z " /><path fill="rgb(254,254,254)" stroke="rgb(254,254,254)" stroke-width="1" opacity="0.996078431372549" d="M 50 30 L 62 30.5 L 50 32 L 50 30 Z " /><path fill="rgb(254,254,254)" stroke="rgb(254,254,254)" stroke-width="1" opacity="0.996078431372549" d="M 152.5 30 L 156 30.5 L 152.5 31 L 152.5 30 Z " /><path fill="rgb(254,254,254)" stroke="rgb(254,254,254)" stroke-width="1" opacity="0.996078431372549" d="M 164.5 30 L 167 30.5 L 164.5 31 L 164.5 30 Z " /><path fill="rgb(254,254,254)" stroke="rgb(254,254,254)" stroke-width="1" opacity="0.996078431372549" d="M 168.5 30 L 170 35.5 L 168 36 L 168.5 30 Z " /><path fill="rgb(254,254,254)" stroke="rgb(254,254,254)" stroke-width="1" opacity="0.996078431372549" d="M 174.5 30 L 178 30.5 L 174.5 31 L 174.5 30 Z " /><path fill="rgb(254,254,254)" stroke="rgb(254,254,254)" stroke-width="1" opacity="0.996078431372549" d="M 237.5 30 L 240 30.5 L 237.5 31 L 237.5 30 Z " /><path fill="rgb(254,254,254)" stroke="rgb(254,254,254)" stroke-width="1" opacity="0.996078431372549" d="M 25.5 31 Q 28.1 30.3 27 33 L 31.5 33 L 31.5 34 L 22 32.5 L 25.5 31 Z " /><path fill="rgb(254,254,254)" stroke="rgb(254,254,254)" stroke-width="1" opacity="0.996078431372549" d="M 57.5 32 L 60 32.5 L 57.5 33 L 57.5 32 Z " /><path fill="rgb(254,254,254)" stroke="rgb(254,254,254)" stroke-width="1" opacity="0.996078431372549" d="M 46.5 33 L 54 33.5 L 46.5 34 L 46.5 33 Z " /><path fill="rgb(255,255,255)" stroke="rgb(255,255,255)" stroke-width="1" opacity="1" d="M 80 2 L 87.5 2 Q 86.5 5 91.5 4 L 93.5 3 L 96 4 L 96.5 7 L 98.5 6 L 98.5 8 L 104 9 L 104.5 11 L 107 3.5 L 105 3.5 L 105.5 2 L 124 2 L 124 13.5 L 127.5 14 L 127.5 15 Q 121.4 13.2 124 20.5 L 121 22 L 120.5 20 L 120 22 Q 104.1 24.3 98 15.5 L 100 15.5 Q 101.5 11.1 98.5 12 L 94.5 14 L 92 13 L 92 22 L 80 22 Q 81 19 78 20 Q 79 23 76 22 Q 77.2 18.3 72 20 L 72.5 26 L 74.5 22 L 75 23.5 L 70.5 30 L 68.5 31 L 66.5 31 L 64.5 32 L 63 31.5 L 62.5 33 L 59.5 32 Q 56.2 30.9 57 33.5 L 53.5 33 L 32.5 34 L 27.5 33 L 25.5 34 L 25.5 33 Q 28.1 33.7 27 31 L 21.5 33 L 19 32.5 L 18.5 31 Q 17 33.5 15.5 30 L 13.5 31 L 11 29.5 L 16 28.5 L 11.5 27 L 9.5 28 Q 5.1 26.4 6 19.5 L 8.5 21 L 9.5 20 Q 14.1 21.2 12 16 Q 8.6 15.3 7.5 18 L 7 15.5 L 8 13 L 12 12 Q 10.9 9.3 13.5 10 L 22.5 7 L 28 8 L 28.5 6 L 29.5 7 L 50.5 7 L 54 6.5 Q 53.4 9.3 59.5 8 L 61.5 8 L 70 10 Q 68.9 13.3 73 12 L 73.5 10 L 74.5 12 L 75.5 4 L 76 12 L 80 12 L 80 2 Z M 48 11 Q 48 15 45 14 L 45 12 L 41 13 L 38 12 L 30 18 L 32 25 L 36 28 L 37 27 L 41 28 Q 47 29 49 26 Q 48 23 51 24 L 50 23 L 52 23 Q 53 20 50 21 Q 49 18 52 19 Q 53 16 50 17 L 48 11 Z M 64 28 L 64 30 L 70 29 L 64 28 Z M 21 30 L 21 31 L 23 31 L 21 30 Z M 29 30 Q 28 33 32 32 Q 33 29 29 30 Z M 50 30 L 50 32 L 62 31 L 50 30 Z " /><path fill="rgb(255,255,255)" stroke="rgb(255,255,255)" stroke-width="1" opacity="1" d="M 73.5 6 L 74 8.5 L 73 8.5 L 73.5 6 Z " /><path fill="rgb(255,255,255)" stroke="rgb(255,255,255)" stroke-width="1" opacity="1" d="M 240.5 6 L 255 6.5 L 254 10 L 252 10.5 L 253 14.5 L 249 24.5 L 250 25.5 L 248 29.5 L 247.5 31 L 240.5 31 L 237.5 30 L 236.5 31 L 224.5 31 L 223.5 30 L 215.5 30 Q 214.3 32.3 213 29.5 L 214 27.5 L 212 19.5 L 213 17.5 L 210.5 15 L 207 16.5 L 208 18.5 L 208 20.5 L 206 24.5 L 206.5 28 Q 204.3 27.3 205 29.5 L 205.5 31 L 203.5 31 Q 189.9 32.4 182 30 L 181.5 28 L 181 30 L 178.5 31 L 174.5 30 Q 173.3 32.3 172 29.5 L 171 26.5 L 171.5 25 Q 168.9 25.7 170 23 L 172 22.5 L 170 22 L 169.5 20 L 145.5 20 L 144 23 L 147.5 22 L 148 24.5 L 148 26 L 152 26 L 152 22 L 164 22 L 164 28 L 152.5 28 L 148.5 27 L 144 29.5 L 145.5 31 L 148.5 30 L 155.5 31 Q 157.3 28.2 163.5 30 L 166.5 31 L 168 30.5 Q 168.6 35.9 167.5 36 L 123.5 36 L 124 34.5 L 125.5 22 L 126 32 L 128 31.5 L 128 16 L 183.5 16 L 184 15.5 L 184 8 L 167 7.5 L 188 7 L 189 12.5 L 188 15.5 L 188.5 21 L 189.5 16 L 191 21.5 L 189 22.5 L 191.5 24 L 195.5 24 Q 202.3 26 200 20 L 196 18 L 194.5 23 L 194 20.5 L 195 18.5 L 194.5 17 L 196 17.5 L 195 14.5 Q 198.5 13 196 11.5 L 198.5 7 L 203.5 8 L 204.5 7 L 223 7 L 225 15.5 L 224 20 L 217 20 L 217 24 L 228 23.5 L 227 21.5 L 228 21.5 L 229.5 24 L 232 22.5 L 231.5 21 L 230 21.5 L 232 17.5 L 232 15.5 L 233.5 8 L 234 12.5 L 233 16 L 248 16 L 248 7 L 236.5 8 L 236.5 7 L 240.5 6 Z M 200 9 L 200 11 L 200 12 L 204 12 Q 206 7 200 9 Z M 173 24 L 172 28 L 176 28 Q 178 22 173 24 Z M 216 27 L 215 29 L 224 29 L 216 27 Z " /><path fill="rgb(255,255,255)" stroke="rgb(255,255,255)" stroke-width="1" opacity="1" d="M 167.5 9 L 169 13.5 L 168 13.5 L 167.5 9 Z " /><path fill="rgb(252,252,252)" stroke="rgb(252,252,252)" stroke-width="1" opacity="0.3058823529411765" d="M 73.5 1 L 92 1.5 L 73.5 2 L 73.5 1 Z " /><path fill="rgb(252,252,252)" stroke="rgb(252,252,252)" stroke-width="1" opacity="0.3058823529411765" d="M 105.5 1 L 123.5 1 L 125 2.5 L 124.5 13 L 124 2 L 105.5 2 L 105.5 1 Z " /><path fill="rgb(252,252,252)" stroke="rgb(252,252,252)" stroke-width="1" opacity="0.3058823529411765" d="M 95.5 3 L 96.5 5 L 95.5 3 Z " /><path fill="rgb(252,252,252)" stroke="rgb(252,252,252)" stroke-width="1" opacity="0.3058823529411765" d="M 28.5 5 L 53 5.5 L 28.5 6 L 28.5 5 Z " /><path fill="rgb(252,252,252)" stroke="rgb(252,252,252)" stroke-width="1" opacity="0.3058823529411765" d="M 165.5 5 L 188 5.5 L 165.5 6 L 165.5 5 Z " /><path fill="rgb(252,252,252)" stroke="rgb(252,252,252)" stroke-width="1" opacity="0.3058823529411765" d="M 232.5 5 L 254.5 5 L 256 6.5 L 255.5 8 L 255 6 L 232.5 6 L 232 8.5 L 231 8.5 L 232.5 5 Z " /><path fill="rgb(252,252,252)" stroke="rgb(252,252,252)" stroke-width="1" opacity="0.3058823529411765" d="M 21.5 6 L 24 6.5 L 21.5 7 L 21.5 6 Z " /><path fill="rgb(252,252,252)" stroke="rgb(252,252,252)" stroke-width="1" opacity="0.3058823529411765" d="M 58.5 6 L 61 6.5 L 58.5 7 L 58.5 6 Z " /><path fill="rgb(252,252,252)" stroke="rgb(252,252,252)" stroke-width="1" opacity="0.3058823529411765" d="M 188.5 7 L 189 9.5 L 188 9.5 L 188.5 7 Z " /><path fill="rgb(252,252,252)" stroke="rgb(252,252,252)" stroke-width="1" opacity="0.3058823529411765" d="M 189.5 12 L 190 14.5 L 189 14.5 L 189.5 12 Z " /><path fill="rgb(252,252,252)" stroke="rgb(252,252,252)" stroke-width="1" opacity="0.3058823529411765" d="M 230.5 13 L 231 16.5 L 230 16.5 L 230.5 13 Z " /><path fill="rgb(252,252,252)" stroke="rgb(252,252,252)" stroke-width="1" opacity="0.3058823529411765" d="M 92 14 L 94 14.5 Q 91.5 16 93 21.5 L 91.5 23 L 77.5 23 L 76.5 24 L 77.5 22 L 92 22 L 92 14 Z " /><path fill="rgb(252,252,252)" stroke="rgb(252,252,252)" stroke-width="1" opacity="0.3058823529411765" d="M 33.5 15 L 32.5 17 L 33.5 15 Z " /><path fill="rgb(252,252,252)" stroke="rgb(252,252,252)" stroke-width="1" opacity="0.3058823529411765" d="M 190.5 17 L 191 19.5 L 190 19.5 L 190.5 17 Z " /><path fill="rgb(252,252,252)" stroke="rgb(252,252,252)" stroke-width="1" opacity="0.3058823529411765" d="M 145 20 L 168 20.5 L 164 21.5 Q 166.3 22.8 165 27.5 L 164.5 29 L 169 29.5 L 147.5 30 L 145 29.5 L 145.5 28 L 164 28 L 164 22 L 145.5 22 L 145 20 Z " /><path fill="rgb(252,252,252)" stroke="rgb(252,252,252)" stroke-width="1" opacity="0.3058823529411765" d="M 105.5 22 L 123 22.5 L 105.5 23 L 105.5 22 Z " /><path fill="rgb(252,252,252)" stroke="rgb(252,252,252)" stroke-width="1" opacity="0.3058823529411765" d="M 39.5 26 L 43 26.5 L 39.5 27 L 39.5 26 Z " /><path fill="rgb(252,252,252)" stroke="rgb(252,252,252)" stroke-width="1" opacity="0.3058823529411765" d="M 212.5 26 L 213 28.5 L 212 28.5 L 212.5 26 Z " /><path fill="rgb(252,252,252)" stroke="rgb(252,252,252)" stroke-width="1" opacity="0.3058823529411765" d="M 26.5 34 L 31 34.5 L 26.5 35 L 26.5 34 Z " /><path fill="rgb(252,252,252)" stroke="rgb(252,252,252)" stroke-width="1" opacity="0.3058823529411765" d="M 51.5 34 L 56 34.5 L 51.5 35 L 51.5 34 Z " /><path fill="rgb(252,252,252)" stroke="rgb(252,252,252)" stroke-width="1" opacity="0.0196078431372549" d="M 92 0 L 101.5 5 L 102.5 2 L 103 7.5 L 102 7.5 L 101.5 6 L 100 6.5 L 98.5 4 L 97 4.5 Q 97.8 2.3 95.5 3 Q 93.8 -0.1 92 1.5 L 92 0 Z " /><path fill="rgb(252,252,252)" stroke="rgb(252,252,252)" stroke-width="1" opacity="0.0196078431372549" d="M 72.5 1 L 73 10.5 L 72 10.5 L 72.5 1 Z " /><path fill="rgb(252,252,252)" stroke="rgb(252,252,252)" stroke-width="1" opacity="0.0196078431372549" d="M 104.5 1 L 105 8.5 L 104 8.5 L 104.5 1 Z " /><path fill="rgb(252,252,252)" stroke="rgb(252,252,252)" stroke-width="1" opacity="0.0196078431372549" d="M 126.5 1 L 127 11 L 163 10.5 L 161 6.5 L 162.5 5 L 165 5.5 L 163 9.5 L 165 9.5 L 163.5 13 L 162.5 12 L 127.5 12 L 126 12.5 L 126.5 1 Z " /><path fill="rgb(252,252,252)" stroke="rgb(252,252,252)" stroke-width="1" opacity="0.0196078431372549" d="M 70.5 2 L 71 9.5 L 70 9.5 L 69.5 8 L 68.5 9 Q 66.8 5.9 65 7.5 L 64.5 6 L 61 6.5 Q 61.9 3.1 56.5 5 L 53 5.5 L 53.5 4 L 28.5 4 L 27.5 5 L 21 5 L 20.5 7 L 17 6.5 L 16.5 8 L 15.5 7 Q 13.8 10.1 12 8.5 L 11.5 10 Q 10.3 7.8 9 10.5 L 7.5 13 L 6 12.5 L 5 14.5 L 5.5 16 L 4 15.5 L 5 20.5 L 4 24.5 L 6 24.5 L 5 26.5 Q 7.5 24.7 10 29.5 L 11.5 32 L 12.5 31 Q 14.2 34.1 16 32.5 Q 15.2 35.1 18.5 34 L 20 33.5 L 19.5 35 L 23.5 34 L 26 34.5 L 25.5 36 L 57 35.5 L 56.5 34 Q 57.7 36.3 62.5 35 L 62.5 33 L 66 33.5 L 66.5 32 L 67.5 33 L 72 30.5 L 74.5 27 L 77 27.5 Q 72.2 34.2 62.5 36 Q 57.7 34.8 56.5 37 L 25.5 37 L 15.5 35 Q 8.1 32.4 4 26.5 L 2 19.5 Q 3.1 12.1 8.5 9 L 20.5 4 Q 26.8 5.8 28.5 3 L 53.5 3 L 54.5 4 L 65.5 5 L 69.5 7 L 70.5 2 Z " /><path fill="rgb(252,252,252)" stroke="rgb(252,252,252)" stroke-width="1" opacity="0.0196078431372549" d="M 164.5 3 L 188 3.5 L 164.5 4 L 164.5 3 Z " /><path fill="rgb(252,252,252)" stroke="rgb(252,252,252)" stroke-width="1" opacity="0.0196078431372549" d="M 231.5 3 L 256 3.5 L 231.5 4 L 231.5 3 Z " /><path fill="rgb(252,252,252)" stroke="rgb(252,252,252)" stroke-width="1" opacity="0.0196078431372549" d="M 197.5 4 L 224 4.5 L 197 5 L 196.5 7 L 196 5.5 L 197.5 4 Z " /><path fill="rgb(252,252,252)" stroke="rgb(252,252,252)" stroke-width="1" opacity="0.0196078431372549" d="M 229.5 5 L 231 12.5 L 230 12.5 L 229.5 9 L 229 16.5 L 230 20.5 L 228 21.5 L 229 18.5 L 227 18.5 L 228 15.5 L 226 15.5 L 227 11.5 L 226 11.5 L 225.5 13 L 225 11.5 L 226 8.5 L 224 8.5 L 225.5 6 L 227.5 11 L 229.5 5 Z " /><path fill="rgb(252,252,252)" stroke="rgb(252,252,252)" stroke-width="1" opacity="0.0196078431372549" d="M 257.5 5 L 258 9.5 L 255.5 16 L 254 12.5 L 256 12.5 L 255 8.5 L 256 8.5 L 256.5 10 L 257.5 5 Z " /><path fill="rgb(252,252,252)" stroke="rgb(252,252,252)" stroke-width="1" opacity="0.0196078431372549" d="M 190.5 6 L 192.5 13 L 194.5 6 L 196 10.5 L 195 10.5 L 194.5 9 L 194 12.5 L 194.5 14 L 193 13.5 L 194 17.5 L 192 16.5 L 191.5 15 L 190.5 17 L 190 15.5 L 191 10.5 L 190 10.5 L 189.5 12 L 189 10.5 L 190.5 6 Z " /><path fill="rgb(252,252,252)" stroke="rgb(252,252,252)" stroke-width="1" opacity="0.0196078431372549" d="M 37.5 14 L 40.5 15 L 44.5 14 L 45.5 16 Q 46.8 13.8 48 16.5 Q 46.3 22.8 49 24.5 L 47 24.5 L 46.5 26 L 43.5 25 Q 38.8 23.8 37.5 26 L 35 25.5 L 34.5 24 L 33 24.5 L 34 21.5 L 33 21.5 L 32.5 23 L 32 21.5 L 33 19.5 L 32 17.5 L 33 17.5 L 33.5 19 L 35.5 15 L 37 15.5 L 37.5 14 Z M 39 16 L 35 17 L 34 20 L 35 23 L 37 24 L 46 24 Q 49 22 47 17 L 39 16 Z " /><path fill="rgb(252,252,252)" stroke="rgb(252,252,252)" stroke-width="1" opacity="0.0196078431372549" d="M 94.5 15 L 96.5 18 L 98 17.5 L 99.5 20 L 101 19.5 L 102.5 22 Q 103.8 19.8 105 22.5 L 105.5 24 L 119.5 24 L 121 23.5 L 120.5 37 L 120 25 L 105.5 25 L 95.5 18 L 94.5 23 L 94.5 15 Z " /><path fill="rgb(252,252,252)" stroke="rgb(252,252,252)" stroke-width="1" opacity="0.0196078431372549" d="M 254.5 17 L 255 19.5 L 250.5 32 L 249 28.5 L 250 28.5 L 250.5 30 L 251 26.5 L 250.5 25 L 252 25.5 L 251 22.5 L 253 22.5 L 252 18.5 L 253 18.5 L 253.5 20 L 254.5 17 Z " /><path fill="rgb(252,252,252)" stroke="rgb(252,252,252)" stroke-width="1" opacity="0.0196078431372549" d="M 49.5 18 L 50 22.5 L 49 22.5 L 49.5 18 Z " /><path fill="rgb(252,252,252)" stroke="rgb(252,252,252)" stroke-width="1" opacity="0.0196078431372549" d="M 210.5 19 L 211 21.5 L 210 25.5 L 211 25.5 L 211.5 24 L 212 25.5 L 211 30.5 L 212 30.5 L 212.5 29 L 213 30.5 Q 211.5 33.5 210 30.5 L 209.5 29 L 208.5 32 L 207 26.5 L 208 26.5 L 208.5 29 L 209 24.5 L 208 22 Q 211.1 23.1 210.5 19 Z " /><path fill="rgb(252,252,252)" stroke="rgb(252,252,252)" stroke-width="1" opacity="0.0196078431372549" d="M 191 20 L 193 20.5 L 191 21.5 L 191 20 Z " /><path fill="rgb(252,252,252)" stroke="rgb(252,252,252)" stroke-width="1" opacity="0.0196078431372549" d="M 166.5 21 L 169 21.5 L 168 25.5 L 169 25.5 L 169.5 24 L 170 25.5 L 169 28.5 L 171 28.5 L 169.5 30 Q 167.8 26.9 166 28.5 L 166.5 21 Z " /><path fill="rgb(252,252,252)" stroke="rgb(252,252,252)" stroke-width="1" opacity="0.0196078431372549" d="M 78.5 23 L 79.5 24 L 93 24.5 L 78.5 25 L 77.5 26 L 76.5 24 L 78.5 23 Z " /><path fill="rgb(252,252,252)" stroke="rgb(252,252,252)" stroke-width="1" opacity="0.0196078431372549" d="M 122.5 23 L 123 36.5 L 122 36.5 L 122.5 23 Z " /><path fill="rgb(252,252,252)" stroke="rgb(252,252,252)" stroke-width="1" opacity="0.0196078431372549" d="M 170 31 L 173.5 33 L 207 33.5 L 173 34 L 172.5 37 L 171.5 32 L 170.5 37 L 170 31 Z " /><path fill="rgb(252,252,252)" stroke="rgb(252,252,252)" stroke-width="1" opacity="0.0196078431372549" d="M 248.5 32 L 249 34 L 213 33.5 L 247.5 33 L 248.5 32 Z " /><path fill="rgb(252,252,252)" stroke="rgb(252,252,252)" stroke-width="1" opacity="0.0196078431372549" d="M 123.5 38 L 170 38.5 L 123.5 39 L 123.5 38 Z " /></svg>