<svg xmlns="http://www.w3.org/2000/svg" width="802" height="411" overflow="hidden"><defs><clipPath id="a"><path d="M226 169h802v411H226z"/></clipPath><clipPath id="b"><path d="M227 170h800v410H227z"/></clipPath><clipPath id="c"><path d="M227 170h801v410H227z"/></clipPath><clipPath id="d"><path d="M227 170h801v410H227z"/></clipPath></defs><g clip-path="url(#a)" transform="translate(-226 -169)"><g clip-path="url(#b)"><g clip-path="url(#c)"><g clip-path="url(#d)"><path fill="#FFF" d="M385.96 375.304c15.073-16.573 29.705-33.584 45.428-49.548 9.202-9.379 18.404-18.818 26.515-29.235 6.721-8.64 7.002-15.056.15-20.952-6.49-5.598-14.132-6.915-22.394-4.8-16.313 4.171-31.896 10.507-47.829 15.795-37.217 12.252-73.454 27.428-111.19 38.254-9.502 2.734-19.104 4.859-29.636 4.989a50.507 50.507 0 0 1 3.08-5.548c7.062-9.529 15.513-17.87 23.635-26.46 15.143-16.024 31.886-30.322 49.49-43.662 22.364-16.962 44.698-33.924 70.592-45.368 10.292-4.54 20.904-7.852 32.447-7.852 4.85 0 6.681 1.177 5.781 5.986-1 5.159-1.1 10.117 1.88 14.897 3.35 5.358 7.131 6.585 12.753 4.04 8.64-3.89 11.932-12.312 13.812-19.885 2-7.982 1.9-17.061-1.67-25.213-2.87-6.525-8.002-10.975-15.883-10.556-9.602.588-18.294 4.39-26.655 8.48-16.493 8.093-31.676 18.43-46.01 29.824-18.132 14.287-36.826 27.767-55.92 40.728a358.41 358.41 0 0 0-46.528 37.436 253.193 253.193 0 0 0-19.284 20.015c-7.071 8.391-13.412 16.961-16.003 27.937-1.74 7.373.59 14.497 6.621 18.678 3.65 2.524 12.303 1.696 17.264-1.487 2.42-1.557 4.67-3.263 7.561-4.26 13.002-4.48 25.865-9.15 38.657-14.099 15.803-6.126 31.386-12.841 47.01-19.426 19.623-8.271 39.237-16.623 59.37-23.617 7.312-2.544 14.823-4.54 22.334-6.455 4.202-1.068 4.781 0 3.802 4.5a38.167 38.167 0 0 1-5.502 13.3c-8.071 12.192-18.273 22.609-27.745 33.634a6637.41 6637.41 0 0 0-39.487 46.346c-9.002 10.596-18.214 21.032-26.876 31.928-12.572 15.774-24.844 31.778-37.007 47.842-15.182 20.015-29.735 40.489-42.318 62.26-6.31 10.925-15.122 19.765-24.004 28.466-3 2.933-5.101 5.587-5.181 9.768-.08 3.991 1.54 4.649 5.271 3.602a13.844 13.844 0 0 0 8.602-7.244c7.631-14.477 18.413-26.69 28.255-39.551 14.553-19.007 30.006-37.356 44.318-56.503 13.623-18.179 28.745-35.091 43.078-52.661 9.482-11.704 19.274-23.188 29.416-34.323Zm-147.638-50.985c15.753-23.188 37.007-40.679 59.221-57.211-20.244 18.548-38.427 39.231-59.22 57.211Zm63.232 3.253c23.515-12.822 49.01-20.604 74.314-28.935-24.345 10.606-48.85 21.072-74.314 28.935Zm-22.174 168.8c4.71-15.525 104.02-138.908 125.663-156.079-39.887 53.14-82.805 103.836-125.663 156.079Z"/><path fill="#FFF" d="M915.28 448.25c-9.602-9.389-21.644-14.418-34.006-18.808-2.481-.888-5.642-.08-7.382-2.863l-9.852-3.263c-5.691.688-10.842-1.766-16.253-2.734-9.002-1.586-18.004-2.624-27.005-4.121-7.231-1.217-14.463-2.354-21.774-2.993-7.311-.638-14.493-1.995-21.624-2.933.34-1.377.51-2.515.89-3.572 7.551-21.382 15.933-42.455 24.555-63.427 1.52-3.672 1.45-8.032 5.42-10.916 11.683-8.481 23.905-16.094 36.158-23.667 23.514-14.537 46.138-30.511 71.013-42.903a27.144 27.144 0 0 0 13.002-12.851c1.14-2.405.94-3.163-1.84-3.303-6.071-.319-11.562.779-16.584 4.53-12.352 9.22-24.424 18.788-37.246 27.379-12.523 8.391-25.225 16.502-37.178 25.752-6.13 4.739-12.772 8.83-19.273 13.09-1 .649-2.35 1.816-3.61.908-1.26-.908-.711-2.514-.49-3.722a58.394 58.394 0 0 1 1.92-7.463c3.29-10.097 6.661-20.174 10.001-30.252 5.912-17.86 11.173-35.919 18.394-53.36 1.82-4.4 4.23-9.638 1.67-15.036-.42-.878-.82-2.434-1.39-2.294a4.337 4.337 0 0 0-2.46 2.195c-.75 1.586-.351 3.85-3.261 4.42v-8.72l-3.291 1.765c-3.69 1.996-8.002 3.283-8.54 8.531-.221 2.255-.752 4.48-1.142 6.715-3 17.34-7.161 34.452-10.861 51.644-3.751 17.401-11.162 33.853-16.483 50.885-2.811 8.98-8.282 14.837-15.693 19.955-13.634 9.369-26.826 19.367-40.458 28.726-10.772 7.383-19.944 17.071-32.606 21.81-5.751 2.146-7.441 7.763-5.731 14.608 1.67 6.685 6.08 10.536 12.002 10.576 7.571.05 14.892-2.076 22.344-2.614 8.062-.579 16.163-2.465 24.564-.998a199.139 199.139 0 0 1-29.655 57.77c-5.001 6.695-4.07 11.614-1.35 17.58 2 4.301 6.492 4.38 9.132.459 5.28-7.822 7.65-16.962 11.762-25.373a496.332 496.332 0 0 0 19.183-44.33c2.55-6.725 7.202-8.98 14.443-7.244a9.975 9.975 0 0 0 2.34.679c14.483-.09 28.746 2.175 43.009 3.991 11.052 1.417 21.864 3.652 32.166 7.982 3.71-.279 6.641 1.856 9.831 3.163.75.279 1.48.589 2.24.818 8.753 2.584 14.594 8.79 20.004 15.675 2.781 3.552 1.741 7.563 1.681 11.374 0 2.435 1.3 3.283 2.94 3.792 6.322 1.995 12.403 1.636 18.304-1.846 4.141-2.455 5.27-5.298 2.67-9.449a31.76 31.76 0 0 0-4.6-5.717Zm-147.598-42.973c-.61 2.115-1.44 3.332-4.231 3.352-12.362.05-24.154-2.893-35.877-6.296-2.91-.838-4.15-2.225-2.35-5.657 2.06-3.911 5.72-5.847 8.762-8.411 15.762-13.34 31.645-26.53 48.839-38.054a18.797 18.797 0 0 1 5.441-2.854c-2.181 10.686-6.231 19.805-9.733 29.055-3.64 9.618-8.001 18.957-10.85 28.865Z"/><path fill="#FFF" d="M520.055 446.294c-2.25-11.763-4.8-23.467-6.691-35.29-2.08-12.971-3.58-26.112-5.29-39.172-1.001-7.753-2.412-15.475-2.852-23.258-.51-8.89-1.78-17.75-1.21-26.7a4.077 4.077 0 0 1 1.79-3.312 9087.038 9087.038 0 0 1 33.097-23.108c8.271-5.737 17.253-10.167 26.384-14.368 5.331-2.454 7.402-6.316 5.592-9.628-2.4-4.39-5.841-7.703-10.872-9.14-5.49-1.566-9.002.16-11.332 5.358a39.12 39.12 0 0 1-8.352 12.502c-6.72 6.386-12.883 13.36-20.234 19.047-4.64 3.582-8.672 7.982-13.842 10.856-1.81.998-3.4 1.437-3.12-1.387.53-5.328-1.18-10.436-1.112-15.735.301-22.629-.499-45.268 1.891-67.847.88-8.281 1-16.662 2.071-24.944.63-4.869.27-9.788-2.531-14.218-2.8-4.43-11.422-5.497-14.253-1.167-5.47 8.391-8.701 17.57-7 27.727.5 2.994.59 5.847.9 8.77.95 8.741 2 17.481 3.19 26.192 1.49 10.786 3.18 21.531 4.76 32.297 1.33 8.98 3.101 17.96 3.752 27.019.32 4.44 2.73 10.078-1.94 13.53-20.955 15.485-41.208 31.848-61.852 47.722-20.964 16.024-41.468 32.477-60.782 50.507-3.9 3.632-7.882 7.333-12.162 10.686-5.781 4.539-11.003 9.887-11.122 18.209-.06 3.083 1.45 3.422 3.6 2.993 6.001-1.327 11.382-4.101 15.093-9.159a80.135 80.135 0 0 1 10.152-11.973c7.282-6.675 14.843-13.061 21.904-19.956 17.593-17.191 34.396-35.2 54.21-50.007 13.803-10.327 27.576-20.693 41.198-31.25 3.001-2.334 4.281-.858 4.761 1.597a159.299 159.299 0 0 1 3.06 19.715c.941 13.52 3.811 26.76 5.402 40.18 1.47 12.422 2.87 24.944 4.7 37.276 1.24 8.361 2.911 16.672 3.621 25.074.74 8.78 4 17.221 3.271 27.757-1.32 4.869 1.13 9.459 6.691 12.921 1.6.998 3 2.534 4.771 1.527 1.77-1.008 3.56-2.275 3.691-4.869.19-3.572-1.08-6.675-2.491-9.798a147.844 147.844 0 0 1-10.512-33.176ZM752.51 274.87c8.24-13.59 16.672-27.039 27.074-39.182 4.291-4.988 9.211-9.678 11.532-16.203 2.941-8.262.59-11.365-5.1-12.781-7.622-1.886-12.243-1.327-15.824 5.747a77.9 77.9 0 0 1-4.34 8.121 508.14 508.14 0 0 0-28.426 48.551c-5.551 10.756-10.352 21.951-15.453 32.926-7.112 15.365-13.472 31.06-20.153 46.615-2.881 6.685-5.202 13.849-10.453 20.145-.89-3.852.39-6.675.58-9.579 1.001-15.485 3.151-30.84 4.922-46.246 1.92-16.812 5.85-33.125 9.741-49.518 1.891-7.982 5.251-15.705 5.371-24.076.09-5.986-3.29-10.267-8.001-10.406-5.411-.15-11.632 5.108-11.902 10.296-.19 3.602-.821 7.234-.86 10.746-.25 19.446-1.701 38.813-3.19 58.179-.631 8.162-1.132 16.343-2.092 24.475-1.45 12.272-3.29 24.505-4.88 36.767-1.57 12.043-3.001 24.116-9.393 34.862-1.32 2.225-2.38 4.699-1.52 6.984 2.15 5.657-.57 9.848-3.07 14.517-12.142 22.669-24.004 45.468-36.006 68.247-7.072 13.469-14.233 26.939-21.005 40.499-5.951 11.853-13.183 23.068-18.003 35.48-1.7 4.4-.52 9.907 1.93 9.848 4.111-.08 6.181-2.834 7.132-6.765a199.212 199.212 0 0 1 8.951-27.009c7.682-19.267 18.003-37.286 26.786-56.034 10.232-21.851 21.473-43.223 33.135-64.365 2.911-5.288 4.77-6.476 10.563-4.989 4.14 1.077 7.15-.27 9.352-3.632 4.06-6.226 4.74-13.39 5.05-20.484a87.566 87.566 0 0 1 2.23-15.435c2.892-12.921 9.312-24.216 15.774-35.62 13.272-23.457 25.524-47.543 39.547-70.681Zm7.75-36.049 2.32.998c-14.652 36.648-35.196 70.392-53.539 105.223 13.412-37.186 29.746-72.946 51.219-106.19Z"/><path fill="#FFF" d="M597.21 378.138c-.95 10.546-.39 21.172 6.261 30.491 3.33 4.65 9.871 7.922 16.643 4.69 6.432-3.064 11.532-8.042 13.792-14.967 4.461-13.589 6.302-27.717 8.303-41.846.77-5.467-.681-11.584 3.16-16.143 2.15 6.176 4.25 12.591 6.621 18.897 2.15 5.707 5.261 10.916 10.062 14.817 3.19 2.594 7.561 5.218 10.952 2.534 3.69-2.923 4.18-8.401 3.84-13.11-.339-4.71-3.66-7.174-8.32-7.873-3.392-.508-5.752-2.354-7.622-5.318-7.531-11.893-9.723-25.333-10.722-38.912-.87-11.784-.78-23.747 1.92-35.39 1.05-4.5-.06-9.978 7.322-11.684 6.371-1.507 8.001-8.81 4.56-14.428-2.06-3.362-5.92-5.517-5.44-10.536.17-1.806-3-3.223-5.432-3.412a57.14 57.14 0 0 0-6 0c-5.742.17-9.852 4.44-10.153 10.207-.12 2.404.38 4.75-.74 7.244-4 8.83-7.742 17.74-11.222 26.769-7.421 19.227-14.533 38.553-20.114 58.439a217.26 217.26 0 0 0-7.67 39.531Zm9.091-15.685c2.001-15.365 6.752-30.142 12.733-44.46 4.861-11.644 10.432-22.948 17.673-33.305a11.293 11.293 0 0 1 1.81-1.666c1.911 4.31 1.22 8.281.69 12.532-.83 6.655-.35 13.429-1.09 20.184-2.32 21.103-4.91 42.135-13.643 61.771-2.33 5.228-5.82 9.978-8.881 14.857a4.183 4.183 0 0 1-4.12 2.235c-2.22-.18-2.68-1.996-3.1-3.383a66.69 66.69 0 0 1-2.072-28.765ZM966.22 362.214c1-6.626.86-13.42 4.66-19.656 6.222-10.207 11.382-21.053 17.423-31.39 7.742-13.27 14.693-27.059 24.715-38.912 2.51-2.993 3.78-6.755 4.871-10.466.5-1.697.41-3.662-1.43-4.9-1.84-1.237-2.761.45-4.101 1.098-3.81 1.826-5.711 5.278-7.582 8.65-5.51 9.898-10.361 20.205-15.632 30.183-7.792 14.737-14.783 29.932-22.145 44.899-.87 1.766-1.54 4.849-4.32 2.055-3-2.993-6.121-2.415-9.482-1.127-5.571 2.125-10.092 5.846-14.362 9.798-13.083 12.092-24.376 25.801-35.008 39.99-5.921 7.852-11.851 15.834-15.273 25.183-1.69 4.619-.45 9.169 3.002 12.701 3.45 3.532 7.47 4.051 12.092 2.205 3.68-1.466 6.631-3.991 9.921-6.046 7.392-4.56 13.863-10.586 22.005-14.058a6.211 6.211 0 0 1 .07 4.1c-1.38 6.037-5.222 10.646-8.602 15.575-3 4.321-2.7 9.16.28 12.083 3.461 3.392 7.002 2.534 10.682.289 2.62-1.606 3.41-4.27 4-6.894 3.772-16.533 8.403-32.716 15.504-48.251 3.88-8.601 7.29-17.541 8.711-27.109Zm-20.085 28.166c-2 5.987-6.791 9.06-11.642 11.893-9.611 5.628-19.543 10.666-30.366 13.729-1.66.469-3.45 1.058-4.71 0-1.47-1.197.22-2.743.67-3.991 3.17-8.79 8.621-16.293 14.463-23.417 7.181-8.76 15.002-16.962 24.424-23.487a63.607 63.607 0 0 1 15.303-8.182c2.68-.927 4.25-.319 3.73 2.994-.33 3.921-2.45 7.233-4 10.785-2.701 6.516-5.641 12.981-7.872 19.676ZM609.452 276.955c2-4.988-.05-8.181-5.321-8.071-4.911.11-7.071 3.991-9.081 7.323-11.363 19.077-19.135 39.781-27.106 60.384-4.14 10.716-6 22.26-11.932 33.136 0-8.821-.14-16.902 0-24.944.15-6.745-.32-13.45.78-20.235 1-6.276.34-12.781-3.85-18.179-2.661-3.432-4.522-3.292-6.461.489a30.688 30.688 0 0 0-3.402 18.459 169.366 169.366 0 0 1 1.901 23.477c0 11.624-.28 23.257.08 34.871.3 9.738.44 19.297-4 28.336a20.515 20.515 0 0 0-2.001 12.393c.61 3.761 2.17 6.984 6.411 8.301 2.48.798 4.901 1.606 6.86-.2 3.192-2.933 6.183-5.687 7.003-10.765.67-3.991-.32-7.394-.45-11.036a138.823 138.823 0 0 1 5.53-43.003c4.541-15.964 9.623-31.718 16.423-46.894 6.392-14.328 13.724-27.937 24.906-39.192 1.45-1.447 2.94-2.744 3.71-4.65ZM1023.09 375.544c-1.92-.998-3.8-.839-5.751-.938-4.3-.23-8.661.518-13.253-.469a42.043 42.043 0 0 1 11.452-7.334 17.994 17.994 0 0 0 6.322-4.53 4.89 4.89 0 0 0 1.12-5.587c-.94-2.165-2.57-2.993-5-3.103-3.212-.15-5.792 1.187-8.143 2.854a3542.518 3542.518 0 0 0-36.006 25.861 18.952 18.952 0 0 0-7.652 12.153c-.95 5.508.83 10.676 8.162 10.167 4-.279 7.111-2.155 10.202-4.19 7-4.59 13.803-9.349 20.683-14.039-5.34 8.351-12.932 14.488-19.183 21.801a215.132 215.132 0 0 0-16.783 22.669c-5.1 7.862-12.003 14.547-16.283 23.657 3.6-.22 5.441-1.996 7.3-3.881a20294.816 20294.816 0 0 1 43.12-42.984c1.15-1.137 2.48-2.165 3.67-3.232 7.002-6.256 14.192-12.343 18.884-20.684 2.12-3.751.93-6.306-2.861-8.191ZM873.851 426.579c1.39-16.743 6.712-32.497 12.233-48.182 2.53-7.204 5.341-14.288 4.901-22.11-.41-7.503-4.681-9.868-11.002-6.206-.908.334-1.856.545-2.82.628-2.23.529-4.001 1.846-4.101 4.151-.1 2.305-1 4.52-1 6.725a189.325 189.325 0 0 1-4.12 41.906c-1.451 6.595-1.102 13.549-4.002 19.855ZM862.17 430.45a7.677 7.677 0 0 1 .82 4.739c-1.79 10.686-3.801 21.332-5.351 32.058-.9 6.246-3.23 12.622.2 19.127a6.6 6.6 0 0 0 3.28-3.851c3.231-8.611 2.63-17.88 4.871-26.64 1.901-7.454 2.08-15.366 6.002-22.27-3.18-1.307-6.112-3.442-9.822-3.163ZM869.961 330.176c-.12 3.991 1.55 5.856 5.582 5.537 5 0 11.381-6.565 11.451-11.813.06-3.732-1.83-5.927-5.5-6.087-5.172-.229-11.373 6.735-11.533 12.363Z"/></g></g></g></g></svg>