<svg xmlns="http://www.w3.org/2000/svg" viewBox="332 -40 838 720"><path fill="#fff" d="M598.218 34.239c1.181 1.652 5.828-.296 7.693-.528 7.56-.94 15.168-1.694 22.771-2.214 28.351-1.941 58.287 2.118 85.548 9.911 76.039 21.74 143.775 73.572 179.413 144.847 31.277 62.553 33.142 137.233 1.951 200.021-13.165 26.498-32.17 50.815-57.658 66.595-16.9 10.463-34.315 17.47-53.545 22.07-18.592 4.45-38.33 4.496-57.237 2.025-31.35-4.096-61.64-19.75-84.753-41.044-5.613-5.167-10.792-10.777-15.565-16.72-2.496-3.107-4.671-7.28-7.693-9.846-.222 2.203 1.12 4.708 1.874 6.77 1.625 4.455 3.262 8.85 5.102 13.232 7.213 17.18 16.47 33.403 27.65 48.313 47.854 63.803 126.354 102.574 206.015 100.623 107.107-2.625 197.716-86.64 239.666-180.324 8.754-19.553 15.374-39.857 20.436-60.622 4.939-20.258 7.151-40.502 8.57-61.237.692-10.098 1.243-21.332-.028-31.388-1.52 1.06-1.816 4.158-2.557 5.846-2.518 5.74-4.78 11.568-7.484 17.233-8.121 17.026-17.651 33.8-29.782 48.313-4.022 4.81-8.053 9.856-12.798 13.977-.893.775-3.191 3.905-4.518 3.456-1.058-.357-.43-2.49-.409-3.278.086-3.585 0-7.182 0-10.77 0-14.708-.652-29.412-2.548-44.005-6.908-53.15-28.59-105.82-61.351-148.323-14.444-18.742-30.51-36.438-48.725-51.61C899.794 26.864 827.128.082 751.157.082c-12.481 0-25.153.084-37.542 1.626-25 3.11-50.39 7.769-74.162 16.249-8.973 3.2-18.002 6.324-26.772 10.088-4.287 1.84-9.9 5.688-14.463 6.194M373.27 394.277c1.464-1.034 1.689-4.197 2.455-5.847 2.628-5.653 4.65-11.616 7.386-17.232 8.302-17.045 17.86-33.545 29.827-48.313 3.949-4.874 8.207-9.857 12.953-13.977.886-.77 3.2-3.909 4.514-3.457.99.341.418 2.518.41 3.279-.04 3.588 0 7.182 0 10.77 0 15.035.587 30.034 2.59 44.928 7.204 53.544 29.228 106.987 62.785 149.554 45.15 57.268 106.19 97.235 176.496 115.828 22.781 6.022 45.823 7.788 69.238 8.813 15.196.665 31.056.634 46.16-1.332 25.066-3.265 50.617-7.733 74.469-16.387 8.831-3.206 17.87-6.102 26.464-9.958 4.25-1.904 9.872-5.711 14.463-6.185-1.185-1.668-4.982.136-6.77.39-6.551.936-13.112 1.389-19.694 2.02-25.034 2.403-51.597-.545-76.008-6.176-67.67-15.605-133.612-56.437-173.068-114.4-19.307-28.363-33.225-59.671-40.334-93.241-11.158-52.683-1.532-110.772 26.89-156.632 8-12.913 17.74-23.978 28.649-34.478 13.804-13.284 30.843-23.548 48.62-30.548 17.322-6.821 35.804-10.829 54.467-11.285 36.657-.898 75.153 10.839 103.615 34.508 8.505 7.072 16.137 14.734 23.427 23.032 2.917 3.318 5.606 9.396 9.28 11.693-.125-2.756-1.51-5.435-2.433-8-1.53-4.248-3.025-8.484-4.856-12.617-7.373-16.628-16.14-31.956-26.735-46.775-39.626-55.416-107.846-94.127-175.536-100.573-15.343-1.462-30.81-1.077-46.159-.025-9.04.62-18.276 2.725-27.08 4.742-26.138 5.989-51.039 16.536-73.854 30.676-71.989 44.616-126.229 121.744-144.175 204.58-5.056 23.347-8.764 46.476-8.764 70.469 0 7.14-.997 15.134.308 22.156"/></svg>
