<svg xmlns="http://www.w3.org/2000/svg" width="95" height="27"><g fill="#fff"><path d="M72.36 4.54v4.538h-4.477c-3.965 0-4.48.008-4.496.043-.008.02-.012 1.766-.008 3.875l.004 3.832 4.492.008 4.484.008v9.078h7.758v-9.078h9.149V9.078h-9.149V0H72.36zM17.91 4.54v4.538h-4.48c-3.961 0-4.48.008-4.492.043-.008.02-.012 1.766-.008 3.875l.004 3.832 8.976.016v9.078h7.754v-9.078h9.152V9.078h-9.152V0H17.91zM52.113 4.29l-3.086 3.105-6.093-6.133-2.77 2.754c-1.523 1.52-2.77 2.773-2.77 2.789 0 .015 1.368 1.398 3.04 3.074 1.668 1.672 3.039 3.05 3.043 3.062.007.012-1.368 1.403-3.051 3.094l-3.059 3.078 2.77 2.758a405 405 0 0 0 2.789 2.762c.008 0 1.383-1.375 3.058-3.055l3.051-3.05 3.094 3.109 3.098 3.105L58 21.972l2.766-2.777-.313-.32c-.176-.18-1.562-1.578-3.09-3.11a242 242 0 0 1-2.77-2.808c.009-.035 1.212-1.25 3.778-3.828l2.402-2.406-2.77-2.762a370 370 0 0 0-2.784-2.77c-.012-.004-1.407 1.391-3.106 3.098"/></g></svg>