<svg xmlns="http://www.w3.org/2000/svg" id="_레이어_2" viewBox="0 0 639.84 220.65"><defs><style>.cls-1{fill:#fff}</style></defs><g id="Layer_2"><path d="M302.85 95.23s-.88-.22-.95-.44l.95-1.39v1.9z" class="cls-1"/><path d="M380.75 213.02c1.1 2.49-5.86 3-6.95 2.56-3.95-1.32-7.69-8.27-11.57-10.18l-40.92-40.78c-1.83-.44-9.88 9.81-12.23 11.42-.88.59-2.2 0-2.2.37.22.51.66 1.24.51 1.83-.51 2.64-19.33 18.67-22.55 21.96-3 3-8.49 11.2-11.42 13.32-.37.29-7.61 3.07-8.05 3.07-.29 0-4.69-1.83-5.2-2.12-2.12-1.17-5.86-5.64-7.69-7.47-9.96-10.1-22.99-24.45-35.43-31.99-.95-.59-3.88-3.29-4.47-4.1-1.9-2.93.95-10.4 4.83-10.98v-.95l-1.9-1.9 3.22 1.83 48.97-47.95-5.05-5.86c-4.76-4.69-16.54-13.98-19.77-18.81-.73-1.1.07-2.2 0-2.27-6.95-5.05-11.42-10.91-17.42-15.37-1.02-.81-2.78-.73-3.15-1.1-.44-.51-.15-2.12-1.1-3.15-1.24-1.24-4.39-1.17-4.69-1.54-.44-.51.15-2.49-.59-3.73-1.39-2.34-5.71-.88-3.37-6.95.44-1.17 2.12-.22 2.71-.73.44-.37.22-1.9.66-2.64.66-1.1 9.08-7.39 10.91-9.08 7.32-6.66 14.49-14.86 21.82-21.89 3.37-3.22 7.54-5.86 9.96-10.03 4.54-.81 9.3-.88 13.84.07l-.81 1.76c.81.22 1.54.51 2.2 1.1 12.45 12.52 26.87 25.62 39.97 38.87 2.12 2.2 3.95 5.64 7.47 6.59l53.23-53.14c3.73-2.78 5.93 2.2 8.05 4.32 10.03 10.03 20.64 19.03 29.5 30.16 1.02 1.24 2.86.59 1.9 4.47 2.27-2.12 6.3 2.34 7.61 4.25.73 1.1 3.81 7.17 4.1 8.35 1.32 4.9-3.88 6.73-3.15 11.2-1.46.22-.73-.37-.95-1.24-.88-3.73-2.71 2.49-3.07 2.86-.51.51-1.83.81-2.64 1.61-13.69 13.54-27.16 27.31-40.78 41l.37 1.32c11.86 12.15 24.38 23.79 36.16 36.02 2.64 2.71 5.05 5.78 7.61 8.49 1.68 1.83 5.64 3.44 4.25 6.66l4.25.95.44 3.88-2.86-.95c0 2.12-.29 3.29-1.9 4.76l-.44-.95c-.59 0-.44.88-.44.95-2.2 1.61-.95 1.76-1.61 2.86-3.51 6-23.94 27.75-29.28 31.48-1.02.73-2.05 0-2.2.15-1.39 1.17-.73 4.54-4.9 2.64l-.22 2.64c-.51.51-1.24.07-1.68.22-.15-.22.15-.81-.44-.95-.59 0-.44.88-.44.95-.44.37-.59.51-.95.95 0 0-.95-.15-.95.44l.95.44-.07.07ZM282.8 25.03s-1.17.73-2.27 0c-2.56-1.76-14.13-15.3-15.23-15.3-4.17 3-3.15 7.91-4.32 12.3-4.47-.51-9.66 1.1-12.96 4.17-8.13 7.54-15.96 17.13-23.65 25.26-.95 1.02-2.42 1.32-3.29 2.42l4.76 6.66 9.52.51c.37.44.81 7.32 1.17 8.78.81 3.22 6.81 7.32 9.22 9.74 1.83 1.83 6.08 8.2 8.27 8.86 5.64-.88 10.32-3.59 15.45-5.64-.07-6.15-4.76-9-9.44-11.86 8.42-5.2 5.34-19.18-3.29-22.33-7.54-2.78-10.18 6.88-2.78 7.61 2.12.22 3.66-1.46 5.12-.51-3.51 2.2-4.83 9-9.52 7.69-8.78-2.56-11.2-13.54-4.69-19.91 4.39-4.25 6.95-2.64 11.71-3.44 3.07-.51 5.93-2.05 9.08-1.83-.15 2.12 1.46 10.03 3.37 10.47 3.66-2.05 5.93-5.2 9.96-7.1 1.39-.66 9.96-3.73 10.4-3.22s-.66 2.12 1.02 1.76c0-1.39 1.24-2.64.88-4.1-.15-.44-4.9-5.78-5.93-7.03-1.83-2.2-1.54-2.34-2.64-4.03l.07.07Zm20.05 68.3c-2.56-.88-3.15-5.2 0-4.76v-1.9c-4.76 0 2.05-5.86 3.29-7.61 1.46-2.12 1.9-4.83 3.88-6.59l17.57 10.47c3.07-13.03 13.54-22.84 23.79-30.82 1.1-.88 2.78-1.1 3.73-1.98 1.9-1.68 2.12-5.42 4.32-7.1 1.54 1.39 5.12 3.88 7.03 4.25s5.78-1.46 7.54-.22c.22.15.15 1.24.81 1.68 1.02.66 2.93.66 3.66 1.83.59.95.59 3.37.95 4.76.22 1.02 0 3.07 1.39 2.86.29-1.83-.59-3.51-.81-5.2-.07-.81.73-1.76.59-2.71-.15-.81-1.39-1.46-1.39-2.05 0-.88 2.27-1.68 1.61-3.29-3.95.95-2.93-3.29-5.71-5.2l6.66-4.83c-3.07-6.59 1.83-18.89-3.44-24.08-.81-.81-.88-1.32-2.34-1.02-.15 3.44-3.88 4.25-5.78 6.15-.95.95-5.2 5.27-5.56 5.86-1.54 2.34-1.76 7.98-1.98 10.83-10.83-1.98-13.03 4.9-18.96 10.98-4.98 5.05-10.61 9.81-15.74 14.64-2.05 1.98-3.81 5.05-6.73 6.59-1.9.44-6-6.15-7.98-7.1-2.49-1.24-6.66.29-9.37-1.54.15-8.05-4.39-13.4-10.54-17.94.73 5.93 6.3 10.32 6.66 16.62.44 7.1-5.27 14.93-4.83 22.25-3-.22-6.88 2.49-9.44 4.32s-5.42 3.88-5.71 6.66c3.66-.44 3.81 3.37 5.64 5.71 3.73 4.69 7.17 7.03 13.32 4.25l.88 4.32-1.83 3.22 2.34-1.9 7.1 5.2c3.95-1.76 5.42.88 7.32 1.32 1.02.22 2.12-1.54 3.66-1.76 1.9-.37 4.17.22 6.15 0l-.95-9.52h3.66l1.02-4.76-3.81 3.81c-1.02-6.3-8.93-18.23-15.08-10.83l1.68 4.69c-3.37 1.46-2.49 3.07-3.73 6.15l3.81.95-.95-4.76 2.86.51-1.9-2.34c.88-.51 5.71 2.93 5.71 3.29-4.76 5.12-4.76 8.05-11.71 3.15-2.2-1.54-1.68-1.61-2.49-3.66h1.9v-1.9c-.59-.15-1.46.15-1.9 0l.15.07Zm59.37-73.13c-.59 0-.59.95 0 .95s.59-.95 0-.95M245.83 193.18c.37 0 1.24-.37 1.76.07 2.27 2.2-1.1 4.25-.73 4.54l3.81-.95-1.9 1.39.95.95 2.71-.37.59 1.68 8.13-.88c0 2.12 1.61 10.98 3.37 11.35 1.68-.15 2.86-1.39 4.25-2.2.51-.29 1.24 0 1.39 0 .29-.15-.22-1.32.44-2.05 1.61-2.05 4.17-3.15 5.49-4.54 8.64-9.22 16.69-18.81 25.92-27.75 1.61-1.54 3.73-2.2 5.2-4.32 2.12-3 3.37-8.05 1.46-11.35 2.93-.29 7.03-.44 9.74-1.17 1.02-.29 1.9-1.83 2.93-1.61 1.61.37 7.39 8.35 10.32 9.66s6.15.59 9.22.73c-1.54 9 1.98 10.61 7.17 16.11 7.17 7.61 16.25 14.57 21.38 23.72l1.68-.81c.37 1.54 1.9 2.64 3.15 3.95 5.34 5.71 5.27-5.34 4.54-8.86 2.71.15 5.42-.15 8.05-1.02 6-2.05 18.16-17.13 23.35-22.18 3.51-3.51 8.35-6 11.35-10.54-2.49-3.73-6.52-1.98-10.32-2.49-1.98-3.88.15-8.42-2.93-11.79-.95-1.1-2.56-1.46-3.37-2.34-10.25-11.2-21.16-21.01-31.33-32.36-1.32-1.46-7.39-6.52-7.1-7.98 1.68-2.56 5.56-4.76 6.81-7.47 1.46-3.15.07-6.22 1.17-9.37.81-1.32 9.81 0 11.42-2.78l33.75-33.67c3.73-5.56-7.61-7.83-11.42-7.17.81-6.15-2.05-10.1-5.71-14.49-1.1-1.32-3.44-1.24-1.9-4.47-4.69 1.98-7.25-5.71-11.42-7.61-.15 9.37-1.1 18.74-2.93 27.89 4.39 1.46 5.34 6.66 8.13 9.15 1.32 1.17 4.9 2.05 5.2 3.37-4.47 7.54-3.44 16.54-10.83 22.25-5.34 4.1-12.59 4.39-18.45 7.54l-2.42-3.73c-9.59 9.59-21.01 20.2-34.63 22.91v2.78c-1.9-.95-4.17 0-4.83 1.9 1.46 0 3.95 1.1 5.2.88 1.98-.37 2.34-2.05 4.25-1.83l-4.76 2.86.66 1.9h2.2c-1.68 3.07 1.1 6.08-1.9 8.05.81 1.24 1.68 1.17 2.86 1.39l-3.81 2.34c.44.95 3.37 1.46 4.25 1.46 1.1 0-.59-2.93.51-3.81 3.59.44 2.05.29 4.76 2.86l-1.02-4.76c-1.39.81-6.66.22-3.73-1.46 1.39-.81 2.2.44 3.22.51 1.39-3.37 5.93-2.86 9.08-2.86l.44 2.86 2.42-1.54-.95-2.27c22.4.59 45.9 15.08 49.12 38.65 3.66 26.57-27.67 42.24-45.31 20.64-3.22-3.95-5.27-9-9.44-12.52l4.61-11.13c-3.44-3.59-7.32-5.12-12.3-4.39-.29-3.22.07-5.86 1.9-8.57l-2.78.44c1.76-1.83-.59-1.32-1.46-2.42-1.76-2.34-1.98-6.88-5.78-4.83-4.61 2.49-7.47 7.61-11.86 10.54l-1.9-9.96 1.9.51v-1.9l-1.9-.44c2.78-2.42 5.05-5.27 5.71-9 3.88-.15 3.37 4.1 7.54 2.86l-2.86-8.57c1.61-.44.51 1.76 1.39 1.9 1.83.37 2.86.29 2.42-1.9l-4.61-1.1-1.1-7.47-2.86.95.95 1.83c-4.69-1.68-4.69 4.47-8.27 5.56s-6.52-.95-9.08-.59c-3.73.44-10.03 3.66-12.52 6.52-1.02 1.17-2.34 4.03-3.37 5.64v-1.39l-1.9-.51c-.15 2.42-.81 2.34-2.86 2.34l.95 3.37c3 .51 2.27-2.34 3-3.59.15-.29.73-.15.73-.15.15 4.32-.88 10.98 5.27 11.42 5.27.37 4.98-6.08 6.15-9.52-2.05.22-4.03-.81-4.76-2.86l11.27 2.93-.88 17.94c-6.88-1.46-15.37.88-20.94-4.25s-4.69-12.66-3.29-19.55c.29-1.46.81-1.24-.95-.95-2.78.51-9.22 3.66-11.93 5.2-6.66 3.73-12.74 7.1-9.44 15.67-13.69.95-10.32 20.79-3.81 28.04 3.15 3.51 12.74 8.49 14.42 1.61l1.24.73-.44-2.78c4.69 6.22 10.54-.37 10.54-6.15 0-11.86-10.25-14.06-19.99-12.81l3.95-9.37c9.59-1.9 16.32 6.88 25.55 6.52-3.51 10.47 1.17 20.94-7.1 29.5-3.37 3.51-11.42 6.95-16.18 6.66-3.07-.22-5.78-2.42-9-1.98-.51-1.32 3.88-.81 1.9-2.86-.44-.51-2.27 2.64-3.81 1.9l3.81-2.86-1.9-2.86v2.86c-5.86 3-6.08-1.32-9.74-3.07-1.9-.88-4.39-1.02-6.37-1.68l2.86-.95c.88-2.64-1.76-1.39-1.98-2.49-.37-2.12.22-5.12 0-7.54-1.46-16.84-.29-27.23 13.91-38.29 7.03-5.42 17.2-6.88 20.28-15.37 4.9 4.39 10.25 1.98 15.74 0l.44 1.83h.95c0-3.07 3.22-3.29 5.71-3.81.51-2.93-2.93-2.42-4.32-3.81-1.54-1.46 0-3.66-1.83-4.76l-4.69 1.83c-1.39-3.07-3.73-2.93-5.78-4.69-4.32-3.73-7.17-9.52-13.69-9.59V89.8c-3.07 2.12-6.81 3.44-10.54 3.81-.37 1.46.29 1.54.95 2.34 3.66 4.83 8.64 8.93 12.66 13.47.51.59 1.9 0 1.54.73-.81 2.12-4.17 2.12-4.61 2.56-.37.37 0 1.61-.44 2.34-1.54 2.71-13.1 14.2-16.4 13.62 1.17 4.32-2.93 4.69-5.27 7.03-1.32 1.39-2.05 3.07-3.29 4.32-3.81 3.95-12.66 10.98-13.54 15.89-.37 2.05.15 4.1-.66 6-1.39 2.12-10.03-.81-10.98 3.37-.37 1.54 12.66 13.18 14.71 15.59 1.9 2.2 4.76 4.98 3.29 7.61l2.86-.51-.95 2.42.95 1.9c1.1-.29 1.9-1.1 3.15-1.02.73 0 .59.95.59 1.1-.44-.44-1.17-.44-1.68 0s-.44 1.17 0 1.68 1.17.44 1.68 0 .44-1.17 0-1.68l.51.73ZM246.34 24c-.59 0-.59.95 0 .95s.59-.95 0-.95m149.12.95c-.59 0-.59.95 0 .95s.59-.95 0-.95m-37.48 5.71v-1.9h-.95v1.9zm-7.61 1.91h-1.9v.95h1.9zm34.18 3.8h-1.9l.88 1.83h-1.83v1.02h2.86v-2.86Zm-95.9 5.71v-1.9h-.95v1.9zm94.95-.95h-2.86v2.86l2.86-.95v-1.9Zm-99.27 1.91c-.59 0-.59.95 0 .95s.59-.95 0-.95m101.17.95c-1.83-.29-3.15 1.1-2.86 2.86h2.86zm-94.8 8.34c-1.61-1.1 0-4.17-6.37-3.66s-12.59 9.88-5.2 13.84c-6.3 4.47-4.03 9.22-2.86 15.67 1.61.37 1.9-.66 2.86-1.39 6.73-5.56 13.18-13.4 12.3-22.69l1.98-.59c.29-1.76-1.68-.51-2.64-1.1l-.07-.07Zm87.19-.8c-1.32.81-2.34.22-3.81 0v1.9l3.81.95v-2.86Zm5.71 3.8v-2.86h-.95v2.86zm-7.61 0c-10.47-1.39-22.77 3.81-29.94 11.35-4.1 4.32-4.69 6.95-2.34 12.37-12.37 1.1-10.4 16.32-11.42 25.62 6.22-1.24 13.03-4.9 11.42-12.37 6.08 2.12 10.32.59 14.2-4.32 5.93-7.32.44-7.61-.73-14.42-1.54-8.71 1.9-8.27 9.3-9.74-.51 4.1-1.39 7.47.44 11.42 2.64-1.68 9.88-19.11 9-19.91zm-1.91 26.58c12.81 1.32 17.57-13.1 9.96-21.82-.73 0-3.81 7.83-4.03 9.22-.37 2.12.15 8.05-.29 8.71-.29.44-5.42 1.46-5.56 3.88h-.07Zm-28.91-18.96c-.59 0-.59.95 0 .95s.59-.95 0-.95m-74.09 7.61c-.59 0-.59.95 0 .95s.59-.95 0-.95m1.39 5.71.95-4.76h-.95c0 2.05-2.27 2.86-1.9 4.76zm-37.04 0c.37.44 2.49-1.68 1.9-2.86-.37-.44-2.49 1.68-1.9 2.86m71.45 7.54c0-.66-.51-1.17-1.17-1.17s-1.17.51-1.17 1.17.51 1.17 1.17 1.17 1.17-.51 1.17-1.17m25.4.95h-1.9v1.9zm-86.89.95c-.59 0-.59.95 0 .95s.59-.95 0-.95m23.28.96h-2.86l1.39 4.76 1.39-4.76h.07Zm5.71.95h-2.86v.44c.88 1.02 1.46 1.76 2.86 1.39v-1.9zm52.27 2.85c0-3.73-3.81-3.73-3.81 0zm-22.84.95v-1.9h-.95v1.9zm26.57-1.9h-2.86v.44c.88 1.02 1.46 1.76 2.86 1.39v-1.9zm1.46 1.9c-.59 0-.59.95 0 .95s.59-.95 0-.95m28.99 1.91h-2.86v.44l1.39 1.39 1.39-1.9.07.07Zm-77.89 2.85v-1.9h-.95v1.9zm68.38 2.86h-1.9v1.9zm3.8 0h-1.9v.95h1.9zm-58.93 7.61-4.76-2.86v3.81zm-27.96-1.9c-.59 0-.59.95 0 .95s.59-.95 0-.95m30.82 4.76 1.9-1.39-1.39-1.39h-.44v2.86l-.07-.07Zm-27.97-.95c-.59 0-.59.95 0 .95s.59-.95 0-.95m34.19 1.9c-.59 0-.59.95 0 .95s.59-.95 0-.95m25.62 0c-.59 0-.59.95 0 .95s.59-.95 0-.95m-17.57.95h-1.9v1.9zm-6.66.95h-1.9v.95h1.9zm9.01-.07-1.9 1.9 2.42 2.34 1.9-1.9zm55.12.07c-.59 0-.59.95 0 .95s.59-.95 0-.95m-66.03 4.69c.88.88 4.39-2.05 3.81-3.81-1.68.88-4.17 1.46-3.81 3.81m-1.39-1.91c-.59 0-.59.95 0 .95s.59-.95 0-.95m4.24 2.93-1.9 2.86 2.34.95 1.39-1.9-1.9-1.9h.07Zm24.01 1.83c0-.66-.51-1.17-1.17-1.17s-1.17.51-1.17 1.17.51 1.17 1.17 1.17 1.17-.51 1.17-1.17m-33.52 2.86c1.46 1.46 4.03-2.86 1.39-2.86-.59 0-1.98 2.27-1.39 2.86m5.71-.95v-1.9h-.95v1.9zm7.17-1.91c-.59 0-.59.95 0 .95s.59-.95 0-.95m-13.84 3.81v-1.9h-.95v1.9zm83.09-1.9c-.59 0-.59.95 0 .95s.59-.95 0-.95m-78.77.95c-.59 0-.59.95 0 .95s.59-.95 0-.95m-13.76.95h-1.9v.95h1.9zm4.03.95c0-.66-.51-1.17-1.17-1.17s-1.17.51-1.17 1.17.51 1.17 1.17 1.17 1.17-.51 1.17-1.17m-13.11.95c-.59 0-.59.95 0 .95s.59-.95 0-.95m-2.78.95c-.59 0-.59.95 0 .95s.59-.95 0-.95m69.77 4.76c.29-2.42.07-4.98-2.86-4.76-.88 2.56 1.32 1.54 1.68 2.05.66 1.1-.59 2.93 1.17 2.71Zm10.47-4.76c-1.17-.66-3.29 1.54-2.86 1.9 1.17.66 3.29-1.54 2.86-1.9m7.54 2.86-1.9-1.9v1.9zm-30.82-.95c-.59 0-.59.95 0 .95s.59-.95 0-.95m40.33 3.8v-1.9h-.95v1.9zm13.33 30.38c5.12-6.15 4.83-8.64 0-14.71-4.83-6.08-17.28-14.42-25.18-14.79-3.66-.15-4.25 1.54-6.59 3.73-4.76-4.54-7.76-4.69-13.76-2.71-.66 2.64 1.39 3.22 2.34 4.83.59 1.02.73 2.27 1.46 3.29.88 1.17 8.35 8.57 9.15 8.86.66.22 1.54.37 2.12 0 1.76-3.15 9.52-8.93 13.1-9.15 2.27-.15 7.1 5.27 8.86 6.95-3.44 1.02-13.62 3.51-15.15 6.66-.88 1.83 1.54 1.39 2.34 1.39 1.76 0 3.95-.29 5.56.15 2.42.73 5.12 6.52 10.1 3.66.44.44-3 7.61-3.81 8.13-2.2 1.54-14.57-4.32-18.08-4.32-.59 5.56.37 9.44 3.81 13.76 4.54 5.71 7.76 6.95 13.25 1.46 3.29 9.3 12.52 1.98 15.23-4.25 2.71-6.22 3.29-11.57-4.76-12.88v-.07Zm-56.08-25.62c.88-.88-2.05-4.39-3.81-3.81.88 1.68 1.46 4.17 3.81 3.81m8.57.95v-1.9H338v1.9zm-11.43.96v-1.9h-.95v1.9zm-21.81.95h-2.86v.95h2.86zm34.33 2.71-.59 1.9 3.66 1.02.59-1.9zm25.99 3.95c-.59 0-.59.95 0 .95s.59-.95 0-.95m3.59 1.83c0-.66-.51-1.17-1.17-1.17s-1.17.51-1.17 1.17.51 1.17 1.17 1.17 1.17-.51 1.17-1.17m31.33 17.13c0-.66-.51-1.17-1.17-1.17s-1.17.51-1.17 1.17.51 1.17 1.17 1.17 1.17-.51 1.17-1.17m-148.9 16.18c-.59 0-.59.95 0 .95s.59-.95 0-.95m96.85 4.68c-.59 0-.59.95 0 .95s.59-.95 0-.95m-89.24 19.99c-.59 0-.59.95 0 .95s.59-.95 0-.95m16.84.88c0-.66-.51-1.17-1.17-1.17s-1.17.51-1.17 1.17.51 1.17 1.17 1.17 1.17-.51 1.17-1.17" class="cls-1"/><path d="M422.55 171.22h.95s-.51 1.9-.95 0M382.65 211.12c.29.51 1.24 2.56.95 2.86l-2.86-.95s-.15-.81 0-.95l.95-.95c.29-.07.66.07.95 0ZM337.99 130.37h-.95c.51-1.46.88 0 .95 0M549.78 219.61c-4.32.95-17.5.22-22.4 0-7.47-.29-15.67 1.46-23.72.95-3-.22-5.86-1.46-9-1.02l-.95-74.08c-2.78-.51-5.42 1.1-8.05 1.02-4.17-.15-6.3-.07-10.4 0-12.15.15-23.94-1.39-36.09-.95l-1.02-2.93h-4.76l3.29 2.86c-1.68-.15-4.39.51-5.71-.44-.66-.51-.88-1.76-1.46-2.34-.95-.95-2.49-.59-2.34-1.9 6.66.51 13.18-1.32 19.91 0-.88-2.12-3.51-2.34-5.2-3.81-4.32-3.51-7.69-10.1-7.54-15.67 0-3.59 1.9-6.52 2.27-9.52.44-3.22-1.54-8.93 2.93-8.93l-.95 5.71h3.81l-.88-4.69c4.76-1.9 10.03-4.17 15.15-3.88-3.29-5.34-6.37-9.81-7.61-16.11l10.47.95c-1.83 6.59 4.39 6.37 6.15 8.57 1.1 1.32 1.32 4.1 3.37 6.08 4.69 4.47 12.66 5.78 18.96 5.27l-1.9-11.35c8.27-1.83 19.33-5.34 23.57 4.39l-4.1 6.95c-.37.22-1.54-4.32-3.29-5.2-5.27-2.64-9 1.83-5.78 6.73.44.66 5.71 4.83 6.73 5.56 6.22 4.39 14.28 7.1 20.35 11.79l9.96-12.74c-2.86-3.44-5.78-1.98-9.44-1.39v-8.57l3.81.95.95-3.29-2.86.51-.95-2.86-.44 2.86c-8.86-5.78-13.03-17.5-16.69-27.01-1.83-4.9-1.54-9.96-6.59-13.32 5.05-3.66 3.15-9.08 3.88-14.13 1.32-9.44 6.88-21.6 16.03-25.77 5.05-2.27 12.59-2.42 18.01-4.25-.22 5.64 3.88 3.88 6.66 5.2.66.29 5.05 4.76 5.71 5.71 6 7.98 5.2 24.16-2.34 30.89-1.39 1.24-3.37 1.61-4.83 2.78-1.24 1.02-5.64 7.54-6.59 7.54l-13.69-6.66-1.02-11.27c7.61 6.37 21.82 6.88 24.23-4.69 1.32-6.37-1.1-4.83-5.27-8.13l3.66-3.95c-3.29-9.37-15.89-9.44-23.5-4.98l.81 8.42c-3.51.07-6.52-1.1-8.35 2.56-3.95 7.83-2.05 24.67.95 32.8 1.76 4.83 3.73 8.35 9.22 9.3-2.2 6.44 1.1 10.61 4.76 15.59.95 1.32 3.15 2.64 3.81 3.81.95 1.83 0 .95-.95 1.02-1.68.15-1.46.29-1.98 2.2l-1.76 1.02 6.08-2.78 3.95 3.73c4.69-5.86 13.1-15.3 8.86-23.13-4.25-7.83-14.2-1.1-6.52 5.56-2.56 2.34-5.93 3.88-9.44 3.29-.81-4.25-2.71-5.78-1.54-10.47 2.64-10.47 13.84-9.66 22.33-11.35 1.9 9.3 5.64 15.15 2.64 24.89-.81 2.49-2.86 4.54-2.56 7.39l7.25-4.61 9.81 2.71c.07-6.73 4.54-12.59 5.71-19.03h-15.23c-2.71-8.27 2.2-17.13-5.64-23.35.95-3.07 4.17-5.12 4.61-8.49.95-6.22-.22-15.15 0-21.89 0-2.05.95-3.81 1.02-5.64.22-5.2-.22-10.47 0-15.67h-42.24c-1.83.29-5.71 4.03-6.66 5.71-.81 0-4.39-2.27-4.76-2.86-.81-1.24 0-3.81-.95-3.81L505 5.8l-6.59-1.83c2.42 9.15-2.34 18.89 6.44 25.18l-5.49 9.52v41.29c-4.32.22-9.44-.81-13.25 1.46-1.61.95-3.66 4.54-5.2 4.17-1.68-1.76-6.37-5.64-8.64-5.64h-47.95c-1.32 5.42 4.25 7.1 5.64 11.79-10.4 9.96-3.81 28.26-5.64 41.43l-2.86-1.9-.95 2.86 1.02-5.12-1.98-1.1c.66-4.03 1.1-8.86 0-12.74l3.29 1.9c.59-3.73.22-2.27-2.93-3.73l-.37-29.5 1.9.95c0-1.54 0-3.15.66-4.54s3.29-1.02 2.27-4.9l69.25-1.02c.81-19.91-1.02-40.56 0-60.32 0-1.32.37-6.37.51-7.17.29-1.24 1.46-2.34 2.34-3.22l-2.86-.51C492 1.79 502.03.25 503.13.25l.95 2.86V.72l27.01-.51c4.1 0 21.16-.66 23.35.51 1.68.88 1.17 3.29 2.86 3.37L555.4.28h2.78c-.59 3.81 3.88 3 2.93 6.66l1.9-.59.95-2.27c2.05 23.21.44 46.93.95 70.28 17.42.59 35.36-.81 52.78 0 2.12.07 5.71.15 7.39.29 1.32.15 2.78 1.76 4.39 1.68l-2.86.95 1.9 2.86c-5.34-1.83-8.57 4.69-12.74 1.76-1.68-1.17-1.68-3.59-3.88-3.66l1.39 3.81c-8.42-3.29-18.59-1.83-27.53-1.46-2.56 3.22-5.86 7.98-5.71 12.37 0 1.24.95 2.64.81 3.66-.22 1.46-3.15 3.22-2.64 5.34 6.95.73 11.42 7.47 18.89 6.73 1.17 5.05 2.42 8.05 8.2 8.49 12.88.95 16.25-16.32 6.3-17.64-5.86-.73-6.88 4.03-6.73 9l-8.13-4.69c.59-4.76 4.54-8.27 3.37-13.32 1.76-.44 2.86 1.54 4.39 1.68 1.32.15 3.44-.88 5.56-.81 10.61.51 16.47 10.03 14.35 20.06-1.24 5.86-6.66 10.18-7.17 16.11l-16.62-3.59-1.32 1.32c0 3.44-.07 6.37-2.12 9.22l-5.56 5.34c3.66.15 7.32-.15 10.91 0 3.81.15 5.93 2.34 10.32-.07 1.76-.95 4.17-4.9 5.71-4.54 2.64 2.64 6.15 4.61 9.81 5.42 1.83.37 3.95-.15 5.42.29 1.61.51.95 3.88 4.39 2.71l-1.9-2.34 1.9-2.86c-.73-1.61-3-1.02-3.66-1.54-.07 0 .59-1.02 0-2.27-1.24-2.56-3.88-4.61-5.78-6.66 7.98-6.52 5.56-16.4 5.64-25.7 0-1.46.66-2.86.73-3.95 0-2.12-1.54-11.64-.66-12.66l3.66.15c2.12 3.59.51 7.39.59 10.83.51 14.86 1.9 29.65.51 44.66-.29 2.86-.59 5.05-3.73 4.25-.66-1.68-.29-4.47-2.93-3.73v3.81c-1.39.07-2.86-.22-4.32 0-10.47 1.24-21.38.15-32.28 0-6.3 0-9.96.59-16.11.95-2.71.15-12.66-.95-13.32-.73s-1.02.66-1.46 1.17v63.18l-1.46-1.9-3.29 1.9c.29-3.88-3.73-5.34-5.64-8.2 3-4.69 5.78-7.1 5.71-13.18 0-2.56-.95-4.54-1.02-6.66-.15-4.83 1.02-19.91-.88-22.84-1.1-1.68-4.54-2.86-3.73-5.49.51-1.83 4.76-4.17 5.49-8.93.29-1.9-1.17-3.73.07-4.54 3.95-1.39 7.98.07 11.86.59l9-1.98c-4.76-1.68-7.61-7.69-13.32-7.61 1.9-5.71.51-10.25 0-15.67-.22-2.2.81-7.54-.88-8.64-3.22-2.12-16.03 2.27-19.99 3.37-.66 2.27.66 1.61 1.24 2.12 3.88 3.51 6 2.64 11.05 2.71.15 4.03 2.64 7.03 6.73 7.54l-7.91 5.56c-4.1-3.07-8.78-5.12-12.88-8.05-1.76-1.24-2.71-3.73-5.27-3.22-2.2 1.24-.88 4.25-1.83 5.78-.88 1.32-7.25 1.54-7.25 5.2 0 3.15 7.61 5.93 10.47 5.27-.15 7.69 5.93 12.81 8.78 19.25 4.83 11.13 5.2 22.55 0 33.6-2.78 5.93-9.52 8.71-8.71 16.47l-4.76-.95c-1.02.95 6.15 9.15 7.03 10.54.51.81.37 2.2.73 2.56.22.22 5.56 1.76 6.15 1.83 2.71.22 7.32-2.49 9.81.73l-2.86.95 1.9-1.39c-4.39-1.17-3.51 1.46-4.69 2.42-.59.44-2.86-.81-3.88.44l-.44-.95s-.29.88-.44.95l-.22-.22ZM498.02 2.19c-.59 0-.59.95 0 .95s.59-.95 0-.95m1.91 0c-.59 0-.59.95 0 .95s.59-.95 0-.95m55.05.95c-.59 0-.59.95 0 .95s.59-.95 0-.95m-57.4 5.71c.59-1.17-1.54-3.29-1.9-2.86v2.86zm49.86 22.77c-.59 0-.59.95 0 .95s.59-.95 0-.95m4.68 51.24c-.59 0-.59.95 0 .95s.59-.95 0-.95m1.47 3.81v-1.9h-.95v1.9zm-19.04.95v-1.9h-.95v1.9zm2.86 0v-1.9h-.95v1.9zm-16.62 0c-.59 0-.59.95 0 .95s.59-.95 0-.95m3.37.95-2.86 1.46 1.39 2.34 1.39-3.81h.07Zm1.9 4.76-1.9-1.9v1.9zm88.8.95c-.59 0-.59.95 0 .95s.59-.95 0-.95m-.95 1.9c-.59 0-.59.95 0 .95s.59-.95 0-.95m-55.13 3.81c-.59 0-.59.95 0 .95s.59-.95 0-.95m-15.15 2.86c-.59 0-.59.95 0 .95s.59-.95 0-.95m94 0c-.59 0-.59.95 0 .95s.59-.95 0-.95m-65.08 2.85v-1.9h-.95v1.9zm-26.58-.95c-1.83-.29-3.15 1.1-2.86 2.86 1.83.29 3.15-1.1 2.86-2.86m29.43.95h-1.9v.95h1.9zm-75.91 34.19v31.33c3.37-3.15 5.2-7.54 9-10.47 1.68-1.24 5.64-2.49 6.22-3.44 2.2-3.44-1.68-6.15-3.81-8.42v-.88c7.47-3.66 6.44-10.76 9.44-17.5-4.76-3.07-7.39-1.98-12.3 0-.29-6.81-2.56-8.64-8.35-11.13-5.42-2.34-25.11-9.37-29.94-8.64-1.46.22-3.88 1.9-4.9 1.68-1.39-.29-1.46-4.25-6.73-4.69-9.37-.81-16.84 7.39-15.74 16.69.51 4.61 4.39 5.27 8.49 5.27l.95 3.29c6.66 1.61 11.71-3.88 10.54-10.54-.37-1.9-2.2-2.34-1.9-4.25l8.13-.81 1.24 1.39 2.93 12.01-2.86 2.93-9.44 6.22c6 .59 11.57 1.83 17.5 0 3.22-1.02 3.66-3.81 6.59-4.69 3.51 4.17 9.59 6.37 14.79 4.69l.15-.07Zm40.11-29.5c0-.66-.51-1.17-1.17-1.17s-1.17.51-1.17 1.17.51 1.17 1.17 1.17 1.17-.51 1.17-1.17m42.46 7.61c.59-4.76-1.39-8.78-6.66-8.57-1.02 6 3.37 22.4 10.18 23.57 5.27.95 6.66-6.22 5.49-10.32-1.46-5.27-4.1-5.05-9.08-4.69h.07Zm-50.29 1.9v-2.86h-.95v2.86zm-1.46 1.91c-.59 0-.59.95 0 .95s.59-.95 0-.95m27.52 0c-.59 0-.59.95 0 .95s.59-.95 0-.95m-30.82 2.85v-1.9h-.95v1.9zm32.51 0c0-.66-.51-1.17-1.17-1.17s-1.17.51-1.17 1.17.51 1.17 1.17 1.17 1.17-.51 1.17-1.17m-31.34 3.81c0-.66-.51-1.17-1.17-1.17s-1.17.51-1.17 1.17.51 1.17 1.17 1.17 1.17-.51 1.17-1.17m3.59 49.41s-3.44 5.93-3.59 7.25c-.15 1.17 1.68 5.93 2.64 6.59 1.24.88 8.49-3.66 9.59-4.76.95-1.1 4.61-8.27 4.69-9.59.22-2.93-2.71-6.22-2.71-6.59 0-.66 2.12-1.68 2.56-3 2.86-9.44-9.08-24.45-15.96-30.23-.95-.81-1.24-1.83-2.86-1.39-.51 6.73-3.59 13.1-2.86 19.91l4.76-1.46 10.25 13.32-7.39 6.15c-.22-4.25-2.71-9-7.61-8.57 1.02 6.08.29 13.03 8.57 12.37h-.07Zm54.1-34.19v-1.9h-.95v1.9zm-23.5 7.54c0-.66-.51-1.17-1.17-1.17s-1.17.51-1.17 1.17.51 1.17 1.17 1.17 1.17-.51 1.17-1.17m-42.97 6.67V156h-.95v1.9zm3.81 2.85h-1.9v.95h1.9zm-9.52.95h-1.9l.44 3.81c1.46-1.02 1.61-2.05 1.39-3.81zm4.76 6.66v-5.71c-1.46 0-1.39 2.05-2.12 2.56-.66.51-2.05.44-3.07 1.17-3.95 2.78-10.61 15.37-1.39 15.23-5.64 7.61 3.66 12.01 10.47 12.37-2.34-8.35-4.98-16.54-6.66-25.18l2.86-.44h-.07Zm-11.42 43.71v2.86c3.51 0 3.51-2.86 0-2.86.81-.51 1.02-2.78 3.81-1.9v2.86c2.56-2.42 6.3 2.86 8.05 2.86h14.28s1.61-1.46 1.39-2.34c0-.29-2.71-3-3.44-4.17-1.1-1.76-2.78-6.37-4.1-7.25-1.76-1.17-7.32-.07-9.96-.51-4.32-.66-12.45-7.17-14.64-11.05l-3-6v29.94s1.32 1.39 1.39 1.39c.37 0 5.2-3.15 6.15-3.81h.07Zm25.62-7.61v-1.9h-.95v1.9zm4.76 9.51v-2.86h-.95v2.86zm2.41 1.91c-.59 0-.59.95 0 .95s.59-.95 0-.95m-42.75.87c-.59 0-.59.95 0 .95s.59-.95 0-.95m49.41 0c-.59 0-.59.95 0 .95s.59-.95 0-.95" class="cls-1"/><path d="M549.78 219.61h.95c-.37.81-.59.81-.95 0M21.74 75.32c8.57-1.98 19.11-.44 28.04-.51 7.98 0 16.11-.88 24.16-.51 1.98-4.17.15-7.32 0-10.91-.22-6.95.88-14.86 1.1-21.74.37-11.57-1.83-23.06-1.02-34.7l3.29 1.02 2.93-2.93c.81.51-.29.88 0 1.98.88 3.44 3.95 4.98 5.27 7.98 0 1.9-3.59 3.73-4.39 6.15-3.15 9.96-.73 26.28-.73 36.82 0 5.78-1.17 12.88-1.1 18.81 0 1.02.51 2.2.51 3.29h7.54L86.39 83l3.81-.95v2.86c3.66-1.83 4.98 2.2 7.61 4.25L94 87.77l2.86 3.37L91.15 103c-.37.44-2.71-2.93-3.81-1.9-1.9 1.76 2.12 1.9 1.9 2.34l-2.86 3.29c3-.73 9.15 3.51 10.47.51.44-.95-2.42.29-1.9-1.39 2.12-.81 3.37 1.54 4.47 1.76s3.15-2.42 5.05-1.76l-1.9-1.39 4.25-7.1 2.34 2.34-1.98 1.02 1.02 4.25 4.76-1.39-2.49 3.22-3.22-.88 1.9 2.34-2.86 5.2 7.61 1.9c-.15-2.78 1.24-4.9 3.29-6.66.81.73 1.54 1.32 1.98 2.34.29.73-.44 3.59 1.39 3.37-.59-3.51.22-3.59 2.86-5.2l-5.71-.51 2.86-.95c-1.83-2.12.29-4.32-.07-6-.15-.51-7.03-6.44-8.13-7.1-2.78-1.83-7.69-2.27-9.3-4.9-1.24-1.98-.95-4.76-1.98-6.59-2.27-4.17-7.32-8.35-9.74-13.03-3.37-6.44-6.52-22.11-5.93-29.28.66-7.61 5.93-14.35 4.83-22.25 9.15-1.32 15.74-7.69 25.55-5.78l-.95 4.76h3.73v-2.86c10.83.95 15.45 13.54 14.2 23.21-.88 6.81-7.32 12.52-10.03 18.67-8.05-1.32-16.98-2.12-23.13-8.13 0-.88 5.12-6.66 6.15-7.1 1.61-.73 2.86 4.32 4.83 4.61 5.56 3.73 14.13-3.29 14.64-8.93.22-2.56-1.83-4.54 0-7.03-2.56-.59-1.32.73-2.42 1.98l-3.29-1.02c-.59-.59 5.05-8.93-5.27-10.4-6.22-.81-11.27.51-15.08 5.71-5.27 7.17-11.35 25.84 1.39 28.48-5.64 6.81-2.56 11.13 1.17 17.35 3.95 6.59 10.18 13.18 16.69 17.94l-.29 1.46c2.12-1.17 3 2.49 4.76 2.12 3.88-5.93 2.42-12.23-5.2-13.32-.29-1.46 1.17-.59 1.9-1.61 4.1-5.34 3.37-8.71-.95-13.62l8.13-1.76c1.24.07 4.32 10.25 4.76 12.15.44 2.12 1.39 7.1 1.46 9.08.15 4.1-2.2 9.81-2.05 14.13 3.44 1.1 5.93 4.1 9.81 3.22 1.24-.29 2.86-1.98 3.88-1.68 1.02.22 2.05 3.44 4.03 4.61s3.88 1.24 6.08 1.02c.73-5.56 2.78-10.32 1.9-16.11 5.78 1.02 11.49-3.07 16.69-3.73 10.18-1.32 19.99 3.44 24.6 12.3 5.12-1.83 10.25-7.91 15.67-6.66 1.02-3.88 2.71-6.59 1.98-10.83-3.22-.37-2.64-3.07-5.78-2.42l.95 2.78-6.15 4.83c-1.54-1.54-3.37-3.22-5.34-4.17-4.39-2.12-26.21-2.27-31.7-1.46-3.51.51-6.3 3.29-8.71 5.64-1.24.29-3.29-2.64-4.83-3.59-4.47-2.93-8.57-1.98-13.62-2.05-.37-4.39.59-9.37-.22-13.62-.59-3-5.86-5.2-5.49-6.81 8.42-6.52 5.56-18.81 5.64-28.55 0-1.46.66-2.86.73-3.95 0-2.42-1.32-5.49-.66-8.27.15-1.1 1.39-.37 1.98-.59v1.9l1.9-1.9c1.02.88 1.98 1.9 1.9 3.29l-1.98.95c.15 2.49 1.68 3.95 1.98 6.59 1.1 9.96-.73 20.72-.66 30.6 0 4.47 1.32 9.81.66 14.57H206c-1.02.88-.51 4.76.51 4.76 2.05.07 2.86-2.71 4.25-3.37.88-.37 2.12.81 2.71.37.51-.37-.51-2.64 2.05-1.76-1.32 3.22-.81 5.12 2.86 5.71-2.64 2.78-2.27 4.9.51 7.61l.44-3.81-1.9.95c-.37-2.2.81-3.95 2.86-4.76-.73 2.42.81 6.3.59 8.13-.29 2.56-.59 2.05-.51 5.64 0 4.98 1.1 36.53-.29 38.29-.22.22-1.1.15-1.32.51-.73 1.17.15 2.49-2.2 3l.95 2.42 2.86-1.9c-.22 3.73 1.54 9.66-3.44 10.18-.88.07-1.83-.59-2.71-.51-12.88.37-27.6 1.9-40.85.81-2.56-.22-3.81-.44-4.76-2.86l-.95 2.93c-2.86-.15-5.71 0-8.49 0-1.39 0-2.71-.88-3.88-.95-2.49-.15-5.93 1.76-8.93.88-.15 15.01.22 30.09 0 45.17 0 1.76-.88 3.37-.88 4.69 0 2.27 2.93 16.25-2.34 15.52-3.15-.44-2.56-2.86-3.95-4.61-1.54-1.9-3.51-3.44-5.2-5.27 3.29-2.71 5.34-6.44 6.59-10.47v-50.81c2.71-.07 5.42.15 8.13 0 1.83-.07 1.46.15 1.39-1.9-7.91-1.32-15.15-5.56-22.77-7.69v-3.73l2.78-.44c-1.32-1.1-3.29-2.42-4.39-3.66-.51-.66-.22-1.39-.37-1.54 2.27.59 8.2 2.64 9.88 3.88 1.24.95 1.39 2.42 1.68 2.64.15.07 1.54-.66 2.71-.44 7.54 1.76 10.47 6.15 18.01-.37.22 2.42 1.39 4.39 3.51 5.49s8.49.59 11.13.15c8.05-1.32 18.52-7.17 20.28-15.81.59-2.71-.44-5.42 1.17-7.91-6.81 0-9.66 1.76-12.81 7.54-3.59-2.93-11.86-3.81-16.03-2.71-.51.15-1.98 1.17-1.02 1.83.37 2.42 5.2 3.73 5.2 6.66-3.37-.88-7.47 2.2-10.03 0-3.51-2.93-2.93-8.27-3.29-8.57-.44-.44-10.03-1.76-12.3-2.42-5.56-1.61-10.76-4.17-16.11-6.15-1.39 4.47-2.86 7.69-.95 12.37h-4.76c-.59 3 2.2 1.46 3.81 3.81-1.68-.44-3.95-.73-5.71-.95-.37 1.54 1.02.59 1.61 1.17.15.15 1.98 3.95 1.98 4.17.29 1.46-2.42 3.59 1.17 3.15 0 2.34-2.86 0-3.37 0-.73-.07 1.54 2.64-.95 1.9l-4.32-6.15.95-1.9-3.22.44-2.05-2.78-4.25 3.29 2.71-2.86-1.61-3.22 1.54-.29-.66-2.71c.07.88-3.15 4.76-3.44 4.83-2.56.37-5.71-2.27-8.78 0 .59 8.71-2.27 6.3-7.76 7.91-7.83 2.34-14.71 6.88-23.28 8.13-2.49.37-5.12.37-6.59-1.9-.51-.81 1.68-2.49-1.46-1.9l.51 2.86c-1.02 1.61-5.2 1.68-4.32-.95h-.95v1.83l-14.71-2.86c-2.2-.37-5.34 2.2-6.66.07-.07-5.93-5.27-7.61-7.17-12.3-2.86-2.05-14.28 8.57-17.5 9.37-.44.07-1.39-4.25-4.25-2.86-.88 3.73 2.27 5.42 2.86 8.57l-3.29-.37c-2.64-.66-1.46-5.56-2.42-7.61l1.98-1.02v-1.39l-1.98-.59V95.41c2.78.73-.22 3.95 2.93 4.25-3.66 4.17.22 6.88-.95 10.98h2.86c.44-.37-4.69-11.27 0-10.47l-1.9-2.34h1.9l-.95-2.93 1.68-.51c-.73-1.83-.88-2.86.15-4.61l-2.86-.95 3.81-1.9c-.44 3.44 4.03 3.95 3.66 6.95-.22 2.05-3.88 5.42-4.83 7.61-.66 1.46.29 1.76.29 2.05v17.57c2.71-.29 4.61-2.86 6.88-4.03 1.32-.66 3-.66 4.39-1.32 5.78-2.71 3.22-5.12 4.1-10.18.37-1.98 2.12-4.03 2.27-4.9.15-1.76-1.32-4.83-.44-7.03 8.42-1.46 13.91-6.3 22.99-4.61 2.2.37 3.59 1.83 5.2 2.34 2.27.73 9.08 1.46 9.59 3.73.37 1.39-.95 4.39.07 7.25.29.81 1.17.44 1.9 1.61-.81 0-2.12.29-2.71-.22l-.15-1.68h-1.9l-.51 1.98-2.34-1.02-.95 8.57c3.37.73.22-1.98 2.34-2.86 1.46-.59 2.42 1.46 1.39 2.86l.95-2.86 3.29 1.9c1.9-1.54 2.42-3.22-.44-2.86l1.83-.95c.59-.44-.59-2.27-.88-2.78 8.05-.22 20.57-.44 24.16-9.52 1.24-3.07.15-3.73-.37-6.22-.22-.88 2.27.29 1.83-1.32l-7.54 1.98-.15 3.66-2.86.51 2.86 1.39-9.52-1.9c.81-6.15 3.37-8.35 7.61-12.3-4.39.37-9.37-1.17-13.25 1.46-1.46 1.02-3.66 4.54-5.2 4.17-5.05-6.15-9.88-5.78-17.2-5.71h-8.49c-7.17 0-14.35.37-21.38 0l.95-2.86-4.32-1.9-.95 1.9-2.42-.95c1.9-3.88 7.32-.44 10.98-1.98 1.02-.44 2.05.95 2.34 1.02h-1.9c-.37 2.05.15 2.05.95 2.86.07.07-.07.73.51.81l4.17-.88v-2.86c-.59.07-1.54-.15-1.9 0l.15-.07Zm106.88-42.75c-.59 0-.59.95 0 .95s.59-.95 0-.95M144.73 62c-.59 0-.59.95 0 .95s.59-.95 0-.95M43.63 76.27l1.39 2.86.44-.44-.95-2.34h-.95l.07-.07Zm-2.85.95h-3.81v.44c1.02 1.46 2.05 1.68 3.81 1.39v-1.9zm36.09.95h-2.86v.95h2.86zm126.28 0h-1.9v2.86h1.9zM83.53 81.03h-1.9v.95h1.9zm20.42 1.83c-.59 0-.59.95 0 .95s.59-.95 0-.95m-22.84.95c-.59 0-.59.95 0 .95s.59-.95 0-.95m30.9 2.86-2.86-.51 1.9 4.25 1.9-1.39-1.76-.95.81-1.46v.07Zm-1.91 4.75v-1.9h-.95v1.9zm-18.08 4.76c.37-2.27-.73-3.44-2.34-4.76l-1.39 1.39v.95l3.81 2.42h-.07Zm34.19-1.9v-1.9h-.95v1.9zm-32.73-.95c-.59 0-.59.95 0 .95s.59-.95 0-.95m92.76 7.47c-.95-15.45-26.5-3.59-23.87 5.27.66 2.27 7.39.73 9.66.37 5.56-1.02 11.05-3.73 16.84-3.59.81-3.07-1.98-1.32-2.71-1.98l.07-.07Zm-133.09 3c-6.3-12.37-24.6-8.49-23.72 5.71 3.44.51 7.1-5.34 9.15-5.49 1.68-.07 3.15 1.76 5.56 1.76 2.78 0 6.08-2.12 9-1.98Zm162.37 12.81c.81-3.73 0-12.66 0-17.13 0-.22-.88-1.39-1.9-1.02-1.76.66-13.03 6.95-13.18 7.76s.95 2.71.81 4.54c-.37 4.17-2.86 11.27-2.86 14.35 0 2.64 1.83 4.61 1.98 7.1l-8.35.66-13.47 6.44c4.61 2.93 9.22.51 13.76.44 3.95-.07 8.49-.22 12.37 0 3.29.22 6.66 2.34 9.88.88-.29-3 1.46-5.78.88-8.71s-5.78-6-5.42-7.61c.88-2.2 5.2-5.86 5.64-7.76l-.15.07Zm-86.9-17.57c-.59 0-.59.95 0 .95s.59-.95 0-.95m-61.27 6.66-2.86 1.39.44.44 2.34-.95v-.95l.07.07Zm-18.74 1.83c0-.66-.51-1.17-1.17-1.17s-1.17.51-1.17 1.17.51 1.17 1.17 1.17 1.17-.51 1.17-1.17m2.85 0c0-.66-.51-1.17-1.17-1.17s-1.17.51-1.17 1.17.51 1.17 1.17 1.17 1.17-.51 1.17-1.17m38.22 1.03c-.59 0-.59.95 0 .95s.59-.95 0-.95m9.95 1.9 2.34.95.44-.44-2.86-1.39v.95l.07-.07Zm-94.94.95H1.83v4.76c3.07-.95 3.22-1.39 2.86-4.76m63.47.22c-1.24-.88-5.56.15-7.39-.22v3.81l-2.86-.95c-1.24 3.44 3-.37 1.9 2.34-1.02 2.42-3 3.95-3.81 6.15-2.05-1.1-3.95-4.47-2.86-6.59h-2.86l1.9-3.81c-6.59-.95-12.08 2.86-18.3 3.95-3.22.37.44 5.42 1.46 6.22 1.9 1.39 6.81 2.86 8.64 4.03.73.44.59 1.76.73 1.83.29.22 1.46-.73 2.2-.66 5.42.51 13.84 2.64 18.23-1.39.66-.59.81-2.27 1.76-2.56 1.02-.22 2.64 1.39 3.95 1.68 6.73 1.54 13.91-4.17 19.03-8.13.73-.59 1.76.15 1.24-2.12-4.69-.15-11.93-3.95-16.18-2.42-3 1.02-2.05 3.59-5.93.51-.66-.51-.66-1.54-.88-1.61v-.07Zm31.47-.22h-1.9v.95h1.9zm-3.29.95c-.59 0-.59.95 0 .95s.59-.95 0-.95m5.71 0c-.59 0-.59.95 0 .95s.59-.95 0-.95m3.29 0c-3.51-.44-2.49 3.81-1.9 5.71zm17.06 1.83v-1.9h-.95v1.9zm-4.68 2.86v-1.9l-1.9 1.39 1.9.44zm-115.89 3.8c.37.44 2.49-1.68 1.9-2.86-.37-.44-2.49 1.68-1.9 2.86M118.67 118h-2.86v.44c.88 1.02 1.46 1.76 2.86 1.39v-1.9zm-3.81 4.76.95-2.34-.44-.44-1.39 2.86h.95l-.07-.07Zm-110.17.95h-1.9v.95h1.9zm80.23 0c-.59 0-.59.95 0 .95s.59-.95 0-.95m-15.67 3.81h-1.9v1.9zm7.62 2.85-4.76-1.46 2.34 3.37 2.42-1.9Zm59.81.95v-1.9h-.95v1.9zM2.27 133.23c-.59 0-.59.95 0 .95s.59-.95 0-.95m53.22 0c-.59 0-.59.95 0 .95s.59-.95 0-.95m118.23 2.85h-1.9v.95h1.9zm45.61 4.76-3.81.95v1.9s4.47-2.27 3.81-2.86Zm-52.71 2.85c-.59 0-.59.95 0 .95s.59-.95 0-.95m-25.7 57.91c-.59 0-.59.95 0 .95s.59-.95 0-.95" class="cls-1"/><path d="M144.29 18.29h-1.9s.44-1.1 1.32-.88c.51.07.44.73.59.88ZM21.74 75.32s-1.1 1.24-1.9 1.9c.15-.44-.07-1.32 0-1.9.37.07 1.54.07 1.9 0" class="cls-1"/><path d="M18.96 78.17c-.15-1.1.95-.88.95-.95 0 0 .15 1.1-.95.95M114.86 125.61l-4.47 8.35c-1.32 4.61-2.12 9.96-.22 14.49l-2.86-.51c.88 2.27 4.9 4.54 7.32 5.05 4.83 1.1 7.1-2.27 5.78-6.73-.22-.88-1.39-1.54-1.54-2.34-.73-2.93 2.34-5.34 4.98-4.83 2.78.51 6.52 9.88 7.25 12.59-4.54 3.22-7.03 10.25-13.69 7.1l-.73 1.76-1.24.29-7.1-2.49-6.66-7.54c-3.81 4.61-5.64 13.03-4.69 18.96.29 1.76 1.83 3.29 1.68 4.61-.22 1.9-2.71 3.81-2.71 6.81 0 5.71 4.47 13.47 9.52 16.18 5.56 3 18.96 5.42 17.13-4.32 5.71.81 6.15-4.39 5.64-9-.95-7.47-11.2-11.2-16.54-6.3-2.05 1.9-1.46 5.27-4.25 4.76l-2.93-8.93c6-5.49 12.59-6.15 20.35-7.03.73.15 9.3 9.81 9.88 10.98 1.54 3.07 1.54 9.59 1.17 13.1-1.46 15.08-18.67 19.99-31.33 15.15-4.1-1.54-7.69-4.03-12.3-4.39.73-6.52-3-13.32-3.81-19.4-.44-3.22-.37-9 0-12.3.73-8.93 5.71-17.13 2.86-26.13 2.12.22 3.95-.07 5.2-1.9l.51 1.83 2.34-.88c.95-1.46-1.32-4.47 1.9-8.57.59-.73 1.76-.73 2.12-1.1.07-.15-.37-1.39 0-2.34 1.54-4.25 2.64-4.76 6.88-3.15v-2.86l4.76.95-.22.07Zm-2.42.95c-.59 0-.59.95 0 .95s.59-.95 0-.95m-1.9 1.91c-.59 0-.59.95 0 .95s.59-.95 0-.95m-2.85.95c-.59 0-.59.95 0 .95s.59-.95 0-.95m.51 1.9c-1.76-.29-3.15.95-2.86 2.86h2.86zm-4.25 2.86c-.59 0-.59.95 0 .95s.59-.95 0-.95m18.01 7.61-1.39 1.39.44.44 1.39-1.39zm-25.62 2.86c-.59 0-.59.95 0 .95s.59-.95 0-.95m6.15 0h-1.9v.95h1.9zm-7.61 1.9h-1.9v.95h1.9zm28.47 2.78v-1.9h-.95v1.9zm-27.01 1.9c-.59 0-.59.95 0 .95s.59-.95 0-.95m23.72 1.91c-.59 0-.59.95 0 .95s.59-.95 0-.95m-23.72 4.76c-.59 0-.59.95 0 .95s.59-.95 0-.95m18.96 0c-.59 0-.59.95 0 .95s.59-.95 0-.95m5.71 10.46-.44.44 1.39 1.39.44-.44zm6.15 7.62h-1.9v.95h1.9zm-27.53 18.96-2.86-.95c-.22 1.76 0 2.78 1.39 3.81l1.39-2.86h.07Zm30.9-.95c-.59 0-.59.95 0 .95s.59-.95 0-.95" class="cls-1"/><path d="M79.72 139.89c-.81 6.22 1.02 10.76 5.64 14.79-2.78 4.25-5.2 6.81-5.64 12.23-1.02 11.13.73 23.72 0 35.07l-1.9.59v1.39l1.9 1.02v9.88c4.69.81 7.91-2.64 10.91-5.71 5.71 7.76 13.4 5.56 21.89 5.64 1.46 0 2.86.66 3.95.73 3.51 0 7.91-1.32 11.71-.66-.51 1.9-6.73 5.42-8.05 5.42s-2.49-2.12-4.25-1.61l.51 1.9c-11.57-.44-23.35.29-35.14-.44-2.42-.15-4.1 1.46-6.15-1.9l2.86-4.25h-2.78c0-4.69-1.02-9.3 1.83-13.32l-2.93-.51c.22-6-.15-12.01 0-18.01.29-10.91.73-21.82.29-32.5 0-1.39.95-3.59-.81-4.03-1.02-.22-3.81.95-5.64 1.02-13.32.37-26.94-.88-39.97-1.02-2.78 0-13.18 1.61-14.79-.51-.44-.59-1.17-3.88-.88-4.17 5.49.81 11.57-1.02 13.32-6.66 7.39 8.93 14.57 6 24.16 5.86 5.56 0 11.49-.22 17.13-.29 4.1 0 8.2 2.42 12.81.07Zm-57.98 4.76c.66-1.17-1.54-3.29-1.9-2.86-.66 1.17 1.54 3.29 1.9 2.86m24.23-2.86c-.59 0-.59.95 0 .95s.59-.95 0-.95m-7.61 1.9c-.59 0-.59.95 0 .95s.59-.95 0-.95m40.41 10.4c.59-1.17-1.54-3.29-1.9-2.86v2.86zM135.72 214.92l-1.9 3.81 1.9-2.86 2.86.95-1.76 1.98.81 1.76h-12.37c1.02-1.83 9.22-6.73 10.47-5.71v.07ZM636.24 76.2l-1.98.58-.88 2.35-1.9-3.37zM564.05 212.07c-.22 1.9-2.2-.22-1.39 2.86l-3.37-.95 4.76-1.9ZM75.855 2.249l3.946-.19.113 2.336-3.946.191zM6.59 140.84c.44.37-1.68 2.49-2.86 1.9v-2.86l2.86.95Z" class="cls-1"/><circle cx="10.4" cy="79.05" r="1.17" class="cls-1"/><path d="M639.02 81.91h-1.83l.95-2.78h.88z" class="cls-1"/><circle cx="542.24" cy="14.49" r="1.17" class="cls-1"/><path d="m141.43 216.83-1.39 2.86-.44-.44c1.24-.95.37-1.24 0-2.34h1.9l-.07-.07ZM560.25 218.73h2.86v.95h-2.86zM421.6 75.32h1.9v.95h-1.9zM615.3 83.81h1.9v.95h-1.9zM423.5 134.18h.95v1.9h-.95zM81.11.28c.59 0 .59.95 0 .95s-.59-.95 0-.95M560.69 1.23c.59 0 .59.95 0 .95s-.59-.95 0-.95M109.59 100.94c.59 0 .59.95 0 .95s-.59-.95 0-.95M.44 90.47c.59 0 .59.95 0 .95s-.59-.95 0-.95M423.94 137.98c.59 0 .59.95 0 .95s-.59-.95 0-.95M634.77 138.94c.59 0 .59.95 0 .95s-.59-.95 0-.95M424.89 140.84c.59 0 .59.95 0 .95s-.59-.95 0-.95M5.12 84.76c.59 0 .59.95 0 .95s-.59-.95 0-.95M9.88 142.74c.59 0 .59.95 0 .95s-.59-.95 0-.95M638.58 83.81c.59 0 .59.95 0 .95s-.59-.95 0-.95M422.99 143.69c.59 0 .59.95 0 .95s-.59-.95 0-.95M7.03 144.65c.59 0 .59.95 0 .95s-.59-.95 0-.95M636.68 82.86c.59 0 .59.95 0 .95s-.59-.95 0-.95M217.86 155.99c.59 0 .59.95 0 .95s-.59-.95 0-.95M420.13 80c.59 0 .59.95 0 .95s-.59-.95 0-.95M7.03 79.05c.59 0 .59.95 0 .95s-.59-.95 0-.95M421.08 77.22c.59 0 .59.95 0 .95s-.59-.95 0-.95M122.91 122.76c.59 0 .59.95 0 .95s-.59-.95 0-.95M145.68 212.07c.59 0 .59.95 0 .95s-.59-.95 0-.95M92.02 2.19l-2.86-.95V.28c3.15-1.02 5.34 1.02 7.61 1.54 1.9.37 3.22-1.68 5.2-1.54l37.85.22c2.05.73 2.34 2.56 2.71 4.47l2.71.15-.73 1.76 1.68.73V15l-3.81 1.54v-2.86l-1.9.44c2.12-2.71-.66-5.86 0-9-1.98-.22-3.22 1.46-4.76 2.27-.51.29-1.46-.29-1.68-.15-.59.51-2.12 4.76-2.56 4.54l-3.29-3.29 2.86-2.34c-4.25-.15-8.57.22-12.81 0-11.71-.51-22.91.15-34.41-.66-.95 0-1.39.51-2.12.66-.15-1.54-.22-4.25 1.46-4.76.81-.22 2.71-.51 2.34.95l-2.86 1.9c3.15.37 4.54-.95 2.86-3.81l6.66 1.9-.15-.15Zm5.27.95c-.59 0-.59.95 0 .95s.59-.95 0-.95m41.8 0c-.59 0-.59.95 0 .95s.59-.95 0-.95M564.49 217.71c.59 0 .59.95 0 .95s-.59-.95 0-.95M294.36 109.51h.95v1.9h-.95zM334.7 115.14c.59 0 .59.95 0 .95s-.59-.95 0-.95" class="cls-1"/></g></svg>