<svg xmlns="http://www.w3.org/2000/svg" width="194" height="44"><path fill="#FFF" d="M83 1h11q1.471 4.374 2.938 8.75l.841 2.5.81 2.422.747 2.222c.634 2.012 1.152 4.06 1.664 6.106l1-22h9v28h9l1 6h3l1-34h10q.111 7.34.165 14.679.022 2.495.061 4.99c.037 2.396.054 4.79.067 7.186.015.74.03 1.48.047 2.242.001 4.497-.536 7.349-3.34 10.903-3.546 2.364-5.233 2.298-9.437 2.313l-3.434.05c-3.352-.389-4.695-1.097-7.129-3.363l-1 3H99l-6-20-1 20h-9zM0 1h10l5 12 5-12h32v8H39v9h12v7H39v10h13v8H29L28 8c-6.326 13.25-6.326 13.25-7.937 26.5l-.05 2.527C19.98 39.017 19.986 41.01 20 43H10l.098-2.98C10.12 27.642 6.244 18.116.81 7.112 0 5 0 5 0 1M166 1h12l7 23 1-23h8v42h-11l-7-22-1 22h-9z"/><path fill="#FFF" d="m67 .563 3.625-.06C74.639 1.094 76.212 2.089 79 5c2.696 5.54 2.33 10.897 2.313 16.938l.048 3.248c.004 6.712-.3 11.583-5.115 16.666-3.137 1.603-5.676 1.545-9.183 1.523l-3.653.023c-3.764-.44-5.531-.945-8.41-3.398-3.481-5.838-3.456-11.324-3.375-18l-.035-2.906C51.614 13.325 52.018 9 55 4 58.797.777 62.113.568 67 .563M65 8c-3.76 3.76-3.16 8.86-3.187 13.938l-.043 3.59C62 29.017 62.745 31.75 64 35l5 1c1.725-3.001 2.256-5.174 2.266-8.625l.007-2.64L71.25 22l.023-2.734-.007-2.641-.007-2.398C70.973 11.77 70.225 10.13 69 8zM137 1h10l1 35 5-1c1.227-6.939 1.338-13.906 1.563-20.937l.13-3.807Q154.852 5.629 155 1h10c.03 4.125.047 8.25.063 12.375l.025 3.504C165.144 36.86 165.144 36.86 161 42c-3.115 1.557-6.396 1.267-9.812 1.313l-2.159.087c-3.692.045-5.817-.268-8.978-2.232-3.701-3.913-3.184-8.043-3.149-13.117l.005-2.341c.005-2.466.018-4.932.03-7.398q.008-2.509.014-5.017Q136.968 7.148 137 1"/></svg>