<svg xmlns="http://www.w3.org/2000/svg" width="415.464" height="479.48" viewBox="0 0 109.92484 126.86242"><path fill="#FFF" d="M54.927 126.862 0 95.082V31.77L54.987 0l54.938 31.73v63.394zm-3.21-41.115L16.249 65.27v-9.339l35.468 20.477V65.303L6.58 39.245V70.87l35.547 20.523v9.374L6.581 80.245V91.34L51.717 117.4zm51.593 5.655V59.93l-35.466 20.49V70.9l35.466-20.49v-11.08L58.327 65.32v31.527l35.458-20.462v9.396l-35.458 20.462v11.12zm-48.4-31.777 27.418-15.84L46.873 23.32l8.083-4.67L90.26 39.055l9.8-5.515L54.99 7.527l-27.4 15.831 35.536 20.511-8.123 4.693-35.537-20.51-9.625 5.56z"/></svg>