<svg fill="white" xmlns="http://www.w3.org/2000/svg" width="483.000000pt" height="483.000000pt" version="1.0" viewBox="0 0 483.000000 483.000000"><path d="M419 57.4c0 1.8-.7 5-1.6 7.1-.8 2.1-1.3 4.3-1 5 .2.7-.4 2.5-1.5 4.1-1 1.6-1.9 2.3-1.9 1.6 0-.8-1.7.8-3.8 3.5-2.1 2.6-7.6 8.3-12.2 12.5-5.9 5.5-8.1 8.2-7.8 9.5.7 2.8-1.7 4.6-4.1 3.1-1.7-1-3-.5-9.5 3.8-6 4-8.1 6-10.1 10-1.4 2.7-2.5 6.1-2.5 7.6 0 3.2-4.1 6.8-7.9 6.8-2.4 0-5.8-3.4-5.3-5.3.2-.7-4.5-1.1-8.3-.7-1.1.1-3.3.9-5 1.8-1.6.9-3.5 1.7-4.2 1.8-.6.1-1.9.7-3 1.3-1.3.7-1.4 1-.3 1.1 1.2 0 1.2.2.1 1.2s-1.4 1-1.8 0c-.6-1.7-2.3-1.5-2.3.3 0 .8.7 1.5 1.5 1.5 1.5 0 2.2 2.9.8 3.1-1.6.1-3.9.7-5.7 1.5-1.5.6-1.7.3-1.2-1.2.3-1 .1-2.6-.4-3.4-.8-1.2-1.1-1.1-1.7.9-.5 2.1-.7 2.2-1.3.7-.5-1.6-.7-1.6-3.1.3-1.6 1.2-3.4 1.8-4.7 1.5-1.1-.3-7.5.6-14.1 2-6.7 1.4-18.6 3.1-26.4 3.8-23.5 1.9-42.6-1.9-52.3-10.5-6.3-5.6-7.8-8.8-8-18.1-.1-6-.5-8.1-1.7-8.8-3.9-2.1-4.5-3.7-4.5-11.3 0-4.2-.2-7.8-.5-8.1-.6-.6-21.6 9.8-35.4 17.6-5.6 3.3-12.2 7.7-14.5 9.9-2.3 2.3-4.8 4.1-5.6 4.1-1 0-1.2.8-.7 3.2.4 1.8.8 3.7.9 4.2 0 .6-.7 1.2-1.7 1.4-1.2.2-2-.3-2.4-1.8-.7-2.7-2.8-2-2.8 1 0 1.4-.9 2.6-2 3.1-3 1.1-3.5 1-3.5-.5 0-.8-.3-1.7-.7-1.9-.5-.3-.8 1.6-.7 4.1.1 4.4-1.2 14.1-2 14.9-.2.2-1.1 0-2-.3-1.3-.5-1.4-.9-.6-1.4.7-.4.9-1.3.5-1.9-1.1-1.9-3.5.7-3.5 3.9 0 2.1-.6 2.9-2.5 3.2-1.3.3-2.2.1-1.9-.3.3-.5-1.1-.9-3-.9-4 0-4.7-1.4-1.6-3 1.1-.6 2-1.8 2-2.6 0-2.3 2.5-1.1 2.8 1.4.2 1.2.7 2.2 1.2 2.2.7 0 2.4-5 1.8-5.4-.2-.1-1.4-.7-2.8-1.3-2.3-1.1-2.1-1.2 2.3-1.2 2.6-.1 4.8-.6 4.8-1.1.3-2 .4-2.5 1.2-3.6.4-.7-.1-1.4-1.2-1.7-2.3-.6-3.5.2-4.4 2.6-.4 1.2-1.5 1.8-2.9 1.6-3.1-.3-5.8 1-5.8 2.7 0 .7-.6 1.1-1.4.8-.9-.3-2.4.7-3.7 2.5-1.2 1.7-3.2 3.4-4.3 3.7-3.7 1.2-22.9 18.3-20.6 18.5.8 0 .2.5-1.5 1-5.4 1.6-39.1 35.8-38.1 38.6.3.7 0 1.3-.8 1.3-1.2 0-4.6 3.2-6 5.8-.6 1-.1 1.1 2.1.6l2.8-.7-2.5 2.4c-1.4 1.4-2.7 2.2-3 1.9s-1.1-.6-1.9-.8c-.9-.2-1.2.4-.7 2.1.8 3.2-1.2 9.7-2.9 9.7-.8 0-1.5.7-1.5 1.5 0 1.8.5 1.9 2.2.2 2.6-2.5 21.5-16.4 28.3-20.8 27-17.6 52-28.4 77.4-33.5 12-2.4 31.2-2.9 40.1-1 20.5 4.3 33.7 16.6 38.7 35.9 2.4 9.5 1.3 29.4-2.2 41.2-4 13-4 12.8 2.5 13.8 3.9.7 6 .6 7.5-.3 1.1-.7 3.1-2 4.5-2.8 2.4-1.4 2.4-1.3-.2 1.1-3.2 3-2.4 4 3 3.6 2-.2 4.7.3 5.9.9 1.2.7 3.8 1.2 5.9 1.2h3.7l-.7 4.6c-.4 3.4-.3 4.3.7 3.8.9-.5.9-.4 0 .6-1.6 1.7-7.3 2.3-9 .9-1-.9-1.3-.5-1.3 2.4 0 2-.4 3.8-1 4.2-.9.5-.5 13.3.4 14.3.3.2 0 1.5-.5 2.9-.7 2-.6 3 .6 4.3 1.5 1.7 1.2 7.5-.5 8.5-.9.6 2.5 8 4 9 1.4.8-.6 3.5-2.6 3.5-.7 0-1.7.7-2.1 1.5-.5.8-2.3 1.9-4.1 2.4-2.8.8-3.5.6-6.1-1.9-2.1-2.2-2.9-3.9-2.9-6.5 0-3.6-2.4-8.5-4.2-8.5-.6 0-1-1.1-1-2.5 0-1.8-.7-2.8-2.4-3.5-1.3-.4-3.3-2.1-4.5-3.6s-3.2-3.2-4.4-3.9c-1.3-.6-2.2-2.1-2.3-3.5-.5-11.3-.4-10.7-2.1-8.3-.8 1.3-2.1 2.3-2.7 2.3-1.3.1-11.6 16.6-10.8 17.4 1.2 1.3 4.2.5 5.6-1.5.8-1.3 2.1-1.9 3-1.6 1.1.5 1.4 2 1.1 7.1-.4 7.5-.9 8.6-3.5 8.6-1 0-2.5.9-3.3 2-1.3 1.8-2.3 2.1-8.8 1.8l-7.4-.3-5.2 6c-2.9 3.3-5.3 6.4-5.3 6.8 0 .5 1.8.6 3.9.2 3.4-.6 4.3-.3 7.1 2.5 2.7 2.7 3.6 3 7.3 2.6 2.9-.4 4.6-.1 5.9 1.1 1.6 1.4 2 1.4 5.2-.1 4.7-2.2 6.3-1.4 5.9 3.2-.2 2-.4 6.3-.6 9.4l-.2 5.7 5.7-.6c5.6-.6 5.6-.6 6 2.3l.3 2.9 12-.4c6.6-.2 14.2-.9 16.9-1.5l4.8-1.3-2.6-2c-2.8-2.3-3.5-6.3-1.1-6.3 1.4 0 1.4-.3.1-2.8-2.5-4.8-4.3-5.8-6.6-3.7-2.5 2.3-3.1 1.7-2.2-2 .8-2.9 1.1-3.2 7.3-5.8 3.2-1.4 3.9-1.4 5.8-.1 1.1.8 2.1 2.3 2.1 3.3 0 3.5 2.1 7.9 4.1 8.4 2.9.8 2.3 3.5-.8 3.9-2.5.4-2.6.5-.8 1.2 4.2 1.6 4.7 2.3 5.1 6 .2 2.1.5 3.9.6 4 .2.1 3.5 1.4 7.4 2.9 29 11.2 25.1 36.8-10.1 66.5l-5 4.3 4-1.7c2.2-.8 7.4-2.8 11.5-4.4 4.1-1.5 10.1-4 13.4-5.4 5.2-2.3 5.8-2.8 5.2-5-.4-1.5-.1-2.8.6-3.2.8-.5.9-.2.5 1-.5 1.2-.3 1.6.5 1.4.7-.3 1.3-1.5 1.3-2.8 0-1.7-.7-2.6-2.5-3.1-2.1-.5-2.2-.7-.8-1.3.9-.4 1.4-1.4 1.1-2.2-.7-1.9 2.1-1.8 3.7.1.7.9 1 2.7.7 4.3-1.3 6.3.3 6.2 15-1.2 10.7-5.4 21.9-11.5 26.1-14.2.6-.4.3-4-.6-7.5-.5-2.1-.6-4.3-.1-5.2.6-.9.5-2.7-.1-4.3-1.3-3.3-.4-6.5 1.5-5.8.9.4 1.6-.3 2.1-2 .3-1.4 1.1-2.6 1.6-2.6.7 0 .7-.5.1-1.3-1.8-2.4-.9-5.2 1.8-5.5 1.7-.2 2.9-1.1 3.2-2.3.3-1.3 1.4-1.9 3.1-1.9 2.2 0 2.6-.4 2.6-2.9 0-1.7.5-3.3 1-3.6 1.2-.7.4-2.5-1.1-2.5-.6 0-.8.4-.4.9.3.6-.4 1.5-1.5 2.1-1.8.9-2 .8-2-1.5 0-2.8-.7-3-4.4-1.3-1.8.7-2.8 2.2-3.3 4.7-.4 2-.6 4-.5 4.5.2.5-.4.6-1.2.3-1.8-.7-2.8 4-1.4 6.6.6 1.2.6 2.3 0 2.9s-1.7-.4-3-2.6c-1.8-3.1-1.9-3.6-.6-3.6s1.5-.7.9-3.8c-.3-2-1-4.1-1.5-4.6s-.3-2.1.5-3.6 1.2-3 .9-3.2c-.2-.3-.6-2.6-.9-5.1-.3-3.4-.1-4.8 1-5.5 1.3-.6 1.3-1.1.2-2.5-.8-1.2-3.6-2.1-8.7-2.8-22.3-3-36.4-13.2-42.6-31-12.6-35.7 12.7-95.9 59.3-140.9 6.5-6.3 15-14 18.8-17.1 8.8-7.1 20.6-15.1 21.2-14.5.3.3-1.8 3.1-4.6 6.3s-8.5 10.5-12.5 16.3c-24.7 35.1-32.8 70-21.5 92.3 4.6 9 14.9 17.3 26.2 21 5 1.6 8.8 2 20.2 2 15 .1 23.8-1.5 39.5-7 14.8-5.1 39.7-18.2 47.5-24.8l3-2.6-3.3 1.6c-1.8.9-7.6 2.7-13 4.2-12.7 3.4-32.5 3.9-41.2.9-18.7-6.3-28.4-21.8-26.6-42.6 1.9-21.2 14.1-45.9 34.6-70 4.4-5.1 8-9.8 8-10.2 0-.5-.7-1.1-1.5-1.4-2.4-1-.6-2.5 2.1-1.8 1.4.4 2.4.2 2.4-.5 0-.6-.4-1.1-1-1.1-.5 0-1-.5-1-1.1s.9-.9 2-.6 1.8.1 1.4-.4c-.3-.5.4-.9 1.6-.9 3.2 0 7-3 7-5.4 0-1.2.5-2.7 1.1-3.3s.9-1.7.6-2.5c-.4-.9-.8-.5-1.2.9-1 3-2.3 2.9-2.7-.2-.3-2.3-.5-2.4-2.8-1.2-2.4 1.2-2.5 1.2-2.6-1.4-.1-1.8-1.3-3.9-3.5-5.8l-3.3-3.1h4.1c3.5 0 4 .3 3.6 1.9-.3 1 .2 2.1 1 2.4 1.1.4 1.3 0 1-1.4-.3-1-.1-1.9.5-1.9s1.4-.9 1.7-2 1.3-2 2.1-2c1.6 0 1.9 1.6.4 2.5-.5.3-1 1.7-1 3.1 0 1.9.5 2.4 2.5 2.4 1.6 0 2.5.6 2.5 1.6 0 1.4-.3 1.4-1.5.4-.8-.7-1.5-.9-1.5-.4 0 .9 6.4 5.4 7.6 5.4.4 0 2.5-1.5 4.8-3.4 2.3-1.8 6.8-5 10-7.1 5.9-3.7 5.9-3.8 3.5-5.1-1.8-.9-2-1.4-.9-1.7 4.1-1.4 6.5-1.5 8.4-.5 2.1 1.1 2.1 1.1.2-1.1-1.1-1.1-3-2.1-4.3-2.1-2.4 0-3.2-1.5-1.1-2.2C475.4 80 460 70 456.5 70c-.8 0-1.4-.5-1.2-1.1.3-1.6-11.5-7.7-12.1-6.1-.2.8-.9.9-2.2.2s-2-.6-2.3.3c-.7 1.6-2.9-1.3-2.2-3 .3-.8-2.5-2.1-7.6-3.8-4.4-1.4-8.4-2.5-9-2.5-.5 0-.9 1.5-.9 3.4m9.6 2.3c1.6 2.2 1.8 9.3.3 9.3-.7 0-1.8.8-2.5 1.7-1.2 1.7-1.4 1.6-3.1-.7-4-5.6-3.3-12 1.3-12 1.5 0 3.3.8 4 1.7M457 83c0 1.1-.4 2-1 2-.5 0-1-.5-1-1.1 0-.8-.5-.8-1.5.1-1.2 1-1.5 1-1.5-.3 0-1.5 1.4-2.5 3.8-2.6.6-.1 1.2.8 1.2 1.9m-1.5 8c-.3.5.1 1 1 1 1.2 0 1.5.5 1.1 1.6-.4.9-.1 2.3.5 3 .9 1.1.7 1.4-1.2 1.4-1.7 0-2.9-1-4.1-3.5-1.6-3.2-1.6-3.4 0-3.8 2.9-.8 3.3-.7 2.7.3M400 103.5c0 1.6-.6 2.5-1.5 2.5-1.6 0-1.9-.9-.9-3.4.9-2.5 2.4-1.9 2.4.9m22 3.7c0 .5-.6.8-1.2.8-.9 0-1 .2-.2.8 1.5.9 4.6 8.3 3.8 9.1-.3.3-1.5-.5-2.6-1.9s-2.8-3.5-3.9-4.8c-2.2-2.5-2.5-5.8-.6-6.5 1.3-.4 4.7 1.3 4.7 2.5m-16 .9c0 .5-.7.6-1.5.3-.8-.4-1.5-1.3-1.5-2.1 0-1.3.3-1.3 1.5-.3.8.7 1.5 1.6 1.5 2.1m34 2.8c0 1.8-1.7 2-3.6.6-1.8-1.4-1.8-1.4.9-1.5 1.5 0 2.7.4 2.7.9m-7.5 1.1c.3.5.1 1-.4 1-.6 0-1.1-.5-1.1-1 0-.6.2-1 .4-1 .3 0 .8.4 1.1 1m-86.3 19.2c-1.5 1.5-2.4.6-1.6-1.6.5-1.2 1-1.4 1.7-.7.8.8.8 1.4-.1 2.3m-6.2-.3c0 1.9-2 2.2-3.6.7-1.4-1.5-1.3-1.6 1-1.6 1.4 0 2.6.4 2.6.9m-2.6 5.6c-.4.8-1 1.5-1.5 1.5s-.9-.7-.9-1.5.7-1.5 1.5-1.5c.9 0 1.2.6.9 1.5m-207 14.8c-.7 1.8-2.4 2.3-2.4.8 0-2.2 1.3-4.2 2.2-3.3.5.5.6 1.6.2 2.5M125 160c0 1.2-2.7 1.2-5.5 0-1.6-.7-1.3-.9 1.8-.9 2-.1 3.7.3 3.7.9m4.7 2.2c-.3.7-.5.2-.5-1.2s.2-1.9.5-1.3c.2.7.2 1.9 0 2.5m-22.3-.7c-.4.8-.8 1.5-1 1.5s-.4-.7-.4-1.5.4-1.5 1-1.5c.5 0 .7.7.4 1.5m-8.4 1.3c0 .4-1 .9-2.2.9-1.8.2-2 0-.8-.7 1.8-1.2 3-1.3 3-.2m25.7.8c-.3.3-1.2.4-1.9.1-.8-.3-.5-.6.6-.6 1.1-.1 1.7.2 1.3.5m1.3 7c0 .2-1.9.4-4.2.4-3.6-.1-4-.2-2.4-1.1 1.3-.8 1.5-1.4.7-1.8-.7-.4-.9-1.6-.5-2.6.6-1.5 1.1-1.4 3.6 1.5 1.5 1.8 2.8 3.4 2.8 3.6M94.5 168c.3.5.2 1-.4 1-.5 0-1.3-.5-1.6-1-.3-.6-.2-1 .4-1 .5 0 1.3.4 1.6 1m-10.8.6c-.3.3-1.2.4-1.9.1-.8-.3-.5-.6.6-.6 1.1-.1 1.7.2 1.3.5m46.5 1.9c.3 1.4.1 2.5-.3 2.5-.5 0-.9-1.1-.9-2.5s.2-2.5.4-2.5.6 1.1.8 2.5m-39.5-.9c-.3.3-1.2.4-1.9.1-.8-.3-.5-.6.6-.6 1.1-.1 1.7.2 1.3.5M108 175c-2 1.3-4 1.3-4 0 0-.6 1.2-1 2.8-1 2.1 0 2.4.2 1.2 1m-8.3 1.6c-.3.3-1.2.4-1.9.1-.8-.3-.5-.6.6-.6 1.1-.1 1.7.2 1.3.5M48.5 206c.3.5.1 1-.4 1-.6 0-1.1-.5-1.1-1 0-.6.2-1 .4-1 .3 0 .8.4 1.1 1m194.1 124.8c-.9.9-3.7-.8-3.1-1.8.5-.8 1.1-.7 2.1.1.8.6 1.2 1.4 1 1.7M210 348c0 .5-.2 1-.4 1-.3 0-.8-.5-1.1-1-.3-.6-.1-1 .4-1 .6 0 1.1.4 1.1 1m25 9c0 .5-.4 1-1 1-.5 0-1-.5-1-1 0-.6.5-1 1-1 .6 0 1 .4 1 1m104 4.9c0 1.9-1.7 3.8-2.5 2.9-.7-.7.7-4.8 1.6-4.8.5 0 .9.9.9 1.9"/><path d="m215.4 80.5-5.1 2.4-.5 6.3c-.3 3.5-.1 7.2.3 8.3s.8 1.4.8.6c.1-.8.8-1.1 2.1-.8 2.9.7 7.1-5.8 7.8-12 .2-2.7.9-5.4 1.5-6.1 1.5-1.8-1-1.4-6.9 1.3M354 120.5c-.8.9-.8 1.5-.2 1.5 1.2 0 2.6-1.9 1.9-2.6-.2-.2-1 .2-1.7 1.1M349.8 122.7c.7.3 1.6.2 1.9-.1.4-.3-.2-.6-1.3-.5-1.1 0-1.4.3-.6.6M129 141c0 .5.5 1 1.1 1 .5 0 .7-.5.4-1-.3-.6-.8-1-1.1-1-.2 0-.4.4-.4 1M29.2 223.2c-.7.7-1.2 1.7-1.2 2.2 0 .8.3.7.8 0 .4-.6 1.6-1.6 2.7-2.2 1.5-.8 1.6-1.1.5-1.2-.9 0-2.1.5-2.8 1.2M25.2 232.7c-2.4.3-3.2.8-2.8 1.9.3.8.1 1.4-.5 1.4s-.7.4-.4 1c.9 1.5 2.5 1.2 2.5-.5 0-.9 1.1-2 2.5-2.5s2.5-1.2 2.5-1.5-.1-.4-.2-.3c-.2 0-1.8.3-3.6.5M104 239.5c-.6.8-.9 1.8-.6 2.4.8 1.3-2.5 2.4-3.8 1.1-.7-.7-.5-1 .7-1 .9 0 1.7-.7 1.7-1.5 0-1.1-1.2-1.5-4.5-1.5-2.7 0-4.5.5-4.5 1.1 0 .8-.4.8-1.2.1-2.8-2.2-27.2 5.6-43.7 14-7.3 3.8-29.2 17-28.8 17.4.3.4 13.1-4.1 14.7-5.1s2.1-1.1 14-1.9c4.1-.3 9.6-.8 12.2-1 5.3-.6 17.7 2.3 23.8 5.4 2 1 5.2 3.3 7.1 5.1s3.8 3.2 4.4 3c.5-.1.7 0 .3.4s.6 3.1 2.3 6c5.3 9.4 6.1 23.6 2.3 40.7-.6 2.5-.4 2.8 2.1 2.8 2.4 0 2.5.1 1.1 1.6-2.2 2.2-2 3.4.7 3.4 1.8 0 1.9-.2.7-1-1.3-.9-1.3-1.1 0-2 .8-.5 2.3-1 3.4-1 1.3 0 1.6-.5 1.1-1.8-2.3-5.5-1.8-5.9 5-4.2 2 .5 2.4.8 1 .9-1.7.1-1.8.3-.5 1.1 1.1.8.8.9-1.3.4-2.6-.6-2.7-.4-2.5 2.5.1 2 .9 3.3 2 3.7 1 .3 1.6 1 1.3 1.5-.4.5-.1.9.4.9.6 0 1.1.7 1.1 1.6 0 1 .7 1.4 2.3 1.2 2.1-.3 2.2.1 2.1 5.2-.1 7.9-1.7 23.8-2.2 21.7-.4-1.9-4.8-4.1-6.3-3.1-1.4.8 0 2.4 2.2 2.4 1 0 1.9.5 1.9 1.1 0 .7-1 .9-2.5.6-1.6-.3-2.4 0-2.2.7.2.6 1.8 1.2 3.5 1.4 2.8.3 3.1.7 3.4 4l.3 3.6 7.1-8.9c4-5 9.1-11.9 11.5-15.5 5.5-8.3 14.3-24.9 13.6-25.7-.4-.3.1-1.2 1-2.1 1.4-1.4 1.4-1.7-.1-2.7-2.3-1.7-2-3.3.6-3.7 1.4-.2 2.4-1.1 2.6-2.3.3-1.8.2-1.9-.8-.2-.6.9-1.5 1.5-2 1.2-1.4-.9-.1-3.2 2.1-3.8 1-.3 1.9-1.3 1.9-2.2s.6-2.8 1.4-4.3 1.7-6.8 2.1-11.8l.7-9.1-3.1-.6c-3.4-.7-4.3-2.7-1.2-2.7 4.6 0 2.9-12.4-2.9-21.2-6.9-10.5-17.2-16.8-28.7-17.7-4-.4-7.3-.3-7.3.1 0 1.3-3.8 2.8-5.4 2.2-2.1-.8-2-3.1.2-3.7.9-.3-.2-.5-2.4-.6-2.5-.1-4.6.5-5.4 1.4m1.7 8.4c.1 1.3-.8 2.3-2.9 3-4 1.4-4.4.9-1.6-2.3 2.7-3.1 4.3-3.3 4.5-.7m9.3.1c0 .5-.5 1-1.1 1-.5 0-.7-.5-.4-1 .3-.6.8-1 1.1-1 .2 0 .4.4.4 1m-22.5 5c.3.5.1 1-.4 1-.6 0-1.1-.5-1.1-1 0-.6.2-1 .4-1 .3 0 .8.4 1.1 1m16.3 1.7c-.4 2.2-2.2 2-2.6-.1-.2-1 .3-1.6 1.3-1.6s1.5.7 1.3 1.7m9 2.2c.3.8-.4 1.2-1.9.9-2.9-.4-3.6-2.5-.7-2.3 1.2.1 2.4.7 2.6 1.4M107 259c0 .5-.4 1-1 1-.5 0-1-.5-1-1 0-.6.5-1 1-1 .6 0 1 .4 1 1m2.6 1.9c-.4.5-.1 1.1.5 1.3 1.2.4.2 5.8-1.2 5.8-1 0-1.2-6.3-.2-7.3.9-1 1.5-.8.9.2m9.9 6c-.1 2.8.3 4.8.7 4.5s.8-.1.8.4c0 .9-2.3 2.2-3.8 2.2-.6 0-.7-3-.3-10.8.1-.6.7-1.2 1.4-1.2.9 0 1.3 1.5 1.2 4.9M90 266c0 .5-.5 1-1.1 1-.5 0-.7-.5-.4-1 .3-.6.8-1 1.1-1 .2 0 .4.4.4 1m21 4.6c0 .2-.7.4-1.5.4s-1.5-.4-1.5-1c0-.5.7-.7 1.5-.4.8.4 1.5.8 1.5 1m13.4 1c.3.8.2 1.2-.4.9s-1-1-1-1.6c0-1.4.7-1.1 1.4.7m-10.4 1.9c0 1 1 1.5 2.9 1.5 1.6 0 3.1.6 3.4 1.4.4.9-.4 1.3-2.7 1.2-3.4-.1-7.1-2.9-6.1-4.6.9-1.5 2.5-1.2 2.5.5M98 275c0 .5-.2 1-.4 1-.3 0-.8-.5-1.1-1-.3-.6-.1-1 .4-1 .6 0 1.1.4 1.1 1m59 1c0 .5-.2 1-.4 1-.3 0-.8-.5-1.1-1-.3-.6-.1-1 .4-1 .6 0 1.1.4 1.1 1m-1.6 9.5c.3.9 0 1.5-.9 1.5-.8 0-1.5-.7-1.5-1.5s.4-1.5.9-1.5 1.1.7 1.5 1.5M122 294c0 .5-.5 1-1.1 1-.5 0-.7-.5-.4-1 .3-.6.8-1 1.1-1 .2 0 .4.4.4 1m-15.5 11c-.3.5-1.1 1-1.6 1-.6 0-.7-.5-.4-1 .3-.6 1.1-1 1.6-1 .6 0 .7.4.4 1m47.9 2.4c-.3.8-1.2 1.2-2 .9-1.7-.6-.9-2.3 1.1-2.3.8 0 1.2.6.9 1.4m-43.9 3.4c-.6.8-3.5-1.2-3.5-2.4 0-1.1.4-1 1.8.3 1 1 1.8 1.9 1.7 2.1m12.6 1.5c-.8.8-1.1.5-1.1-.9 0-2.7 1.4-4.1 1.8-1.9.2.9-.1 2.2-.7 2.8m-.4 6.4c-.3 1-.5.2-.5-1.7s.2-2.7.5-1.8c.2 1 .2 2.6 0 3.5m-5.4 1c-.7.2-2.1.2-3 0-1-.3-.4-.5 1.2-.5 1.7 0 2.4.2 1.8.5m5.6 3.5c0 .7-.4 2.2-.9 3.3-.7 1.7-.9 1.5-.9-1.3-.1-1.7.4-3.2.9-3.2.6 0 1 .6.9 1.2m-2.2 10c-.3.8-.6.5-.6-.6-.1-1.1.2-1.7.5-1.3.3.3.4 1.2.1 1.9M473 267.2c-8.3 9-22.7 21.1-37 31.2-5.2 3.7-9.9 7.6-10.5 8.5-.5 1-1.5 1.6-2.1 1.4s-5.6 2.1-11.1 5c-8.3 4.5-24 11.7-34 15.8-1.3.5-2.3 1.7-2.3 2.9 0 2.2 1.6 2.7 2.3.7.3-.9 1-.7 2.5.7 2.4 2.1 1.9 4-.9 3.3-2.2-.6-2.5.3-.7 2.1.9.9.9 1.8 0 3.7-1 2.1-1.5 2.3-3.6 1.6-1.3-.6-3.5-2.1-5-3.6-2.7-2.7-3.6-6-1.3-5.2.6.2 1.1 1.2 1.1 2.1-.1 1 .3 1.5 1 1.1.6-.3 1.9-.8 2.9-1.1 2.1-.8 2.2-2.4.1-2.4-1.1 0-1.5-.6-1.1-2 .3-1.3 0-2-.9-2-.8 0-1.4.4-1.4 1 0 .5-1.5 1-3.2 1-6.7 0-7.8.8-7.8 5.6 0 2.3-.5 4.6-1 4.9-.7.4-.6 1.4.1 2.8.9 1.6.9 2.2 0 2.5-1.3.4-1.5 2.2-.2 2.2 1.6 0 4.1-3.1 3.5-4.2-.4-.6 0-1.6.8-2.2s1.7-1.9 2.1-2.9c.3-.9 1.1-1.7 1.6-1.7 1.5 0 2.2 3 1.1 5-1.4 2.6-1.2 4 .5 4 .8 0 1.5.7 1.5 1.5s.7 1.5 1.5 1.5 1.5-.5 1.5-1.1c0-.5.5-.7 1-.4.7.4.9-.2.4-1.9-.5-2.1-.3-2.5 1-2 .9.3 1.6 1.5 1.6 2.5 0 1.2.7 1.9 1.9 1.9 1.1 0 2.3.4 2.6 1 .3.5 1.8 1 3.3 1.1h2.7l-3.2 1.6c-2.6 1.3-3.3 2.3-3.3 4.5 0 3.6-3.7 5.4-5.8 2.9-1.2-1.4-1.3-1.4-.9.6.3 1.4-.3 2.9-1.5 4-1.9 1.7-2 1.7-3.4-.2-1.3-1.7-1.4-1.6-1.4 1.7 0 3.4-1.4 5.7-2.6 4.5-.3-.3-.8-3.6-1-7.4-.3-3.7-.9-7-1.5-7.1-1.5-.6-1-3.2.6-3.2.8 0 1.5-.5 1.5-1 0-.6-.5-1-1.1-1-.8 0-.7-.5.1-1.5.7-.9 1-1.8.7-2.1s-1.2.3-1.9 1.5-1.8 2.1-2.5 2.1c-2.2 0-2.3 1.7-.2 4.4 1.1 1.4 1.9 3.4 1.7 4.3-.1 1 .1 2.3.5 3 .5.7.1 1-1.1.6-1-.2-2.3.2-2.9.9-1.9 2.2-3.1 14.7-1.7 16.9 1.1 1.8 3.4.7 13-6.3 46.9-34 86.3-75.5 110.8-116.6 1.4-2.3.1-1.1-7.4 7m-56 58.6-.1 2.7-1.3-2.5c-1.5-2.5-1.2-4.5.5-3.5.5.4.9 1.8.9 3.3m-24 9.9c.1.5.3 2.9.5 5.5.4 4.4.2 4.8-2 5.4-4.4 1.1-6 .2-6-3.6q0-3.45-1.2-3.3c-2.1.5-1.5-1.3 1-3 2.3-1.6 7.7-2.3 7.7-1m12 1.3c0 1.2-1.7 1.2-4.5 0-1.7-.7-1.5-.9 1.3-.9 1.7-.1 3.2.3 3.2.9m-33 10.1c0 2-1.5 2.6-2.5.9-.9-1.5.3-4.3 1.5-3.5.5.3 1 1.5 1 2.6m18.6 2c1 1.6-4.2 2-7 .5l-2.8-1.4h4.6c2.6.1 4.9.5 5.2.9M363 369.4c0 .3-.4.8-1 1.1-.5.3-1 .1-1-.4 0-.6.5-1.1 1-1.1.6 0 1 .2 1 .4M238.2 270.2c.2.6 1 1.4 1.6 1.6.7.2 1-.2.6-1.2-.7-1.8-2.8-2.2-2.2-.4M225.4 275.4c-.3.8-.4 2.9-.2 4.8.2 2.6.8 3.4 2.7 3.6 2.1.3 2.3.1 1.6-2-.4-1.2-.9-3.5-1.2-5.1-.6-2.9-2-3.6-2.9-1.3M215.5 299.2c-.8 2.1.1 3.8 2.1 3.8 1.8 0 1.8-1.1 0-3.6-1.3-1.7-1.5-1.8-2.1-.2M231.5 307c-.3.5.3 1 1.5 1s1.8-.5 1.5-1c-.3-.6-1-1-1.5-1s-1.2.4-1.5 1M225.1 311.6c0 1.1.3 1.4.6.6.3-.7.2-1.6-.1-1.9-.3-.4-.6.2-.5 1.3"/><path d="M107.6 330.7c-.3.3-.1 1.2.5 2 1.3 1.5.9 1.6-6.6 1.4-5-.1-5-.1-2 1.2 1.7.8 3.8 1.2 4.7.9 1.7-.4 1.9 1.2.5 3.6-.5.7-.2 1.4.7 1.8.8.3 1.2 1.2.9 2s0 1.4.6 1.4 1.1.7 1.1 1.5.7 1.5 1.5 1.5 1.5.4 1.5 1c0 .5.8 1 1.8 1.1 1.2 0 1.1.3-.7 1-1.5.6-2.8.6-3.5 0-.8-.7-1.6-.4-2.4 1-.7 1-1.8 1.9-2.5 1.9-.8 0-.7-.4.3-1 1.1-.7.6-1-2.2-1-2 0-4.4-.3-5.4-.7-1.6-.6-1.6-.7.2-1.4 1.4-.6 1.5-.8.3-.8-1.1-.1-1.5-1-1.5-3.4.1-1.7.5-3.8.9-4.5.5-.6.5-1.7.1-2.4-.5-.8.2-.9 2.4-.5 1.8.4 3.2.3 3.2-.2s-1.3-1.1-2.9-1.3c-2.3-.3-3.2.1-4.6 2.4-.9 1.5-1.8 3.8-2 5-.3 1.2-1 2.5-1.7 3-1 .6-1 1 0 1.7 1.1.6.9 1-.7 1.4-3 .7-2.6 2.1 1.2 3.9 2.8 1.3 3.6 1.3 6.6.1 1.8-.8 3.6-1.2 3.9-.9.3.4 0 .6-.6.6-.7 0-1.2.4-1.2 1 0 .5.7 1 1.6 1 1 0 1.4.6 1 1.5-.4 1 .1 1.5 1.4 1.5 1.4 0 1.8-.5 1.3-1.7s-.2-1.5 1-1c.8.3 3.2.9 5.1 1.3 3.1.5 3.5.4 3-1-.4-1.1-1.8-1.6-4.3-1.6-2 0-3.1-.4-2.4-.8.6-.4 3.4-.7 6.2-.6 4.2.1 5.1-.2 5.1-1.6 0-1-1-2.1-2.2-2.4l-2.3-.7 2.3-.9c2.7-1.1 2.9-3 .3-3.7-1.2-.3-1.7-1.1-1.4-1.9.4-1.1.8-1.2 1.9-.3.8.7 1.7.9 2 .6 1-1-2.1-4.8-4.4-5.4-1.8-.4-2.1-.8-1-1.4 1-.7.9-.9-.4-.9-1 0-1.8-.7-1.8-1.5 0-1.6-3.4-3.8-4.4-2.8m2.8 4.8c-.7 1.6-2.4 2.1-2.4.6 0-.8.7-1.3 2.7-2 .1-.1 0 .6-.3 1.4m.6 4c1.1 1.3.8 1.5-1.3 1.5-1.9 0-2.5-.4-2.1-1.5.4-.8 1-1.5 1.4-1.5s1.3.7 2 1.5m3.5 6c1.2.4 1.5.9.8 1.2-1.4.5-6.3-2.5-6.3-4 0-.5.8-.3 1.8.5.9.8 2.6 1.8 3.7 2.3M337.5 339c-.4.7-2 .8-4.3.4-3.5-.7-3.6-.6-1.9 1 1.9 2 2.2 3.6.6 3.6-.7 0-.8.7-.4 1.7s.8 2.7 1 3.8c.4 3 .4 3 1.9 1 1.3-1.8 1.3-1.8 2.4.1.7 1.2 1.2 1.4 1.2.5 0-.7.6-1.1 1.4-.8s1.6.2 1.8-.4c.2-.5 1.9-.1 3.8.9 2.5 1.2 3.4 2.3 3.2 3.7-.2 1.8-.2 1.9.8.2 1.3-2 3.6-2.3 4.3-.5.3.8.6.6.6-.4.1-1.7-5.6-5.5-6.6-4.4-.3.3-1.5-.6-2.5-2-1.4-1.7-2.6-2.3-3.9-1.9-1.1.4-2.6.1-3.4-.5-1.2-1-1.2-1.5.2-3.6.9-1.4 1.3-2.7 1-3s-.8 0-1.2.6"/><path d="M340.5 340c-.3.5-.1 1 .4 1 .6 0 1.1-.5 1.1-1 0-.6-.2-1-.4-1-.3 0-.8.4-1.1 1M353 341c0 .5.5 1 1 1 .6 0 1-.5 1-1 0-.6-.4-1-1-1-.5 0-1 .4-1 1M351.9 345.7l-2.4 2.6 2.7-1.9c1.5-1 2.8-2.2 2.8-2.7 0-1.2-.5-.8-3.1 2M153.6 349.5c-.4 1.5-1.1 2.2-1.9 1.9-1.8-.7-4.1 2.2-3.3 4.2.4 1.2.1 1.4-1.4.9s-4 .9-9.6 5.4c-4.2 3.4-10.2 7.9-13.5 10.2-3.2 2.2-5.9 4.3-5.9 4.7-.1.4-.3 2.9-.6 5.7-.3 2.7-.6 6.7-.7 8.7-.2 2.6-.9 4.3-2.5 5.4-1.2.8-2.2 2.5-2.2 3.8 0 1.2-.5 2.7-1.2 3.4-2.6 2.6 1.4 1.1 8.5-3.2 20.1-12.2 44.9-22.5 68.9-28.6 10.4-2.7 12.6-3.5 11.7-4.6-.6-.8-1.9-1.4-2.8-1.4-1 0-3.2-1.6-5.1-3.5s-3.8-3.5-4.3-3.5c-2.3 0-10.7-4.6-10.7-5.9 0-1-.8-1.1-2.7-.7-1.6.4-4.5 1.1-6.6 1.5-2.1.5-4.8 1.8-6.1 3-1.2 1.1-2.9 2.1-3.8 2.1-2 0-3-2.4-1.6-3.8.7-.7.6-1.6-.1-3-.6-1.1-.8-2.8-.5-3.6.3-.9.2-1.6-.4-1.6-.5 0-1.3 1.1-1.6 2.5m-.6 5.5c0 1.1-.1 2-.3 2-.1 0-1-.9-2-2-1.6-1.9-1.6-2 .3-2 1.3 0 2 .7 2 2m-5.2 6.8c.2.7-.3 1.2-1.2 1.2s-1.6-.7-1.6-1.6c0-1.7 2.2-1.4 2.8.4m4.2 4c0 1-6.1 3.3-7.1 2.6-1.5-.9-1-2.2.9-2.7 2.9-.8 6.2-.7 6.2.1M352 349c0 .5.5 1 1 1 .6 0 1-.5 1-1 0-.6-.4-1-1-1-.5 0-1 .4-1 1M368.7 353.7c-.4.3-.1 1.3.6 2.1 1 1.3.8 1.4-1.3.8-2.3-.6-2.3-.6-.7.7 2.4 2 2.1 3-.5 1.6-1.8-1-2-.9-1.5.6.4.9.7 2 .7 2.5 0 .4 1.1.7 2.5.7 2.3 0 2.5-.3 2.5-4.8 0-4.6-.7-5.9-2.3-4.2M90.8 359.9c-.3 4.5-.3 5.1.5 5.1.4 0 .7-.3.6-.6 0-.4.4-1 .9-1.3 1.8-1.1 1.8-4.5 0-4.9-1.2-.2-1.9.3-2 1.7M375.6 359.3c.3 1 .9 1.5 1.2 1.2s0-1.1-.7-1.8c-1-.9-1.1-.8-.5.6M105 361c-1.2.8-1 1 .8 1 1.3 0 2-.4 1.7-1-.7-1.2-.6-1.2-2.5 0M101.5 364c-.4.6.3 1 1.4 1 2.5 0 2.7-.6.6-1.3-.8-.4-1.7-.2-2 .3M95 367c0 .5.9 1 1.9 1 1.1 0 2.3-.5 2.6-1 .4-.6-.5-1-1.9-1s-2.6.4-2.6 1M102 367.1c0 1 6 1.5 9.5.8 2.8-.6 2.8-.7.5-.9-7.1-.6-10-.6-10 .1M83 368.5c1.5 1.9 2.1 1.9 4.6 0 1.8-1.3 1.6-1.4-2-1.5-3.3 0-3.7.2-2.6 1.5M353.3 370.7c-1.7.6-1.6 3 .1 3.6.9.4 1.4-.2 1.4-1.9 0-1.3-.1-2.4-.2-2.3 0 0-.7.3-1.3.6M101.3 371.7c.9.2 2.5.2 3.5 0 .9-.3.1-.5-1.8-.5s-2.7.2-1.7.5M111.3 371.7c.9.2 2.3.2 3 0 .6-.3-.1-.5-1.8-.5-1.6 0-2.2.2-1.2.5M77 374.1c0 .8 4.8 1.7 7.8 1.5 1.2 0 2.1-.5 2-1-.3-1.1-9.8-1.5-9.8-.5M91.2 374.2c-1.6 1.6-1.5 3.8.2 3.8s3-3 1.8-4.2c-.4-.4-1.3-.3-2 .4M108.5 373.9c1.4 1.4 7.8 1.8 8.2.5.2-.6-1.6-1.1-4.4-1.3-3.1-.1-4.5.1-3.8.8M336.8 376.3c-3.2.9-3.7 1.4-4 4.6-.4 4.8.1 9.1 1.2 9.1.4 0 .6-.9.3-2-.8-3.1 3.2-2.6 7.7 1 3.7 2.9 3.9 3 4.9 1.2.6-1 .8-4.2.6-7-.2-2.9.1-5.4.6-5.8.5-.3.7-1 .4-1.5-.8-1.1-6.9-1-11.7.4M99.5 378c.3.5 1.2.7 2 .3 2.1-.7 1.9-1.3-.6-1.3-1.1 0-1.8.4-1.4 1M79.1 379.9c-2.3 1.5.3 2 2.9.5 2.2-1.2 2.3-1.3.5-1.3-1.1-.1-2.6.3-3.4.8M70.5 381c-.3.5.1 1 .9 1s1.8-.5 2.1-1c.3-.6-.1-1-.9-1s-1.8.4-2.1 1M84.5 383.3c2.2 1.8 6.5 2.3 6.5.7 0-.6-1.1-1-2.4-1s-3.3-.3-4.3-.6c-1.6-.6-1.6-.5.2.9M109.5 384c.3.5 1.4 1 2.3 1 1.5 0 1.5-.2.2-1-2-1.3-3.3-1.3-2.5 0M76 388.7c0 .6.5 1.5 1 1.8.6.3 1 0 1-.7 0-1 .2-1 .9.1.5.8 1.6 1.1 2.4.8s2 0 2.6.6c.9.9 1.4.8 2.1-.3 1.2-1.8 1.3-3 .3-3.1-8.1-.5-10.3-.3-10.3.8M97 388c0 .5.5 1 1 1 .6 0 1-.5 1-1 0-.6-.4-1-1-1-.5 0-1 .4-1 1M60.4 394.5c-.9 2.2 1.7 4.8 3.9 3.9 1.8-.6 2.4-4.4.8-4.4-.5 0-1.6-.3-2.5-.6-1-.4-1.8 0-2.2 1.1M331 394.9c0 1.1.4 2.2.9 2.5 1.1.7 2.3-2.2 1.5-3.5-.9-1.6-2.4-1-2.4 1M78.7 397c4.3 3.2 4.4 3.5 3.4 10.2 0 .5-1 .8-2.1.8-2.5 0-2.5.9-.2 2.6 1.4 1 1.5 1.5.4 2.6s-1.4 1-2.1-.1c-.5-.8-1.6-1.1-3-.6-1.8.5-2.1.2-2.1-2.2.1-2.5.2-2.6 1.4-1.1 1.7 2.3 2.6 2.3 2.6-.2 0-1.1-.7-2-1.6-2-1.1 0-1.4-.6-.9-2 .5-1.5 0-2.3-2-3.2-2.3-1-2.9-.8-6 2.3-1.9 1.9-3.5 3.7-3.5 4 0 .4 1.4.6 3.2.5 3.6-.1 5.1 2.2 1.9 3.1-1.2.3-2.1 1.3-2.1 2.5 0 1.7-.4 1.9-2.7 1.3-6.9-1.8-12.7.1-10.1 3.2.6.7.6 1.3.2 1.3-.5 0-1.5.9-2.2 2-1 1.7-1 2 .4 2 .8 0 1.3-.4 1-.9s.6-1.1 2-1.4c2-.4 2.4-.1 1.8 1.2-.3.9-.9 2.6-1.2 3.9-.5 2.4-3.6 2.8-3.8.4-.1-.6-.2-1.5-.3-1.8 0-.3-1.1.2-2.3 1-1.2.9-3.5 1.6-5 1.6-3.5 0-3.6 1.3-.3 2.8s3.5 1.5 3.5-.2c0-.8.7-1.6 1.5-2 .8-.3 1.5-.1 1.5.4 0 .6.7 1 1.5 1 2.7 0 1.5 1.7-1.7 2.5-4.9 1.2-9.6 1.2-9.1-.1.2-.6-.3-1.7-1.2-2.4-.8-.7-1.5-.8-1.5-.3s-.8 1.8-1.8 2.9c-3.9 4.2-5.3 7.1-4 8.1 2.9 2.3 7.9 4.1 9.8 3.6 1.3-.3 2.7.3 4.2 2 2 2.3 2.3 2.4 3.5.8 1.1-1.3 1.4-1.4 2.2-.2.5.8.7 2 .5 2.6-.3.7.4 1.5 1.5 1.8 1.6.4 2.1 0 2.1-1.4 0-1.9 1.6-2 6.9-.3.8.3 1.8-.1 2.3-.8 1.1-1.8 1-3-.2-2.3-.5.3-1 .1-1-.5 0-.8-.9-1-2.4-.6-3 .7-4.1-.7-2.6-3.4.9-1.6.8-2-.6-2-1.6 0-1.5-.2.2-2.1 1.5-1.6 1.6-2.2.5-2.9-.9-.5-1.2-1.9-.9-3.9.3-2.1 0-3.1-.9-3.1-.7 0-1.3-.5-1.3-1.1 0-2.3 3.5-.3 3.7 2.1 0 1.4.1 3.3.2 4.2s1 2 2.1 2.3c1.2.4 2 1.5 2 2.9 0 3.1 3.6 6.4 5.3 4.7.8-.8.9-1.4.1-1.9-.6-.4-1.5-1.8-1.9-3.2s-1.8-3.9-3.1-5.6-2.4-3.8-2.4-4.6c0-.9-1-2.2-2.1-3-2-1.3-2.1-1.6-.7-4.2 1.1-2.1 2.3-2.9 4.6-3.1 1.8-.2 3.2.2 3.2.7 0 .6 1.1.7 2.5.4 1.7-.4 2.5-.2 2.5.6.1.8.6.6 1.4-.5 1.5-1.9 4.1-2.3 5.1-.7.4.7 1.4.6 2.8-.2 1.2-.6 3.5-1.4 5.2-1.8 2.5-.5 3-1.1 3.1-4 .1-1.9.7-3.6 1.2-3.8.6-.2.2-1.2-.9-2.3-2.1-2.1-2.6-6.8-.6-6.5.6 0 1.3-.4 1.4-.9.2-.6-.5-1-1.5-1.1-.9 0-3-.6-4.7-1.3-1.6-.7-4.6-1.5-6.5-1.7l-3.5-.5zm7.3 9.4c0 .8-.7 1.6-1.5 2-1.5.5-2.1-1.4-.8-2.7 1.1-1.2 2.3-.8 2.3.7M61 401c0 .5.5 1 1 1 .6 0 1-.5 1-1 0-.6-.4-1-1-1-.5 0-1 .4-1 1M46 401.6c0 .5-1.7 1.8-3.7 2.7-5.9 2.6-11.3 7.5-11.3 10.2 0 3-1.4 3.9-4 2.5-1.6-.8-2.7-.5-6 1.6l-4 2.6 1.7 2.9c1.4 2.3 1.4 3 .3 4.4-2 2.5 1.8 6 5.5 5.1 2.5-.6 2.6-.8 1-2-1.3-1-1.6-2-1.1-4.1.5-1.8.3-3.1-.5-3.6-2.2-1.3-.1-3.6 4.5-4.8 2.4-.6 4.8-1.6 5.1-2.1.4-.6 1-.8 1.5-.5.8.5 11-1.2 11.8-2 .3-.2-.1-1.1-.8-2-1.1-1.3-.8-1.5 1.8-1.5 1.7 0 3.2.6 3.5 1.2.3.9 1.3.5 3.1-1.1 3.1-2.9 3.2-3.5.6-6.1-2.4-2.4-4.5-2.6-3.6-.5.9 2.5-1.1 1.7-3.3-1.3-1.1-1.5-2.1-2.2-2.1-1.6"/><path d="M40 419.8c0 .2.4 1.2 1 2.2.8 1.6 1.4 1.7 4.5.7 4.9-1.5 4.4-3.2-1-3.2-2.5 0-4.5.1-4.5.3M63 422c0 .5.5 1 1 1 .6 0 1-.5 1-1 0-.6-.4-1-1-1-.5 0-1 .4-1 1M72.3 423.3c-1.8.6-3.3 1.5-3.3 2 0 .4-.9.5-2 .2-1.1-.4-2-.2-2 .4s.5 1.1 1.1 1.1.8.8.5 1.8c-.5 1.3.1 2.2 1.7 2.9 2.4 1.1 4.4 5.3 2.5 5.3-.5 0-.6.5-.3 1.1.4.6 1.3.8 2.1.5s1.4-.1 1.4.4-.7 1-1.5 1.2c-1 .2-1.2.8-.6 1.7.8 1.2 1.1 1.2 2.3 0 .8-.8 1.3-2 1-2.7-.2-.7.2-1 1.2-.6.9.3 1.6.1 1.6-.4 0-.6-1-1.2-2.2-1.4s-2.4-.9-2.6-1.7c-.3-1 .1-1.2 1.7-.8 1.1.3 2.1.2 2.1-.2 0-1.3-2.4-3.1-4.1-3.1-1 0-2-.4-2.3-.9-.7-1 .6-.9 4.2.3 1.7.6 2.9.3 4.3-1 2-1.8 2-1.8 1.5 1l-.5 2.9 2.9-2.8c3.6-3.5 3.7-4.3.6-5.5-1.3-.5-2.7-1.4-3.1-1.9-.7-1.3-3.8-1.2-8.2.2M59.5 453c2.7 1.2 3.5 1.2 3.5 0 0-.6-1.2-1-2.7-.9-2.5 0-2.6.1-.8.9M66 454c0 .5.7 1 1.6 1 .8 0 1.2-.5.9-1-.3-.6-1-1-1.6-1-.5 0-.9.4-.9 1"/></svg>