<svg viewBox="18 0 182 140" xmlns="http://www.w3.org/2000/svg" width="200" height="140" fill="none"><path fill="#fff" d="M194.967 8.142c-.535-.435-1.07-.88-1.635-1.294-3.864-2.826-8.382-5.1-13.395-6.848-.258 8.142-13.832 18.141-32.231 23.27-20.033 5.582-38.195 3.26-40.553-5.188-1.565-5.583 4.181-12.45 14.06-18.082 0 0-.05.01-.08.02a162 162 0 0 0-21.43 7.035 186 186 0 0 0-4.637 1.966 161 161 0 0 0-4.637 2.134 168 168 0 0 0-17.25 9.506q-1.352.86-2.675 1.72a157 157 0 0 0-10.096 7.232 138 138 0 0 0-11.166 9.683 116 116 0 0 0-4.25 4.318 140 140 0 0 0-3.092 3.419 108 108 0 0 0-2.635 3.152 88 88 0 0 0-2.457 3.182 82 82 0 0 0-1.16 1.6c-.327.455-.634.91-.95 1.364a82.4 82.4 0 0 1 10.085-8.488c21.996-15.7 50.481-20.839 59.656-8.063 9.164 12.776-4.459 38.615-26.444 54.316a83 83 0 0 1-10.364 6.323c15.555-13.961 22.471-31.114 15.526-40.788-7.302-10.167-27.386-8.537-46.538 3.162 11.692-3.923 22.144-3.014 26.712 3.35 6.747 9.396-1.922 27.123-19.37 39.573a78 78 0 0 1-2.804 1.897c-3.448 2.233-6.955 4.08-10.403 5.523a37.5 37.5 0 0 0 5.033 4.891c.535.435 1.07.88 1.635 1.295 3.864 2.825 8.382 5.098 13.395 6.847.258-8.142 13.832-18.141 32.23-23.27 20.034-5.582 38.195-3.26 40.553 5.188.744 2.638-.148 5.563-2.338 8.507-.872 1.176-1.952 2.362-3.22 3.528a37 37 0 0 1-2.041 1.739 47 47 0 0 1-3.547 2.539 56 56 0 0 1-2.665 1.631c-.079.049-.169.089-.248.138 0 0 .05-.01.079-.02a162 162 0 0 0 21.431-7.035 172 172 0 0 0 9.274-4.101 179 179 0 0 0 7.916-4.031 162 162 0 0 0 7.52-4.338 169 169 0 0 0 6.123-3.942 151.28 151.28 0 0 0 13.029-9.861q1.727-1.468 3.379-2.964c1.1-.998 2.18-2.006 3.22-3.014.525-.504 1.04-1.018 1.555-1.522.743-.74 1.457-1.482 2.17-2.233a122 122 0 0 0 3.617-3.972 109 109 0 0 0 2.635-3.152 89 89 0 0 0 2.457-3.182 92 92 0 0 0 2.111-2.964 82.4 82.4 0 0 1-10.087 8.488c-21.995 15.7-50.48 20.839-59.655 8.063-9.165-12.776 4.459-38.615 26.444-54.316a83 83 0 0 1 10.364-6.323c-15.555 13.961-22.471 31.115-15.526 40.788 7.302 10.167 27.386 8.537 46.537-3.162-11.691 3.923-22.144 3.014-26.711-3.35-6.747-9.396 1.922-27.123 19.37-39.573a77 77 0 0 1 2.804-1.897c3.448-2.233 6.955-4.08 10.393-5.523-1.496-1.769-3.19-3.39-5.033-4.891z"/></svg>