<svg xmlns="http://www.w3.org/2000/svg" viewBox="0 0 721.7529 449.8614"><path d="M552.72 370.91c-.122 3.037-.21 7.916-.552 12.776a66.942 66.942 0 0 1-1.283 9.224c-.708 3.324-1.465 6.702-2.776 9.815-1.46 3.465-2.976 6.92-4.79 10.271-4.204 7.761-10.216 13.866-16.728 19.535-1.963 1.71-4.266 3.157-6.512 4.604-3.39 2.183-6.965 3.932-10.555 5.672-2.338 1.134-4.82 1.996-7.288 2.829-3.151 1.063-6.354 1.975-9.534 2.952-.077.023-.154.05-.232.06-3.068.391-6.13 1.051-9.205 1.118-7.514.163-15.034.08-22.55.02-1.166-.01-2.328-.43-3.492-.655-.627-.121-1.254-.322-1.884-.335-3.783-.076-7.31-1.141-10.798-2.522-1.756-.694-3.678-.957-5.482-1.546-1.416-.462-2.78-1.096-4.144-1.706-2.52-1.125-5.21-2.007-7.485-3.51-2.613-1.725-5.599-2.705-8.097-4.675-3.233-2.548-6.796-4.674-10.164-7.056-1.206-.852-2.231-1.954-3.388-2.88-4.948-3.963-9.672-8.163-13.805-12.985-2.984-3.482-5.96-6.974-8.852-10.533a224.697 224.697 0 0 1-7.04-9.123c-1.16-1.588-2.09-3.35-3.072-5.063-.867-1.513-2.104-1.558-3.128-.106-3.665 5.2-7.242 10.465-11.062 15.548-2.573 3.423-5.275 6.808-8.318 9.806-4.713 4.643-9.422 9.293-14.635 13.437-4.732 3.76-9.628 7.247-14.76 10.38-3.462 2.112-7.211 3.76-10.855 5.567a89.08 89.08 0 0 1-5.807 2.654c-1.314.538-2.707.887-4.072 1.293-3.19.95-6.384 1.883-9.577 2.82-.152.045-.313.061-.471.082-2.749.363-5.493.994-8.247 1.035-7.992.119-15.988 0-23.982-.025-3.072-1.105-6.404-.642-9.523-1.739-3.72-1.308-7.639-2.043-11.38-3.3-2.384-.803-4.639-2.032-6.885-3.198-2.918-1.516-5.837-3.052-8.63-4.783-2.2-1.364-4.335-2.894-6.273-4.606-2.844-2.512-5.665-5.094-8.161-7.94-2.438-2.778-4.603-5.83-6.621-8.934-2.624-4.036-4.607-8.436-6.21-12.968-.892-2.526-1.38-5.193-2.088-7.785-.673-2.46-.846-5.005-1.3-7.487-1.792-9.777-.861-19.59-.796-29.392.01-1.73.592-3.448.736-5.187.178-2.146.08-4.316.272-6.46.313-3.493.79-6.972 1.15-10.462.204-1.987.265-3.988.483-5.973.183-1.656.552-3.292.742-4.948.192-1.663.24-3.342.395-5.009.215-2.297.474-4.59.71-6.885.139-1.351.424-2.709.374-4.054-.135-3.63.7-7.14 1.086-10.706.679-6.27 1.253-12.554 1.813-18.837.46-5.167.488-10.402 1.385-15.487.516-2.925 2.4-5.41 5.626-6.72 2.766-1.122 5.492-1.023 8.188-.638 2.692.383 5.279 1.473 7.932 2.176 3.601.955 7.231 1.804 10.832 2.76 2.296.61 4.537 1.443 6.85 1.972 3.157.723 6.218 1.774 9.49 2.148 2.887.33 5.688 1.407 8.529 2.15.683.178 1.366.36 2.055.51 1.303.28 2.61.544 3.917.806.47.094.948.243 1.418.23 2.912-.084 5.577 1.108 8.38 1.58 2.741.463 5.496.86 8.225 1.386 4.039.777 8.19 1.308 11.468 4.166 2.068 1.803 3.69 3.877 3.742 6.805.02 1.197.034 2.396.109 3.59.165 2.633-1.114 4.93-1.811 7.334-.807 2.786-2.606 5.32-3.194 8.127-.767 3.656-2.914 6.8-3.336 10.573-.23 2.052-1.391 3.984-1.95 6.02-.712 2.592-1.245 5.234-1.841 7.857-.07.309.054.711-.102.942-1.885 2.787-1.023 6.066-1.575 9.085-.555 3.032-.569 6.19-.54 9.29.015 1.725.804 3.436.878 5.17.113 2.655 1.193 4.907 2.67 6.925 2.286 3.124 5.291 4.944 9.4 5.107 4.295.17 7.871-1.43 11.389-3.485 3.52-2.056 6.119-5.17 9.065-7.892 5.333-4.925 9.283-10.955 13.526-16.744 1.904-2.598 3.517-5.41 5.223-8.15 2.242-3.6 4.449-7.223 6.665-10.84 1.813-2.96 3.556-5.966 5.44-8.881 3.695-5.721 8.67-9.766 15.048-12.428 4.194-1.751 8.364-1.523 12.62-1.613.318-.006.641.127.953.098 2.71-.254 5.066.836 7.521 1.763 4.664 1.762 8.275 4.838 11.52 8.476a43.97 43.97 0 0 1 6.365 9.288c1.67 3.257 3.817 6.27 5.76 9.387 2.025 3.247 4.046 6.496 6.09 9.73 3.672 5.812 7.77 11.335 12.201 16.564 4.087 4.823 8.7 9.17 14.284 12.348 3.829 2.18 7.973 2.97 12.184 2.104 3.343-.687 6.01-2.857 7.54-6.039 3.457-7.19 3.703-14.692 1.998-22.358-.12-.543-.224-1.102-.228-1.655-.014-2.263-.338-4.454-1.326-6.517-.136-.285-.266-.601-.283-.91-.21-3.845-1.797-7.361-2.713-11.032-.986-3.953-2.436-7.798-3.824-11.639-1.124-3.111-2.573-6.107-3.658-9.23-.78-2.247-1.437-4.589-1.732-6.94-.637-5.09 1.929-9.626 7.174-12.239 2.149-1.07 4.436-1.218 6.628-1.855 2.882-.838 5.96-.982 8.933-1.532 1.944-.359 3.853-.908 5.776-1.377.23-.056.448-.178.68-.211 2.806-.406 5.623-.742 8.416-1.22 1.55-.266 3.04-.886 4.59-1.132 2.824-.449 5.556-1.287 8.378-1.787 4.58-.81 9.009-2.462 13.512-3.722 1.45-.406 2.92-.768 4.402-1.023 3.454-.595 6.664-2.018 9.998-2.91 3.293-.882 6.732-1.804 10.314-1.308 3.293.456 6.876 3.67 7.913 6.851 1.316 4.037 1.169 8.19 1.536 12.307.751 8.426 1.485 16.853 2.263 25.277.572 6.196 1.214 12.385 1.804 18.58.53 5.559.71 11.175 1.643 16.665.743 4.373.354 8.783 1.055 13.09 1.098 6.748 1.137 13.524 1.34 22.151Z" style="fill:#fff"/><path d="M147.668 61.19c1.346-.92 1.623-2.481 2.076-3.846.817-2.46 1.39-4.986 2.391-7.407.93-2.248 1.325-4.712 2.128-7.02 1.494-4.303 3.293-8.507 4.62-12.857.897-2.946 2.803-4.84 5.116-6.546 2.273-1.678 4.898-1.518 7.358-.963 1.796.406 3.493 1.477 5.093 2.476 5.056 3.158 10.061 6.4 15.055 9.655 3.228 2.104 6.367 4.344 9.608 6.426 5.5 3.534 11.037 7.011 16.582 10.475 4.26 2.662 8.578 5.234 12.832 7.906 4.031 2.533 8.026 5.124 12.013 7.727 2.716 1.774 4.222 4.471 5.215 7.435.338 1.009.45 2.326.093 3.29-.926 2.494-1.503 5.198-3.676 7.093-2.186 1.907-4.173 4.052-6.427 5.868-6.465 5.21-12.796 10.567-18.762 16.344-.645.625-1.124 1.423-1.834 2.339 4.802 2.966 9.339 5.79 13.898 8.577 4.54 2.774 9.097 5.507 13.794 8.023 3.621 1.94 6.948 4.422 10.486 6.528 3.097 1.842 6.312 3.484 9.462 5.238 1.99 1.107 3.958 2.25 5.93 3.388 2.776 1.603 5.574 3.17 8.312 4.836 2.787 1.695 5.522 3.476 8.262 5.246 1.782 1.15 3.525 2.36 5.3 3.522 3.936 2.573 7.285 5.845 10.14 9.495 2.213 2.829 3.573 6.134 4.3 9.859.814 4.168.453 8.086-.384 12.073-.24 1.145-.8 2.257-1.379 3.29-2.174 3.88-5.008 7.137-9.05 9.19-1.75.888-3.465 1.864-5.273 2.617-1.452.604-2.993 1.09-4.541 1.35-4.008.673-8.025 1.443-12.07 1.726-9.104.636-18.227.51-27.31-.413-4.676-.474-9.31-1.354-13.965-2.046-.631-.093-1.271-.13-1.9-.238-1.4-.24-2.794-.506-4.19-.766-2.116-.394-4.23-.793-6.346-1.189-3.503-.656-6.915-1.681-10.465-2.202-2.764-.406-5.404-1.623-8.114-2.433-1.59-.475-3.185-1.02-4.817-1.252-4.457-.634-8.515-2.575-12.806-3.745-3.65-.996-7.232-2.253-10.828-3.44-1.404-.463-2.777-1.023-4.144-1.59-1.295-.536-2.578-.856-3.854-.242-1.137 2.145-2.288 4.206-3.334 6.319a192.735 192.735 0 0 0-3.37 7.214 92.67 92.67 0 0 0-2.33 5.696c-1.223 3.333-2.378 6.692-3.538 10.049-1.134 3.279-2.303 6.548-3.336 9.86-.728 2.336-1.25 4.736-1.873 7.106-.4 1.524-.788 3.052-1.227 4.565-.772 2.658-1.58 5.305-2.373 7.957-.046.153-.13.3-.145.456-.408 4.137-1.833 8.045-2.698 12.076-.649 3.02-.918 6.12-1.381 9.18-.083.545-.318 1.065-.43 1.608-.32 1.558-.631 3.118-.913 4.683a237.497 237.497 0 0 0-.823 4.955c-.237 1.497-.423 3.003-.678 4.497-.253 1.484-.559 2.959-.852 4.436-.109.548-.393 1.102-.349 1.632.256 3.088-.761 5.996-1.263 8.963-1.618 9.563-9.12 13.756-17.74 11.81-3.504-.79-6.965-2.035-10.232-3.536-3.49-1.603-6.699-3.81-10.087-5.65-3.867-2.1-7.81-4.06-11.694-6.13-2.567-1.37-5.091-2.82-7.628-4.246-2.892-1.626-5.753-3.307-8.67-4.888-4.267-2.313-8.603-4.5-12.848-6.85-3.73-2.066-7.347-4.336-11.069-6.416-3.362-1.878-6.841-3.547-10.192-5.444-4.233-2.397-8.558-4.623-12.445-7.632-2.703-2.093-4.143-4.943-5.73-7.757-.253-.448-.157-1.091-.227-1.644-.654-5.14 1.016-9.67 3.536-14.034 3.474-6.017 7.53-11.607 11.91-16.989 2.83-3.479 5.405-7.17 8.264-10.624 3.157-3.816 6.51-7.471 9.776-11.198 2.248-2.565 4.43-5.19 6.756-7.684 3.111-3.336 6.308-6.594 9.51-9.844 5.063-5.135 10.117-10.279 15.257-15.336 3.258-3.204 6.65-6.273 10.017-9.366.814-.748 1.522-1.438 1.014-2.49-1.645-.833-3.182-1.575-4.686-2.379-3.822-2.044-7.643-4.091-11.437-6.188-1.658-.917-3.226-1.995-4.87-2.939-2.984-1.71-6.033-3.31-8.983-5.077-3.728-2.233-7.372-4.606-11.074-6.882-2.795-1.718-5.645-3.347-8.432-5.078-2.16-1.342-4.28-2.753-6.385-4.181-4.816-3.27-9.678-6.479-14.397-9.884-4.408-3.18-8.831-6.383-12.92-9.952C5.702 94.872 2.588 91.685.75 87.62c-.564-1.248-.636-2.768-.717-4.176-.2-3.456.49-6.555 2.468-9.643 2.288-3.573 5.257-6.5 7.854-9.761 3.489-4.382 7.253-8.547 10.96-12.75 3.293-3.734 6.68-7.384 10.006-11.089 3.963-4.415 7.871-8.88 11.868-13.265 2.87-3.148 5.858-6.188 8.773-9.294 3.993-4.255 8.016-8.483 11.931-12.808C66.411 2.053 69.698.936 73.16.086c.306-.076.645-.113.952-.065 3.143.485 6.281 1.212 8.743 3.275 3.272 2.741 6.313 5.761 9.413 8.704 3.837 3.64 7.63 7.327 11.447 10.99 3.243 3.113 6.444 6.273 9.753 9.316 2.739 2.517 5.72 4.775 8.391 7.358 3.968 3.837 8.17 7.386 12.457 10.85 3.012 2.432 5.923 4.99 8.924 7.436 1.336 1.089 2.783 2.042 4.429 3.24ZM562.2 148.618c1.654.553 2.714.611 3.738-.053.132-.085.251-.281.373-.278 3.577.092 6.752-1.782 10.252-2.089 1.255-.11 2.49-.445 3.733-.685.39-.075.772-.218 1.165-.262 8.241-.903 16.464-2.092 24.73-2.6 7.008-.431 14.07-.222 21.098-.004 3.898.12 7.797.712 11.658 1.323 3.276.518 6.477 1.765 9.753 1.952 2.97.17 5.397 1.755 8.239 2.167 2.45.356 4.874 1.192 7.185 2.124 2.536 1.023 4.948 2.363 7.38 3.63a229.673 229.673 0 0 1 7.673 4.17c1.9 1.083 3.84 2.144 5.571 3.465 5.71 4.358 11.083 9.13 15.546 14.764 3.034 3.832 6.03 7.81 8.26 12.128 2.327 4.504 4.498 9.178 5.639 14.226.613 2.712 1.6 5.337 2.38 8.014.198.68.279 1.4.357 2.107.113 1.03.077 2.086.275 3.097 1.33 6.807.862 13.688.876 20.547.009 3.832-.499 7.632-.83 11.444-.356 4.09-1.451 7.996-2.07 12.008-.398 2.574-1.316 5.067-2.004 7.596-.517 1.899-.95 3.827-1.576 5.69-1.454 4.326-2.831 8.692-4.56 12.911-1.91 4.661-3.948 9.301-6.35 13.723-3.189 5.874-6.729 11.563-10.225 17.265-2.133 3.479-4.369 6.904-6.74 10.223-2.245 3.14-4.445 6.34-7.509 8.808-2.354 1.897-4.9 2.978-8.009 3.13-4.595.226-8.309-1.545-11.819-4.206-3.255-2.468-6.632-4.775-9.886-7.246-3.149-2.391-6.19-4.924-9.313-7.351-2.91-2.263-5.884-4.444-8.797-6.704-2.933-2.276-5.795-4.645-8.744-6.9-4.615-3.528-9.308-6.954-13.908-10.5-4.932-3.801-9.81-7.674-14.685-11.548-3.828-3.041-5.749-9.044-3.478-13.746 1.182-2.45 2.467-4.681 4.432-6.555 5.69-5.426 11.166-11.077 15.676-17.523 2.23-3.188 4.54-6.436 5.554-10.35.412-1.59 1.16-3.09 1.72-4.645 1.497-4.155 1.323-8.47 1.133-12.771-.116-2.611-.058-5.26-1.289-7.711-.835-1.663-1.363-3.498-2.322-5.078-2.336-3.85-4.785-7.65-9.113-9.644-2.594-2.89-6.337-3.766-9.678-5.214-2.417-1.047-5.244-1.163-7.897-1.643-1.567-.284-3.152-.655-4.73-.661-4.387-.02-8.776.114-13.163.23-.873.023-1.748.373-2.61.33-5.16-.254-10.173.984-15.244 1.549-3.861.43-7.645 1.557-11.463 2.377-.156.033-.304.113-.46.135-2.987.426-5.984.787-8.958 1.291-1.55.264-3.054.8-4.59 1.17-.92.222-1.863.343-2.789.542-.999.215-1.99.461-2.982.705-.306.076-.603.276-.904.274-2.16-.016-4.201.44-6.302.99-3.53.927-7.233 1.18-10.782 2.051-5.044 1.238-10.216 1.643-15.276 2.63-6.606 1.288-13.2 1.26-19.82.989-5.127-.211-10.072-1.594-14.618-3.944-3.36-1.736-6.307-4.166-8.447-7.392-.47-.708-.999-1.462-1.171-2.266-.497-2.314-1.74-4.4-1.768-6.876-.044-3.999-.24-7.96 1.266-11.811.679-1.739.772-3.707 1.455-5.443.779-1.977 1.796-3.888 2.926-5.693 2.917-4.66 5.833-9.33 8.988-13.827 1.853-2.642 4.172-4.956 6.267-7.43 7.566-8.935 16.01-17.006 24.715-24.799 3.572-3.197 7.447-6.056 11.178-9.076.68-.551 1.313-1.161 2-1.703 2.757-2.177 5.51-4.36 8.297-6.499 3.126-2.4 6.26-4.793 9.443-7.118 2.019-1.474 4.13-2.82 6.204-4.217 3.811-2.566 7.61-5.152 11.445-7.68 2.677-1.765 5.407-3.448 8.114-5.166 3.774-2.393 7.49-4.885 11.34-7.147 3.14-1.844 6.445-3.408 9.673-5.102 3.997-2.099 7.985-4.216 11.989-6.301 1.863-.97 3.756-1.886 5.637-2.825 3.587-1.79 7.158-3.613 10.767-5.36 2.267-1.097 4.605-2.046 6.885-3.12 3.606-1.699 7.148-3.54 10.794-5.146 3.517-1.55 7.163-2.806 10.694-4.328 2.68-1.156 5.255-2.554 7.903-3.787 1.05-.49 2.169-.836 3.264-1.226 1.326-.473 2.747-.76 3.975-1.414 3.355-1.783 7.084-2.558 10.535-4.089 3.088-1.37 6.262-2.613 9.502-3.554 3.38-.983 6.519-2.65 10.054-3.213 2.076-.332 4.046-1.288 6.085-1.892 5.177-1.534 10.076-1.141 14.845 1.676 3.44 2.032 5.177 5.268 6.885 8.543 1.765 3.384 3.318 6.886 4.832 10.393 1.525 3.531 2.865 7.141 4.332 10.698.455 1.103 1.107 2.123 1.583 3.218.841 1.935 1.59 3.91 2.426 5.847.628 1.454 1.373 2.859 1.993 4.317 2.035 4.779 4 9.588 6.064 14.355 1.538 3.553 3.35 6.996 4.728 10.607.837 2.19 2.244 4.238 2.158 6.76-.024.692.306 1.396.464 2.096.122.543.386 1.109.32 1.63-.555 4.4-1.394 8.745-5.786 11.06-1.87.985-3.981 1.548-6.027 2.153-1.446.428-2.957.687-4.457.873-3.006.373-6.026.634-9.037.96-2.691.291-5.397.503-8.066.936-4.85.787-9.674 1.725-14.515 2.568-.78.136-1.599.052-2.385.17-1.557.234-3.104.538-4.654.816-.235.042-.464.116-.699.155-3.853.635-7.718 1.207-11.557 1.919-2.57.477-5.103 1.159-7.656 1.735-2.563.578-5.134 1.116-7.692 1.715-1.546.363-3.073.805-4.607 1.217-.535.144-1.06.405-1.6.443-2.71.188-5.192 1.35-7.792 1.834-2.82.525-5.3 2.065-8.225 2.236-1.6.093-3.165.851-4.735 1.347-3.843 1.212-7.691 2.409-11.512 3.69-1.583.53-3.081 1.311-4.653 1.884-2.07.754-4.186 1.376-6.256 2.128-1.252.455-2.453 1.049-3.677 1.58-5.04 2.188-10.104 4.321-15.108 6.587-2.573 1.165-5.056 2.534-7.536 3.89-.47.256-.738.88-1.31 1.6Z" style="fill:#fff"/></svg>