<svg width="178" height="78" version="1.1" xmlns="http://www.w3.org/2000/svg" desc="Created with imagetracer.js version 1.2.6" ><path fill="rgb(215,219,230)" stroke="rgb(215,219,230)" stroke-width="1" opacity="0.8823529411764706" d="M 6.5 6 L 7.5 8 Q 6.3 5.8 5 8.5 L 8 9 L 9 11.5 Q 5 13.5 7 21.5 L 8 26.5 Q 5.3 28.3 7 34.5 L 7 36.5 L 6.5 39 L 6 13.5 L 6.5 12 L 5 12.5 L 5 55.5 L 6 55.5 L 6.5 48 L 7 56 Q 9.7 57.1 9 54.5 L 11 55.5 L 9.5 58 L 7 57 L 8 59.5 L 6.5 61 L 3 57.5 L 5 56.5 L 3 55.5 L 4 54.5 L 4 13.5 L 2 10.5 L 6.5 6 Z " /><path fill="rgb(215,219,230)" stroke="rgb(215,219,230)" stroke-width="1" opacity="0.8823529411764706" d="M 35.5 6 Q 39.9 4.5 39 7.5 L 37.5 7 L 34 8.5 Q 37.1 10.3 35.5 12 Q 41.6 10.8 41 13.5 L 42 15.5 L 41 16.5 L 41 56 L 43 55.5 L 43 9.5 L 44 9.5 L 44.5 56 Q 45.8 53.7 47 56.5 L 41 58.5 L 43 59 Q 44 62 41 61 L 40 58.5 L 40 54.5 L 40 15.5 L 39 14.5 L 39.5 13 L 32 12 L 32.5 33 L 36.5 31 L 36.5 33 Q 38.8 33.8 38 31.5 L 39 31.5 L 37.5 34 L 32 35 L 32 54.5 L 35 55 L 35 57 L 31 56 L 30 41.5 L 31 40.5 L 31 20.5 L 29.5 18 L 29 56 L 27 55.5 L 28 54.5 L 28 14.5 L 29.5 13 L 30 14.5 L 29.5 16 Q 32.5 16.9 31 12.5 L 35 10.5 L 32 9.5 L 35.5 6 Z " /><path fill="rgb(215,219,230)" stroke="rgb(215,219,230)" stroke-width="1" opacity="0.8823529411764706" d="M 53.5 6 L 57.5 10 L 58.5 9 Q 60.8 9.8 60 7.5 L 63.5 6 L 66 7.5 L 63.5 8 Q 62.2 5.8 61 8.5 Q 61.8 10.8 59.5 10 L 59.5 11 L 63.5 9 L 71.5 9 L 72.5 8 L 68 13.5 L 67.5 54 L 66.5 16 L 65 21.5 L 66 23.5 L 65 28.5 L 66 31.5 L 65 32.5 L 65 40.5 Q 67.5 42 66 47.5 L 65 48.5 L 65 56.5 L 65.5 58 Q 63.3 58.8 64 56.5 L 64 54.5 L 64 15.5 L 60.5 12 L 57.5 11 L 56 12.5 L 56 58.5 L 55 61 Q 52 62 53 59 L 55 58.5 L 51 57.5 L 52 54.5 L 52 13.5 L 50.5 12 Q 47.9 12.7 49 10 Q 52.7 11.5 52 8.5 L 53.5 6 Z M 55 16 L 54 25 L 53 26 L 54 28 L 54 44 L 53 45 L 54 47 Q 56 53 53 55 Q 52 58 55 57 L 55 16 Z " /><path fill="rgb(215,219,230)" stroke="rgb(215,219,230)" stroke-width="1" opacity="0.8823529411764706" d="M 83.5 6 L 86 7.5 L 84.5 7 L 83 7.5 L 86.5 10 L 91.5 9 L 93.5 10 L 95.5 9 L 94.5 11 Q 92.3 10.3 93 12.5 L 92 13.5 L 92 58.5 L 93 61.5 L 93.5 63 L 94.5 61 L 97 62 L 94.5 66 L 93.5 64 L 91 64.5 L 93 67.5 L 86.5 74 L 85.5 73 L 82 70.5 Q 82.9 67.5 78.5 69 L 78.5 67 L 76 66.5 L 78.5 66 L 85 68.5 Q 82.8 69.8 85.5 71 L 87 67.5 L 84 65.5 L 86.5 65 L 89.5 70 L 91 66.5 L 88.5 63 L 91 61.5 L 91 14.5 L 89.5 14 L 80 12 L 80 53.5 L 82.5 54 L 84 57.5 L 76.5 64 L 78 61.5 L 77 57 L 79 56.5 L 76.5 56 Q 75.3 58.3 74 55.5 Q 73.3 53.3 75.5 54 L 77 52.5 L 77 16.5 L 76 13.5 L 83.5 6 Z M 84 10 L 83 12 L 89 12 L 84 10 Z M 79 12 L 78 53 L 79 53 L 79 12 Z M 83 55 L 80 57 L 81 59 L 83 58 L 83 55 Z " /><path fill="rgb(215,219,230)" stroke="rgb(215,219,230)" stroke-width="1" opacity="0.8823529411764706" d="M 101.5 6 L 104.5 10 L 101 10.5 L 101.5 12 L 100 11.5 Q 100.8 13.8 98.5 13 L 97 10.5 L 99 9.5 L 99.5 11 L 101.5 6 Z " /><path fill="rgb(215,219,230)" stroke="rgb(215,219,230)" stroke-width="1" opacity="0.8823529411764706" d="M 109.5 6 Q 115.1 5.9 117 9.5 Q 114.3 17.8 116 30.5 L 114.5 33 L 112.5 33 L 109.5 32 L 106 33.5 L 112 34.5 L 105 35 L 106.5 32 L 109.5 31 L 111.5 32 L 111.5 30 L 113 30.5 L 113.5 29 L 114.5 31 L 115 13.5 L 116 10.5 L 115 10.5 L 114 12.5 L 113.5 28 L 112.5 12 L 111.5 15 Q 110.2 11.3 106 12 Q 105.3 7.3 109.5 6 Z M 110 7 L 109 9 L 111 8 L 110 7 Z M 111 8 L 111 10 L 115 9 L 111 8 Z " /><path fill="rgb(215,219,230)" stroke="rgb(215,219,230)" stroke-width="1" opacity="0.8823529411764706" d="M 121.5 6 Q 127.7 6.3 130.5 10 L 133 8.5 L 128 13.5 L 128 53.5 L 130 56.5 L 125.5 61 L 122 57.5 Q 120.9 54.2 123.5 55 L 126 56.5 L 125 52.5 L 126 52.5 L 126.5 55 L 127 12.5 L 126 12.5 L 125.5 47 L 125 12.5 L 125.5 11 L 123 12.5 L 124 14.5 L 120.5 12 L 118 10.5 L 121.5 6 Z M 122 7 L 123 8 L 124 11 L 124 9 L 127 10 L 127 8 L 122 7 Z M 121 8 L 119 10 Q 118 12 121 11 L 121 8 Z M 127 10 L 127 12 L 130 11 L 127 10 Z " /><path fill="rgb(215,219,230)" stroke="rgb(215,219,230)" stroke-width="1" opacity="0.8823529411764706" d="M 157.5 6 L 162 9.5 L 159.5 14 L 158.5 11 L 157.5 38 L 157 12.5 L 156 11.5 L 158 10.5 L 155.5 9 L 154 11.5 L 156 13.5 L 156.5 55 L 157.5 43 L 158.5 55 L 159.5 50 L 162 56.5 L 157.5 61 L 154 57.5 L 155 54.5 L 155 13.5 L 153 10.5 L 157.5 6 Z M 160 55 L 159 58 L 160 58 L 160 55 Z " /><path fill="rgb(215,219,230)" stroke="rgb(215,219,230)" stroke-width="1" opacity="0.8823529411764706" d="M 165.5 6 L 168 7.5 L 165.5 9 L 163 8.5 L 165.5 6 Z " /><path fill="rgb(215,219,230)" stroke="rgb(215,219,230)" stroke-width="1" opacity="0.8823529411764706" d="M 40.5 7 L 41.5 9 L 40.5 7 Z " /><path fill="rgb(215,219,230)" stroke="rgb(215,219,230)" stroke-width="1" opacity="0.8823529411764706" d="M 149.5 7 L 152 8.5 L 150.5 8 L 149.5 7 Z " /><path fill="rgb(215,219,230)" stroke="rgb(215,219,230)" stroke-width="1" opacity="0.8823529411764706" d="M 169.5 7 L 173 9.5 L 168 11.5 L 170 12 L 169.5 14 L 168 13.5 L 168.5 56 L 169.5 24 L 170.5 54 Q 172.3 51.3 174 55.5 L 169.5 61 L 166.5 57 L 168 57.5 Q 168.8 55.3 166.5 56 L 167 54.5 L 167 14.5 L 164.5 12 L 162 11.5 L 164.5 11 L 166.5 12 L 171 8.5 L 169.5 7 Z M 172 55 L 169 57 L 172 57 L 172 55 Z " /><path fill="rgb(215,219,230)" stroke="rgb(215,219,230)" stroke-width="1" opacity="0.8823529411764706" d="M 135.5 8 L 136.5 9 L 149 9.5 L 136.5 10 Q 135.2 7.8 134 10.5 L 149 11.5 L 144 12 L 143.5 14 Q 142.3 11.8 141 14.5 L 142 15.5 L 142 23.5 L 141 23.5 L 140.5 15 L 139 15.5 L 141.5 12 L 133.5 12 L 133 10.5 L 135.5 8 Z " /><path fill="rgb(215,219,230)" stroke="rgb(215,219,230)" stroke-width="1" opacity="0.8823529411764706" d="M 16.5 10 Q 18.8 14 24 14 L 24 15.5 L 15 24.5 L 15 26.5 L 15 28 L 20 28 L 20 29.5 L 20 31.5 L 19.5 34 L 18.5 32 L 17 33.5 L 17 55.5 L 18 55.5 L 19 52.5 L 18 48 Q 21.5 46.9 20 54.5 L 19 58 L 17 58.5 L 19 59 L 18.5 61 L 15.5 57 L 17 56.5 L 15 55.5 L 16 54.5 L 16 33.5 L 17 32.5 L 14.5 32 L 14.5 34 L 8 29.5 L 12 28 Q 10.5 24.3 13.5 25 L 17.5 20 L 19 19.5 L 15 18.5 L 20 16.5 L 18.5 14 L 15 15.5 L 15.5 17 L 12.5 16 Q 10.3 16.8 11 14.5 L 13 13.5 L 12.5 15 L 15 14.5 L 14.5 13 L 17 11.5 L 16.5 10 Z M 21 14 L 20 16 Q 22 19 23 16 L 21 14 Z M 12 30 L 12 31 L 14 31 L 12 30 Z " /><path fill="rgb(215,219,230)" stroke="rgb(215,219,230)" stroke-width="1" opacity="0.8823529411764706" d="M 103 11 L 105 11.5 L 104 12.5 L 104 53.5 L 106 56.5 L 101.5 61 L 100 59.5 L 100 57.5 L 99.5 56 L 98.5 58 L 98 55 L 100.5 56 L 101.5 13 L 102.5 56 L 103 11 Z " /><path fill="rgb(215,219,230)" stroke="rgb(215,219,230)" stroke-width="1" opacity="0.8823529411764706" d="M 172.5 11 L 174 11.5 L 171 13.5 L 172.5 11 Z " /><path fill="rgb(215,219,230)" stroke="rgb(215,219,230)" stroke-width="1" opacity="0.8823529411764706" d="M 143.5 15 L 144 51.5 L 141.5 55 L 149.5 55 L 150 56.5 L 145.5 60 L 145.5 59 L 147 58.5 L 135.5 58 L 134.5 57 L 133 57.5 L 134 55 Q 140.3 56.5 142 52.5 L 141 51.5 L 141 38.5 L 142 38.5 L 142.5 52 L 143.5 15 Z M 136 56 L 136 57 L 149 57 L 136 56 Z " /><path fill="rgb(215,219,230)" stroke="rgb(215,219,230)" stroke-width="1" opacity="0.8823529411764706" d="M 89.5 16 L 90 35.5 L 89 35.5 L 89.5 16 Z " /><path fill="rgb(215,219,230)" stroke="rgb(215,219,230)" stroke-width="1" opacity="0.8823529411764706" d="M 159.5 23 L 160 48.5 L 159 48.5 L 159.5 23 Z " /><path fill="rgb(215,219,230)" stroke="rgb(215,219,230)" stroke-width="1" opacity="0.8823529411764706" d="M 21 27 L 23 27.5 L 21 28.5 L 21 27 Z " /><path fill="rgb(215,219,230)" stroke="rgb(215,219,230)" stroke-width="1" opacity="0.8823529411764706" d="M 118.5 33 L 121 33.5 L 116 35 L 116 53.5 L 118 56.5 L 113.5 61 L 112 59.5 L 115 58.5 L 113 54.5 L 113 39.5 L 114 39.5 L 114.5 55 L 115 34 L 118.5 33 Z " /><path fill="rgb(215,219,230)" stroke="rgb(215,219,230)" stroke-width="1" opacity="0.8823529411764706" d="M 141.5 33 L 142 35.5 L 141 35.5 L 141.5 33 Z " /><path fill="rgb(215,219,230)" stroke="rgb(215,219,230)" stroke-width="1" opacity="0.8823529411764706" d="M 89.5 43 L 90 45.5 L 89 45.5 L 89.5 43 Z " /><path fill="rgb(215,219,230)" stroke="rgb(215,219,230)" stroke-width="1" opacity="0.8823529411764706" d="M 139.5 43 L 140 49.5 L 139 49.5 L 139.5 43 Z " /><path fill="rgb(215,219,230)" stroke="rgb(215,219,230)" stroke-width="1" opacity="0.8823529411764706" d="M 89.5 48 L 90 59.5 L 89 59.5 L 89.5 48 Z " /><path fill="rgb(215,219,230)" stroke="rgb(215,219,230)" stroke-width="1" opacity="0.8823529411764706" d="M 87.5 51 L 88 53 L 85.5 54 L 87.5 51 Z " /><path fill="rgb(215,219,230)" stroke="rgb(215,219,230)" stroke-width="1" opacity="0.8823529411764706" d="M 21.5 55 Q 24.1 54.3 23 57 L 20 56.5 L 21.5 55 Z " /><path fill="rgb(215,219,230)" stroke="rgb(215,219,230)" stroke-width="1" opacity="0.8823529411764706" d="M 69.5 55 L 70 57 Q 67.3 55.9 68 58.5 L 67 61 Q 64 62 65 59 Q 67.7 60.1 67 57.5 L 69.5 55 Z " /><path fill="rgb(215,219,230)" stroke="rgb(215,219,230)" stroke-width="1" opacity="0.8823529411764706" d="M 110 55 L 113 56.5 L 111 56.5 L 110.5 58 L 110 55 Z " /><path fill="rgb(215,219,230)" stroke="rgb(215,219,230)" stroke-width="1" opacity="0.8823529411764706" d="M 27.5 57 L 29.5 57 L 31 57.5 L 29 58.5 L 31 59 Q 32 62 29 61 L 27.5 57 Z " /><path fill="rgb(215,219,230)" stroke="rgb(215,219,230)" stroke-width="1" opacity="0.8823529411764706" d="M 74.5 65 L 75 67 L 73 66.5 L 74.5 65 Z " /><path fill="rgb(215,219,230)" stroke="rgb(215,219,230)" stroke-width="1" opacity="0.8823529411764706" d="M 72.5 68 L 77 68.5 L 72.5 69 L 72.5 68 Z " /><path fill="rgb(0,0,0)" stroke="rgb(0,0,0)" stroke-width="1" opacity="0" d="M 0 0 L 177.5 0 L 178 0.5 L 178 8.5 L 177 10.5 L 178 11.5 L 178 78 L 0.5 78 L 0 77.5 L 0 58.5 L 1 55.5 L 0 54.5 L 0 13.5 L 0 11.5 L 1 9.5 L 0 8.5 L 0 0 Z M 6 4 Q 3 5 5 7 L 2 8 L 1 11 L 2 13 Q 1 15 4 14 L 3 16 L 4 32 L 4 34 L 3 43 L 3 45 L 4 48 Q 5 53 2 54 L 4 55 L 2 55 L 3 61 L 5 60 L 5 62 L 9 62 L 7 61 L 9 60 L 11 57 L 12 59 L 13 56 L 10 55 L 12 55 L 11 53 L 11 36 L 13 35 L 14 48 L 14 37 L 15 37 L 15 55 L 14 56 L 15 61 L 18 61 L 20 60 L 19 62 L 21 62 Q 23 61 21 60 L 23 57 L 23 59 Q 26 60 25 56 L 22 55 L 24 55 L 23 53 L 23 31 L 22 53 L 21 53 L 21 32 L 22 30 L 23 30 L 23 31 L 25 32 L 25 55 L 26 55 L 26 16 L 25 28 Q 22 29 23 26 L 21 27 L 21 26 L 18 25 L 18 27 L 17 26 L 17 24 Q 18 21 20 23 L 20 22 L 20 20 L 22 21 L 21 20 L 24 19 L 23 17 L 25 16 L 24 12 L 23 14 L 22 14 Q 23 11 21 12 L 21 10 L 19 11 L 19 9 L 16 11 L 16 9 L 12 10 L 12 8 L 10 16 L 9 16 L 10 9 L 10 7 L 6 4 Z M 34 5 L 34 7 Q 33 9 32 7 L 31 11 L 28 12 L 29 14 L 28 13 L 27 55 L 26 56 L 27 60 L 27 62 L 33 62 Q 35 61 33 60 L 35 57 L 34 55 L 36 55 L 35 53 L 35 39 L 36 36 L 37 37 L 37 55 L 38 55 L 38 36 L 37 35 L 39 34 L 39 55 L 38 56 L 39 62 Q 42 63 44 60 L 46 61 L 45 60 L 47 57 L 46 55 L 47 54 L 47 13 L 48 12 L 47 9 L 46 53 L 45 10 L 44 6 Q 41 4 34 5 Z M 53 5 L 53 7 L 51 6 L 51 8 L 49 11 L 51 15 L 51 55 L 50 59 L 51 61 L 53 60 L 52 62 L 56 62 L 55 61 L 57 61 L 59 57 L 58 55 L 59 54 L 59 15 L 62 14 L 63 16 L 63 55 L 62 59 L 62 61 L 65 62 L 65 60 L 68 62 L 67 61 L 70 59 L 71 57 L 70 55 L 71 53 L 70 53 L 69 15 L 71 15 L 70 13 Q 71 10 73 12 L 74 7 L 72 6 L 68 7 L 71 8 L 69 8 L 68 5 Q 59 4 56 7 L 56 6 L 53 5 Z M 82 5 L 81 8 L 81 6 Q 77 5 79 10 Q 77 14 76 11 L 75 53 L 74 54 L 75 62 L 75 64 L 74 66 Q 73 68 72 66 L 71 70 L 77 71 L 72 72 L 81 73 L 82 74 L 81 72 L 83 73 Q 81 77 85 76 L 85 74 Q 87 75 85 77 L 87 77 Q 89 76 87 75 L 89 75 Q 93 73 90 72 Q 91 69 93 71 Q 97 69 94 68 L 95 66 L 97 65 L 96 67 L 98 66 L 97 62 L 98 60 L 96 59 L 96 61 L 96 62 L 95 61 L 95 59 L 94 58 L 94 32 L 94 30 Q 92 23 95 22 L 94 20 Q 92 13 96 11 L 96 13 L 98 12 L 97 14 L 98 55 L 98 15 L 99 15 L 99 55 L 98 56 Q 97 60 100 61 L 99 64 L 100 64 Q 99 60 104 62 L 103 61 Q 104 58 106 60 L 107 57 L 106 55 L 106 39 L 109 38 L 110 55 L 110 36 L 111 36 L 111 55 L 109 60 L 111 59 L 112 62 L 114 61 L 115 63 Q 117 62 115 61 Q 116 58 118 60 L 119 57 L 118 55 L 118 37 L 121 36 L 122 55 L 122 33 L 123 33 L 123 55 L 121 60 L 123 59 L 124 62 L 126 61 L 128 62 L 127 61 Q 128 58 130 60 L 131 56 L 131 54 L 130 53 L 130 15 L 132 11 L 133 12 L 140 12 L 139 15 L 139 55 L 138 55 L 138 15 L 139 14 L 134 13 L 134 14 L 137 15 L 137 53 L 134 54 L 137 55 L 134 56 L 134 55 L 132 54 L 132 56 L 131 59 L 132 60 L 148 60 L 150 60 L 151 57 L 151 55 L 143 55 L 144 53 L 144 13 L 145 13 L 145 53 L 144 54 L 151 54 L 151 53 Q 146 53 146 53 L 146 14 L 149 14 L 146 13 L 149 12 L 151 12 L 152 9 L 152 7 L 136 7 L 134 7 L 131 8 L 131 7 L 129 6 L 129 8 L 126 7 L 128 6 L 125 5 L 125 7 Q 124 4 120 5 L 119 8 L 119 7 L 117 6 L 117 8 L 114 7 L 116 6 L 113 5 L 113 7 L 108 5 L 107 8 L 107 7 L 105 6 L 105 8 Q 102 7 104 6 L 100 5 Q 97 6 99 8 L 98 7 L 97 9 L 98 10 Q 95 11 96 8 L 93 8 L 93 6 L 89 7 L 89 6 L 82 5 Z M 136 5 L 136 6 L 152 6 L 136 5 Z M 156 5 L 156 7 Q 155 9 154 7 L 152 11 L 153 13 L 153 60 L 155 59 Q 157 60 155 62 L 160 62 L 159 61 Q 160 58 162 60 L 162 59 L 162 57 Q 164 58 163 55 L 161 55 L 162 54 L 162 15 L 165 14 L 164 16 L 165 17 L 165 60 L 167 59 L 168 62 L 170 61 L 172 62 L 171 61 L 174 60 L 173 58 L 175 58 L 174 53 L 174 14 L 174 12 L 176 13 L 175 12 L 177 7 L 175 8 L 175 7 Q 171 4 164 5 L 163 8 L 163 7 L 161 6 L 161 8 Q 158 7 160 6 L 156 5 Z M 74 13 L 73 53 L 74 53 L 74 13 Z M 50 14 L 49 55 L 50 55 L 50 14 Z M 62 15 L 61 55 L 62 55 L 62 15 Z M 71 19 L 70 23 L 71 23 L 71 19 Z M 2 20 L 1 23 L 2 23 L 2 20 Z M 71 45 L 70 48 L 71 48 L 71 45 Z M 14 52 L 13 55 L 14 55 L 14 52 Z M 73 53 L 71 55 L 72 57 L 73 57 L 73 53 Z M 37 55 L 35 59 L 37 58 L 37 55 Z M 49 55 L 47 58 Q 46 60 49 59 L 49 55 Z M 61 55 L 59 58 L 61 59 L 61 55 Z M 97 55 L 96 58 L 97 58 L 97 55 Z M 109 55 L 107 58 L 109 58 L 109 55 Z M 121 55 L 119 58 L 121 58 L 121 55 Z M 132 61 L 132 62 L 148 62 L 132 61 Z " /><path fill="rgb(0,0,0)" stroke="rgb(0,0,0)" stroke-width="1" opacity="0" d="M 33.5 12 L 34 29.5 L 35 30.5 L 33 31.5 L 33.5 12 Z " /><path fill="rgb(0,0,0)" stroke="rgb(0,0,0)" stroke-width="1" opacity="0" d="M 57.5 12 L 58 52.5 L 57 52.5 L 57.5 12 Z " /><path fill="rgb(0,0,0)" stroke="rgb(0,0,0)" stroke-width="1" opacity="0" d="M 80 12 L 82 12.5 L 81 13.5 L 80.5 52 L 80 12 Z " /><path fill="rgb(0,0,0)" stroke="rgb(0,0,0)" stroke-width="1" opacity="0" d="M 104.5 12 L 105 31.5 L 106 32.5 L 104 33 L 104.5 12 Z " /><path fill="rgb(0,0,0)" stroke="rgb(0,0,0)" stroke-width="1" opacity="0" d="M 160.5 12 L 161 52.5 L 160 52.5 L 160.5 12 Z " /><path fill="rgb(0,0,0)" stroke="rgb(0,0,0)" stroke-width="1" opacity="0" d="M 37.5 14 L 39 15.5 L 39 29.5 L 38 29.5 L 38 15.5 L 37.5 14 Z " /><path fill="rgb(0,0,0)" stroke="rgb(0,0,0)" stroke-width="1" opacity="0" d="M 85.5 14 L 87 15.5 L 87 50.5 L 84 52.5 L 84.5 51 L 82 50.5 L 82 16 L 85 16.5 L 85 50.5 L 86 50.5 L 86 15.5 L 85.5 14 Z " /><path fill="rgb(0,0,0)" stroke="rgb(0,0,0)" stroke-width="1" opacity="0" d="M 92.5 14 L 93 56.5 L 92 56.5 L 92.5 14 Z " /><path fill="rgb(0,0,0)" stroke="rgb(0,0,0)" stroke-width="1" opacity="0" d="M 106 14 L 108.5 15 Q 109.8 12.8 111 15.5 L 110.5 30 L 109.5 15 L 109 29 L 106 28.5 L 106 14 Z " /><path fill="rgb(0,0,0)" stroke="rgb(0,0,0)" stroke-width="1" opacity="0" d="M 116.5 14 L 117 29.5 L 116 29.5 L 116.5 14 Z " /><path fill="rgb(0,0,0)" stroke="rgb(0,0,0)" stroke-width="1" opacity="0" d="M 118 14 L 120.5 15 Q 121.8 12.8 123 15.5 L 122.5 31 L 121.5 15 L 121 28 L 118 27.5 L 118 14 Z " /><path fill="rgb(0,0,0)" stroke="rgb(0,0,0)" stroke-width="1" opacity="0" d="M 128.5 14 L 129 52.5 L 128 52.5 L 128.5 14 Z " /><path fill="rgb(0,0,0)" stroke="rgb(0,0,0)" stroke-width="1" opacity="0" d="M 154.5 14 L 155 54.5 L 154 54.5 L 154.5 14 Z " /><path fill="rgb(0,0,0)" stroke="rgb(0,0,0)" stroke-width="1" opacity="0" d="M 172.5 14 L 173 52.5 L 172 52.5 L 172.5 14 Z " /><path fill="rgb(0,0,0)" stroke="rgb(0,0,0)" stroke-width="1" opacity="0" d="M 166.5 15 L 167 54.5 L 166 54.5 L 166.5 15 Z " /><path fill="rgb(0,0,0)" stroke="rgb(0,0,0)" stroke-width="1" opacity="0" d="M 11 16 Q 13.7 14.9 13 17.5 L 13 23.5 L 12.5 25 Q 9.7 22.2 11 16 Z " /><path fill="rgb(0,0,0)" stroke="rgb(0,0,0)" stroke-width="1" opacity="0" d="M 35 16 L 37 16.5 L 37 27.5 L 36.5 30 L 35 28.5 L 35 16 Z " /><path fill="rgb(0,0,0)" stroke="rgb(0,0,0)" stroke-width="1" opacity="0" d="M 9.5 17 L 10 27.5 L 9 27.5 L 9.5 17 Z " /><path fill="rgb(0,0,0)" stroke="rgb(0,0,0)" stroke-width="1" opacity="0" d="M 15.5 19 Q 17.8 18.3 17 20.5 L 15 21.5 L 15.5 19 Z " /><path fill="rgb(0,0,0)" stroke="rgb(0,0,0)" stroke-width="1" opacity="0" d="M 118.5 29 L 121 29.5 L 118.5 30 L 118.5 29 Z " /><path fill="rgb(0,0,0)" stroke="rgb(0,0,0)" stroke-width="1" opacity="0" d="M 9.5 31 L 10 52.5 L 9 52.5 L 9.5 31 Z " /><path fill="rgb(0,0,0)" stroke="rgb(0,0,0)" stroke-width="1" opacity="0" d="M 104.5 35 L 105 52.5 L 104 52.5 L 104.5 35 Z " /><path fill="rgb(0,0,0)" stroke="rgb(0,0,0)" stroke-width="1" opacity="0" d="M 116.5 35 L 117 52.5 L 116 52.5 L 116.5 35 Z " /><path fill="rgb(0,0,0)" stroke="rgb(0,0,0)" stroke-width="1" opacity="0" d="M 33.5 36 L 34 52.5 L 33 52.5 L 33.5 36 Z " /><path fill="rgb(0,0,0)" stroke="rgb(0,0,0)" stroke-width="1" opacity="0" d="M 106.5 36 L 109 36.5 L 106.5 37 L 106.5 36 Z " /><path fill="rgb(0,0,0)" stroke="rgb(0,0,0)" stroke-width="1" opacity="0" d="M 86.5 54 L 87 63.5 L 88.5 66 L 90 65.5 Q 88.5 68.5 87 65.5 Q 84.3 61.6 86.5 54 Z " /><path fill="rgb(0,0,0)" stroke="rgb(0,0,0)" stroke-width="1" opacity="0" d="M 84.5 56 L 85 58.5 L 85 60.5 Q 85.8 62.8 83.5 62 Q 80.3 60.3 84 58.5 L 84.5 56 Z " /><path fill="rgb(0,0,0)" stroke="rgb(0,0,0)" stroke-width="1" opacity="0" d="M 76.5 59 L 78 61.5 L 76 62.5 L 77 60.5 L 76.5 59 Z " /><path fill="rgb(0,0,0)" stroke="rgb(0,0,0)" stroke-width="1" opacity="0" d="M 81.5 63 L 85 63.5 L 81.5 64 L 81.5 63 Z " /><path fill="rgb(221,228,238)" stroke="rgb(221,228,238)" stroke-width="1" opacity="0.09803921568627451" d="M 122.5 3 L 124.5 5 L 130.5 6 L 132.5 5 L 132.5 6 L 131 6.5 L 133.5 7 L 135.5 5 L 151.5 5 L 151.5 6 L 135 6.5 L 149 7.5 L 135.5 8 L 133.5 9 L 131.5 9 Q 127.8 9.8 127 7.5 L 127.5 6 L 125.5 7 Q 124 3.5 122.5 6 L 116.5 9 L 115.5 6 L 113.5 7 L 112.5 5 L 118.5 6 L 123 4.5 L 122.5 3 Z " /><path fill="rgb(221,228,238)" stroke="rgb(221,228,238)" stroke-width="1" opacity="0.09803921568627451" d="M 5.5 4 L 12 8.5 Q 11.3 10.8 13.5 10 L 16.5 8 L 21 10.5 L 20.5 12 Q 22.8 11.3 22 13.5 L 20.5 13 L 17 10.5 L 16.5 9 L 14.5 13 L 11 14.5 L 10 16.5 L 11.5 23 L 14 20.5 Q 10.3 18.8 13.5 17 Q 16.1 16.2 15 19.5 L 16.5 23 L 20 21 L 22.5 17 Q 24.8 16.3 24 18.5 L 20 21 L 18 24.5 L 20.5 25 L 22.5 24 L 22.5 25 L 21 25.5 L 23 26.5 Q 20.7 28.9 16 28 L 14.5 24 L 13 24.5 L 12.5 23 Q 12.7 27.7 9.5 29 L 8 28.5 L 8 12.5 L 11 11.5 L 10.5 8 L 9.5 10 L 8 6 L 2 10.5 L 4 13.5 L 2 14 L 1.5 12 L 0 12.5 L 1 10.5 L 0.5 9 L 2 9.5 Q 1.3 7.3 3.5 8 Q 1.8 6 5.5 4 Z M 10 12 L 9 16 L 10 16 L 10 12 Z M 10 17 L 9 28 L 10 28 L 10 17 Z " /><path fill="rgb(221,228,238)" stroke="rgb(221,228,238)" stroke-width="1" opacity="0.09803921568627451" d="M 33.5 5 Q 41 4 44 6 L 45 9.5 L 45.5 53 L 46.5 9 L 49 9.5 L 48 11.5 L 48.5 13 L 47 12.5 L 47 53.5 L 48.5 55 L 49 14.5 L 50.5 12 L 52 13.5 L 52 54.5 L 51 57.5 Q 54.1 59.3 52.5 61 L 56 60.5 L 55 59.5 L 58 56.5 L 56 53.5 L 56 12.5 L 58.5 11 L 64 15.5 L 64 54.5 L 63 57.5 L 65 59.5 L 64.5 62 L 58.5 57 L 58 58.5 L 58.5 60 L 57 59.5 L 55.5 62 L 52.5 62 L 47 59 L 48 55.5 Q 46 57.2 44 53.5 L 44 9.5 L 42.5 9 Q 40.8 5.9 39 7.5 L 39.5 6 Q 33 5 32 9.5 L 33 12.5 L 33 32.5 L 32 32.5 L 31.5 12 L 28 13 L 28 54.5 L 27 57.5 Q 30.1 59.3 28.5 61 L 32 60.5 Q 29.3 58.7 33.5 57 L 34.5 59 L 36 55.5 L 32 53.5 L 32 35.5 L 35.5 35 Q 36.8 32.8 38 35.5 L 38.5 55 L 39 34.5 Q 36.8 33.3 39.5 32 L 40 54.5 L 39 57.5 Q 42.1 59.3 40.5 61 L 42 61.5 L 39 62 L 38.5 59 L 37 59.5 L 38 55.5 L 37 55.5 L 37 57.5 L 32.5 62 L 27 62 L 27 59.5 L 24.5 59 L 19.5 62 L 19 59.5 L 21.5 57 L 22.5 59 L 24 55.5 L 20 53.5 L 20 31.5 L 22.5 28 L 25 27.5 L 25 16.5 L 23 12.5 L 24 12.5 L 26 16.5 L 26.5 55 L 27 13.5 L 29.5 9 L 30.5 11 Q 30.3 6.3 33.5 5 Z M 58 12 L 57 53 L 58 53 L 58 12 Z M 51 14 L 50 55 L 51 55 L 51 14 Z M 60 14 L 59 54 L 61 55 L 61 16 L 60 14 Z M 63 15 L 62 55 L 63 55 L 63 15 Z M 22 31 L 21 53 L 22 53 L 22 31 Z M 23 31 L 23 53 L 24 55 L 25 55 L 25 32 L 23 31 Z M 34 36 L 33 53 L 34 53 L 34 36 Z M 36 36 L 35 39 L 35 53 L 36 55 L 37 55 L 37 37 L 36 36 Z M 26 55 L 25 59 L 26 59 L 26 55 Z M 50 55 L 49 59 L 50 59 L 50 55 Z M 62 55 L 61 59 L 62 59 L 62 55 Z " /><path fill="rgb(221,228,238)" stroke="rgb(221,228,238)" stroke-width="1" opacity="0.09803921568627451" d="M 52.5 5 L 58.5 6 L 59.5 5 L 67.5 5 L 71.5 6 L 73.5 5 L 73.5 6 L 72 6.5 L 74 7 L 74.5 9 L 75.5 7 L 76 8.5 L 73 9.5 L 70.5 15 L 69 14.5 L 69.5 53 L 71 52.5 L 71.5 54 L 73 52.5 L 73.5 13 L 74.5 53 L 75 11.5 L 77.5 8 L 78.5 10 L 79 6 Q 81.7 4.1 88.5 5 L 93 6.5 L 92.5 8 L 96 8.5 L 93.5 10 L 87.5 7 Q 86 9.5 84.5 6 L 76 13.5 L 76 53.5 L 74.5 54 L 73 53.5 L 73.5 57 L 74.5 56 L 78 59.5 L 76 65 L 73.5 64 L 72 66.5 L 72.5 69 L 79.5 69 L 86.5 74 L 89 73 L 91.5 69 L 93 69 Q 91.5 65.3 94.5 66 L 96 66.5 L 97 62.5 L 95.5 60 L 93 61 L 92 57.5 L 93 56.5 L 93 14.5 L 92 13.5 L 95.5 10 Q 98.5 9.2 97 13 L 100 13.5 L 100 54.5 L 99 54.5 L 98.5 14 L 98 54.5 L 96.5 58 L 96 55.5 L 97 54.5 L 97 13 L 94.5 12 L 94 19.5 L 95 21.5 Q 92.3 23.3 94 29.5 L 94 31.5 L 94 57.5 L 95.5 59 L 100 58 L 101.5 61 L 106 55.5 Q 102.5 54 105 52.5 L 105 35.5 L 104 33.5 L 105 33.5 L 105 35 L 110 35.5 L 110 54.5 L 109 58 Q 112.8 56.5 112 59.5 L 113 62 L 109 59.5 Q 109.8 57.3 107.5 58 L 106 57.5 Q 106.5 61.5 103.5 62 Q 99.1 60.5 100 63.5 L 99 63.5 L 97.5 60 L 97 61.5 L 98 65.5 L 85.5 77 L 83 76 L 82.5 72 L 81.5 74 Q 78.7 70.8 72 71.5 L 77 70.5 L 71 70 Q 70.1 63.7 75 61.5 L 75 57.5 L 72 57.5 L 71.5 59 L 70.5 57 L 70 59 L 68 59.5 L 70 60.5 L 66.5 62 L 66.5 61 L 68 60.5 L 67 59.5 L 70 56.5 L 68 53.5 L 68 13.5 L 71.5 9 L 66 8 L 65.5 6 L 63.5 6 L 60 6 Q 61.8 10.5 56.5 9 L 52.5 6 Q 54.2 8 50.5 10 L 49 7.5 L 52.5 5 Z M 69 7 L 69 8 L 71 8 L 69 7 Z M 107 36 L 107 37 L 109 37 L 107 36 Z M 106 38 L 106 55 L 109 55 L 109 39 L 106 38 Z " /><path fill="rgb(221,228,238)" stroke="rgb(221,228,238)" stroke-width="1" opacity="0.09803921568627451" d="M 99.5 5 L 106.5 6 L 109.5 5 L 106.5 9 L 100.5 6 L 99.5 9 Q 96.2 10.1 97 7.5 L 99.5 5 Z " /><path fill="rgb(221,228,238)" stroke="rgb(221,228,238)" stroke-width="1" opacity="0.09803921568627451" d="M 155.5 5 L 162.5 6 L 163.5 5 L 171.5 5 L 174.5 6 L 176.5 5 L 176.5 6 L 175 6.5 L 177 7.5 L 175 8.5 L 176.5 11 L 177.5 9 L 178 10.5 L 174 13 L 174 52.5 L 175 57.5 L 171.5 62 L 169.5 63 L 165 59.5 L 165 16.5 L 162.5 14 L 162 53.5 L 164 57.5 L 162 56.5 Q 163.1 53.2 160.5 54 L 161 52.5 L 161.5 10 L 163.5 13 Q 165.3 10.3 167 14.5 L 166 15.5 L 166 57.5 L 169.5 62 L 172.5 58 L 174 58 L 174 54 L 171 52.5 L 171 14.5 L 172.5 13 Q 175.1 13.8 174 10.5 L 174.5 9 L 171 7.5 L 170.5 6 Q 168.5 10 166.5 6 L 160.5 9 L 157.5 6 L 153 10.5 L 155 13.5 L 154 14.5 L 154 57.5 Q 157.3 64.3 160.5 58 Q 162.8 57.3 162 59.5 Q 161 63 155.5 62 L 153 59.5 L 153 12.5 L 152 10.5 L 155.5 5 Z M 173 14 L 172 53 L 173 53 L 173 14 Z " /><path fill="rgb(221,228,238)" stroke="rgb(221,228,238)" stroke-width="1" opacity="0.09803921568627451" d="M 150.5 9 L 151 11.5 Q 149.8 14.8 146 14 L 146 52.5 Q 146 53.5 150.5 53 L 150.5 54 Q 145 55.5 143.5 53 L 143 55 L 141 54.5 Q 143 50.8 145 52.5 L 145.5 12 L 148.5 13 L 150.5 9 Z " /><path fill="rgb(221,228,238)" stroke="rgb(221,228,238)" stroke-width="1" opacity="0.09803921568627451" d="M 105.5 10 L 107.5 13 L 108.5 12 L 112 15.5 L 112 29.5 L 110.5 31 L 105 32 L 105.5 10 Z M 106 14 L 106 29 L 109 29 L 109 16 L 106 14 Z M 111 15 L 110 30 L 111 30 L 111 15 Z " /><path fill="rgb(221,228,238)" stroke="rgb(221,228,238)" stroke-width="1" opacity="0.09803921568627451" d="M 117.5 10 L 118.5 13 L 120.5 12 L 124 15.5 L 124 54.5 L 123 54.5 L 122.5 32 L 122 54.5 L 121 58 L 125 60.5 Q 125.8 62.8 123.5 62 L 121 58 L 118.5 57 L 114.5 63 L 114 60.5 L 118 55.5 Q 114.5 54 117 52.5 L 117 35.5 L 118.5 34 Q 119.8 36.3 121 33.5 L 122 31.5 L 116 30.5 L 117 29.5 L 117 14.5 L 117 12.5 L 117.5 10 Z M 118 14 L 118 28 L 121 28 L 121 16 L 118 14 Z M 123 15 L 122 31 L 123 31 L 123 15 Z M 119 29 L 119 30 L 121 30 L 119 29 Z M 118 36 L 118 55 L 121 55 L 121 37 L 118 36 Z " /><path fill="rgb(221,228,238)" stroke="rgb(221,228,238)" stroke-width="1" opacity="0.09803921568627451" d="M 131.5 10 Q 133.8 9.3 133 11.5 L 130 14.5 L 130 52.5 L 133.5 54 L 137 53 L 137 14.5 L 133.5 14 L 133.5 13 Q 138.3 11.8 139.5 14 L 140 12 L 142 12.5 Q 140 16.2 138 14.5 L 137.5 55 L 134.5 54 L 132 58.5 L 131.5 60 L 131 58.5 L 132 55.5 L 131 55.5 Q 130.8 60.3 127.5 62 Q 125.3 62.8 126 60.5 L 130 55.5 Q 126.5 54 129 52.5 L 129 14.5 L 128 13.5 L 131.5 10 Z " /><path fill="rgb(221,228,238)" stroke="rgb(221,228,238)" stroke-width="1" opacity="0.09803921568627451" d="M 34.5 12 L 39 13 L 40 15.5 L 40 31 L 34.5 32 L 34 29.5 L 34.5 12 Z M 39 15 L 38 30 L 39 30 L 39 15 Z M 35 16 L 35 29 L 37 28 L 37 17 L 35 16 Z " /><path fill="rgb(221,228,238)" stroke="rgb(221,228,238)" stroke-width="1" opacity="0.09803921568627451" d="M 81 13 Q 86.5 11.8 88 15.5 L 88 50.5 L 86 52.5 L 88 53 L 88 63.5 L 89 66 Q 91.7 64.9 91 67.5 Q 89.5 70.5 88 67.5 L 88 65.5 L 87.5 64 L 86.5 65 L 77.5 65 L 79.5 62 Q 81.8 62.8 81 60.5 Q 83 56.8 85 58.5 L 84 55.5 L 84.5 54 Q 80.8 54.8 80 52.5 L 81 51.5 L 81 13 Z M 87 15 L 86 51 L 87 51 L 87 15 Z M 82 16 L 82 51 L 85 51 L 85 17 L 82 16 Z M 87 54 L 86 64 L 87 64 L 87 54 Z M 85 60 L 83 62 L 85 62 L 85 60 Z M 82 63 L 82 64 L 85 64 L 82 63 Z " /><path fill="rgb(221,228,238)" stroke="rgb(221,228,238)" stroke-width="1" opacity="0.09803921568627451" d="M 159.5 14 L 160 22.5 L 159 22.5 L 159.5 14 Z " /><path fill="rgb(221,228,238)" stroke="rgb(221,228,238)" stroke-width="1" opacity="0.09803921568627451" d="M 3.5 15 L 4 26.5 L 3 26.5 L 3.5 15 Z " /><path fill="rgb(221,228,238)" stroke="rgb(221,228,238)" stroke-width="1" opacity="0.09803921568627451" d="M 139.5 16 L 140 42.5 L 139 42.5 L 139.5 16 Z " /><path fill="rgb(221,228,238)" stroke="rgb(221,228,238)" stroke-width="1" opacity="0.09803921568627451" d="M 70.5 19 L 71 22.5 L 70 22.5 L 70.5 19 Z " /><path fill="rgb(221,228,238)" stroke="rgb(221,228,238)" stroke-width="1" opacity="0.09803921568627451" d="M 1.5 20 L 2 22.5 L 1 22.5 L 1.5 20 Z " /><path fill="rgb(221,228,238)" stroke="rgb(221,228,238)" stroke-width="1" opacity="0.09803921568627451" d="M 8.5 31 L 9.5 53 L 10.5 31 L 14 33.5 L 14.5 35 L 15.5 33 L 16 54.5 L 15 57.5 Q 20.3 59.8 16.5 62 L 13.5 55 Q 13 60.5 8.5 62 Q 4 63 3 60.5 L 1.5 55 L 0.5 58 L 0 55.5 L 4 52.5 Q 4.8 54.8 2.5 54 L 3 55.5 Q 2.5 60.5 6.5 61 L 9 60.5 L 8 58 L 10.5 59 L 12 55.5 L 8 54 L 8.5 31 Z M 11 35 L 11 53 L 13 55 L 14 52 L 14 55 L 15 55 L 15 36 L 14 48 L 13 48 L 13 36 L 11 35 Z " /><path fill="rgb(221,228,238)" stroke="rgb(221,228,238)" stroke-width="1" opacity="0.09803921568627451" d="M 3.5 35 L 4 42.5 L 3 42.5 L 3.5 35 Z " /><path fill="rgb(221,228,238)" stroke="rgb(221,228,238)" stroke-width="1" opacity="0.09803921568627451" d="M 111.5 35 L 112 54.5 L 111 54.5 L 111.5 35 Z " /><path fill="rgb(221,228,238)" stroke="rgb(221,228,238)" stroke-width="1" opacity="0.09803921568627451" d="M 3.5 44 L 4 46.5 L 3 46.5 L 3.5 44 Z " /><path fill="rgb(221,228,238)" stroke="rgb(221,228,238)" stroke-width="1" opacity="0.09803921568627451" d="M 70.5 45 L 71 47.5 L 70 47.5 L 70.5 45 Z " /><path fill="rgb(221,228,238)" stroke="rgb(221,228,238)" stroke-width="1" opacity="0.09803921568627451" d="M 139.5 50 L 140 54.5 L 139 54.5 L 139.5 50 Z " /><path fill="rgb(221,228,238)" stroke="rgb(221,228,238)" stroke-width="1" opacity="0.09803921568627451" d="M 150.5 55 L 152 57.5 L 150 57.5 Q 150.5 61.5 147.5 62 L 131 61.5 L 148 60.5 L 147 59.5 L 150 56.5 L 150.5 55 Z " /><path fill="rgb(221,228,238)" stroke="rgb(221,228,238)" stroke-width="1" opacity="0.09803921568627451" d="M 45.5 57 L 46 58.5 L 45.5 61 L 43.5 62 L 43 59.5 L 45.5 57 Z " /><path fill="rgb(221,228,238)" stroke="rgb(221,228,238)" stroke-width="1" opacity="0.09803921568627451" d="M 133.5 59 L 145 59.5 L 133.5 60 L 133.5 59 Z " /><path fill="rgb(227,231,243)" stroke="rgb(227,231,243)" stroke-width="1" opacity="0.996078431372549" d="M 6.5 7 L 9.5 11 Q 6.9 11.7 8 9 L 5.5 9 L 6.5 7 Z " /><path fill="rgb(227,231,243)" stroke="rgb(227,231,243)" stroke-width="1" opacity="0.996078431372549" d="M 35.5 7 L 43 9 L 43 55.5 L 41 56 L 41 16.5 L 42 14.5 L 41 12 Q 35.3 12.9 32 10.5 L 35 9.5 Q 32.8 8.3 35.5 7 Z " /><path fill="rgb(227,231,243)" stroke="rgb(227,231,243)" stroke-width="1" opacity="0.996078431372549" d="M 62.5 7 L 68 8.5 Q 63.4 7.9 62 10.5 L 64 13.5 L 62 12.5 Q 62.8 9.9 59.5 11 L 59.5 10 Q 61.8 10.8 61 8.5 L 62.5 7 Z " /><path fill="rgb(227,231,243)" stroke="rgb(227,231,243)" stroke-width="1" opacity="0.996078431372549" d="M 83.5 7 L 89 8.5 L 86.5 10 L 83.5 8 L 82 8.5 L 83.5 7 Z " /><path fill="rgb(227,231,243)" stroke="rgb(227,231,243)" stroke-width="1" opacity="0.996078431372549" d="M 109.5 7 L 115 8.5 L 111 10 L 110.5 8 L 108.5 9 L 109.5 7 Z " /><path fill="rgb(227,231,243)" stroke="rgb(227,231,243)" stroke-width="1" opacity="0.996078431372549" d="M 121.5 7 L 127 8 Q 125.8 11 129.5 10 L 131 9.5 L 127 12 L 127 54.5 L 125.5 57 L 123 56.5 L 124 55.5 L 124 14.5 L 123 12 L 119 11 L 121.5 7 Z M 121 8 Q 120 12 123 11 Q 124 7 121 8 Z M 124 9 L 124 11 L 127 12 L 127 11 L 124 9 Z M 126 12 L 125 47 L 126 47 L 126 12 Z M 126 52 L 125 55 L 126 55 L 126 52 Z " /><path fill="rgb(227,231,243)" stroke="rgb(227,231,243)" stroke-width="1" opacity="0.996078431372549" d="M 157.5 7 L 160 10.5 L 159 11.5 L 159 54.5 L 160 57.5 Q 157.5 62.5 155 57.5 L 155.5 56 L 157.5 59 L 159 55.5 L 156 54.5 L 156 13.5 L 154 11.5 L 157.5 7 Z M 158 8 L 156 10 L 158 10 L 158 8 Z M 157 11 L 157 13 L 157 38 L 158 38 L 158 12 L 157 11 Z M 158 43 L 157 55 L 158 55 L 158 43 Z " /><path fill="rgb(227,231,243)" stroke="rgb(227,231,243)" stroke-width="1" opacity="0.996078431372549" d="M 165.5 7 L 171 8.5 L 168 10.5 L 170.5 11 L 174.5 9 L 173.5 11 L 171 12.5 L 170.5 54 L 169.5 24 L 169 56 L 171.5 55 L 172 57 L 168.5 56 L 168 57.5 L 171 58.5 L 169.5 60 L 166 56.5 L 168 56 L 168.5 13 L 170 13.5 Q 170.8 11.3 168.5 12 L 166.5 12 L 162 11 Q 160.9 8.3 163.5 9 L 165.5 7 Z " /><path fill="rgb(227,231,243)" stroke="rgb(227,231,243)" stroke-width="1" opacity="0.996078431372549" d="M 100.5 8 L 100 9.5 L 100.5 11 L 105.5 9 L 104.5 11 L 103 11.5 L 103 55.5 L 105 55.5 Q 103.5 58.5 102 55.5 L 101.5 13 L 101 55.5 L 100 57.5 L 103 58.5 Q 101 62 99 57.5 L 100 55.5 L 100 11.5 L 99 9.5 L 100.5 8 Z " /><path fill="rgb(227,231,243)" stroke="rgb(227,231,243)" stroke-width="1" opacity="0.996078431372549" d="M 136.5 8 L 151 8.5 L 148.5 11 L 134.5 11 L 136.5 8 Z M 137 9 L 137 10 L 149 10 L 137 9 Z " /><path fill="rgb(227,231,243)" stroke="rgb(227,231,243)" stroke-width="1" opacity="0.996078431372549" d="M 57.5 9 L 56.5 11 L 57.5 9 Z " /><path fill="rgb(227,231,243)" stroke="rgb(227,231,243)" stroke-width="1" opacity="0.996078431372549" d="M 69.5 10 L 68.5 12 L 69.5 10 Z " /><path fill="rgb(227,231,243)" stroke="rgb(227,231,243)" stroke-width="1" opacity="0.996078431372549" d="M 80.5 10 L 82 10.5 L 79 12.5 L 78.5 53 L 78 12.5 L 80.5 10 Z " /><path fill="rgb(227,231,243)" stroke="rgb(227,231,243)" stroke-width="1" opacity="0.996078431372549" d="M 83.5 10 L 88.5 11 L 90 10.5 L 89.5 12 L 91 12.5 L 89 13.5 L 91 14 L 91 61.5 L 89.5 63 L 88 62.5 L 88 14.5 L 86.5 14 L 86.5 13 L 89 12.5 L 83 12 L 83.5 10 Z M 90 16 L 89 36 L 90 36 L 90 16 Z M 90 43 L 89 46 L 90 46 L 90 43 Z M 90 48 L 89 60 L 90 60 L 90 48 Z " /><path fill="rgb(227,231,243)" stroke="rgb(227,231,243)" stroke-width="1" opacity="0.996078431372549" d="M 115.5 10 L 116 12.5 L 115 13.5 L 115 31 L 122 31.5 L 115 34 L 115 54.5 L 114 56.5 L 116 56.5 L 113.5 60 L 111 56.5 L 112 55.5 L 112 34 L 106 33.5 L 112 31 L 112 14.5 L 111 13.5 Q 113 9.8 115 11.5 L 115.5 10 Z M 114 12 L 113 28 L 114 28 L 114 12 Z M 114 29 L 113 31 L 110 33 L 113 33 L 115 33 L 114 29 Z M 114 39 L 113 55 L 114 55 L 114 39 Z " /><path fill="rgb(227,231,243)" stroke="rgb(227,231,243)" stroke-width="1" opacity="0.996078431372549" d="M 16.5 11 L 17.5 13 L 15 12.5 L 16.5 11 Z " /><path fill="rgb(227,231,243)" stroke="rgb(227,231,243)" stroke-width="1" opacity="0.996078431372549" d="M 5 12 L 8 13.5 L 7.5 22 L 6.5 13 L 6 38.5 L 7 38.5 L 7.5 36 L 8 53.5 L 9 56 L 7 55.5 L 7 48.5 L 6 48.5 Q 7.8 54.8 5 56.5 L 6.5 59 L 7 57 L 9 57.5 Q 7 62 5 58.5 Q 5.8 56.3 3.5 57 L 3.5 56 L 5 55.5 L 5 12 Z " /><path fill="rgb(227,231,243)" stroke="rgb(227,231,243)" stroke-width="1" opacity="0.996078431372549" d="M 13.5 13 L 17.5 15 L 19 14.5 L 19.5 16 L 20.5 14 L 23 15.5 L 19.5 19 L 18.5 18 Q 14.8 18.8 14 16.5 L 14.5 15 L 12 14.5 L 13.5 13 Z " /><path fill="rgb(227,231,243)" stroke="rgb(227,231,243)" stroke-width="1" opacity="0.996078431372549" d="M 30.5 13 L 31 16 L 29 15.5 L 30.5 13 Z " /><path fill="rgb(227,231,243)" stroke="rgb(227,231,243)" stroke-width="1" opacity="0.996078431372549" d="M 142.5 13 L 143 51.5 L 140 53.5 L 140 15.5 L 142.5 13 Z M 142 15 L 141 24 L 142 24 L 142 15 Z M 142 33 L 141 36 L 142 36 L 142 33 Z M 142 38 L 141 52 L 142 52 L 142 38 Z " /><path fill="rgb(227,231,243)" stroke="rgb(227,231,243)" stroke-width="1" opacity="0.996078431372549" d="M 54.5 16 L 55 57 Q 52 58.3 53 54.5 Q 55.8 52.7 54 46.5 L 53 44.5 L 54 43.5 L 54 27.5 L 53 25.5 L 54 24.5 L 54.5 16 Z " /><path fill="rgb(227,231,243)" stroke="rgb(227,231,243)" stroke-width="1" opacity="0.996078431372549" d="M 66.5 16 L 67 54 Q 69.7 52.9 69 55.5 L 68.5 58 L 67 57.5 Q 67.8 60.1 64.5 59 L 63 56.5 L 64 56.5 Q 63.3 58.8 65.5 58 L 65 56.5 L 66 41.5 L 65 40.5 L 65 32.5 L 66 29.5 L 65 24.5 L 66 22.5 L 65 20.5 L 66.5 16 Z " /><path fill="rgb(227,231,243)" stroke="rgb(227,231,243)" stroke-width="1" opacity="0.996078431372549" d="M 76.5 16 L 77 52.5 L 76 52.5 L 76.5 16 Z " /><path fill="rgb(227,231,243)" stroke="rgb(227,231,243)" stroke-width="1" opacity="0.996078431372549" d="M 29.5 18 L 31 20.5 L 31 40.5 L 30 44.5 L 31 45.5 L 31 56 Q 33.7 54.9 33 57.5 L 29.5 59 L 27.5 56 L 29 55.5 L 29.5 18 Z " /><path fill="rgb(227,231,243)" stroke="rgb(227,231,243)" stroke-width="1" opacity="0.996078431372549" d="M 7.5 27 L 9 30.5 L 7.5 35 L 7.5 27 Z " /><path fill="rgb(227,231,243)" stroke="rgb(227,231,243)" stroke-width="1" opacity="0.996078431372549" d="M 10.5 29 L 14 30.5 L 11.5 31 L 10.5 29 Z " /><path fill="rgb(227,231,243)" stroke="rgb(227,231,243)" stroke-width="1" opacity="0.996078431372549" d="M 37.5 31 L 38 33 L 34.5 34 L 34.5 33 L 37.5 31 Z " /><path fill="rgb(227,231,243)" stroke="rgb(227,231,243)" stroke-width="1" opacity="0.996078431372549" d="M 14.5 32 L 17.5 33 L 19 32.5 L 20 35.5 L 19 37.5 L 20 38.5 L 20 48 Q 16.7 46.7 18 51.5 L 19 53.5 L 16.5 57 L 15 56.5 L 17 56 L 17 33.5 L 14.5 33 L 14.5 32 Z " /><path fill="rgb(227,231,243)" stroke="rgb(227,231,243)" stroke-width="1" opacity="0.996078431372549" d="M 20.5 54 L 21 55.5 L 19.5 59 L 17 58.5 L 19 58 L 20.5 54 Z " /><path fill="rgb(227,231,243)" stroke="rgb(227,231,243)" stroke-width="1" opacity="0.996078431372549" d="M 56.5 54 L 57 57.5 L 56 57.5 L 56.5 54 Z " /><path fill="rgb(227,231,243)" stroke="rgb(227,231,243)" stroke-width="1" opacity="0.996078431372549" d="M 83.5 54 L 85 54.5 L 83 55 Q 83.8 58.8 80.5 60 L 78 58.5 L 78.5 57 L 76.5 58 L 75 55.5 L 76.5 56 L 79.5 57 L 83.5 54 Z M 81 57 L 79 59 L 81 59 L 81 57 Z " /><path fill="rgb(227,231,243)" stroke="rgb(227,231,243)" stroke-width="1" opacity="0.996078431372549" d="M 39.5 56 L 42.5 58 L 44.5 57 L 43.5 59 L 39 58 L 39.5 56 Z " /><path fill="rgb(227,231,243)" stroke="rgb(227,231,243)" stroke-width="1" opacity="0.996078431372549" d="M 128.5 56 L 125.5 60 L 124.5 58 L 125.5 59 L 128.5 56 Z " /><path fill="rgb(227,231,243)" stroke="rgb(227,231,243)" stroke-width="1" opacity="0.996078431372549" d="M 135.5 56 L 149 56.5 L 135 57.5 L 147 58.5 L 132.5 59 L 132.5 58 L 135.5 56 Z " /><path fill="rgb(227,231,243)" stroke="rgb(227,231,243)" stroke-width="1" opacity="0.996078431372549" d="M 52.5 58 L 55 58.5 L 52.5 59 L 52.5 58 Z " /><path fill="rgb(227,231,243)" stroke="rgb(227,231,243)" stroke-width="1" opacity="0.996078431372549" d="M 92.5 60 L 94 63 L 96 63.5 L 94 64 L 92.5 67 L 91 64.5 L 94 63.5 L 92.5 60 Z " /><path fill="rgb(227,231,243)" stroke="rgb(227,231,243)" stroke-width="1" opacity="0.996078431372549" d="M 76.5 64 L 80.5 66 L 83.5 65 L 87 67.5 L 85.5 71 L 83 70.5 L 84.5 68 L 79.5 67 Q 78 70.5 76.5 68 L 73 67.5 L 75 67 L 76.5 64 Z M 77 66 L 77 67 L 79 67 L 77 66 Z " /><path fill="rgb(227,231,243)" stroke="rgb(227,231,243)" stroke-width="1" opacity="0.996078431372549" d="M 88.5 68 Q 91.5 69.5 88.5 71 L 88.5 68 Z " /><path fill="rgb(227,231,243)" stroke="rgb(227,231,243)" stroke-width="1" opacity="0.996078431372549" d="M 86.5 72 L 85.5 74 L 86.5 72 Z " /></svg>