<svg xmlns="http://www.w3.org/2000/svg" width="1164" height="528" viewBox="0 0 1164 528"><path fill="#fff" fill-rule="evenodd" d="M413 1.935c-31.448 3.163-60.096 16.882-81.182 38.875-18.488 19.285-27.284 35.929-34.45 65.19-2.583 10.55-2.636 45.724-.081 54.154.942 3.11 1.713 6.582 1.713 7.716s.621 3.54 1.379 5.346 2.86 7.109 4.671 11.784c9.639 24.888 30.1 48.612 54.637 63.352 7.137 4.287 18.621 9.648 20.669 9.648.769 0 1.988.709 2.707 1.576 1.084 1.307 1.063 1.732-.127 2.485-.79.5-15.867.915-33.504.924-36.01.017-39.681.535-46.324 6.536-3.489 3.152-5.267 6.346-8.618 15.479-.706 1.925-2.726 7.1-4.49 11.5s-3.886 9.8-4.716 12c-3.978 10.54-4.622 12.203-5.818 15-.705 1.65-1.947 4.8-2.761 7-4.107 11.104-5.438 14.452-9.06 22.784-.905 2.081-1.645 4.411-1.645 5.178 0 1.531-2.644 4.538-3.99 4.538-.466 0-1.879-1.687-3.141-3.75s-5.571-8.25-9.575-13.75c-4.005-5.5-7.921-10.9-8.703-12s-4.069-5.6-7.304-10-8.057-11.119-10.714-14.931-5.238-7.412-5.733-8c-.949-1.127-13.636-18.675-20.218-27.967-2.134-3.011-5.059-6.515-6.5-7.788L187.5 262.5l-45.5.5c-44.563.49-45.505.541-45.746 2.5-.153 1.242 4.206 7.965 11.5 17.738 6.46 8.657 14.221 19.158 17.246 23.336s12.25 16.671 20.5 27.761 15.851 21.484 16.892 23.096c2.18 3.378 33.958 46.317 35.944 48.569.728.825 3.532 4.65 6.23 8.5 4.559 6.503 10.152 14.135 48.651 66.385 21.132 28.681 23.015 31.263 26.169 35.885 1.587 2.327 3.5 4.23 4.25 4.23s1.663.031 2.029.07c.366.038 1.737-2.549 3.046-5.75a915 915 0 0 1 3.231-7.82c.469-1.1 1.822-4.475 3.008-7.5 1.187-3.025 2.534-6.4 2.994-7.5 3.607-8.625 7.763-18.951 12.074-30 2.79-7.15 5.479-13.9 5.977-15s2.519-6.05 4.49-11 4.007-9.9 4.522-11 1.863-4.475 2.993-7.5 2.446-6.4 2.924-7.5 1.84-4.475 3.026-7.5c1.187-3.025 2.559-6.4 3.051-7.5.491-1.1 2.303-5.6 4.027-10 4.394-11.22 6.072-15.402 8.023-20 .933-2.2 6.519-16.15 12.413-31 10.17-25.624 12.494-31.368 14.566-36 .492-1.1 3.594-8.739 6.893-16.976 5.532-13.814 5.894-15.185 4.657-17.665-1.214-2.433-1.156-2.737.61-3.198 1.073-.281 3.382.302 5.13 1.295 6.411 3.642 20.097 5.317 38.881 4.76 18.41-.547 25.544-1.731 41.145-6.829 25.301-8.268 48.117-25.135 63.48-46.926 8.976-12.731 19.074-35.394 16.789-37.679-.43-.43-18.606-.875-40.39-.989l-39.609-.206-7.058 7.379c-5.332 5.575-8.833 8.229-14.317 10.855-22.001 10.532-50.099 5.121-62.708-12.077-6.589-8.986-10.626-19.959-8.553-23.244.826-1.308 12.155-1.564 88.72-2l87.773-.5 1.415-2.952c2.328-4.857 2.662-24.513.642-37.705C550.612 55.614 512.337 15.245 455 3.594c-8.958-1.82-31.534-2.712-42-1.659M2.667 6.667C.852 8.482 2.487 10.982 27.091 44c2.254 3.025 14.397 19.45 26.986 36.5 12.588 17.05 23.504 31.675 24.258 32.5s2.224 2.85 3.268 4.5S95.424 136.578 110 156.23c61.274 82.613 70.115 94.6 73.135 99.16 1.745 2.635 3.802 5.032 4.57 5.327 1.376.528 6.295-3.289 6.295-4.885 0-.451 2.025-5.124 4.5-10.386s4.5-9.763 4.5-10.003 1.307-3.251 2.905-6.69c4.196-9.031 7.745-16.982 10.502-23.527 1.326-3.149 4.253-9.69 6.502-14.535 2.25-4.845 4.091-9.007 4.091-9.248s1.304-3.251 2.899-6.69c6.322-13.639 9.378-20.451 11.102-24.753.992-2.475 3.455-8.1 5.474-12.5 6.251-13.622 7.279-15.889 8.845-19.5a989 989 0 0 1 4.599-10.32c1.695-3.751 3.081-7.003 3.081-7.228s1.639-3.906 3.642-8.18A630 630 0 0 0 273.508 77c3.28-7.63 4.538-10.439 10.903-24.339 1.974-4.312 3.589-8.052 3.589-8.311s1.8-4.296 4-8.97 4-8.724 4-9.001 1.627-3.838 3.615-7.915c2.611-5.356 3.435-8.131 2.966-9.997l-.648-2.583-35.217.308c-38.628.338-38.707.349-45.887 6.653-3.367 2.956-5.668 7.015-12.843 22.655-2.852 6.217-4.473 9.797-9.508 21-1.502 3.341-6.889 15.031-10.874 23.596-1.432 3.079-2.604 6.061-2.604 6.628s-.675 1.591-1.5 2.276-1.5 1.836-1.5 2.558c0 .723-1.671 4.943-3.714 9.378-2.491 5.409-4.267 8.064-5.393 8.064-.923 0-1.913-.61-2.199-1.355-.286-.746-5.6-8.508-11.808-17.25A10889 10889 0 0 1 141.255 65.5c-3.488-4.95-9.81-13.846-14.049-19.769-9.96-13.919-18.718-26.214-23.567-33.085-2.124-3.009-4.824-5.729-6-6.045-3.015-.809-94.161-.746-94.972.066m585.556.89L586 9.113v252.774l2.223 1.556c1.921 1.346 7.645 1.557 42.3 1.557 29.838 0 40.384-.307 41.277-1.2.888-.888 1.2-10.333 1.2-36.3s.312-35.412 1.2-36.3c1.31-1.31 14.589-1.663 16.357-.435 1.218.847 4.853 6.176 28.129 41.235 9.311 14.025 17.227 26.287 17.59 27.25 1.779 4.71 1.518 4.75-31.348 4.75-29.808 0-30.894.068-31.925 1.995-.745 1.392-.983 39.94-.785 127.537.248 110.298.464 125.656 1.782 126.489.88.556 18.112.955 41.679.964 35.206.013 40.373-.179 41.75-1.556 1.367-1.368 1.571-6.017 1.571-35.8 0-25.289.313-34.542 1.2-35.429 1.256-1.256 9.492-1.612 14.434-.623 2.687.537 6.303 5.141 15.866 20.204 3.039 4.787 21.708 33.131 27.377 41.566 3.64 5.416 7.409 10.271 8.375 10.788 2.027 1.085 94.191.758 95.285-.338.386-.386-.139-2.058-1.167-3.714-2.399-3.863-21.669-32.298-28.519-42.083-2.888-4.125-8.451-12.225-12.361-18a2591 2591 0 0 0-10.569-15.5c-3.968-5.738-4.002-8.697-.119-10.431 6.068-2.709 17.349-11.24 25.215-19.069 8.522-8.482 20.01-26.736 19.948-31.696-.02-1.547-1.613-5.045-3.554-7.804-4.904-6.97-12.618-18.225-14.411-21.027-2.04-3.188-24.029-35.631-32.516-47.973a4312 4312 0 0 1-13.987-20.5c-26.963-39.811-37.785-55.746-43.804-64.5-11.591-16.857-16.149-23.568-17.2-25.32-.553-.924-2.916-4.524-5.25-8.001S779 177.474 779 177.004s4.436-3.761 9.858-7.314c15.252-9.993 24.05-19.655 31.033-34.083 2.26-4.669 4.109-9.916 4.109-11.66 0-2.507-7.9-15.012-37.688-59.655-25.82-38.698-38.436-56.769-40.065-57.388-1.341-.51-35.802-.904-79.09-.904-67.812 0-76.97.181-78.934 1.557m286.996.193c-.396.963-.719 30.1-.719 64.75v63l4.936 7c2.715 3.85 8.48 12.175 12.812 18.5 8.586 12.537 17.889 26.04 36.518 53 17.905 25.914 20.238 29.258 25.964 37.224 2.876 4.002 5.238 8.064 5.25 9.026.019 1.64-2.704 1.75-43.358 1.75-37.234 0-43.552.211-44.615 1.492-1.298 1.564-1.479 1.271 23.851 38.508 4.677 6.875 14.135 20.825 21.019 31 19.85 29.341 26.217 38.719 34.623 51a8163 8163 0 0 1 14.999 22 3736 3736 0 0 0 12.914 18.888c9.305 13.487 9.679 10.344-4.691 39.381-24.275 49.052-25.633 52.029-24.605 53.949.891 1.665 3.67 1.782 42.468 1.782 35.256 0 41.959-.23 44.465-1.526 1.709-.884 2.95-2.331 2.95-3.441 0-1.053.392-2.157.87-2.453.479-.296 2.536-4.035 4.571-8.309s4.121-8.446 4.636-9.271 1.19-2.175 1.502-3c.311-.825.986-2.175 1.5-3 .513-.825 1.188-2.175 1.5-3 .311-.825.986-2.175 1.5-3 .513-.825 1.188-2.175 1.5-3 .311-.825.986-2.175 1.5-3 .513-.825 1.212-2.175 1.552-3 .607-1.472 12.627-25.815 14.444-29.25.509-.962 1.378-2.538 1.931-3.5s1.283-2.425 1.621-3.25c.852-2.081 4.291-9.184 5.326-11 .471-.825 10.378-20.85 22.016-44.5 11.639-23.65 21.559-43.675 22.047-44.5s1.863-3.525 3.058-6 8.872-18 17.063-34.5 14.884-30.964 14.877-32.143c-.008-1.179-.726-2.416-1.596-2.75s-20.107-.593-42.75-.575c-32.684.025-41.529.306-42.921 1.362-.965.732-11.677 21.081-23.806 45.219-12.128 24.138-22.764 44.432-23.635 45.099-1.333 1.02-2.085.544-4.75-3-3.017-4.014-25.949-37.934-28.063-41.509-.553-.937-2.838-4.403-5.077-7.703-2.24-3.3-8.881-13.154-14.759-21.897l-10.687-15.897.022-126.846c.022-125.681.004-126.864-1.985-128.853C961.06 6.06 959.718 6 918.469 6c-39.566 0-42.582.122-43.25 1.75M417 70.827c-14.493 3.347-25.077 11.608-31.483 24.573-3.93 7.953-4.287 10.09-1.846 11.027.92.353 21.872.592 46.561.532 39.798-.098 44.957-.289 45.491-1.68 1.068-2.782-6.673-16.375-12.704-22.309C451.383 71.521 433.932 66.916 417 70.827m257.168 9.47c-.882 1.064-1.134 7.593-.937 24.328l.269 22.875 22 .299c25.011.341 31.477-.682 37.931-6.003 6.502-5.359 8.571-9.721 8.553-18.026-.02-8.733-2.281-13.488-8.765-18.433-6.696-5.108-9.658-5.625-34.781-6.078-19.318-.348-23.259-.18-24.27 1.038M493.23 263.585c-32.653 5.935-60.096 21.513-79.126 44.915-5.859 7.206-13.104 17.76-13.104 19.091 0 .413-.596 1.462-1.324 2.33-1.339 1.596-6.535 13.632-8.669 20.079-7.99 24.137-9.109 54.6-2.848 77.5 7.122 26.051 20.071 47.573 39.083 64.962 6.122 5.599 20.835 16.538 22.244 16.538.234 0 2.583 1.255 5.22 2.789 8.586 4.995 20.137 9.345 35.031 13.19 8.7 2.246 26.794 3.226 40.174 2.177 7.128-.559 13.86-1.498 14.959-2.086 1.099-.589 3.205-1.07 4.68-1.07 4.81 0 18.471-4.937 30.627-11.069 19.928-10.052 34.432-22.879 47.611-42.106 3.646-5.318 11.111-19.863 14.048-27.37 3.503-8.956 5.871-8.455-39.959-8.455h-40.023l-3.677 4.196c-7.678 8.763-12.338 12.095-22.387 16.007-4.347 1.692-7.695 2.076-18.79 2.154l-13.5.095-8.568-4.166c-12.406-6.033-19.409-14.339-24.617-29.193-2.153-6.139-2.196-6.679-.622-7.843 1.321-.978 20.812-1.25 89.463-1.25 85.486 0 87.8-.05 88.8-1.917 1.733-3.238 2.384-23.788 1.121-35.399-4.926-45.309-30.102-82.074-69.923-102.11-9.568-4.814-22.458-8.981-35.655-11.528-12.477-2.408-38.255-2.644-50.269-.461m11.27 67.895c-13.032 2.87-23.903 11.771-30.337 24.841-5.472 11.116-9.585 10.14 44.025 10.439 53.791.299 49.662 1.264 43.904-10.26-4.081-8.167-12.228-16.744-19.696-20.737-9.866-5.275-25.411-7.032-37.896-4.283m255.75 6.016c-1.594 1.81-1.786 42.634-.215 45.57.974 1.819 2.301 1.934 22.374 1.934 21.753 0 24.449-.365 33.091-4.478 3.513-1.672 7.819-5.553 10.21-9.202 2.594-3.959 2.284-17.976-.497-22.476-3.776-6.109-9.772-9.611-19.698-11.504-9.994-1.906-43.552-1.79-45.265.156"/></svg>