<svg xmlns="http://www.w3.org/2000/svg" width="605px" height="715px" style="shape-rendering:geometricPrecision;text-rendering:geometricPrecision;image-rendering:optimizeQuality;fill-rule:evenodd;clip-rule:evenodd"><path fill="#fff" d="M235.5 1.5q68.502-.25 137 .5Q485.018 17.05 526 122.5q27.197 88.623-25 165-38.245 50.262-99.5 66.5 81.313 9.255 145 60 61.49 54.447 53.5 136.5-7.444 69.657-61.5 113.5-52.245 42.854-120 48.5a43677 43677 0 0 0-417-1v-5q33.994 3.077 59.5-19 5.22-6.647 7-15a71689 71689 0 0 1 2-533Q94.89 50.111 183.5 23q74.607-18.735 138 24 27.793 21.773 44.5 52.5 27.786 55.672-29.5 78.5-43.494 11.856-64.5-27.5a70.3 70.3 0 0 1-4-16q.166-21.996 0-44-4.405-17.41-21.5-23.5-44.192-12.614-67.5 26.5a10501 10501 0 0 0 0 205A67546 67546 0 0 0 344.5 690q78.477-30.491 103.5-111.5 28.164-124.409-83.5-185.5-60.324-34.018-129.5-34.5-1.026-1.926.5-3.5 93.665-1.947 147.5-77.5 57.033-93.162 3-188Q332.843 9.025 235.5 6q-1.842-2.235 0-4.5m-57 403a20181 20181 0 0 1 103.5 245q2.723 26.901-15.5 46.5-15.126 11.034-34 10-26.995.75-54 .5z" style="opacity:.991"/></svg>