<svg xmlns="http://www.w3.org/2000/svg" viewBox="0 0 341.8815 362.2448"><path d="M71.997 96.554 170.659 0c.49.383 1.076.756 1.56 1.232 27.086 26.597 54.088 53.28 81.32 79.726 4.16 4.04 4.459 6.524.091 10.65-10.399 9.826-20.306 20.173-29.697 29.592l-51.474-51.825-27.461 27.596L290.685 240.5c.187-2.558.443-4.458.445-6.358.029-21.829.151-43.659-.089-65.484-.05-4.616 1.353-7.811 4.654-10.943 15.09-14.312 29.971-28.844 45.655-44v247.244c-1.974-1.577-3.556-2.624-4.882-3.931-36.397-35.879-72.762-71.79-109.146-107.683-34.21-33.749-68.398-67.521-102.673-101.205-15.69-15.42-31.574-30.643-47.35-45.976-1.65-1.603-3.167-3.342-5.302-5.61Z" style="fill:#fff"/><path d="m50.144 241.113 57.643-57.825 37.977 35.362L0 362.245V5.199c1.335.777 2.591 1.219 3.464 2.059C17.627 20.89 31.893 34.424 45.727 48.385c2.424 2.446 4.219 6.726 4.234 10.168.256 57.764.183 115.53.183 173.294v9.266ZM291.157 111.238c0-19.677-.029-38.085.063-56.493.006-1.245.583-2.825 1.454-3.677 15.965-15.596 32.015-31.105 49.203-47.752 0 19.977.029 38.389-.063 56.8-.006 1.244-.584 2.827-1.457 3.675-16.016 15.547-32.117 31.006-49.2 47.447Z" style="fill:#fff"/></svg>