<svg xmlns="http://www.w3.org/2000/svg" width="1967px" height="1158px" style="shape-rendering:geometricPrecision;text-rendering:geometricPrecision;image-rendering:optimizeQuality;fill-rule:evenodd;clip-rule:evenodd"><path fill="#fefffe" d="M801.5 2.5q93.55-.62 187 3.5 5.805.157 11 2.5a25.5 25.5 0 0 1-4 4.5q-36.582 6.906-57.5 37.5a38.3 38.3 0 0 0-4 13 438 438 0 0 0-2 33l-.5 114.5q-.146 69.265 1.5 138.5 4.281 44.82 42.5 68.5c16.844 9.031 34.84 13.365 54 13 90.67.63 181.34.297 272-1 18.67-7.239 34.83-18.073 48.5-32.5 7.73-9.786 13.06-20.786 16-33a412 412 0 0 0 3-43 4779 4779 0 0 0 0-234q4.605-35.2-22.5-57.5a89.5 89.5 0 0 0-19-11 528 528 0 0 1-24-5q-4.005-3.5 0-7l6-2a7359 7359 0 0 1 292 1q58.695.466 117 7 73.515 10.672 138 47c63.9 41.191 92.06 100.025 84.5 176.5-5.96 61.795-35.13 108.961-87.5 141.5q-67.185 37.812-144 46.5c.13 3.095 1.79 4.928 5 5.5q63.3 9.198 123 32c40.61 17.271 73.44 44.104 98.5 80.5 15.48 25.105 24.15 52.438 26 82 8.78 96.983-30.05 166.817-116.5 209.5q-89.79 42.073-189 42a11541 11541 0 0 1-309 2 750 750 0 0 1-45-2q-1.365-3.732 3-5c23.46-2.973 42.29-13.806 56.5-32.5 5.1-12.112 7.43-24.778 7-38a5031 5031 0 0 0-1-282c-.47-11.869-3.13-23.202-8-34-28.8-36.494-63.64-43.661-104.5-21.5-21.55 15.933-32.38 37.433-32.5 64.5q-1.695 128.988-1.5 258-.15 138.508 1.5 277c.23 11.74 1.23 23.4 3 35 9.12 20.14 23.96 34.31 44.5 42.5a72.7 72.7 0 0 1 19 3c6.12 3.28 6.12 5.94 0 8a790 790 0 0 1-41 2c-61.67.67-123.33.67-185 0a567 567 0 0 1-55-3c-1-2.09-.33-3.76 2-5 20.73-3.94 37.56-14.1 50.5-30.5 4.59-7.5 8.92-15.17 13-23q1.005-227 0-454c-.17-38.677-.84-77.344-2-116q-1.995-46.24-43.5-66.5-48.972-15.678-83.5 22.5-12.693 14.57-13 34a3875 3875 0 0 0-2.5 163.5l.5 105.5a223 223 0 0 0 6 52q14.14 26.619 43.5 34.5a391 391 0 0 1 21 4.5v3a375 375 0 0 1-51 3.5q-94.5 1-189 0a695 695 0 0 1-49-2.5q-.544-3.616 3-4.5 29.172-4.157 48.5-26.5l15-21a67633 67633 0 0 0-1-700 794 794 0 0 0-3-65q-7.563-24.572-30.5-36.5a950 950 0 0 0-29-9q-4-3 0-6a120 120 0 0 1 16-2q35.74-1.303 71-2.5m787 14c41.73-2.288 81.06 6.212 118 25.5 47.62 29.36 73.79 72.194 78.5 128.5q3 41.5 0 83-8.655 75.055-64.5 125.5c-35.67 28.003-76.33 42.337-122 43q-6.975.894-12 5.5c1.75 2.2 4.09 3.367 7 3.5l66 10q129.63 25.636 148.5 156.5 13.5 84.571-18 164-18.825 44.477-58.5 71.5c-52.6 31.375-108.93 41.709-169 31a119.2 119.2 0 0 1-22-14c-6.64-5.313-10.81-12.146-12.5-20.5a190 190 0 0 1-3-19 982 982 0 0 1-3-66q-1.005-341 0-682 10.395-18.02 25.5-32.5c12.52-8.23 26.19-12.73 41-13.5" style="opacity:.989"/><path fill="#fefffe" d="M50.5 3.5q59.502.948 119 2a164767 164767 0 0 1 217 495 39674 39674 0 0 0-54.5 149 481 481 0 0 1-14 32q-1.73 3.978-5.5 6-11.93-10.713-17.5-26a90801 90801 0 0 0-241-536A3649 3649 0 0 1 3.5 8a3.94 3.94 0 0 1 1-2 1917 1917 0 0 1 46-2.5M360.5 3.5q48.995.908 98 1.5 9.539.255 19 1.5a878 878 0 0 1 29.5 62 170597 170597 0 0 0 187 426q1.875 3.865 1 8a4834 4834 0 0 1-66 180q-2.736 8.744-9 2a409 409 0 0 1-25-48l-270-602a216 216 0 0 1-10.5-29 2824 2824 0 0 0 46-2" style="opacity:.99"/></svg>