<svg xmlns="http://www.w3.org/2000/svg" width="95px" height="70px" viewBox="0 0 95 70" fill="#fff"><path d="M27.055.047c-4.532.285-8.89 1.992-12.117 4.758-2.32 1.988-4.243 4.675-5.583 7.812-.277.64-.445.844-.847 1.031-.606.274-2.008.176-3.903-.28-.351-.083-.503-.079-.39.01.027.024.262.134.523.243.707.3 1.758.84 2.145 1.094.5.328.867.683 1.008.969.191.39.191.59-.016 1.53-.43 2-.574 3.329-.574 5.294 0 1.437.027 1.719.367 4.066.062.434.105.801.094.813-.012.011-.211.043-.45.066-1.585.188-3.136.719-4.226 1.45-1.61 1.07-2.648 2.546-2.984 4.234-.11.543-.133 1.468-.059 2.047a7.1 7.1 0 0 0 1.16 3.03c.3.454.953 1.157 1.402 1.524 1.438 1.16 3.48 2.047 5.743 2.485 1.03.203 1.734.261 3.02.261 2.05.004 3.581-.18 5.109-.62 4.148-1.204 8.035-3.766 10.539-6.95.164-.207.312-.39.332-.402.015-.012.25.039.515.105 2.785.723 5.684.918 7.973.524 3.621-.621 6.613-2.68 8.922-6.145 1.578-2.36 2.62-5.105 3.074-8.07.191-1.258.242-3.172.113-4.395-.343-3.386-1.539-6.496-3.453-9.02-1.086-1.433-2.64-2.85-4.37-3.988a20.4 20.4 0 0 0-4.977-2.406c-1.887-.62-3.598-.945-5.641-1.07-1.078-.063-1.363-.063-2.45 0M30.3.98c2.023.215 3.746.696 5.492 1.543 1.55.75 2.809 1.633 3.973 2.797 1.43 1.43 2.386 2.93 3.12 4.89.532 1.419.844 2.884 1.06 4.93.081.774.07 4.176-.02 5.024-.313 3.05-.961 5.45-2.086 7.746-.563 1.14-.918 1.695-1.719 2.703-1.031 1.297-2.031 2.168-3.074 2.692-2.04 1.023-4.55 1.136-7.332.332-1.281-.375-1.578-.492-1.426-.586.07-.047.578-1.016 1.063-2.055.804-1.707.945-2.043 1.71-4.074 1.145-3.04 1.907-5.29 2.45-7.23.074-.278.18-.641.226-.82.555-1.997 1.032-4.493 1.235-6.517.199-1.906.109-4.308-.207-5.55-.414-1.64-1.645-2.914-3.188-3.313-1.816-.465-4.156.215-5.613 1.63-.863.839-1.406 1.788-1.707 2.995-.094.375-.121.563-.137 1.047-.023.656.016 1 .16 1.43.266.789.899 1.398 1.653 1.597a1.5 1.5 0 0 0 1.382-.363c.22-.203.329-.422.329-.676 0-.25-.07-.418-.223-.547-.192-.164-.352-.199-.797-.168-.352.024-.414.02-.559-.054-1.023-.5-.996-2.715.063-4.34.45-.7 1.219-1.238 2.105-1.488.391-.106 1.13-.117 1.485-.024 1.285.356 2.281 1.602 2.562 3.211.067.406.024 1.84-.074 2.375-.156.805-.562 2.332-.977 3.653-.484 1.53-1.527 4.726-1.777 5.43-1.441 4.066-3.426 8.667-5.027 11.667-.2.375-.375.68-.395.68-.015 0-.12-.04-.23-.082-2.797-1.121-6.043-2.246-8.504-2.961-1.711-.488-4.09-1.031-4.555-1.031h-.129l.024.18c.043.331.14.98.16 1.027.008.027.078.05.152.05.504 0 2.739.47 3.93.82 2.523.755 4.601 1.587 7.191 2.884.66.332 1.203.613 1.203.625 0 .144-1.539 2.39-2.218 3.234-.457.566-1.653 1.762-2.207 2.203-1.235.992-2.57 1.723-3.809 2.094l-.16.05-.219-.331c-.988-1.477-2.332-3.98-3.066-5.7-1.297-3.058-1.852-5.207-2.172-8.43-.078-.824-.09-3.027-.02-3.94.172-2.134.551-4.497.813-5.04.2-.406.629-.695 1.152-.77.621-.085 2.008.098 3.43.454.254.066.273.07.273.008 0-.043-.136-.121-.484-.266-.691-.293-1.758-.832-2.176-1.102-.426-.285-.883-.718-1.004-.953-.187-.367-.195-.703-.027-1.18.45-1.273 1.586-3.417 2.523-4.757 2.75-3.926 7.141-6.668 11.993-7.5C27.277.898 28.96.84 30.3.98M8.176 28.977c.488 1.902 1.465 4.41 2.637 6.757.87 1.739 1.703 3.215 2.613 4.618.176.265.316.496.316.511 0 .032-.762.215-1.234.293-1.035.18-2.63.23-3.649.117-1.683-.187-3.265-.707-4.347-1.421-.39-.258-1.11-.97-1.41-1.395-.848-1.203-1.27-2.527-1.317-4.152-.02-.758.024-1.137.2-1.75.35-1.235 1.34-2.582 2.3-3.153a6 6 0 0 1 1.402-.609c.684-.203 1.481-.324 2.083-.313l.28.004Zm0 0" style="stroke:none;fill-rule:nonzero;fill:#fff;fill-opacity:1"/><path d="M65.21.07c-2.62.153-5.718.946-7.94 2.04-4.47 2.19-7.672 7.238-7.372 11.617.094 1.367.356 2.421.875 3.527.395.836.848 1.48 1.555 2.191.68.684 1.27 1.11 2.129 1.54 1.723.867 3.945 1.3 5.742 1.12 1.223-.12 2.211-.402 3.25-.921 2.61-1.317 4.48-3.875 4.903-6.707.136-.946.07-2.09-.168-2.856-.418-1.328-1.442-2.207-2.555-2.2q-.998.015-1.203.966c-.102.504.02.914.379 1.265.261.258.632.45 1.265.653.668.218.953.418 1.153.82.37.734.172 2.29-.465 3.563-.996 1.976-2.824 3.468-4.922 4.015-.79.2-1.086.235-2.078.238-.961 0-1.426-.054-2.176-.246-.871-.23-2.02-1.004-2.762-1.87-1.07-1.247-1.664-2.696-1.898-4.637-.074-.641-.074-2.165 0-2.766.168-1.258.562-2.531 1.18-3.797.628-1.293 1.3-2.254 2.214-3.172.797-.797 1.512-1.308 2.489-1.781 3.062-1.477 6.39-2.012 9.797-1.578 1.851.242 3.386.71 5.18 1.582 1.8.879 3.187 1.82 4.773 3.242.52.469.691.687.789 1.004.09.289.09.433 0 .816-.184.754-.649 1.469-1.793 2.739-.262.293-.508.558-.543.585a.5.5 0 0 0-.102.13c-.082.152.114.058.52-.247 1.015-.765 2.008-1.37 2.636-1.593.192-.07.329-.086.59-.086.305 0 .368.007.594.12.422.204.617.462 1.27 1.68 1.043 1.946 1.843 4.207 2.363 6.653.062.277.098.511.09.523-.012.012-.32.02-.692.02-1.558 0-3.59.32-5.222.82-3.899 1.2-7.5 3.586-10.47 6.95-.702.796-1.843 2.323-2.413 3.23-.633 1.004-1.379 2.488-2.492 4.949-1.41 3.113-1.825 3.902-2.797 5.328a32 32 0 0 1-2.031 2.703c-.551.649-2.118 2.188-2.684 2.64-1.148.923-2.363 1.63-3.277 1.911-.328.102-.965.16-1.32.125-1.528-.16-2.723-1.145-3.126-2.566-.3-1.063-.32-2.301-.062-3.848.398-2.379 1.215-5.074 2.27-7.484.35-.805 1.269-2.641 1.644-3.282.996-1.707 2.09-3.062 2.855-3.535.477-.297.766-.387 1.266-.387.367 0 .437.012.586.094.402.211.617.473.668.805.027.215-.05.566-.238 1.023-.293.719-.32.813-.34 1.168-.028.426.02.578.242.817.445.476 1.133.457 1.582-.043.18-.2.305-.528.348-.91.035-.329-.047-1.02-.168-1.446-.403-1.398-1.29-2.234-2.79-2.617-.34-.09-.48-.098-1.206-.113-.727-.016-.864-.012-1.235.062-1.387.27-2.566.938-3.789 2.13-2.066 2.023-3.84 5.124-4.867 8.53-.488 1.633-.836 3.293-.988 4.793-.07.7-.07 1.977 0 2.582.215 1.73.855 3.168 1.882 4.2.747.754 1.516 1.16 2.614 1.394.43.09.566.098 1.297.102.925.004 1.351-.051 2.199-.266 2.066-.539 3.976-1.766 6.043-3.883.976-1.008 2.05-2.285 2.715-3.234.226-.324.207-.3.23-.277.012.007-.125.453-.3.988-.176.531-.47 1.41-.645 1.957-.61 1.86-1.488 4.367-1.895 5.422-.054.136-.191.496-.308.8-1.34 3.54-2.946 6.942-4.45 9.461-1.984 3.317-4.148 5.672-6.265 6.836-1.153.63-2.16.926-3.324.97-1.067.042-2.067-.11-3.164-.481-3.985-1.34-6.145-5.04-5.532-9.477.348-2.55 1.782-4.726 3.907-5.933a7.6 7.6 0 0 1 3.199-.997c.402-.039.57-.035 1.008.016.605.074 1.132.203 1.476.371.328.153.668.473.797.75.102.203.11.254.133.977.015.418.05.843.074.953.117.48.402.883.754 1.055.27.132.867.144 1.14.027.247-.11.505-.387.618-.676.074-.187.086-.289.086-.73.004-.47-.008-.547-.106-.856-.46-1.398-2.129-2.441-4.355-2.722-.457-.06-1.621-.047-2.067.019-2.57.363-4.84 1.7-6.261 3.684a9.55 9.55 0 0 0-1.586 3.668c-.426 2.12-.262 4.254.484 6.14 1.57 3.98 5.469 6.778 9.836 7.043 2.047.125 3.988-.363 6.375-1.594 2.176-1.125 7.34-4.46 10.04-6.488 1.077-.808 3.745-2.95 4.698-3.773 2.051-1.77 4.782-4.38 6.473-6.188a75 75 0 0 0 1.55-1.687c.235-.27.434-.43.657-.535.262-.122.824-.106 1.254.035.71.23 1.492.699 2.797 1.68.23.175.441.316.46.316.098 0 .04-.094-.187-.336-.668-.707-1.386-1.598-1.738-2.156-.422-.672-.594-1.348-.5-1.907.062-.336.133-.468.508-.937 2.25-2.797 4.644-6.242 6.418-9.242.941-1.59 2.043-3.664 1.968-3.707-.015-.016-.152 0-.293.03-.14.028-.43.071-.64.099-.676.09-.57-.004-.98.82-.993 1.98-2.692 4.68-4.477 7.11-1.211 1.648-3.156 4.07-3.438 4.273-.472.347-1.168.402-1.906.148-.57-.191-1.422-.707-2.539-1.531-.828-.617-.867-.59-.2.148.872.961 1.493 1.785 1.755 2.344.355.762.386 1.434.082 1.988-.063.121-.649.73-1.715 1.793-2.274 2.27-3.32 3.227-5.727 5.243a92 92 0 0 1-5.695 4.421c-1.187.856-3.836 2.633-3.848 2.59-.007-.02.028-.105.078-.199.204-.348 1.02-2.223 1.547-3.55.743-1.872 1.22-3.286 2.258-6.72.684-2.253.996-3.238 1.692-5.328.855-2.574 2.152-6.308 2.746-7.918.078-.195.316-.847.535-1.445s.515-1.394.664-1.77c2.664-6.863 5.246-10.671 9.101-13.437 2.696-1.93 5.176-2.793 8.606-2.992.691-.04 2.336-.027 2.379.02.008.007.058.355.11.769.402 3.387.195 7.121-.555 10.062-.207.809-.266.989-.336 1.008-.223.063-1.543.305-2.004.363-.153.024-.41.06-.57.079-1.133.148-2.274.183-3.051.097-1.22-.14-1.914-.312-2.582-.64-.426-.207-.512-.266-.801-.559q-.328-.327-.438-.555c-.097-.207-.11-.261-.105-.59 0-.269.023-.456.105-.742.153-.55.176-1.164.059-1.5-.156-.48-.426-.734-.922-.886-.723-.22-1.375.23-1.598 1.093-.082.313-.086 1.098-.004 1.407.243.941 1.079 1.898 2.258 2.597.977.582 2.356 1.02 3.82 1.215.626.086 3.2.098 3.891.02 2.79-.313 5.07-.918 7.192-1.899 2.566-1.187 4.347-2.82 5.015-4.597.473-1.262.406-2.602-.191-3.778-.906-1.8-2.942-3.187-5.567-3.816-.605-.145-.613-.145-.578-.012.016.059.063.383.11.727.047.34.097.629.109.64s.23.086.488.164c1.723.52 3.27 1.657 3.848 2.84.23.469.332.89.328 1.387 0 1.598-.875 3.125-2.492 4.344-1.027.773-2.106 1.312-3.738 1.867-.723.246-.786.258-.743.152.07-.16.38-1.23.532-1.832a25.8 25.8 0 0 0 .804-6.93c-.035-2.085-.23-3.699-.695-5.632-.602-2.532-1.824-5.266-3.477-7.79-.539-.824-.597-1.03-.445-1.574.227-.832.84-1.707 2.25-3.214.117-.13.215-.243.215-.258 0-.082-.102-.043-.332.133-.402.316-1.148.843-1.559 1.101-.738.461-1.246.68-1.796.777-.31.051-.364.051-.579-.003-.289-.075-.39-.141-.96-.63C78.003 3.11 75.354 1.7 72.35.829c-2.218-.64-4.644-.898-7.14-.758M16 43.047a8 8 0 0 1-.48.07c-.067 0-.11.024-.11.055 0 .125 1.774 2.379 3.04 3.867.843.992 2.53 2.816 2.937 3.188.086.074.39.355.672.62 1.562 1.477 2.937 2.391 4.406 2.942a7.1 7.1 0 0 0 3.707.352c1.293-.227 2.402-.836 3.398-1.871a7.8 7.8 0 0 0 1.461-2.09c.344-.703.422-1.067.387-1.735-.07-1.308-.773-2.11-1.664-1.902-.613.145-.957.523-1.059 1.152-.054.356.028.871.23 1.457.15.414.165.489.165.836.004.367-.004.39-.137.68-.305.637-1.031 1.164-2.125 1.543-1.305.45-2.793.379-4.273-.207-2.09-.828-3.68-1.934-5.7-3.98-1.18-1.2-2.363-2.56-3.636-4.176-.684-.875-.692-.883-.77-.88-.039.005-.238.04-.449.079m0 0" style="stroke:none;fill-rule:nonzero;fill:#fff;fill-opacity:1"/></svg>