<svg xmlns="http://www.w3.org/2000/svg" viewBox="0 0 60 60"><path d="M10.09 18.969c-.25.011-.574.082-.805.176a2.4 2.4 0 0 0-.75.472 2.4 2.4 0 0 0-.414.48 2.5 2.5 0 0 0-.379.946c-.035.176-.035.2-.035.473 0 .289.004.32.043.511.09.395.25.72.52 1.051.07.09 1.875 1.887 5.804 5.785 1.446 1.43 2.66 2.637 2.7 2.684a3.08 3.08 0 0 1 .769 1.816c.004.086.008.66.008 1.434 0 .71.004 1.394.008 1.516.007.324.027.507.078.699.082.336.21.605.425.886.106.145.18.22.711.75.25.247.782.778 1.184 1.18.406.402.77.762.813.8.246.227.554.403.886.517.086.027.278.07.399.093l.093.016h1.817l.101-.016c.36-.062.684-.187.985-.383a3 3 0 0 0 .46-.382c.243-.23.4-.348.653-.477.234-.121.531-.219.754-.246.215-.031.246-.031 1.57-.031 1.164 0 1.313.004 1.418.011a2.55 2.55 0 0 1 1.563.743c.281.265.328.304.547.437.261.153.484.242.78.305.224.047.122.043 1.864.043 1.594 0 1.883.004 2.106.027.55.05.949.137 1.414.293a5.7 5.7 0 0 1 1.578.848c.254.199.324.261.683.613.266.266.32.313.465.426.258.207.524.351.84.469.234.082.586.152.848.171.289.016.726-.035 1.043-.128a3.2 3.2 0 0 0 1.144-.625c.09-.079.274-.262.336-.336a2.988 2.988 0 0 0 .684-1.586c.008-.086.012-.41.015-4.23.004-2.278.008-4.157.012-4.177 0-.02.008-.066.012-.105.02-.172.074-.438.129-.613a3.3 3.3 0 0 1 .574-1.035c.062-.07 1.34-1.348 4.422-4.415.851-.843 1.586-1.578 1.637-1.632.234-.246.37-.496.441-.805.039-.148.047-.363.031-.566a1.7 1.7 0 0 0-.445-.997c-.266-.289-.7-.503-1.106-.543a1.724 1.724 0 0 0-1.25.371c-.046.036-2.628 2.598-7.316 7.262a3514 3514 0 0 1-7.309 7.258c-.21.18-.511.363-.757.453a3.3 3.3 0 0 1-.594.149c-.031.004-.266.011-.516.015-.84.012-.824.012-1.074.059a2.56 2.56 0 0 0-1.082.523c-.035.028-.195.18-.36.34-.3.297-.35.34-.456.414-.274.18-.664.262-.961.2a1.318 1.318 0 0 1-1.02-.887c-.066-.196-.066-.196-.062-1.324.004-.856.004-.977.015-1.047a2.6 2.6 0 0 1 .125-.516c.04-.105.055-.148.121-.273.094-.188.164-.301.293-.461.04-.047.895-.899 2.22-2.223a408 408 0 0 0 2.222-2.219 3.23 3.23 0 0 0 .793-1.738c.027-.207.03-.535.011-.766a4 4 0 0 0-.082-.46 3.25 3.25 0 0 0-.675-1.32c-.032-.04-.653-.661-1.38-1.384-.726-.726-1.359-1.36-1.402-1.406a3.2 3.2 0 0 1-.664-1.117 3 3 0 0 1-.148-.711l-.008-.434c-.012-.57-.027-.707-.121-.965a1.9 1.9 0 0 0-.441-.664 1.75 1.75 0 0 0-.797-.43 1.5 1.5 0 0 0-.817.016 1.7 1.7 0 0 0-.668.34c-.27.227-.453.496-.547.82a1.4 1.4 0 0 0-.066.415c-.012.203-.012 12.21 0 12.433.008.168.012.242.031.352.063.347.25.75.473 1.031.035.043.121.137.191.21.145.157.211.24.293.36.215.309.356.657.407.992.03.184.03.305.03 1.274-.003 1.004-.003.98-.046 1.144a1.3 1.3 0 0 1-.559.766c-.125.082-.3.152-.488.191a.9.9 0 0 1-.223.02 1 1 0 0 1-.214-.016c-.29-.066-.465-.148-.657-.316-.062-.05-6.968-6.918-7.172-7.129a3 3 0 0 1-.507-.695 3.1 3.1 0 0 1-.348-1.184c-.008-.07-.012-1.113-.016-3.625-.004-3.058-.008-3.543-.015-3.62-.067-.544-.172-.938-.356-1.337a3.8 3.8 0 0 0-.406-.71 4.3 4.3 0 0 0-1.117-1.083 4.5 4.5 0 0 0-1.188-.535 4.5 4.5 0 0 0-.922-.156c-.144-.008-3.675-.008-3.851 0m0 0" style="stroke:none;fill-rule:nonzero;fill:#ffffff;fill-opacity:1"/><path d="M29.133.008c-.711.02-1.149.039-1.485.07-.054.008-.195.016-.316.024-.25.015-.473.035-.637.058-.058.004-.312.035-.554.063-.547.062-.676.082-1.149.164l-.41.07c-.238.043-.582.11-.719.137l-.398.094c-.156.039-.356.082-.442.101-.25.059-.363.086-.683.176-.164.047-.336.094-.38.105l-.769.223c-.253.078-1.207.39-1.324.437-.082.028-.246.09-.363.141-.121.047-.387.152-.59.23-.344.137-1.043.426-1.46.614-.099.043-.306.137-.454.203-.238.105-.645.3-.672.32-.004.004-.14.075-.297.157-.375.195-.476.25-.797.433-.148.082-.34.188-.425.238-.145.079-.348.204-.688.41-.457.282-1.098.708-1.672 1.122-.457.328-.562.406-.851.636l-.317.246q-.26.206-.437.36c-.059.055-.14.125-.18.16-.215.18-.309.258-.375.32-.113.106-.484.442-.617.559-.168.144-.961.922-1.25 1.223-.242.25-.422.445-.625.671-.055.063-.149.165-.211.23-.14.15-.34.372-.457.517-.215.257-.555.68-.742.925l-.246.32c-.215.274-.364.473-.555.735-.367.516-.48.68-.688 1.004l-.148.226c-.113.176-.328.52-.547.875l-.113.192c-.063.094-.152.25-.313.531-.086.152-.172.309-.195.348-.18.32-.602 1.14-.77 1.515-.078.164-.183.391-.234.5-.164.352-.41.934-.601 1.418-.32.82-.551 1.489-.875 2.563a30.131 30.131 0 0 0-.902 4.32c-.009.028-.02.137-.052.434-.007.043-.02.172-.03.285a10 10 0 0 1-.032.336c-.02.176-.04.45-.05.68a6 6 0 0 1-.02.332c-.028.398-.02 1.601.015 2.847.016.535.02.621.059 1.153l.035.437c.008.149.043.492.055.598.008.058.015.14.023.183.078.7.125 1.024.242 1.66.024.145.055.31.063.368.027.152.07.37.11.535.26 1.191.327 1.46.546 2.23.098.344.125.434.266.86.066.187.152.449.195.582.043.136.105.312.133.39.07.176.508 1.258.61 1.496.245.582.277.66.413.954.059.125.137.293.172.375.172.375.227.484.426.859.453.855.691 1.27 1.195 2.07.196.313.762 1.153.942 1.395.062.09.203.277.312.426.11.148.215.293.238.324.098.125.489.62.622.781.156.2.726.852.937 1.078l.21.227a34 34 0 0 0 1.446 1.46q.441.405.637.575l.21.183c.134.122.59.508.735.625.063.051.164.133.219.18.203.176.406.336 1.008.781.203.153 1.012.711 1.258.868.078.05.265.175.418.273.382.246 1.187.742 1.402.86.164.09.414.222.98.519.122.066.317.168.43.227.113.062.277.148.367.19a44 44 0 0 0 2.114.93c1.086.399 2.539.88 3.203 1.06.3.081.89.226 1.078.265.523.113.93.195 1.344.273.617.117.707.133.98.164.055.008.184.024.277.04.375.05.504.066 1.02.113.52.054 1.148.093 1.906.125.352.011 1.367.011 1.82 0a49 49 0 0 0 2.305-.118c.742-.062 2.024-.257 3.043-.464a28.043 28.043 0 0 0 2.504-.633c.215-.063.906-.285 1.172-.375.102-.035.773-.285 1.02-.38.343-.128.984-.394 1.414-.589.046-.023.21-.094.363-.16q.432-.19.699-.332c.055-.027.234-.121.395-.203.25-.13.355-.184.53-.282.02-.011.095-.05.165-.09.262-.136.535-.292.816-.456a20.41 20.41 0 0 0 .98-.602c.18-.117.403-.266.497-.324.094-.063.23-.156.308-.211l.286-.195c.437-.305.504-.352.757-.543.121-.094.309-.235.418-.317.11-.082.25-.191.317-.242.808-.652.703-.566 1.11-.922.378-.336.433-.379.663-.597.11-.098.297-.274.418-.383.313-.29.828-.809 1.188-1.207l.238-.258c.414-.434 1.422-1.645 1.855-2.223.72-.965 1.461-2.094 1.934-2.933.074-.133.18-.325.238-.422.055-.098.184-.336.285-.532.098-.199.23-.453.293-.574.172-.336.457-.945.618-1.32.351-.84.332-.79.507-1.266.164-.445.508-1.406.594-1.672.086-.257.324-1.062.43-1.457.055-.207.25-.98.273-1.093.043-.207.059-.274.11-.547.136-.692.144-.739.215-1.219l.03-.187c.06-.395.09-.602.114-.836l.035-.329a26 26 0 0 0 .16-2.292c.016-.547.02-1.051.004-1.313-.004-.098-.011-.34-.023-.54-.031-.835-.028-.784-.086-1.519l-.035-.367c-.032-.32-.067-.648-.074-.672 0-.015-.02-.156-.04-.312-.199-1.527-.406-2.543-.886-4.34a26 26 0 0 0-.64-2.008 20 20 0 0 0-.524-1.367l-.192-.457c-.144-.348-.21-.496-.515-1.137a31 31 0 0 0-.63-1.246l-.19-.336a5 5 0 0 0-.153-.265 8 8 0 0 1-.148-.258 14 14 0 0 0-.434-.715c-.074-.117-.2-.309-.273-.43-.137-.21-.512-.773-.704-1.05-.05-.075-.175-.243-.27-.372-.097-.129-.26-.34-.358-.472a17 17 0 0 0-.79-.989c-.039-.043-.14-.164-.222-.261-.422-.5-.84-.946-1.48-1.578-.692-.692-.989-.961-1.833-1.672-.36-.305-.797-.66-1.347-1.086a36 36 0 0 0-1.618-1.137c-.535-.348-.804-.52-.949-.601-.066-.04-.261-.153-.433-.254a18 18 0 0 0-.98-.543 30 30 0 0 0-1-.512c-.153-.066-.7-.316-.993-.45a54 54 0 0 0-1.55-.616c-.997-.368-1.212-.442-1.665-.57-.113-.036-.266-.079-.332-.098a22 22 0 0 0-.848-.235c-.87-.23-1.03-.27-1.55-.379-.825-.172-.91-.187-1.196-.23a15 15 0 0 1-.468-.07c-.457-.07-.594-.086-1.461-.192a10 10 0 0 0-.903-.078c-.054-.004-.183-.012-.28-.02a33 33 0 0 0-2.782-.058M30.89 3.09c.109.008.27.015.355.02.086.007.3.019.477.027.5.031.789.054 1.058.09l.27.03c.422.052.578.071 1.043.138.726.109.761.117 1.465.265.527.113.761.168 1.464.356.41.105 1.192.336 1.489.433.207.07.82.29 1.097.395.426.156 1.29.508 1.512.61.05.026.242.112.426.194.418.192.652.309 1.324.66.238.126.594.329 1.168.669.277.164 1.094.699 1.402.918.082.054.278.195.438.308s.355.258.441.32a34 34 0 0 1 1.27 1.024c.086.074.215.183.281.242s.164.145.219.188c.32.277.644.582 1.187 1.125.395.394.715.734.918.96.032.04.102.118.153.176l.148.172c.031.035.125.149.215.25.215.254.414.5.621.774.094.125.219.293.281.37.297.391.516.708.875 1.255.508.777.848 1.347 1.282 2.144.183.34.457.902.77 1.578.12.262.343.797.577 1.39.488 1.24.938 2.763 1.25 4.22.145.683.246 1.265.348 2.011.015.11.027.223.031.25l.035.274c.164 1.367.227 3.316.145 4.554-.008.118-.02.278-.028.36-.02.305-.035.523-.054.683-.008.086-.028.247-.035.348a26 26 0 0 1-.395 2.477c-.105.511-.289 1.234-.484 1.886-.153.512-.192.63-.489 1.496a35 35 0 0 1-.832 2.114 29 29 0 0 1-.89 1.773c-.41.742-.41.746-.828 1.414-.153.242-.532.813-.715 1.07-.184.254-.461.637-.594.805-.129.168-.39.492-.484.606a6 6 0 0 1-.184.226l-.172.211-.215.25c-.09.106-.234.274-.324.371-.09.098-.238.258-.332.364a26 26 0 0 1-2.75 2.57c-.555.441-.453.363-1.027.797a35 35 0 0 1-1.946 1.32c-.683.418-1.28.754-2.03 1.14l-.442.223c-.29.141-1.278.57-1.887.817-.215.09-1.008.379-1.203.441-.066.02-.258.086-.43.14-.73.24-1.726.505-2.492.669-.848.18-1.48.285-2.328.394-.523.067-1.059.106-1.773.133-.2.008-.442.016-.54.024-.789.039-1.937.03-2.535-.012-.074-.004-.258-.016-.41-.02-.27-.015-.363-.023-.777-.062-.45-.043-.836-.086-1.266-.149a32 32 0 0 1-2.144-.414c-.211-.047-.825-.203-.953-.238a49 49 0 0 1-2.735-.914c-.3-.113-1.558-.664-1.937-.852-.153-.078-.243-.125-.934-.488-.773-.414-.777-.414-1.473-.844-.328-.203-1-.644-1.343-.879-.09-.062-.215-.144-.274-.187-.144-.102-.82-.602-.969-.723a34 34 0 0 1-1.75-1.5 31 31 0 0 1-1.234-1.222c-.094-.098-.215-.23-.273-.29q-.164-.17-.485-.538a19 19 0 0 1-.945-1.153 47 47 0 0 1-.758-1.027 24 24 0 0 1-.789-1.195 28 28 0 0 1-1.07-1.891c-.07-.137-.235-.484-.403-.848-.05-.11-.187-.414-.277-.633-.027-.066-.086-.195-.125-.293a50 50 0 0 1-.418-1.023 27 27 0 0 1-.277-.762c-.262-.777-.293-.883-.375-1.187-.024-.09-.074-.266-.11-.395a20 20 0 0 1-.222-.883c-.016-.058-.043-.19-.067-.292a14 14 0 0 1-.218-1.075c-.02-.113-.055-.328-.082-.472-.043-.243-.106-.711-.145-1.055-.008-.074-.027-.215-.04-.316a16 16 0 0 1-.062-.7c-.074-.937-.093-1.527-.093-2.828 0-.793.004-.89.03-1.297.005-.07.017-.195.02-.28.008-.153.043-.505.051-.563a23.087 23.087 0 0 1 .297-2.07c.215-1.16.547-2.43.93-3.555.16-.473.183-.536.324-.915.172-.457.238-.62.34-.859.047-.098.117-.265.164-.371.043-.105.121-.273.168-.375s.133-.285.191-.414c.16-.36.489-1.004.676-1.328.04-.074.098-.172.121-.219.332-.617 1.078-1.805 1.578-2.508.282-.398.336-.472.598-.808.09-.117.2-.258.246-.32.184-.239.473-.598.707-.88a86.772 86.772 0 0 1 .645-.715 24 24 0 0 1 1.687-1.69c.125-.114.27-.247.32-.29.153-.137.364-.32.47-.41.058-.05.163-.137.234-.2.07-.062.23-.19.359-.292l.34-.27c.117-.093.21-.164.363-.277.14-.102.43-.305.48-.34.024-.016.075-.055.114-.082.043-.031.129-.094.195-.137.067-.047.149-.101.176-.12a23 23 0 0 1 1.555-.97c.117-.066.289-.16.39-.218a24 24 0 0 1 1.336-.696 45.524 45.524 0 0 1 2.71-1.133 78 78 0 0 1 1.247-.413 53 53 0 0 1 1.434-.395q.99-.24 1.57-.34c.106-.02.297-.05.426-.074.32-.055.504-.082.742-.11.113-.011.328-.038.477-.054.734-.086 1.804-.16 2.496-.176.277-.004 1.425.004 1.629.012M48.297 64.395c-.117.011-.168.03-.219.074-.101.086-.125.226-.058.355.046.094.105.14.222.168.078.016.207.02 1.844.016 1.832 0 2.047.004 2.219.047.3.074.562.257.742.515.18.27.258.66.187.95-.047.195-.109.34-.222.5-.032.046-.856.875-2.262 2.277-2.11 2.098-2.215 2.207-2.297 2.328-.2.3-.308.574-.394.984-.063.313-.063.215-.067 2.942-.004 1.652 0 2.586.008 2.699.031.426.137.7.41 1.047.27.348.727.61 1.18.68.14.023 4.558.023 4.715 0 .261-.04.574-.153.797-.286.199-.12.32-.234 1.449-1.359a68 68 0 0 0 1.152-1.16c.082-.117.063-.246-.047-.36a.29.29 0 0 0-.343-.058c-.063.027-.176.14-1.184 1.137a53 53 0 0 1-1.207 1.18c-.05.038-.164.105-.25.144-.2.101-.367.144-.613.16-.118.008-.895.012-2.211.008-1.832-.004-2.04-.008-2.125-.024a1.37 1.37 0 0 1-.758-.41 1.36 1.36 0 0 1-.36-.8 256 256 0 0 1 0-4.895c.016-.195.07-.465.133-.649.09-.277.258-.578.438-.796.129-.157.992-1.008 1.133-1.118.39-.308.757-.464 1.28-.55.09-.016.274-.02.876-.028.832-.008.832-.008 1.097-.082.41-.117.754-.3 1.051-.566.047-.04.278-.258.512-.485l.633-.613c.113-.11.34-.332.504-.488.16-.16.402-.395.539-.524.687-.668.761-.757.86-1.062.062-.18.077-.3.077-.492a1.42 1.42 0 0 0-1.191-1.39c-.102-.02-.39-.02-4.137-.024-2.21 0-4.062.004-4.113.008m0 0" style="stroke:none;fill-rule:nonzero;fill:#ffffff;fill-opacity:1"/><path d="M48.215 61.547c-.113.035-.203.117-.227.21-.011.04-.02.333-.023 1.184-.008 1.223-.008 1.176-.074 1.266a.45.45 0 0 1-.192.137c-.035.011-.18.023-.36.035-.48.027-.632.055-.847.164-.183.09-.262.148-.558.441-.602.586-6.157 6.11-6.25 6.22-.52.577-.79 1.21-.836 1.964a274 274 0 0 0 0 5.07c.02.274.066.453.18.672.25.5.632.828 1.163.996.286.09.09.086 2.61.086 2.39 0 2.328 0 2.543-.055.324-.085.57-.203.82-.398.125-.094 1.86-1.816 1.965-1.95.254-.312.379-.612.441-1.05.02-.129.028-14.273.012-14.582-.016-.219-.027-.273-.098-.332-.086-.074-.191-.102-.27-.078m-1.102 6.95c.164.03.348.105.48.198a.94.94 0 0 1 .36.59c.016.113.016 6.828 0 7.102-.016.222-.05.363-.14.547-.079.152-.18.296-.293.414-.04.043-.434.433-.875.87-.848.837-.891.876-1.11.993-.226.117-.36.148-.715.164-.164.008-.972.012-2.207.008-2.113-.004-2.004 0-2.226-.067a1.37 1.37 0 0 1-.633-.437 1.18 1.18 0 0 1-.285-.617c-.024-.114-.024-.227-.024-2.555 0-2.297 0-2.441.02-2.586.062-.418.18-.746.375-1.062a2.2 2.2 0 0 1 .312-.395c.25-.266.946-.941 1.047-1.016a2.6 2.6 0 0 1 .965-.453c.285-.07.344-.07 1.254-.082.918-.011.902-.008 1.184-.09.261-.074.43-.144.632-.265.223-.133.332-.227.743-.63.398-.39.492-.472.617-.534.097-.047.285-.102.418-.114a1 1 0 0 1 .101.016M10.375 64.395c-.121.015-.32.07-.43.117-.152.066-.293.168-.476.343-.352.336-6.395 6.352-6.473 6.442a3.8 3.8 0 0 0-.437.676c-.11.215-.211.52-.262.78-.055.29-.05.18-.05 2.966 0 2.96-.009 2.71.085 2.996.129.387.39.726.727.953.171.113.285.164.472.227.309.105.106.097 2.54.101 2.163.004 2.413 0 2.593-.039a2.2 2.2 0 0 0 .86-.387c.156-.117.289-.246.734-.699.547-.555.633-.637.715-.687.086-.047.148-.051.234-.012.117.062.137.094.2.3.073.243.116.364.179.489.168.348.496.672.851.844.2.09.446.16.653.18.176.019 4.32.019 4.504 0a2.13 2.13 0 0 0 1.168-.485c.058-.047.508-.492 1-.98.906-.903.945-.946 1.09-1.172.082-.133.18-.375.222-.563.051-.2.051-.305.047-3.488l-.004-3.059-.023-.05c-.067-.118-.219-.172-.364-.13a.35.35 0 0 0-.187.18c-.012.035-.016.625-.023 3.133l-.008 3.09-.028.125a1.5 1.5 0 0 1-.261.574c-.102.14-1.766 1.797-1.907 1.903-.199.148-.437.25-.683.296-.106.02-.246.02-2.238.02-2.282 0-2.223.004-2.438-.059-.398-.113-.727-.43-.887-.847-.047-.125-.062-.223-.078-.47-.015-.32-.008-4.62.012-4.808.05-.496.21-.918.496-1.293.102-.14.46-.511.836-.875.406-.39.52-.48.824-.632a2.6 2.6 0 0 1 .652-.223c.235-.047.301-.047 1.06-.059.835-.011.827-.008 1.108-.09.364-.105.63-.242.922-.472.13-.102.239-.203.711-.668.364-.356.836-.817.86-.836.007-.004.187-.176.398-.379.594-.574.938-.918 1-1.008.121-.156.215-.394.242-.601.02-.149.008-.446-.023-.59a1.4 1.4 0 0 0-.371-.656 1.36 1.36 0 0 0-.582-.352 1.4 1.4 0 0 0-.742-.043c-.22.047-.372.11-.551.234-.07.051-.871.836-3.387 3.336-3.539 3.516-3.379 3.352-3.57 3.664a3.3 3.3 0 0 0-.469 1.23l-.027.169-.012 1.527c-.012 1.59-.02 1.863-.059 2.024a1.6 1.6 0 0 1-.261.578c-.047.058-.418.437-.942.96-.937.938-.96.958-1.219 1.087a1.5 1.5 0 0 1-.578.148c-.238.02-4.222.008-4.328-.012a1.36 1.36 0 0 1-.91-.578 1.1 1.1 0 0 1-.18-.36c-.066-.23-.066-.144-.066-2.734 0-2.625-.004-2.445.074-2.82a2.5 2.5 0 0 1 .535-1.086c.118-.14.993-1.008 1.118-1.105q.439-.351.996-.485c.293-.07.332-.07 1.136-.082.813-.008.817-.008 1.078-.082.313-.09.614-.23.84-.398.188-.137.375-.317 1.25-1.188 1.094-1.09 1.387-1.375 1.535-1.496.243-.199.391-.375.473-.558a1.5 1.5 0 0 0 .094-.793c-.04-.29-.13-.48-.324-.715a1.47 1.47 0 0 0-1.266-.488m0 0" style="stroke:none;fill-rule:nonzero;fill:#ffffff;fill-opacity:1"/><path d="M37.855 64.406c-.359.04-.562.121-.82.336-.187.156-6.527 6.473-6.644 6.613a3.24 3.24 0 0 0-.657 1.399c-.047.262-.047.223-.047 2.941 0 2.461 0 2.618.02 2.75.027.176.078.328.16.485.242.472.637.816 1.13.976.316.102.112.094 2.675.094h2.266l.152-.031c.406-.09.683-.227.992-.489.203-.175 1.844-1.816 1.922-1.925a2 2 0 0 0 .398-.957c.02-.141.032-10.13.012-10.66-.012-.403-.027-.5-.105-.672a1.37 1.37 0 0 0-.688-.72 1.43 1.43 0 0 0-.766-.14m.114 4.102c.254.055.414.14.578.3a.74.74 0 0 1 .223.399c.058.242.058.074.062 3.39.004 3.165 0 3.653-.039 3.872-.063.344-.156.554-.36.8a80 80 0 0 1-1.64 1.641c-.27.254-.535.395-.863.457-.102.02-.27.02-2.258.02-2.387 0-2.23.004-2.48-.078a1.37 1.37 0 0 1-.794-.727 1.1 1.1 0 0 1-.101-.402c-.016-.207-.016-4.649 0-4.922.012-.215.031-.336.078-.508.086-.309.27-.664.48-.93.082-.101.836-.86 1.036-1.039a2.67 2.67 0 0 1 1.402-.636c.062-.008.418-.016.945-.024.79-.008.856-.012.965-.031.281-.063.496-.133.711-.238.305-.153.426-.25.93-.747.457-.445.52-.496.781-.574a.53.53 0 0 1 .344-.023m0 0" style="stroke:none;fill-rule:nonzero;fill:#ffffff;fill-opacity:1"/><path d="M28.707 64.395c-.36.039-.562.125-.82.34-.184.156-6.528 6.472-6.645 6.613-.336.422-.566.91-.652 1.398-.05.262-.05.223-.05 2.938 0 2.464 0 2.62.023 2.754.023.175.074.328.156.484.242.473.64.812 1.129.973.316.105.113.097 2.675.097h2.27l.148-.031c.41-.09.688-.227.993-.492.203-.176 1.843-1.813 1.921-1.922.223-.297.356-.613.403-.957.02-.14.027-10.13.012-10.66-.016-.403-.032-.5-.106-.672a1.4 1.4 0 0 0-.691-.719 1.47 1.47 0 0 0-.766-.144m.113 4.105c.254.055.418.14.578.3a.74.74 0 0 1 .223.395c.063.243.059.078.063 3.395.003 3.164 0 3.652-.04 3.87-.062.345-.156.556-.359.802a80 80 0 0 1-1.64 1.64c-.27.254-.536.395-.864.457-.101.02-.27.02-2.258.02-2.386 0-2.23.004-2.48-.078a1.4 1.4 0 0 1-.793-.727 1.2 1.2 0 0 1-.102-.402c-.015-.207-.015-4.652 0-4.922.016-.215.032-.336.079-.508.085-.308.27-.664.48-.93.082-.101.836-.859 1.035-1.039a2.67 2.67 0 0 1 1.403-.636c.062-.008.418-.016.949-.024.789-.008.855-.011.96-.031.282-.062.5-.133.712-.238.304-.153.425-.25.93-.746.456-.446.523-.496.78-.575a.53.53 0 0 1 .344-.023m0 0" style="stroke:none;fill-rule:nonzero;fill:#ffffff;fill-opacity:1"/></svg>