<svg xmlns="http://www.w3.org/2000/svg" viewBox="-39 -38 531 531"><path fill="#fff" d="M20.3 31c40.2 60.7 113.9 171.5 114.2 171.9.5.5 74.7-111.1 75.3-113.2.3-1.1-9.8-17.2-27.9-44.6l-28.4-43H77.3L1 2l19.3 29zM263.2 57.7C242.9 88.4 178 186.2 119 275 60 363.8 9.3 440.2 6.4 444.7L1 453h50.7l62.2-93.7 62.2-93.6 12.5 18.6c6.8 10.3 12.4 18.9 12.4 19.2 0 .4-21.9 33.5-48.6 73.8-26.8 40.3-48.9 73.8-49.1 74.4-.4 1 4.9 1.3 24.6 1.3h25.2l37.3-56.3C255.7 298.2 364.8 134 420.9 49.5c16.8-25.3 30.7-46.3 30.9-46.8.2-.4-11.1-.7-25.2-.7-24 0-25.6.1-26.5 1.9C397.3 9 277.9 188 277.3 188c-.5 0-6.3-8.3-13-18.4l-12.2-18.4 28.1-42.4c15.5-23.2 37.4-56.3 48.7-73.3 11.3-17.1 21-31.6 21.4-32.3.6-.9-4.5-1.2-24.6-1.2h-25.4l-37.1 55.7zM280.5 308.6c-20.6 31.1-37.5 56.8-37.5 57.1 0 .4 12.9 20.1 28.7 44l28.8 43.3h75.7c41.7 0 75.8-.2 75.8-.4 0-.8-132.9-200.6-133.4-200.6-.3 0-17.4 25.5-38.1 56.6z"/></svg>