<svg xmlns="http://www.w3.org/2000/svg" width="1141" height="527" viewBox="0 0 1141 527"><path fill="#fff" d="M789.624 0h60.904l.44.112c4.051.986 17.668 1.07 22.701 1.36a746 746 0 0 1 39.135 3.41c65.211 7.574 177.806 30.974 215.846 91.563a79.9 79.9 0 0 1 10.45 24.974c.59 2.483 1.25 7.105 1.9 9.166v15.291c-1.09 4.049-1.69 7.95-2.81 11.971-3.71 13.283-11.24 24.984-23.47 31.833-6.74 3.772-15.29 7.209-22.57 10.278a1309 1309 0 0 1-40.05 16.188l-126.252 47.576a3457 3457 0 0 0-32.888 12.745c-3.764 1.51-20.731 8.77-23.131 9.042-1.678-1.002-3.875-4.589-2.337-5.787 7.662-5.97 17.686-9.556 26.081-14.612 36.024-20.558 89.596-52.12 109.477-89.84a76.17 76.17 0 0 0 8.34-45.992c-6.16-46.13-55.662-69.533-95.734-80.998-8.765-2.507-17.286-5.353-26.516-4.17-9.546 1.225-16.678 6.774-21.458 14.986-5.794 9.956-11.38 20.056-17.017 30.109l-38.126 67.838L658.904 433.21c-4.603 8.144-32.248 58.729-34.92 60.494-13.385 8.841-67.196 18.845-83.127 21.162a1230 1230 0 0 1-104.128 10.201c-4.773.218-29.966.577-31.854 1.933h-76.659c-2.28-1.395-18.507-1.374-23.138-1.668a832 832 0 0 1-67.165-6.536 589.7 589.7 0 0 1-96.705-20.798c-50.426-15.893-106.08-42.9-129.718-93.15a135.5 135.5 0 0 1-8.748-25.41c-.875-3.719-1.31-13.36-2.742-15.726v-26.623c1.193-1.888 2.57-14.585 4.038-18.896 4.015-11.782 10.09-24.416 16.853-34.817 23.72-36.47 64.795-70.426 101.157-94.09C265.476 95.944 452.169 40.059 619.872 14.673A1390 1390 0 0 1 737.767 2.767c9.684-.65 19.335-1.133 29.019-1.572 5.371-.244 17.484.056 22.402-1.089zM512.425 473.271c5.11-1.303 6.369-5.176 9.142-9.842a12525 12525 0 0 1 85.769-144.619 2258 2258 0 0 0 30.953-52.722c11.452-20.332 26.803-42.31.094-59.32-19.27-12.273-60.209 1.981-80.78 7.654-43.335 11.951-86.411 24.7-129.583 36.981l-36.25 10.289c-4.977 1.411-30.93 11.757-25.076-2.367 4.208-4.53 33.097-16.868 40.462-20.369l46.981-22.534L797.811 53.806c4.183-1.97 29.73-11.46 21.939-17.349-6.829-5.162-30.781-4.462-39.302-3.898-6.622.553-13.333.355-20.056.79-18.294 1.183-36.855 2.745-54.998 5.316-9.258 1.311-19.037 3.525-28.345 5.134a1286 1286 0 0 0-94.19 19.28C451.912 95.266 261.554 163.098 172.765 268.015c-24.355 28.779-42.724 65.833-39.478 104.389 2.306 27.398 15.531 48.794 36.238 66.247 57.674 48.611 180.163 53.408 252.555 47.065a906 906 0 0 0 62.315-7.785c8.31-1.268 20.066-2.735 28.03-4.66"/></svg>